<?xml version="1.0" encoding="UTF-8" standalone="no"?>
<!DOCTYPE svg PUBLIC "-//W3C//DTD SVG 1.1//EN" "http://www.w3.org/Graphics/SVG/1.1/DTD/svg11.dtd">
<!-- Generated by Microsoft Visio, SVG Export MPU模块结构图.svg 页-1 -->
<svg xmlns="http://www.w3.org/2000/svg" xmlns:xlink="http://www.w3.org/1999/xlink" xmlns:ev="http://www.w3.org/2001/xml-events"
		width="4.33765in" height="1.73135in" viewBox="0 0 312.311 124.657" xml:space="preserve" color-interpolation-filters="sRGB"
		class="st11">
	<style type="text/css">
	<![CDATA[
		.st1 {visibility:visible}
		.st2 {fill:#cdcdcd;fill-opacity:0.5;stroke:#cdcdcd;stroke-linecap:round;stroke-linejoin:round;stroke-opacity:0.5}
		.st3 {fill:url(#grad0-6);stroke:#404040;stroke-linecap:round;stroke-linejoin:round;stroke-width:0.25}
		.st4 {fill:#000000;font-family:Calibri;font-size:1.16666em}
		.st5 {fill:none;stroke:none;stroke-linecap:round;stroke-linejoin:round;stroke-width:0.25}
		.st6 {fill:#000000;font-family:Calibri;font-size:0.833336em}
		.st7 {stroke:#cdcdcd;stroke-linecap:round;stroke-linejoin:round;stroke-opacity:0.5;stroke-width:1}
		.st8 {stroke:#404040;stroke-linecap:round;stroke-linejoin:round;stroke-width:1}
		.st9 {fill:#000000;font-family:Calibri;font-size:0.666664em}
		.st10 {fill:none;stroke:#000000;stroke-linecap:round;stroke-linejoin:round;stroke-width:0.5}
		.st11 {fill:none;fill-rule:evenodd;font-size:12px;overflow:visible;stroke-linecap:square;stroke-miterlimit:3}
	]]>
	</style>

	<defs id="Patterns_And_Gradients">
		<linearGradient id="grad0-6" x1="0" y1="0" x2="1" y2="0" gradientTransform="rotate(270 0.5 0.5)">
			<stop offset="0" stop-color="#f0f0f0" stop-opacity="1"/>
			<stop offset="1" stop-color="#ffffff" stop-opacity="1"/>
		</linearGradient>
	</defs>
	<g>
		<title>页-1</title>
		<g id="shape1-1" transform="translate(170.612,-37.3244)">
			<title>矩形</title>
			<desc>MPU</desc>
			<g id="shadow1-2" transform="matrix(1,0,0,1,1.44,1.44)" class="st1">
				<rect x="0" y="69.8543" width="73.0709" height="54.8032" class="st2"/>
			</g>
			<rect x="0" y="69.8543" width="73.0709" height="54.8032" class="st3"/>
			<text x="22.44" y="101.46" class="st4">MPU</text>		</g>
		<g id="shape2-8" transform="translate(112.03,-55.5134)">
			<title>60 度双向箭头</title>
			<g id="shadow2-9" transform="matrix(1,0,0,1,1.44,1.44)" class="st1">
				<path d="M0 115.44 L5.32 106.23 L5.32 112.31 L53.26 112.31 L53.26 106.23 L58.58 115.44 L53.26 124.66 L53.26 118.58
							 L5.32 118.58 L5.32 124.66 L0 115.44 Z" class="st2"/>
			</g>
			<path d="M0 115.44 L5.32 106.23 L5.32 112.31 L53.26 112.31 L53.26 106.23 L58.58 115.44 L53.26 124.66 L53.26 118.58 L5.32
						 118.58 L5.32 124.66 L0 115.44 Z" class="st3"/>
		</g>
		<g id="shape3-13" transform="translate(113.919,-67.5606)">
			<title>Sheet.3</title>
			<desc>AHB bus</desc>
			<rect x="0" y="94.0893" width="53.8583" height="30.5682" class="st5"/>
			<text x="9.86" y="112.37" class="st6">AHB bus</text>		</g>
		<g id="shape4-16" transform="translate(243.683,-55.5134)">
			<title>60 度双向箭头.4</title>
			<g id="shadow4-17" transform="matrix(1,0,0,1,1.44,1.44)" class="st1">
				<path d="M0 115.44 L5.32 106.23 L5.32 112.31 L47.75 112.31 L47.75 106.23 L53.07 115.44 L47.75 124.66 L47.75 118.58
							 L5.32 118.58 L5.32 124.66 L0 115.44 Z" class="st2"/>
			</g>
			<path d="M0 115.44 L5.32 106.23 L5.32 112.31 L47.75 112.31 L47.75 106.23 L53.07 115.44 L47.75 124.66 L47.75 118.58 L5.32
						 118.58 L5.32 124.66 L0 115.44 Z" class="st3"/>
		</g>
		<g id="shape5-21" transform="translate(244.313,-67.5606)">
			<title>Sheet.5</title>
			<desc>MPU bus</desc>
			<rect x="0" y="94.0893" width="53.8583" height="30.5682" class="st5"/>
			<text x="8.52" y="112.37" class="st6">MPU bus</text>		</g>
		<g id="group6-24" transform="translate(101.636,-17.4819)">
			<title>Sheet.6</title>
			<g id="shape7-25" transform="translate(124.657,35.8386) rotate(90)">
				<title>Sheet.7</title>
				<g id="shadow7-26" transform="matrix(1,0,0,1,1.44,-1.44)" class="st1">
					<path d="M0 124.66 L88.82 124.66" class="st7"/>
				</g>
				<path d="M0 124.66 L88.82 124.66" class="st8"/>
			</g>
			<g id="shape8-32" transform="translate(134.106,35.8386) rotate(90)">
				<title>Sheet.8</title>
				<g id="shadow8-33" transform="matrix(1,0,0,1,1.44,-1.44)" class="st1">
					<path d="M0 124.66 L88.82 124.66" class="st7"/>
				</g>
				<path d="M0 124.66 L88.82 124.66" class="st8"/>
			</g>
		</g>
		<g id="shape9-39" transform="translate(63.3681,-81.0252)">
			<title>60 度双向箭头.9</title>
			<g id="shadow9-40" transform="matrix(1,0,0,1,1.44,1.44)" class="st1">
				<path d="M0 115.44 L5.32 106.23 L5.32 112.31 L32.95 112.31 L32.95 106.23 L38.27 115.44 L32.95 124.66 L32.95 118.58
							 L5.32 118.58 L5.32 124.66 L0 115.44 Z" class="st2"/>
			</g>
			<path d="M0 115.44 L5.32 106.23 L5.32 112.31 L32.95 112.31 L32.95 106.23 L38.27 115.44 L32.95 124.66 L32.95 118.58 L5.32
						 118.58 L5.32 124.66 L0 115.44 Z" class="st3"/>
		</g>
		<g id="shape10-44" transform="translate(64.313,-26.2221)">
			<title>60 度双向箭头.10</title>
			<g id="shadow10-45" transform="matrix(1,0,0,1,1.44,1.44)" class="st1">
				<path d="M0 115.44 L5.32 106.23 L5.32 112.31 L32 112.31 L32 106.23 L37.32 115.44 L32 124.66 L32 118.58 L5.32 118.58
							 L5.32 124.66 L0 115.44 Z" class="st2"/>
			</g>
			<path d="M0 115.44 L5.32 106.23 L5.32 112.31 L32 112.31 L32 106.23 L37.32 115.44 L32 124.66 L32 118.58 L5.32 118.58 L5.32
						 124.66 L0 115.44 Z" class="st3"/>
		</g>
		<g id="shape11-49" transform="translate(21.7933,-74.6473)">
			<title>矩形.11</title>
			<desc>M0</desc>
			<g id="shadow11-50" transform="matrix(1,0,0,1,1.44,1.44)" class="st1">
				<rect x="0" y="93.4764" width="41.5748" height="31.1811" class="st2"/>
			</g>
			<rect x="0" y="93.4764" width="41.5748" height="31.1811" class="st3"/>
			<text x="15.34" y="111.47" class="st9">M0</text>		</g>
		<g id="shape12-55" transform="translate(23.2106,-20.0213)">
			<title>矩形.12</title>
			<desc>DMA</desc>
			<g id="shadow12-56" transform="matrix(1,0,0,1,1.44,1.44)" class="st1">
				<rect x="0" y="93.8307" width="41.1024" height="30.8268" class="st2"/>
			</g>
			<rect x="0" y="93.8307" width="41.1024" height="30.8268" class="st3"/>
			<text x="12.36" y="111.64" class="st9">DMA</text>		</g>
		<g id="shape13-61" transform="translate(0.25,-0.25)">
			<title>Sheet.13</title>
			<rect x="0" y="0.499998" width="311.811" height="124.157" class="st10"/>
		</g>
	</g>
</svg>
