<?xml version="1.0" encoding="UTF-8" standalone="no"?>
<!DOCTYPE svg PUBLIC "-//W3C//DTD SVG 1.1//EN" "http://www.w3.org/Graphics/SVG/1.1/DTD/svg11.dtd">
<!-- 由 Microsoft Visio, SVG Export 生成 PGA框图.svg 页-1 -->
<svg xmlns="http://www.w3.org/2000/svg" xmlns:xlink="http://www.w3.org/1999/xlink" xmlns:ev="http://www.w3.org/2001/xml-events"
		xmlns:v="http://schemas.microsoft.com/visio/2003/SVGExtensions/" width="7.77575in" height="3.48866in"
		viewBox="0 0 559.854 251.184" xml:space="preserve" color-interpolation-filters="sRGB" class="st10">
	<v:documentProperties v:langID="2052" v:metric="true" v:viewMarkup="false"/>

	<style type="text/css">
	<![CDATA[
		.st1 {stroke:#000000;stroke-linecap:round;stroke-linejoin:round;stroke-width:0.25}
		.st2 {marker-end:url(#mrkr5-92);stroke:#000000;stroke-linecap:round;stroke-linejoin:round;stroke-width:0.25}
		.st3 {fill:#000000;fill-opacity:1;stroke:#000000;stroke-opacity:1;stroke-width:0.090252707581227}
		.st4 {fill:none;stroke:#000000;stroke-width:0.25}
		.st5 {marker-end:url(#mrkr13-195);stroke:#000000;stroke-linecap:round;stroke-linejoin:round;stroke-width:0.25}
		.st6 {fill:#000000;stroke:#000000;stroke-width:0.25}
		.st7 {fill:none;stroke:none;stroke-width:0.25}
		.st8 {fill:#000000;font-family:Calibri;font-size:0.833336em}
		.st9 {fill:#000000;font-family:Calibri;font-size:0.666664em}
		.st10 {fill:none;fill-rule:evenodd;font-size:12px;overflow:visible;stroke-linecap:square;stroke-miterlimit:3}
	]]>
	</style>

	<defs id="Markers">
		<g id="lend5">
			<path d="M 2 1 L 0 0 L 1.98117 -0.993387 C 1.67173 -0.364515 1.67301 0.372641 1.98465 1.00043 " style="stroke:none"/>
		</g>
		<marker id="mrkr5-92" class="st3" v:arrowType="5" v:arrowSize="2" v:setback="19.39" refX="-19.39" orient="auto"
				markerUnits="strokeWidth" overflow="visible">
			<use xlink:href="#lend5" transform="scale(-11.08,-11.08) "/>
		</marker>
		<g id="lend13">
			<path d="M 3 1 L 0 0 L 3 -1 L 3 1 " style="stroke:none"/>
		</g>
		<marker id="mrkr13-195" class="st3" v:arrowType="13" v:arrowSize="2" v:setback="33.24" refX="-33.24" orient="auto"
				markerUnits="strokeWidth" overflow="visible">
			<use xlink:href="#lend13" transform="scale(-11.08,-11.08) "/>
		</marker>
	</defs>
	<g v:mID="0" v:index="1" v:groupContext="foregroundPage">
		<title>页-1</title>
		<v:pageProperties v:drawingScale="0.0393701" v:pageScale="0.0393701" v:drawingUnits="24" v:shadowOffsetX="8.50394"
				v:shadowOffsetY="-8.50394"/>
		<g id="group31-1" transform="translate(115.758,-45.422)" v:mID="31" v:groupContext="group">
			<title>工作表.31</title>
			<g id="shape32-2" v:mID="32" v:groupContext="shape" transform="translate(265.357,180.318) rotate(90)">
				<title>工作表.32</title>
				<path d="M0 251.18 L70.87 251.18" class="st1"/>
			</g>
			<g id="shape33-5" v:mID="33" v:groupContext="shape" transform="translate(147.3,-32.6858) rotate(32.0054)">
				<title>工作表.33</title>
				<path d="M0 251.18 L66.85 251.18" class="st1"/>
			</g>
			<g id="shape34-8" v:mID="34" v:groupContext="shape" transform="translate(203.993,428.754) rotate(147.995)">
				<title>工作表.34</title>
				<path d="M0 251.18 L66.85 251.18" class="st1"/>
			</g>
			<g id="shape35-11" v:mID="35" v:groupContext="shape" transform="translate(0,-56.6929)">
				<title>工作表.35</title>
				<path d="M0 251.18 L14.17 251.18" class="st1"/>
			</g>
			<g id="shape36-14" v:mID="36" v:groupContext="shape" transform="translate(7.47143E-08,-14.1732)">
				<title>工作表.36</title>
				<path d="M0 251.18 L14.17 251.18" class="st1"/>
			</g>
			<g id="shape37-17" v:mID="37" v:groupContext="shape" transform="translate(70.8661,-35.4331)">
				<title>工作表.37</title>
				<path d="M0 251.18 L14.17 251.18" class="st1"/>
			</g>
			<g id="group38-20" transform="translate(15.3071,-51.0236)" v:mID="38" v:groupContext="group">
				<title>工作表.38</title>
				<g id="shape39-21" v:mID="39" v:groupContext="shape" transform="translate(2.83465,-5.66929)">
					<title>工作表.39</title>
					<path d="M0 251.18 L5.67 251.18" class="st1"/>
				</g>
				<g id="shape40-24" v:mID="40" v:groupContext="shape" transform="translate(256.853,242.68) rotate(90)">
					<title>工作表.40</title>
					<path d="M0 251.18 L5.67 251.18" class="st1"/>
				</g>
			</g>
			<g id="shape41-27" v:mID="41" v:groupContext="shape" transform="translate(18.1417,-14.1732)">
				<title>工作表.41</title>
				<path d="M0 251.18 L5.67 251.18" class="st1"/>
			</g>
		</g>
		<g id="group60-30" transform="translate(318.38,146.234) rotate(90)" v:mID="60" v:groupContext="group">
			<title>工作表.60</title>
			<g id="shape61-31" v:mID="61" v:groupContext="shape" transform="translate(96.7098,470.958) rotate(158.75)">
				<title>工作表.61</title>
				<path d="M0 251.18 L6.08 251.18" class="st1"/>
			</g>
			<g id="shape62-34" v:mID="62" v:groupContext="shape" transform="translate(47.9433,-7.50806) rotate(11.0035)">
				<title>工作表.62</title>
				<path d="M0 251.18 L5.78 251.18" class="st1"/>
			</g>
			<g id="shape63-37" v:mID="63" v:groupContext="shape" transform="translate(96.7098,474.265) rotate(158.75)">
				<title>工作表.63</title>
				<path d="M0 251.18 L6.08 251.18" class="st1"/>
			</g>
			<g id="shape64-40" v:mID="64" v:groupContext="shape" transform="translate(47.9433,-4.20098) rotate(11.0035)">
				<title>工作表.64</title>
				<path d="M0 251.18 L5.78 251.18" class="st1"/>
			</g>
			<g id="shape65-43" v:mID="65" v:groupContext="shape" transform="translate(96.7098,477.572) rotate(158.75)">
				<title>工作表.65</title>
				<path d="M0 251.18 L6.08 251.18" class="st1"/>
			</g>
			<g id="shape66-46" v:mID="66" v:groupContext="shape" transform="translate(254.018,246.774) rotate(90)">
				<title>工作表.66</title>
				<path d="M0 251.18 L4.41 251.18" class="st1"/>
			</g>
			<g id="shape67-49" v:mID="67" v:groupContext="shape" transform="translate(-88.2059,480.879) rotate(-158.75)">
				<title>工作表.67</title>
				<path d="M0 251.18 L3.04 251.18" class="st1"/>
			</g>
			<g id="shape68-52" v:mID="68" v:groupContext="shape" transform="translate(254.018,231.341) rotate(90)">
				<title>工作表.68</title>
				<path d="M0 251.18 L4.41 251.18" class="st1"/>
			</g>
			<g id="shape69-55" v:mID="69" v:groupContext="shape" transform="translate(-85.3713,470.958) rotate(-158.75)">
				<title>工作表.69</title>
				<path d="M0 251.18 L3.04 251.18" class="st1"/>
			</g>
		</g>
		<g id="group70-58" transform="translate(345.682,120.722) rotate(90) scale(-1,1)" v:mID="70" v:groupContext="group">
			<title>工作表.70</title>
			<g id="group71-59" transform="translate(251.184,241.263) rotate(90)" v:mID="71" v:groupContext="group">
				<title>工作表.71</title>
				<g id="shape72-60" v:mID="72" v:groupContext="shape" transform="translate(127.655,450.285) rotate(150.945)">
					<title>工作表.72</title>
					<path d="M0 251.18 L6.49 251.18" class="st1"/>
				</g>
				<g id="shape73-63" v:mID="73" v:groupContext="shape" transform="translate(67.2278,-8.15912) rotate(15.5241)">
					<title>工作表.73</title>
					<path d="M0 251.18 L5.88 251.18" class="st1"/>
				</g>
				<g id="shape74-66" v:mID="74" v:groupContext="shape" transform="translate(127.655,455.01) rotate(150.945)">
					<title>工作表.74</title>
					<path d="M0 251.18 L6.49 251.18" class="st1"/>
				</g>
				<g id="shape75-69" v:mID="75" v:groupContext="shape" transform="translate(67.2278,-3.43471) rotate(15.5241)">
					<title>工作表.75</title>
					<path d="M0 251.18 L5.88 251.18" class="st1"/>
				</g>
				<g id="shape76-72" v:mID="76" v:groupContext="shape" transform="translate(127.655,459.734) rotate(150.945)">
					<title>工作表.76</title>
					<path d="M0 251.18 L6.49 251.18" class="st1"/>
				</g>
				<g id="shape77-75" v:mID="77" v:groupContext="shape" transform="translate(254.018,244.885) rotate(90)">
					<title>工作表.77</title>
					<path d="M0 251.18 L6.3 251.18" class="st1"/>
				</g>
				<g id="shape78-78" v:mID="78" v:groupContext="shape" transform="translate(-119.151,464.459) rotate(-150.945)">
					<title>工作表.78</title>
					<path d="M0 251.18 L3.24 251.18" class="st1"/>
				</g>
				<g id="shape79-81" v:mID="79" v:groupContext="shape" transform="translate(254.018,222.837) rotate(90)">
					<title>工作表.79</title>
					<path d="M0 251.18 L6.3 251.18" class="st1"/>
				</g>
				<g id="shape80-84" v:mID="80" v:groupContext="shape" transform="translate(-116.316,450.285) rotate(-150.945)">
					<title>工作表.80</title>
					<path d="M0 251.18 L3.24 251.18" class="st1"/>
				</g>
			</g>
			<g id="shape81-87" v:mID="81" v:groupContext="shape" transform="translate(-170.527,73.57) rotate(-45)">
				<title>工作表.81</title>
				<path d="M0 251.18 L18.36 251.18" class="st2"/>
			</g>
		</g>
		<g id="shape82-93" v:mID="82" v:groupContext="shape" transform="translate(87.785,-102.115)">
			<title>工作表.82</title>
			<path d="M0 251.18 L28.35 251.18" class="st1"/>
		</g>
		<g id="shape86-96" v:mID="86" v:groupContext="shape" transform="translate(-149.599,149.069) rotate(-90)">
			<title>工作表.86</title>
			<path d="M0 251.18 L28.35 251.18" class="st1"/>
		</g>
		<g id="shape87-99" v:mID="87" v:groupContext="shape" transform="translate(200.798,-80.8551)">
			<title>工作表.87</title>
			<path d="M0 251.18 L56.69 251.18" class="st1"/>
		</g>
		<g id="shape88-102" v:mID="88" v:groupContext="shape" transform="translate(51.979,-59.5952)">
			<title>工作表.88</title>
			<path d="M0 251.18 L16.41 251.18" class="st1"/>
		</g>
		<g id="group89-105" transform="translate(318.38,188.754) rotate(90)" v:mID="89" v:groupContext="group">
			<title>工作表.89</title>
			<g id="shape90-106" v:mID="90" v:groupContext="shape" transform="translate(96.7098,470.958) rotate(158.75)">
				<title>工作表.90</title>
				<path d="M0 251.18 L6.08 251.18" class="st1"/>
			</g>
			<g id="shape91-109" v:mID="91" v:groupContext="shape" transform="translate(47.9433,-7.50806) rotate(11.0035)">
				<title>工作表.91</title>
				<path d="M0 251.18 L5.78 251.18" class="st1"/>
			</g>
			<g id="shape92-112" v:mID="92" v:groupContext="shape" transform="translate(96.7098,474.265) rotate(158.75)">
				<title>工作表.92</title>
				<path d="M0 251.18 L6.08 251.18" class="st1"/>
			</g>
			<g id="shape93-115" v:mID="93" v:groupContext="shape" transform="translate(47.9433,-4.20098) rotate(11.0035)">
				<title>工作表.93</title>
				<path d="M0 251.18 L5.78 251.18" class="st1"/>
			</g>
			<g id="shape94-118" v:mID="94" v:groupContext="shape" transform="translate(96.7098,477.572) rotate(158.75)">
				<title>工作表.94</title>
				<path d="M0 251.18 L6.08 251.18" class="st1"/>
			</g>
			<g id="shape95-121" v:mID="95" v:groupContext="shape" transform="translate(254.018,246.774) rotate(90)">
				<title>工作表.95</title>
				<path d="M0 251.18 L4.41 251.18" class="st1"/>
			</g>
			<g id="shape96-124" v:mID="96" v:groupContext="shape" transform="translate(-88.2059,480.879) rotate(-158.75)">
				<title>工作表.96</title>
				<path d="M0 251.18 L3.04 251.18" class="st1"/>
			</g>
			<g id="shape97-127" v:mID="97" v:groupContext="shape" transform="translate(254.018,231.341) rotate(90)">
				<title>工作表.97</title>
				<path d="M0 251.18 L4.41 251.18" class="st1"/>
			</g>
			<g id="shape98-130" v:mID="98" v:groupContext="shape" transform="translate(-85.3713,470.958) rotate(-158.75)">
				<title>工作表.98</title>
				<path d="M0 251.18 L3.04 251.18" class="st1"/>
			</g>
		</g>
		<g id="shape99-133" v:mID="99" v:groupContext="shape" transform="translate(87.412,-59.5952)">
			<title>工作表.99</title>
			<path d="M0 251.18 L28.35 251.18" class="st1"/>
		</g>
		<g id="shape100-136" v:mID="100" v:groupContext="shape" transform="translate(-149.599,227.022) rotate(-90)">
			<title>工作表.100</title>
			<path d="M0 251.18 L35.43 251.18" class="st1"/>
		</g>
		<g id="shape101-139" v:mID="101" v:groupContext="shape" transform="translate(-50.3859,227.022) rotate(-90)">
			<title>工作表.101</title>
			<path d="M0 251.18 L56.69 251.18" class="st1"/>
		</g>
		<g id="group102-142" transform="translate(144.105,-17.0755)" v:mID="102" v:groupContext="group">
			<title>工作表.102</title>
			<g id="group103-143" transform="translate(251.184,241.263) rotate(90)" v:mID="103" v:groupContext="group">
				<title>工作表.103</title>
				<g id="shape104-144" v:mID="104" v:groupContext="shape" transform="translate(127.655,450.285) rotate(150.945)">
					<title>工作表.104</title>
					<path d="M0 251.18 L6.49 251.18" class="st1"/>
				</g>
				<g id="shape105-147" v:mID="105" v:groupContext="shape" transform="translate(67.2278,-8.15912) rotate(15.5241)">
					<title>工作表.105</title>
					<path d="M0 251.18 L5.88 251.18" class="st1"/>
				</g>
				<g id="shape106-150" v:mID="106" v:groupContext="shape" transform="translate(127.655,455.01) rotate(150.945)">
					<title>工作表.106</title>
					<path d="M0 251.18 L6.49 251.18" class="st1"/>
				</g>
				<g id="shape107-153" v:mID="107" v:groupContext="shape" transform="translate(67.2278,-3.43471) rotate(15.5241)">
					<title>工作表.107</title>
					<path d="M0 251.18 L5.88 251.18" class="st1"/>
				</g>
				<g id="shape108-156" v:mID="108" v:groupContext="shape" transform="translate(127.655,459.734) rotate(150.945)">
					<title>工作表.108</title>
					<path d="M0 251.18 L6.49 251.18" class="st1"/>
				</g>
				<g id="shape109-159" v:mID="109" v:groupContext="shape" transform="translate(254.018,244.885) rotate(90)">
					<title>工作表.109</title>
					<path d="M0 251.18 L6.3 251.18" class="st1"/>
				</g>
				<g id="shape110-162" v:mID="110" v:groupContext="shape" transform="translate(-119.151,464.459) rotate(-150.945)">
					<title>工作表.110</title>
					<path d="M0 251.18 L3.24 251.18" class="st1"/>
				</g>
				<g id="shape111-165" v:mID="111" v:groupContext="shape" transform="translate(254.018,222.837) rotate(90)">
					<title>工作表.111</title>
					<path d="M0 251.18 L6.3 251.18" class="st1"/>
				</g>
				<g id="shape112-168" v:mID="112" v:groupContext="shape" transform="translate(-116.316,450.285) rotate(-150.945)">
					<title>工作表.112</title>
					<path d="M0 251.18 L3.24 251.18" class="st1"/>
				</g>
			</g>
			<g id="shape113-171" v:mID="113" v:groupContext="shape" transform="translate(-170.527,73.57) rotate(-45)">
				<title>工作表.113</title>
				<path d="M0 251.18 L18.36 251.18" class="st2"/>
			</g>
		</g>
		<g id="shape114-176" v:mID="114" v:groupContext="shape" transform="translate(101.585,-24.1621)">
			<title>工作表.114</title>
			<path d="M0 251.18 L42.52 251.18" class="st1"/>
		</g>
		<g id="shape115-179" v:mID="115" v:groupContext="shape" transform="translate(172.451,-24.1621)">
			<title>工作表.115</title>
			<path d="M0 251.18 L28.35 251.18" class="st1"/>
		</g>
		<g id="shape116-182" v:mID="116" v:groupContext="shape" transform="translate(51.979,-102.115)">
			<title>工作表.116</title>
			<path d="M0 251.18 L15.22 251.18" class="st1"/>
		</g>
		<g id="shape117-185" v:mID="117" v:groupContext="shape" transform="translate(-149.599,92.376) rotate(-90)">
			<title>工作表.117</title>
			<path d="M0 251.18 L7.09 251.18" class="st1"/>
		</g>
		<g id="shape118-188" v:mID="118" v:groupContext="shape" transform="translate(172.451,-208.414)">
			<title>工作表.118</title>
			<v:userDefs>
				<v:ud v:nameU="visVersion" v:val="VT0(15):26"/>
				<v:ud v:nameU="visMasterStencil" v:prompt="" v:val="VT4(Basic_M.vssx)"/>
			</v:userDefs>
			<rect x="0" y="208.664" width="70.8661" height="42.5197" class="st4"/>
		</g>
		<g id="shape119-190" v:mID="119" v:groupContext="shape" transform="translate(243.318,-229.674)">
			<title>工作表.119</title>
			<path d="M0 251.18 L34.21 251.18" class="st5"/>
		</g>
		<g id="group120-196" transform="translate(243.318,-158.716)" v:mID="120" v:groupContext="group">
			<title>工作表.120</title>
			<g id="shape121-197" v:mID="121" v:groupContext="shape">
				<title>工作表.121</title>
				<path d="M0 251.18 L8.5 251.18" class="st1"/>
			</g>
			<g id="shape122-200" v:mID="122" v:groupContext="shape" transform="translate(17.0079,-1.28164E-05)">
				<title>工作表.122</title>
				<path d="M0 251.18 L11.34 251.18" class="st1"/>
			</g>
			<g id="shape123-203" v:mID="123" v:groupContext="shape" transform="translate(-169.11,73.57) rotate(-45)">
				<title>工作表.123</title>
				<path d="M0 251.18 L12.03 251.18" class="st1"/>
			</g>
		</g>
		<g id="group130-206" transform="translate(243.318,-130.37)" v:mID="130" v:groupContext="group">
			<title>工作表.130</title>
			<g id="shape131-207" v:mID="131" v:groupContext="shape">
				<title>工作表.131</title>
				<path d="M0 251.18 L8.5 251.18" class="st1"/>
			</g>
			<g id="shape132-210" v:mID="132" v:groupContext="shape" transform="translate(17.0079,-1.28164E-05)">
				<title>工作表.132</title>
				<path d="M0 251.18 L11.34 251.18" class="st1"/>
			</g>
			<g id="shape133-213" v:mID="133" v:groupContext="shape" transform="translate(-169.11,73.57) rotate(-45)">
				<title>工作表.133</title>
				<path d="M0 251.18 L12.03 251.18" class="st1"/>
			</g>
		</g>
		<g id="group134-216" transform="translate(243.318,-102.023)" v:mID="134" v:groupContext="group">
			<title>工作表.134</title>
			<g id="shape135-217" v:mID="135" v:groupContext="shape">
				<title>工作表.135</title>
				<path d="M0 251.18 L8.5 251.18" class="st1"/>
			</g>
			<g id="shape136-220" v:mID="136" v:groupContext="shape" transform="translate(17.0079,-1.28164E-05)">
				<title>工作表.136</title>
				<path d="M0 251.18 L11.34 251.18" class="st1"/>
			</g>
			<g id="shape137-223" v:mID="137" v:groupContext="shape" transform="translate(-169.11,73.57) rotate(-45)">
				<title>工作表.137</title>
				<path d="M0 251.18 L12.03 251.18" class="st1"/>
			</g>
		</g>
		<g id="shape138-226" v:mID="138" v:groupContext="shape" transform="translate(-36.2127,170.329) rotate(-90)">
			<title>工作表.138</title>
			<path d="M0 251.18 L77.86 251.18" class="st1"/>
		</g>
		<g id="shape139-229" v:mID="139" v:groupContext="shape" transform="translate(257.491,-80.8551)">
			<title>工作表.139</title>
			<path d="M0 251.18 L127.56 251.18" class="st1"/>
		</g>
		<g id="group140-232" transform="translate(385.05,-24.1621)" v:mID="140" v:groupContext="group">
			<title>工作表.140</title>
			<g id="shape141-233" v:mID="141" v:groupContext="shape" transform="translate(265.357,180.318) rotate(90)">
				<title>工作表.141</title>
				<path d="M0 251.18 L70.87 251.18" class="st1"/>
			</g>
			<g id="shape142-236" v:mID="142" v:groupContext="shape" transform="translate(147.3,-32.6858) rotate(32.0054)">
				<title>工作表.142</title>
				<path d="M0 251.18 L66.85 251.18" class="st1"/>
			</g>
			<g id="shape143-239" v:mID="143" v:groupContext="shape" transform="translate(203.993,428.754) rotate(147.995)">
				<title>工作表.143</title>
				<path d="M0 251.18 L66.85 251.18" class="st1"/>
			</g>
			<g id="shape144-242" v:mID="144" v:groupContext="shape" transform="translate(0,-56.6929)">
				<title>工作表.144</title>
				<path d="M0 251.18 L14.17 251.18" class="st1"/>
			</g>
			<g id="shape145-245" v:mID="145" v:groupContext="shape" transform="translate(7.47143E-08,-14.1732)">
				<title>工作表.145</title>
				<path d="M0 251.18 L14.17 251.18" class="st1"/>
			</g>
			<g id="shape146-248" v:mID="146" v:groupContext="shape" transform="translate(70.8661,-35.4331)">
				<title>工作表.146</title>
				<path d="M0 251.18 L14.17 251.18" class="st1"/>
			</g>
			<g id="group147-251" transform="translate(15.3071,-51.0236)" v:mID="147" v:groupContext="group">
				<title>工作表.147</title>
				<g id="shape148-252" v:mID="148" v:groupContext="shape" transform="translate(2.83465,-5.66929)">
					<title>工作表.148</title>
					<path d="M0 251.18 L5.67 251.18" class="st1"/>
				</g>
				<g id="shape149-255" v:mID="149" v:groupContext="shape" transform="translate(256.853,242.68) rotate(90)">
					<title>工作表.149</title>
					<path d="M0 251.18 L5.67 251.18" class="st1"/>
				</g>
			</g>
			<g id="shape150-258" v:mID="150" v:groupContext="shape" transform="translate(18.1417,-14.1732)">
				<title>工作表.150</title>
				<path d="M0 251.18 L5.67 251.18" class="st1"/>
			</g>
		</g>
		<g id="shape151-261" v:mID="151" v:groupContext="shape" transform="translate(133.866,241.195) rotate(-90)">
			<title>工作表.151</title>
			<path d="M0 251.18 L28.35 251.18" class="st1"/>
		</g>
		<g id="shape152-264" v:mID="152" v:groupContext="shape" transform="translate(385.05,-9.98891)">
			<title>工作表.152</title>
			<path d="M0 251.18 L85.04 251.18" class="st1"/>
		</g>
		<g id="shape153-267" v:mID="153" v:groupContext="shape" transform="translate(218.905,241.195) rotate(-90)">
			<title>工作表.153</title>
			<path d="M0 251.18 L106.3 251.18" class="st1"/>
		</g>
		<g id="shape154-270" v:mID="154" v:groupContext="shape" transform="translate(470.089,-59.5952)">
			<title>工作表.154</title>
			<path d="M0 251.18 L28.35 251.18" class="st1"/>
		</g>
		<g id="group155-273" transform="translate(413.396,-116.288)" v:mID="155" v:groupContext="group">
			<title>工作表.155</title>
			<g id="shape156-274" v:mID="156" v:groupContext="shape">
				<title>工作表.156</title>
				<path d="M0 251.18 L8.5 251.18" class="st1"/>
			</g>
			<g id="shape157-277" v:mID="157" v:groupContext="shape" transform="translate(17.0079,-1.28164E-05)">
				<title>工作表.157</title>
				<path d="M0 251.18 L11.34 251.18" class="st1"/>
			</g>
			<g id="shape158-280" v:mID="158" v:groupContext="shape" transform="translate(-169.11,73.57) rotate(-45)">
				<title>工作表.158</title>
				<path d="M0 251.18 L12.03 251.18" class="st1"/>
			</g>
		</g>
		<g id="shape159-283" v:mID="159" v:groupContext="shape" transform="translate(133.866,170.329) rotate(-90)">
			<title>工作表.159</title>
			<path d="M0 251.18 L35.43 251.18" class="st1"/>
		</g>
		<g id="shape160-286" v:mID="160" v:groupContext="shape" transform="translate(385.05,-116.288)">
			<title>工作表.160</title>
			<path d="M0 251.18 L28.35 251.18" class="st1"/>
		</g>
		<g id="shape161-289" v:mID="161" v:groupContext="shape" transform="translate(441.743,-116.288)">
			<title>工作表.161</title>
			<path d="M0 251.18 L28.35 251.18" class="st1"/>
		</g>
		<g id="group169-292" transform="translate(43.475,-99.2803)" v:mID="169" v:groupContext="group">
			<title>工作表.169</title>
			<g id="shape170-293" v:mID="170" v:groupContext="shape" transform="translate(-7.99361E-15,-5.66929)">
				<title>工作表.170</title>
				<path d="M0 251.18 L5.67 251.18" class="st1"/>
			</g>
			<g id="shape171-296" v:mID="171" v:groupContext="shape">
				<title>工作表.171</title>
				<path d="M0 251.18 L5.67 251.18" class="st1"/>
			</g>
			<g id="shape172-299" v:mID="172" v:groupContext="shape" transform="translate(183.283,67.9007) rotate(45)">
				<title>工作表.172</title>
				<path d="M0 251.18 L4.01 251.18" class="st1"/>
			</g>
			<g id="shape173-302" v:mID="173" v:groupContext="shape" transform="translate(-171.944,73.57) rotate(-45)">
				<title>工作表.173</title>
				<path d="M0 251.18 L4.01 251.18" class="st1"/>
			</g>
			<g id="shape174-305" v:mID="174" v:groupContext="shape" transform="translate(-251.184,251.184) rotate(-90)">
				<title>工作表.174</title>
				<path d="M0 251.18 L5.67 251.18" class="st1"/>
			</g>
		</g>
		<g id="group181-308" transform="translate(43.475,-56.7606)" v:mID="181" v:groupContext="group">
			<title>工作表.181</title>
			<g id="shape182-309" v:mID="182" v:groupContext="shape" transform="translate(-7.99361E-15,-5.66929)">
				<title>工作表.182</title>
				<path d="M0 251.18 L5.67 251.18" class="st1"/>
			</g>
			<g id="shape183-312" v:mID="183" v:groupContext="shape">
				<title>工作表.183</title>
				<path d="M0 251.18 L5.67 251.18" class="st1"/>
			</g>
			<g id="shape184-315" v:mID="184" v:groupContext="shape" transform="translate(183.283,67.9007) rotate(45)">
				<title>工作表.184</title>
				<path d="M0 251.18 L4.01 251.18" class="st1"/>
			</g>
			<g id="shape185-318" v:mID="185" v:groupContext="shape" transform="translate(-171.944,73.57) rotate(-45)">
				<title>工作表.185</title>
				<path d="M0 251.18 L4.01 251.18" class="st1"/>
			</g>
			<g id="shape186-321" v:mID="186" v:groupContext="shape" transform="translate(-251.184,251.184) rotate(-90)">
				<title>工作表.186</title>
				<path d="M0 251.18 L5.67 251.18" class="st1"/>
			</g>
		</g>
		<g id="shape187-324" v:mID="187" v:groupContext="shape" transform="translate(468.3,-57.8058)">
			<title>工作表.187</title>
			<ellipse cx="1.78937" cy="249.394" rx="1.78937" ry="1.78937" class="st6"/>
		</g>
		<g id="shape190-326" v:mID="190" v:groupContext="shape" transform="translate(130.908,-70.8551)">
			<title>工作表.190</title>
			<desc>OPAx</desc>
			<v:textBlock v:margins="rect(4,4,4,4)" v:tabSpace="42.5197"/>
			<v:textRect cx="20.7717" cy="241.184" width="41.55" height="20"/>
			<rect x="0" y="231.184" width="41.5433" height="20" class="st7"/>
			<text x="9.82" y="244.18" class="st8" v:langID="2052"><v:paragraph v:horizAlign="1"/><v:tabList/>OPAx</text>		</g>
		<g id="shape191-329" v:mID="191" v:groupContext="shape" transform="translate(400.199,-49.5952)">
			<title>工作表.191</title>
			<desc>BUFx</desc>
			<v:textBlock v:margins="rect(4,4,4,4)" v:tabSpace="42.5197"/>
			<v:textRect cx="20.7717" cy="241.184" width="41.55" height="20"/>
			<rect x="0" y="231.184" width="41.5433" height="20" class="st7"/>
			<text x="10.38" y="244.18" class="st8" v:langID="2052"><v:paragraph v:horizAlign="1"/><v:tabList/>BUFx</text>		</g>
		<g id="shape192-332" v:mID="192" v:groupContext="shape" transform="translate(399.223,-121.137)">
			<title>工作表.192</title>
			<desc>BUF_BYPASS</desc>
			<v:textBlock v:margins="rect(4,4,4,4)" v:tabSpace="42.5197"/>
			<v:textRect cx="31.6457" cy="241.184" width="63.3" height="20"/>
			<rect x="0" y="231.184" width="63.2913" height="20" class="st7"/>
			<text x="10.89" y="243.58" class="st9" v:langID="2052"><v:paragraph v:horizAlign="1"/><v:tabList/>BUF_BYPASS</text>		</g>
		<g id="shape193-335" v:mID="193" v:groupContext="shape" transform="translate(474.565,-35.8663)">
			<title>工作表.193</title>
			<desc>OPAx_OUT_BUF</desc>
			<v:textBlock v:margins="rect(4,4,4,4)" v:tabSpace="42.5197"/>
			<v:textRect cx="42.5197" cy="241.184" width="85.04" height="20"/>
			<rect x="0" y="231.184" width="85.0394" height="20" class="st7"/>
			<text x="9.41" y="244.18" class="st8" v:langID="2052"><v:paragraph v:horizAlign="1"/><v:tabList/>OPAx_OUT_BUF</text>		</g>
		<g id="group194-338" transform="translate(473.808,89.5414) rotate(90)" v:mID="194" v:groupContext="group">
			<title>工作表.194</title>
			<g id="shape195-339" v:mID="195" v:groupContext="shape" transform="translate(96.7098,470.958) rotate(158.75)">
				<title>工作表.195</title>
				<path d="M0 251.18 L6.08 251.18" class="st1"/>
			</g>
			<g id="shape196-342" v:mID="196" v:groupContext="shape" transform="translate(47.9433,-7.50806) rotate(11.0035)">
				<title>工作表.196</title>
				<path d="M0 251.18 L5.78 251.18" class="st1"/>
			</g>
			<g id="shape197-345" v:mID="197" v:groupContext="shape" transform="translate(96.7098,474.265) rotate(158.75)">
				<title>工作表.197</title>
				<path d="M0 251.18 L6.08 251.18" class="st1"/>
			</g>
			<g id="shape198-348" v:mID="198" v:groupContext="shape" transform="translate(47.9433,-4.20098) rotate(11.0035)">
				<title>工作表.198</title>
				<path d="M0 251.18 L5.78 251.18" class="st1"/>
			</g>
			<g id="shape199-351" v:mID="199" v:groupContext="shape" transform="translate(96.7098,477.572) rotate(158.75)">
				<title>工作表.199</title>
				<path d="M0 251.18 L6.08 251.18" class="st1"/>
			</g>
			<g id="shape200-354" v:mID="200" v:groupContext="shape" transform="translate(254.018,246.774) rotate(90)">
				<title>工作表.200</title>
				<path d="M0 251.18 L4.41 251.18" class="st1"/>
			</g>
			<g id="shape201-357" v:mID="201" v:groupContext="shape" transform="translate(-88.2059,480.879) rotate(-158.75)">
				<title>工作表.201</title>
				<path d="M0 251.18 L3.04 251.18" class="st1"/>
			</g>
			<g id="shape202-360" v:mID="202" v:groupContext="shape" transform="translate(254.018,231.341) rotate(90)">
				<title>工作表.202</title>
				<path d="M0 251.18 L4.41 251.18" class="st1"/>
			</g>
			<g id="shape203-363" v:mID="203" v:groupContext="shape" transform="translate(-85.3713,470.958) rotate(-158.75)">
				<title>工作表.203</title>
				<path d="M0 251.18 L3.04 251.18" class="st1"/>
			</g>
		</g>
		<g id="group204-366" transform="translate(473.808,117.888) rotate(90)" v:mID="204" v:groupContext="group">
			<title>工作表.204</title>
			<g id="shape205-367" v:mID="205" v:groupContext="shape" transform="translate(96.7098,470.958) rotate(158.75)">
				<title>工作表.205</title>
				<path d="M0 251.18 L6.08 251.18" class="st1"/>
			</g>
			<g id="shape206-370" v:mID="206" v:groupContext="shape" transform="translate(47.9433,-7.50806) rotate(11.0035)">
				<title>工作表.206</title>
				<path d="M0 251.18 L5.78 251.18" class="st1"/>
			</g>
			<g id="shape207-373" v:mID="207" v:groupContext="shape" transform="translate(96.7098,474.265) rotate(158.75)">
				<title>工作表.207</title>
				<path d="M0 251.18 L6.08 251.18" class="st1"/>
			</g>
			<g id="shape208-376" v:mID="208" v:groupContext="shape" transform="translate(47.9433,-4.20098) rotate(11.0035)">
				<title>工作表.208</title>
				<path d="M0 251.18 L5.78 251.18" class="st1"/>
			</g>
			<g id="shape209-379" v:mID="209" v:groupContext="shape" transform="translate(96.7098,477.572) rotate(158.75)">
				<title>工作表.209</title>
				<path d="M0 251.18 L6.08 251.18" class="st1"/>
			</g>
			<g id="shape210-382" v:mID="210" v:groupContext="shape" transform="translate(254.018,246.774) rotate(90)">
				<title>工作表.210</title>
				<path d="M0 251.18 L4.41 251.18" class="st1"/>
			</g>
			<g id="shape211-385" v:mID="211" v:groupContext="shape" transform="translate(-88.2059,480.879) rotate(-158.75)">
				<title>工作表.211</title>
				<path d="M0 251.18 L3.04 251.18" class="st1"/>
			</g>
			<g id="shape212-388" v:mID="212" v:groupContext="shape" transform="translate(254.018,231.341) rotate(90)">
				<title>工作表.212</title>
				<path d="M0 251.18 L4.41 251.18" class="st1"/>
			</g>
			<g id="shape213-391" v:mID="213" v:groupContext="shape" transform="translate(-85.3713,470.958) rotate(-158.75)">
				<title>工作表.213</title>
				<path d="M0 251.18 L3.04 251.18" class="st1"/>
			</g>
		</g>
		<g id="group214-394" transform="translate(474.225,146.222) rotate(90)" v:mID="214" v:groupContext="group">
			<title>工作表.214</title>
			<g id="shape215-395" v:mID="215" v:groupContext="shape" transform="translate(96.7098,470.958) rotate(158.75)">
				<title>工作表.215</title>
				<path d="M0 251.18 L6.08 251.18" class="st1"/>
			</g>
			<g id="shape216-398" v:mID="216" v:groupContext="shape" transform="translate(47.9433,-7.50806) rotate(11.0035)">
				<title>工作表.216</title>
				<path d="M0 251.18 L5.78 251.18" class="st1"/>
			</g>
			<g id="shape217-401" v:mID="217" v:groupContext="shape" transform="translate(96.7098,474.265) rotate(158.75)">
				<title>工作表.217</title>
				<path d="M0 251.18 L6.08 251.18" class="st1"/>
			</g>
			<g id="shape218-404" v:mID="218" v:groupContext="shape" transform="translate(47.9433,-4.20098) rotate(11.0035)">
				<title>工作表.218</title>
				<path d="M0 251.18 L5.78 251.18" class="st1"/>
			</g>
			<g id="shape219-407" v:mID="219" v:groupContext="shape" transform="translate(96.7098,477.572) rotate(158.75)">
				<title>工作表.219</title>
				<path d="M0 251.18 L6.08 251.18" class="st1"/>
			</g>
			<g id="shape220-410" v:mID="220" v:groupContext="shape" transform="translate(254.018,246.774) rotate(90)">
				<title>工作表.220</title>
				<path d="M0 251.18 L4.41 251.18" class="st1"/>
			</g>
			<g id="shape221-413" v:mID="221" v:groupContext="shape" transform="translate(-88.2059,480.879) rotate(-158.75)">
				<title>工作表.221</title>
				<path d="M0 251.18 L3.04 251.18" class="st1"/>
			</g>
			<g id="shape222-416" v:mID="222" v:groupContext="shape" transform="translate(254.018,231.341) rotate(90)">
				<title>工作表.222</title>
				<path d="M0 251.18 L4.41 251.18" class="st1"/>
			</g>
			<g id="shape223-419" v:mID="223" v:groupContext="shape" transform="translate(-85.3713,470.958) rotate(-158.75)">
				<title>工作表.223</title>
				<path d="M0 251.18 L3.04 251.18" class="st1"/>
			</g>
		</g>
		<g id="shape224-422" v:mID="224" v:groupContext="shape" transform="translate(20.4802,149.16) rotate(-90)">
			<title>工作表.224</title>
			<path d="M0 251.18 L56.69 251.18" class="st1"/>
		</g>
		<g id="shape225-425" v:mID="225" v:groupContext="shape" transform="translate(272.037,-158.716)">
			<title>工作表.225</title>
			<path d="M0 251.18 L13.8 251.18" class="st1"/>
		</g>
		<g id="shape226-428" v:mID="226" v:groupContext="shape" transform="translate(214.971,-158.716)">
			<title>工作表.226</title>
			<path d="M0 251.18 L7.09 251.18" class="st1"/>
		</g>
		<g id="shape227-431" v:mID="227" v:groupContext="shape" transform="translate(214.971,-130.37)">
			<title>工作表.227</title>
			<path d="M0 251.18 L7.09 251.18" class="st1"/>
		</g>
		<g id="shape229-434" v:mID="229" v:groupContext="shape" transform="translate(289.206,-148.716)">
			<title>工作表.229</title>
			<desc>OPAx_OUT_PAD</desc>
			<v:textBlock v:margins="rect(4,4,4,4)" v:tabSpace="42.5197"/>
			<v:textRect cx="42.5197" cy="241.184" width="85.04" height="20"/>
			<rect x="0" y="231.184" width="85.0394" height="20" class="st7"/>
			<text x="9.08" y="244.18" class="st8" v:langID="2052"><v:paragraph v:horizAlign="1"/><v:tabList/>OPAx_OUT_PAD</text>		</g>
		<g id="shape230-437" v:mID="230" v:groupContext="shape" transform="translate(-22.0395,191.589) rotate(-90)">
			<title>工作表.230</title>
			<path d="M0 251.18 L21.26 251.18" class="st1"/>
		</g>
		<g id="shape231-440" v:mID="231" v:groupContext="shape" transform="translate(229.144,-59.5952) rotate(5.77715E-08)">
			<title>工作表.231</title>
			<path d="M0 251.18 L14.17 251.18" class="st1"/>
		</g>
		<g id="shape232-443" v:mID="232" v:groupContext="shape" transform="translate(250.541,-49.5952)">
			<title>工作表.232</title>
			<desc>OPAx_OUT</desc>
			<v:textBlock v:margins="rect(4,4,4,4)" v:tabSpace="42.5197"/>
			<v:textRect cx="26.9063" cy="241.184" width="53.82" height="20"/>
			<rect x="0" y="231.184" width="53.8125" height="20" class="st7"/>
			<text x="4.51" y="244.18" class="st8" v:langID="2052"><v:paragraph v:horizAlign="1"/><v:tabList/>OPAx_OUT</text>		</g>
		<g id="shape287-446" v:mID="287" v:groupContext="shape" transform="translate(222.081,-101.122)">
			<title>工作表.287</title>
			<desc>100</desc>
			<v:textBlock v:margins="rect(4,4,4,4)" v:tabSpace="42.5197"/>
			<v:textRect cx="10.6181" cy="241.184" width="21.24" height="20"/>
			<rect x="0" y="231.184" width="21.2362" height="20" class="st7"/>
			<text x="4.54" y="243.58" class="st9" v:langID="2052"><v:paragraph v:horizAlign="1"/><v:tabList/>100</text>		</g>
		<g id="shape288-449" v:mID="288" v:groupContext="shape" transform="translate(221.648,-132.393)">
			<title>工作表.288</title>
			<desc>1k</desc>
			<v:textBlock v:margins="rect(4,4,4,4)" v:tabSpace="42.5197"/>
			<v:textRect cx="10.6181" cy="243.436" width="21.24" height="15.4952"/>
			<rect x="0" y="235.689" width="21.2362" height="15.4952" class="st7"/>
			<text x="6.77" y="245.84" class="st9" v:langID="2052"><v:paragraph v:horizAlign="1"/><v:tabList/>1k</text>		</g>
		<g id="shape289-452" v:mID="289" v:groupContext="shape" transform="translate(221.43,-159.872)">
			<title>工作表.289</title>
			<desc>10k</desc>
			<v:textBlock v:margins="rect(4,4,4,4)" v:tabSpace="42.5197"/>
			<v:textRect cx="10.6181" cy="243.31" width="21.24" height="15.748"/>
			<rect x="0" y="235.436" width="21.2362" height="15.748" class="st7"/>
			<text x="4.74" y="245.71" class="st9" v:langID="2052"><v:paragraph v:horizAlign="1"/><v:tabList/>10k</text>		</g>
		<g id="shape290-455" v:mID="290" v:groupContext="shape" transform="translate(65.8028,-84.1469)">
			<title>工作表.290</title>
			<desc>10k</desc>
			<v:textBlock v:margins="rect(4,4,4,4)" v:tabSpace="42.5197"/>
			<v:textRect cx="10.6181" cy="243.31" width="21.24" height="15.748"/>
			<rect x="0" y="235.436" width="21.2362" height="15.748" class="st7"/>
			<text x="4.74" y="245.71" class="st9" v:langID="2052"><v:paragraph v:horizAlign="1"/><v:tabList/>10k</text>		</g>
		<g id="shape291-458" v:mID="291" v:groupContext="shape" transform="translate(66.4997,-58.4776)">
			<title>工作表.291</title>
			<desc>10k</desc>
			<v:textBlock v:margins="rect(4,4,4,4)" v:tabSpace="42.5197"/>
			<v:textRect cx="10.6181" cy="243.31" width="21.24" height="15.748"/>
			<rect x="0" y="235.436" width="21.2362" height="15.748" class="st7"/>
			<text x="4.74" y="245.71" class="st9" v:langID="2052"><v:paragraph v:horizAlign="1"/><v:tabList/>10k</text>		</g>
		<g id="shape292-461" v:mID="292" v:groupContext="shape" transform="translate(101.585,-130.461)">
			<title>工作表.292</title>
			<desc>10k/50k/100k/200k</desc>
			<v:textBlock v:margins="rect(4,4,4,4)" v:tabSpace="42.5197"/>
			<v:textRect cx="39.0413" cy="243.31" width="78.09" height="15.748"/>
			<rect x="0" y="235.436" width="78.0827" height="15.748" class="st7"/>
			<text x="6.86" y="245.71" class="st9" v:langID="2052"><v:paragraph v:horizAlign="1"/><v:tabList/>10k/50k/100k/200k</text>		</g>
		<g id="shape294-464" v:mID="294" v:groupContext="shape" transform="translate(117.25,-0.25)">
			<title>工作表.294</title>
			<desc>10k/50k/100k/200k</desc>
			<v:textBlock v:margins="rect(4,4,4,4)" v:tabSpace="42.5197"/>
			<v:textRect cx="39.0413" cy="243.31" width="78.09" height="15.748"/>
			<rect x="0" y="235.436" width="78.0827" height="15.748" class="st7"/>
			<text x="6.86" y="245.71" class="st9" v:langID="2052"><v:paragraph v:horizAlign="1"/><v:tabList/>10k/50k/100k/200k</text>		</g>
		<g id="shape295-467" v:mID="295" v:groupContext="shape" transform="translate(214.971,-102.023)">
			<title>工作表.295</title>
			<path d="M0 251.18 L7.09 251.18" class="st1"/>
		</g>
		<g id="shape296-470" v:mID="296" v:groupContext="shape" transform="translate(74.679,-171.033)">
			<title>工作表.296</title>
			<desc>PGA_VREF</desc>
			<v:textBlock v:margins="rect(4,4,4,4)" v:tabSpace="42.5197"/>
			<v:textRect cx="26.9063" cy="243.31" width="53.82" height="15.748"/>
			<rect x="0" y="235.436" width="53.8125" height="15.748" class="st7"/>
			<text x="9.78" y="245.71" class="st9" v:langID="2052"><v:paragraph v:horizAlign="1"/><v:tabList/>PGA_VREF</text>		</g>
		<g id="shape297-473" v:mID="297" v:groupContext="shape" transform="translate(238.096,-230.337)">
			<title>工作表.297</title>
			<desc>PGA_VREF</desc>
			<v:textBlock v:margins="rect(4,4,4,4)" v:tabSpace="42.5197"/>
			<v:textRect cx="26.9063" cy="243.31" width="53.82" height="15.748"/>
			<rect x="0" y="235.436" width="53.8125" height="15.748" class="st7"/>
			<text x="9.78" y="245.71" class="st9" v:langID="2052"><v:paragraph v:horizAlign="1"/><v:tabList/>PGA_VREF</text>		</g>
		<g id="shape298-476" v:mID="298" v:groupContext="shape" transform="translate(182.557,-219.674)">
			<title>工作表.298</title>
			<desc>PGA_VREF</desc>
			<v:textBlock v:margins="rect(4,4,4,4)" v:tabSpace="42.5197"/>
			<v:textRect cx="26.9063" cy="241.184" width="53.82" height="20"/>
			<rect x="0" y="231.184" width="53.8125" height="20" class="st7"/>
			<text x="5.5" y="244.18" class="st8" v:langID="2052"><v:paragraph v:horizAlign="1"/><v:tabList/>PGA_VREF</text>		</g>
		<g id="shape299-479" v:mID="299" v:groupContext="shape" transform="translate(238.096,-209.865)">
			<title>工作表.299</title>
			<desc>1.2/1.8/2.25V/ (VREF_ADC/2)</desc>
			<v:textBlock v:margins="rect(4,4,4,4)" v:tabSpace="42.5197"/>
			<v:textRect cx="58.8189" cy="243.31" width="117.64" height="15.748"/>
			<rect x="0" y="235.436" width="117.638" height="15.748" class="st7"/>
			<text x="10.66" y="245.71" class="st9" v:langID="2052"><v:paragraph v:horizAlign="1"/><v:tabList/>1.2/1.8/2.25V/ (VREF_ADC/2)</text>		</g>
		<g id="group300-482" transform="translate(285.837,-155.986)" v:mID="300" v:groupContext="group">
			<title>工作表.300</title>
			<g id="shape301-483" v:mID="301" v:groupContext="shape" transform="translate(-7.99361E-15,-5.66929)">
				<title>工作表.301</title>
				<path d="M0 251.18 L5.67 251.18" class="st1"/>
			</g>
			<g id="shape302-486" v:mID="302" v:groupContext="shape">
				<title>工作表.302</title>
				<path d="M0 251.18 L5.67 251.18" class="st1"/>
			</g>
			<g id="shape303-489" v:mID="303" v:groupContext="shape" transform="translate(183.283,67.9007) rotate(45)">
				<title>工作表.303</title>
				<path d="M0 251.18 L4.01 251.18" class="st1"/>
			</g>
			<g id="shape304-492" v:mID="304" v:groupContext="shape" transform="translate(-171.944,73.57) rotate(-45)">
				<title>工作表.304</title>
				<path d="M0 251.18 L4.01 251.18" class="st1"/>
			</g>
			<g id="shape305-495" v:mID="305" v:groupContext="shape" transform="translate(-251.184,251.184) rotate(-90)">
				<title>工作表.305</title>
				<path d="M0 251.18 L5.67 251.18" class="st1"/>
			</g>
		</g>
		<g id="group306-498" transform="translate(243.318,-56.9844)" v:mID="306" v:groupContext="group">
			<title>工作表.306</title>
			<g id="shape307-499" v:mID="307" v:groupContext="shape" transform="translate(-7.99361E-15,-5.66929)">
				<title>工作表.307</title>
				<path d="M0 251.18 L5.67 251.18" class="st1"/>
			</g>
			<g id="shape308-502" v:mID="308" v:groupContext="shape">
				<title>工作表.308</title>
				<path d="M0 251.18 L5.67 251.18" class="st1"/>
			</g>
			<g id="shape309-505" v:mID="309" v:groupContext="shape" transform="translate(183.283,67.9007) rotate(45)">
				<title>工作表.309</title>
				<path d="M0 251.18 L4.01 251.18" class="st1"/>
			</g>
			<g id="shape310-508" v:mID="310" v:groupContext="shape" transform="translate(-171.944,73.57) rotate(-45)">
				<title>工作表.310</title>
				<path d="M0 251.18 L4.01 251.18" class="st1"/>
			</g>
			<g id="shape311-511" v:mID="311" v:groupContext="shape" transform="translate(-251.184,251.184) rotate(-90)">
				<title>工作表.311</title>
				<path d="M0 251.18 L5.67 251.18" class="st1"/>
			</g>
		</g>
		<g id="group312-514" transform="translate(498.436,-56.7606)" v:mID="312" v:groupContext="group">
			<title>工作表.312</title>
			<g id="shape313-515" v:mID="313" v:groupContext="shape" transform="translate(-7.99361E-15,-5.66929)">
				<title>工作表.313</title>
				<path d="M0 251.18 L5.67 251.18" class="st1"/>
			</g>
			<g id="shape314-518" v:mID="314" v:groupContext="shape">
				<title>工作表.314</title>
				<path d="M0 251.18 L5.67 251.18" class="st1"/>
			</g>
			<g id="shape315-521" v:mID="315" v:groupContext="shape" transform="translate(183.283,67.9007) rotate(45)">
				<title>工作表.315</title>
				<path d="M0 251.18 L4.01 251.18" class="st1"/>
			</g>
			<g id="shape316-524" v:mID="316" v:groupContext="shape" transform="translate(-171.944,73.57) rotate(-45)">
				<title>工作表.316</title>
				<path d="M0 251.18 L4.01 251.18" class="st1"/>
			</g>
			<g id="shape317-527" v:mID="317" v:groupContext="shape" transform="translate(-251.184,251.184) rotate(-90)">
				<title>工作表.317</title>
				<path d="M0 251.18 L5.67 251.18" class="st1"/>
			</g>
		</g>
		<g id="shape321-530" v:mID="321" v:groupContext="shape" transform="translate(99.9025,-165.522)">
			<title>工作表.321</title>
			<ellipse cx="1.78937" cy="249.394" rx="1.78937" ry="1.78937" class="st6"/>
		</g>
		<g id="shape324-532" v:mID="324" v:groupContext="shape" transform="translate(-7.86624,92.8404) rotate(-90)">
			<title>工作表.324</title>
			<path d="M0 251.18 L21.63 251.18" class="st1"/>
		</g>
		<g id="shape325-535" v:mID="325" v:groupContext="shape" transform="translate(243.318,-179.976)">
			<title>工作表.325</title>
			<path d="M0 251.18 L28.35 251.18" class="st1"/>
		</g>
		<g id="group326-538" transform="translate(271.664,-177.142)" v:mID="326" v:groupContext="group">
			<title>工作表.326</title>
			<g id="shape327-539" v:mID="327" v:groupContext="shape" transform="translate(-7.99361E-15,-5.66929)">
				<title>工作表.327</title>
				<path d="M0 251.18 L5.67 251.18" class="st1"/>
			</g>
			<g id="shape328-542" v:mID="328" v:groupContext="shape">
				<title>工作表.328</title>
				<path d="M0 251.18 L5.67 251.18" class="st1"/>
			</g>
			<g id="shape329-545" v:mID="329" v:groupContext="shape" transform="translate(183.283,67.9007) rotate(45)">
				<title>工作表.329</title>
				<path d="M0 251.18 L4.01 251.18" class="st1"/>
			</g>
			<g id="shape330-548" v:mID="330" v:groupContext="shape" transform="translate(-171.944,73.57) rotate(-45)">
				<title>工作表.330</title>
				<path d="M0 251.18 L4.01 251.18" class="st1"/>
			</g>
			<g id="shape331-551" v:mID="331" v:groupContext="shape" transform="translate(-251.184,251.184) rotate(-90)">
				<title>工作表.331</title>
				<path d="M0 251.18 L5.67 251.18" class="st1"/>
			</g>
		</g>
		<g id="shape332-554" v:mID="332" v:groupContext="shape" transform="translate(278.751,-169.976)">
			<title>工作表.332</title>
			<desc>PGAxTOCMP</desc>
			<v:textBlock v:margins="rect(4,4,4,4)" v:tabSpace="42.5197"/>
			<v:textRect cx="31.6457" cy="241.184" width="63.3" height="20"/>
			<rect x="0" y="231.184" width="63.2913" height="20" class="st7"/>
			<text x="5.58" y="244.18" class="st8" v:langID="2052"><v:paragraph v:horizAlign="1"/><v:tabList/>PGAxTOCMP</text>		</g>
		<g id="shape333-557" v:mID="333" v:groupContext="shape" transform="translate(0.995959,-94.2409)">
			<title>工作表.333</title>
			<desc>OPAx_IP</desc>
			<v:textBlock v:margins="rect(4,4,4,4)" v:tabSpace="42.5197"/>
			<v:textRect cx="20.7717" cy="243.31" width="41.55" height="15.748"/>
			<rect x="0" y="235.436" width="41.5433" height="15.748" class="st7"/>
			<text x="6.94" y="245.71" class="st9" v:langID="2052"><v:paragraph v:horizAlign="1"/><v:tabList/>OPAx_IP</text>		</g>
		<g id="shape334-560" v:mID="334" v:groupContext="shape" transform="translate(0.25,-51.5389)">
			<title>工作表.334</title>
			<desc>OPAx_IN</desc>
			<v:textBlock v:margins="rect(4,4,4,4)" v:tabSpace="42.5197"/>
			<v:textRect cx="20.7717" cy="243.31" width="41.55" height="15.748"/>
			<rect x="0" y="235.436" width="41.5433" height="15.748" class="st7"/>
			<text x="6.43" y="245.71" class="st9" v:langID="2052"><v:paragraph v:horizAlign="1"/><v:tabList/>OPAx_IN</text>		</g>
		<g id="shape335-563" v:mID="335" v:groupContext="shape" transform="translate(129.932,-236.761)">
			<title>工作表.335</title>
			<path d="M0 251.18 L34.21 251.18" class="st5"/>
		</g>
		<g id="shape336-568" v:mID="336" v:groupContext="shape" transform="translate(129.932,-222.587)">
			<title>工作表.336</title>
			<path d="M0 251.18 L34.21 251.18" class="st5"/>
		</g>
		<g id="shape337-573" v:mID="337" v:groupContext="shape" transform="translate(124.71,-235.186)">
			<title>工作表.337</title>
			<desc>VBG12</desc>
			<v:textBlock v:margins="rect(4,4,4,4)" v:tabSpace="42.5197"/>
			<v:textRect cx="20.7717" cy="243.31" width="41.55" height="15.748"/>
			<rect x="0" y="235.436" width="41.5433" height="15.748" class="st7"/>
			<text x="9.75" y="245.71" class="st9" v:langID="2052"><v:paragraph v:horizAlign="1"/><v:tabList/>VBG12</text>		</g>
		<g id="shape338-576" v:mID="338" v:groupContext="shape" transform="translate(125.68,-221.013)">
			<title>工作表.338</title>
			<desc>VREF_ADC</desc>
			<v:textBlock v:margins="rect(4,4,4,4)" v:tabSpace="42.5197"/>
			<v:textRect cx="23.3858" cy="243.31" width="46.78" height="15.748"/>
			<rect x="0" y="235.436" width="46.7717" height="15.748" class="st7"/>
			<text x="6.25" y="245.71" class="st9" v:langID="2052"><v:paragraph v:horizAlign="1"/><v:tabList/>VREF_ADC</text>		</g>
	</g>
</svg>
