<?xml version="1.0" encoding="UTF-8" standalone="no"?>
<!DOCTYPE svg PUBLIC "-//W3C//DTD SVG 1.1//EN" "http://www.w3.org/Graphics/SVG/1.1/DTD/svg11.dtd">
<!-- 由 Microsoft Visio, SVG Export 生成 比较器FILTER1滤波波形.svg 页-1 -->
<svg xmlns="http://www.w3.org/2000/svg" xmlns:xlink="http://www.w3.org/1999/xlink" xmlns:ev="http://www.w3.org/2001/xml-events"
		xmlns:v="http://schemas.microsoft.com/visio/2003/SVGExtensions/" width="7.22445in" height="3.74147in"
		viewBox="0 0 520.161 269.386" xml:space="preserve" color-interpolation-filters="sRGB" class="st14">
	<v:documentProperties v:langID="2052" v:metric="true" v:viewMarkup="false"/>

	<style type="text/css">
	<![CDATA[
		.st1 {stroke:#000000;stroke-linecap:round;stroke-linejoin:round;stroke-width:1.5}
		.st2 {stroke:#000000;stroke-dasharray:5.25,3.75;stroke-linecap:round;stroke-linejoin:round;stroke-width:0.75}
		.st3 {stroke:#c0c0c0;stroke-dasharray:0,2.40431;stroke-linecap:round;stroke-linejoin:round;stroke-width:0.480863}
		.st4 {stroke:#000000;stroke-linecap:round;stroke-linejoin:round;stroke-width:0.480863}
		.st5 {fill:#000000}
		.st6 {stroke:#000000;stroke-linecap:round;stroke-linejoin:round;stroke-width:0.239976}
		.st7 {stroke:#000000;stroke-linecap:round;stroke-linejoin:round;stroke-width:0.5}
		.st8 {stroke:#000000;stroke-linecap:round;stroke-linejoin:round;stroke-width:0.25}
		.st9 {fill:none;stroke:none;stroke-linecap:round;stroke-linejoin:round;stroke-width:0.25}
		.st10 {fill:#000000;font-family:宋体;font-size:1.00001em}
		.st11 {font-size:1em}
		.st12 {fill:none;stroke:#000000;stroke-linecap:round;stroke-linejoin:round;stroke-width:0.25}
		.st13 {stroke:#000000;stroke-dasharray:3.5,2.5;stroke-linecap:round;stroke-linejoin:round;stroke-width:0.5}
		.st14 {fill:none;fill-rule:evenodd;font-size:12px;overflow:visible;stroke-linecap:square;stroke-miterlimit:3}
	]]>
	</style>

	<g v:mID="0" v:index="1" v:groupContext="foregroundPage">
		<title>页-1</title>
		<v:pageProperties v:drawingScale="0.0393701" v:pageScale="0.0393701" v:drawingUnits="24" v:shadowOffsetX="8.50394"
				v:shadowOffsetY="-8.50394"/>
		<v:layer v:name="连接线" v:index="0"/>
		<g id="shape20-1" v:mID="20" v:groupContext="shape" transform="translate(169.106,-175.498)">
			<title>工作表.20</title>
			<path d="M0 269.39 L325.98 269.39" class="st1"/>
		</g>
		<g id="shape21-4" v:mID="21" v:groupContext="shape" transform="translate(169.106,-203.844)">
			<title>工作表.21</title>
			<path d="M0 269.39 L325.98 269.39" class="st2"/>
		</g>
		<g id="shape22-7" v:mID="22" v:groupContext="shape" transform="translate(169.106,-147.152)">
			<title>工作表.22</title>
			<path d="M0 269.39 L325.98 269.39" class="st2"/>
		</g>
		<g id="group23-10" transform="translate(169.106,-83.372)" v:mID="23" v:groupContext="group">
			<title>工作表.23</title>
			<g id="shape24-11" v:mID="24" v:groupContext="shape" transform="translate(52.8114,-8.75882E-07)">
				<title>工作表.24</title>
				<path d="M0 240.2 L0 269.39" class="st3"/>
			</g>
			<g id="shape25-14" v:mID="25" v:groupContext="shape" transform="translate(157.509,-8.75882E-07)">
				<title>工作表.25</title>
				<path d="M0 240.2 L0 269.39" class="st3"/>
			</g>
			<g id="shape26-17" v:mID="26" v:groupContext="shape" transform="translate(262.207,-8.75882E-07)">
				<title>工作表.26</title>
				<path d="M0 240.2 L0 269.39" class="st3"/>
			</g>
			<g id="shape27-20" v:mID="27" v:groupContext="shape" transform="translate(52.8114,-8.75882E-07)">
				<title>工作表.27</title>
				<path d="M0 240.2 L0 269.39" class="st3"/>
			</g>
			<g id="shape28-23" v:mID="28" v:groupContext="shape" transform="translate(157.509,-8.75882E-07)">
				<title>工作表.28</title>
				<path d="M0 240.2 L0 269.39" class="st3"/>
			</g>
			<g id="shape29-26" v:mID="29" v:groupContext="shape" transform="translate(262.207,-8.75882E-07)">
				<title>工作表.29</title>
				<path d="M0 240.2 L0 269.39" class="st3"/>
			</g>
			<g id="shape30-29" v:mID="30" v:groupContext="shape">
				<title>工作表.30</title>
				<path d="M0 269.39 L0 269.39 L52.81 269.39" class="st4"/>
			</g>
			<g id="shape31-32" v:mID="31" v:groupContext="shape" transform="translate(52.8113,-5.68434E-13)">
				<title>工作表.31</title>
				<path d="M0 269.39 L0 240.2 L104.7 240.2" class="st4"/>
			</g>
			<g id="shape32-35" v:mID="32" v:groupContext="shape" transform="translate(157.509,-5.68434E-13)">
				<title>工作表.32</title>
				<path d="M0 240.2 L0 269.39 L104.7 269.39" class="st4"/>
			</g>
			<g id="shape33-38" v:mID="33" v:groupContext="shape" transform="translate(262.207,-5.68434E-13)">
				<title>工作表.33</title>
				<path d="M0 269.39 L0 240.2 L60.94 240.2" class="st4"/>
			</g>
		</g>
		<g id="shape34-41" v:mID="34" v:groupContext="shape" v:layerMember="0" transform="translate(-100.28,143.494) rotate(-90)">
			<title>单箭头</title>
			<v:userDefs>
				<v:ud v:nameU="Scale" v:val="VT0(1):26"/>
				<v:ud v:nameU="AntiScale" v:val="VT0(1):26"/>
				<v:ud v:nameU="visVersion" v:val="VT0(15):26"/>
			</v:userDefs>
			<path d="M107.72 266.55 L107.72 272.22 L113.39 269.39 L107.72 266.55 Z" class="st5"/>
			<path d="M107.72 266.55 L107.72 272.22 L113.39 269.39 L107.72 266.55" class="st6"/>
			<path d="M0 269.39 L107.72 269.39" class="st6"/>
		</g>
		<g id="shape35-45" v:mID="35" v:groupContext="shape" transform="translate(-47.8386,150.581) rotate(-90)">
			<title>工作表.35</title>
			<path d="M0 269.39 L85.04 269.39" class="st7"/>
		</g>
		<g id="shape36-48" v:mID="36" v:groupContext="shape" transform="translate(57.2294,150.581) rotate(-90)">
			<title>工作表.36</title>
			<path d="M0 269.39 L85.04 269.39" class="st8"/>
		</g>
		<g id="shape37-51" v:mID="37" v:groupContext="shape" transform="translate(161.927,150.586) rotate(-90.0011)">
			<title>工作表.37</title>
			<path d="M0 269.39 L85.04 269.39" class="st8"/>
		</g>
		<g id="shape38-54" v:mID="38" v:groupContext="shape" transform="translate(123.345,-83.2388) rotate(-12.6334)">
			<title>工作表.38</title>
			<path d="M0 222.19 C5.04 218.09 5.01 207.01 10.06 203.24 C12.02 201.77 14.75 201.41 17.07 200.45 C22.02 198.41 25.08
						 193.63 29.11 189.5 C36.12 182.34 46.05 177.15 53.53 172.6 C57.75 170.03 61.19 167.66 65.78 164.6 C68.45
						 162.82 71.51 160.8 73.6 160.83 C77.14 160.89 77.85 166.93 80.49 172.84 C82.31 176.9 85.05 180.92 87.58 181.4
						 C91.33 182.11 94.62 175.05 100.26 171.46 C104.9 168.51 111.13 167.91 113.86 170.44 C115.95 172.38 115.97
						 176.17 116.42 179.73 C118.04 192.61 125.21 202.48 132.29 212.62 C136.19 218.21 140.06 223.88 143.29 229.62
						 C145.31 233.19 147.07 236.79 149.39 239.99 C151.73 243.22 154.64 246.04 157.06 249.84 C158.39 251.92 159.57
						 254.29 161.05 255.38 C165.24 258.47 171.85 251.4 176.62 245.51 C180.45 240.79 183.09 236.83 186.21 232.55
						 C188.42 229.52 190.88 226.33 193.39 222.54 C194.72 220.55 196.06 218.39 197.4 217.63 C201.01 215.6 204.6
						 223.78 206.78 230.19 C209.51 238.2 210.03 243.45 209.82 250.34 C209.68 254.93 209.21 260.24 211.89 264.45
						 C213.46 266.94 216.14 269.05 218.33 269.39 C224.41 270.31 226.79 257.66 230.98 249.27 C236.73 237.74 245.9
						 234.27 253.58 228.77 C257.39 226.04 260.84 222.81 263.65 218.83 C266.66 214.57 268.96 209.45 274.49 209.35
						 C278.22 209.28 283.42 211.48 287.56 211.99 C289.99 212.28 292.05 211.99 294.23 212.03 C299.2 212.11 304.81
						 213.88 309.75 216.67 C313.57 218.83 317 221.61 320.74 222.04 C325.28 222.56 330.27 219.64 336.98 222.19"
					class="st1"/>
		</g>
		<g id="shape39-57" v:mID="39" v:groupContext="shape" transform="translate(47.2167,-194.347)">
			<title>工作表.39</title>
			<desc>负端电压+滤波电压</desc>
			<v:textBlock v:margins="rect(4,4,4,4)" v:tabSpace="42.5197"/>
			<v:textRect cx="57.7739" cy="260.386" width="115.55" height="18.001"/>
			<rect x="0" y="251.385" width="115.548" height="18.001" class="st9"/>
			<text x="9.55" y="263.99" class="st10" v:langID="2052"><v:paragraph v:horizAlign="2"/><v:tabList/>负端电压+滤波电压</text>		</g>
		<g id="shape40-60" v:mID="40" v:groupContext="shape" transform="translate(47.2167,-166.001)">
			<title>工作表.40</title>
			<desc>比较器负端电压</desc>
			<v:textBlock v:margins="rect(4,4,4,4)" v:tabSpace="42.5197"/>
			<v:textRect cx="57.7739" cy="260.386" width="115.55" height="18.001"/>
			<rect x="0" y="251.385" width="115.548" height="18.001" class="st9"/>
			<text x="27.55" y="263.99" class="st10" v:langID="2052"><v:paragraph v:horizAlign="2"/><v:tabList/>比较器负端电压</text>		</g>
		<g id="shape41-63" v:mID="41" v:groupContext="shape" transform="translate(47.8893,-137.654)">
			<title>工作表.41</title>
			<desc>负端电压-滤波电压</desc>
			<v:textBlock v:margins="rect(4,4,4,4)" v:tabSpace="42.5197"/>
			<v:textRect cx="57.7739" cy="260.386" width="115.55" height="18.001"/>
			<rect x="0" y="251.385" width="115.548" height="18.001" class="st9"/>
			<text x="9.55" y="263.99" class="st10" v:langID="2052"><v:paragraph v:horizAlign="2"/><v:tabList/>负端电压-滤波电压</text>		</g>
		<g id="shape42-66" v:mID="42" v:groupContext="shape" transform="translate(28.4715,-76.2854)">
			<title>工作表.42</title>
			<desc>比较器输出连接至BRK/HALL输入波形</desc>
			<v:textBlock v:margins="rect(4,4,4,4)" v:tabSpace="42.5197"/>
			<v:textRect cx="67.4829" cy="260.386" width="134.97" height="18.001"/>
			<rect x="0" y="251.385" width="134.966" height="18.001" class="st9"/>
			<text x="34.97" y="256.79" class="st10" v:langID="2052"><v:paragraph v:horizAlign="2"/><v:tabList/>比较器输出连接至<tspan
						x="34.96" dy="1.2em" class="st11">BRK/HALL</tspan>输入波形</text>		</g>
		<g id="shape43-70" v:mID="43" v:groupContext="shape" transform="translate(0.125,-0.125)">
			<title>工作表.43</title>
			<rect x="0" y="23.1469" width="519.911" height="246.239" class="st12"/>
		</g>
		<g id="shape45-72" v:mID="45" v:groupContext="shape" transform="translate(218.763,-33.2962)">
			<title>工作表.45</title>
			<path d="M0 240.2 L0 269.39" class="st3"/>
		</g>
		<g id="shape46-75" v:mID="46" v:groupContext="shape" transform="translate(323.461,-33.2962)">
			<title>工作表.46</title>
			<path d="M0 240.2 L0 269.39" class="st3"/>
		</g>
		<g id="shape47-78" v:mID="47" v:groupContext="shape" transform="translate(428.158,-33.2962)">
			<title>工作表.47</title>
			<path d="M0 240.2 L0 269.39" class="st3"/>
		</g>
		<g id="shape48-81" v:mID="48" v:groupContext="shape" transform="translate(218.763,-33.2962)">
			<title>工作表.48</title>
			<path d="M0 240.2 L0 269.39" class="st3"/>
		</g>
		<g id="shape49-84" v:mID="49" v:groupContext="shape" transform="translate(323.461,-33.2962)">
			<title>工作表.49</title>
			<path d="M0 240.2 L0 269.39" class="st3"/>
		</g>
		<g id="shape50-87" v:mID="50" v:groupContext="shape" transform="translate(428.158,-33.2962)">
			<title>工作表.50</title>
			<path d="M0 240.2 L0 269.39" class="st3"/>
		</g>
		<g id="shape51-90" v:mID="51" v:groupContext="shape" transform="translate(165.952,-33.2962)">
			<title>工作表.51</title>
			<path d="M0 269.39 L0 269.39 L28.35 269.39" class="st4"/>
		</g>
		<g id="shape52-93" v:mID="52" v:groupContext="shape" transform="translate(194.298,-33.2962)">
			<title>工作表.52</title>
			<path d="M0 269.39 L0 240.24 L102.9 240.24" class="st4"/>
		</g>
		<g id="shape53-96" v:mID="53" v:groupContext="shape" transform="translate(297.338,-33.2962)">
			<title>工作表.53</title>
			<path d="M0 240.2 L0 269.39 L63.07 269.39" class="st4"/>
		</g>
		<g id="shape54-99" v:mID="54" v:groupContext="shape" transform="translate(412.566,-33.2962)">
			<title>工作表.54</title>
			<path d="M0 269.39 L0 240.2 L79.37 240.2" class="st4"/>
		</g>
		<g id="shape55-102" v:mID="55" v:groupContext="shape" transform="translate(0.125,-26.2095)">
			<title>工作表.55</title>
			<desc>比较器输出状态寄存器波形</desc>
			<v:textBlock v:margins="rect(4,4,4,4)" v:tabSpace="42.5197"/>
			<v:textRect cx="80.0787" cy="260.386" width="160.16" height="18.001"/>
			<rect x="0" y="251.385" width="160.157" height="18.001" class="st9"/>
			<text x="12.16" y="263.99" class="st10" v:langID="2052"><v:paragraph v:horizAlign="2"/><v:tabList/>比较器输出状态寄存器波形</text>		</g>
		<g id="shape56-105" v:mID="56" v:groupContext="shape" transform="translate(-74.931,204.064) rotate(-90)">
			<title>工作表.56</title>
			<path d="M0 269.39 L110.67 269.39" class="st13"/>
		</g>
		<g id="shape57-108" v:mID="57" v:groupContext="shape" transform="translate(27.7747,204.357) rotate(-90)">
			<title>工作表.57</title>
			<path d="M0 269.39 L110.67 269.39" class="st13"/>
		</g>
		<g id="shape58-111" v:mID="58" v:groupContext="shape" transform="translate(104.181,203.864) rotate(-90)">
			<title>工作表.58</title>
			<path d="M0 269.39 L110.67 269.39" class="st13"/>
		</g>
		<g id="shape59-114" v:mID="59" v:groupContext="shape" transform="translate(90.7549,203.798) rotate(-90)">
			<title>工作表.59</title>
			<path d="M0 269.39 L110.67 269.39" class="st13"/>
		</g>
		<g id="shape60-117" v:mID="60" v:groupContext="shape" transform="translate(143.18,204.563) rotate(-90)">
			<title>工作表.60</title>
			<path d="M0 269.39 L110.67 269.39" class="st13"/>
		</g>
		<g id="shape62-120" v:mID="62" v:groupContext="shape" transform="translate(360.015,-33.7185)">
			<title>工作表.62</title>
			<path d="M0 269.39 L0 240.2 L13.65 240.2" class="st4"/>
		</g>
		<g id="shape63-123" v:mID="63" v:groupContext="shape" transform="translate(373.668,-32.8739)">
			<title>工作表.63</title>
			<path d="M0 239.35 L0 269.39 L38.9 269.39" class="st4"/>
		</g>
	</g>
</svg>
