<?xml version="1.0" encoding="UTF-8" standalone="no"?>
<!DOCTYPE svg PUBLIC "-//W3C//DTD SVG 1.1//EN" "http://www.w3.org/Graphics/SVG/1.1/DTD/svg11.dtd">
<!-- 由 Microsoft Visio, SVG Export 生成 比较器迟滞功能示意图.svg 页-1 -->
<svg xmlns="http://www.w3.org/2000/svg" xmlns:xlink="http://www.w3.org/1999/xlink" xmlns:ev="http://www.w3.org/2001/xml-events"
		xmlns:v="http://schemas.microsoft.com/visio/2003/SVGExtensions/" width="6.64127in" height="2.92778in"
		viewBox="0 0 478.171 210.8" xml:space="preserve" color-interpolation-filters="sRGB" class="st12">
	<v:documentProperties v:langID="2052" v:metric="true" v:viewMarkup="false"/>

	<style type="text/css">
	<![CDATA[
		.st1 {stroke:#000000;stroke-linecap:round;stroke-linejoin:round;stroke-width:1.5}
		.st2 {stroke:#000000;stroke-dasharray:5.25,3.75;stroke-linecap:round;stroke-linejoin:round;stroke-width:0.75}
		.st3 {stroke:#c0c0c0;stroke-dasharray:0,2.40431;stroke-linecap:round;stroke-linejoin:round;stroke-width:0.480863}
		.st4 {stroke:#000000;stroke-linecap:round;stroke-linejoin:round;stroke-width:0.480863}
		.st5 {fill:#000000}
		.st6 {stroke:#000000;stroke-linecap:round;stroke-linejoin:round;stroke-width:0.239976}
		.st7 {stroke:#000000;stroke-linecap:round;stroke-linejoin:round;stroke-width:0.5}
		.st8 {stroke:#000000;stroke-linecap:round;stroke-linejoin:round;stroke-width:0.25}
		.st9 {fill:none;stroke:none;stroke-linecap:round;stroke-linejoin:round;stroke-width:0.25}
		.st10 {fill:#000000;font-family:宋体;font-size:1.00001em}
		.st11 {fill:none;stroke:#000000;stroke-linecap:round;stroke-linejoin:round;stroke-width:0.25}
		.st12 {fill:none;fill-rule:evenodd;font-size:12px;overflow:visible;stroke-linecap:square;stroke-miterlimit:3}
	]]>
	</style>

	<g v:mID="0" v:index="1" v:groupContext="foregroundPage">
		<title>页-1</title>
		<v:pageProperties v:drawingScale="0.0393701" v:pageScale="0.0393701" v:drawingUnits="24" v:shadowOffsetX="8.50394"
				v:shadowOffsetY="-8.50394"/>
		<v:layer v:name="连接线" v:index="0"/>
		<g id="group55-1" transform="translate(0.125,-0.125)" v:mID="55" v:groupContext="group">
			<title>工作表.55</title>
			<g id="shape1-2" v:mID="1" v:groupContext="shape" transform="translate(126.992,-116.787)">
				<title>工作表.1</title>
				<path d="M0 210.8 L325.98 210.8" class="st1"/>
			</g>
			<g id="shape2-5" v:mID="2" v:groupContext="shape" transform="translate(126.992,-145.134)">
				<title>工作表.2</title>
				<path d="M0 210.8 L325.98 210.8" class="st2"/>
			</g>
			<g id="shape4-8" v:mID="4" v:groupContext="shape" transform="translate(126.992,-88.4409)">
				<title>工作表.4</title>
				<path d="M0 210.8 L325.98 210.8" class="st2"/>
			</g>
			<g id="group38-11" transform="translate(126.992,-24.6614)" v:mID="38" v:groupContext="group">
				<title>工作表.38</title>
				<g id="shape7-12" v:mID="7" v:groupContext="shape" transform="translate(52.8114,-8.75882E-07)">
					<title>工作表.7</title>
					<path d="M0 181.61 L0 210.8" class="st3"/>
				</g>
				<g id="shape8-15" v:mID="8" v:groupContext="shape" transform="translate(157.509,-8.75882E-07)">
					<title>工作表.8</title>
					<path d="M0 181.61 L0 210.8" class="st3"/>
				</g>
				<g id="shape9-18" v:mID="9" v:groupContext="shape" transform="translate(262.207,-8.75882E-07)">
					<title>工作表.9</title>
					<path d="M0 181.61 L0 210.8" class="st3"/>
				</g>
				<g id="shape18-21" v:mID="18" v:groupContext="shape" transform="translate(52.8114,-8.75882E-07)">
					<title>工作表.18</title>
					<path d="M0 181.61 L0 210.8" class="st3"/>
				</g>
				<g id="shape19-24" v:mID="19" v:groupContext="shape" transform="translate(157.509,-8.75882E-07)">
					<title>工作表.19</title>
					<path d="M0 181.61 L0 210.8" class="st3"/>
				</g>
				<g id="shape20-27" v:mID="20" v:groupContext="shape" transform="translate(262.207,-8.75882E-07)">
					<title>工作表.20</title>
					<path d="M0 181.61 L0 210.8" class="st3"/>
				</g>
				<g id="shape28-30" v:mID="28" v:groupContext="shape">
					<title>工作表.28</title>
					<path d="M0 210.8 L0 210.8 L52.81 210.8" class="st4"/>
				</g>
				<g id="shape29-33" v:mID="29" v:groupContext="shape" transform="translate(52.8113,-5.40012E-13)">
					<title>工作表.29</title>
					<path d="M0 210.8 L0 181.61 L104.7 181.61" class="st4"/>
				</g>
				<g id="shape30-36" v:mID="30" v:groupContext="shape" transform="translate(157.509,-5.40012E-13)">
					<title>工作表.30</title>
					<path d="M0 181.61 L0 210.8 L104.7 210.8" class="st4"/>
				</g>
				<g id="shape31-39" v:mID="31" v:groupContext="shape" transform="translate(262.207,-5.40012E-13)">
					<title>工作表.31</title>
					<path d="M0 210.8 L0 181.61 L60.94 181.61" class="st4"/>
				</g>
			</g>
			<g id="shape39-42" v:mID="39" v:groupContext="shape" v:layerMember="0"
					transform="translate(-83.8083,143.619) rotate(-90)">
				<title>单箭头</title>
				<v:userDefs>
					<v:ud v:nameU="Scale" v:val="VT0(1):26"/>
					<v:ud v:nameU="AntiScale" v:val="VT0(1):26"/>
					<v:ud v:nameU="visVersion" v:val="VT0(15):26"/>
				</v:userDefs>
				<path d="M107.72 207.97 L107.72 213.64 L113.39 210.8 L107.72 207.97 Z" class="st5"/>
				<path d="M107.72 207.97 L107.72 213.64 L113.39 210.8 L107.72 207.97" class="st6"/>
				<path d="M0 210.8 L107.72 210.8" class="st6"/>
			</g>
			<g id="shape40-46" v:mID="40" v:groupContext="shape" transform="translate(-31.3674,150.706) rotate(-90)">
				<title>工作表.40</title>
				<path d="M0 210.8 L85.04 210.8" class="st7"/>
			</g>
			<g id="shape41-49" v:mID="41" v:groupContext="shape" transform="translate(73.7006,150.706) rotate(-90)">
				<title>工作表.41</title>
				<path d="M0 210.8 L85.04 210.8" class="st8"/>
			</g>
			<g id="shape42-52" v:mID="42" v:groupContext="shape" transform="translate(178.398,150.71) rotate(-90.0011)">
				<title>工作表.42</title>
				<path d="M0 210.8 L85.04 210.8" class="st8"/>
			</g>
			<g id="shape48-55" v:mID="48" v:groupContext="shape" transform="translate(94.0443,-25.9466) rotate(-12.6334)">
				<title>工作表.48</title>
				<path d="M0 163.61 C5.04 159.51 5.01 148.42 10.06 144.65 C12.02 143.19 14.75 142.83 17.07 141.87 C22.02 139.82 25.08
							 135.04 29.11 130.92 C36.12 123.76 46.05 118.56 53.53 114.02 C57.75 111.44 61.19 109.08 65.78 106.01
							 C68.45 104.23 71.51 102.21 73.6 102.25 C77.14 102.31 77.85 108.34 80.49 114.25 C82.31 118.32 85.05 122.33
							 87.58 122.81 C91.33 123.53 94.62 116.46 100.26 112.87 C104.9 109.92 111.13 109.32 113.86 111.85 C115.95
							 113.79 115.97 117.58 116.42 121.14 C118.04 134.02 125.21 143.9 132.29 154.04 C136.19 159.62 140.06 165.29
							 143.29 171.03 C145.31 174.6 147.07 178.2 149.39 181.4 C151.73 184.63 154.64 187.46 157.06 191.26 C158.39
							 193.33 159.57 195.7 161.05 196.8 C165.24 199.89 171.85 192.82 176.62 186.92 C180.45 182.21 183.09 178.24
							 186.21 173.97 C188.42 170.93 190.88 167.74 193.39 163.96 C194.72 161.96 196.06 159.8 197.4 159.05 C201.01
							 157.01 204.6 165.19 206.78 171.61 C209.51 179.62 210.03 184.87 209.82 191.75 C209.68 196.34 209.21 201.65
							 211.89 205.87 C213.46 208.36 216.14 210.47 218.33 210.8 C224.41 211.73 226.79 199.07 230.98 190.68 C236.73
							 179.16 245.9 175.69 253.58 170.19 C257.39 167.46 260.84 164.23 263.65 160.24 C266.66 155.99 268.96 150.87
							 274.49 150.76 C278.22 150.69 283.42 152.89 287.56 153.4 C289.99 153.7 292.05 153.41 294.23 153.44 C299.2
							 153.52 304.81 155.29 309.75 158.08 C313.57 160.25 317 163.02 320.74 163.45 C325.28 163.97 330.27 161.05
							 336.98 163.61" class="st1"/>
			</g>
			<g id="shape49-58" v:mID="49" v:groupContext="shape" transform="translate(5.10236,-135.637)">
				<title>工作表.49</title>
				<desc>负端电压+迟滞电压</desc>
				<v:textBlock v:margins="rect(4,4,4,4)" v:tabSpace="42.5197"/>
				<v:textRect cx="57.7739" cy="201.8" width="115.55" height="18.001"/>
				<rect x="0" y="192.799" width="115.548" height="18.001" class="st9"/>
				<text x="9.55" y="205.4" class="st10" v:langID="2052"><v:paragraph v:horizAlign="2"/><v:tabList/>负端电压+迟滞电压</text>			</g>
			<g id="shape51-61" v:mID="51" v:groupContext="shape" transform="translate(5.10236,-107.29)">
				<title>工作表.51</title>
				<desc>比较器负端电压</desc>
				<v:textBlock v:margins="rect(4,4,4,4)" v:tabSpace="42.5197"/>
				<v:textRect cx="57.7739" cy="201.8" width="115.55" height="18.001"/>
				<rect x="0" y="192.799" width="115.548" height="18.001" class="st9"/>
				<text x="27.55" y="205.4" class="st10" v:langID="2052"><v:paragraph v:horizAlign="2"/><v:tabList/>比较器负端电压</text>			</g>
			<g id="shape52-64" v:mID="52" v:groupContext="shape" transform="translate(5.77495,-78.9438)">
				<title>工作表.52</title>
				<desc>负端电压-迟滞电压</desc>
				<v:textBlock v:margins="rect(4,4,4,4)" v:tabSpace="42.5197"/>
				<v:textRect cx="57.7739" cy="201.8" width="115.55" height="18.001"/>
				<rect x="0" y="192.799" width="115.548" height="18.001" class="st9"/>
				<text x="9.55" y="205.4" class="st10" v:langID="2052"><v:paragraph v:horizAlign="2"/><v:tabList/>负端电压-迟滞电压</text>			</g>
			<g id="shape53-67" v:mID="53" v:groupContext="shape" transform="translate(5.77495,-17.5748)">
				<title>工作表.53</title>
				<desc>比较器输出波形</desc>
				<v:textBlock v:margins="rect(4,4,4,4)" v:tabSpace="42.5197"/>
				<v:textRect cx="57.7739" cy="201.8" width="115.55" height="18.001"/>
				<rect x="0" y="192.799" width="115.548" height="18.001" class="st9"/>
				<text x="27.55" y="205.4" class="st10" v:langID="2052"><v:paragraph v:horizAlign="2"/><v:tabList/>比较器输出波形</text>			</g>
			<g id="shape54-70" v:mID="54" v:groupContext="shape">
				<title>工作表.54</title>
				<rect x="0" y="23.1469" width="477.921" height="187.654" class="st11"/>
			</g>
		</g>
	</g>
</svg>
