<?xml version="1.0" encoding="UTF-8" standalone="no"?>
<!DOCTYPE svg PUBLIC "-//W3C//DTD SVG 1.1//EN" "http://www.w3.org/Graphics/SVG/1.1/DTD/svg11.dtd">
<!-- 由 Microsoft Visio, SVG Export 生成 ssi_continuous_out.svg 页-1 -->
<svg xmlns="http://www.w3.org/2000/svg" xmlns:xlink="http://www.w3.org/1999/xlink" xmlns:ev="http://www.w3.org/2001/xml-events"
		xmlns:v="http://schemas.microsoft.com/visio/2003/SVGExtensions/" width="7.49073in" height="1.50648in"
		viewBox="0 0 539.333 108.467" xml:space="preserve" color-interpolation-filters="sRGB" class="st10">
	<v:documentProperties v:langID="2052" v:metric="true" v:viewMarkup="false">
		<v:userDefs>
			<v:ud v:nameU="msvConvertTheme"/>
		</v:userDefs>
	</v:documentProperties>

	<style type="text/css">
	<![CDATA[
		.st1 {stroke:#c0c0c0;stroke-dasharray:0,4.13304;stroke-linecap:round;stroke-linejoin:round;stroke-width:0.826609}
		.st2 {stroke:#000000;stroke-linecap:round;stroke-linejoin:round;stroke-width:0.826609}
		.st3 {fill:#000000;stroke:#000000;stroke-linecap:round;stroke-linejoin:round;stroke-width:0.826609}
		.st4 {stroke:#000000;stroke-dasharray:5.78626,4.13304;stroke-linecap:round;stroke-linejoin:round;stroke-width:0.826609}
		.st5 {stroke:#ffffff;stroke-linecap:round;stroke-linejoin:round;stroke-width:0.826609}
		.st6 {stroke:none;stroke-linecap:round;stroke-linejoin:round;stroke-width:0.75}
		.st7 {fill:#000000;font-family:Arial;font-size:0.688774em}
		.st8 {fill:#000000;font-family:Arial;font-size:0.895386em}
		.st9 {fill:none;stroke:#000000;stroke-linecap:round;stroke-linejoin:round;stroke-width:0.75}
		.st10 {fill:none;fill-rule:evenodd;font-size:12px;overflow:visible;stroke-linecap:square;stroke-miterlimit:3}
	]]>
	</style>

	<g v:mID="0" v:index="1" v:groupContext="foregroundPage">
		<title>页-1</title>
		<v:pageProperties v:drawingScale="0.0393701" v:pageScale="0.0393701" v:drawingUnits="24" v:shadowOffsetX="8.50394"
				v:shadowOffsetY="-8.50394"/>
		<g id="shape355-1" v:mID="355" v:groupContext="shape" transform="translate(75.4868,-86.8407)">
			<title>工作表.355</title>
			<path d="M0 95.24 L0 108.47" class="st1"/>
		</g>
		<g id="shape356-4" v:mID="356" v:groupContext="shape" transform="translate(96.9809,-86.8407)">
			<title>工作表.356</title>
			<path d="M0 95.24 L0 108.47" class="st1"/>
		</g>
		<g id="shape357-7" v:mID="357" v:groupContext="shape" transform="translate(118.475,-86.8407)">
			<title>工作表.357</title>
			<path d="M0 95.24 L0 108.47" class="st1"/>
		</g>
		<g id="shape358-10" v:mID="358" v:groupContext="shape" transform="translate(139.969,-86.8407)">
			<title>工作表.358</title>
			<path d="M0 95.24 L0 108.47" class="st1"/>
		</g>
		<g id="shape359-13" v:mID="359" v:groupContext="shape" transform="translate(161.463,-86.8407)">
			<title>工作表.359</title>
			<path d="M0 95.24 L0 108.47" class="st1"/>
		</g>
		<g id="shape360-16" v:mID="360" v:groupContext="shape" transform="translate(182.957,-86.8407)">
			<title>工作表.360</title>
			<path d="M0 95.24 L0 108.47" class="st1"/>
		</g>
		<g id="shape361-19" v:mID="361" v:groupContext="shape" transform="translate(204.451,-86.8407)">
			<title>工作表.361</title>
			<path d="M0 95.24 L0 108.47" class="st1"/>
		</g>
		<g id="shape362-22" v:mID="362" v:groupContext="shape" transform="translate(225.946,-86.8407)">
			<title>工作表.362</title>
			<path d="M0 95.24 L0 108.47" class="st1"/>
		</g>
		<g id="shape363-25" v:mID="363" v:groupContext="shape" transform="translate(247.44,-86.8407)">
			<title>工作表.363</title>
			<path d="M0 95.24 L0 108.47" class="st1"/>
		</g>
		<g id="shape364-28" v:mID="364" v:groupContext="shape" transform="translate(268.934,-86.8407)">
			<title>工作表.364</title>
			<path d="M0 95.24 L0 108.47" class="st1"/>
		</g>
		<g id="shape365-31" v:mID="365" v:groupContext="shape" transform="translate(290.428,-86.8407)">
			<title>工作表.365</title>
			<path d="M0 95.24 L0 108.47" class="st1"/>
		</g>
		<g id="shape366-34" v:mID="366" v:groupContext="shape" transform="translate(311.922,-86.8407)">
			<title>工作表.366</title>
			<path d="M0 95.24 L0 108.47" class="st1"/>
		</g>
		<g id="shape367-37" v:mID="367" v:groupContext="shape" transform="translate(333.416,-86.8407)">
			<title>工作表.367</title>
			<path d="M0 95.24 L0 108.47" class="st1"/>
		</g>
		<g id="shape368-40" v:mID="368" v:groupContext="shape" transform="translate(354.91,-86.8407)">
			<title>工作表.368</title>
			<path d="M0 95.24 L0 108.47" class="st1"/>
		</g>
		<g id="shape369-43" v:mID="369" v:groupContext="shape" transform="translate(376.404,-86.8407)">
			<title>工作表.369</title>
			<path d="M0 95.24 L0 108.47" class="st1"/>
		</g>
		<g id="shape370-46" v:mID="370" v:groupContext="shape" transform="translate(397.899,-86.8407)">
			<title>工作表.370</title>
			<path d="M0 95.24 L0 108.47" class="st1"/>
		</g>
		<g id="shape371-49" v:mID="371" v:groupContext="shape" transform="translate(419.393,-86.8407)">
			<title>工作表.371</title>
			<path d="M0 95.24 L0 108.47" class="st1"/>
		</g>
		<g id="shape372-52" v:mID="372" v:groupContext="shape" transform="translate(440.887,-86.8407)">
			<title>工作表.372</title>
			<path d="M0 95.24 L0 108.47" class="st1"/>
		</g>
		<g id="shape373-55" v:mID="373" v:groupContext="shape" transform="translate(462.381,-86.8407)">
			<title>工作表.373</title>
			<path d="M0 95.24 L0 108.47" class="st1"/>
		</g>
		<g id="shape374-58" v:mID="374" v:groupContext="shape" transform="translate(483.875,-86.8407)">
			<title>工作表.374</title>
			<path d="M0 95.24 L0 108.47" class="st1"/>
		</g>
		<g id="shape375-61" v:mID="375" v:groupContext="shape" transform="translate(505.369,-86.8407)">
			<title>工作表.375</title>
			<path d="M0 95.24 L0 108.47" class="st1"/>
		</g>
		<g id="shape376-64" v:mID="376" v:groupContext="shape" transform="translate(75.4868,-14.1069)">
			<title>工作表.376</title>
			<path d="M0 22.51 L0 108.47" class="st1"/>
		</g>
		<g id="shape377-67" v:mID="377" v:groupContext="shape" transform="translate(96.9809,-14.1069)">
			<title>工作表.377</title>
			<path d="M0 22.51 L0 108.47" class="st1"/>
		</g>
		<g id="shape378-70" v:mID="378" v:groupContext="shape" transform="translate(118.475,-14.1069)">
			<title>工作表.378</title>
			<path d="M0 22.51 L0 108.47" class="st1"/>
		</g>
		<g id="shape379-73" v:mID="379" v:groupContext="shape" transform="translate(139.969,-14.1069)">
			<title>工作表.379</title>
			<path d="M0 22.51 L0 108.47" class="st1"/>
		</g>
		<g id="shape380-76" v:mID="380" v:groupContext="shape" transform="translate(161.463,-14.1069)">
			<title>工作表.380</title>
			<path d="M0 22.51 L0 108.47" class="st1"/>
		</g>
		<g id="shape381-79" v:mID="381" v:groupContext="shape" transform="translate(182.957,-14.1069)">
			<title>工作表.381</title>
			<path d="M0 22.51 L0 108.47" class="st1"/>
		</g>
		<g id="shape382-82" v:mID="382" v:groupContext="shape" transform="translate(204.451,-14.1069)">
			<title>工作表.382</title>
			<path d="M0 22.51 L0 108.47" class="st1"/>
		</g>
		<g id="shape383-85" v:mID="383" v:groupContext="shape" transform="translate(225.946,-14.1069)">
			<title>工作表.383</title>
			<path d="M0 22.51 L0 108.47" class="st1"/>
		</g>
		<g id="shape384-88" v:mID="384" v:groupContext="shape" transform="translate(247.44,-14.1069)">
			<title>工作表.384</title>
			<path d="M0 22.51 L0 108.47" class="st1"/>
		</g>
		<g id="shape385-91" v:mID="385" v:groupContext="shape" transform="translate(268.934,-14.1069)">
			<title>工作表.385</title>
			<path d="M0 22.51 L0 108.47" class="st1"/>
		</g>
		<g id="shape386-94" v:mID="386" v:groupContext="shape" transform="translate(290.428,-14.1069)">
			<title>工作表.386</title>
			<path d="M0 22.51 L0 108.47" class="st1"/>
		</g>
		<g id="shape387-97" v:mID="387" v:groupContext="shape" transform="translate(311.922,-14.1069)">
			<title>工作表.387</title>
			<path d="M0 22.51 L0 108.47" class="st1"/>
		</g>
		<g id="shape388-100" v:mID="388" v:groupContext="shape" transform="translate(333.416,-14.1069)">
			<title>工作表.388</title>
			<path d="M0 22.51 L0 108.47" class="st1"/>
		</g>
		<g id="shape389-103" v:mID="389" v:groupContext="shape" transform="translate(354.91,-14.1069)">
			<title>工作表.389</title>
			<path d="M0 22.51 L0 108.47" class="st1"/>
		</g>
		<g id="shape390-106" v:mID="390" v:groupContext="shape" transform="translate(376.404,-14.1069)">
			<title>工作表.390</title>
			<path d="M0 22.51 L0 108.47" class="st1"/>
		</g>
		<g id="shape391-109" v:mID="391" v:groupContext="shape" transform="translate(397.899,-14.1069)">
			<title>工作表.391</title>
			<path d="M0 22.51 L0 108.47" class="st1"/>
		</g>
		<g id="shape392-112" v:mID="392" v:groupContext="shape" transform="translate(419.393,-14.1069)">
			<title>工作表.392</title>
			<path d="M0 22.51 L0 108.47" class="st1"/>
		</g>
		<g id="shape393-115" v:mID="393" v:groupContext="shape" transform="translate(440.887,-14.1069)">
			<title>工作表.393</title>
			<path d="M0 22.51 L0 108.47" class="st1"/>
		</g>
		<g id="shape394-118" v:mID="394" v:groupContext="shape" transform="translate(462.381,-14.1069)">
			<title>工作表.394</title>
			<path d="M0 22.51 L0 108.47" class="st1"/>
		</g>
		<g id="shape395-121" v:mID="395" v:groupContext="shape" transform="translate(483.875,-14.1069)">
			<title>工作表.395</title>
			<path d="M0 22.51 L0 108.47" class="st1"/>
		</g>
		<g id="shape396-124" v:mID="396" v:groupContext="shape" transform="translate(505.369,-14.1069)">
			<title>工作表.396</title>
			<path d="M0 22.51 L0 108.47" class="st1"/>
		</g>
		<g id="shape397-127" v:mID="397" v:groupContext="shape" transform="translate(75.4868,-86.8407)">
			<title>工作表.397</title>
			<path d="M0 108.47 L21.49 108.47" class="st2"/>
		</g>
		<g id="shape398-130" v:mID="398" v:groupContext="shape" transform="translate(96.9809,-86.8407)">
			<title>工作表.398</title>
			<path d="M0 108.47 L8.27 95.24 L21.49 95.24" class="st2"/>
		</g>
		<g id="shape399-133" v:mID="399" v:groupContext="shape" transform="translate(118.475,-86.8407)">
			<title>工作表.399</title>
			<path d="M0 95.24 L8.27 108.47 L21.49 108.47" class="st2"/>
		</g>
		<g id="shape400-136" v:mID="400" v:groupContext="shape" transform="translate(139.969,-86.8407)">
			<title>工作表.400</title>
			<path d="M0 108.47 L8.27 95.24 L21.49 95.24" class="st2"/>
		</g>
		<g id="shape401-139" v:mID="401" v:groupContext="shape" transform="translate(161.463,-86.8407)">
			<title>工作表.401</title>
			<path d="M0 95.24 L8.27 108.47 L21.49 108.47" class="st2"/>
		</g>
		<g id="shape402-142" v:mID="402" v:groupContext="shape" transform="translate(182.957,-86.8407)">
			<title>工作表.402</title>
			<path d="M0 108.47 L8.27 95.24 L21.49 95.24" class="st2"/>
		</g>
		<g id="shape403-145" v:mID="403" v:groupContext="shape" transform="translate(204.451,-86.8407)">
			<title>工作表.403</title>
			<path d="M0 95.24 L8.27 108.47 L21.49 108.47" class="st2"/>
		</g>
		<g id="shape404-148" v:mID="404" v:groupContext="shape" transform="translate(225.946,-86.8407)">
			<title>工作表.404</title>
			<path d="M0 108.47 L8.27 95.24 L21.49 95.24" class="st2"/>
		</g>
		<g id="shape405-151" v:mID="405" v:groupContext="shape" transform="translate(247.44,-86.8407)">
			<title>工作表.405</title>
			<path d="M0 95.24 L8.27 108.47 L21.49 108.47" class="st2"/>
		</g>
		<g id="shape406-154" v:mID="406" v:groupContext="shape" transform="translate(268.934,-86.8407)">
			<title>工作表.406</title>
			<path d="M0 108.47 L8.27 95.24 L21.49 95.24" class="st2"/>
		</g>
		<g id="shape407-157" v:mID="407" v:groupContext="shape" transform="translate(290.428,-86.8407)">
			<title>工作表.407</title>
			<path d="M0 95.24 L8.27 108.47 L21.49 108.47" class="st2"/>
		</g>
		<g id="shape408-160" v:mID="408" v:groupContext="shape" transform="translate(311.922,-86.8407)">
			<title>工作表.408</title>
			<path d="M0 108.47 L8.27 95.24 L21.49 95.24" class="st2"/>
		</g>
		<g id="shape409-163" v:mID="409" v:groupContext="shape" transform="translate(333.416,-86.8407)">
			<title>工作表.409</title>
			<path d="M0 95.24 L8.27 108.47 L21.49 108.47" class="st2"/>
		</g>
		<g id="shape410-166" v:mID="410" v:groupContext="shape" transform="translate(354.91,-86.8407)">
			<title>工作表.410</title>
			<path d="M0 108.47 L8.27 95.24 L21.49 95.24" class="st2"/>
		</g>
		<g id="shape411-169" v:mID="411" v:groupContext="shape" transform="translate(376.404,-86.8407)">
			<title>工作表.411</title>
			<path d="M0 95.24 L8.27 108.47 L21.49 108.47" class="st2"/>
		</g>
		<g id="shape412-172" v:mID="412" v:groupContext="shape" transform="translate(397.899,-86.8407)">
			<title>工作表.412</title>
			<path d="M0 108.47 L8.27 95.24 L21.49 95.24" class="st2"/>
		</g>
		<g id="shape413-175" v:mID="413" v:groupContext="shape" transform="translate(419.393,-86.8407)">
			<title>工作表.413</title>
			<path d="M0 95.24 L8.27 108.47 L21.49 108.47" class="st2"/>
		</g>
		<g id="shape414-178" v:mID="414" v:groupContext="shape" transform="translate(440.887,-86.8407)">
			<title>工作表.414</title>
			<path d="M0 108.47 L8.27 95.24 L21.49 95.24" class="st2"/>
		</g>
		<g id="shape415-181" v:mID="415" v:groupContext="shape" transform="translate(462.381,-86.8407)">
			<title>工作表.415</title>
			<path d="M0 95.24 L8.27 108.47 L21.49 108.47" class="st2"/>
		</g>
		<g id="shape416-184" v:mID="416" v:groupContext="shape" transform="translate(483.875,-86.8407)">
			<title>工作表.416</title>
			<path d="M0 108.47 L8.27 95.24 L21.49 95.24" class="st2"/>
		</g>
		<g id="shape417-187" v:mID="417" v:groupContext="shape" transform="translate(505.369,-86.8407)">
			<title>工作表.417</title>
			<path d="M0 95.24 L8.27 108.47 L21.49 108.47" class="st2"/>
		</g>
		<g id="shape418-190" v:mID="418" v:groupContext="shape" transform="translate(75.4868,-50.4738)">
			<title>工作表.418</title>
			<path d="M0 108.47 L21.49 108.47" class="st2"/>
		</g>
		<g id="shape419-193" v:mID="419" v:groupContext="shape" transform="translate(96.9809,-50.4738)">
			<title>工作表.419</title>
			<path d="M0 108.47 L8.27 95.24 L21.49 95.24" class="st2"/>
		</g>
		<g id="shape420-196" v:mID="420" v:groupContext="shape" transform="translate(118.475,-63.6982)">
			<title>工作表.420</title>
			<path d="M-0 108.47 L21.49 108.47" class="st2"/>
		</g>
		<g id="shape421-199" v:mID="421" v:groupContext="shape" transform="translate(139.969,-50.4738)">
			<title>工作表.421</title>
			<path d="M0 95.24 L8.27 108.47 L21.49 108.47" class="st2"/>
		</g>
		<g id="shape422-202" v:mID="422" v:groupContext="shape" transform="translate(161.463,-50.4738)">
			<title>工作表.422</title>
			<path d="M-0 108.47 L21.49 108.47" class="st2"/>
		</g>
		<g id="shape423-205" v:mID="423" v:groupContext="shape" transform="translate(182.957,-50.4738)">
			<title>工作表.423</title>
			<path d="M0 108.47 L21.49 108.47" class="st2"/>
		</g>
		<g id="shape424-208" v:mID="424" v:groupContext="shape" transform="translate(204.451,-50.4738)">
			<title>工作表.424</title>
			<path d="M0 108.47 L21.49 108.47" class="st2"/>
		</g>
		<g id="shape425-211" v:mID="425" v:groupContext="shape" transform="translate(225.946,-50.4738)">
			<title>工作表.425</title>
			<path d="M0 108.47 L21.49 108.47" class="st2"/>
		</g>
		<g id="shape426-214" v:mID="426" v:groupContext="shape" transform="translate(247.44,-50.4738)">
			<title>工作表.426</title>
			<path d="M0 108.47 L21.49 108.47" class="st2"/>
		</g>
		<g id="shape427-217" v:mID="427" v:groupContext="shape" transform="translate(268.934,-50.4738)">
			<title>工作表.427</title>
			<path d="M-0 108.47 L21.49 108.47" class="st2"/>
		</g>
		<g id="shape428-220" v:mID="428" v:groupContext="shape" transform="translate(290.428,-50.4738)">
			<title>工作表.428</title>
			<path d="M-0 108.47 L21.49 108.47" class="st2"/>
		</g>
		<g id="shape429-223" v:mID="429" v:groupContext="shape" transform="translate(311.922,-50.4738)">
			<title>工作表.429</title>
			<path d="M-0 108.47 L21.49 108.47" class="st2"/>
		</g>
		<g id="shape430-226" v:mID="430" v:groupContext="shape" transform="translate(333.416,-50.4738)">
			<title>工作表.430</title>
			<path d="M0 108.47 L21.49 108.47" class="st2"/>
		</g>
		<g id="shape431-229" v:mID="431" v:groupContext="shape" transform="translate(354.91,-50.4738)">
			<title>工作表.431</title>
			<path d="M-0 108.47 L21.49 108.47" class="st2"/>
		</g>
		<g id="shape432-232" v:mID="432" v:groupContext="shape" transform="translate(376.404,-50.4738)">
			<title>工作表.432</title>
			<path d="M0 108.47 L21.49 108.47" class="st2"/>
		</g>
		<g id="shape433-235" v:mID="433" v:groupContext="shape" transform="translate(397.899,-50.4738)">
			<title>工作表.433</title>
			<path d="M-0 108.47 L21.49 108.47" class="st2"/>
		</g>
		<g id="shape434-238" v:mID="434" v:groupContext="shape" transform="translate(419.393,-50.4738)">
			<title>工作表.434</title>
			<path d="M0 108.47 L21.49 108.47" class="st2"/>
		</g>
		<g id="shape435-241" v:mID="435" v:groupContext="shape" transform="translate(440.887,-50.4738)">
			<title>工作表.435</title>
			<path d="M0 108.47 L21.49 108.47" class="st2"/>
		</g>
		<g id="shape436-244" v:mID="436" v:groupContext="shape" transform="translate(462.381,-50.4738)">
			<title>工作表.436</title>
			<path d="M-0 108.47 L21.49 108.47" class="st2"/>
		</g>
		<g id="shape437-247" v:mID="437" v:groupContext="shape" transform="translate(483.875,-50.4738)">
			<title>工作表.437</title>
			<path d="M0 108.47 L21.49 108.47" class="st2"/>
		</g>
		<g id="shape438-250" v:mID="438" v:groupContext="shape" transform="translate(505.369,-50.4738)">
			<title>工作表.438</title>
			<path d="M-0 108.47 L21.49 108.47" class="st2"/>
		</g>
		<g id="shape439-253" v:mID="439" v:groupContext="shape" transform="translate(75.4868,-20.7191)">
			<title>工作表.439</title>
			<path d="M0 108.47 L0 108.47 L21.49 108.47 L42.99 108.47 L64.48 108.47" class="st2"/>
		</g>
		<g id="shape440-256" v:mID="440" v:groupContext="shape" transform="translate(139.969,-14.1069)">
			<title>工作表.440</title>
			<path d="M0 101.85 L4.13 108.47 L21.49 108.47" class="st2"/>
		</g>
		<g id="shape441-259" v:mID="441" v:groupContext="shape" transform="translate(139.969,-20.7191)">
			<title>工作表.441</title>
			<path d="M0 108.47 L4.13 101.85 L21.49 101.85" class="st2"/>
		</g>
		<g id="shape442-262" v:mID="442" v:groupContext="shape" transform="translate(161.463,-27.3313)">
			<title>工作表.442</title>
			<path d="M-0 108.47 L21.49 108.47" class="st2"/>
		</g>
		<g id="shape443-265" v:mID="443" v:groupContext="shape" transform="translate(161.463,-14.1069)">
			<title>工作表.443</title>
			<path d="M-0 108.47 L21.49 108.47" class="st2"/>
		</g>
		<g id="shape444-268" v:mID="444" v:groupContext="shape" transform="translate(182.957,-14.1069)">
			<title>工作表.444</title>
			<path d="M0 95.24 L8.27 108.47 L21.49 108.47" class="st2"/>
		</g>
		<g id="shape445-271" v:mID="445" v:groupContext="shape" transform="translate(182.957,-14.1069)">
			<title>工作表.445</title>
			<path d="M0 108.47 L8.27 95.24 L21.49 95.24" class="st2"/>
		</g>
		<g id="shape446-274" v:mID="446" v:groupContext="shape" transform="translate(204.451,-27.3313)">
			<title>工作表.446</title>
			<path d="M0 108.47 L21.49 108.47" class="st2"/>
		</g>
		<g id="shape447-277" v:mID="447" v:groupContext="shape" transform="translate(204.451,-14.1069)">
			<title>工作表.447</title>
			<path d="M0 108.47 L21.49 108.47" class="st2"/>
		</g>
		<g id="shape448-280" v:mID="448" v:groupContext="shape" transform="translate(225.946,-14.1069)">
			<title>工作表.448</title>
			<path d="M0 95.24 L8.27 108.47 L21.49 108.47" class="st2"/>
		</g>
		<g id="shape449-283" v:mID="449" v:groupContext="shape" transform="translate(225.946,-14.1069)">
			<title>工作表.449</title>
			<path d="M0 108.47 L8.27 95.24 L21.49 95.24" class="st2"/>
		</g>
		<g id="shape450-286" v:mID="450" v:groupContext="shape" transform="translate(247.44,-27.3313)">
			<title>工作表.450</title>
			<path d="M0 108.47 L21.49 108.47" class="st2"/>
		</g>
		<g id="shape451-289" v:mID="451" v:groupContext="shape" transform="translate(247.44,-14.1069)">
			<title>工作表.451</title>
			<path d="M0 108.47 L21.49 108.47" class="st2"/>
		</g>
		<g id="shape452-292" v:mID="452" v:groupContext="shape" transform="translate(268.934,-14.1069)">
			<title>工作表.452</title>
			<path d="M0 95.24 L8.27 108.47 L21.49 108.47" class="st2"/>
		</g>
		<g id="shape453-295" v:mID="453" v:groupContext="shape" transform="translate(268.934,-14.1069)">
			<title>工作表.453</title>
			<path d="M0 108.47 L8.27 95.24 L21.49 95.24" class="st2"/>
		</g>
		<g id="shape454-298" v:mID="454" v:groupContext="shape" transform="translate(290.428,-27.3313)">
			<title>工作表.454</title>
			<path d="M-0 108.47 L21.49 108.47" class="st2"/>
		</g>
		<g id="shape455-301" v:mID="455" v:groupContext="shape" transform="translate(290.428,-14.1069)">
			<title>工作表.455</title>
			<path d="M-0 108.47 L21.49 108.47" class="st2"/>
		</g>
		<g id="shape456-304" v:mID="456" v:groupContext="shape" transform="translate(311.922,-14.1069)">
			<title>工作表.456</title>
			<path d="M0 95.24 L8.27 108.47 L21.49 108.47" class="st2"/>
		</g>
		<g id="shape457-307" v:mID="457" v:groupContext="shape" transform="translate(311.922,-14.1069)">
			<title>工作表.457</title>
			<path d="M0 108.47 L8.27 95.24 L21.49 95.24" class="st2"/>
		</g>
		<g id="shape458-310" v:mID="458" v:groupContext="shape" transform="translate(333.416,-27.3313)">
			<title>工作表.458</title>
			<path d="M0 108.47 L21.49 108.47" class="st2"/>
		</g>
		<g id="shape459-313" v:mID="459" v:groupContext="shape" transform="translate(333.416,-14.1069)">
			<title>工作表.459</title>
			<path d="M0 108.47 L21.49 108.47" class="st2"/>
		</g>
		<g id="shape460-316" v:mID="460" v:groupContext="shape" transform="translate(354.91,-14.1069)">
			<title>工作表.460</title>
			<path d="M0 95.24 L8.27 108.47 L21.49 108.47" class="st2"/>
		</g>
		<g id="shape461-319" v:mID="461" v:groupContext="shape" transform="translate(354.91,-14.1069)">
			<title>工作表.461</title>
			<path d="M0 108.47 L8.27 95.24 L21.49 95.24" class="st2"/>
		</g>
		<g id="shape462-322" v:mID="462" v:groupContext="shape" transform="translate(376.404,-27.3313)">
			<title>工作表.462</title>
			<path d="M0 108.47 L21.49 108.47" class="st2"/>
		</g>
		<g id="shape463-325" v:mID="463" v:groupContext="shape" transform="translate(376.404,-14.1069)">
			<title>工作表.463</title>
			<path d="M0 108.47 L21.49 108.47" class="st2"/>
		</g>
		<g id="shape464-328" v:mID="464" v:groupContext="shape" transform="translate(397.899,-14.1069)">
			<title>工作表.464</title>
			<path d="M0 95.24 L8.27 108.47 L21.49 108.47" class="st2"/>
		</g>
		<g id="shape465-331" v:mID="465" v:groupContext="shape" transform="translate(397.899,-14.1069)">
			<title>工作表.465</title>
			<path d="M0 108.47 L8.27 95.24 L21.49 95.24" class="st2"/>
		</g>
		<g id="shape466-334" v:mID="466" v:groupContext="shape" transform="translate(419.393,-27.3313)">
			<title>工作表.466</title>
			<path d="M0 108.47 L21.49 108.47" class="st2"/>
		</g>
		<g id="shape467-337" v:mID="467" v:groupContext="shape" transform="translate(419.393,-14.1069)">
			<title>工作表.467</title>
			<path d="M0 108.47 L21.49 108.47" class="st2"/>
		</g>
		<g id="shape468-340" v:mID="468" v:groupContext="shape" transform="translate(440.887,-14.1069)">
			<title>工作表.468</title>
			<path d="M0 95.24 L8.27 108.47 L21.49 108.47" class="st2"/>
		</g>
		<g id="shape469-343" v:mID="469" v:groupContext="shape" transform="translate(440.887,-14.1069)">
			<title>工作表.469</title>
			<path d="M0 108.47 L8.27 95.24 L21.49 95.24" class="st2"/>
		</g>
		<g id="shape470-346" v:mID="470" v:groupContext="shape" transform="translate(462.381,-27.3313)">
			<title>工作表.470</title>
			<path d="M-0 108.47 L21.49 108.47" class="st2"/>
		</g>
		<g id="shape471-349" v:mID="471" v:groupContext="shape" transform="translate(462.381,-14.1069)">
			<title>工作表.471</title>
			<path d="M-0 108.47 L21.49 108.47" class="st2"/>
		</g>
		<g id="shape472-352" v:mID="472" v:groupContext="shape" transform="translate(483.875,-14.1069)">
			<title>工作表.472</title>
			<path d="M0 95.24 L8.27 108.47 L21.49 108.47" class="st2"/>
		</g>
		<g id="shape473-355" v:mID="473" v:groupContext="shape" transform="translate(483.875,-14.1069)">
			<title>工作表.473</title>
			<path d="M0 108.47 L8.27 95.24 L21.49 95.24" class="st2"/>
		</g>
		<g id="shape474-358" v:mID="474" v:groupContext="shape" transform="translate(505.369,-27.3313)">
			<title>工作表.474</title>
			<path d="M-0 108.47 L21.49 108.47" class="st2"/>
		</g>
		<g id="shape475-361" v:mID="475" v:groupContext="shape" transform="translate(505.369,-14.1069)">
			<title>工作表.475</title>
			<path d="M-0 108.47 L21.49 108.47" class="st2"/>
		</g>
		<g id="shape476-364" v:mID="476" v:groupContext="shape" transform="translate(311.922,-35.5965)">
			<title>工作表.476</title>
			<path d="M4.13 105.16 L0 101.85 L0 108.47 L4.13 105.16 Z" class="st3"/>
		</g>
		<g id="shape477-366" v:mID="477" v:groupContext="shape" transform="translate(144.103,-35.5965)">
			<title>工作表.477</title>
			<path d="M0 105.16 L4.13 101.85 L4.13 108.47 L0 105.16 Z" class="st3"/>
		</g>
		<g id="shape478-368" v:mID="478" v:groupContext="shape" transform="translate(144.103,-20.7191)">
			<title>工作表.478</title>
			<path d="M0 29.12 L0 108.47" class="st4"/>
		</g>
		<g id="shape479-371" v:mID="479" v:groupContext="shape" transform="translate(144.103,-38.9026)">
			<title>工作表.479</title>
			<path d="M0 108.47 L171.95 108.47" class="st2"/>
		</g>
		<g id="shape480-374" v:mID="480" v:groupContext="shape" transform="translate(316.056,-20.7191)">
			<title>工作表.480</title>
			<path d="M0 92.76 L0 108.47" class="st2"/>
		</g>
		<g id="shape481-377" v:mID="481" v:groupContext="shape" transform="translate(483.875,-35.5965)">
			<title>工作表.481</title>
			<path d="M4.13 105.16 L0 101.85 L0 108.47 L4.13 105.16 Z" class="st3"/>
		</g>
		<g id="shape482-379" v:mID="482" v:groupContext="shape" transform="translate(316.056,-35.5965)">
			<title>工作表.482</title>
			<path d="M0 105.16 L4.13 101.85 L4.13 108.47 L0 105.16 Z" class="st3"/>
		</g>
		<g id="shape483-381" v:mID="483" v:groupContext="shape" transform="translate(316.056,-20.7191)">
			<title>工作表.483</title>
			<path d="M0 87.8 L0 108.47" class="st2"/>
		</g>
		<g id="shape484-384" v:mID="484" v:groupContext="shape" transform="translate(316.056,-38.9026)">
			<title>工作表.484</title>
			<path d="M0 108.47 L171.95 108.47" class="st2"/>
		</g>
		<g id="shape485-387" v:mID="485" v:groupContext="shape" transform="translate(488.008,-20.7191)">
			<title>工作表.485</title>
			<path d="M0 29.12 L0 108.47" class="st4"/>
		</g>
		<g id="shape486-390" v:mID="486" v:groupContext="shape" transform="translate(192.273,-84.3612)">
			<title>工作表.486</title>
			<path d="M1.43 90.28 C-3.53 96.07 6.39 102.68 1.43 108.47" class="st2"/>
		</g>
		<g id="shape487-393" v:mID="487" v:groupContext="shape" transform="translate(193.099,-84.3612)">
			<title>工作表.487</title>
			<path d="M1.43 90.28 C-3.53 96.07 6.39 102.68 1.43 108.47" class="st5"/>
		</g>
		<g id="shape488-396" v:mID="488" v:groupContext="shape" transform="translate(193.926,-84.3612)">
			<title>工作表.488</title>
			<path d="M1.43 90.28 C-3.53 96.07 6.39 102.68 1.43 108.47" class="st5"/>
		</g>
		<g id="shape489-399" v:mID="489" v:groupContext="shape" transform="translate(194.753,-84.3612)">
			<title>工作表.489</title>
			<path d="M1.43 90.28 C-3.53 96.07 6.39 102.68 1.43 108.47" class="st5"/>
		</g>
		<g id="shape490-402" v:mID="490" v:groupContext="shape" transform="translate(195.579,-84.3612)">
			<title>工作表.490</title>
			<path d="M1.43 90.28 C-3.53 96.07 6.39 102.68 1.43 108.47" class="st5"/>
		</g>
		<g id="shape491-405" v:mID="491" v:groupContext="shape" transform="translate(196.406,-84.3612)">
			<title>工作表.491</title>
			<path d="M1.43 90.28 C-3.53 96.07 6.39 102.68 1.43 108.47" class="st2"/>
		</g>
		<g id="shape492-408" v:mID="492" v:groupContext="shape" transform="translate(192.273,-47.9943)">
			<title>工作表.492</title>
			<path d="M1.43 90.28 C-3.53 96.07 6.39 102.68 1.43 108.47" class="st2"/>
		</g>
		<g id="shape493-411" v:mID="493" v:groupContext="shape" transform="translate(193.099,-47.9943)">
			<title>工作表.493</title>
			<path d="M1.43 90.28 C-3.53 96.07 6.39 102.68 1.43 108.47" class="st5"/>
		</g>
		<g id="shape494-414" v:mID="494" v:groupContext="shape" transform="translate(193.926,-47.9943)">
			<title>工作表.494</title>
			<path d="M1.43 90.28 C-3.53 96.07 6.39 102.68 1.43 108.47" class="st5"/>
		</g>
		<g id="shape495-417" v:mID="495" v:groupContext="shape" transform="translate(194.753,-47.9943)">
			<title>工作表.495</title>
			<path d="M1.43 90.28 C-3.53 96.07 6.39 102.68 1.43 108.47" class="st5"/>
		</g>
		<g id="shape496-420" v:mID="496" v:groupContext="shape" transform="translate(195.579,-47.9943)">
			<title>工作表.496</title>
			<path d="M1.43 90.28 C-3.53 96.07 6.39 102.68 1.43 108.47" class="st5"/>
		</g>
		<g id="shape497-423" v:mID="497" v:groupContext="shape" transform="translate(196.406,-47.9943)">
			<title>工作表.497</title>
			<path d="M1.43 90.28 C-3.53 96.07 6.39 102.68 1.43 108.47" class="st2"/>
		</g>
		<g id="shape498-426" v:mID="498" v:groupContext="shape" transform="translate(192.273,-11.6274)">
			<title>工作表.498</title>
			<path d="M1.43 90.28 C-3.53 96.07 6.39 102.68 1.43 108.47" class="st2"/>
		</g>
		<g id="shape499-429" v:mID="499" v:groupContext="shape" transform="translate(193.099,-11.6274)">
			<title>工作表.499</title>
			<path d="M1.43 90.28 C-3.53 96.07 6.39 102.68 1.43 108.47" class="st5"/>
		</g>
		<g id="shape500-432" v:mID="500" v:groupContext="shape" transform="translate(193.926,-11.6274)">
			<title>工作表.500</title>
			<path d="M1.43 90.28 C-3.53 96.07 6.39 102.68 1.43 108.47" class="st5"/>
		</g>
		<g id="shape501-435" v:mID="501" v:groupContext="shape" transform="translate(194.753,-11.6274)">
			<title>工作表.501</title>
			<path d="M1.43 90.28 C-3.53 96.07 6.39 102.68 1.43 108.47" class="st5"/>
		</g>
		<g id="shape502-438" v:mID="502" v:groupContext="shape" transform="translate(195.579,-11.6274)">
			<title>工作表.502</title>
			<path d="M1.43 90.28 C-3.53 96.07 6.39 102.68 1.43 108.47" class="st5"/>
		</g>
		<g id="shape503-441" v:mID="503" v:groupContext="shape" transform="translate(196.406,-11.6274)">
			<title>工作表.503</title>
			<path d="M1.43 90.28 C-3.53 96.07 6.39 102.68 1.43 108.47" class="st2"/>
		</g>
		<g id="shape504-444" v:mID="504" v:groupContext="shape" transform="translate(364.225,-84.3612)">
			<title>工作表.504</title>
			<path d="M1.43 90.28 C-3.53 96.07 6.39 102.68 1.43 108.47" class="st2"/>
		</g>
		<g id="shape505-447" v:mID="505" v:groupContext="shape" transform="translate(365.052,-84.3612)">
			<title>工作表.505</title>
			<path d="M1.43 90.28 C-3.53 96.07 6.39 102.68 1.43 108.47" class="st5"/>
		</g>
		<g id="shape506-450" v:mID="506" v:groupContext="shape" transform="translate(365.879,-84.3612)">
			<title>工作表.506</title>
			<path d="M1.43 90.28 C-3.53 96.07 6.39 102.68 1.43 108.47" class="st5"/>
		</g>
		<g id="shape507-453" v:mID="507" v:groupContext="shape" transform="translate(366.706,-84.3612)">
			<title>工作表.507</title>
			<path d="M1.43 90.28 C-3.53 96.07 6.39 102.68 1.43 108.47" class="st5"/>
		</g>
		<g id="shape508-456" v:mID="508" v:groupContext="shape" transform="translate(367.532,-84.3612)">
			<title>工作表.508</title>
			<path d="M1.43 90.28 C-3.53 96.07 6.39 102.68 1.43 108.47" class="st5"/>
		</g>
		<g id="shape509-459" v:mID="509" v:groupContext="shape" transform="translate(368.359,-84.3612)">
			<title>工作表.509</title>
			<path d="M1.43 90.28 C-3.53 96.07 6.39 102.68 1.43 108.47" class="st2"/>
		</g>
		<g id="shape510-462" v:mID="510" v:groupContext="shape" transform="translate(364.225,-47.9943)">
			<title>工作表.510</title>
			<path d="M1.43 90.28 C-3.53 96.07 6.39 102.68 1.43 108.47" class="st2"/>
		</g>
		<g id="shape511-465" v:mID="511" v:groupContext="shape" transform="translate(365.052,-47.9943)">
			<title>工作表.511</title>
			<path d="M1.43 90.28 C-3.53 96.07 6.39 102.68 1.43 108.47" class="st5"/>
		</g>
		<g id="shape512-468" v:mID="512" v:groupContext="shape" transform="translate(365.879,-47.9943)">
			<title>工作表.512</title>
			<path d="M1.43 90.28 C-3.53 96.07 6.39 102.68 1.43 108.47" class="st5"/>
		</g>
		<g id="shape513-471" v:mID="513" v:groupContext="shape" transform="translate(366.706,-47.9943)">
			<title>工作表.513</title>
			<path d="M1.43 90.28 C-3.53 96.07 6.39 102.68 1.43 108.47" class="st5"/>
		</g>
		<g id="shape514-474" v:mID="514" v:groupContext="shape" transform="translate(367.532,-47.9943)">
			<title>工作表.514</title>
			<path d="M1.43 90.28 C-3.53 96.07 6.39 102.68 1.43 108.47" class="st5"/>
		</g>
		<g id="shape515-477" v:mID="515" v:groupContext="shape" transform="translate(368.359,-47.9943)">
			<title>工作表.515</title>
			<path d="M1.43 90.28 C-3.53 96.07 6.39 102.68 1.43 108.47" class="st2"/>
		</g>
		<g id="shape516-480" v:mID="516" v:groupContext="shape" transform="translate(364.225,-11.6274)">
			<title>工作表.516</title>
			<path d="M1.43 90.28 C-3.53 96.07 6.39 102.68 1.43 108.47" class="st2"/>
		</g>
		<g id="shape517-483" v:mID="517" v:groupContext="shape" transform="translate(365.052,-11.6274)">
			<title>工作表.517</title>
			<path d="M1.43 90.28 C-3.53 96.07 6.39 102.68 1.43 108.47" class="st5"/>
		</g>
		<g id="shape518-486" v:mID="518" v:groupContext="shape" transform="translate(365.879,-11.6274)">
			<title>工作表.518</title>
			<path d="M1.43 90.28 C-3.53 96.07 6.39 102.68 1.43 108.47" class="st5"/>
		</g>
		<g id="shape519-489" v:mID="519" v:groupContext="shape" transform="translate(366.706,-11.6274)">
			<title>工作表.519</title>
			<path d="M1.43 90.28 C-3.53 96.07 6.39 102.68 1.43 108.47" class="st5"/>
		</g>
		<g id="shape520-492" v:mID="520" v:groupContext="shape" transform="translate(367.532,-11.6274)">
			<title>工作表.520</title>
			<path d="M1.43 90.28 C-3.53 96.07 6.39 102.68 1.43 108.47" class="st5"/>
		</g>
		<g id="shape521-495" v:mID="521" v:groupContext="shape" transform="translate(368.359,-11.6274)">
			<title>工作表.521</title>
			<path d="M1.43 90.28 C-3.53 96.07 6.39 102.68 1.43 108.47" class="st2"/>
		</g>
		<g id="shape522-498" v:mID="522" v:groupContext="shape" transform="translate(162.29,-14.1032)">
			<title>工作表.522</title>
			<desc>MSB</desc>
			<v:textBlock v:margins="rect(0,0,0,0)" v:tabSpace="42.5197"/>
			<v:textRect cx="11.6213" cy="103.506" width="23.25" height="9.92195"/>
			<path d="M23.24 98.54 L0 98.54 L0 108.47 L23.24 108.47 L23.24 98.54" class="st6"/>
			<text x="2.67" y="105.99" class="st7" v:langID="2052"><v:paragraph v:horizAlign="1"/><v:tabList/>MSB</text>		</g>
		<g id="shape523-502" v:mID="523" v:groupContext="shape" transform="translate(290.428,-14.9298)">
			<title>工作表.523</title>
			<desc>LSB</desc>
			<v:textBlock v:margins="rect(0,0,0,0)" v:tabSpace="42.5197"/>
			<v:textRect cx="10.3055" cy="103.506" width="20.62" height="9.92195"/>
			<path d="M20.61 98.54 L0 98.54 L0 108.47 L20.61 108.47 L20.61 98.54" class="st6"/>
			<text x="2.49" y="105.99" class="st7" v:langID="2052"><v:paragraph v:horizAlign="1"/><v:tabList/>LSB</text>		</g>
		<g id="shape524-506" v:mID="524" v:groupContext="shape" transform="translate(216.025,-38.0723)">
			<title>工作表.524</title>
			<desc>4-16Bit</desc>
			<v:textBlock v:margins="rect(0,0,0,0)" v:tabSpace="42.5197"/>
			<v:textRect cx="16.3807" cy="103.506" width="32.77" height="9.92195"/>
			<path d="M32.76 98.54 L0 98.54 L0 108.47 L32.76 108.47 L32.76 98.54" class="st6"/>
			<text x="3.29" y="105.99" class="st7" v:langID="2052"><v:paragraph v:horizAlign="1"/><v:tabList/>4-16Bit</text>		</g>
		<g id="shape525-510" v:mID="525" v:groupContext="shape" transform="translate(333.416,-14.1032)">
			<title>工作表.525</title>
			<desc>MSB</desc>
			<v:textBlock v:margins="rect(0,0,0,0)" v:tabSpace="42.5197"/>
			<v:textRect cx="11.6213" cy="103.506" width="23.25" height="9.92195"/>
			<path d="M23.24 98.54 L0 98.54 L0 108.47 L23.24 108.47 L23.24 98.54" class="st6"/>
			<text x="2.67" y="105.99" class="st7" v:langID="2052"><v:paragraph v:horizAlign="1"/><v:tabList/>MSB</text>		</g>
		<g id="shape526-514" v:mID="526" v:groupContext="shape" transform="translate(462.381,-15.7563)">
			<title>工作表.526</title>
			<desc>LSB</desc>
			<v:textBlock v:margins="rect(0,0,0,0)" v:tabSpace="42.5197"/>
			<v:textRect cx="10.3055" cy="103.506" width="20.62" height="9.92195"/>
			<path d="M20.61 98.54 L0 98.54 L0 108.47 L20.61 108.47 L20.61 98.54" class="st6"/>
			<text x="2.49" y="105.99" class="st7" v:langID="2052"><v:paragraph v:horizAlign="1"/><v:tabList/>LSB</text>		</g>
		<g id="shape527-518" v:mID="527" v:groupContext="shape" transform="translate(387.978,-38.0723)">
			<title>工作表.527</title>
			<desc>4-16Bit</desc>
			<v:textBlock v:margins="rect(0,0,0,0)" v:tabSpace="42.5197"/>
			<v:textRect cx="16.3807" cy="103.506" width="32.77" height="9.92195"/>
			<path d="M32.76 98.54 L0 98.54 L0 108.47 L32.76 108.47 L32.76 98.54" class="st6"/>
			<text x="3.29" y="105.99" class="st7" v:langID="2052"><v:paragraph v:horizAlign="1"/><v:tabList/>4-16Bit</text>		</g>
		<g id="shape528-522" v:mID="528" v:groupContext="shape" transform="translate(10.1778,-86.3414)">
			<title>工作表.528</title>
			<desc>SCK</desc>
			<v:textBlock v:margins="rect(0,0,0,0)" v:tabSpace="42.5197"/>
			<v:textRect cx="14.4219" cy="102.018" width="28.85" height="12.8972"/>
			<path d="M28.84 95.57 L0 95.57 L0 108.47 L28.84 108.47 L28.84 95.57" class="st6"/>
			<text x="3.38" y="105.24" class="st8" v:langID="2052"><v:paragraph v:horizAlign="1"/><v:tabList/>SCK</text>		</g>
		<g id="shape529-526" v:mID="529" v:groupContext="shape" transform="translate(10.1778,-49.9745)">
			<title>工作表.529</title>
			<desc>SSEL</desc>
			<v:textBlock v:margins="rect(0,0,0,0)" v:tabSpace="42.5197"/>
			<v:textRect cx="17.5171" cy="102.018" width="35.04" height="12.8972"/>
			<path d="M35.03 95.57 L0 95.57 L0 108.47 L35.03 108.47 L35.03 95.57" class="st6"/>
			<text x="3.78" y="105.24" class="st8" v:langID="2052"><v:paragraph v:horizAlign="1"/><v:tabList/>SSEL</text>		</g>
		<g id="shape530-530" v:mID="530" v:groupContext="shape" transform="translate(10.1778,-13.6076)">
			<title>工作表.530</title>
			<desc>MOSI/MISO</desc>
			<v:textBlock v:margins="rect(0,0,0,0)" v:tabSpace="42.5197"/>
			<v:textRect cx="35.0139" cy="102.018" width="70.03" height="12.8972"/>
			<path d="M70.03 95.57 L0 95.57 L0 108.47 L70.03 108.47 L70.03 95.57" class="st6"/>
			<text x="6.06" y="105.24" class="st8" v:langID="2052"><v:paragraph v:horizAlign="1"/><v:tabList/>MOSI/MISO</text>		</g>
		<g id="shape531-534" v:mID="531" v:groupContext="shape" transform="translate(0.375,-0.375)">
			<title>工作表.531</title>
			<rect x="0" y="0.75" width="538.583" height="107.717" class="st9"/>
		</g>
	</g>
</svg>
