<?xml version="1.0" encoding="UTF-8" standalone="no"?>
<!DOCTYPE svg PUBLIC "-//W3C//DTD SVG 1.1//EN" "http://www.w3.org/Graphics/SVG/1.1/DTD/svg11.dtd">
<!-- 由 Microsoft Visio, SVG Export 生成 QSPI_nCS_SCLK3.svg Page-1 -->
<svg xmlns="http://www.w3.org/2000/svg" xmlns:xlink="http://www.w3.org/1999/xlink" xmlns:ev="http://www.w3.org/2001/xml-events"
		xmlns:v="http://schemas.microsoft.com/visio/2003/SVGExtensions/" width="6.63316in" height="2.65937in"
		viewBox="0 0 477.588 191.474" xml:space="preserve" color-interpolation-filters="sRGB" class="st7">
	<v:documentProperties v:langID="1033" v:metric="true" v:viewMarkup="false">
		<v:userDefs>
			<v:ud v:nameU="msvNoAutoConnect" v:val="VT0(1):26"/>
		</v:userDefs>
	</v:documentProperties>

	<style type="text/css">
	<![CDATA[
		.st1 {stroke:#000000;stroke-linecap:round;stroke-linejoin:round;stroke-width:0.75}
		.st2 {stroke:#000000;stroke-dasharray:5.25,3.75;stroke-linecap:round;stroke-linejoin:round;stroke-width:0.75}
		.st3 {marker-end:url(#mrkr5-171);marker-start:url(#mrkr5-169);stroke:#000000;stroke-linecap:round;stroke-linejoin:round;stroke-width:0.75}
		.st4 {fill:#000000;fill-opacity:1;stroke:#000000;stroke-opacity:1;stroke-width:0.29411764705882}
		.st5 {fill:none;stroke:none;stroke-linecap:round;stroke-linejoin:round;stroke-width:0.75}
		.st6 {fill:#000000;font-family:Calibri;font-size:0.833336em}
		.st7 {fill:none;fill-rule:evenodd;font-size:12px;overflow:visible;stroke-linecap:square;stroke-miterlimit:3}
	]]>
	</style>

	<defs id="Markers">
		<g id="lend5">
			<path d="M 2 1 L 0 0 L 1.98117 -0.993387 C 1.67173 -0.364515 1.67301 0.372641 1.98465 1.00043 " style="stroke:none"/>
		</g>
		<marker id="mrkr5-169" class="st4" v:arrowType="5" v:arrowSize="1" v:setback="5.47" refX="5.47" orient="auto"
				markerUnits="strokeWidth" overflow="visible">
			<use xlink:href="#lend5" transform="scale(3.4) "/>
		</marker>
		<marker id="mrkr5-171" class="st4" v:arrowType="5" v:arrowSize="1" v:setback="5.95" refX="-5.95" orient="auto"
				markerUnits="strokeWidth" overflow="visible">
			<use xlink:href="#lend5" transform="scale(-3.4,-3.4) "/>
		</marker>
	</defs>
	<g v:mID="0" v:index="1" v:groupContext="foregroundPage">
		<title>Page-1</title>
		<v:pageProperties v:drawingScale="0.0393701" v:pageScale="0.0393701" v:drawingUnits="24" v:shadowOffsetX="8.50394"
				v:shadowOffsetY="-8.50394"/>
		<g id="shape2-1" v:mID="2" v:groupContext="shape" transform="translate(55.2254,-92.2333)">
			<title>工作表.2</title>
			<path d="M0 191.47 L28.35 191.47" class="st1"/>
		</g>
		<g id="shape3-4" v:mID="3" v:groupContext="shape" transform="translate(83.5718,-92.2333)">
			<title>工作表.3</title>
			<path d="M0 191.47 L14.17 191.47" class="st1"/>
		</g>
		<g id="shape4-7" v:mID="4" v:groupContext="shape" transform="translate(-93.7293,120.501) rotate(-90)">
			<title>工作表.4</title>
			<path d="M0 191.47 L21.26 191.47" class="st1"/>
		</g>
		<g id="shape5-10" v:mID="5" v:groupContext="shape" transform="translate(-79.5561,120.501) rotate(-90)">
			<title>工作表.5</title>
			<path d="M0 191.47 L21.26 191.47" class="st1"/>
		</g>
		<g id="shape6-13" v:mID="6" v:groupContext="shape" transform="translate(-65.3829,120.501) rotate(-90)">
			<title>工作表.6</title>
			<path d="M0 191.47 L21.26 191.47" class="st1"/>
		</g>
		<g id="shape7-16" v:mID="7" v:groupContext="shape" transform="translate(-51.2096,120.501) rotate(-90)">
			<title>工作表.7</title>
			<path d="M0 191.47 L21.26 191.47" class="st1"/>
		</g>
		<g id="shape8-19" v:mID="8" v:groupContext="shape" transform="translate(-37.0364,120.501) rotate(-90)">
			<title>工作表.8</title>
			<path d="M0 191.47 L21.26 191.47" class="st1"/>
		</g>
		<g id="shape10-22" v:mID="10" v:groupContext="shape" transform="translate(97.7451,-70.9734)">
			<title>工作表.10</title>
			<path d="M0 191.47 L14.17 191.47" class="st1"/>
		</g>
		<g id="shape11-25" v:mID="11" v:groupContext="shape" transform="translate(111.918,-92.2333)">
			<title>工作表.11</title>
			<path d="M0 191.47 L14.17 191.47" class="st1"/>
		</g>
		<g id="shape12-28" v:mID="12" v:groupContext="shape" transform="translate(140.265,-92.2333)">
			<title>工作表.12</title>
			<path d="M0 191.47 L14.17 191.47" class="st1"/>
		</g>
		<g id="shape13-31" v:mID="13" v:groupContext="shape" transform="translate(126.092,-70.9734)">
			<title>工作表.13</title>
			<path d="M0 191.47 L14.17 191.47" class="st1"/>
		</g>
		<g id="shape14-34" v:mID="14" v:groupContext="shape" transform="translate(154.438,-70.9734)">
			<title>工作表.14</title>
			<path d="M0 191.47 L14.17 191.47" class="st1"/>
		</g>
		<g id="group24-37" transform="translate(168.611,-70.9734)" v:mID="24" v:groupContext="group">
			<title>工作表.24</title>
			<g id="shape19-38" v:mID="19" v:groupContext="shape" transform="translate(-191.474,191.474) rotate(-90)">
				<title>工作表.19</title>
				<path d="M0 191.47 L21.26 191.47" class="st1"/>
			</g>
			<g id="shape20-41" v:mID="20" v:groupContext="shape" transform="translate(-177.301,191.474) rotate(-90)">
				<title>工作表.20</title>
				<path d="M0 191.47 L21.26 191.47" class="st1"/>
			</g>
			<g id="shape22-44" v:mID="22" v:groupContext="shape" transform="translate(-3.19744E-14,-21.2598)">
				<title>工作表.22</title>
				<path d="M0 191.47 L14.17 191.47" class="st1"/>
			</g>
			<g id="shape23-47" v:mID="23" v:groupContext="shape" transform="translate(14.1732,-1.13687E-13)">
				<title>工作表.23</title>
				<path d="M0 191.47 L14.17 191.47" class="st1"/>
			</g>
		</g>
		<g id="group25-50" transform="translate(196.958,-70.9734)" v:mID="25" v:groupContext="group">
			<title>工作表.25</title>
			<g id="shape26-51" v:mID="26" v:groupContext="shape" transform="translate(-191.474,191.474) rotate(-90)">
				<title>工作表.26</title>
				<path d="M0 191.47 L21.26 191.47" class="st1"/>
			</g>
			<g id="shape27-54" v:mID="27" v:groupContext="shape" transform="translate(-177.301,191.474) rotate(-90)">
				<title>工作表.27</title>
				<path d="M0 191.47 L21.26 191.47" class="st1"/>
			</g>
			<g id="shape28-57" v:mID="28" v:groupContext="shape" transform="translate(-3.19744E-14,-21.2598)">
				<title>工作表.28</title>
				<path d="M0 191.47 L14.17 191.47" class="st1"/>
			</g>
			<g id="shape29-60" v:mID="29" v:groupContext="shape" transform="translate(14.1732,-1.13687E-13)">
				<title>工作表.29</title>
				<path d="M0 191.47 L14.17 191.47" class="st1"/>
			</g>
		</g>
		<g id="group30-63" transform="translate(225.304,-70.9734)" v:mID="30" v:groupContext="group">
			<title>工作表.30</title>
			<g id="shape31-64" v:mID="31" v:groupContext="shape" transform="translate(-191.474,191.474) rotate(-90)">
				<title>工作表.31</title>
				<path d="M0 191.47 L21.26 191.47" class="st1"/>
			</g>
			<g id="shape32-67" v:mID="32" v:groupContext="shape" transform="translate(-177.301,191.474) rotate(-90)">
				<title>工作表.32</title>
				<path d="M0 191.47 L21.26 191.47" class="st1"/>
			</g>
			<g id="shape33-70" v:mID="33" v:groupContext="shape" transform="translate(-3.19744E-14,-21.2598)">
				<title>工作表.33</title>
				<path d="M0 191.47 L14.17 191.47" class="st1"/>
			</g>
			<g id="shape34-73" v:mID="34" v:groupContext="shape" transform="translate(14.1732,-1.13687E-13)">
				<title>工作表.34</title>
				<path d="M0 191.47 L14.17 191.47" class="st1"/>
			</g>
		</g>
		<g id="group35-76" transform="translate(253.651,-70.9734)" v:mID="35" v:groupContext="group">
			<title>工作表.35</title>
			<g id="shape36-77" v:mID="36" v:groupContext="shape" transform="translate(-191.474,191.474) rotate(-90)">
				<title>工作表.36</title>
				<path d="M0 191.47 L21.26 191.47" class="st1"/>
			</g>
			<g id="shape37-80" v:mID="37" v:groupContext="shape" transform="translate(-177.301,191.474) rotate(-90)">
				<title>工作表.37</title>
				<path d="M0 191.47 L21.26 191.47" class="st1"/>
			</g>
			<g id="shape38-83" v:mID="38" v:groupContext="shape" transform="translate(-3.19744E-14,-21.2598)">
				<title>工作表.38</title>
				<path d="M0 191.47 L14.17 191.47" class="st1"/>
			</g>
			<g id="shape39-86" v:mID="39" v:groupContext="shape" transform="translate(14.1732,-1.13687E-13)">
				<title>工作表.39</title>
				<path d="M0 191.47 L14.17 191.47" class="st1"/>
			</g>
		</g>
		<g id="group40-89" transform="translate(281.997,-70.9734)" v:mID="40" v:groupContext="group">
			<title>工作表.40</title>
			<g id="shape41-90" v:mID="41" v:groupContext="shape" transform="translate(-191.474,191.474) rotate(-90)">
				<title>工作表.41</title>
				<path d="M0 191.47 L21.26 191.47" class="st1"/>
			</g>
			<g id="shape42-93" v:mID="42" v:groupContext="shape" transform="translate(-177.301,191.474) rotate(-90)">
				<title>工作表.42</title>
				<path d="M0 191.47 L21.26 191.47" class="st1"/>
			</g>
			<g id="shape43-96" v:mID="43" v:groupContext="shape" transform="translate(-3.19744E-14,-21.2598)">
				<title>工作表.43</title>
				<path d="M0 191.47 L14.17 191.47" class="st1"/>
			</g>
			<g id="shape44-99" v:mID="44" v:groupContext="shape" transform="translate(14.1732,-1.13687E-13)">
				<title>工作表.44</title>
				<path d="M0 191.47 L14.17 191.47" class="st1"/>
			</g>
		</g>
		<g id="group45-102" transform="translate(310.343,-70.9734)" v:mID="45" v:groupContext="group">
			<title>工作表.45</title>
			<g id="shape46-103" v:mID="46" v:groupContext="shape" transform="translate(-191.474,191.474) rotate(-90)">
				<title>工作表.46</title>
				<path d="M0 191.47 L21.26 191.47" class="st1"/>
			</g>
			<g id="shape47-106" v:mID="47" v:groupContext="shape" transform="translate(-177.301,191.474) rotate(-90)">
				<title>工作表.47</title>
				<path d="M0 191.47 L21.26 191.47" class="st1"/>
			</g>
			<g id="shape48-109" v:mID="48" v:groupContext="shape" transform="translate(-3.19744E-14,-21.2598)">
				<title>工作表.48</title>
				<path d="M0 191.47 L14.17 191.47" class="st1"/>
			</g>
			<g id="shape49-112" v:mID="49" v:groupContext="shape" transform="translate(14.1732,-1.13687E-13)">
				<title>工作表.49</title>
				<path d="M0 191.47 L14.17 191.47" class="st1"/>
			</g>
		</g>
		<g id="shape50-115" v:mID="50" v:groupContext="shape" transform="translate(338.69,-70.9734)">
			<title>工作表.50</title>
			<path d="M0 191.47 L106.3 191.47" class="st1"/>
		</g>
		<g id="shape51-118" v:mID="51" v:groupContext="shape" transform="translate(55.2254,-28.4537)">
			<title>工作表.51</title>
			<path d="M0 191.47 L354.33 191.47" class="st1"/>
		</g>
		<g id="shape52-121" v:mID="52" v:groupContext="shape" transform="translate(253.515,120.501) rotate(-90)">
			<title>工作表.52</title>
			<path d="M0 191.47 L21.26 191.47" class="st1"/>
		</g>
		<g id="shape53-124" v:mID="53" v:groupContext="shape" transform="translate(409.556,-49.7136)">
			<title>工作表.53</title>
			<path d="M0 191.47 L21.26 191.47" class="st1"/>
		</g>
		<g id="shape54-127" v:mID="54" v:groupContext="shape" transform="translate(218.082,163.021) rotate(-90)">
			<title>工作表.54</title>
			<path d="M0 191.47 L21.26 191.47" class="st1"/>
		</g>
		<g id="shape55-130" v:mID="55" v:groupContext="shape" transform="translate(239.342,163.021) rotate(-90)">
			<title>工作表.55</title>
			<path d="M0 191.47 L21.26 191.47" class="st1"/>
		</g>
		<g id="shape56-133" v:mID="56" v:groupContext="shape" transform="translate(430.816,-28.4537)">
			<title>工作表.56</title>
			<path d="M0 191.47 L28.4 191.47" class="st1"/>
		</g>
		<g id="shape57-136" v:mID="57" v:groupContext="shape" transform="translate(444.989,-92.2333)">
			<title>工作表.57</title>
			<path d="M0 191.47 L14.22 191.47" class="st1"/>
		</g>
		<g id="shape58-139" v:mID="58" v:groupContext="shape" transform="translate(83.631,-120.58) rotate(0.0177)">
			<title>工作表.58</title>
			<path d="M0 191.47 L347.24 191.47" class="st1"/>
		</g>
		<g id="shape59-142" v:mID="59" v:groupContext="shape" transform="translate(55.2254,-141.84)">
			<title>工作表.59</title>
			<path d="M0 191.47 L28.35 191.47" class="st1"/>
		</g>
		<g id="shape60-145" v:mID="60" v:groupContext="shape" transform="translate(-107.903,70.8947) rotate(-90)">
			<title>工作表.60</title>
			<path d="M0 191.47 L21.26 191.47" class="st1"/>
		</g>
		<g id="shape61-148" v:mID="61" v:groupContext="shape" transform="translate(622.29,28.375) rotate(90)">
			<title>工作表.61</title>
			<path d="M0 191.47 L141.73 191.47" class="st2"/>
		</g>
		<g id="shape63-151" v:mID="63" v:groupContext="shape" transform="translate(636.464,28.375) rotate(90)">
			<title>工作表.63</title>
			<path d="M0 191.47 L141.73 191.47" class="st2"/>
		</g>
		<g id="shape64-154" v:mID="64" v:groupContext="shape" transform="translate(515.991,28.375) rotate(90)">
			<title>工作表.64</title>
			<path d="M0 191.47 L141.73 191.47" class="st2"/>
		</g>
		<g id="shape65-157" v:mID="65" v:groupContext="shape" transform="translate(275.046,28.375) rotate(90)">
			<title>工作表.65</title>
			<path d="M0 191.47 L141.73 191.47" class="st2"/>
		</g>
		<g id="shape66-160" v:mID="66" v:groupContext="shape" transform="translate(303.393,28.375) rotate(90)">
			<title>工作表.66</title>
			<path d="M0 191.47 L141.73 191.47" class="st2"/>
		</g>
		<g id="shape67-163" v:mID="67" v:groupContext="shape" transform="translate(83.5718,-156.013)">
			<title>工作表.67</title>
			<path d="M4.1 191.47 L4.46 191.47 L23.88 191.47" class="st3"/>
		</g>
		<g id="shape68-172" v:mID="68" v:groupContext="shape" transform="translate(324.517,-156.013)">
			<title>工作表.68</title>
			<path d="M4.1 191.47 L4.46 191.47 L101.84 191.47" class="st3"/>
		</g>
		<g id="shape69-179" v:mID="69" v:groupContext="shape" transform="translate(430.816,-156.013)">
			<title>工作表.69</title>
			<path d="M4.1 191.47 L4.46 191.47 L9.71 191.47" class="st3"/>
		</g>
		<g id="shape70-186" v:mID="70" v:groupContext="shape" transform="translate(335.946,-153.099)">
			<title>工作表.70</title>
			<desc>Clock stalled</desc>
			<v:textBlock v:margins="rect(4,4,4,4)" v:tabSpace="42.5197"/>
			<v:textRect cx="45.2638" cy="181.474" width="90.53" height="20"/>
			<rect x="0" y="171.474" width="90.5276" height="20" class="st5"/>
			<text x="19.86" y="184.47" class="st6" v:langID="1033"><v:paragraph v:horizAlign="1"/><v:tabList/>Clock stalled</text>		</g>
		<g id="shape71-189" v:mID="71" v:groupContext="shape" transform="translate(423.729,-153.099)">
			<title>工作表.71</title>
			<desc>T/2</desc>
			<v:textBlock v:margins="rect(4,4,4,4)" v:tabSpace="42.5197"/>
			<v:textRect cx="14.1732" cy="181.474" width="28.35" height="20"/>
			<rect x="0" y="171.474" width="28.3465" height="20" class="st5"/>
			<text x="7.27" y="184.47" class="st6" v:langID="1033"><v:paragraph v:horizAlign="1"/><v:tabList/>T/2</text>		</g>
		<g id="shape72-192" v:mID="72" v:groupContext="shape" transform="translate(83.5719,-151.761)">
			<title>工作表.72</title>
			<desc>T</desc>
			<v:textBlock v:margins="rect(4,4,4,4)" v:tabSpace="42.5197"/>
			<v:textRect cx="14.1732" cy="181.474" width="28.35" height="20"/>
			<rect x="0" y="171.474" width="28.3465" height="20" class="st5"/>
			<text x="11.74" y="184.47" class="st6" v:langID="1033"><v:paragraph v:horizAlign="1"/><v:tabList/>T</text>		</g>
		<g id="shape73-195" v:mID="73" v:groupContext="shape" transform="translate(26.8789,-131.761)">
			<title>工作表.73</title>
			<desc>nCS</desc>
			<v:textBlock v:margins="rect(4,4,4,4)" v:tabSpace="42.5197"/>
			<v:textRect cx="14.1732" cy="181.474" width="28.35" height="20"/>
			<rect x="0" y="171.474" width="28.3465" height="20" class="st5"/>
			<text x="9.17" y="184.47" class="st6" v:langID="1033"><v:paragraph v:horizAlign="2"/><v:tabList/>nCS</text>		</g>
		<g id="shape74-198" v:mID="74" v:groupContext="shape" transform="translate(26.8789,-83.7293)">
			<title>工作表.74</title>
			<desc>SCLK</desc>
			<v:textBlock v:margins="rect(4,4,4,4)" v:tabSpace="42.5197"/>
			<v:textRect cx="14.1732" cy="181.474" width="28.35" height="20"/>
			<rect x="0" y="171.474" width="28.3465" height="20" class="st5"/>
			<text x="5.02" y="184.47" class="st6" v:langID="1033"><v:paragraph v:horizAlign="2"/><v:tabList/>SCLK</text>		</g>
		<g id="shape75-201" v:mID="75" v:groupContext="shape" transform="translate(18.375,-18.375)">
			<title>工作表.75</title>
			<desc>Abort</desc>
			<v:textBlock v:margins="rect(4,4,4,4)" v:tabSpace="42.5197"/>
			<v:textRect cx="18.4252" cy="181.474" width="36.86" height="20"/>
			<rect x="0" y="171.474" width="36.8504" height="20" class="st5"/>
			<text x="9.7" y="184.47" class="st6" v:langID="1033"><v:paragraph v:horizAlign="2"/><v:tabList/>Abort</text>		</g>
		<g id="shape76-204" v:mID="76" v:groupContext="shape" transform="translate(239.342,71.002) rotate(-90)">
			<title>工作表.76</title>
			<path d="M0 191.47 L21.26 191.47" class="st1"/>
		</g>
		<g id="shape77-207" v:mID="77" v:groupContext="shape" transform="translate(430.816,-141.732)">
			<title>工作表.77</title>
			<path d="M0 191.47 L28.4 191.47" class="st1"/>
		</g>
	</g>
</svg>
