<?xml version="1.0" encoding="UTF-8" standalone="no"?>
<!DOCTYPE svg PUBLIC "-//W3C//DTD SVG 1.1//EN" "http://www.w3.org/Graphics/SVG/1.1/DTD/svg11.dtd">
<!-- 由 Microsoft Visio, SVG Export 生成 QSPI_nCS_SCLK1.svg Page-1 -->
<svg xmlns="http://www.w3.org/2000/svg" xmlns:xlink="http://www.w3.org/1999/xlink" xmlns:ev="http://www.w3.org/2001/xml-events"
		xmlns:v="http://schemas.microsoft.com/visio/2003/SVGExtensions/" width="5.45206in" height="2.09301in"
		viewBox="0 0 392.548 150.697" xml:space="preserve" color-interpolation-filters="sRGB" class="st7">
	<v:documentProperties v:langID="1033" v:metric="true" v:viewMarkup="false">
		<v:userDefs>
			<v:ud v:nameU="msvNoAutoConnect" v:val="VT0(1):26"/>
		</v:userDefs>
	</v:documentProperties>

	<style type="text/css">
	<![CDATA[
		.st1 {stroke:#000000;stroke-linecap:round;stroke-linejoin:round;stroke-width:0.75}
		.st2 {stroke:#000000;stroke-dasharray:5.25,3.75;stroke-linecap:round;stroke-linejoin:round;stroke-width:0.75}
		.st3 {marker-end:url(#mrkr5-138);marker-start:url(#mrkr5-136);stroke:#000000;stroke-linecap:round;stroke-linejoin:round;stroke-width:0.75}
		.st4 {fill:#000000;fill-opacity:1;stroke:#000000;stroke-opacity:1;stroke-width:0.29411764705882}
		.st5 {fill:none;stroke:none;stroke-linecap:round;stroke-linejoin:round;stroke-width:0.75}
		.st6 {fill:#000000;font-family:Calibri;font-size:0.833336em}
		.st7 {fill:none;fill-rule:evenodd;font-size:12px;overflow:visible;stroke-linecap:square;stroke-miterlimit:3}
	]]>
	</style>

	<defs id="Markers">
		<g id="lend5">
			<path d="M 2 1 L 0 0 L 1.98117 -0.993387 C 1.67173 -0.364515 1.67301 0.372641 1.98465 1.00043 " style="stroke:none"/>
		</g>
		<marker id="mrkr5-136" class="st4" v:arrowType="5" v:arrowSize="1" v:setback="5.47" refX="5.47" orient="auto"
				markerUnits="strokeWidth" overflow="visible">
			<use xlink:href="#lend5" transform="scale(3.4) "/>
		</marker>
		<marker id="mrkr5-138" class="st4" v:arrowType="5" v:arrowSize="1" v:setback="5.95" refX="-5.95" orient="auto"
				markerUnits="strokeWidth" overflow="visible">
			<use xlink:href="#lend5" transform="scale(-3.4,-3.4) "/>
		</marker>
	</defs>
	<g v:mID="0" v:index="1" v:groupContext="foregroundPage">
		<title>Page-1</title>
		<v:pageProperties v:drawingScale="0.0393701" v:pageScale="0.0393701" v:drawingUnits="24" v:shadowOffsetX="8.50394"
				v:shadowOffsetY="-8.50394"/>
		<g id="shape2-1" v:mID="2" v:groupContext="shape" transform="translate(46.6971,-29.8209)">
			<title>工作表.2</title>
			<path d="M0 150.7 L56.72 150.7" class="st1"/>
		</g>
		<g id="shape5-4" v:mID="5" v:groupContext="shape" transform="translate(-47.2825,120.876) rotate(-90)">
			<title>工作表.5</title>
			<path d="M0 150.7 L21.26 150.7" class="st1"/>
		</g>
		<g id="shape6-7" v:mID="6" v:groupContext="shape" transform="translate(-33.1092,120.876) rotate(-90)">
			<title>工作表.6</title>
			<path d="M0 150.7 L21.26 150.7" class="st1"/>
		</g>
		<g id="shape7-10" v:mID="7" v:groupContext="shape" transform="translate(-18.936,120.876) rotate(-90)">
			<title>工作表.7</title>
			<path d="M0 150.7 L21.26 150.7" class="st1"/>
		</g>
		<g id="shape8-13" v:mID="8" v:groupContext="shape" transform="translate(-4.76279,120.876) rotate(-90)">
			<title>工作表.8</title>
			<path d="M0 150.7 L21.26 150.7" class="st1"/>
		</g>
		<g id="shape11-16" v:mID="11" v:groupContext="shape" transform="translate(103.414,-51.0807)">
			<title>工作表.11</title>
			<path d="M0 150.7 L14.17 150.7" class="st1"/>
		</g>
		<g id="shape12-19" v:mID="12" v:groupContext="shape" transform="translate(131.761,-51.0807)">
			<title>工作表.12</title>
			<path d="M0 150.7 L14.17 150.7" class="st1"/>
		</g>
		<g id="shape13-22" v:mID="13" v:groupContext="shape" transform="translate(117.588,-29.8209)">
			<title>工作表.13</title>
			<path d="M0 150.7 L14.17 150.7" class="st1"/>
		</g>
		<g id="shape14-25" v:mID="14" v:groupContext="shape" transform="translate(145.934,-29.8209)">
			<title>工作表.14</title>
			<path d="M0 150.7 L14.17 150.7" class="st1"/>
		</g>
		<g id="group24-28" transform="translate(160.107,-29.8209)" v:mID="24" v:groupContext="group">
			<title>工作表.24</title>
			<g id="shape19-29" v:mID="19" v:groupContext="shape" transform="translate(-150.697,150.697) rotate(-90)">
				<title>工作表.19</title>
				<path d="M0 150.7 L21.26 150.7" class="st1"/>
			</g>
			<g id="shape20-32" v:mID="20" v:groupContext="shape" transform="translate(-136.524,150.697) rotate(-90)">
				<title>工作表.20</title>
				<path d="M0 150.7 L21.26 150.7" class="st1"/>
			</g>
			<g id="shape22-35" v:mID="22" v:groupContext="shape" transform="translate(-3.19744E-14,-21.2598)">
				<title>工作表.22</title>
				<path d="M0 150.7 L14.17 150.7" class="st1"/>
			</g>
			<g id="shape23-38" v:mID="23" v:groupContext="shape" transform="translate(14.1732,-1.42109E-13)">
				<title>工作表.23</title>
				<path d="M0 150.7 L14.17 150.7" class="st1"/>
			</g>
		</g>
		<g id="group25-41" transform="translate(188.454,-29.8209)" v:mID="25" v:groupContext="group">
			<title>工作表.25</title>
			<g id="shape26-42" v:mID="26" v:groupContext="shape" transform="translate(-150.697,150.697) rotate(-90)">
				<title>工作表.26</title>
				<path d="M0 150.7 L21.26 150.7" class="st1"/>
			</g>
			<g id="shape27-45" v:mID="27" v:groupContext="shape" transform="translate(-136.524,150.697) rotate(-90)">
				<title>工作表.27</title>
				<path d="M0 150.7 L21.26 150.7" class="st1"/>
			</g>
			<g id="shape28-48" v:mID="28" v:groupContext="shape" transform="translate(-3.19744E-14,-21.2598)">
				<title>工作表.28</title>
				<path d="M0 150.7 L14.17 150.7" class="st1"/>
			</g>
			<g id="shape29-51" v:mID="29" v:groupContext="shape" transform="translate(14.1732,-1.42109E-13)">
				<title>工作表.29</title>
				<path d="M0 150.7 L14.17 150.7" class="st1"/>
			</g>
		</g>
		<g id="group30-54" transform="translate(216.8,-29.8209)" v:mID="30" v:groupContext="group">
			<title>工作表.30</title>
			<g id="shape31-55" v:mID="31" v:groupContext="shape" transform="translate(-150.697,150.697) rotate(-90)">
				<title>工作表.31</title>
				<path d="M0 150.7 L21.26 150.7" class="st1"/>
			</g>
			<g id="shape32-58" v:mID="32" v:groupContext="shape" transform="translate(-136.524,150.697) rotate(-90)">
				<title>工作表.32</title>
				<path d="M0 150.7 L21.26 150.7" class="st1"/>
			</g>
			<g id="shape33-61" v:mID="33" v:groupContext="shape" transform="translate(-3.19744E-14,-21.2598)">
				<title>工作表.33</title>
				<path d="M0 150.7 L14.17 150.7" class="st1"/>
			</g>
			<g id="shape34-64" v:mID="34" v:groupContext="shape" transform="translate(14.1732,-1.42109E-13)">
				<title>工作表.34</title>
				<path d="M0 150.7 L14.17 150.7" class="st1"/>
			</g>
		</g>
		<g id="group35-67" transform="translate(245.147,-29.8209)" v:mID="35" v:groupContext="group">
			<title>工作表.35</title>
			<g id="shape36-68" v:mID="36" v:groupContext="shape" transform="translate(-150.697,150.697) rotate(-90)">
				<title>工作表.36</title>
				<path d="M0 150.7 L21.26 150.7" class="st1"/>
			</g>
			<g id="shape37-71" v:mID="37" v:groupContext="shape" transform="translate(-136.524,150.697) rotate(-90)">
				<title>工作表.37</title>
				<path d="M0 150.7 L21.26 150.7" class="st1"/>
			</g>
			<g id="shape38-74" v:mID="38" v:groupContext="shape" transform="translate(-3.19744E-14,-21.2598)">
				<title>工作表.38</title>
				<path d="M0 150.7 L14.17 150.7" class="st1"/>
			</g>
			<g id="shape39-77" v:mID="39" v:groupContext="shape" transform="translate(14.1732,-1.42109E-13)">
				<title>工作表.39</title>
				<path d="M0 150.7 L14.17 150.7" class="st1"/>
			</g>
		</g>
		<g id="group40-80" transform="translate(273.493,-29.8209)" v:mID="40" v:groupContext="group">
			<title>工作表.40</title>
			<g id="shape41-81" v:mID="41" v:groupContext="shape" transform="translate(-150.697,150.697) rotate(-90)">
				<title>工作表.41</title>
				<path d="M0 150.7 L21.26 150.7" class="st1"/>
			</g>
			<g id="shape42-84" v:mID="42" v:groupContext="shape" transform="translate(-136.524,150.697) rotate(-90)">
				<title>工作表.42</title>
				<path d="M0 150.7 L21.26 150.7" class="st1"/>
			</g>
			<g id="shape43-87" v:mID="43" v:groupContext="shape" transform="translate(-3.19744E-14,-21.2598)">
				<title>工作表.43</title>
				<path d="M0 150.7 L14.17 150.7" class="st1"/>
			</g>
			<g id="shape44-90" v:mID="44" v:groupContext="shape" transform="translate(14.1732,-1.42109E-13)">
				<title>工作表.44</title>
				<path d="M0 150.7 L14.17 150.7" class="st1"/>
			</g>
		</g>
		<g id="group45-93" transform="translate(301.84,-29.8209)" v:mID="45" v:groupContext="group">
			<title>工作表.45</title>
			<g id="shape46-94" v:mID="46" v:groupContext="shape" transform="translate(-150.697,150.697) rotate(-90)">
				<title>工作表.46</title>
				<path d="M0 150.7 L21.26 150.7" class="st1"/>
			</g>
			<g id="shape47-97" v:mID="47" v:groupContext="shape" transform="translate(-136.524,150.697) rotate(-90)">
				<title>工作表.47</title>
				<path d="M0 150.7 L21.26 150.7" class="st1"/>
			</g>
			<g id="shape48-100" v:mID="48" v:groupContext="shape" transform="translate(-3.19744E-14,-21.2598)">
				<title>工作表.48</title>
				<path d="M0 150.7 L14.17 150.7" class="st1"/>
			</g>
			<g id="shape49-103" v:mID="49" v:groupContext="shape" transform="translate(14.1732,-1.42109E-13)">
				<title>工作表.49</title>
				<path d="M0 150.7 L14.17 150.7" class="st1"/>
			</g>
		</g>
		<g id="shape50-106" v:mID="50" v:groupContext="shape" transform="translate(330.186,-29.8209)">
			<title>工作表.50</title>
			<path d="M0 150.7 L43.99 150.7" class="st1"/>
		</g>
		<g id="shape52-109" v:mID="52" v:groupContext="shape" transform="translate(179.539,71.3763) rotate(-90)">
			<title>工作表.52</title>
			<path d="M0 150.7 L21.26 150.7" class="st1"/>
		</g>
		<g id="shape57-112" v:mID="57" v:groupContext="shape" transform="translate(330.236,-100.58)">
			<title>工作表.57</title>
			<path d="M0 150.7 L28.35 150.7" class="st1"/>
		</g>
		<g id="shape58-115" v:mID="58" v:groupContext="shape" transform="translate(75.1309,-79.4271) rotate(0.0239344)">
			<title>工作表.58</title>
			<path d="M0 150.7 L255.17 150.7" class="st1"/>
		</g>
		<g id="shape59-118" v:mID="59" v:groupContext="shape" transform="translate(46.7215,-100.687)">
			<title>工作表.59</title>
			<path d="M0 150.7 L28.35 150.7" class="st1"/>
		</g>
		<g id="shape60-121" v:mID="60" v:groupContext="shape" transform="translate(-75.6289,71.2697) rotate(-90)">
			<title>工作表.60</title>
			<path d="M0 150.7 L21.26 150.7" class="st1"/>
		</g>
		<g id="shape65-124" v:mID="65" v:groupContext="shape" transform="translate(225.765,27.4399) rotate(90)">
			<title>工作表.65</title>
			<path d="M0 150.7 L104.88 150.7" class="st2"/>
		</g>
		<g id="shape66-127" v:mID="66" v:groupContext="shape" transform="translate(254.111,27.4399) rotate(90)">
			<title>工作表.66</title>
			<path d="M0 150.7 L104.88 150.7" class="st2"/>
		</g>
		<g id="shape67-130" v:mID="67" v:groupContext="shape" transform="translate(75.0679,-114.753)">
			<title>工作表.67</title>
			<path d="M4.1 150.7 L4.46 150.7 L23.88 150.7" class="st3"/>
		</g>
		<g id="shape72-139" v:mID="72" v:groupContext="shape" transform="translate(75.0679,-112.322)">
			<title>工作表.72</title>
			<desc>T</desc>
			<v:textBlock v:margins="rect(4,4,4,4)" v:tabSpace="42.5197"/>
			<v:textRect cx="14.1732" cy="140.697" width="28.35" height="20"/>
			<rect x="0" y="130.697" width="28.3465" height="20" class="st5"/>
			<text x="11.74" y="143.7" class="st6" v:langID="1033"><v:paragraph v:horizAlign="1"/><v:tabList/>T</text>		</g>
		<g id="shape73-142" v:mID="73" v:groupContext="shape" transform="translate(18.375,-90.6083)">
			<title>工作表.73</title>
			<desc>nCS</desc>
			<v:textBlock v:margins="rect(4,4,4,4)" v:tabSpace="42.5197"/>
			<v:textRect cx="14.1732" cy="140.697" width="28.35" height="20"/>
			<rect x="0" y="130.697" width="28.3465" height="20" class="st5"/>
			<text x="9.17" y="143.7" class="st6" v:langID="1033"><v:paragraph v:horizAlign="2"/><v:tabList/>nCS</text>		</g>
		<g id="shape74-145" v:mID="74" v:groupContext="shape" transform="translate(18.375,-42.5768)">
			<title>工作表.74</title>
			<desc>SCLK</desc>
			<v:textBlock v:margins="rect(4,4,4,4)" v:tabSpace="42.5197"/>
			<v:textRect cx="14.1732" cy="140.697" width="28.35" height="20"/>
			<rect x="0" y="130.697" width="28.3465" height="20" class="st5"/>
			<text x="5.02" y="143.7" class="st6" v:langID="1033"><v:paragraph v:horizAlign="2"/><v:tabList/>SCLK</text>		</g>
		<g id="shape80-148" v:mID="80" v:groupContext="shape" transform="translate(301.84,-114.753)">
			<title>工作表.80</title>
			<path d="M4.1 150.7 L4.46 150.7 L23.88 150.7" class="st3"/>
		</g>
		<g id="shape81-155" v:mID="81" v:groupContext="shape" transform="translate(301.84,-112.322)">
			<title>工作表.81</title>
			<desc>T</desc>
			<v:textBlock v:margins="rect(4,4,4,4)" v:tabSpace="42.5197"/>
			<v:textRect cx="14.1732" cy="140.697" width="28.35" height="20"/>
			<rect x="0" y="130.697" width="28.3465" height="20" class="st5"/>
			<text x="11.74" y="143.7" class="st6" v:langID="1033"><v:paragraph v:horizAlign="1"/><v:tabList/>T</text>		</g>
		<g id="shape83-158" v:mID="83" v:groupContext="shape" transform="translate(452.536,27.4399) rotate(90)">
			<title>工作表.83</title>
			<path d="M0 150.7 L104.88 150.7" class="st2"/>
		</g>
		<g id="shape84-161" v:mID="84" v:groupContext="shape" transform="translate(480.883,27.4399) rotate(90)">
			<title>工作表.84</title>
			<path d="M0 150.7 L104.88 150.7" class="st2"/>
		</g>
	</g>
</svg>
