<?xml version="1.0" encoding="UTF-8" standalone="no"?>
<!DOCTYPE svg PUBLIC "-//W3C//DTD SVG 1.1//EN" "http://www.w3.org/Graphics/SVG/1.1/DTD/svg11.dtd">
<!-- Generated by Microsoft Visio, SVG Export baudrate.svg Page-1 -->
<svg xmlns="http://www.w3.org/2000/svg" xmlns:xlink="http://www.w3.org/1999/xlink" xmlns:ev="http://www.w3.org/2001/xml-events"
		width="7.17577in" height="3.08847in" viewBox="0 0 516.656 222.37" xml:space="preserve" color-interpolation-filters="sRGB"
		class="st18">
	<style type="text/css">
	<![CDATA[
		.st1 {stroke:#000000;stroke-linecap:round;stroke-linejoin:round;stroke-width:0.632806}
		.st2 {stroke:#000000;stroke-dasharray:4.42964,3.16403;stroke-linecap:round;stroke-linejoin:round;stroke-width:0.632806}
		.st3 {stroke:none;stroke-linecap:round;stroke-linejoin:round;stroke-width:0.75}
		.st4 {fill:#000000;font-family:Arial;font-size:0.527275em}
		.st5 {baseline-shift:-32.4934%;font-size:0.649868em}
		.st6 {font-size:1em}
		.st7 {fill:#000000;font-family:Arial;font-size:0.685455em}
		.st8 {stroke:#000000;stroke-linecap:round;stroke-linejoin:round;stroke-width:0.75}
		.st9 {fill:none;stroke:none;stroke-linecap:round;stroke-linejoin:round;stroke-width:0.75}
		.st10 {fill:#000000;font-family:Microsoft Sans Serif;font-size:0.666664em}
		.st11 {marker-end:url(#mrkr5-131);marker-start:url(#mrkr5-129);stroke:#000000;stroke-linecap:round;stroke-linejoin:round;stroke-width:0.75}
		.st12 {fill:#000000;fill-opacity:1;stroke:#000000;stroke-opacity:1;stroke-width:0.34246575342466}
		.st13 {marker-start:url(#mrkr5-129);stroke:#000000;stroke-dasharray:5.25,3.75;stroke-linecap:round;stroke-linejoin:round;stroke-width:0.75}
		.st14 {marker-start:url(#mrkr5-129);stroke:#000000;stroke-linecap:round;stroke-linejoin:round;stroke-width:0.75}
		.st15 {fill:#000000;font-family:Microsoft Sans Serif;font-size:1.00001em}
		.st16 {baseline-shift:-32.4941%;font-size:0.649882em}
		.st17 {fill:none;stroke:#000000;stroke-linecap:round;stroke-linejoin:round;stroke-width:0.75}
		.st18 {fill:none;fill-rule:evenodd;font-size:12px;overflow:visible;stroke-linecap:square;stroke-miterlimit:3}
	]]>
	</style>

	<defs id="Markers">
		<g id="lend5">
			<path d="M 2 1 L 0 0 L 1.98117 -0.993387 C 1.67173 -0.364515 1.67301 0.372641 1.98465 1.00043 " style="stroke:none"/>
		</g>
		<marker id="mrkr5-129" class="st12" refX="4.63" orient="auto" markerUnits="strokeWidth" overflow="visible">
			<use xlink:href="#lend5" transform="scale(2.92) "/>
		</marker>
		<marker id="mrkr5-131" class="st12" refX="-5.11" orient="auto" markerUnits="strokeWidth" overflow="visible">
			<use xlink:href="#lend5" transform="scale(-2.92,-2.92) "/>
		</marker>
	</defs>
	<g>
		<title>页-1</title>
		<g id="shape65-1" transform="translate(4.14508,-105.159)">
			<title>Sheet.65</title>
		</g>
		<g id="shape66-2" transform="translate(83.8871,-161.787)">
			<title>Sheet.66</title>
			<path d="M0 222.37 L0 197.94 L18.99 197.94" class="st1"/>
		</g>
		<g id="shape67-5" transform="translate(102.873,-161.787)">
			<title>Sheet.67</title>
			<path d="M0 197.94 L0 222.37 L18.99 222.37" class="st1"/>
		</g>
		<g id="shape68-8" transform="translate(121.859,-161.787)">
			<title>Sheet.68</title>
			<path d="M0 222.37 L0 197.94 L18.99 197.94" class="st1"/>
		</g>
		<g id="shape69-11" transform="translate(140.846,-161.787)">
			<title>Sheet.69</title>
			<path d="M0 197.94 L0 222.37 L18.99 222.37" class="st1"/>
		</g>
		<g id="shape70-14" transform="translate(159.832,-161.787)">
			<title>Sheet.70</title>
			<path d="M0 222.37 L0 197.94 L18.99 197.94" class="st2"/>
		</g>
		<g id="shape71-17" transform="translate(178.818,-161.787)">
			<title>Sheet.71</title>
			<path d="M0 197.94 L0 222.37 L18.99 222.37" class="st2"/>
		</g>
		<g id="shape72-20" transform="translate(197.804,-161.787)">
			<title>Sheet.72</title>
			<path d="M0 222.37 L0 197.94 L18.99 197.94" class="st1"/>
		</g>
		<g id="shape73-23" transform="translate(216.79,-161.787)">
			<title>Sheet.73</title>
			<path d="M0 197.94 L0 222.37 L18.99 222.37" class="st1"/>
		</g>
		<g id="shape74-26" transform="translate(235.777,-161.787)">
			<title>Sheet.74</title>
			<path d="M0 222.37 L0 197.94 L18.99 197.94" class="st1"/>
		</g>
		<g id="shape75-29" transform="translate(254.763,-161.787)">
			<title>Sheet.75</title>
			<path d="M0 197.94 L0 222.37 L18.99 222.37" class="st1"/>
		</g>
		<g id="shape76-32" transform="translate(273.749,-161.787)">
			<title>Sheet.76</title>
			<path d="M0 222.37 L0 197.94 L18.99 197.94" class="st2"/>
		</g>
		<g id="shape77-35" transform="translate(292.735,-161.787)">
			<title>Sheet.77</title>
			<path d="M0 197.94 L0 222.37 L18.99 222.37" class="st2"/>
		</g>
		<g id="shape78-38" transform="translate(311.721,-161.787)">
			<title>Sheet.78</title>
			<path d="M0 222.37 L0 197.94 L18.99 197.94" class="st1"/>
		</g>
		<g id="shape79-41" transform="translate(330.708,-161.787)">
			<title>Sheet.79</title>
			<path d="M0 197.94 L0 222.37 L18.99 222.37" class="st1"/>
		</g>
		<g id="shape80-44" transform="translate(349.694,-161.787)">
			<title>Sheet.80</title>
			<path d="M0 222.37 L0 197.94 L18.99 197.94" class="st1"/>
		</g>
		<g id="shape81-47" transform="translate(368.68,-161.787)">
			<title>Sheet.81</title>
			<path d="M0 197.94 L0 222.37 L18.99 222.37" class="st1"/>
		</g>
		<g id="shape82-50" transform="translate(387.666,-161.787)">
			<title>Sheet.82</title>
			<path d="M0 222.37 L0 197.94 L18.99 197.94" class="st1"/>
		</g>
		<g id="shape83-53" transform="translate(406.652,-161.787)">
			<title>Sheet.83</title>
			<path d="M0 197.94 L0 222.37 L18.99 222.37" class="st1"/>
		</g>
		<g id="shape84-56" transform="translate(425.639,-161.787)">
			<title>Sheet.84</title>
			<path d="M0 222.37 L0 197.94 L18.99 197.94" class="st2"/>
		</g>
		<g id="shape85-59" transform="translate(444.625,-161.787)">
			<title>Sheet.85</title>
			<path d="M0 197.94 L0 222.37 L18.99 222.37" class="st2"/>
		</g>
		<g id="shape86-62" transform="translate(463.611,-161.787)">
			<title>Sheet.86</title>
			<path d="M0 222.37 L0 197.94 L18.99 197.94" class="st1"/>
		</g>
		<g id="shape87-65" transform="translate(482.597,-161.787)">
			<title>Sheet.87</title>
			<path d="M0 197.94 L0 222.37 L18.99 222.37" class="st1"/>
		</g>
		<g id="shape89-68" transform="translate(4.14508,-105.159)">
			<title>Sheet.89</title>
		</g>
		<g id="shape155-69" transform="translate(139.144,-138.377)">
			<title>Sheet.155</title>
			<desc>Propagation Segment</desc>
			<path d="M72.41 208.53 L0 208.53 L0 222.37 L72.41 222.37 L72.41 208.53" class="st3"/>
			<text x="5.6" y="217.35" class="st4">Propagation Segment</text>		</g>
		<g id="shape156-73" transform="translate(289.945,-135.021)">
			<title>Sheet.156</title>
			<desc>1st Phase Buffer</desc>
			<path d="M55.82 204.49 L0 204.49 L0 222.37 L55.82 222.37 L55.82 204.49" class="st3"/>
			<text x="4.52" y="215.33" class="st4">1st Phase Buffer</text>		</g>
		<g id="shape157-77" transform="translate(417.068,-135.021)">
			<title>Sheet.157</title>
			<desc>2nd Phase Buffer</desc>
			<path d="M58.25 204.49 L0 204.49 L0 222.37 L58.25 222.37 L58.25 204.49" class="st3"/>
			<text x="4.68" y="215.33" class="st4">2nd Phase Buffer</text>		</g>
		<g id="shape158-81" transform="translate(220.769,-107.207)">
			<title>Sheet.158</title>
			<desc>Ttseg1(up to 16TQ)</desc>
			<path d="M60.94 198.81 L0 198.81 L0 222.37 L60.94 222.37 L60.94 198.81" class="st3"/>
			<text x="5.58" y="212.49" class="st4">T<tspan dy="-0.287em" class="st5">tseg1</tspan><tspan dy="0.186em" class="st6">(up to 16TQ)</tspan></text>		</g>
		<g id="shape160-87" transform="translate(277.197,-92.501)">
			<title>Sheet.160</title>
			<desc>Bit Period</desc>
			<path d="M33.57 198.81 L0 198.81 L0 222.37 L33.57 222.37 L33.57 198.81" class="st3"/>
			<text x="3.07" y="212.49" class="st4">Bit Period</text>		</g>
		<g id="shape222-91" transform="translate(1.3628,-162.974)">
			<title>Sheet.222</title>
			<desc>Time Quanta(TTQ) =XTAL1/Prescaler</desc>
			<path d="M82.52 199.13 L0 199.13 L0 222.37 L82.52 222.37 L82.52 199.13" class="st3"/>
			<text x="6.53" y="208.28" class="st7">Time Quanta(TTQ) <tspan x="7.77" dy="1.2em" class="st6">=XTAL1/Prescaler</tspan></text>		</g>
		<g id="shape224-96" transform="translate(306.367,66.0895) rotate(90)">
			<title>Sheet.224</title>
			<path d="M0 222.37 L61.17 222.37" class="st8"/>
		</g>
		<g id="shape225-99" transform="translate(344.411,66.0895) rotate(90)">
			<title>Sheet.225</title>
			<path d="M0 222.37 L31.18 222.37" class="st8"/>
		</g>
		<g id="shape226-102" transform="translate(382.202,36.1563) rotate(90)">
			<title>Sheet.226</title>
			<path d="M0 222.37 L24.43 222.37" class="st8"/>
		</g>
		<g id="shape227-105" transform="translate(496.119,36.1563) rotate(90)">
			<title>Sheet.227</title>
			<path d="M0 222.37 L24.43 222.37" class="st8"/>
		</g>
		<g id="shape228-108" transform="translate(648.009,36.1563) rotate(90)">
			<title>Sheet.228</title>
			<path d="M0 222.37 L24.43 222.37" class="st8"/>
		</g>
		<g id="shape229-111" transform="translate(458.17,66.0895) rotate(90)">
			<title>Sheet.229</title>
			<path d="M0 222.37 L21.26 222.37" class="st8"/>
		</g>
		<g id="shape230-114" transform="translate(610.036,66.0895) rotate(90)">
			<title>Sheet.230</title>
			<path d="M0 222.37 L37.67 222.37" class="st8"/>
		</g>
		<g id="shape231-117" transform="translate(723.953,63.2548) rotate(90)">
			<title>Sheet.231</title>
			<path d="M0 222.37 L63.26 222.37" class="st8"/>
		</g>
		<g id="shape232-120" transform="translate(79.5213,-139.496)">
			<title>Sheet.232</title>
			<desc>Sync.Seg</desc>
			<rect x="0" y="208.526" width="43.3" height="13.8444" class="st9"/>
			<text x="4.53" y="217.85" class="st10">Sync.Seg</text>		</g>
		<g id="shape233-123" transform="translate(122.821,-139.496)">
			<title>Sheet.233</title>
			<path d="M3.47 222.37 L3.83 222.37 L109.15 222.37" class="st11"/>
		</g>
		<g id="shape234-132" transform="translate(235.8,-139.496)">
			<title>Sheet.234</title>
			<path d="M3.47 222.37 L3.83 222.37 L148.03 222.37" class="st11"/>
		</g>
		<g id="shape235-139" transform="translate(387.666,-139.496)">
			<title>Sheet.235</title>
			<path d="M3.47 222.37 L3.83 222.37 L110.08 222.37" class="st11"/>
		</g>
		<g id="shape236-146" transform="translate(83.997,-127.934)">
			<title>Sheet.236</title>
			<path d="M3.47 222.37 L3.83 222.37 L34.21 222.37" class="st11"/>
		</g>
		<g id="shape237-153" transform="translate(387.666,-127.934)">
			<title>Sheet.237</title>
			<path d="M3.47 222.37 L3.83 222.37 L110.08 222.37" class="st11"/>
		</g>
		<g id="shape238-160" transform="translate(122.041,-127.934)">
			<title>Sheet.238</title>
			<path d="M3.47 222.37 L3.83 222.37 L261.79 222.37" class="st11"/>
		</g>
		<g id="shape239-167" transform="translate(241.764,-120.847)">
			<title>Sheet.239</title>
			<desc>TSEG1</desc>
			<path d="M33.57 198.81 L0 198.81 L0 222.37 L33.57 222.37 L33.57 198.81" class="st3"/>
			<text x="6.41" y="212.49" class="st4">TSEG1</text>		</g>
		<g id="shape240-171" transform="translate(85.8586,-105.159)">
			<title>Sheet.240</title>
			<desc>Tsyncseg (1TQ)</desc>
			<path d="M33.57 198.81 L0 198.81 L0 222.37 L33.57 222.37 L33.57 198.81" class="st3"/>
			<text x="7.31" y="208.69" class="st4">T<tspan dy="-0.287em" class="st5">syncseg </tspan><tspan x="8.53" dy="1.386em"
						class="st6">(1TQ)</tspan></text>		</g>
		<g id="shape241-177" transform="translate(415.651,-107.649)">
			<title>Sheet.241</title>
			<desc>Ttseg2(up to 8TQ)</desc>
			<path d="M60.94 198.81 L0 198.81 L0 222.37 L60.94 222.37 L60.94 198.81" class="st3"/>
			<text x="7.34" y="212.49" class="st4">T<tspan dy="-0.287em" class="st5">tseg2</tspan><tspan dy="0.186em" class="st6">(up to 8TQ)</tspan></text>		</g>
		<g id="shape242-183" transform="translate(83.997,-99.5876)">
			<title>Sheet.242</title>
			<path d="M3.47 222.37 L3.83 222.37 L413.75 222.37" class="st11"/>
		</g>
		<g id="shape244-190" transform="translate(127.324,34.9084) rotate(-90)">
			<title>Sheet.244</title>
			<path d="M3.47 222.37 L3.83 222.37 L19.84 222.37" class="st13"/>
		</g>
		<g id="shape245-195" transform="translate(165.296,34.9084) rotate(-90)">
			<title>Sheet.245</title>
			<path d="M3.47 222.37 L3.83 222.37 L17.01 222.37" class="st14"/>
		</g>
		<g id="shape246-200" transform="translate(89.3514,34.554) rotate(-90)">
			<title>Sheet.246</title>
			<path d="M3.47 222.37 L3.83 222.37 L19.49 222.37" class="st13"/>
		</g>
		<g id="shape247-205" transform="translate(319.91,-200.751)">
			<title>Sheet.247</title>
			<desc>Sample Point(s)</desc>
			<path d="M58.25 198.81 L0 198.81 L0 222.37 L58.25 222.37 L58.25 198.81" class="st3"/>
			<text x="6.62" y="212.49" class="st4">Sample Point(s)</text>		</g>
		<g id="shape248-209" transform="translate(76.8947,-37.0679)">
			<title>Sheet.248</title>
			<desc>TQ = 2*tdk*(32*BRP.5+16*BRP.4+8*BRP.3+4*BRP.2+2*BRP.1+BRT.0+1...</desc>
			<rect x="0" y="202.37" width="413.89" height="20" class="st9"/>
			<text x="4" y="187.17" class="st15">TQ = 2*t<tspan dy="-0.287em" class="st16">dk</tspan><tspan dy="0.186em" class="st6">*(32*BRP.5+16*BRP.4+8*BRP.3+4*BRP.2+2*BRP.1+BRT.0+1)  </tspan><tspan
						x="4" dy="1.2em" class="st6">Where t</tspan><tspan dy="-0.287em" class="st16">dk </tspan><tspan
						dy="0.186em" class="st6">= time period of the XTAL1 frequency = 1/f</tspan><tspan dy="-0.287em"
						class="st16">xtal1 </tspan><tspan x="4" dy="1.386em" class="st6">t</tspan><tspan dy="-0.287em" class="st16">syncseg</tspan><tspan
						dy="0.186em" class="st6"> </tspan>= 1*TQ <tspan x="4" dy="1.2em" class="st6">t</tspan><tspan dy="-0.287em"
						class="st16">tseg1</tspan><tspan dy="0.186em" class="st6"> </tspan>= TQ*(8*TSEG1.3+4*TSEG1.2+2*TSEG1.1+TSEG1.0+1) <tspan
						x="4" dy="1.2em" class="st6">t</tspan><tspan dy="-0.287em" class="st16">tseg2</tspan><tspan dy="0.186em"
						class="st6"> </tspan>= TQ*(4*TSEG2.2+2*TSEG2.1+TSEG2.0+1)</text>		</g>
		<g id="shape252-227" transform="translate(0.375,-0.375)">
			<title>Sheet.252</title>
			<rect x="0" y="1.26763" width="515.906" height="221.102" class="st17"/>
		</g>
	</g>
</svg>
