<?xml version="1.0" encoding="UTF-8" standalone="no"?>
<!DOCTYPE svg PUBLIC "-//W3C//DTD SVG 1.1//EN" "http://www.w3.org/Graphics/SVG/1.1/DTD/svg11.dtd">
<!-- Generated by Microsoft Visio, SVG Export extended_frame.svg Page-1 -->
<svg xmlns="http://www.w3.org/2000/svg" xmlns:xlink="http://www.w3.org/1999/xlink" xmlns:ev="http://www.w3.org/2001/xml-events"
		width="7.00648in" height="7.20333in" viewBox="0 0 504.467 518.64" xml:space="preserve" color-interpolation-filters="sRGB"
		class="st12">
	<style type="text/css">
	<![CDATA[
		.st1 {fill:#ffffff;stroke:none;stroke-linecap:round;stroke-linejoin:round;stroke-width:0.75}
		.st2 {fill:#000000;font-family:微软雅黑;font-size:0.75em}
		.st3 {fill:#000000;font-family:微软雅黑;font-size:1.00001em;font-weight:bold}
		.st4 {font-size:0.749994em;font-weight:normal}
		.st5 {font-family:Microsoft Sans Serif;font-size:0.749994em;font-weight:normal}
		.st6 {font-family:Calibri;font-size:1em}
		.st7 {fill:#ffffff;stroke:#000000;stroke-linecap:round;stroke-linejoin:round;stroke-width:0.75}
		.st8 {fill:#000000;font-family:Calibri;font-size:0.75em}
		.st9 {font-family:Microsoft Sans Serif;font-size:1em}
		.st10 {fill:#000000;font-family:Microsoft Sans Serif;font-size:0.75em}
		.st11 {font-family:微软雅黑;font-size:1em}
		.st12 {fill:none;fill-rule:evenodd;font-size:12px;overflow:visible;stroke-linecap:square;stroke-miterlimit:3}
	]]>
	</style>

	<g>
		<title>Page-1</title>
		<g id="shape27-1" transform="translate(18.375,-372.706)">
			<title>Sheet.27</title>
			<desc>过滤器</desc>
			<rect x="0" y="490.293" width="467.717" height="28.3465" class="st1"/>
			<text x="4" y="511.9" class="st2">过滤器</text>		</g>
		<g id="shape62-4" transform="translate(18.375,-245.147)">
			<title>Sheet.62</title>
			<desc>扩展帧格式双过滤模式 接收buffer</desc>
			<rect x="0" y="476.12" width="467.717" height="42.5197" class="st1"/>
			<text x="4" y="489.24" class="st3">扩展帧格式，双过滤模式  <tspan x="4" dy="2.518em" class="st4">接收</tspan><tspan class="st5">buffer</tspan></text>		</g>
		<g id="shape54-9" transform="translate(18.375,-160.107)">
			<title>Sheet.54</title>
			<desc>过滤器1:</desc>
			<rect x="0" y="490.293" width="467.717" height="28.3465" class="st1"/>
			<text x="4" y="511.91" class="st2">过滤器<tspan class="st6">1:</tspan></text>		</g>
		<g id="shape69-13" transform="translate(18.375,-75.0679)">
			<title>Sheet.69</title>
			<desc>过滤器2:</desc>
			<rect x="0" y="490.293" width="467.717" height="28.3465" class="st1"/>
			<text x="4" y="511.91" class="st2">过滤器<tspan class="st6">2:</tspan></text>		</g>
		<g id="shape16-17" transform="translate(18.375,-457.745)">
			<title>Sheet.16</title>
			<desc>扩展帧格式单过滤模式 接收buffer</desc>
			<rect x="0" y="476.12" width="467.717" height="42.5197" class="st1"/>
			<text x="4" y="489.24" class="st3">扩展帧格式，单过滤模式  <tspan x="4" dy="2.518em" class="st4">接收</tspan><tspan class="st5">buffer</tspan></text>		</g>
		<g id="shape3-22" transform="translate(18.375,-429.399)">
			<title>Sheet.3</title>
			<desc>地址0x44</desc>
			<rect x="0" y="490.293" width="70.8661" height="28.3465" class="st7"/>
			<text x="4" y="507.2" class="st2">地址<tspan class="st6">0x44</tspan></text>		</g>
		<g id="shape4-26" transform="translate(18.375,-401.052)">
			<title>Sheet.4</title>
			<desc>ID28...ID21</desc>
			<rect x="0" y="490.293" width="70.8661" height="28.3465" class="st7"/>
			<text x="4" y="507.17" class="st8">ID28...ID21</text>		</g>
		<g id="shape6-29" transform="translate(89.2411,-429.399)">
			<title>Sheet.6</title>
			<desc>0x48</desc>
			<rect x="0" y="490.293" width="93.5433" height="28.3465" class="st7"/>
			<text x="4" y="507.17" class="st8">0x48</text>		</g>
		<g id="shape8-32" transform="translate(276.328,-429.399)">
			<title>Sheet.8</title>
			<desc>0x50</desc>
			<rect x="0" y="490.293" width="209.764" height="28.3465" class="st7"/>
			<text x="4" y="507.17" class="st8">0x50</text>		</g>
		<g id="shape9-35" transform="translate(89.2411,-401.052)">
			<title>Sheet.9</title>
			<desc>ID20...ID13</desc>
			<rect x="0" y="490.293" width="93.5433" height="28.3465" class="st7"/>
			<text x="4" y="507.24" class="st8">ID20...ID1<tspan class="st9">3</tspan></text>		</g>
		<g id="shape13-39" transform="translate(398.218,-401.052)">
			<title>Sheet.13</title>
			<desc>XX (不匹配)</desc>
			<rect x="0" y="490.293" width="87.874" height="28.3465" class="st7"/>
			<text x="4" y="507.24" class="st10">XX <tspan class="st6">(</tspan><tspan class="st11">不匹配</tspan><tspan class="st6">)</tspan></text>		</g>
		<g id="shape17-45" transform="translate(18.375,-344.359)">
			<title>Sheet.17</title>
			<desc>ACR0[7:0]</desc>
			<rect x="0" y="490.293" width="70.8661" height="28.3465" class="st7"/>
			<text x="4" y="507.24" class="st10">ACR0<tspan class="st6">[7:0]</tspan></text>		</g>
		<g id="shape18-49" transform="translate(18.375,-316.013)">
			<title>Sheet.18</title>
			<desc>AMR0[7:0]</desc>
			<rect x="0" y="490.293" width="70.8661" height="28.3465" class="st7"/>
			<text x="4" y="507.24" class="st10">A<tspan class="st6">M</tspan>R0<tspan class="st6">[7:0]</tspan></text>		</g>
		<g id="shape20-54" transform="translate(276.328,-344.359)">
			<title>Sheet.20</title>
			<desc>ACR3[7:2]</desc>
			<rect x="0" y="490.293" width="121.89" height="28.3464" class="st7"/>
			<text x="4" y="507.17" class="st8">ACR3[7:2]</text>		</g>
		<g id="shape21-57" transform="translate(398.218,-344.359)">
			<title>Sheet.21</title>
			<desc>ACR3[1:0] 不匹配</desc>
			<rect x="0" y="490.293" width="87.874" height="28.3465" class="st7"/>
			<text x="4" y="507.24" class="st8">ACR3[1:0]<tspan class="st9"> </tspan><tspan class="st11">不匹配</tspan></text>		</g>
		<g id="shape36-62" transform="translate(18.375,-216.8)">
			<title>Sheet.36</title>
			<desc>地址0x44</desc>
			<rect x="0" y="490.293" width="70.8661" height="28.3465" class="st7"/>
			<text x="4" y="507.2" class="st2">地址<tspan class="st6">0x44</tspan></text>		</g>
		<g id="shape37-66" transform="translate(18.375,-188.454)">
			<title>Sheet.37</title>
			<desc>ID28...ID21</desc>
			<rect x="0" y="490.293" width="70.8661" height="28.3465" class="st7"/>
			<text x="4" y="507.17" class="st8">ID28...ID21</text>		</g>
		<g id="shape47-69" transform="translate(18.375,-131.761)">
			<title>Sheet.47</title>
			<desc>ACR0[7:0]</desc>
			<rect x="0" y="490.293" width="70.8661" height="28.3465" class="st7"/>
			<text x="4" y="507.24" class="st10">ACR0<tspan class="st6">[7:0]</tspan></text>		</g>
		<g id="shape48-73" transform="translate(18.375,-103.414)">
			<title>Sheet.48</title>
			<desc>AMR0[7:0]</desc>
			<rect x="0" y="490.293" width="70.8661" height="28.3465" class="st7"/>
			<text x="4" y="507.24" class="st10">A<tspan class="st6">M</tspan>R0<tspan class="st6">[7:0]</tspan></text>		</g>
		<g id="shape49-78" transform="translate(89.2411,-131.761)">
			<title>Sheet.49</title>
			<desc>ACR1[7:0]</desc>
			<rect x="0" y="490.293" width="70.8661" height="28.3465" class="st7"/>
			<text x="4" y="507.24" class="st8">ACR1[7:<tspan class="st9">0</tspan>]</text>		</g>
		<g id="shape56-82" transform="translate(89.2411,-103.414)">
			<title>Sheet.56</title>
			<desc>AMR1[7:0]</desc>
			<rect x="0" y="490.293" width="70.8661" height="28.3465" class="st7"/>
			<text x="4" y="507.24" class="st8">AMR1[7:<tspan class="st9">0</tspan>]</text>		</g>
		<g id="shape70-86" transform="translate(18.375,-46.7215)">
			<title>Sheet.70</title>
			<desc>ACR2[7:0]</desc>
			<rect x="0" y="490.293" width="70.8661" height="28.3465" class="st7"/>
			<text x="4" y="507.24" class="st10">ACR<tspan class="st6">2[7:0]</tspan></text>		</g>
		<g id="shape71-90" transform="translate(89.2411,-46.7215)">
			<title>Sheet.71</title>
			<desc>ACR3[7:0]</desc>
			<rect x="0" y="490.293" width="70.8661" height="28.3465" class="st7"/>
			<text x="4" y="507.24" class="st8">ACR3[7:<tspan class="st9">0</tspan>]</text>		</g>
		<g id="shape72-94" transform="translate(18.375,-18.375)">
			<title>Sheet.72</title>
			<desc>AMR2[7:0]</desc>
			<rect x="0" y="490.293" width="70.8661" height="28.3465" class="st7"/>
			<text x="4" y="507.24" class="st10">A<tspan class="st6">M</tspan>R<tspan class="st6">2[7:0]</tspan></text>		</g>
		<g id="shape73-99" transform="translate(89.2411,-18.375)">
			<title>Sheet.73</title>
			<desc>AMR3[7:0]</desc>
			<rect x="0" y="490.293" width="70.8661" height="28.3465" class="st7"/>
			<text x="4" y="507.24" class="st8">AMR3[7:<tspan class="st9">0</tspan>]</text>		</g>
		<g id="shape75-103" transform="translate(182.784,-429.399)">
			<title>Sheet.75</title>
			<desc>0x4C</desc>
			<rect x="0" y="490.293" width="93.5433" height="28.3465" class="st7"/>
			<text x="4" y="507.17" class="st8">0x4C</text>		</g>
		<g id="shape76-106" transform="translate(182.784,-401.052)">
			<title>Sheet.76</title>
			<desc>ID12...ID5</desc>
			<rect x="0" y="490.293" width="93.5433" height="28.3465" class="st7"/>
			<text x="4" y="507.24" class="st8">ID<tspan class="st9">12</tspan>...ID<tspan class="st9">5</tspan></text>		</g>
		<g id="shape77-111" transform="translate(347.194,-401.052)">
			<title>Sheet.77</title>
			<desc>RTR</desc>
			<rect x="0" y="490.293" width="51.0236" height="28.3465" class="st7"/>
			<text x="4" y="507.17" class="st8">RTR</text>		</g>
		<g id="shape79-114" transform="translate(276.328,-401.052)">
			<title>Sheet.79</title>
			<desc>ID4...ID0</desc>
			<rect x="0" y="490.293" width="70.8661" height="28.3465" class="st7"/>
			<text x="4" y="507.24" class="st8">ID<tspan class="st9">4</tspan>...ID<tspan class="st9">0</tspan></text>		</g>
		<g id="shape80-119" transform="translate(89.2411,-344.359)">
			<title>Sheet.80</title>
			<desc>ACR1[7:0]</desc>
			<rect x="0" y="490.293" width="93.5433" height="28.3465" class="st7"/>
			<text x="4" y="507.17" class="st8">ACR1[7:0]</text>		</g>
		<g id="shape81-122" transform="translate(89.2411,-316.013)">
			<title>Sheet.81</title>
			<desc>AMR1[7:0]</desc>
			<rect x="0" y="490.293" width="93.5433" height="28.3465" class="st7"/>
			<text x="4" y="507.17" class="st8">AMR1[7:0]</text>		</g>
		<g id="shape82-125" transform="translate(182.784,-344.359)">
			<title>Sheet.82</title>
			<desc>ACR2[7:0]</desc>
			<rect x="0" y="490.293" width="93.5433" height="28.3465" class="st7"/>
			<text x="4" y="507.17" class="st8">ACR2[7:0]</text>		</g>
		<g id="shape83-128" transform="translate(182.784,-316.013)">
			<title>Sheet.83</title>
			<desc>AMR2[7:0]</desc>
			<rect x="0" y="490.293" width="93.5433" height="28.3465" class="st7"/>
			<text x="4" y="507.17" class="st8">AMR2[7:0]</text>		</g>
		<g id="shape84-131" transform="translate(398.218,-316.013)">
			<title>Sheet.84</title>
			<desc>AMR3[1:0] 不匹配</desc>
			<rect x="0" y="490.293" width="87.874" height="28.3465" class="st7"/>
			<text x="4" y="507.24" class="st8">A<tspan class="st9">M</tspan>R3[1:0]<tspan class="st9"> </tspan><tspan class="st11">不匹配</tspan></text>		</g>
		<g id="shape85-137" transform="translate(276.328,-316.013)">
			<title>Sheet.85</title>
			<desc>AMR3[7:2]</desc>
			<rect x="0" y="490.293" width="121.89" height="28.3464" class="st7"/>
			<text x="4" y="507.24" class="st8">A<tspan class="st9">M</tspan>R3[7:2]</text>		</g>
		<g id="shape86-141" transform="translate(89.2411,-216.8)">
			<title>Sheet.86</title>
			<desc>0x48</desc>
			<rect x="0" y="490.293" width="70.8661" height="28.3465" class="st7"/>
			<text x="4" y="507.17" class="st8">0x48</text>		</g>
		<g id="shape87-144" transform="translate(160.107,-216.8)">
			<title>Sheet.87</title>
			<desc>0x4C</desc>
			<rect x="0" y="490.293" width="116.22" height="28.3465" class="st7"/>
			<text x="4" y="507.17" class="st8">0x4C</text>		</g>
		<g id="shape88-147" transform="translate(276.328,-216.8)">
			<title>Sheet.88</title>
			<desc>0x50</desc>
			<rect x="0" y="490.293" width="209.764" height="28.3465" class="st7"/>
			<text x="4" y="507.17" class="st8">0x50</text>		</g>
		<g id="shape89-150" transform="translate(89.2411,-188.454)">
			<title>Sheet.89</title>
			<desc>ID20...ID13</desc>
			<rect x="0" y="490.293" width="70.8661" height="28.3465" class="st7"/>
			<text x="4" y="507.24" class="st8">ID20...ID1<tspan class="st9">3</tspan></text>		</g>
		<g id="shape90-154" transform="translate(160.107,-188.454)">
			<title>Sheet.90</title>
			<desc>ID12...ID5 (不匹配)</desc>
			<rect x="0" y="490.293" width="116.22" height="28.3465" class="st7"/>
			<text x="4" y="507.24" class="st8">ID<tspan class="st9">12</tspan>...ID<tspan class="st9">5 </tspan>(<tspan
						class="st11">不匹配</tspan>)</text>		</g>
		<g id="shape91-160" transform="translate(276.328,-188.454)">
			<title>Sheet.91</title>
			<desc>ID4...ID0 (不匹配)</desc>
			<rect x="0" y="490.293" width="81.3544" height="28.3465" class="st7"/>
			<text x="4" y="507.24" class="st8">ID<tspan class="st9">4</tspan>...ID<tspan class="st9">0 </tspan>(<tspan class="st11">不匹配</tspan>)</text>		</g>
		<g id="shape93-166" transform="translate(357.682,-188.454)">
			<title>Sheet.93</title>
			<desc>RTR (不匹配)</desc>
			<rect x="0" y="490.293" width="63.2126" height="28.3465" class="st7"/>
			<text x="4" y="507.2" class="st8">RTR (<tspan class="st11">不匹配</tspan>)</text>		</g>
		<g id="shape94-170" transform="translate(420.895,-188.454)">
			<title>Sheet.94</title>
			<desc>XX (不匹配)</desc>
			<rect x="0" y="490.293" width="65.1968" height="28.3465" class="st7"/>
			<text x="4" y="507.24" class="st10">XX <tspan class="st6">(</tspan><tspan class="st11">不匹配</tspan><tspan class="st6">)</tspan></text>		</g>
	</g>
</svg>
