<?xml version="1.0" encoding="UTF-8" standalone="no"?>
<!DOCTYPE svg PUBLIC "-//W3C//DTD SVG 1.1//EN" "http://www.w3.org/Graphics/SVG/1.1/DTD/svg11.dtd">
<!-- Generated by Microsoft Visio, SVG Export standard_frame.svg Page-1 -->
<svg xmlns="http://www.w3.org/2000/svg" xmlns:xlink="http://www.w3.org/1999/xlink" xmlns:ev="http://www.w3.org/2001/xml-events"
		width="7.00648in" height="7.20333in" viewBox="0 0 504.467 518.64" xml:space="preserve" color-interpolation-filters="sRGB"
		class="st13">
	<style type="text/css">
	<![CDATA[
		.st1 {fill:#ffffff;stroke:none;stroke-linecap:round;stroke-linejoin:round;stroke-width:0.75}
		.st2 {fill:#000000;font-family:微软雅黑;font-size:0.75em}
		.st3 {fill:#000000;font-family:微软雅黑;font-size:0.75em;font-style:italic}
		.st4 {font-family:Calibri;font-size:1em}
		.st5 {fill:#000000;font-family:微软雅黑;font-size:1.00001em;font-weight:bold}
		.st6 {font-size:0.749994em;font-weight:normal}
		.st7 {font-family:Microsoft Sans Serif;font-size:0.749994em;font-weight:normal}
		.st8 {fill:#ffffff;stroke:#000000;stroke-linecap:round;stroke-linejoin:round;stroke-width:0.75}
		.st9 {fill:#000000;font-family:Calibri;font-size:0.75em}
		.st10 {font-family:Microsoft Sans Serif;font-size:1em}
		.st11 {font-family:微软雅黑;font-size:1em}
		.st12 {fill:#000000;font-family:Microsoft Sans Serif;font-size:0.75em}
		.st13 {fill:none;fill-rule:evenodd;font-size:12px;overflow:visible;stroke-linecap:square;stroke-miterlimit:3}
	]]>
	</style>

	<g>
		<title>Page-1</title>
		<g id="shape27-1" transform="translate(18.375,-372.706)">
			<title>Sheet.27</title>
			<desc>过滤器</desc>
			<rect x="0" y="490.293" width="467.717" height="28.3465" class="st1"/>
			<text x="4" y="511.9" class="st2">过滤器</text>		</g>
		<g id="shape34-4" transform="translate(18.375,-294.753)">
			<title>Sheet.34</title>
			<desc>注如果不需要数据匹配AMR2, AMR3设置0xFF</desc>
			<rect x="0" y="497.38" width="467.717" height="21.2598" class="st1"/>
			<text x="4" y="510.74" class="st3">注：如果不需要数据匹配，<tspan class="st4">AMR2, AMR3</tspan>设置<tspan class="st4">0xFF</tspan></text>		</g>
		<g id="shape62-9" transform="translate(18.375,-245.147)">
			<title>Sheet.62</title>
			<desc>标准帧格式双过滤模式 接收buffer</desc>
			<rect x="0" y="476.12" width="467.717" height="42.5197" class="st1"/>
			<text x="4" y="489.24" class="st5">标准帧格式，双过滤模式  <tspan x="4" dy="2.518em" class="st6">接收</tspan><tspan class="st7">buffer</tspan></text>		</g>
		<g id="shape54-14" transform="translate(18.375,-160.107)">
			<title>Sheet.54</title>
			<desc>过滤器1:</desc>
			<rect x="0" y="490.293" width="467.717" height="28.3465" class="st1"/>
			<text x="4" y="511.91" class="st2">过滤器<tspan class="st4">1:</tspan></text>		</g>
		<g id="shape69-18" transform="translate(18.375,-75.0679)">
			<title>Sheet.69</title>
			<desc>过滤器2:</desc>
			<rect x="0" y="490.293" width="467.717" height="28.3465" class="st1"/>
			<text x="4" y="511.91" class="st2">过滤器<tspan class="st4">2:</tspan></text>		</g>
		<g id="shape16-22" transform="translate(18.375,-457.745)">
			<title>Sheet.16</title>
			<desc>标准帧格式单过滤模式 接收buffer</desc>
			<rect x="0" y="476.12" width="467.717" height="42.5197" class="st1"/>
			<text x="4" y="489.24" class="st5">标准帧格式，单过滤模式  <tspan x="4" dy="2.518em" class="st6">接收</tspan><tspan class="st7">buffer</tspan></text>		</g>
		<g id="shape3-27" transform="translate(18.375,-429.399)">
			<title>Sheet.3</title>
			<desc>地址0x44</desc>
			<rect x="0" y="490.293" width="70.8661" height="28.3465" class="st8"/>
			<text x="4" y="507.2" class="st2">地址<tspan class="st4">0x44</tspan></text>		</g>
		<g id="shape4-31" transform="translate(18.375,-401.052)">
			<title>Sheet.4</title>
			<desc>ID28...ID21</desc>
			<rect x="0" y="490.293" width="70.8661" height="28.3465" class="st8"/>
			<text x="4" y="507.17" class="st9">ID28...ID21</text>		</g>
		<g id="shape6-34" transform="translate(89.2411,-429.399)">
			<title>Sheet.6</title>
			<desc>0x48</desc>
			<rect x="0" y="490.293" width="255.118" height="28.3465" class="st8"/>
			<text x="4" y="507.17" class="st9">0x48</text>		</g>
		<g id="shape7-37" transform="translate(344.359,-429.399)">
			<title>Sheet.7</title>
			<desc>0x4C</desc>
			<rect x="0" y="490.293" width="70.8661" height="28.3465" class="st8"/>
			<text x="4" y="507.24" class="st9">0x4<tspan class="st10">C</tspan></text>		</g>
		<g id="shape8-41" transform="translate(415.225,-429.399)">
			<title>Sheet.8</title>
			<desc>0x50</desc>
			<rect x="0" y="490.293" width="70.8661" height="28.3465" class="st8"/>
			<text x="4" y="507.17" class="st9">0x50</text>		</g>
		<g id="shape9-44" transform="translate(89.2411,-401.052)">
			<title>Sheet.9</title>
			<desc>ID20...ID18</desc>
			<rect x="0" y="490.293" width="70.8661" height="28.3465" class="st8"/>
			<text x="4" y="507.17" class="st9">ID20...ID18</text>		</g>
		<g id="shape10-47" transform="translate(160.107,-401.052)">
			<title>Sheet.10</title>
			<desc>RTR</desc>
			<rect x="0" y="490.293" width="56.6929" height="28.3465" class="st8"/>
			<text x="21.27" y="507.17" class="st9">RTR</text>		</g>
		<g id="shape11-50" transform="translate(216.8,-401.052)">
			<title>Sheet.11</title>
			<desc>XXXX (不匹配)</desc>
			<rect x="0" y="490.293" width="127.559" height="28.3465" class="st8"/>
			<text x="4" y="507.2" class="st9">XXXX (<tspan class="st11">不匹配</tspan>)</text>		</g>
		<g id="shape12-54" transform="translate(344.359,-401.052)">
			<title>Sheet.12</title>
			<desc>数据字节1</desc>
			<rect x="0" y="490.293" width="70.8661" height="28.3465" class="st8"/>
			<text x="4" y="507.2" class="st2">数据字节<tspan class="st10">1</tspan></text>		</g>
		<g id="shape13-58" transform="translate(415.225,-401.052)">
			<title>Sheet.13</title>
			<desc>数据字节2</desc>
			<rect x="0" y="490.293" width="70.8661" height="28.3465" class="st8"/>
			<text x="4" y="507.24" class="st2">数据字节<tspan class="st10">2</tspan></text>		</g>
		<g id="shape17-62" transform="translate(18.375,-344.359)">
			<title>Sheet.17</title>
			<desc>ACR0[7:0]</desc>
			<rect x="0" y="490.293" width="70.8661" height="28.3465" class="st8"/>
			<text x="4" y="507.24" class="st12">ACR0<tspan class="st4">[7:0]</tspan></text>		</g>
		<g id="shape18-66" transform="translate(18.375,-316.013)">
			<title>Sheet.18</title>
			<desc>AMR0[7:0]</desc>
			<rect x="0" y="490.293" width="70.8661" height="28.3465" class="st8"/>
			<text x="4" y="507.24" class="st12">A<tspan class="st4">M</tspan>R0<tspan class="st4">[7:0]</tspan></text>		</g>
		<g id="shape19-71" transform="translate(89.2411,-344.359)">
			<title>Sheet.19</title>
			<desc>ACR1[7:4]</desc>
			<rect x="0" y="490.293" width="127.559" height="28.3465" class="st8"/>
			<text x="4" y="507.17" class="st9">ACR1[7:4]</text>		</g>
		<g id="shape20-74" transform="translate(344.359,-344.359)">
			<title>Sheet.20</title>
			<desc>ACR2[7:0]</desc>
			<rect x="0" y="490.293" width="70.8661" height="28.3465" class="st8"/>
			<text x="4" y="507.17" class="st9">ACR2[7:0]</text>		</g>
		<g id="shape21-77" transform="translate(415.225,-344.359)">
			<title>Sheet.21</title>
			<desc>ACR3[7:0]</desc>
			<rect x="0" y="490.293" width="70.8661" height="28.3465" class="st8"/>
			<text x="4" y="507.17" class="st9">ACR3[7:0]</text>		</g>
		<g id="shape25-80" transform="translate(344.359,-316.013)">
			<title>Sheet.25</title>
			<desc>AMR2[7:0]</desc>
			<rect x="0" y="490.293" width="70.8661" height="28.3465" class="st8"/>
			<text x="4" y="507.24" class="st9">AMR2[7:0]</text>		</g>
		<g id="shape26-83" transform="translate(415.225,-316.013)">
			<title>Sheet.26</title>
			<desc>AMR3[7:0]</desc>
			<rect x="0" y="490.293" width="70.8661" height="28.3465" class="st8"/>
			<text x="4" y="507.17" class="st9">AMR3[7:0]</text>		</g>
		<g id="shape28-86" transform="translate(216.8,-344.359)">
			<title>Sheet.28</title>
			<desc>(ACR1[3:0] 不使用)</desc>
			<rect x="0" y="490.293" width="127.559" height="28.3465" class="st8"/>
			<text x="4" y="507.2" class="st9">(ACR1[3:0] <tspan class="st11">不使用</tspan>)</text>		</g>
		<g id="shape30-90" transform="translate(89.2411,-316.013)">
			<title>Sheet.30</title>
			<desc>AMR1[7:4]</desc>
			<rect x="0" y="490.293" width="127.559" height="28.3465" class="st8"/>
			<text x="4" y="507.17" class="st9">AMR1[7:4]</text>		</g>
		<g id="shape31-93" transform="translate(216.8,-316.013)">
			<title>Sheet.31</title>
			<desc>(AMR1[3:0] 不使用)</desc>
			<rect x="0" y="490.293" width="127.559" height="28.3465" class="st8"/>
			<text x="4" y="507.2" class="st9">(AMR1[3:0] <tspan class="st11">不使用</tspan>)</text>		</g>
		<g id="shape36-97" transform="translate(18.375,-216.8)">
			<title>Sheet.36</title>
			<desc>地址0x44</desc>
			<rect x="0" y="490.293" width="70.8661" height="28.3465" class="st8"/>
			<text x="4" y="507.2" class="st2">地址<tspan class="st4">0x44</tspan></text>		</g>
		<g id="shape37-101" transform="translate(18.375,-188.454)">
			<title>Sheet.37</title>
			<desc>ID28...ID21</desc>
			<rect x="0" y="490.293" width="70.8661" height="28.3465" class="st8"/>
			<text x="4" y="507.17" class="st9">ID28...ID21</text>		</g>
		<g id="shape38-104" transform="translate(89.2411,-216.8)">
			<title>Sheet.38</title>
			<desc>0x48</desc>
			<rect x="0" y="490.293" width="162.992" height="28.3465" class="st8"/>
			<text x="4" y="507.17" class="st9">0x48</text>		</g>
		<g id="shape39-107" transform="translate(252.233,-216.8)">
			<title>Sheet.39</title>
			<desc>0x4C</desc>
			<rect x="0" y="490.293" width="162.992" height="28.3465" class="st8"/>
			<text x="4" y="507.24" class="st9">0x4C</text>		</g>
		<g id="shape40-110" transform="translate(415.225,-216.8)">
			<title>Sheet.40</title>
			<desc>0x50</desc>
			<rect x="0" y="490.293" width="70.8661" height="28.3465" class="st8"/>
			<text x="4" y="507.17" class="st9">0x50</text>		</g>
		<g id="shape41-113" transform="translate(89.2411,-188.454)">
			<title>Sheet.41</title>
			<desc>ID20...ID18</desc>
			<rect x="0" y="490.293" width="70.8661" height="28.3465" class="st8"/>
			<text x="4" y="507.17" class="st9">ID20...ID18</text>		</g>
		<g id="shape42-116" transform="translate(160.107,-188.454)">
			<title>Sheet.42</title>
			<desc>RTR</desc>
			<rect x="0" y="490.293" width="28.3465" height="28.3465" class="st8"/>
			<text x="4" y="507.17" class="st9">RTR</text>		</g>
		<g id="shape43-119" transform="translate(188.454,-188.454)">
			<title>Sheet.43</title>
			<desc>XX (不匹配)</desc>
			<rect x="0" y="490.293" width="63.7795" height="28.3465" class="st8"/>
			<text x="9.97" y="507.2" class="st9">XX (<tspan class="st11">不匹配</tspan>)</text>		</g>
		<g id="shape44-123" transform="translate(333.871,-188.454)">
			<title>Sheet.44</title>
			<desc>数据字节1[3:0]</desc>
			<rect x="0" y="490.293" width="81.3544" height="28.3465" class="st8"/>
			<text x="4" y="507.24" class="st2">数据字节<tspan class="st10">1</tspan><tspan class="st4">[3:0]</tspan></text>		</g>
		<g id="shape45-128" transform="translate(252.233,-188.454)">
			<title>Sheet.45</title>
			<desc>数据字节1[7:4]</desc>
			<rect x="0" y="490.293" width="81.3544" height="28.3465" class="st8"/>
			<text x="4" y="507.2" class="st2">数据字节<tspan class="st4">1[7:4]</tspan></text>		</g>
		<g id="shape47-132" transform="translate(18.375,-131.761)">
			<title>Sheet.47</title>
			<desc>ACR0[7:0]</desc>
			<rect x="0" y="490.293" width="70.8661" height="28.3465" class="st8"/>
			<text x="4" y="507.24" class="st12">ACR0<tspan class="st4">[7:0]</tspan></text>		</g>
		<g id="shape48-136" transform="translate(18.375,-103.414)">
			<title>Sheet.48</title>
			<desc>AMR0[7:0]</desc>
			<rect x="0" y="490.293" width="70.8661" height="28.3465" class="st8"/>
			<text x="4" y="507.24" class="st12">A<tspan class="st4">M</tspan>R0<tspan class="st4">[7:0]</tspan></text>		</g>
		<g id="shape49-141" transform="translate(89.2411,-131.761)">
			<title>Sheet.49</title>
			<desc>ACR1[7:4]</desc>
			<rect x="0" y="490.293" width="99.2126" height="28.3465" class="st8"/>
			<text x="4" y="507.17" class="st9">ACR1[7:4]</text>		</g>
		<g id="shape56-144" transform="translate(89.2411,-103.414)">
			<title>Sheet.56</title>
			<desc>AMR1[7:4]</desc>
			<rect x="0" y="490.293" width="99.2126" height="28.3465" class="st8"/>
			<text x="4" y="507.17" class="st9">AMR1[7:4]</text>		</g>
		<g id="shape63-147" transform="translate(415.225,-188.454)">
			<title>Sheet.63</title>
			<desc>数据字节2</desc>
			<rect x="0" y="490.293" width="70.8661" height="28.3465" class="st8"/>
			<text x="4" y="507.24" class="st2">数据字节<tspan class="st10">2</tspan></text>		</g>
		<g id="shape65-151" transform="translate(252.517,-131.761)">
			<title>Sheet.65</title>
			<desc>ACR1[3:0]</desc>
			<rect x="0" y="490.293" width="81.3544" height="28.3465" class="st8"/>
			<text x="4" y="507.17" class="st9">ACR1[3:0]</text>		</g>
		<g id="shape66-154" transform="translate(252.517,-103.414)">
			<title>Sheet.66</title>
			<desc>AMR1[3:0]</desc>
			<rect x="0" y="490.293" width="81.3544" height="28.3465" class="st8"/>
			<text x="4" y="507.17" class="st9">AMR1[3:0]</text>		</g>
		<g id="shape67-157" transform="translate(333.871,-131.761)">
			<title>Sheet.67</title>
			<desc>ACR3[3:0]</desc>
			<rect x="0" y="490.293" width="81.3544" height="28.3465" class="st8"/>
			<text x="4" y="507.17" class="st9">ACR3[3:0]</text>		</g>
		<g id="shape68-160" transform="translate(333.871,-103.414)">
			<title>Sheet.68</title>
			<desc>AMR3[3:0]</desc>
			<rect x="0" y="490.293" width="81.3544" height="28.3465" class="st8"/>
			<text x="4" y="507.17" class="st9">AMR3[3:0]</text>		</g>
		<g id="shape70-163" transform="translate(18.375,-46.7215)">
			<title>Sheet.70</title>
			<desc>ACR2[7:0]</desc>
			<rect x="0" y="490.293" width="70.8661" height="28.3465" class="st8"/>
			<text x="4" y="507.24" class="st12">ACR<tspan class="st4">2[7:0]</tspan></text>		</g>
		<g id="shape71-167" transform="translate(89.2411,-46.7215)">
			<title>Sheet.71</title>
			<desc>ACR3[7:4]</desc>
			<rect x="0" y="490.293" width="99.2126" height="28.3465" class="st8"/>
			<text x="4" y="507.17" class="st9">ACR3[7:4]</text>		</g>
		<g id="shape72-170" transform="translate(18.375,-18.375)">
			<title>Sheet.72</title>
			<desc>AMR2[7:0]</desc>
			<rect x="0" y="490.293" width="70.8661" height="28.3465" class="st8"/>
			<text x="4" y="507.24" class="st12">A<tspan class="st4">M</tspan>R<tspan class="st4">2[7:0]</tspan></text>		</g>
		<g id="shape73-175" transform="translate(89.2411,-18.375)">
			<title>Sheet.73</title>
			<desc>AMR3[7:4]</desc>
			<rect x="0" y="490.293" width="99.2126" height="28.3465" class="st8"/>
			<text x="4" y="507.17" class="st9">AMR3[7:4]</text>		</g>
	</g>
</svg>
