<?xml version="1.0" encoding="UTF-8" standalone="no"?>
<!DOCTYPE svg PUBLIC "-//W3C//DTD SVG 1.1//EN" "http://www.w3.org/Graphics/SVG/1.1/DTD/svg11.dtd">
<!-- Generated by Microsoft Visio, SVG Export syscon_clk_tree.svg 页-1 -->
<svg xmlns="http://www.w3.org/2000/svg" xmlns:xlink="http://www.w3.org/1999/xlink" xmlns:ev="http://www.w3.org/2001/xml-events"
		width="8.97908in" height="7.85294in" viewBox="0 0 646.494 565.411" xml:space="preserve" color-interpolation-filters="sRGB"
		class="st18">
	<style type="text/css">
	<![CDATA[
		.st1 {stroke:#404040;stroke-linecap:round;stroke-linejoin:round;stroke-width:0.5}
		.st2 {fill:none;stroke:none;stroke-linecap:round;stroke-linejoin:round;stroke-width:1}
		.st3 {fill:#000000;font-family:Arial;font-size:0.833336em}
		.st4 {stroke:#404040;stroke-linecap:round;stroke-linejoin:round;stroke-width:1}
		.st5 {fill:#ffffff;stroke:#000000;stroke-linecap:round;stroke-linejoin:round;stroke-width:1}
		.st6 {fill:#000000;font-family:Arial;font-size:1.00001em}
		.st7 {font-size:0.83333em}
		.st8 {font-size:0.749994em}
		.st9 {stroke:#000000;stroke-linecap:round;stroke-linejoin:round;stroke-width:0.75}
		.st10 {marker-start:url(#mrkr10-104);stroke:#000000;stroke-linecap:round;stroke-linejoin:round;stroke-width:0.75}
		.st11 {fill:#000000;fill-opacity:1;stroke:#000000;stroke-opacity:1;stroke-width:0.22935779816514}
		.st12 {stroke:#000000;stroke-linecap:round;stroke-linejoin:round;stroke-width:1}
		.st13 {fill:url(#grad0-4);stroke:#404040;stroke-linecap:round;stroke-linejoin:round;stroke-width:1}
		.st14 {font-size:1em}
		.st15 {marker-end:url(#mrkr5-199);stroke:#404040;stroke-linecap:round;stroke-linejoin:round;stroke-width:1}
		.st16 {fill:#404040;fill-opacity:1;stroke:#404040;stroke-opacity:1;stroke-width:0.28409090909091}
		.st17 {marker-start:url(#mrkr42-293);stroke:#000000;stroke-linecap:round;stroke-linejoin:round;stroke-width:0.75}
		.st18 {fill:none;fill-rule:evenodd;font-size:12px;overflow:visible;stroke-linecap:square;stroke-miterlimit:3}
	]]>
	</style>

	<defs id="Patterns_And_Gradients">
		<linearGradient id="grad0-4" x1="0" y1="0" x2="1" y2="0" gradientTransform="rotate(270 0.5 0.5)">
			<stop offset="0" stop-color="#f0f0f0" stop-opacity="1"/>
			<stop offset="1" stop-color="#ffffff" stop-opacity="1"/>
		</linearGradient>
	</defs>
	<defs id="Markers">
		<g id="lend10">
			<path
					d="M 0 0.75 C -0.414214 0.75 -0.75 0.414214 -0.75 0 -0.75 -0.414214 -0.414214 -0.75 0 -0.75 0.414214 -0.75 0.75 -0.414214 0.75 0 0.75 0.414214 0.414214 0.75 0 0.75 Z "
					style="stroke:none"/>
		</g>
		<marker id="mrkr10-104" class="st11" refX="2.79" orient="auto" markerUnits="strokeWidth" overflow="visible">
			<use xlink:href="#lend10" transform="scale(4.36) "/>
		</marker>
		<g id="lend5">
			<path d="M 2 1 L 0 0 L 1.98117 -0.993387 C 1.67173 -0.364515 1.67301 0.372641 1.98465 1.00043 " style="stroke:none"/>
		</g>
		<marker id="mrkr5-199" class="st16" refX="-6.16" orient="auto" markerUnits="strokeWidth" overflow="visible">
			<use xlink:href="#lend5" transform="scale(-3.52,-3.52) "/>
		</marker>
		<g id="lend42">
			<path
					d="M 0 0.75 C -0.414214 0.75 -0.75 0.414214 -0.75 0 -0.75 -0.414214 -0.414214 -0.75 0 -0.75 0.414214 -0.75 0.75 -0.414214 0.75 0 0.75 0.414214 0.414214 0.75 0 0.75 Z "
					style="stroke:none"/>
		</g>
		<marker id="mrkr42-293" class="st11" refX="2.79" orient="auto" markerUnits="strokeWidth" overflow="visible">
			<use xlink:href="#lend42" transform="scale(4.36) "/>
		</marker>
	</defs>
	<g>
		<title>页-1</title>
		<g id="shape241-1" transform="translate(18.5,-547.161)">
			<title>Sheet.241</title>
			<path d="M0 565.41 L609.45 565.41" class="st1"/>
		</g>
		<g id="shape246-6" transform="translate(583.911,18.25) rotate(90)">
			<title>Sheet.246</title>
			<path d="M0 565.41 L527.24 565.41" class="st1"/>
		</g>
		<g id="shape247-10" transform="translate(18.5,-19.9173)">
			<title>Sheet.247</title>
			<path d="M0 565.41 L609.45 565.41" class="st1"/>
		</g>
		<g id="shape248-14" transform="translate(62.5374,545.494) rotate(-90)">
			<title>Sheet.248</title>
			<path d="M0 565.41 L527.24 565.41" class="st1"/>
		</g>
		<g id="shape292-18" transform="translate(18.7951,-547.129)">
			<title>Sheet.292</title>
			<path d="M0 565.41 L609.45 565.41" class="st1"/>
		</g>
		<g id="shape293-22" transform="translate(584.207,18.282) rotate(90)">
			<title>Sheet.293</title>
			<path d="M0 565.41 L527.24 565.41" class="st1"/>
		</g>
		<g id="shape294-26" transform="translate(18.7951,-19.8854)">
			<title>Sheet.294</title>
			<path d="M0 565.41 L609.45 565.41" class="st1"/>
		</g>
		<g id="shape295-30" transform="translate(62.8325,545.526) rotate(-90)">
			<title>Sheet.295</title>
			<path d="M0 565.41 L527.24 565.41" class="st1"/>
		</g>
		<g id="shape452-34" transform="translate(18.25,-545.494)">
			<title>Sheet.452</title>
			<path d="M0 565.41 L609.45 565.41" class="st1"/>
		</g>
		<g id="shape453-38" transform="translate(583.661,19.9173) rotate(90)">
			<title>Sheet.453</title>
			<path d="M0 565.41 L527.24 565.41" class="st1"/>
		</g>
		<g id="shape454-42" transform="translate(18.25,-18.25)">
			<title>Sheet.454</title>
			<path d="M0 565.41 L609.45 565.41" class="st1"/>
		</g>
		<g id="shape455-46" transform="translate(62.2874,547.161) rotate(-90)">
			<title>Sheet.455</title>
			<path d="M0 565.41 L527.24 565.41" class="st1"/>
		</g>
		<g id="shape607-50" transform="translate(477.195,-72.669)">
			<title>Sheet.607</title>
			<desc>PLLCR.BP</desc>
			<rect x="0" y="534.23" width="60.9449" height="31.1811" class="st2"/>
			<text x="6.29" y="552.82" class="st3">PLLCR.BP</text>		</g>
		<g id="shape608-53" transform="translate(222.077,958.941) rotate(180)">
			<title>Sheet.608</title>
			<path d="M0 565.41 L63.39 565.41" class="st4"/>
		</g>
		<g id="shape609-57" transform="translate(74.6751,-183.063)">
			<title>Sheet.609</title>
			<desc>HRC</desc>
			<rect x="0" y="545.411" width="38.2677" height="20" class="st2"/>
			<text x="12.6" y="558.41" class="st3">HRC</text>		</g>
		<g id="shape610-60" transform="translate(205.069,-147.078)">
			<title>Sheet.610</title>
			<desc>/ INDIV N = 1, ..., 63</desc>
			<rect x="0" y="515.805" width="79.3701" height="49.6063" class="st5"/>
			<text x="20.35" y="538.21" class="st6">/ INDIV <tspan x="12.31" dy="1.26em" class="st7">N = 1, ..., 63</tspan></text>		</g>
		<g id="shape611-64" transform="translate(343.966,-147.078)">
			<title>Sheet.611</title>
			<desc>x FBDIV 2, …, 127</desc>
			<rect x="0" y="515.805" width="100.63" height="49.6063" class="st5"/>
			<text x="27.98" y="538.21" class="st6">x FBDIV <tspan x="30.53" dy="1.26em" class="st7">2</tspan><tspan class="st8">, …, 127</tspan></text>		</g>
		<g id="group612-69" transform="translate(130.34,-127.945)">
			<title>Sheet.612</title>
			<g id="shape613-70" transform="translate(565.411,477.537) rotate(90)">
				<title>Sheet.613</title>
				<path d="M0 565.41 L87.87 565.41" class="st4"/>
			</g>
			<g id="shape614-74" transform="translate(259.535,-24.7887) rotate(27.3239)">
				<title>Sheet.614</title>
				<path d="M0 565.41 L31.91 565.41" class="st4"/>
			</g>
			<g id="shape615-78" transform="translate(593.758,492.183) rotate(90)">
				<title>Sheet.615</title>
				<path d="M0 565.41 L58.58 565.41" class="st4"/>
			</g>
			<g id="shape616-82" transform="translate(-259.535,63.0853) rotate(-27.3239)">
				<title>Sheet.616</title>
				<path d="M0 565.41 L31.91 565.41" class="st4"/>
			</g>
		</g>
		<g id="shape617-86" transform="translate(74.6751,-136.37)">
			<title>Sheet.617</title>
			<desc>XTAL</desc>
			<rect x="0" y="545.411" width="38.2677" height="20" class="st2"/>
			<text x="9.26" y="558.41" class="st3">XTAL</text>		</g>
		<g id="shape618-89" transform="translate(112.943,-193.141)">
			<title>Sheet.618</title>
			<path d="M0 565.41 L17.4 565.41" class="st9"/>
		</g>
		<g id="shape619-92" transform="translate(112.943,-147.708)">
			<title>Sheet.619</title>
			<path d="M0 565.41 L17.4 565.41" class="st9"/>
		</g>
		<g id="shape620-95" transform="translate(343.966,958.941) rotate(180)">
			<title>Sheet.620</title>
			<path d="M0 565.41 L59.53 565.41" class="st4"/>
		</g>
		<g id="shape621-99" transform="translate(866.858,393.53) rotate(90)">
			<title>Sheet.621</title>
			<path d="M2.09 565.41 L2.45 565.41 L48.19 565.41" class="st10"/>
		</g>
		<g id="shape622-105" transform="translate(301.447,-123.693)">
			<title>Sheet.622</title>
			<path d="M0 565.41 L170.08 565.41" class="st9"/>
		</g>
		<g id="group623-108" transform="translate(483.431,-110.937)">
			<title>Sheet.623</title>
			<g id="shape624-109" transform="translate(565.411,480.372) rotate(90)">
				<title>Sheet.624</title>
				<path d="M0 565.41 L85.04 565.41" class="st4"/>
			</g>
			<g id="shape625-113" transform="translate(252.86,-25.3473) rotate(26.5651)">
				<title>Sheet.625</title>
				<path d="M0 565.41 L31.69 565.41" class="st4"/>
			</g>
			<g id="shape626-117" transform="translate(593.758,494.545) rotate(90)">
				<title>Sheet.626</title>
				<path d="M0 565.41 L56.69 565.41" class="st4"/>
			</g>
			<g id="shape627-121" transform="translate(-252.86,59.6921) rotate(-26.5651)">
				<title>Sheet.627</title>
				<path d="M0 565.41 L31.69 565.41" class="st4"/>
			</g>
		</g>
		<g id="shape628-125" transform="translate(444.596,-171.882)">
			<title>Sheet.628</title>
			<path d="M0 565.41 L38.83 565.41" class="st9"/>
		</g>
		<g id="shape629-128" transform="translate(1036.94,426.128) rotate(90)">
			<title>Sheet.629</title>
			<path d="M0 565.41 L15.59 565.41" class="st9"/>
		</g>
		<g id="shape630-131" transform="translate(471.525,-139.283)">
			<title>Sheet.630</title>
			<path d="M0 565.41 L11.91 565.41" class="st9"/>
		</g>
		<g id="shape631-134" transform="translate(511.777,-157.708)">
			<title>Sheet.631</title>
			<path d="M0 565.41 L58.96 565.41" class="st9"/>
		</g>
		<g id="shape632-137" transform="translate(511.919,-160.543)">
			<title>Sheet.632</title>
			<desc>PLL_OUT</desc>
			<rect x="0" y="545.411" width="60.9449" height="20" class="st2"/>
			<text x="8.24" y="558.41" class="st3">PLL_OUT</text>		</g>
		<g id="shape633-140" transform="translate(151.919,-170.386)">
			<title>Sheet.633</title>
			<desc>PLL_IN</desc>
			<rect x="0" y="545.411" width="60.9449" height="20" class="st2"/>
			<text x="13.79" y="558.41" class="st3">PLL_IN</text>		</g>
		<g id="shape634-143" transform="translate(1065.04,446.376) rotate(90)">
			<title>Sheet.634</title>
			<path d="M0 565.41 L20.52 565.41" class="st12"/>
		</g>
		<g id="shape635-146" transform="translate(212.439,-89.6769)">
			<title>Sheet.635</title>
			<desc>4MHz ≤ PLL_IN/INDIV ≤ 20MHz</desc>
			<rect x="0" y="545.411" width="206.362" height="20" class="st2"/>
			<text x="15.9" y="551.81" class="st6">4MHz  ≤ PLL_IN/INDIV ≤ 20MHz </text>		</g>
		<g id="shape636-149" transform="translate(202.234,-75.5037)">
			<title>Sheet.636</title>
			<desc>48MHz ≤ PLL_OUT ≤ 72MHz</desc>
			<rect x="0" y="545.411" width="206.362" height="20" class="st2"/>
			<text x="25.24" y="559.01" class="st6">48MHz ≤ PLL_OUT ≤ 72MHz</text>		</g>
		<g id="shape637-152" transform="translate(474.478,-122.748)">
			<title>Sheet.637</title>
			<desc>1</desc>
			<rect x="0" y="534.23" width="30.6142" height="31.1811" class="st2"/>
			<text x="12.53" y="552.82" class="st3">1</text>		</g>
		<g id="shape638-155" transform="translate(475.258,-155.701)">
			<title>Sheet.638</title>
			<desc>0</desc>
			<rect x="0" y="534.23" width="30.6142" height="31.1811" class="st2"/>
			<text x="12.53" y="552.82" class="st3">0</text>		</g>
		<g id="group639-158" transform="translate(103.022,-290.937)">
			<title>Sheet.639</title>
			<g id="shape640-159" transform="translate(2.23821E-13,-141.024)">
				<title>Sheet.640</title>
				<desc>8MHz HRC</desc>
				<rect x="0" y="537.065" width="70.8661" height="28.3465" class="st13"/>
				<text x="10.15" y="554.24" class="st3">8MHz HRC</text>			</g>
			<g id="shape641-163" transform="translate(6.39488E-14,-106.299)">
				<title>Sheet.641</title>
				<desc>8-24MHz XTAL</desc>
				<rect x="0" y="537.065" width="70.8661" height="28.3465" class="st13"/>
				<text x="15.15" y="548.24" class="st3">8-24MHz <tspan x="22.93" dy="1.2em" class="st14">XTAL</tspan></text>			</g>
			<g id="shape642-168" transform="translate(3.23741E-13,-71.5748)">
				<title>Sheet.642</title>
				<desc>PLL</desc>
				<rect x="0" y="537.065" width="70.8661" height="28.3465" class="st13"/>
				<text x="26.54" y="554.24" class="st3">PLL</text>			</g>
			<g id="shape643-172" transform="translate(2.23821E-13,-36.8504)">
				<title>Sheet.643</title>
				<desc>32KHz LRC</desc>
				<rect x="0" y="537.065" width="70.8661" height="28.3465" class="st13"/>
				<text x="9.03" y="554.24" class="st3">32KHz LRC</text>			</g>
			<g id="shape644-176" transform="translate(108.402,0)">
				<title>Sheet.644</title>
				<desc>CLKSEL.SECCLK</desc>
				<rect x="0" y="544.152" width="100.63" height="21.2598" class="st2"/>
				<text x="9.74" y="557.15" class="st3">CLKSEL.SECCLK</text>			</g>
			<g id="shape645-179" transform="translate(177.874,-104.882)">
				<title>Sheet.645</title>
				<path d="M0 565.41 L55.98 565.41" class="st4"/>
			</g>
			<g id="shape646-183" transform="translate(207.638,-69.9987)">
				<title>Sheet.646</title>
				<desc>CLKSEL.CLK_DIVx</desc>
				<rect x="0" y="554.356" width="100.63" height="11.0551" class="st2"/>
				<text x="6.41" y="562.88" class="st3">CLKSEL.CLK_DIVx</text>			</g>
			<g id="shape647-186" transform="translate(906.094,475.296) rotate(90)">
				<title>Sheet.647</title>
				<path d="M0 565.41 L28.35 565.41" class="st4"/>
			</g>
			<g id="shape648-190" transform="translate(300.272,-41.7612)">
				<title>Sheet.648</title>
				<desc>CLKDIVx_ON</desc>
				<rect x="0" y="545.411" width="100.63" height="20" class="st2"/>
				<text x="19.47" y="558.41" class="st3">CLKDIVx_ON</text>			</g>
			<g id="shape649-193" transform="translate(352.293,-127.559) rotate(7.87533E-07)">
				<title>Sheet.649</title>
				<path d="M0 565.41 L59.66 565.41" class="st15"/>
			</g>
			<g id="shape650-200" transform="translate(-175.648,437.852) rotate(-90)">
				<title>Sheet.650</title>
				<path d="M0 565.41 L21.26 565.41" class="st4"/>
			</g>
			<g id="shape651-204" transform="translate(389.764,-148.819)">
				<title>Sheet.651</title>
				<path d="M0 565.41 L22.19 565.41" class="st15"/>
			</g>
			<g id="shape652-210" transform="translate(418.11,-120.472)">
				<title>Sheet.652</title>
				<desc>CPU</desc>
				<rect x="0" y="551.238" width="28.3465" height="14.1732" class="st2"/>
				<text x="3.62" y="561.32" class="st3">CPU</text>			</g>
			<g id="shape653-213" transform="translate(418.11,-141.732)">
				<title>Sheet.653</title>
				<desc>AHB</desc>
				<rect x="0" y="551.238" width="28.3465" height="14.1732" class="st2"/>
				<text x="3.89" y="561.32" class="st3">AHB</text>			</g>
			<g id="shape654-216" transform="translate(389.764,-107.045)">
				<title>Sheet.654</title>
				<path d="M0 565.41 L22.19 565.41" class="st15"/>
			</g>
			<g id="shape655-222" transform="translate(-175.648,458.366) rotate(-90)">
				<title>Sheet.655</title>
				<path d="M0 565.41 L21.26 565.41" class="st4"/>
			</g>
			<g id="shape656-226" transform="translate(418.11,-99.9586)">
				<title>Sheet.656</title>
				<desc>APB</desc>
				<rect x="0" y="551.238" width="28.3465" height="14.1732" class="st2"/>
				<text x="4.17" y="561.32" class="st3">APB</text>			</g>
			<g id="shape657-229" transform="translate(76.5354,-87.7253)">
				<title>Sheet.657</title>
				<desc>PLL_OUT</desc>
				<rect x="0" y="553.215" width="60.9449" height="12.196" class="st2"/>
				<text x="4" y="562.31" class="st3">PLL_OUT</text>			</g>
			<g id="shape658-232" transform="translate(234.425,-89.2914)">
				<title>Sheet.658</title>
				<desc>/1, 2, 4, 8</desc>
				<rect x="0" y="534.23" width="56.126" height="31.1811" class="st5"/>
				<text x="7.22" y="552.82" class="st3">/1, 2, 4, 8</text>			</g>
			<g id="shape659-235" transform="translate(70.8661,-155.906)">
				<title>Sheet.659</title>
				<path d="M0 565.41 L70.87 565.41" class="st12"/>
			</g>
			<g id="shape660-238" transform="translate(70.8661,-51.0237)">
				<title>Sheet.660</title>
				<path d="M0 565.41 L70.87 565.41" class="st12"/>
			</g>
			<g id="shape661-241" transform="translate(70.8661,-85.0394)">
				<title>Sheet.661</title>
				<path d="M0 565.41 L70.87 565.41" class="st12"/>
			</g>
			<g id="shape662-244" transform="translate(70.8661,-120.472)">
				<title>Sheet.662</title>
				<path d="M0 565.41 L70.87 565.41" class="st12"/>
			</g>
			<g id="group663-247" transform="translate(141.732,-28.3465)">
				<title>Sheet.663</title>
				<g id="shape664-248" transform="translate(565.411,416.593) rotate(90)">
					<title>Sheet.664</title>
					<path d="M0 565.41 L148.82 565.41" class="st4"/>
				</g>
				<g id="shape665-252" transform="translate(319.934,-49.5967) rotate(34.4608)">
					<title>Sheet.665</title>
					<path d="M0 565.41 L43.83 565.41" class="st4"/>
				</g>
				<g id="shape666-256" transform="translate(601.553,441.396) rotate(90)">
					<title>Sheet.666</title>
					<path d="M0 565.41 L99.21 565.41" class="st4"/>
				</g>
				<g id="shape667-260" transform="translate(-319.934,99.2222) rotate(-34.4608)">
					<title>Sheet.667</title>
					<path d="M0 565.41 L43.83 565.41" class="st4"/>
				</g>
			</g>
			<g id="shape668-264" transform="translate(728.583,522.352) rotate(90)">
				<title>Sheet.668</title>
				<path d="M0 565.41 L20.52 565.41" class="st12"/>
			</g>
			<g id="group669-267" transform="translate(323.947,-81.3883)">
				<title>Sheet.669</title>
				<g id="shape670-268" transform="translate(565.411,476.721) rotate(90)">
					<title>Sheet.670</title>
					<path d="M0 565.41 L88.69 565.41" class="st4"/>
				</g>
				<g id="shape671-272" transform="translate(261.433,-24.6202) rotate(27.5405)">
					<title>Sheet.671</title>
					<path d="M0 565.41 L31.97 565.41" class="st4"/>
				</g>
				<g id="shape672-276" transform="translate(593.758,491.503) rotate(90)">
					<title>Sheet.672</title>
					<path d="M0 565.41 L59.13 565.41" class="st4"/>
				</g>
				<g id="shape673-280" transform="translate(-261.433,64.0702) rotate(-27.5405)">
					<title>Sheet.673</title>
					<path d="M0 565.41 L31.97 565.41" class="st4"/>
				</g>
			</g>
			<g id="shape674-284" transform="translate(290.551,-104.882)">
				<title>Sheet.674</title>
				<path d="M0 565.41 L33.4 565.41" class="st4"/>
			</g>
			<g id="shape675-288" transform="translate(-452.026,412.341) rotate(-90)">
				<title>Sheet.675</title>
				<path d="M2.09 565.41 L2.45 565.41 L45.35 565.41" class="st17"/>
			</g>
			<g id="shape676-294" transform="translate(113.386,-198.425)">
				<title>Sheet.676</title>
				<path d="M0 565.41 L141.73 565.41" class="st9"/>
			</g>
			<g id="shape677-297" transform="translate(323.947,982.004) rotate(180)">
				<title>Sheet.677</title>
				<path d="M0 565.41 L68.83 565.41" class="st9"/>
			</g>
			<g id="shape678-300" transform="translate(-310.293,416.593) rotate(-90)">
				<title>Sheet.678</title>
				<path d="M0 565.41 L49.61 565.41" class="st9"/>
			</g>
			<g id="shape679-303" transform="translate(76.5354,-155.197)">
				<title>Sheet.679</title>
				<desc>HRC</desc>
				<rect x="0" y="551.238" width="39.685" height="14.1732" class="st2"/>
				<text x="4" y="561.33" class="st3">HRC</text>			</g>
			<g id="shape680-306" transform="translate(76.5354,-121.741)">
				<title>Sheet.680</title>
				<desc>XTAL</desc>
				<rect x="0" y="553.215" width="60.9449" height="12.196" class="st2"/>
				<text x="4" y="562.31" class="st3">XTAL</text>			</g>
			<g id="shape681-309" transform="translate(76.5354,-53.0009)">
				<title>Sheet.681</title>
				<desc>LRC</desc>
				<rect x="0" y="553.215" width="60.9449" height="12.196" class="st2"/>
				<text x="4" y="562.31" class="st3">LRC</text>			</g>
		</g>
		<g id="shape682-312" transform="translate(122.014,-177.551)">
			<title>Sheet.682</title>
			<desc>0</desc>
			<rect x="0" y="534.23" width="30.6142" height="31.1811" class="st2"/>
			<text x="12.53" y="552.82" class="st3">0</text>		</g>
		<g id="shape683-315" transform="translate(123.148,-132.197)">
			<title>Sheet.683</title>
			<desc>1</desc>
			<rect x="0" y="534.23" width="30.6142" height="31.1811" class="st2"/>
			<text x="12.53" y="552.82" class="st3">1</text>		</g>
		<g id="shape684-318" transform="translate(237.951,-326.37)">
			<title>Sheet.684</title>
			<desc>00</desc>
			<rect x="0" y="534.23" width="30.6142" height="31.1811" class="st2"/>
			<text x="9.75" y="552.82" class="st3">00</text>		</g>
		<g id="shape685-321" transform="translate(237.951,-358.968)">
			<title>Sheet.685</title>
			<desc>01</desc>
			<rect x="0" y="534.23" width="30.6142" height="31.1811" class="st2"/>
			<text x="9.75" y="552.82" class="st3">01</text>		</g>
		<g id="shape686-324" transform="translate(237.951,-397.236)">
			<title>Sheet.686</title>
			<desc>10</desc>
			<rect x="0" y="534.23" width="30.6142" height="31.1811" class="st2"/>
			<text x="9.75" y="552.82" class="st3">10</text>		</g>
		<g id="shape687-327" transform="translate(237.951,-428.417)">
			<title>Sheet.687</title>
			<desc>1x</desc>
			<rect x="0" y="534.23" width="30.6142" height="31.1811" class="st2"/>
			<text x="10.03" y="552.82" class="st3">1x</text>		</g>
		<g id="shape688-330" transform="translate(418.234,-424.165)">
			<title>Sheet.688</title>
			<desc>1</desc>
			<rect x="0" y="534.23" width="30.6142" height="31.1811" class="st2"/>
			<text x="12.53" y="552.82" class="st3">1</text>		</g>
		<g id="shape689-333" transform="translate(419.651,-380.228)">
			<title>Sheet.689</title>
			<desc>0</desc>
			<rect x="0" y="534.23" width="30.6142" height="31.1811" class="st2"/>
			<text x="12.53" y="552.82" class="st3">0</text>		</g>
		<g id="shape690-336" transform="translate(707.103,431.602) rotate(90)">
			<title>Sheet.690</title>
			<path d="M0 565.41 L20.52 565.41" class="st12"/>
		</g>
		<g id="shape691-339" transform="translate(74.1751,-89.6021)">
			<title>Sheet.691</title>
			<desc>PLLCR.PLL_CKIN_SEL</desc>
			<rect x="0" y="544.152" width="120.654" height="21.2598" class="st2"/>
			<text x="6.96" y="557.15" class="st3">PLLCR.PLL_CKIN_SEL</text>		</g>
	</g>
</svg>
