<?xml version="1.0" encoding="UTF-8" standalone="no"?>
<!DOCTYPE svg PUBLIC "-//W3C//DTD SVG 1.1//EN" "http://www.w3.org/Graphics/SVG/1.1/DTD/svg11.dtd">
<!-- 由 Microsoft Visio, SVG Export 生成 break_over_long_enough.svg 页-1 -->
<svg xmlns="http://www.w3.org/2000/svg" xmlns:xlink="http://www.w3.org/1999/xlink" xmlns:ev="http://www.w3.org/2001/xml-events"
		xmlns:v="http://schemas.microsoft.com/visio/2003/SVGExtensions/" width="7.72695in" height="1.50648in"
		viewBox="0 0 556.341 108.467" xml:space="preserve" color-interpolation-filters="sRGB" class="st8">
	<v:documentProperties v:langID="2052" v:metric="true" v:viewMarkup="false">
		<v:userDefs>
			<v:ud v:nameU="msvConvertTheme"/>
		</v:userDefs>
	</v:documentProperties>

	<style type="text/css">
	<![CDATA[
		.st1 {stroke:#c0c0c0;stroke-dasharray:0,3.84555;stroke-linecap:round;stroke-linejoin:round;stroke-width:0.769111}
		.st2 {stroke:#000000;stroke-linecap:round;stroke-linejoin:round;stroke-width:0.769111}
		.st3 {stroke:none;stroke-linecap:round;stroke-linejoin:round;stroke-width:0.75}
		.st4 {fill:#000000;font-family:Arial;font-size:0.640846em}
		.st5 {fill:#000000;font-family:Arial;font-size:0.833107em}
		.st6 {fill:none;stroke:#000000;stroke-linecap:round;stroke-linejoin:round;stroke-width:0.75}
		.st7 {stroke:#000000;stroke-dasharray:5.25,3.75;stroke-linecap:round;stroke-linejoin:round;stroke-width:0.75}
		.st8 {fill:none;fill-rule:evenodd;font-size:12px;overflow:visible;stroke-linecap:square;stroke-miterlimit:3}
	]]>
	</style>

	<g v:mID="0" v:index="1" v:groupContext="foregroundPage">
		<title>页-1</title>
		<v:pageProperties v:drawingScale="0.0393701" v:pageScale="0.0393701" v:drawingUnits="24" v:shadowOffsetX="8.50394"
				v:shadowOffsetY="-8.50394"/>
		<g id="shape607-1" v:mID="607" v:groupContext="shape" transform="translate(66.7485,-12.732)">
			<title>工作表.607</title>
			<path d="M0 28.49 L0 108.47" class="st1"/>
		</g>
		<g id="shape608-4" v:mID="608" v:groupContext="shape" transform="translate(82.1324,-12.732)">
			<title>工作表.608</title>
			<path d="M0 28.49 L0 108.47" class="st1"/>
		</g>
		<g id="shape609-7" v:mID="609" v:groupContext="shape" transform="translate(97.5162,-12.732)">
			<title>工作表.609</title>
			<path d="M0 28.49 L0 108.47" class="st1"/>
		</g>
		<g id="shape610-10" v:mID="610" v:groupContext="shape" transform="translate(112.9,-12.732)">
			<title>工作表.610</title>
			<path d="M0 28.49 L0 108.47" class="st1"/>
		</g>
		<g id="shape611-13" v:mID="611" v:groupContext="shape" transform="translate(128.284,-12.732)">
			<title>工作表.611</title>
			<path d="M0 28.49 L0 108.47" class="st1"/>
		</g>
		<g id="shape612-16" v:mID="612" v:groupContext="shape" transform="translate(143.668,-12.732)">
			<title>工作表.612</title>
			<path d="M0 28.49 L0 108.47" class="st1"/>
		</g>
		<g id="shape613-19" v:mID="613" v:groupContext="shape" transform="translate(159.052,-12.732)">
			<title>工作表.613</title>
			<path d="M0 28.49 L0 108.47" class="st1"/>
		</g>
		<g id="shape614-22" v:mID="614" v:groupContext="shape" transform="translate(174.436,-12.732)">
			<title>工作表.614</title>
			<path d="M0 28.49 L0 108.47" class="st1"/>
		</g>
		<g id="shape615-25" v:mID="615" v:groupContext="shape" transform="translate(189.819,-12.732)">
			<title>工作表.615</title>
			<path d="M0 28.49 L0 108.47" class="st1"/>
		</g>
		<g id="shape616-28" v:mID="616" v:groupContext="shape" transform="translate(205.203,-12.732)">
			<title>工作表.616</title>
			<path d="M0 28.49 L0 108.47" class="st1"/>
		</g>
		<g id="shape617-31" v:mID="617" v:groupContext="shape" transform="translate(220.587,-12.732)">
			<title>工作表.617</title>
			<path d="M0 28.49 L0 108.47" class="st1"/>
		</g>
		<g id="shape618-34" v:mID="618" v:groupContext="shape" transform="translate(235.971,-12.732)">
			<title>工作表.618</title>
			<path d="M0 28.49 L0 108.47" class="st1"/>
		</g>
		<g id="shape619-37" v:mID="619" v:groupContext="shape" transform="translate(251.355,-12.732)">
			<title>工作表.619</title>
			<path d="M0 28.49 L0 108.47" class="st1"/>
		</g>
		<g id="shape620-40" v:mID="620" v:groupContext="shape" transform="translate(266.739,-12.732)">
			<title>工作表.620</title>
			<path d="M0 28.49 L0 108.47" class="st1"/>
		</g>
		<g id="shape621-43" v:mID="621" v:groupContext="shape" transform="translate(282.123,-12.732)">
			<title>工作表.621</title>
			<path d="M0 28.49 L0 108.47" class="st1"/>
		</g>
		<g id="shape622-46" v:mID="622" v:groupContext="shape" transform="translate(297.506,-12.732)">
			<title>工作表.622</title>
			<path d="M0 28.49 L0 108.47" class="st1"/>
		</g>
		<g id="shape623-49" v:mID="623" v:groupContext="shape" transform="translate(312.89,-12.732)">
			<title>工作表.623</title>
			<path d="M0 28.49 L0 108.47" class="st1"/>
		</g>
		<g id="shape624-52" v:mID="624" v:groupContext="shape" transform="translate(328.274,-12.732)">
			<title>工作表.624</title>
			<path d="M0 28.49 L0 108.47" class="st1"/>
		</g>
		<g id="shape625-55" v:mID="625" v:groupContext="shape" transform="translate(343.658,-12.732)">
			<title>工作表.625</title>
			<path d="M0 28.49 L0 108.47" class="st1"/>
		</g>
		<g id="shape626-58" v:mID="626" v:groupContext="shape" transform="translate(359.042,-12.732)">
			<title>工作表.626</title>
			<path d="M0 28.49 L0 108.47" class="st1"/>
		</g>
		<g id="shape627-61" v:mID="627" v:groupContext="shape" transform="translate(374.426,-12.732)">
			<title>工作表.627</title>
			<path d="M0 28.49 L0 108.47" class="st1"/>
		</g>
		<g id="shape628-64" v:mID="628" v:groupContext="shape" transform="translate(389.81,-12.732)">
			<title>工作表.628</title>
			<path d="M0 28.49 L0 108.47" class="st1"/>
		</g>
		<g id="shape629-67" v:mID="629" v:groupContext="shape" transform="translate(405.193,-12.732)">
			<title>工作表.629</title>
			<path d="M0 28.49 L0 108.47" class="st1"/>
		</g>
		<g id="shape630-70" v:mID="630" v:groupContext="shape" transform="translate(420.577,-12.732)">
			<title>工作表.630</title>
			<path d="M0 28.49 L0 108.47" class="st1"/>
		</g>
		<g id="shape631-73" v:mID="631" v:groupContext="shape" transform="translate(435.961,-12.732)">
			<title>工作表.631</title>
			<path d="M0 28.49 L0 108.47" class="st1"/>
		</g>
		<g id="shape632-76" v:mID="632" v:groupContext="shape" transform="translate(451.345,-12.732)">
			<title>工作表.632</title>
			<path d="M0 28.49 L0 108.47" class="st1"/>
		</g>
		<g id="shape633-79" v:mID="633" v:groupContext="shape" transform="translate(466.729,-12.732)">
			<title>工作表.633</title>
			<path d="M0 28.49 L0 108.47" class="st1"/>
		</g>
		<g id="shape634-82" v:mID="634" v:groupContext="shape" transform="translate(482.113,-12.732)">
			<title>工作表.634</title>
			<path d="M0 28.49 L0 108.47" class="st1"/>
		</g>
		<g id="shape635-85" v:mID="635" v:groupContext="shape" transform="translate(497.497,-12.732)">
			<title>工作表.635</title>
			<path d="M0 28.49 L0 108.47" class="st1"/>
		</g>
		<g id="shape636-88" v:mID="636" v:groupContext="shape" transform="translate(512.88,-12.732)">
			<title>工作表.636</title>
			<path d="M0 28.49 L0 108.47" class="st1"/>
		</g>
		<g id="shape637-91" v:mID="637" v:groupContext="shape" transform="translate(528.264,-12.732)">
			<title>工作表.637</title>
			<path d="M0 28.49 L0 108.47" class="st1"/>
		</g>
		<g id="shape638-94" v:mID="638" v:groupContext="shape" transform="translate(543.648,-12.732)">
			<title>工作表.638</title>
			<path d="M0 28.49 L0 108.47" class="st1"/>
		</g>
		<g id="shape640-97" v:mID="640" v:groupContext="shape" transform="translate(66.7485,-92.711)">
			<title>工作表.640</title>
			<path d="M-0 108.47 L15.38 108.47" class="st2"/>
		</g>
		<g id="shape641-100" v:mID="641" v:groupContext="shape" transform="translate(82.1324,-92.711)">
			<title>工作表.641</title>
			<path d="M0 108.47 L15.38 108.47" class="st2"/>
		</g>
		<g id="shape642-103" v:mID="642" v:groupContext="shape" transform="translate(97.5162,-92.711)">
			<title>工作表.642</title>
			<path d="M-0 108.47 L15.38 108.47" class="st2"/>
		</g>
		<g id="shape643-106" v:mID="643" v:groupContext="shape" transform="translate(112.9,-80.4065)">
			<title>工作表.643</title>
			<path d="M0 96.16 L7.69 108.47 L15.38 108.47" class="st2"/>
		</g>
		<g id="shape644-109" v:mID="644" v:groupContext="shape" transform="translate(128.284,-80.4065)">
			<title>工作表.644</title>
			<path d="M-0 108.47 L15.38 108.47" class="st2"/>
		</g>
		<g id="shape645-112" v:mID="645" v:groupContext="shape" transform="translate(143.668,-80.4065)">
			<title>工作表.645</title>
			<path d="M-0 108.47 L15.38 108.47" class="st2"/>
		</g>
		<g id="shape646-115" v:mID="646" v:groupContext="shape" transform="translate(159.052,-80.4065)">
			<title>工作表.646</title>
			<path d="M-0 108.47 L15.38 108.47" class="st2"/>
		</g>
		<g id="shape647-118" v:mID="647" v:groupContext="shape" transform="translate(174.436,-80.4065)">
			<title>工作表.647</title>
			<path d="M0 108.47 L15.38 108.47" class="st2"/>
		</g>
		<g id="shape648-121" v:mID="648" v:groupContext="shape" transform="translate(189.819,-80.4065)">
			<title>工作表.648</title>
			<path d="M0 108.47 L15.38 108.47" class="st2"/>
		</g>
		<g id="shape649-124" v:mID="649" v:groupContext="shape" transform="translate(205.203,-80.4065)">
			<title>工作表.649</title>
			<path d="M-0 108.47 L15.38 108.47" class="st2"/>
		</g>
		<g id="shape650-127" v:mID="650" v:groupContext="shape" transform="translate(220.587,-80.4065)">
			<title>工作表.650</title>
			<path d="M0 108.47 L15.38 108.47" class="st2"/>
		</g>
		<g id="shape651-130" v:mID="651" v:groupContext="shape" transform="translate(235.971,-80.4065)">
			<title>工作表.651</title>
			<path d="M0 108.47 L15.38 108.47" class="st2"/>
		</g>
		<g id="shape652-133" v:mID="652" v:groupContext="shape" transform="translate(251.355,-80.4065)">
			<title>工作表.652</title>
			<path d="M-0 108.47 L15.38 108.47" class="st2"/>
		</g>
		<g id="shape653-136" v:mID="653" v:groupContext="shape" transform="translate(266.739,-80.4065)">
			<title>工作表.653</title>
			<path d="M-0 108.47 L15.38 108.47" class="st2"/>
		</g>
		<g id="shape654-139" v:mID="654" v:groupContext="shape" transform="translate(282.123,-80.4065)">
			<title>工作表.654</title>
			<path d="M0 108.47 L15.38 108.47" class="st2"/>
		</g>
		<g id="shape655-142" v:mID="655" v:groupContext="shape" transform="translate(297.506,-80.4065)">
			<title>工作表.655</title>
			<path d="M0 108.47 L15.38 108.47" class="st2"/>
		</g>
		<g id="shape656-145" v:mID="656" v:groupContext="shape" transform="translate(312.89,-80.4065)">
			<title>工作表.656</title>
			<path d="M-0 108.47 L15.38 108.47" class="st2"/>
		</g>
		<g id="shape657-148" v:mID="657" v:groupContext="shape" transform="translate(328.274,-80.4065)">
			<title>工作表.657</title>
			<path d="M0 108.47 L15.38 108.47" class="st2"/>
		</g>
		<g id="shape658-151" v:mID="658" v:groupContext="shape" transform="translate(343.658,-80.4065)">
			<title>工作表.658</title>
			<path d="M-0 108.47 L15.38 108.47" class="st2"/>
		</g>
		<g id="shape659-154" v:mID="659" v:groupContext="shape" transform="translate(359.042,-80.4065)">
			<title>工作表.659</title>
			<path d="M-0 108.47 L15.38 108.47" class="st2"/>
		</g>
		<g id="shape660-157" v:mID="660" v:groupContext="shape" transform="translate(374.426,-80.4065)">
			<title>工作表.660</title>
			<path d="M0 108.47 L15.38 108.47" class="st2"/>
		</g>
		<g id="shape661-160" v:mID="661" v:groupContext="shape" transform="translate(389.81,-80.4065)">
			<title>工作表.661</title>
			<path d="M-0 108.47 L15.38 108.47" class="st2"/>
		</g>
		<g id="shape662-163" v:mID="662" v:groupContext="shape" transform="translate(405.193,-80.4065)">
			<title>工作表.662</title>
			<path d="M-0 108.47 L15.38 108.47" class="st2"/>
		</g>
		<g id="shape663-166" v:mID="663" v:groupContext="shape" transform="translate(420.577,-80.4065)">
			<title>工作表.663</title>
			<path d="M0 108.47 L15.38 108.47" class="st2"/>
		</g>
		<g id="shape664-169" v:mID="664" v:groupContext="shape" transform="translate(435.961,-80.4065)">
			<title>工作表.664</title>
			<path d="M-0 108.47 L22.63 108.47" class="st2"/>
		</g>
		<g id="shape665-172" v:mID="665" v:groupContext="shape" transform="translate(458.595,-80.4065)">
			<title>工作表.665</title>
			<path d="M0 108.47 L7.69 96.16 L15.38 96.16" class="st2"/>
		</g>
		<g id="shape666-175" v:mID="666" v:groupContext="shape" transform="translate(466.729,-92.711)">
			<title>工作表.666</title>
			<path d="M0 108.47 L15.38 108.47" class="st2"/>
		</g>
		<g id="shape667-178" v:mID="667" v:groupContext="shape" transform="translate(482.113,-92.711)">
			<title>工作表.667</title>
			<path d="M-0 108.47 L15.38 108.47" class="st2"/>
		</g>
		<g id="shape668-181" v:mID="668" v:groupContext="shape" transform="translate(497.497,-92.711)">
			<title>工作表.668</title>
			<path d="M0 108.47 L15.38 108.47" class="st2"/>
		</g>
		<g id="shape669-184" v:mID="669" v:groupContext="shape" transform="translate(512.88,-92.711)">
			<title>工作表.669</title>
			<path d="M0 108.47 L15.38 108.47" class="st2"/>
		</g>
		<g id="shape670-187" v:mID="670" v:groupContext="shape" transform="translate(528.264,-92.711)">
			<title>工作表.670</title>
			<path d="M-0 108.47 L15.38 108.47" class="st2"/>
		</g>
		<g id="shape671-190" v:mID="671" v:groupContext="shape" transform="translate(66.7485,-58.8737)">
			<title>工作表.671</title>
			<path d="M-0 108.47 L15.38 108.47" class="st2"/>
		</g>
		<g id="shape672-193" v:mID="672" v:groupContext="shape" transform="translate(66.7485,-46.5692)">
			<title>工作表.672</title>
			<path d="M-0 108.47 L15.38 108.47" class="st2"/>
		</g>
		<g id="shape673-196" v:mID="673" v:groupContext="shape" transform="translate(82.1324,-58.8737)">
			<title>工作表.673</title>
			<path d="M0 108.47 L15.38 108.47" class="st2"/>
		</g>
		<g id="shape674-199" v:mID="674" v:groupContext="shape" transform="translate(82.1324,-46.5692)">
			<title>工作表.674</title>
			<path d="M0 108.47 L15.38 108.47" class="st2"/>
		</g>
		<g id="shape675-202" v:mID="675" v:groupContext="shape" transform="translate(97.5162,-58.8737)">
			<title>工作表.675</title>
			<path d="M-0 108.47 L15.38 108.47" class="st2"/>
		</g>
		<g id="shape676-205" v:mID="676" v:groupContext="shape" transform="translate(97.5162,-46.5692)">
			<title>工作表.676</title>
			<path d="M-0 108.47 L15.38 108.47" class="st2"/>
		</g>
		<g id="shape677-208" v:mID="677" v:groupContext="shape" transform="translate(112.9,-46.5692)">
			<title>工作表.677</title>
			<path d="M0 96.16 L7.69 108.47 L15.38 108.47" class="st2"/>
		</g>
		<g id="shape678-211" v:mID="678" v:groupContext="shape" transform="translate(112.9,-46.5692)">
			<title>工作表.678</title>
			<path d="M0 108.47 L7.69 96.16 L15.38 96.16" class="st2"/>
		</g>
		<g id="shape679-214" v:mID="679" v:groupContext="shape" transform="translate(128.284,-58.8737)">
			<title>工作表.679</title>
			<path d="M-0 108.47 L15.38 108.47" class="st2"/>
		</g>
		<g id="shape680-217" v:mID="680" v:groupContext="shape" transform="translate(128.284,-46.5692)">
			<title>工作表.680</title>
			<path d="M-0 108.47 L15.38 108.47" class="st2"/>
		</g>
		<g id="shape681-220" v:mID="681" v:groupContext="shape" transform="translate(143.668,-46.5692)">
			<title>工作表.681</title>
			<path d="M0 96.16 L7.69 108.47 L15.38 108.47" class="st2"/>
		</g>
		<g id="shape682-223" v:mID="682" v:groupContext="shape" transform="translate(143.668,-46.5692)">
			<title>工作表.682</title>
			<path d="M0 108.47 L7.69 96.16 L15.38 96.16" class="st2"/>
		</g>
		<g id="shape683-226" v:mID="683" v:groupContext="shape" transform="translate(159.052,-58.8737)">
			<title>工作表.683</title>
			<path d="M-0 108.47 L15.38 108.47" class="st2"/>
		</g>
		<g id="shape684-229" v:mID="684" v:groupContext="shape" transform="translate(159.052,-46.5692)">
			<title>工作表.684</title>
			<path d="M-0 108.47 L15.38 108.47" class="st2"/>
		</g>
		<g id="shape685-232" v:mID="685" v:groupContext="shape" transform="translate(174.436,-46.5692)">
			<title>工作表.685</title>
			<path d="M0 96.16 L7.69 108.47 L15.38 108.47" class="st2"/>
		</g>
		<g id="shape686-235" v:mID="686" v:groupContext="shape" transform="translate(174.436,-46.5692)">
			<title>工作表.686</title>
			<path d="M0 108.47 L7.69 96.16 L15.38 96.16" class="st2"/>
		</g>
		<g id="shape687-238" v:mID="687" v:groupContext="shape" transform="translate(189.819,-58.8737)">
			<title>工作表.687</title>
			<path d="M0 108.47 L15.38 108.47" class="st2"/>
		</g>
		<g id="shape688-241" v:mID="688" v:groupContext="shape" transform="translate(189.819,-46.5692)">
			<title>工作表.688</title>
			<path d="M0 108.47 L15.38 108.47" class="st2"/>
		</g>
		<g id="shape689-244" v:mID="689" v:groupContext="shape" transform="translate(205.203,-46.5692)">
			<title>工作表.689</title>
			<path d="M0 96.16 L7.69 108.47 L15.38 108.47" class="st2"/>
		</g>
		<g id="shape690-247" v:mID="690" v:groupContext="shape" transform="translate(205.203,-46.5692)">
			<title>工作表.690</title>
			<path d="M0 108.47 L7.69 96.16 L15.38 96.16" class="st2"/>
		</g>
		<g id="shape691-250" v:mID="691" v:groupContext="shape" transform="translate(220.587,-58.8737)">
			<title>工作表.691</title>
			<path d="M0 108.47 L15.38 108.47" class="st2"/>
		</g>
		<g id="shape692-253" v:mID="692" v:groupContext="shape" transform="translate(220.587,-46.5692)">
			<title>工作表.692</title>
			<path d="M0 108.47 L15.38 108.47" class="st2"/>
		</g>
		<g id="shape693-256" v:mID="693" v:groupContext="shape" transform="translate(235.971,-46.5692)">
			<title>工作表.693</title>
			<path d="M0 96.16 L7.69 108.47 L15.38 108.47" class="st2"/>
		</g>
		<g id="shape694-259" v:mID="694" v:groupContext="shape" transform="translate(235.971,-46.5692)">
			<title>工作表.694</title>
			<path d="M0 108.47 L7.69 96.16 L15.38 96.16" class="st2"/>
		</g>
		<g id="shape695-262" v:mID="695" v:groupContext="shape" transform="translate(251.355,-58.8737)">
			<title>工作表.695</title>
			<path d="M-0 108.47 L15.38 108.47" class="st2"/>
		</g>
		<g id="shape696-265" v:mID="696" v:groupContext="shape" transform="translate(251.355,-46.5692)">
			<title>工作表.696</title>
			<path d="M-0 108.47 L15.38 108.47" class="st2"/>
		</g>
		<g id="shape697-268" v:mID="697" v:groupContext="shape" transform="translate(266.739,-46.5692)">
			<title>工作表.697</title>
			<path d="M0 96.16 L7.69 108.47 L15.38 108.47" class="st2"/>
		</g>
		<g id="shape698-271" v:mID="698" v:groupContext="shape" transform="translate(266.739,-46.5692)">
			<title>工作表.698</title>
			<path d="M0 108.47 L7.69 96.16 L15.38 96.16" class="st2"/>
		</g>
		<g id="shape699-274" v:mID="699" v:groupContext="shape" transform="translate(282.123,-58.8737)">
			<title>工作表.699</title>
			<path d="M0 108.47 L15.38 108.47" class="st2"/>
		</g>
		<g id="shape700-277" v:mID="700" v:groupContext="shape" transform="translate(282.123,-46.5692)">
			<title>工作表.700</title>
			<path d="M0 108.47 L15.38 108.47" class="st2"/>
		</g>
		<g id="shape701-280" v:mID="701" v:groupContext="shape" transform="translate(297.506,-46.5692)">
			<title>工作表.701</title>
			<path d="M0 96.16 L7.69 108.47 L15.38 108.47" class="st2"/>
		</g>
		<g id="shape702-283" v:mID="702" v:groupContext="shape" transform="translate(297.506,-46.5692)">
			<title>工作表.702</title>
			<path d="M0 108.47 L7.69 96.16 L15.38 96.16" class="st2"/>
		</g>
		<g id="shape703-286" v:mID="703" v:groupContext="shape" transform="translate(312.89,-58.8737)">
			<title>工作表.703</title>
			<path d="M-0 108.47 L15.38 108.47" class="st2"/>
		</g>
		<g id="shape704-289" v:mID="704" v:groupContext="shape" transform="translate(312.89,-46.5692)">
			<title>工作表.704</title>
			<path d="M-0 108.47 L15.38 108.47" class="st2"/>
		</g>
		<g id="shape705-292" v:mID="705" v:groupContext="shape" transform="translate(328.274,-46.5692)">
			<title>工作表.705</title>
			<path d="M0 96.16 L7.69 108.47 L15.38 108.47" class="st2"/>
		</g>
		<g id="shape706-295" v:mID="706" v:groupContext="shape" transform="translate(328.274,-46.5692)">
			<title>工作表.706</title>
			<path d="M0 108.47 L7.69 96.16 L15.38 96.16" class="st2"/>
		</g>
		<g id="shape707-298" v:mID="707" v:groupContext="shape" transform="translate(343.658,-58.8737)">
			<title>工作表.707</title>
			<path d="M-0 108.47 L15.38 108.47" class="st2"/>
		</g>
		<g id="shape708-301" v:mID="708" v:groupContext="shape" transform="translate(343.658,-46.5692)">
			<title>工作表.708</title>
			<path d="M-0 108.47 L15.38 108.47" class="st2"/>
		</g>
		<g id="shape709-304" v:mID="709" v:groupContext="shape" transform="translate(359.042,-46.5692)">
			<title>工作表.709</title>
			<path d="M0 96.16 L7.69 108.47 L15.38 108.47" class="st2"/>
		</g>
		<g id="shape710-307" v:mID="710" v:groupContext="shape" transform="translate(359.042,-46.5692)">
			<title>工作表.710</title>
			<path d="M0 108.47 L7.69 96.16 L15.38 96.16" class="st2"/>
		</g>
		<g id="shape711-310" v:mID="711" v:groupContext="shape" transform="translate(374.426,-58.8737)">
			<title>工作表.711</title>
			<path d="M0 108.47 L15.38 108.47" class="st2"/>
		</g>
		<g id="shape712-313" v:mID="712" v:groupContext="shape" transform="translate(374.426,-46.5692)">
			<title>工作表.712</title>
			<path d="M0 108.47 L15.38 108.47" class="st2"/>
		</g>
		<g id="shape713-316" v:mID="713" v:groupContext="shape" transform="translate(389.81,-46.5692)">
			<title>工作表.713</title>
			<path d="M0 96.16 L7.69 108.47 L15.38 108.47" class="st2"/>
		</g>
		<g id="shape714-319" v:mID="714" v:groupContext="shape" transform="translate(389.81,-46.5692)">
			<title>工作表.714</title>
			<path d="M0 108.47 L7.69 96.16 L15.38 96.16" class="st2"/>
		</g>
		<g id="shape715-322" v:mID="715" v:groupContext="shape" transform="translate(405.193,-58.8737)">
			<title>工作表.715</title>
			<path d="M-0 108.47 L15.38 108.47" class="st2"/>
		</g>
		<g id="shape716-325" v:mID="716" v:groupContext="shape" transform="translate(405.193,-46.5692)">
			<title>工作表.716</title>
			<path d="M-0 108.47 L15.38 108.47" class="st2"/>
		</g>
		<g id="shape717-328" v:mID="717" v:groupContext="shape" transform="translate(420.577,-46.5692)">
			<title>工作表.717</title>
			<path d="M0 96.16 L7.69 108.47 L15.38 108.47" class="st2"/>
		</g>
		<g id="shape718-331" v:mID="718" v:groupContext="shape" transform="translate(420.577,-46.5692)">
			<title>工作表.718</title>
			<path d="M0 108.47 L7.69 96.16 L15.38 96.16" class="st2"/>
		</g>
		<g id="shape719-334" v:mID="719" v:groupContext="shape" transform="translate(435.961,-58.8737)">
			<title>工作表.719</title>
			<path d="M-0 108.47 L15.38 108.47" class="st2"/>
		</g>
		<g id="shape720-337" v:mID="720" v:groupContext="shape" transform="translate(435.961,-46.5692)">
			<title>工作表.720</title>
			<path d="M-0 108.47 L15.38 108.47" class="st2"/>
		</g>
		<g id="shape721-340" v:mID="721" v:groupContext="shape" transform="translate(451.345,-46.5692)">
			<title>工作表.721</title>
			<path d="M0 96.16 L7.69 108.47 L15.38 108.47" class="st2"/>
		</g>
		<g id="shape722-343" v:mID="722" v:groupContext="shape" transform="translate(451.345,-46.5692)">
			<title>工作表.722</title>
			<path d="M0 108.47 L7.69 96.16 L15.38 96.16" class="st2"/>
		</g>
		<g id="shape723-346" v:mID="723" v:groupContext="shape" transform="translate(466.729,-58.8737)">
			<title>工作表.723</title>
			<path d="M0 108.47 L15.38 108.47" class="st2"/>
		</g>
		<g id="shape724-349" v:mID="724" v:groupContext="shape" transform="translate(466.729,-46.5692)">
			<title>工作表.724</title>
			<path d="M0 108.47 L15.38 108.47" class="st2"/>
		</g>
		<g id="shape725-352" v:mID="725" v:groupContext="shape" transform="translate(482.113,-58.8737)">
			<title>工作表.725</title>
			<path d="M-0 108.47 L15.38 108.47" class="st2"/>
		</g>
		<g id="shape726-355" v:mID="726" v:groupContext="shape" transform="translate(482.113,-46.5692)">
			<title>工作表.726</title>
			<path d="M-0 108.47 L15.38 108.47" class="st2"/>
		</g>
		<g id="shape727-358" v:mID="727" v:groupContext="shape" transform="translate(497.497,-58.8737)">
			<title>工作表.727</title>
			<path d="M0 108.47 L15.38 108.47" class="st2"/>
		</g>
		<g id="shape728-361" v:mID="728" v:groupContext="shape" transform="translate(497.497,-46.5692)">
			<title>工作表.728</title>
			<path d="M0 108.47 L15.38 108.47" class="st2"/>
		</g>
		<g id="shape729-364" v:mID="729" v:groupContext="shape" transform="translate(512.88,-58.8737)">
			<title>工作表.729</title>
			<path d="M0 108.47 L15.38 108.47" class="st2"/>
		</g>
		<g id="shape730-367" v:mID="730" v:groupContext="shape" transform="translate(512.88,-46.5692)">
			<title>工作表.730</title>
			<path d="M0 108.47 L15.38 108.47" class="st2"/>
		</g>
		<g id="shape731-370" v:mID="731" v:groupContext="shape" transform="translate(528.264,-58.8737)">
			<title>工作表.731</title>
			<path d="M-0 108.47 L15.38 108.47" class="st2"/>
		</g>
		<g id="shape732-373" v:mID="732" v:groupContext="shape" transform="translate(528.264,-46.5692)">
			<title>工作表.732</title>
			<path d="M-0 108.47 L15.38 108.47" class="st2"/>
		</g>
		<g id="shape734-376" v:mID="734" v:groupContext="shape" transform="translate(66.7485,-12.732)">
			<title>工作表.734</title>
			<path d="M-0 108.47 L15.38 108.47" class="st2"/>
		</g>
		<g id="shape735-379" v:mID="735" v:groupContext="shape" transform="translate(82.1324,-12.732)">
			<title>工作表.735</title>
			<path d="M0 108.47 L15.38 108.47" class="st2"/>
		</g>
		<g id="shape736-382" v:mID="736" v:groupContext="shape" transform="translate(97.5162,-12.732)">
			<title>工作表.736</title>
			<path d="M-0 108.47 L15.38 108.47" class="st2"/>
		</g>
		<g id="shape737-385" v:mID="737" v:groupContext="shape" transform="translate(112.9,-12.732)">
			<title>工作表.737</title>
			<path d="M0 108.47 L15.38 108.47" class="st2"/>
		</g>
		<g id="shape738-388" v:mID="738" v:groupContext="shape" transform="translate(128.284,-12.732)">
			<title>工作表.738</title>
			<path d="M-0 108.47 L15.38 108.47" class="st2"/>
		</g>
		<g id="shape739-391" v:mID="739" v:groupContext="shape" transform="translate(143.668,-12.732)">
			<title>工作表.739</title>
			<path d="M-0 108.47 L15.38 108.47" class="st2"/>
		</g>
		<g id="shape740-394" v:mID="740" v:groupContext="shape" transform="translate(159.052,-12.732)">
			<title>工作表.740</title>
			<path d="M-0 108.47 L15.38 108.47" class="st2"/>
		</g>
		<g id="shape741-397" v:mID="741" v:groupContext="shape" transform="translate(174.436,-12.732)">
			<title>工作表.741</title>
			<path d="M0 108.47 L15.38 108.47" class="st2"/>
		</g>
		<g id="shape742-400" v:mID="742" v:groupContext="shape" transform="translate(189.819,-12.732)">
			<title>工作表.742</title>
			<path d="M0 108.47 L15.38 108.47" class="st2"/>
		</g>
		<g id="shape743-403" v:mID="743" v:groupContext="shape" transform="translate(205.203,-12.732)">
			<title>工作表.743</title>
			<path d="M-0 108.47 L15.38 108.47" class="st2"/>
		</g>
		<g id="shape744-406" v:mID="744" v:groupContext="shape" transform="translate(220.587,-12.732)">
			<title>工作表.744</title>
			<path d="M0 108.47 L15.38 108.47" class="st2"/>
		</g>
		<g id="shape745-409" v:mID="745" v:groupContext="shape" transform="translate(235.971,-12.732)">
			<title>工作表.745</title>
			<path d="M0 108.47 L15.38 108.47" class="st2"/>
		</g>
		<g id="shape746-412" v:mID="746" v:groupContext="shape" transform="translate(251.355,-12.732)">
			<title>工作表.746</title>
			<path d="M-0 108.47 L15.38 108.47" class="st2"/>
		</g>
		<g id="shape747-415" v:mID="747" v:groupContext="shape" transform="translate(266.739,-12.732)">
			<title>工作表.747</title>
			<path d="M-0 108.47 L15.38 108.47" class="st2"/>
		</g>
		<g id="shape748-418" v:mID="748" v:groupContext="shape" transform="translate(282.123,-12.732)">
			<title>工作表.748</title>
			<path d="M0 108.47 L15.38 108.47" class="st2"/>
		</g>
		<g id="shape749-421" v:mID="749" v:groupContext="shape" transform="translate(297.506,-12.732)">
			<title>工作表.749</title>
			<path d="M0 108.47 L15.38 108.47" class="st2"/>
		</g>
		<g id="shape750-424" v:mID="750" v:groupContext="shape" transform="translate(312.89,-12.732)">
			<title>工作表.750</title>
			<path d="M-0 108.47 L15.38 108.47" class="st2"/>
		</g>
		<g id="shape751-427" v:mID="751" v:groupContext="shape" transform="translate(328.274,-12.732)">
			<title>工作表.751</title>
			<path d="M0 108.47 L15.38 108.47" class="st2"/>
		</g>
		<g id="shape752-430" v:mID="752" v:groupContext="shape" transform="translate(343.658,-12.732)">
			<title>工作表.752</title>
			<path d="M-0 108.47 L15.38 108.47" class="st2"/>
		</g>
		<g id="shape753-433" v:mID="753" v:groupContext="shape" transform="translate(359.042,-12.732)">
			<title>工作表.753</title>
			<path d="M-0 108.47 L15.38 108.47" class="st2"/>
		</g>
		<g id="shape754-436" v:mID="754" v:groupContext="shape" transform="translate(374.426,-12.732)">
			<title>工作表.754</title>
			<path d="M0 108.47 L15.38 108.47" class="st2"/>
		</g>
		<g id="shape755-439" v:mID="755" v:groupContext="shape" transform="translate(389.81,-12.732)">
			<title>工作表.755</title>
			<path d="M-0 108.47 L15.38 108.47" class="st2"/>
		</g>
		<g id="shape756-442" v:mID="756" v:groupContext="shape" transform="translate(405.193,-12.732)">
			<title>工作表.756</title>
			<path d="M-0 108.47 L15.38 108.47" class="st2"/>
		</g>
		<g id="shape757-445" v:mID="757" v:groupContext="shape" transform="translate(420.577,-12.732)">
			<title>工作表.757</title>
			<path d="M0 108.47 L15.38 108.47" class="st2"/>
		</g>
		<g id="shape758-448" v:mID="758" v:groupContext="shape" transform="translate(435.961,-12.732)">
			<title>工作表.758</title>
			<path d="M-0 108.47 L15.38 108.47" class="st2"/>
		</g>
		<g id="shape759-451" v:mID="759" v:groupContext="shape" transform="translate(451.345,-12.732)">
			<title>工作表.759</title>
			<path d="M-0 108.47 L15.38 108.47" class="st2"/>
		</g>
		<g id="shape760-454" v:mID="760" v:groupContext="shape" transform="translate(466.729,-12.732)">
			<title>工作表.760</title>
			<path d="M0 108.47 L15.38 108.47" class="st2"/>
		</g>
		<g id="shape761-457" v:mID="761" v:groupContext="shape" transform="translate(482.113,-12.732)">
			<title>工作表.761</title>
			<path d="M-0 108.47 L15.38 108.47" class="st2"/>
		</g>
		<g id="shape762-460" v:mID="762" v:groupContext="shape" transform="translate(497.497,-12.732)">
			<title>工作表.762</title>
			<path d="M0 108.47 L15.38 108.47" class="st2"/>
		</g>
		<g id="shape763-463" v:mID="763" v:groupContext="shape" transform="translate(512.88,-12.732)">
			<title>工作表.763</title>
			<path d="M0 108.47 L15.38 108.47" class="st2"/>
		</g>
		<g id="shape764-466" v:mID="764" v:groupContext="shape" transform="translate(528.264,-12.732)">
			<title>工作表.764</title>
			<path d="M-0 108.47 L15.38 108.47" class="st2"/>
		</g>
		<g id="shape765-469" v:mID="765" v:groupContext="shape" transform="translate(78.2864,-46.5658)">
			<title>工作表.765</title>
			<desc>idle</desc>
			<v:textBlock v:margins="rect(0,0,0,0)" v:tabSpace="42.5197"/>
			<v:textRect cx="8.11375" cy="103.851" width="16.23" height="9.23179"/>
			<path d="M16.23 99.23 L0 99.23 L0 108.47 L16.23 108.47 L16.23 99.23" class="st3"/>
			<text x="2.13" y="106.16" class="st4" v:langID="2052"><v:paragraph v:horizAlign="1"/><v:tabList/>idle</text>		</g>
		<g id="shape766-473" v:mID="766" v:groupContext="shape" transform="translate(124.438,-46.5658)">
			<title>工作表.766</title>
			<desc>bit0</desc>
			<v:textBlock v:margins="rect(0,0,0,0)" v:tabSpace="42.5197"/>
			<v:textRect cx="8.35996" cy="103.851" width="16.72" height="9.23179"/>
			<path d="M16.72 99.23 L0 99.23 L0 108.47 L16.72 108.47 L16.72 99.23" class="st3"/>
			<text x="2.16" y="106.16" class="st4" v:langID="2052"><v:paragraph v:horizAlign="1"/><v:tabList/>bit0</text>		</g>
		<g id="shape767-477" v:mID="767" v:groupContext="shape" transform="translate(155.206,-46.5658)">
			<title>工作表.767</title>
			<desc>bit1</desc>
			<v:textBlock v:margins="rect(0,0,0,0)" v:tabSpace="42.5197"/>
			<v:textRect cx="8.35996" cy="103.851" width="16.72" height="9.23179"/>
			<path d="M16.72 99.23 L0 99.23 L0 108.47 L16.72 108.47 L16.72 99.23" class="st3"/>
			<text x="2.16" y="106.16" class="st4" v:langID="2052"><v:paragraph v:horizAlign="1"/><v:tabList/>bit1</text>		</g>
		<g id="shape768-481" v:mID="768" v:groupContext="shape" transform="translate(185.973,-46.5658)">
			<title>工作表.768</title>
			<desc>bit2</desc>
			<v:textBlock v:margins="rect(0,0,0,0)" v:tabSpace="42.5197"/>
			<v:textRect cx="8.35996" cy="103.851" width="16.72" height="9.23179"/>
			<path d="M16.72 99.23 L0 99.23 L0 108.47 L16.72 108.47 L16.72 99.23" class="st3"/>
			<text x="2.16" y="106.16" class="st4" v:langID="2052"><v:paragraph v:horizAlign="1"/><v:tabList/>bit2</text>		</g>
		<g id="shape769-485" v:mID="769" v:groupContext="shape" transform="translate(216.741,-46.5658)">
			<title>工作表.769</title>
			<desc>bit3</desc>
			<v:textBlock v:margins="rect(0,0,0,0)" v:tabSpace="42.5197"/>
			<v:textRect cx="8.35996" cy="103.851" width="16.72" height="9.23179"/>
			<path d="M16.72 99.23 L0 99.23 L0 108.47 L16.72 108.47 L16.72 99.23" class="st3"/>
			<text x="2.16" y="106.16" class="st4" v:langID="2052"><v:paragraph v:horizAlign="1"/><v:tabList/>bit3</text>		</g>
		<g id="shape770-489" v:mID="770" v:groupContext="shape" transform="translate(247.509,-46.5658)">
			<title>工作表.770</title>
			<desc>bit4</desc>
			<v:textBlock v:margins="rect(0,0,0,0)" v:tabSpace="42.5197"/>
			<v:textRect cx="8.35996" cy="103.851" width="16.72" height="9.23179"/>
			<path d="M16.72 99.23 L0 99.23 L0 108.47 L16.72 108.47 L16.72 99.23" class="st3"/>
			<text x="2.16" y="106.16" class="st4" v:langID="2052"><v:paragraph v:horizAlign="1"/><v:tabList/>bit4</text>		</g>
		<g id="shape771-493" v:mID="771" v:groupContext="shape" transform="translate(278.277,-46.5658)">
			<title>工作表.771</title>
			<desc>bit5</desc>
			<v:textBlock v:margins="rect(0,0,0,0)" v:tabSpace="42.5197"/>
			<v:textRect cx="8.35996" cy="103.851" width="16.72" height="9.23179"/>
			<path d="M16.72 99.23 L0 99.23 L0 108.47 L16.72 108.47 L16.72 99.23" class="st3"/>
			<text x="2.16" y="106.16" class="st4" v:langID="2052"><v:paragraph v:horizAlign="1"/><v:tabList/>bit5</text>		</g>
		<g id="shape772-497" v:mID="772" v:groupContext="shape" transform="translate(309.044,-46.5658)">
			<title>工作表.772</title>
			<desc>bit6</desc>
			<v:textBlock v:margins="rect(0,0,0,0)" v:tabSpace="42.5197"/>
			<v:textRect cx="8.35996" cy="103.851" width="16.72" height="9.23179"/>
			<path d="M16.72 99.23 L0 99.23 L0 108.47 L16.72 108.47 L16.72 99.23" class="st3"/>
			<text x="2.16" y="106.16" class="st4" v:langID="2052"><v:paragraph v:horizAlign="1"/><v:tabList/>bit6</text>		</g>
		<g id="shape773-501" v:mID="773" v:groupContext="shape" transform="translate(339.812,-46.5658)">
			<title>工作表.773</title>
			<desc>bit7</desc>
			<v:textBlock v:margins="rect(0,0,0,0)" v:tabSpace="42.5197"/>
			<v:textRect cx="8.35996" cy="103.851" width="16.72" height="9.23179"/>
			<path d="M16.72 99.23 L0 99.23 L0 108.47 L16.72 108.47 L16.72 99.23" class="st3"/>
			<text x="2.16" y="106.16" class="st4" v:langID="2052"><v:paragraph v:horizAlign="1"/><v:tabList/>bit7</text>		</g>
		<g id="shape774-505" v:mID="774" v:groupContext="shape" transform="translate(370.58,-46.5658)">
			<title>工作表.774</title>
			<desc>bit8</desc>
			<v:textBlock v:margins="rect(0,0,0,0)" v:tabSpace="42.5197"/>
			<v:textRect cx="8.35996" cy="103.851" width="16.72" height="9.23179"/>
			<path d="M16.72 99.23 L0 99.23 L0 108.47 L16.72 108.47 L16.72 99.23" class="st3"/>
			<text x="2.16" y="106.16" class="st4" v:langID="2052"><v:paragraph v:horizAlign="1"/><v:tabList/>bit8</text>		</g>
		<g id="shape775-509" v:mID="775" v:groupContext="shape" transform="translate(401.347,-46.5658)">
			<title>工作表.775</title>
			<desc>bit9</desc>
			<v:textBlock v:margins="rect(0,0,0,0)" v:tabSpace="42.5197"/>
			<v:textRect cx="8.35996" cy="103.851" width="16.72" height="9.23179"/>
			<path d="M16.72 99.23 L0 99.23 L0 108.47 L16.72 108.47 L16.72 99.23" class="st3"/>
			<text x="2.16" y="106.16" class="st4" v:langID="2052"><v:paragraph v:horizAlign="1"/><v:tabList/>bit9</text>		</g>
		<g id="shape776-513" v:mID="776" v:groupContext="shape" transform="translate(432.115,-46.5658)">
			<title>工作表.776</title>
			<desc>bit10</desc>
			<v:textBlock v:margins="rect(0,0,0,0)" v:tabSpace="42.5197"/>
			<v:textRect cx="10.8192" cy="103.851" width="21.64" height="9.23179"/>
			<path d="M21.64 99.23 L0 99.23 L0 108.47 L21.64 108.47 L21.64 99.23" class="st3"/>
			<text x="2.48" y="106.16" class="st4" v:langID="2052"><v:paragraph v:horizAlign="1"/><v:tabList/>bit10</text>		</g>
		<g id="shape777-517" v:mID="777" v:groupContext="shape" transform="translate(478.267,-46.5658)">
			<title>工作表.777</title>
			<desc>idle</desc>
			<v:textBlock v:margins="rect(0,0,0,0)" v:tabSpace="42.5197"/>
			<v:textRect cx="8.11375" cy="103.851" width="16.23" height="9.23179"/>
			<path d="M16.23 99.23 L0 99.23 L0 108.47 L16.23 108.47 L16.23 99.23" class="st3"/>
			<text x="2.13" y="106.16" class="st4" v:langID="2052"><v:paragraph v:horizAlign="1"/><v:tabList/>idle</text>		</g>
		<g id="shape778-521" v:mID="778" v:groupContext="shape" transform="translate(5.21309,-79.9416)">
			<title>工作表.778</title>
			<desc>RX</desc>
			<v:textBlock v:margins="rect(0,0,0,0)" v:tabSpace="42.5197"/>
			<v:textRect cx="9.5847" cy="102.466" width="19.17" height="12.0003"/>
			<path d="M19.17 96.47 L0 96.47 L0 108.47 L19.17 108.47 L19.17 96.47" class="st3"/>
			<text x="2.64" y="105.47" class="st5" v:langID="2052"><v:paragraph v:horizAlign="1"/><v:tabList/>RX</text>		</g>
		<g id="shape779-525" v:mID="779" v:groupContext="shape" transform="translate(5.21309,-46.1043)">
			<title>工作表.779</title>
			<desc>Break State</desc>
			<v:textBlock v:margins="rect(0,0,0,0)" v:tabSpace="42.5197"/>
			<v:textRect cx="31.6353" cy="102.466" width="63.28" height="12.0003"/>
			<path d="M63.27 96.47 L0 96.47 L0 108.47 L63.27 108.47 L63.27 96.47" class="st3"/>
			<text x="5.52" y="105.47" class="st5" v:langID="2052"><v:paragraph v:horizAlign="1"/><v:tabList/>Break State</text>		</g>
		<g id="shape780-529" v:mID="780" v:groupContext="shape" transform="translate(5.21309,-12.267)">
			<title>工作表.780</title>
			<desc>LINBRKST</desc>
			<v:textBlock v:margins="rect(0,0,0,0)" v:tabSpace="42.5197"/>
			<v:textRect cx="29.7098" cy="102.466" width="59.42" height="12.0003"/>
			<path d="M59.42 96.47 L0 96.47 L0 108.47 L59.42 108.47 L59.42 96.47" class="st3"/>
			<text x="5.27" y="105.47" class="st5" v:langID="2052"><v:paragraph v:horizAlign="1"/><v:tabList/>LINBRKST</text>		</g>
		<g id="shape781-533" v:mID="781" v:groupContext="shape" transform="translate(0.375,-0.375)">
			<title>工作表.781</title>
			<rect x="0" y="0.75" width="555.591" height="107.717" class="st6"/>
		</g>
		<g id="shape788-535" v:mID="788" v:groupContext="shape" transform="translate(575.195,12.8758) rotate(90)">
			<title>工作表.788</title>
			<path d="M0 108.47 L56.69 108.47" class="st7"/>
		</g>
	</g>
</svg>
