<?xml version="1.0" encoding="UTF-8" standalone="no"?>
<!DOCTYPE svg PUBLIC "-//W3C//DTD SVG 1.1//EN" "http://www.w3.org/Graphics/SVG/1.1/DTD/svg11.dtd">
<!-- 由 Microsoft Visio, SVG Export 生成 auto_baud_rate.svg 页-1 -->
<svg xmlns="http://www.w3.org/2000/svg" xmlns:xlink="http://www.w3.org/1999/xlink" xmlns:ev="http://www.w3.org/2001/xml-events"
		xmlns:v="http://schemas.microsoft.com/visio/2003/SVGExtensions/" width="5.82042in" height="3.83556in"
		viewBox="0 0 419.07 276.161" xml:space="preserve" color-interpolation-filters="sRGB" class="st14">
	<v:documentProperties v:langID="2052" v:metric="true" v:viewMarkup="false">
		<v:userDefs>
			<v:ud v:nameU="msvConvertTheme"/>
		</v:userDefs>
	</v:documentProperties>

	<style type="text/css">
	<![CDATA[
		.st1 {fill:none;stroke:none;stroke-linecap:round;stroke-linejoin:round;stroke-width:0.72}
		.st2 {fill:#000000;font-family:宋体;font-size:0.833336em}
		.st3 {fill:#e8eef7;fill-opacity:0;stroke:#000000;stroke-linecap:round;stroke-linejoin:round;stroke-width:0.24}
		.st4 {stroke:#000000;stroke-linecap:round;stroke-linejoin:round;stroke-width:0.24}
		.st5 {fill:#000000;font-family:宋体;font-size:0.499992em}
		.st6 {marker-end:url(#mrkr1-144);stroke:#000000;stroke-linecap:round;stroke-linejoin:round;stroke-width:0.24}
		.st7 {fill:#000000;fill-opacity:1;stroke:#000000;stroke-opacity:1;stroke-width:0.08695652173913}
		.st8 {stroke:#000000;stroke-dasharray:1.68,1.2;stroke-linecap:round;stroke-linejoin:round;stroke-width:0.24}
		.st9 {marker-start:url(#mrkr1-182);stroke:#000000;stroke-linecap:round;stroke-linejoin:round;stroke-width:0.24}
		.st10 {marker-end:url(#mrkr5-207);marker-start:url(#mrkr5-205);stroke:#000000;stroke-linecap:round;stroke-linejoin:round;stroke-width:0.24}
		.st11 {stroke:#000000;stroke-dasharray:0.24,0.48;stroke-linecap:round;stroke-linejoin:round;stroke-width:0.24}
		.st12 {fill:#000000;font-family:宋体;font-size:0.666664em}
		.st13 {fill:#e8eef7;fill-opacity:0;stroke:#000000;stroke-linecap:round;stroke-linejoin:round;stroke-width:1.2}
		.st14 {fill:none;fill-rule:evenodd;font-size:12px;overflow:visible;stroke-linecap:square;stroke-miterlimit:3}
	]]>
	</style>

	<defs id="Markers">
		<g id="lend1">
			<path d="M 1 -1 L 0 0 L 1 1 " style="stroke-linecap:round;stroke-linejoin:round;fill:none"/>
		</g>
		<marker id="mrkr1-144" class="st7" v:arrowType="1" v:arrowSize="2" orient="auto" markerUnits="strokeWidth"
				overflow="visible">
			<use xlink:href="#lend1" transform="scale(-11.5,-11.5) "/>
		</marker>
		<marker id="mrkr1-182" class="st7" v:arrowType="1" v:arrowSize="2" orient="auto" markerUnits="strokeWidth"
				overflow="visible">
			<use xlink:href="#lend1" transform="scale(11.5) "/>
		</marker>
		<g id="lend5">
			<path d="M 2 1 L 0 0 L 1.98117 -0.993387 C 1.67173 -0.364515 1.67301 0.372641 1.98465 1.00043 " style="stroke:none"/>
		</g>
		<marker id="mrkr5-205" class="st7" v:arrowType="5" v:arrowSize="2" v:setback="18.625" refX="18.625" orient="auto"
				markerUnits="strokeWidth" overflow="visible">
			<use xlink:href="#lend5" transform="scale(11.5) "/>
		</marker>
		<marker id="mrkr5-207" class="st7" v:arrowType="5" v:arrowSize="2" v:setback="20.125" refX="-20.125" orient="auto"
				markerUnits="strokeWidth" overflow="visible">
			<use xlink:href="#lend5" transform="scale(-11.5,-11.5) "/>
		</marker>
	</defs>
	<g v:mID="0" v:index="1" v:groupContext="foregroundPage">
		<title>页-1</title>
		<v:pageProperties v:drawingScale="0.0393701" v:pageScale="0.0393701" v:drawingUnits="24" v:shadowOffsetX="8.50394"
				v:shadowOffsetY="-8.50394"/>
		<g id="group122-1" transform="translate(0.36,-20.4425)" v:mID="122" v:groupContext="group">
			<title>工作表.122</title>
			<g id="shape29-2" v:mID="29" v:groupContext="shape" transform="translate(35.4173,-158.74)">
				<title>工作表.29</title>
				<desc>RX_PIN</desc>
				<v:textBlock v:margins="rect(4,4,4,4)" v:tabSpace="42.5197"/>
				<v:textRect cx="25.5276" cy="269.181" width="51.06" height="13.96"/>
				<rect x="0" y="262.201" width="51.0551" height="13.96" class="st1"/>
				<text x="10.53" y="272.18" class="st2" v:langID="2052"><v:paragraph v:horizAlign="1"/><v:tabList/>RX_PIN</text>			</g>
			<g id="group58-5" transform="translate(150.236,-73.7008)" v:mID="58" v:groupContext="group">
				<title>工作表.58</title>
				<g id="group41-6" v:mID="41" v:groupContext="group">
					<title>工作表.41</title>
					<g id="group33-7" v:mID="33" v:groupContext="group">
						<title>工作表.33</title>
						<g id="shape28-8" v:mID="28" v:groupContext="shape">
							<title>六边形</title>
							<v:userDefs>
								<v:ud v:nameU="visVersion" v:val="VT0(12):26"/>
							</v:userDefs>
							<path d="M6.71 259.15 L1.8 259.15 L-0.66 267.66 L1.8 276.16 L6.71 276.16 L9.16 267.66 L6.71 259.15 Z"
									class="st3"/>
						</g>
						<g id="shape31-10" v:mID="31" v:groupContext="shape" transform="translate(9.92126,-5.68434E-14)">
							<title>六边形.31</title>
							<v:userDefs>
								<v:ud v:nameU="visVersion" v:val="VT0(12):26"/>
							</v:userDefs>
							<path d="M6.71 259.15 L1.8 259.15 L-0.66 267.66 L1.8 276.16 L6.71 276.16 L9.16 267.66 L6.71 259.15 Z"
									class="st3"/>
						</g>
						<g id="shape32-12" v:mID="32" v:groupContext="shape" transform="translate(19.8425,-5.68434E-14)">
							<title>六边形.32</title>
							<v:userDefs>
								<v:ud v:nameU="visVersion" v:val="VT0(12):26"/>
							</v:userDefs>
							<path d="M6.71 259.15 L1.8 259.15 L-0.66 267.66 L1.8 276.16 L6.71 276.16 L9.16 267.66 L6.71 259.15 Z"
									class="st3"/>
						</g>
					</g>
					<g id="group34-14" transform="translate(29.7638,-5.68434E-14)" v:mID="34" v:groupContext="group">
						<title>工作表.34</title>
						<g id="shape35-15" v:mID="35" v:groupContext="shape">
							<title>六边形</title>
							<v:userDefs>
								<v:ud v:nameU="visVersion" v:val="VT0(12):26"/>
							</v:userDefs>
							<path d="M6.04 259.15 L1.62 259.15 L-0.59 267.66 L1.62 276.16 L6.04 276.16 L8.25 267.66 L6.04 259.15 Z"
									class="st3"/>
						</g>
						<g id="shape36-17" v:mID="36" v:groupContext="shape" transform="translate(8.92913,-5.68434E-14)">
							<title>六边形.31</title>
							<v:userDefs>
								<v:ud v:nameU="visVersion" v:val="VT0(12):26"/>
							</v:userDefs>
							<path d="M6.04 259.15 L1.62 259.15 L-0.59 267.66 L1.62 276.16 L6.04 276.16 L8.25 267.66 L6.04 259.15 Z"
									class="st3"/>
						</g>
						<g id="shape37-19" v:mID="37" v:groupContext="shape" transform="translate(17.8583,-5.68434E-14)">
							<title>六边形.32</title>
							<v:userDefs>
								<v:ud v:nameU="visVersion" v:val="VT0(12):26"/>
							</v:userDefs>
							<path d="M6.04 259.15 L1.62 259.15 L-0.59 267.66 L1.62 276.16 L6.04 276.16 L8.25 267.66 L6.04 259.15 Z"
									class="st3"/>
						</g>
					</g>
					<g id="group30-21" transform="translate(56.6929,1.13687E-13)" v:mID="30" v:groupContext="group">
						<title>工作表.30</title>
						<g id="shape38-22" v:mID="38" v:groupContext="shape">
							<title>六边形</title>
							<v:userDefs>
								<v:ud v:nameU="visVersion" v:val="VT0(12):26"/>
							</v:userDefs>
							<path d="M6.37 259.15 L1.71 259.15 L-0.62 267.66 L1.71 276.16 L6.37 276.16 L8.7 267.66 L6.37 259.15 Z"
									class="st3"/>
						</g>
						<g id="shape39-24" v:mID="39" v:groupContext="shape" transform="translate(9.4252,-5.68434E-14)">
							<title>六边形.31</title>
							<v:userDefs>
								<v:ud v:nameU="visVersion" v:val="VT0(12):26"/>
							</v:userDefs>
							<path d="M6.37 259.15 L1.71 259.15 L-0.62 267.66 L1.71 276.16 L6.37 276.16 L8.7 267.66 L6.37 259.15 Z"
									class="st3"/>
						</g>
						<g id="shape40-26" v:mID="40" v:groupContext="shape" transform="translate(18.8504,-5.68434E-14)">
							<title>六边形.32</title>
							<v:userDefs>
								<v:ud v:nameU="visVersion" v:val="VT0(12):26"/>
							</v:userDefs>
							<path d="M6.37 259.15 L1.71 259.15 L-0.62 267.66 L1.71 276.16 L6.37 276.16 L8.7 267.66 L6.37 259.15 Z"
									class="st3"/>
						</g>
					</g>
				</g>
				<g id="group42-28" transform="translate(85.0394,1.13687E-13)" v:mID="42" v:groupContext="group">
					<title>工作表.42</title>
					<g id="shape44-29" v:mID="44" v:groupContext="shape" transform="translate(10.4173,-5.68434E-14)">
						<title>六边形.31</title>
						<v:userDefs>
							<v:ud v:nameU="visVersion" v:val="VT0(12):26"/>
						</v:userDefs>
						<path d="M7.04 259.15 L1.89 259.15 L-0.69 267.66 L1.89 276.16 L7.04 276.16 L9.62 267.66 L7.04 259.15 Z"
								class="st3"/>
					</g>
					<g id="shape45-31" v:mID="45" v:groupContext="shape" transform="translate(20.8346,-5.68434E-14)">
						<title>六边形.32</title>
						<v:userDefs>
							<v:ud v:nameU="visVersion" v:val="VT0(12):26"/>
						</v:userDefs>
						<path d="M7.04 259.15 L1.89 259.15 L-0.69 267.66 L1.89 276.16 L7.04 276.16 L9.62 267.66 L7.04 259.15 Z"
								class="st3"/>
					</g>
				</g>
				<g id="group46-33" transform="translate(116.22,1.13687E-13)" v:mID="46" v:groupContext="group">
					<title>工作表.46</title>
					<g id="shape47-34" v:mID="47" v:groupContext="shape">
						<title>六边形</title>
						<v:userDefs>
							<v:ud v:nameU="visVersion" v:val="VT0(12):26"/>
						</v:userDefs>
						<path d="M6.04 259.15 L1.62 259.15 L-0.59 267.66 L1.62 276.16 L6.04 276.16 L8.25 267.66 L6.04 259.15 Z"
								class="st3"/>
					</g>
					<g id="shape48-36" v:mID="48" v:groupContext="shape" transform="translate(8.92913,-5.68434E-14)">
						<title>六边形.31</title>
						<v:userDefs>
							<v:ud v:nameU="visVersion" v:val="VT0(12):26"/>
						</v:userDefs>
						<path d="M6.04 259.15 L1.62 259.15 L-0.59 267.66 L1.62 276.16 L6.04 276.16 L8.25 267.66 L6.04 259.15 Z"
								class="st3"/>
					</g>
					<g id="shape49-38" v:mID="49" v:groupContext="shape" transform="translate(17.8583,-5.68434E-14)">
						<title>六边形.32</title>
						<v:userDefs>
							<v:ud v:nameU="visVersion" v:val="VT0(12):26"/>
						</v:userDefs>
						<path d="M6.04 259.15 L1.62 259.15 L-0.59 267.66 L1.62 276.16 L6.04 276.16 L8.25 267.66 L6.04 259.15 Z"
								class="st3"/>
					</g>
				</g>
				<g id="group50-40" transform="translate(143.15,1.13687E-13)" v:mID="50" v:groupContext="group">
					<title>工作表.50</title>
					<g id="shape51-41" v:mID="51" v:groupContext="shape">
						<title>六边形</title>
						<v:userDefs>
							<v:ud v:nameU="visVersion" v:val="VT0(12):26"/>
						</v:userDefs>
						<path d="M6.04 259.15 L1.62 259.15 L-0.59 267.66 L1.62 276.16 L6.04 276.16 L8.25 267.66 L6.04 259.15 Z"
								class="st3"/>
					</g>
					<g id="shape52-43" v:mID="52" v:groupContext="shape" transform="translate(8.92913,-5.68434E-14)">
						<title>六边形.31</title>
						<v:userDefs>
							<v:ud v:nameU="visVersion" v:val="VT0(12):26"/>
						</v:userDefs>
						<path d="M6.04 259.15 L1.62 259.15 L-0.59 267.66 L1.62 276.16 L6.04 276.16 L8.25 267.66 L6.04 259.15 Z"
								class="st3"/>
					</g>
					<g id="shape53-45" v:mID="53" v:groupContext="shape" transform="translate(17.8583,-5.68434E-14)">
						<title>六边形.32</title>
						<v:userDefs>
							<v:ud v:nameU="visVersion" v:val="VT0(12):26"/>
						</v:userDefs>
						<path d="M6.04 259.15 L1.62 259.15 L-0.59 267.66 L1.62 276.16 L6.04 276.16 L8.25 267.66 L6.04 259.15 Z"
								class="st3"/>
					</g>
				</g>
				<g id="group54-47" transform="translate(170.079,1.13687E-13)" v:mID="54" v:groupContext="group">
					<title>工作表.54</title>
					<g id="shape55-48" v:mID="55" v:groupContext="shape">
						<title>六边形</title>
						<v:userDefs>
							<v:ud v:nameU="visVersion" v:val="VT0(12):26"/>
						</v:userDefs>
						<path d="M6.04 259.15 L1.62 259.15 L-0.59 267.66 L1.62 276.16 L6.04 276.16 L8.25 267.66 L6.04 259.15 Z"
								class="st3"/>
					</g>
					<g id="shape56-50" v:mID="56" v:groupContext="shape" transform="translate(8.92913,-5.68434E-14)">
						<title>六边形.31</title>
						<v:userDefs>
							<v:ud v:nameU="visVersion" v:val="VT0(12):26"/>
						</v:userDefs>
						<path d="M6.04 259.15 L1.62 259.15 L-0.59 267.66 L1.62 276.16 L6.04 276.16 L8.25 267.66 L6.04 259.15 Z"
								class="st3"/>
					</g>
					<g id="shape57-52" v:mID="57" v:groupContext="shape" transform="translate(17.8583,-5.68434E-14)">
						<title>六边形.32</title>
						<v:userDefs>
							<v:ud v:nameU="visVersion" v:val="VT0(12):26"/>
						</v:userDefs>
						<path d="M6.04 259.15 L1.62 259.15 L-0.59 267.66 L1.62 276.16 L6.04 276.16 L8.25 267.66 L6.04 259.15 Z"
								class="st3"/>
					</g>
				</g>
			</g>
			<g id="shape43-54" v:mID="43" v:groupContext="shape" transform="translate(235.276,-73.7008)">
				<title>工作表.43</title>
				<path d="M4.25 259.15 L1.42 266.24 L4.68 266.24 L0 276.16" class="st4"/>
			</g>
			<g id="shape59-57" v:mID="59" v:groupContext="shape" transform="translate(239.528,-73.7008)">
				<title>工作表.59</title>
				<path d="M4.25 259.15 L1.42 266.24 L4.68 266.24 L0 276.16" class="st4"/>
			</g>
			<g id="shape60-60" v:mID="60" v:groupContext="shape" transform="translate(109.134,-33.8108)">
				<title>工作表.60</title>
				<path d="M0 276.16 L35.58 276.16 L35.58 258.95 L238.11 258.95" class="st4"/>
			</g>
			<g id="shape61-63" v:mID="61" v:groupContext="shape" transform="translate(347.244,-34.0157)">
				<title>工作表.61</title>
				<path d="M0 259.15 L0 276.16 L34.02 276.16" class="st4"/>
			</g>
			<g id="group65-66" transform="translate(134.114,-1.41732)" v:mID="65" v:groupContext="group">
				<title>工作表.65</title>
				<g id="shape62-67" v:mID="62" v:groupContext="shape" transform="translate(2.42296,-15.5905) rotate(0.0468361)">
					<title>工作表.62</title>
					<path d="M0 276.16 L208.06 276.16" class="st4"/>
				</g>
				<g id="shape63-70" v:mID="63" v:groupContext="shape" transform="translate(267.266,338.052) rotate(106.294)">
					<title>工作表.63</title>
					<path d="M0 276.16 L16.24 276.16" class="st4"/>
				</g>
				<g id="shape66-73" v:mID="66" v:groupContext="shape" transform="translate(261.136,178.787) rotate(72.7739)">
					<title>工作表.66</title>
					<path d="M0 276.16 L16.32 276.16" class="st4"/>
				</g>
				<g id="shape67-76" v:mID="67" v:groupContext="shape" transform="translate(2.19722,0)">
					<title>工作表.67</title>
					<path d="M0 276.16 L208 276.16" class="st4"/>
				</g>
				<g id="shape64-79" v:mID="64" v:groupContext="shape" transform="translate(210.2,0)">
					<title>工作表.64</title>
					<path d="M0 276.16 L2.38 269.07 L0 260.57" class="st4"/>
				</g>
			</g>
			<g id="shape76-82" v:mID="76" v:groupContext="shape" transform="translate(346.419,-73.7008)">
				<title>工作表.76</title>
				<path d="M24.92 259.15 L3.66 259.15 L0 267.66 L3.66 276.16 L24.92 276.16" class="st4"/>
			</g>
			<g id="shape77-85" v:mID="77" v:groupContext="shape" transform="translate(145.984,-73.7008)">
				<title>工作表.77</title>
				<path d="M0 259.15 L3.59 267.66 L0 276.16" class="st4"/>
			</g>
			<g id="shape78-88" v:mID="78" v:groupContext="shape" transform="translate(145.984,461.613) rotate(180)">
				<title>工作表.78</title>
				<path d="M0 276.16 L36.85 276.16" class="st4"/>
			</g>
			<g id="shape79-91" v:mID="79" v:groupContext="shape" transform="translate(145.984,478.62) rotate(180)">
				<title>工作表.79</title>
				<path d="M0 276.16 L36.85 276.16" class="st4"/>
			</g>
			<g id="group81-94" transform="translate(75.1181,-150.591)" v:mID="81" v:groupContext="group">
				<title>工作表.81</title>
				<g id="group27-95" v:mID="27" v:groupContext="group">
					<title>工作表.27</title>
					<g id="shape12-96" v:mID="12" v:groupContext="shape" transform="translate(71.7953,-4.96063)">
						<title>工作表.12</title>
						<desc>start</desc>
						<v:textBlock v:margins="rect(4,4,4,4)" v:tabSpace="42.5197"/>
						<v:textRect cx="12.2913" cy="274.035" width="24.59" height="4.25197"/>
						<rect x="0" y="271.909" width="24.5827" height="4.25197" class="st1"/>
						<text x="4.79" y="275.83" class="st5" v:langID="2052"><v:paragraph v:horizAlign="1"/><v:tabList/>start</text>					</g>
					<g id="shape16-99" v:mID="16" v:groupContext="shape" transform="translate(92.5906,-4.25197)">
						<title>工作表.16</title>
						<desc>bit0</desc>
						<v:textBlock v:margins="rect(4,4,4,4)" v:tabSpace="42.5197"/>
						<v:textRect cx="12.2913" cy="274.035" width="24.59" height="4.25197"/>
						<rect x="0" y="271.909" width="24.5827" height="4.25197" class="st1"/>
						<text x="6.29" y="275.83" class="st5" v:langID="2052"><v:paragraph v:horizAlign="1"/><v:tabList/>bit0</text>					</g>
					<g id="shape17-102" v:mID="17" v:groupContext="shape" transform="translate(148.331,-4.25197)">
						<title>工作表.17</title>
						<desc>bit3</desc>
						<v:textBlock v:margins="rect(4,4,4,4)" v:tabSpace="42.5197"/>
						<v:textRect cx="12.2913" cy="274.035" width="24.59" height="4.25197"/>
						<rect x="0" y="271.909" width="24.5827" height="4.25197" class="st1"/>
						<text x="6.29" y="275.83" class="st5" v:langID="2052"><v:paragraph v:horizAlign="1"/><v:tabList/>bit3</text>					</g>
					<g id="shape18-105" v:mID="18" v:groupContext="shape" transform="translate(127.559,-4.25197)">
						<title>工作表.18</title>
						<desc>bit2</desc>
						<v:textBlock v:margins="rect(4,4,4,4)" v:tabSpace="42.5197"/>
						<v:textRect cx="14.1732" cy="274.035" width="28.35" height="4.25197"/>
						<rect x="0" y="271.909" width="28.3465" height="4.25197" class="st1"/>
						<text x="7" y="275.83" class="st5" v:langID="2052"><v:paragraph/><v:tabList/>bit2</text>					</g>
					<g id="shape19-108" v:mID="19" v:groupContext="shape" transform="translate(187.087,-4.25197)">
						<title>工作表.19</title>
						<desc>bit5</desc>
						<v:textBlock v:margins="rect(4,4,4,4)" v:tabSpace="42.5197"/>
						<v:textRect cx="12.2913" cy="274.035" width="24.59" height="4.25197"/>
						<rect x="0" y="271.909" width="24.5827" height="4.25197" class="st1"/>
						<text x="6.29" y="275.83" class="st5" v:langID="2052"><v:paragraph v:horizAlign="1"/><v:tabList/>bit5</text>					</g>
					<g id="shape20-111" v:mID="20" v:groupContext="shape" transform="translate(167.709,-4.25197)">
						<title>工作表.20</title>
						<desc>bit4</desc>
						<v:textBlock v:margins="rect(4,4,4,4)" v:tabSpace="42.5197"/>
						<v:textRect cx="12.2913" cy="274.035" width="24.59" height="4.25197"/>
						<rect x="0" y="271.909" width="24.5827" height="4.25197" class="st1"/>
						<text x="6.29" y="275.83" class="st5" v:langID="2052"><v:paragraph v:horizAlign="1"/><v:tabList/>bit4</text>					</g>
					<g id="shape21-114" v:mID="21" v:groupContext="shape" transform="translate(264.551,-4.96063)">
						<title>工作表.21</title>
						<desc>stop</desc>
						<v:textBlock v:margins="rect(4,4,4,4)" v:tabSpace="42.5197"/>
						<v:textRect cx="12.2913" cy="274.035" width="24.59" height="4.25197"/>
						<rect x="0" y="271.909" width="24.5827" height="4.25197" class="st1"/>
						<text x="6.29" y="275.83" class="st5" v:langID="2052"><v:paragraph v:horizAlign="1"/><v:tabList/>stop</text>					</g>
					<g id="shape22-117" v:mID="22" v:groupContext="shape" transform="translate(241.874,-4.96063)">
						<title>工作表.22</title>
						<desc>parity</desc>
						<v:textBlock v:margins="rect(4,4,4,4)" v:tabSpace="42.5197"/>
						<v:textRect cx="15.126" cy="274.035" width="30.26" height="4.25197"/>
						<rect x="0" y="271.909" width="30.252" height="4.25197" class="st1"/>
						<text x="6.13" y="275.83" class="st5" v:langID="2052"><v:paragraph v:horizAlign="1"/><v:tabList/>parity</text>					</g>
					<g id="shape23-120" v:mID="23" v:groupContext="shape" transform="translate(205.512,-4.25197)">
						<title>工作表.23</title>
						<desc>bit6</desc>
						<v:textBlock v:margins="rect(4,4,4,4)" v:tabSpace="42.5197"/>
						<v:textRect cx="12.2913" cy="274.035" width="24.59" height="4.25197"/>
						<rect x="0" y="271.909" width="24.5827" height="4.25197" class="st1"/>
						<text x="6.29" y="275.83" class="st5" v:langID="2052"><v:paragraph v:horizAlign="1"/><v:tabList/>bit6</text>					</g>
					<g id="shape24-123" v:mID="24" v:groupContext="shape" transform="translate(223.937,-4.25197)">
						<title>工作表.24</title>
						<desc>bit7</desc>
						<v:textBlock v:margins="rect(4,4,4,4)" v:tabSpace="42.5197"/>
						<v:textRect cx="12.2913" cy="274.035" width="24.59" height="4.25197"/>
						<rect x="0" y="271.909" width="24.5827" height="4.25197" class="st1"/>
						<text x="6.29" y="275.83" class="st5" v:langID="2052"><v:paragraph v:horizAlign="1"/><v:tabList/>bit7</text>					</g>
					<g id="shape25-126" v:mID="25" v:groupContext="shape" transform="translate(111.48,-4.25197)">
						<title>工作表.25</title>
						<desc>bit1</desc>
						<v:textBlock v:margins="rect(4,4,4,4)" v:tabSpace="42.5197"/>
						<v:textRect cx="12.2913" cy="274.035" width="24.59" height="4.25197"/>
						<rect x="0" y="271.909" width="24.5827" height="4.25197" class="st1"/>
						<text x="6.29" y="275.83" class="st5" v:langID="2052"><v:paragraph v:horizAlign="1"/><v:tabList/>bit1</text>					</g>
					<g id="group26-129" transform="translate(-2.26772,0)" v:mID="26" v:groupContext="group">
						<title>工作表.26</title>
						<g id="shape2-130" v:mID="2" v:groupContext="shape" transform="translate(36.8504,-15.5906)">
							<title>工作表.2</title>
							<path d="M0 276.16 L39.47 276.16" class="st4"/>
						</g>
						<g id="shape1-133" v:mID="1" v:groupContext="shape" transform="translate(95.3967,-15.5906)">
							<title>工作表.1</title>
							<path d="M0 276.16 L202.24 276.16" class="st4"/>
						</g>
						<g id="shape5-136" v:mID="5" v:groupContext="shape" transform="translate(76.3174,0)">
							<title>工作表.5</title>
							<path d="M0 276.16 L190.79 276.16" class="st4"/>
						</g>
						<g id="shape3-139" v:mID="3" v:groupContext="shape" transform="translate(352.478,203.169) rotate(90)">
							<title>工作表.3</title>
							<path d="M0 276.16 L72.99 276.16" class="st6"/>
						</g>
						<g id="shape4-145" v:mID="4" v:groupContext="shape" transform="translate(-180.764,276.161) rotate(-90)">
							<title>工作表.4</title>
							<path d="M0 276.16 L15.59 276.16" class="st6"/>
						</g>
						<g id="shape6-150" v:mID="6" v:groupContext="shape" transform="translate(-161.685,276.161) rotate(-90)">
							<title>工作表.6</title>
							<path d="M0 276.16 L15.59 276.16" class="st6"/>
						</g>
						<g id="shape7-155" v:mID="7" v:groupContext="shape" transform="translate(-123.526,276.161) rotate(-90)">
							<title>工作表.7</title>
							<path d="M0 276.16 L15.59 276.16" class="st6"/>
						</g>
						<g id="shape8-160" v:mID="8" v:groupContext="shape" transform="translate(-9.04979,276.161) rotate(-90)">
							<title>工作表.8</title>
							<path d="M0 276.16 L15.59 276.16" class="st6"/>
						</g>
						<g id="shape9-165" v:mID="9" v:groupContext="shape" transform="translate(409.716,260.57) rotate(90)">
							<title>工作表.9</title>
							<path d="M0 276.16 L15.59 276.16" class="st8"/>
						</g>
						<g id="shape10-168" v:mID="10" v:groupContext="shape" transform="translate(447.875,260.57) rotate(90)">
							<title>工作表.10</title>
							<path d="M0 276.16 L15.59 276.16" class="st8"/>
						</g>
						<g id="shape11-171" v:mID="11" v:groupContext="shape" transform="translate(466.954,260.57) rotate(90)">
							<title>工作表.11</title>
							<path d="M0 276.16 L15.59 276.16" class="st8"/>
						</g>
						<g id="shape13-174" v:mID="13" v:groupContext="shape" transform="translate(486.033,260.57) rotate(90)">
							<title>工作表.13</title>
							<path d="M0 276.16 L15.59 276.16" class="st8"/>
						</g>
						<g id="shape14-177" v:mID="14" v:groupContext="shape" transform="translate(505.113,260.57) rotate(90)">
							<title>工作表.14</title>
							<path d="M0 276.16 L15.59 276.16" class="st9"/>
						</g>
						<g id="shape15-183" v:mID="15" v:groupContext="shape" transform="translate(524.192,260.57) rotate(90)">
							<title>工作表.15</title>
							<path d="M0 276.16 L15.59 276.16" class="st8"/>
						</g>
					</g>
				</g>
				<g id="group80-186" transform="translate(74.0497,-15.9449)" v:mID="80" v:groupContext="group">
					<title>工作表.80</title>
					<g id="shape68-187" v:mID="68" v:groupContext="shape" transform="translate(-257.081,276.161) rotate(-90)">
						<title>工作表.68</title>
						<path d="M0 276.16 L12.05 276.16" class="st4"/>
					</g>
					<g id="shape69-190" v:mID="69" v:groupContext="shape" transform="translate(-238.002,275.452) rotate(-90)">
						<title>工作表.69</title>
						<path d="M0 276.16 L28.35 276.16" class="st4"/>
					</g>
					<g id="shape70-193" v:mID="70" v:groupContext="shape" transform="translate(-199.974,276.161) rotate(-90)">
						<title>工作表.70</title>
						<path d="M0 276.16 L40.39 276.16" class="st4"/>
					</g>
					<g id="shape71-196" v:mID="71" v:groupContext="shape" transform="translate(-123.439,276.161) rotate(-90)">
						<title>工作表.71</title>
						<path d="M0 276.16 L57.4 276.16" class="st4"/>
					</g>
					<g id="shape72-199" v:mID="72" v:groupContext="shape" transform="translate(0,-7.79528)">
						<title>工作表.72</title>
						<path d="M4.47 276.16 L4.83 276.16 L14.25 276.16" class="st10"/>
					</g>
					<g id="shape73-208" v:mID="73" v:groupContext="shape" transform="translate(0,-23.3858)">
						<title>工作表.73</title>
						<path d="M4.47 276.16 L4.83 276.16 L33.33 276.16" class="st10"/>
					</g>
					<g id="shape74-215" v:mID="74" v:groupContext="shape" transform="translate(0,-38.9764)">
						<title>工作表.74</title>
						<path d="M4.47 276.16 L4.83 276.16 L71.36 276.16" class="st10"/>
					</g>
					<g id="shape75-222" v:mID="75" v:groupContext="shape" transform="translate(0,-54.5669)">
						<title>工作表.75</title>
						<path d="M4.47 276.16 L4.83 276.16 L147.89 276.16" class="st10"/>
					</g>
				</g>
			</g>
			<g id="shape82-229" v:mID="82" v:groupContext="shape" transform="translate(251,441.981) rotate(-158.958)">
				<title>工作表.82</title>
				<path d="M-0 265.75 A169.083 28.3216 -7.41 0 0 190.46 265.75" class="st11"/>
			</g>
			<g id="shape83-232" v:mID="83" v:groupContext="shape" transform="translate(241.844,435.438) rotate(-156.585)">
				<title>工作表.83</title>
				<path d="M0 263.15 A149.688 36.1017 -10.26 0 0 172.09 263.15" class="st11"/>
			</g>
			<g id="shape84-235" v:mID="84" v:groupContext="shape" transform="translate(225.354,-82.2047)">
				<title>工作表.84</title>
				<path d="M74.27 207.77 A68.3858 46.7967 90 0 1 121.06 276.16 A113.348 42.8842 -164.1 0 0 -0 207.77" class="st11"/>
			</g>
			<g id="shape85-238" v:mID="85" v:groupContext="shape" transform="translate(111.969,-17.0079)">
				<title>工作表.85</title>
				<path d="M0 276.16 L19.57 276.16" class="st4"/>
			</g>
			<g id="shape86-241" v:mID="86" v:groupContext="shape" transform="translate(109.134,-1.41732)">
				<title>工作表.86</title>
				<path d="M0 276.16 L22.68 276.16" class="st4"/>
			</g>
			<g id="shape90-244" v:mID="90" v:groupContext="shape" transform="translate(148.819,-79.3701)">
				<title>工作表.90</title>
				<desc>0</desc>
				<v:textBlock v:margins="rect(4,4,4,4)" v:tabSpace="42.5197"/>
				<v:textRect cx="3.32283" cy="273.578" width="6.65" height="5.16535"/>
				<rect x="0" y="270.995" width="6.64567" height="5.16535" class="st1"/>
				<text x="4" y="275.98" class="st12" v:langID="2052"><v:paragraph v:horizAlign="1"/><v:tabList/>0</text>			</g>
			<g id="shape91-247" v:mID="91" v:groupContext="shape" transform="translate(158.724,-76.1992)">
				<title>工作表.91</title>
				<desc>1</desc>
				<v:textBlock v:margins="rect(4,4,4,4)" v:tabSpace="42.5197"/>
				<v:textRect cx="4.26772" cy="270.155" width="8.54" height="12.0111"/>
				<rect x="0" y="264.15" width="8.53543" height="12.0111" class="st1"/>
				<text x="4" y="272.56" class="st12" v:langID="2052"><v:paragraph v:horizAlign="1"/><v:tabList/>1</text>			</g>
			<g id="shape92-250" v:mID="92" v:groupContext="shape" transform="translate(168.661,-79.622)">
				<title>工作表.92</title>
				<desc>2</desc>
				<v:textBlock v:margins="rect(4,4,4,4)" v:tabSpace="42.5197"/>
				<v:textRect cx="6.15748" cy="273.578" width="12.32" height="5.16535"/>
				<rect x="0" y="270.995" width="12.315" height="5.16535" class="st1"/>
				<text x="4.16" y="275.98" class="st12" v:langID="2052"><v:paragraph v:horizAlign="1"/><v:tabList/>2</text>			</g>
			<g id="shape93-253" v:mID="93" v:groupContext="shape" transform="translate(178.583,-82.2047)">
				<title>工作表.93</title>
				<desc>3</desc>
				<v:textBlock v:margins="rect(4,4,4,4)" v:tabSpace="42.5197"/>
				<v:textRect cx="1.41732" cy="276.161" width="2.84" height="0"/>
				<path d="M0 276.16 L2.83 276.16 L0 276.16 Z" class="st1"/>
				<text x="4" y="278.56" class="st12" v:langID="2052"><v:paragraph v:horizAlign="1"/><v:tabList/>3</text>			</g>
			<g id="shape94-256" v:mID="94" v:groupContext="shape" transform="translate(185.669,-78.5622)">
				<title>工作表.94</title>
				<desc>..</desc>
				<v:textBlock v:margins="rect(4,4,4,4)" v:tabSpace="42.5197"/>
				<v:textRect cx="8.50394" cy="272.518" width="17.01" height="7.28499"/>
				<rect x="0" y="268.876" width="17.0079" height="7.28499" class="st1"/>
				<text x="4.5" y="274.92" class="st12" v:langID="2052"><v:paragraph v:horizAlign="1"/><v:tabList/>..</text>			</g>
			<g id="shape95-259" v:mID="95" v:groupContext="shape" transform="translate(194.173,-78.5622)">
				<title>工作表.95</title>
				<desc>..</desc>
				<v:textBlock v:margins="rect(4,4,4,4)" v:tabSpace="42.5197"/>
				<v:textRect cx="8.50394" cy="272.518" width="17.01" height="7.28499"/>
				<rect x="0" y="268.876" width="17.0079" height="7.28499" class="st1"/>
				<text x="4.5" y="274.92" class="st12" v:langID="2052"><v:paragraph v:horizAlign="1"/><v:tabList/>..</text>			</g>
			<g id="shape96-262" v:mID="96" v:groupContext="shape" transform="translate(204.094,-78.5622)">
				<title>工作表.96</title>
				<desc>..</desc>
				<v:textBlock v:margins="rect(4,4,4,4)" v:tabSpace="42.5197"/>
				<v:textRect cx="8.50394" cy="272.518" width="17.01" height="7.28499"/>
				<rect x="0" y="268.876" width="17.0079" height="7.28499" class="st1"/>
				<text x="4.5" y="274.92" class="st12" v:langID="2052"><v:paragraph v:horizAlign="1"/><v:tabList/>..</text>			</g>
			<g id="shape97-265" v:mID="97" v:groupContext="shape" transform="translate(212.598,-78.5622)">
				<title>工作表.97</title>
				<desc>..</desc>
				<v:textBlock v:margins="rect(4,4,4,4)" v:tabSpace="42.5197"/>
				<v:textRect cx="8.50394" cy="272.518" width="17.01" height="7.28499"/>
				<rect x="0" y="268.876" width="17.0079" height="7.28499" class="st1"/>
				<text x="4.5" y="274.92" class="st12" v:langID="2052"><v:paragraph v:horizAlign="1"/><v:tabList/>..</text>			</g>
			<g id="shape98-268" v:mID="98" v:groupContext="shape" transform="translate(222.52,-78.5622)">
				<title>工作表.98</title>
				<desc>..</desc>
				<v:textBlock v:margins="rect(4,4,4,4)" v:tabSpace="42.5197"/>
				<v:textRect cx="8.50394" cy="272.518" width="17.01" height="7.28499"/>
				<rect x="0" y="268.876" width="17.0079" height="7.28499" class="st1"/>
				<text x="4.5" y="274.92" class="st12" v:langID="2052"><v:paragraph v:horizAlign="1"/><v:tabList/>..</text>			</g>
			<g id="shape99-271" v:mID="99" v:groupContext="shape" transform="translate(242.362,-78.5622)">
				<title>工作表.99</title>
				<desc>..</desc>
				<v:textBlock v:margins="rect(4,4,4,4)" v:tabSpace="42.5197"/>
				<v:textRect cx="8.50394" cy="272.518" width="17.01" height="7.28499"/>
				<rect x="0" y="268.876" width="17.0079" height="7.28499" class="st1"/>
				<text x="4.5" y="274.92" class="st12" v:langID="2052"><v:paragraph v:horizAlign="1"/><v:tabList/>..</text>			</g>
			<g id="shape100-274" v:mID="100" v:groupContext="shape" transform="translate(252.283,-78.5622)">
				<title>工作表.100</title>
				<desc>..</desc>
				<v:textBlock v:margins="rect(4,4,4,4)" v:tabSpace="42.5197"/>
				<v:textRect cx="8.50394" cy="272.518" width="17.01" height="7.28499"/>
				<rect x="0" y="268.876" width="17.0079" height="7.28499" class="st1"/>
				<text x="4.5" y="274.92" class="st12" v:langID="2052"><v:paragraph v:horizAlign="1"/><v:tabList/>..</text>			</g>
			<g id="shape101-277" v:mID="101" v:groupContext="shape" transform="translate(263.622,-78.5622)">
				<title>工作表.101</title>
				<desc>..</desc>
				<v:textBlock v:margins="rect(4,4,4,4)" v:tabSpace="42.5197"/>
				<v:textRect cx="8.50394" cy="272.518" width="17.01" height="7.28499"/>
				<rect x="0" y="268.876" width="17.0079" height="7.28499" class="st1"/>
				<text x="4.5" y="274.92" class="st12" v:langID="2052"><v:paragraph v:horizAlign="1"/><v:tabList/>..</text>			</g>
			<g id="shape102-280" v:mID="102" v:groupContext="shape" transform="translate(272.126,-78.5622)">
				<title>工作表.102</title>
				<desc>..</desc>
				<v:textBlock v:margins="rect(4,4,4,4)" v:tabSpace="42.5197"/>
				<v:textRect cx="8.50394" cy="272.518" width="17.01" height="7.28499"/>
				<rect x="0" y="268.876" width="17.0079" height="7.28499" class="st1"/>
				<text x="4.5" y="274.92" class="st12" v:langID="2052"><v:paragraph v:horizAlign="1"/><v:tabList/>..</text>			</g>
			<g id="shape103-283" v:mID="103" v:groupContext="shape" transform="translate(280.63,-78.5622)">
				<title>工作表.103</title>
				<desc>..</desc>
				<v:textBlock v:margins="rect(4,4,4,4)" v:tabSpace="42.5197"/>
				<v:textRect cx="8.50394" cy="272.518" width="17.01" height="7.28499"/>
				<rect x="0" y="268.876" width="17.0079" height="7.28499" class="st1"/>
				<text x="4.5" y="274.92" class="st12" v:langID="2052"><v:paragraph v:horizAlign="1"/><v:tabList/>..</text>			</g>
			<g id="shape104-286" v:mID="104" v:groupContext="shape" transform="translate(289.134,-78.5622)">
				<title>工作表.104</title>
				<desc>..</desc>
				<v:textBlock v:margins="rect(4,4,4,4)" v:tabSpace="42.5197"/>
				<v:textRect cx="8.50394" cy="272.518" width="17.01" height="7.28499"/>
				<rect x="0" y="268.876" width="17.0079" height="7.28499" class="st1"/>
				<text x="4.5" y="274.92" class="st12" v:langID="2052"><v:paragraph v:horizAlign="1"/><v:tabList/>..</text>			</g>
			<g id="shape105-289" v:mID="105" v:groupContext="shape" transform="translate(299.055,-78.5622)">
				<title>工作表.105</title>
				<desc>..</desc>
				<v:textBlock v:margins="rect(4,4,4,4)" v:tabSpace="42.5197"/>
				<v:textRect cx="8.50394" cy="272.518" width="17.01" height="7.28499"/>
				<rect x="0" y="268.876" width="17.0079" height="7.28499" class="st1"/>
				<text x="4.5" y="274.92" class="st12" v:langID="2052"><v:paragraph v:horizAlign="1"/><v:tabList/>..</text>			</g>
			<g id="shape106-292" v:mID="106" v:groupContext="shape" transform="translate(307.559,-78.5622)">
				<title>工作表.106</title>
				<desc>..</desc>
				<v:textBlock v:margins="rect(4,4,4,4)" v:tabSpace="42.5197"/>
				<v:textRect cx="8.50394" cy="272.518" width="17.01" height="7.28499"/>
				<rect x="0" y="268.876" width="17.0079" height="7.28499" class="st1"/>
				<text x="4.5" y="274.92" class="st12" v:langID="2052"><v:paragraph v:horizAlign="1"/><v:tabList/>..</text>			</g>
			<g id="shape107-295" v:mID="107" v:groupContext="shape" transform="translate(316.063,-78.5622)">
				<title>工作表.107</title>
				<desc>..</desc>
				<v:textBlock v:margins="rect(4,4,4,4)" v:tabSpace="42.5197"/>
				<v:textRect cx="8.50394" cy="272.518" width="17.01" height="7.28499"/>
				<rect x="0" y="268.876" width="17.0079" height="7.28499" class="st1"/>
				<text x="4.5" y="274.92" class="st12" v:langID="2052"><v:paragraph v:horizAlign="1"/><v:tabList/>..</text>			</g>
			<g id="shape108-298" v:mID="108" v:groupContext="shape" transform="translate(325.984,-78.5622)">
				<title>工作表.108</title>
				<desc>..</desc>
				<v:textBlock v:margins="rect(4,4,4,4)" v:tabSpace="42.5197"/>
				<v:textRect cx="8.50394" cy="272.518" width="17.01" height="7.28499"/>
				<rect x="0" y="268.876" width="17.0079" height="7.28499" class="st1"/>
				<text x="4.5" y="274.92" class="st12" v:langID="2052"><v:paragraph v:horizAlign="1"/><v:tabList/>..</text>			</g>
			<g id="shape109-301" v:mID="109" v:groupContext="shape" transform="translate(334.488,-78.5622)">
				<title>工作表.109</title>
				<desc>..</desc>
				<v:textBlock v:margins="rect(4,4,4,4)" v:tabSpace="42.5197"/>
				<v:textRect cx="8.50394" cy="272.518" width="17.01" height="7.28499"/>
				<rect x="0" y="268.876" width="17.0079" height="7.28499" class="st1"/>
				<text x="4.5" y="274.92" class="st12" v:langID="2052"><v:paragraph v:horizAlign="1"/><v:tabList/>..</text>			</g>
			<g id="shape110-304" v:mID="110" v:groupContext="shape" transform="translate(334.929,-79.3289)">
				<title>工作表.110</title>
				<desc>m</desc>
				<v:textBlock v:margins="rect(4,4,4,4)" v:tabSpace="42.5197"/>
				<v:textRect cx="23.1654" cy="272.597" width="46.34" height="7.1278"/>
				<rect x="0" y="269.033" width="46.3307" height="7.1278" class="st1"/>
				<text x="21.17" y="275" class="st12" v:langID="2052"><v:paragraph v:horizAlign="1"/><v:tabList/>m</text>			</g>
			<g id="shape111-307" v:mID="111" v:groupContext="shape" transform="translate(347.244,1.13687E-13)">
				<title>工作表.111</title>
				<desc>m÷2^n</desc>
				<v:textBlock v:margins="rect(4,4,4,4)" v:tabSpace="42.5197"/>
				<v:textRect cx="23.1654" cy="268.161" width="46.34" height="16"/>
				<rect x="0" y="260.161" width="46.3307" height="16" class="st1"/>
				<text x="11.17" y="270.56" class="st12" v:langID="2052"><v:paragraph v:horizAlign="1"/><v:tabList/>m÷2^n</text>			</g>
			<g id="shape112-310" v:mID="112" v:groupContext="shape" transform="translate(138.866,-171.087)">
				<title>工作表.112</title>
				<desc>n=00</desc>
				<v:textBlock v:margins="rect(4,4,4,4)" v:tabSpace="42.5197"/>
				<v:textRect cx="19.1496" cy="268.161" width="38.3" height="16"/>
				<rect x="0" y="260.161" width="38.2992" height="16" class="st1"/>
				<text x="11.15" y="270.56" class="st12" v:langID="2052"><v:paragraph v:horizAlign="1"/><v:tabList/>n=00</text>			</g>
			<g id="shape113-313" v:mID="113" v:groupContext="shape" transform="translate(148.094,-187.087)">
				<title>工作表.113</title>
				<desc>n=01</desc>
				<v:textBlock v:margins="rect(4,4,4,4)" v:tabSpace="42.5197"/>
				<v:textRect cx="19.1496" cy="268.161" width="38.3" height="16"/>
				<rect x="0" y="260.161" width="38.2992" height="16" class="st1"/>
				<text x="11.15" y="270.56" class="st12" v:langID="2052"><v:paragraph v:horizAlign="1"/><v:tabList/>n=01</text>			</g>
			<g id="shape114-316" v:mID="114" v:groupContext="shape" transform="translate(160.85,-201.764)">
				<title>工作表.114</title>
				<desc>n=10</desc>
				<v:textBlock v:margins="rect(4,4,4,4)" v:tabSpace="42.5197"/>
				<v:textRect cx="19.1496" cy="268.161" width="38.3" height="16"/>
				<rect x="0" y="260.161" width="38.2992" height="16" class="st1"/>
				<text x="11.15" y="270.56" class="st12" v:langID="2052"><v:paragraph v:horizAlign="1"/><v:tabList/>n=10</text>			</g>
			<g id="shape115-319" v:mID="115" v:groupContext="shape" transform="translate(206.898,-219.685)">
				<title>工作表.115</title>
				<desc>n=11</desc>
				<v:textBlock v:margins="rect(4,4,4,4)" v:tabSpace="42.5197"/>
				<v:textRect cx="19.1496" cy="268.161" width="38.3" height="16"/>
				<rect x="0" y="260.161" width="38.2992" height="16" class="st1"/>
				<text x="11.15" y="270.56" class="st12" v:langID="2052"><v:paragraph v:horizAlign="1"/><v:tabList/>n=11</text>			</g>
			<g id="group117-322" transform="translate(346.612,-1.13386)" v:mID="117" v:groupContext="group">
				<title>工作表.117</title>
				<g id="shape87-323" v:mID="87" v:groupContext="shape" transform="translate(0.244893,-15.8612) rotate(-0.550934)">
					<title>工作表.87</title>
					<path d="M0 276.16 L35.57 276.16" class="st4"/>
				</g>
				<g id="shape88-326" v:mID="88" v:groupContext="shape" transform="translate(3.81425,-0.221466) rotate(0.366054)">
					<title>工作表.88</title>
					<path d="M0 276.16 L35.55 276.16" class="st4"/>
				</g>
				<g id="shape89-329" v:mID="89" v:groupContext="shape" transform="translate(-260.881,178.466) rotate(-70.8514)">
					<title>工作表.89</title>
					<path d="M0 276.16 L9.28 276.16" class="st4"/>
				</g>
				<g id="shape116-332" v:mID="116" v:groupContext="shape" transform="translate(266.769,196.663) rotate(74.8948)">
					<title>工作表.116</title>
					<path d="M0 276.16 L7.57 276.16" class="st4"/>
				</g>
			</g>
			<g id="shape118-335" v:mID="118" v:groupContext="shape" transform="translate(9.38583,-72.2835)">
				<title>工作表.118</title>
				<desc>autobaud_count</desc>
				<v:textBlock v:margins="rect(4,4,4,4)" v:tabSpace="42.5197"/>
				<v:textRect cx="52" cy="268.161" width="104" height="16"/>
				<rect x="0" y="260.161" width="104" height="16" class="st1"/>
				<text x="17" y="271.16" class="st2" v:langID="2052"><v:paragraph v:horizAlign="1"/><v:tabList/>autobaud_count</text>			</g>
			<g id="shape119-338" v:mID="119" v:groupContext="shape" transform="translate(7.08661,-35.0236)">
				<title>工作表.119</title>
				<desc>autobaud_en</desc>
				<v:textBlock v:margins="rect(4,4,4,4)" v:tabSpace="42.5197"/>
				<v:textRect cx="52" cy="268.161" width="104" height="16"/>
				<rect x="0" y="260.161" width="104" height="16" class="st1"/>
				<text x="24.5" y="271.16" class="st2" v:langID="2052"><v:paragraph v:horizAlign="1"/><v:tabList/>autobaud_en</text>			</g>
			<g id="shape120-341" v:mID="120" v:groupContext="shape" transform="translate(1.59872E-14,-1.41732)">
				<title>工作表.120</title>
				<desc>flexbaud</desc>
				<v:textBlock v:margins="rect(4,4,4,4)" v:tabSpace="42.5197"/>
				<v:textRect cx="52" cy="268.161" width="104" height="16"/>
				<rect x="0" y="260.161" width="104" height="16" class="st1"/>
				<text x="32" y="271.16" class="st2" v:langID="2052"><v:paragraph v:horizAlign="1"/><v:tabList/>flexbaud</text>			</g>
			<g id="shape121-344" v:mID="121" v:groupContext="shape" transform="translate(186.551,-0.503937)">
				<title>工作表.121</title>
				<desc>Old baud</desc>
				<v:textBlock v:margins="rect(4,4,4,4)" v:tabSpace="42.5197"/>
				<v:textRect cx="52" cy="268.161" width="104" height="16"/>
				<rect x="0" y="260.161" width="104" height="16" class="st1"/>
				<text x="36" y="270.56" class="st12" v:langID="2052"><v:paragraph v:horizAlign="1"/><v:tabList/>Old baud</text>			</g>
		</g>
		<g id="shape123-347" v:mID="123" v:groupContext="shape" transform="translate(7.44661,-0.6)">
			<title>工作表.123</title>
			<rect x="0" y="1.20001" width="411.024" height="274.961" class="st13"/>
		</g>
	</g>
</svg>
