<?xml version="1.0" encoding="UTF-8" standalone="no"?>
<!DOCTYPE svg PUBLIC "-//W3C//DTD SVG 1.1//EN" "http://www.w3.org/Graphics/SVG/1.1/DTD/svg11.dtd">
<!-- 由 Microsoft Visio, SVG Export 生成 break_long_enough.svg 页-1 -->
<svg xmlns="http://www.w3.org/2000/svg" xmlns:xlink="http://www.w3.org/1999/xlink" xmlns:ev="http://www.w3.org/2001/xml-events"
		xmlns:v="http://schemas.microsoft.com/visio/2003/SVGExtensions/" width="7.72695in" height="1.50648in"
		viewBox="0 0 556.341 108.467" xml:space="preserve" color-interpolation-filters="sRGB" class="st8">
	<v:documentProperties v:langID="2052" v:metric="true" v:viewMarkup="false">
		<v:userDefs>
			<v:ud v:nameU="msvConvertTheme"/>
		</v:userDefs>
	</v:documentProperties>

	<style type="text/css">
	<![CDATA[
		.st1 {stroke:#c0c0c0;stroke-dasharray:0,3.84555;stroke-linecap:round;stroke-linejoin:round;stroke-width:0.769111}
		.st2 {stroke:#000000;stroke-linecap:round;stroke-linejoin:round;stroke-width:0.769111}
		.st3 {stroke:none;stroke-linecap:round;stroke-linejoin:round;stroke-width:0.75}
		.st4 {fill:#000000;font-family:Arial;font-size:0.640846em}
		.st5 {fill:#000000;font-family:Arial;font-size:0.833107em}
		.st6 {fill:none;stroke:#000000;stroke-linecap:round;stroke-linejoin:round;stroke-width:0.75}
		.st7 {stroke:#000000;stroke-dasharray:5.25,3.75;stroke-linecap:round;stroke-linejoin:round;stroke-width:0.75}
		.st8 {fill:none;fill-rule:evenodd;font-size:12px;overflow:visible;stroke-linecap:square;stroke-miterlimit:3}
	]]>
	</style>

	<g v:mID="0" v:index="1" v:groupContext="foregroundPage">
		<title>页-1</title>
		<v:pageProperties v:drawingScale="0.0393701" v:pageScale="0.0393701" v:drawingUnits="24" v:shadowOffsetX="8.50394"
				v:shadowOffsetY="-8.50394"/>
		<g id="shape257-1" v:mID="257" v:groupContext="shape" transform="translate(66.7485,-12.732)">
			<title>工作表.257</title>
			<path d="M0 28.49 L0 108.47" class="st1"/>
		</g>
		<g id="shape258-4" v:mID="258" v:groupContext="shape" transform="translate(82.1324,-12.732)">
			<title>工作表.258</title>
			<path d="M0 28.49 L0 108.47" class="st1"/>
		</g>
		<g id="shape259-7" v:mID="259" v:groupContext="shape" transform="translate(97.5162,-12.732)">
			<title>工作表.259</title>
			<path d="M0 28.49 L0 108.47" class="st1"/>
		</g>
		<g id="shape260-10" v:mID="260" v:groupContext="shape" transform="translate(112.9,-12.732)">
			<title>工作表.260</title>
			<path d="M0 28.49 L0 108.47" class="st1"/>
		</g>
		<g id="shape261-13" v:mID="261" v:groupContext="shape" transform="translate(128.284,-12.732)">
			<title>工作表.261</title>
			<path d="M0 28.49 L0 108.47" class="st1"/>
		</g>
		<g id="shape262-16" v:mID="262" v:groupContext="shape" transform="translate(143.668,-12.732)">
			<title>工作表.262</title>
			<path d="M0 28.49 L0 108.47" class="st1"/>
		</g>
		<g id="shape263-19" v:mID="263" v:groupContext="shape" transform="translate(159.052,-12.732)">
			<title>工作表.263</title>
			<path d="M0 28.49 L0 108.47" class="st1"/>
		</g>
		<g id="shape264-22" v:mID="264" v:groupContext="shape" transform="translate(174.436,-12.732)">
			<title>工作表.264</title>
			<path d="M0 28.49 L0 108.47" class="st1"/>
		</g>
		<g id="shape265-25" v:mID="265" v:groupContext="shape" transform="translate(189.819,-12.732)">
			<title>工作表.265</title>
			<path d="M0 28.49 L0 108.47" class="st1"/>
		</g>
		<g id="shape266-28" v:mID="266" v:groupContext="shape" transform="translate(205.203,-12.732)">
			<title>工作表.266</title>
			<path d="M0 28.49 L0 108.47" class="st1"/>
		</g>
		<g id="shape267-31" v:mID="267" v:groupContext="shape" transform="translate(220.587,-12.732)">
			<title>工作表.267</title>
			<path d="M0 28.49 L0 108.47" class="st1"/>
		</g>
		<g id="shape268-34" v:mID="268" v:groupContext="shape" transform="translate(235.971,-12.732)">
			<title>工作表.268</title>
			<path d="M0 28.49 L0 108.47" class="st1"/>
		</g>
		<g id="shape269-37" v:mID="269" v:groupContext="shape" transform="translate(251.355,-12.732)">
			<title>工作表.269</title>
			<path d="M0 28.49 L0 108.47" class="st1"/>
		</g>
		<g id="shape270-40" v:mID="270" v:groupContext="shape" transform="translate(266.739,-12.732)">
			<title>工作表.270</title>
			<path d="M0 28.49 L0 108.47" class="st1"/>
		</g>
		<g id="shape271-43" v:mID="271" v:groupContext="shape" transform="translate(282.123,-12.732)">
			<title>工作表.271</title>
			<path d="M0 28.49 L0 108.47" class="st1"/>
		</g>
		<g id="shape272-46" v:mID="272" v:groupContext="shape" transform="translate(297.506,-12.732)">
			<title>工作表.272</title>
			<path d="M0 28.49 L0 108.47" class="st1"/>
		</g>
		<g id="shape273-49" v:mID="273" v:groupContext="shape" transform="translate(312.89,-12.732)">
			<title>工作表.273</title>
			<path d="M0 28.49 L0 108.47" class="st1"/>
		</g>
		<g id="shape274-52" v:mID="274" v:groupContext="shape" transform="translate(328.274,-12.732)">
			<title>工作表.274</title>
			<path d="M0 28.49 L0 108.47" class="st1"/>
		</g>
		<g id="shape275-55" v:mID="275" v:groupContext="shape" transform="translate(343.658,-12.732)">
			<title>工作表.275</title>
			<path d="M0 28.49 L0 108.47" class="st1"/>
		</g>
		<g id="shape276-58" v:mID="276" v:groupContext="shape" transform="translate(359.042,-12.732)">
			<title>工作表.276</title>
			<path d="M0 28.49 L0 108.47" class="st1"/>
		</g>
		<g id="shape277-61" v:mID="277" v:groupContext="shape" transform="translate(374.426,-12.732)">
			<title>工作表.277</title>
			<path d="M0 28.49 L0 108.47" class="st1"/>
		</g>
		<g id="shape278-64" v:mID="278" v:groupContext="shape" transform="translate(389.81,-12.732)">
			<title>工作表.278</title>
			<path d="M0 28.49 L0 108.47" class="st1"/>
		</g>
		<g id="shape279-67" v:mID="279" v:groupContext="shape" transform="translate(405.193,-12.732)">
			<title>工作表.279</title>
			<path d="M0 28.49 L0 108.47" class="st1"/>
		</g>
		<g id="shape280-70" v:mID="280" v:groupContext="shape" transform="translate(420.577,-12.732)">
			<title>工作表.280</title>
			<path d="M0 28.49 L0 108.47" class="st1"/>
		</g>
		<g id="shape281-73" v:mID="281" v:groupContext="shape" transform="translate(435.961,-12.732)">
			<title>工作表.281</title>
			<path d="M0 28.49 L0 108.47" class="st1"/>
		</g>
		<g id="shape282-76" v:mID="282" v:groupContext="shape" transform="translate(451.345,-12.732)">
			<title>工作表.282</title>
			<path d="M0 28.49 L0 108.47" class="st1"/>
		</g>
		<g id="shape283-79" v:mID="283" v:groupContext="shape" transform="translate(466.729,-12.732)">
			<title>工作表.283</title>
			<path d="M0 28.49 L0 108.47" class="st1"/>
		</g>
		<g id="shape284-82" v:mID="284" v:groupContext="shape" transform="translate(482.113,-12.732)">
			<title>工作表.284</title>
			<path d="M0 28.49 L0 108.47" class="st1"/>
		</g>
		<g id="shape285-85" v:mID="285" v:groupContext="shape" transform="translate(497.497,-12.732)">
			<title>工作表.285</title>
			<path d="M0 28.49 L0 108.47" class="st1"/>
		</g>
		<g id="shape286-88" v:mID="286" v:groupContext="shape" transform="translate(512.88,-12.732)">
			<title>工作表.286</title>
			<path d="M0 28.49 L0 108.47" class="st1"/>
		</g>
		<g id="shape287-91" v:mID="287" v:groupContext="shape" transform="translate(528.264,-12.732)">
			<title>工作表.287</title>
			<path d="M0 28.49 L0 108.47" class="st1"/>
		</g>
		<g id="shape288-94" v:mID="288" v:groupContext="shape" transform="translate(543.648,-12.732)">
			<title>工作表.288</title>
			<path d="M0 28.49 L0 108.47" class="st1"/>
		</g>
		<g id="shape290-97" v:mID="290" v:groupContext="shape" transform="translate(66.7485,-92.711)">
			<title>工作表.290</title>
			<path d="M-0 108.47 L15.38 108.47" class="st2"/>
		</g>
		<g id="shape291-100" v:mID="291" v:groupContext="shape" transform="translate(82.1324,-92.711)">
			<title>工作表.291</title>
			<path d="M0 108.47 L15.38 108.47" class="st2"/>
		</g>
		<g id="shape292-103" v:mID="292" v:groupContext="shape" transform="translate(97.5162,-92.711)">
			<title>工作表.292</title>
			<path d="M-0 108.47 L15.38 108.47" class="st2"/>
		</g>
		<g id="shape293-106" v:mID="293" v:groupContext="shape" transform="translate(112.9,-80.4065)">
			<title>工作表.293</title>
			<path d="M0 96.16 L7.69 108.47 L15.38 108.47" class="st2"/>
		</g>
		<g id="shape294-109" v:mID="294" v:groupContext="shape" transform="translate(128.284,-80.4065)">
			<title>工作表.294</title>
			<path d="M-0 108.47 L15.38 108.47" class="st2"/>
		</g>
		<g id="shape295-112" v:mID="295" v:groupContext="shape" transform="translate(143.668,-80.4065)">
			<title>工作表.295</title>
			<path d="M-0 108.47 L15.38 108.47" class="st2"/>
		</g>
		<g id="shape296-115" v:mID="296" v:groupContext="shape" transform="translate(159.052,-80.4065)">
			<title>工作表.296</title>
			<path d="M-0 108.47 L15.38 108.47" class="st2"/>
		</g>
		<g id="shape297-118" v:mID="297" v:groupContext="shape" transform="translate(174.436,-80.4065)">
			<title>工作表.297</title>
			<path d="M0 108.47 L15.38 108.47" class="st2"/>
		</g>
		<g id="shape298-121" v:mID="298" v:groupContext="shape" transform="translate(189.819,-80.4065)">
			<title>工作表.298</title>
			<path d="M0 108.47 L15.38 108.47" class="st2"/>
		</g>
		<g id="shape299-124" v:mID="299" v:groupContext="shape" transform="translate(205.203,-80.4065)">
			<title>工作表.299</title>
			<path d="M-0 108.47 L15.38 108.47" class="st2"/>
		</g>
		<g id="shape300-127" v:mID="300" v:groupContext="shape" transform="translate(220.587,-80.4065)">
			<title>工作表.300</title>
			<path d="M0 108.47 L15.38 108.47" class="st2"/>
		</g>
		<g id="shape301-130" v:mID="301" v:groupContext="shape" transform="translate(235.971,-80.4065)">
			<title>工作表.301</title>
			<path d="M0 108.47 L15.38 108.47" class="st2"/>
		</g>
		<g id="shape302-133" v:mID="302" v:groupContext="shape" transform="translate(251.355,-80.4065)">
			<title>工作表.302</title>
			<path d="M-0 108.47 L15.38 108.47" class="st2"/>
		</g>
		<g id="shape303-136" v:mID="303" v:groupContext="shape" transform="translate(266.739,-80.4065)">
			<title>工作表.303</title>
			<path d="M-0 108.47 L15.38 108.47" class="st2"/>
		</g>
		<g id="shape304-139" v:mID="304" v:groupContext="shape" transform="translate(282.123,-80.4065)">
			<title>工作表.304</title>
			<path d="M0 108.47 L15.38 108.47" class="st2"/>
		</g>
		<g id="shape305-142" v:mID="305" v:groupContext="shape" transform="translate(297.506,-80.4065)">
			<title>工作表.305</title>
			<path d="M0 108.47 L15.38 108.47" class="st2"/>
		</g>
		<g id="shape306-145" v:mID="306" v:groupContext="shape" transform="translate(312.89,-80.4065)">
			<title>工作表.306</title>
			<path d="M-0 108.47 L15.38 108.47" class="st2"/>
		</g>
		<g id="shape307-148" v:mID="307" v:groupContext="shape" transform="translate(328.274,-80.4065)">
			<title>工作表.307</title>
			<path d="M0 108.47 L15.38 108.47" class="st2"/>
		</g>
		<g id="shape308-151" v:mID="308" v:groupContext="shape" transform="translate(343.658,-80.4065)">
			<title>工作表.308</title>
			<path d="M-0 108.47 L15.38 108.47" class="st2"/>
		</g>
		<g id="shape309-154" v:mID="309" v:groupContext="shape" transform="translate(359.042,-80.4065)">
			<title>工作表.309</title>
			<path d="M-0 108.47 L15.38 108.47" class="st2"/>
		</g>
		<g id="shape310-157" v:mID="310" v:groupContext="shape" transform="translate(374.426,-80.4065)">
			<title>工作表.310</title>
			<path d="M0 108.47 L15.38 108.47" class="st2"/>
		</g>
		<g id="shape311-160" v:mID="311" v:groupContext="shape" transform="translate(389.81,-80.4065)">
			<title>工作表.311</title>
			<path d="M-0 108.47 L15.38 108.47" class="st2"/>
		</g>
		<g id="shape312-163" v:mID="312" v:groupContext="shape" transform="translate(405.193,-80.4065)">
			<title>工作表.312</title>
			<path d="M-0 108.47 L15.38 108.47" class="st2"/>
		</g>
		<g id="shape313-166" v:mID="313" v:groupContext="shape" transform="translate(420.577,-80.4065)">
			<title>工作表.313</title>
			<path d="M0 108.47 L15.38 108.47" class="st2"/>
		</g>
		<g id="shape314-169" v:mID="314" v:groupContext="shape" transform="translate(435.961,-80.4065)">
			<title>工作表.314</title>
			<path d="M-0 108.47 L15.38 108.47" class="st2"/>
		</g>
		<g id="shape315-172" v:mID="315" v:groupContext="shape" transform="translate(451.345,-80.4065)">
			<title>工作表.315</title>
			<path d="M0 108.47 L7.69 96.16 L15.38 96.16" class="st2"/>
		</g>
		<g id="shape316-175" v:mID="316" v:groupContext="shape" transform="translate(466.729,-92.711)">
			<title>工作表.316</title>
			<path d="M0 108.47 L15.38 108.47" class="st2"/>
		</g>
		<g id="shape317-178" v:mID="317" v:groupContext="shape" transform="translate(482.113,-92.711)">
			<title>工作表.317</title>
			<path d="M-0 108.47 L15.38 108.47" class="st2"/>
		</g>
		<g id="shape318-181" v:mID="318" v:groupContext="shape" transform="translate(497.497,-92.711)">
			<title>工作表.318</title>
			<path d="M0 108.47 L15.38 108.47" class="st2"/>
		</g>
		<g id="shape319-184" v:mID="319" v:groupContext="shape" transform="translate(512.88,-92.711)">
			<title>工作表.319</title>
			<path d="M0 108.47 L15.38 108.47" class="st2"/>
		</g>
		<g id="shape320-187" v:mID="320" v:groupContext="shape" transform="translate(528.264,-92.711)">
			<title>工作表.320</title>
			<path d="M-0 108.47 L15.38 108.47" class="st2"/>
		</g>
		<g id="shape321-190" v:mID="321" v:groupContext="shape" transform="translate(66.7485,-58.8737)">
			<title>工作表.321</title>
			<path d="M-0 108.47 L15.38 108.47" class="st2"/>
		</g>
		<g id="shape322-193" v:mID="322" v:groupContext="shape" transform="translate(66.7485,-46.5692)">
			<title>工作表.322</title>
			<path d="M-0 108.47 L15.38 108.47" class="st2"/>
		</g>
		<g id="shape323-196" v:mID="323" v:groupContext="shape" transform="translate(82.1324,-58.8737)">
			<title>工作表.323</title>
			<path d="M0 108.47 L15.38 108.47" class="st2"/>
		</g>
		<g id="shape324-199" v:mID="324" v:groupContext="shape" transform="translate(82.1324,-46.5692)">
			<title>工作表.324</title>
			<path d="M0 108.47 L15.38 108.47" class="st2"/>
		</g>
		<g id="shape325-202" v:mID="325" v:groupContext="shape" transform="translate(97.5162,-58.8737)">
			<title>工作表.325</title>
			<path d="M-0 108.47 L15.38 108.47" class="st2"/>
		</g>
		<g id="shape326-205" v:mID="326" v:groupContext="shape" transform="translate(97.5162,-46.5692)">
			<title>工作表.326</title>
			<path d="M-0 108.47 L15.38 108.47" class="st2"/>
		</g>
		<g id="shape327-208" v:mID="327" v:groupContext="shape" transform="translate(112.9,-46.5692)">
			<title>工作表.327</title>
			<path d="M0 96.16 L7.69 108.47 L15.38 108.47" class="st2"/>
		</g>
		<g id="shape328-211" v:mID="328" v:groupContext="shape" transform="translate(112.9,-46.5692)">
			<title>工作表.328</title>
			<path d="M0 108.47 L7.69 96.16 L15.38 96.16" class="st2"/>
		</g>
		<g id="shape329-214" v:mID="329" v:groupContext="shape" transform="translate(128.284,-58.8737)">
			<title>工作表.329</title>
			<path d="M-0 108.47 L15.38 108.47" class="st2"/>
		</g>
		<g id="shape330-217" v:mID="330" v:groupContext="shape" transform="translate(128.284,-46.5692)">
			<title>工作表.330</title>
			<path d="M-0 108.47 L15.38 108.47" class="st2"/>
		</g>
		<g id="shape331-220" v:mID="331" v:groupContext="shape" transform="translate(143.668,-46.5692)">
			<title>工作表.331</title>
			<path d="M0 96.16 L7.69 108.47 L15.38 108.47" class="st2"/>
		</g>
		<g id="shape332-223" v:mID="332" v:groupContext="shape" transform="translate(143.668,-46.5692)">
			<title>工作表.332</title>
			<path d="M0 108.47 L7.69 96.16 L15.38 96.16" class="st2"/>
		</g>
		<g id="shape333-226" v:mID="333" v:groupContext="shape" transform="translate(159.052,-58.8737)">
			<title>工作表.333</title>
			<path d="M-0 108.47 L15.38 108.47" class="st2"/>
		</g>
		<g id="shape334-229" v:mID="334" v:groupContext="shape" transform="translate(159.052,-46.5692)">
			<title>工作表.334</title>
			<path d="M-0 108.47 L15.38 108.47" class="st2"/>
		</g>
		<g id="shape335-232" v:mID="335" v:groupContext="shape" transform="translate(174.436,-46.5692)">
			<title>工作表.335</title>
			<path d="M0 96.16 L7.69 108.47 L15.38 108.47" class="st2"/>
		</g>
		<g id="shape336-235" v:mID="336" v:groupContext="shape" transform="translate(174.436,-46.5692)">
			<title>工作表.336</title>
			<path d="M0 108.47 L7.69 96.16 L15.38 96.16" class="st2"/>
		</g>
		<g id="shape337-238" v:mID="337" v:groupContext="shape" transform="translate(189.819,-58.8737)">
			<title>工作表.337</title>
			<path d="M0 108.47 L15.38 108.47" class="st2"/>
		</g>
		<g id="shape338-241" v:mID="338" v:groupContext="shape" transform="translate(189.819,-46.5692)">
			<title>工作表.338</title>
			<path d="M0 108.47 L15.38 108.47" class="st2"/>
		</g>
		<g id="shape339-244" v:mID="339" v:groupContext="shape" transform="translate(205.203,-46.5692)">
			<title>工作表.339</title>
			<path d="M0 96.16 L7.69 108.47 L15.38 108.47" class="st2"/>
		</g>
		<g id="shape340-247" v:mID="340" v:groupContext="shape" transform="translate(205.203,-46.5692)">
			<title>工作表.340</title>
			<path d="M0 108.47 L7.69 96.16 L15.38 96.16" class="st2"/>
		</g>
		<g id="shape341-250" v:mID="341" v:groupContext="shape" transform="translate(220.587,-58.8737)">
			<title>工作表.341</title>
			<path d="M0 108.47 L15.38 108.47" class="st2"/>
		</g>
		<g id="shape342-253" v:mID="342" v:groupContext="shape" transform="translate(220.587,-46.5692)">
			<title>工作表.342</title>
			<path d="M0 108.47 L15.38 108.47" class="st2"/>
		</g>
		<g id="shape343-256" v:mID="343" v:groupContext="shape" transform="translate(235.971,-46.5692)">
			<title>工作表.343</title>
			<path d="M0 96.16 L7.69 108.47 L15.38 108.47" class="st2"/>
		</g>
		<g id="shape344-259" v:mID="344" v:groupContext="shape" transform="translate(235.971,-46.5692)">
			<title>工作表.344</title>
			<path d="M0 108.47 L7.69 96.16 L15.38 96.16" class="st2"/>
		</g>
		<g id="shape345-262" v:mID="345" v:groupContext="shape" transform="translate(251.355,-58.8737)">
			<title>工作表.345</title>
			<path d="M-0 108.47 L15.38 108.47" class="st2"/>
		</g>
		<g id="shape346-265" v:mID="346" v:groupContext="shape" transform="translate(251.355,-46.5692)">
			<title>工作表.346</title>
			<path d="M-0 108.47 L15.38 108.47" class="st2"/>
		</g>
		<g id="shape347-268" v:mID="347" v:groupContext="shape" transform="translate(266.739,-46.5692)">
			<title>工作表.347</title>
			<path d="M0 96.16 L7.69 108.47 L15.38 108.47" class="st2"/>
		</g>
		<g id="shape348-271" v:mID="348" v:groupContext="shape" transform="translate(266.739,-46.5692)">
			<title>工作表.348</title>
			<path d="M0 108.47 L7.69 96.16 L15.38 96.16" class="st2"/>
		</g>
		<g id="shape349-274" v:mID="349" v:groupContext="shape" transform="translate(282.123,-58.8737)">
			<title>工作表.349</title>
			<path d="M0 108.47 L15.38 108.47" class="st2"/>
		</g>
		<g id="shape350-277" v:mID="350" v:groupContext="shape" transform="translate(282.123,-46.5692)">
			<title>工作表.350</title>
			<path d="M0 108.47 L15.38 108.47" class="st2"/>
		</g>
		<g id="shape351-280" v:mID="351" v:groupContext="shape" transform="translate(297.506,-46.5692)">
			<title>工作表.351</title>
			<path d="M0 96.16 L7.69 108.47 L15.38 108.47" class="st2"/>
		</g>
		<g id="shape352-283" v:mID="352" v:groupContext="shape" transform="translate(297.506,-46.5692)">
			<title>工作表.352</title>
			<path d="M0 108.47 L7.69 96.16 L15.38 96.16" class="st2"/>
		</g>
		<g id="shape353-286" v:mID="353" v:groupContext="shape" transform="translate(312.89,-58.8737)">
			<title>工作表.353</title>
			<path d="M-0 108.47 L15.38 108.47" class="st2"/>
		</g>
		<g id="shape354-289" v:mID="354" v:groupContext="shape" transform="translate(312.89,-46.5692)">
			<title>工作表.354</title>
			<path d="M-0 108.47 L15.38 108.47" class="st2"/>
		</g>
		<g id="shape355-292" v:mID="355" v:groupContext="shape" transform="translate(328.274,-46.5692)">
			<title>工作表.355</title>
			<path d="M0 96.16 L7.69 108.47 L15.38 108.47" class="st2"/>
		</g>
		<g id="shape356-295" v:mID="356" v:groupContext="shape" transform="translate(328.274,-46.5692)">
			<title>工作表.356</title>
			<path d="M0 108.47 L7.69 96.16 L15.38 96.16" class="st2"/>
		</g>
		<g id="shape357-298" v:mID="357" v:groupContext="shape" transform="translate(343.658,-58.8737)">
			<title>工作表.357</title>
			<path d="M-0 108.47 L15.38 108.47" class="st2"/>
		</g>
		<g id="shape358-301" v:mID="358" v:groupContext="shape" transform="translate(343.658,-46.5692)">
			<title>工作表.358</title>
			<path d="M-0 108.47 L15.38 108.47" class="st2"/>
		</g>
		<g id="shape359-304" v:mID="359" v:groupContext="shape" transform="translate(359.042,-46.5692)">
			<title>工作表.359</title>
			<path d="M0 96.16 L7.69 108.47 L15.38 108.47" class="st2"/>
		</g>
		<g id="shape360-307" v:mID="360" v:groupContext="shape" transform="translate(359.042,-46.5692)">
			<title>工作表.360</title>
			<path d="M0 108.47 L7.69 96.16 L15.38 96.16" class="st2"/>
		</g>
		<g id="shape361-310" v:mID="361" v:groupContext="shape" transform="translate(374.426,-58.8737)">
			<title>工作表.361</title>
			<path d="M0 108.47 L15.38 108.47" class="st2"/>
		</g>
		<g id="shape362-313" v:mID="362" v:groupContext="shape" transform="translate(374.426,-46.5692)">
			<title>工作表.362</title>
			<path d="M0 108.47 L15.38 108.47" class="st2"/>
		</g>
		<g id="shape363-316" v:mID="363" v:groupContext="shape" transform="translate(389.81,-46.5692)">
			<title>工作表.363</title>
			<path d="M0 96.16 L7.69 108.47 L15.38 108.47" class="st2"/>
		</g>
		<g id="shape364-319" v:mID="364" v:groupContext="shape" transform="translate(389.81,-46.5692)">
			<title>工作表.364</title>
			<path d="M0 108.47 L7.69 96.16 L15.38 96.16" class="st2"/>
		</g>
		<g id="shape365-322" v:mID="365" v:groupContext="shape" transform="translate(405.193,-58.8737)">
			<title>工作表.365</title>
			<path d="M-0 108.47 L15.38 108.47" class="st2"/>
		</g>
		<g id="shape366-325" v:mID="366" v:groupContext="shape" transform="translate(405.193,-46.5692)">
			<title>工作表.366</title>
			<path d="M-0 108.47 L15.38 108.47" class="st2"/>
		</g>
		<g id="shape367-328" v:mID="367" v:groupContext="shape" transform="translate(420.577,-46.5692)">
			<title>工作表.367</title>
			<path d="M0 96.16 L7.69 108.47 L15.38 108.47" class="st2"/>
		</g>
		<g id="shape368-331" v:mID="368" v:groupContext="shape" transform="translate(420.577,-46.5692)">
			<title>工作表.368</title>
			<path d="M0 108.47 L7.69 96.16 L15.38 96.16" class="st2"/>
		</g>
		<g id="shape369-334" v:mID="369" v:groupContext="shape" transform="translate(435.961,-58.8737)">
			<title>工作表.369</title>
			<path d="M-0 108.47 L15.38 108.47" class="st2"/>
		</g>
		<g id="shape370-337" v:mID="370" v:groupContext="shape" transform="translate(435.961,-46.5692)">
			<title>工作表.370</title>
			<path d="M-0 108.47 L15.38 108.47" class="st2"/>
		</g>
		<g id="shape371-340" v:mID="371" v:groupContext="shape" transform="translate(451.345,-46.5692)">
			<title>工作表.371</title>
			<path d="M0 96.16 L7.69 108.47 L15.38 108.47" class="st2"/>
		</g>
		<g id="shape372-343" v:mID="372" v:groupContext="shape" transform="translate(451.345,-46.5692)">
			<title>工作表.372</title>
			<path d="M0 108.47 L7.69 96.16 L15.38 96.16" class="st2"/>
		</g>
		<g id="shape373-346" v:mID="373" v:groupContext="shape" transform="translate(466.729,-58.8737)">
			<title>工作表.373</title>
			<path d="M0 108.47 L15.38 108.47" class="st2"/>
		</g>
		<g id="shape374-349" v:mID="374" v:groupContext="shape" transform="translate(466.729,-46.5692)">
			<title>工作表.374</title>
			<path d="M0 108.47 L15.38 108.47" class="st2"/>
		</g>
		<g id="shape375-352" v:mID="375" v:groupContext="shape" transform="translate(482.113,-58.8737)">
			<title>工作表.375</title>
			<path d="M-0 108.47 L15.38 108.47" class="st2"/>
		</g>
		<g id="shape376-355" v:mID="376" v:groupContext="shape" transform="translate(482.113,-46.5692)">
			<title>工作表.376</title>
			<path d="M-0 108.47 L15.38 108.47" class="st2"/>
		</g>
		<g id="shape377-358" v:mID="377" v:groupContext="shape" transform="translate(497.497,-58.8737)">
			<title>工作表.377</title>
			<path d="M0 108.47 L15.38 108.47" class="st2"/>
		</g>
		<g id="shape378-361" v:mID="378" v:groupContext="shape" transform="translate(497.497,-46.5692)">
			<title>工作表.378</title>
			<path d="M0 108.47 L15.38 108.47" class="st2"/>
		</g>
		<g id="shape379-364" v:mID="379" v:groupContext="shape" transform="translate(512.88,-58.8737)">
			<title>工作表.379</title>
			<path d="M0 108.47 L15.38 108.47" class="st2"/>
		</g>
		<g id="shape380-367" v:mID="380" v:groupContext="shape" transform="translate(512.88,-46.5692)">
			<title>工作表.380</title>
			<path d="M0 108.47 L15.38 108.47" class="st2"/>
		</g>
		<g id="shape381-370" v:mID="381" v:groupContext="shape" transform="translate(528.264,-58.8737)">
			<title>工作表.381</title>
			<path d="M-0 108.47 L15.38 108.47" class="st2"/>
		</g>
		<g id="shape382-373" v:mID="382" v:groupContext="shape" transform="translate(528.264,-46.5692)">
			<title>工作表.382</title>
			<path d="M-0 108.47 L15.38 108.47" class="st2"/>
		</g>
		<g id="shape384-376" v:mID="384" v:groupContext="shape" transform="translate(66.7485,-12.732)">
			<title>工作表.384</title>
			<path d="M-0 108.47 L15.38 108.47" class="st2"/>
		</g>
		<g id="shape385-379" v:mID="385" v:groupContext="shape" transform="translate(82.1324,-12.732)">
			<title>工作表.385</title>
			<path d="M0 108.47 L15.38 108.47" class="st2"/>
		</g>
		<g id="shape386-382" v:mID="386" v:groupContext="shape" transform="translate(97.5162,-12.732)">
			<title>工作表.386</title>
			<path d="M-0 108.47 L15.38 108.47" class="st2"/>
		</g>
		<g id="shape387-385" v:mID="387" v:groupContext="shape" transform="translate(112.9,-12.732)">
			<title>工作表.387</title>
			<path d="M0 108.47 L15.38 108.47" class="st2"/>
		</g>
		<g id="shape388-388" v:mID="388" v:groupContext="shape" transform="translate(128.284,-12.732)">
			<title>工作表.388</title>
			<path d="M-0 108.47 L15.38 108.47" class="st2"/>
		</g>
		<g id="shape389-391" v:mID="389" v:groupContext="shape" transform="translate(143.668,-12.732)">
			<title>工作表.389</title>
			<path d="M-0 108.47 L15.38 108.47" class="st2"/>
		</g>
		<g id="shape390-394" v:mID="390" v:groupContext="shape" transform="translate(159.052,-12.732)">
			<title>工作表.390</title>
			<path d="M-0 108.47 L15.38 108.47" class="st2"/>
		</g>
		<g id="shape391-397" v:mID="391" v:groupContext="shape" transform="translate(174.436,-12.732)">
			<title>工作表.391</title>
			<path d="M0 108.47 L15.38 108.47" class="st2"/>
		</g>
		<g id="shape392-400" v:mID="392" v:groupContext="shape" transform="translate(189.819,-12.732)">
			<title>工作表.392</title>
			<path d="M0 108.47 L15.38 108.47" class="st2"/>
		</g>
		<g id="shape393-403" v:mID="393" v:groupContext="shape" transform="translate(205.203,-12.732)">
			<title>工作表.393</title>
			<path d="M-0 108.47 L15.38 108.47" class="st2"/>
		</g>
		<g id="shape394-406" v:mID="394" v:groupContext="shape" transform="translate(220.587,-12.732)">
			<title>工作表.394</title>
			<path d="M0 108.47 L15.38 108.47" class="st2"/>
		</g>
		<g id="shape395-409" v:mID="395" v:groupContext="shape" transform="translate(235.971,-12.732)">
			<title>工作表.395</title>
			<path d="M0 108.47 L15.38 108.47" class="st2"/>
		</g>
		<g id="shape396-412" v:mID="396" v:groupContext="shape" transform="translate(251.355,-12.732)">
			<title>工作表.396</title>
			<path d="M-0 108.47 L15.38 108.47" class="st2"/>
		</g>
		<g id="shape397-415" v:mID="397" v:groupContext="shape" transform="translate(266.739,-12.732)">
			<title>工作表.397</title>
			<path d="M-0 108.47 L15.38 108.47" class="st2"/>
		</g>
		<g id="shape398-418" v:mID="398" v:groupContext="shape" transform="translate(282.123,-12.732)">
			<title>工作表.398</title>
			<path d="M0 108.47 L15.38 108.47" class="st2"/>
		</g>
		<g id="shape399-421" v:mID="399" v:groupContext="shape" transform="translate(297.506,-12.732)">
			<title>工作表.399</title>
			<path d="M0 108.47 L15.38 108.47" class="st2"/>
		</g>
		<g id="shape400-424" v:mID="400" v:groupContext="shape" transform="translate(312.89,-12.732)">
			<title>工作表.400</title>
			<path d="M-0 108.47 L15.38 108.47" class="st2"/>
		</g>
		<g id="shape401-427" v:mID="401" v:groupContext="shape" transform="translate(328.274,-12.732)">
			<title>工作表.401</title>
			<path d="M0 108.47 L15.38 108.47" class="st2"/>
		</g>
		<g id="shape402-430" v:mID="402" v:groupContext="shape" transform="translate(343.658,-12.732)">
			<title>工作表.402</title>
			<path d="M-0 108.47 L15.38 108.47" class="st2"/>
		</g>
		<g id="shape403-433" v:mID="403" v:groupContext="shape" transform="translate(359.042,-12.732)">
			<title>工作表.403</title>
			<path d="M-0 108.47 L15.38 108.47" class="st2"/>
		</g>
		<g id="shape404-436" v:mID="404" v:groupContext="shape" transform="translate(374.426,-12.732)">
			<title>工作表.404</title>
			<path d="M0 108.47 L15.38 108.47" class="st2"/>
		</g>
		<g id="shape405-439" v:mID="405" v:groupContext="shape" transform="translate(389.81,-12.732)">
			<title>工作表.405</title>
			<path d="M-0 108.47 L15.38 108.47" class="st2"/>
		</g>
		<g id="shape406-442" v:mID="406" v:groupContext="shape" transform="translate(405.193,-12.732)">
			<title>工作表.406</title>
			<path d="M-0 108.47 L15.38 108.47" class="st2"/>
		</g>
		<g id="shape407-445" v:mID="407" v:groupContext="shape" transform="translate(420.577,-12.732)">
			<title>工作表.407</title>
			<path d="M0 108.47 L15.38 108.47" class="st2"/>
		</g>
		<g id="shape408-448" v:mID="408" v:groupContext="shape" transform="translate(435.961,-12.732)">
			<title>工作表.408</title>
			<path d="M-0 108.47 L15.38 108.47" class="st2"/>
		</g>
		<g id="shape409-451" v:mID="409" v:groupContext="shape" transform="translate(451.345,-12.732)">
			<title>工作表.409</title>
			<path d="M-0 108.47 L15.38 108.47" class="st2"/>
		</g>
		<g id="shape410-454" v:mID="410" v:groupContext="shape" transform="translate(466.729,-12.732)">
			<title>工作表.410</title>
			<path d="M0 108.47 L15.38 108.47" class="st2"/>
		</g>
		<g id="shape411-457" v:mID="411" v:groupContext="shape" transform="translate(482.113,-12.732)">
			<title>工作表.411</title>
			<path d="M-0 108.47 L15.38 108.47" class="st2"/>
		</g>
		<g id="shape412-460" v:mID="412" v:groupContext="shape" transform="translate(497.497,-12.732)">
			<title>工作表.412</title>
			<path d="M0 108.47 L15.38 108.47" class="st2"/>
		</g>
		<g id="shape413-463" v:mID="413" v:groupContext="shape" transform="translate(512.88,-12.732)">
			<title>工作表.413</title>
			<path d="M0 108.47 L15.38 108.47" class="st2"/>
		</g>
		<g id="shape414-466" v:mID="414" v:groupContext="shape" transform="translate(528.264,-12.732)">
			<title>工作表.414</title>
			<path d="M-0 108.47 L15.38 108.47" class="st2"/>
		</g>
		<g id="shape415-469" v:mID="415" v:groupContext="shape" transform="translate(78.2864,-46.5658)">
			<title>工作表.415</title>
			<desc>idle</desc>
			<v:textBlock v:margins="rect(0,0,0,0)" v:tabSpace="42.5197"/>
			<v:textRect cx="8.11375" cy="103.851" width="16.23" height="9.23179"/>
			<path d="M16.23 99.23 L0 99.23 L0 108.47 L16.23 108.47 L16.23 99.23" class="st3"/>
			<text x="2.13" y="106.16" class="st4" v:langID="2052"><v:paragraph v:horizAlign="1"/><v:tabList/>idle</text>		</g>
		<g id="shape416-473" v:mID="416" v:groupContext="shape" transform="translate(124.438,-46.5658)">
			<title>工作表.416</title>
			<desc>bit0</desc>
			<v:textBlock v:margins="rect(0,0,0,0)" v:tabSpace="42.5197"/>
			<v:textRect cx="8.35996" cy="103.851" width="16.72" height="9.23179"/>
			<path d="M16.72 99.23 L0 99.23 L0 108.47 L16.72 108.47 L16.72 99.23" class="st3"/>
			<text x="2.16" y="106.16" class="st4" v:langID="2052"><v:paragraph v:horizAlign="1"/><v:tabList/>bit0</text>		</g>
		<g id="shape417-477" v:mID="417" v:groupContext="shape" transform="translate(155.206,-46.5658)">
			<title>工作表.417</title>
			<desc>bit1</desc>
			<v:textBlock v:margins="rect(0,0,0,0)" v:tabSpace="42.5197"/>
			<v:textRect cx="8.35996" cy="103.851" width="16.72" height="9.23179"/>
			<path d="M16.72 99.23 L0 99.23 L0 108.47 L16.72 108.47 L16.72 99.23" class="st3"/>
			<text x="2.16" y="106.16" class="st4" v:langID="2052"><v:paragraph v:horizAlign="1"/><v:tabList/>bit1</text>		</g>
		<g id="shape418-481" v:mID="418" v:groupContext="shape" transform="translate(185.973,-46.5658)">
			<title>工作表.418</title>
			<desc>bit2</desc>
			<v:textBlock v:margins="rect(0,0,0,0)" v:tabSpace="42.5197"/>
			<v:textRect cx="8.35996" cy="103.851" width="16.72" height="9.23179"/>
			<path d="M16.72 99.23 L0 99.23 L0 108.47 L16.72 108.47 L16.72 99.23" class="st3"/>
			<text x="2.16" y="106.16" class="st4" v:langID="2052"><v:paragraph v:horizAlign="1"/><v:tabList/>bit2</text>		</g>
		<g id="shape419-485" v:mID="419" v:groupContext="shape" transform="translate(216.741,-46.5658)">
			<title>工作表.419</title>
			<desc>bit3</desc>
			<v:textBlock v:margins="rect(0,0,0,0)" v:tabSpace="42.5197"/>
			<v:textRect cx="8.35996" cy="103.851" width="16.72" height="9.23179"/>
			<path d="M16.72 99.23 L0 99.23 L0 108.47 L16.72 108.47 L16.72 99.23" class="st3"/>
			<text x="2.16" y="106.16" class="st4" v:langID="2052"><v:paragraph v:horizAlign="1"/><v:tabList/>bit3</text>		</g>
		<g id="shape420-489" v:mID="420" v:groupContext="shape" transform="translate(247.509,-46.5658)">
			<title>工作表.420</title>
			<desc>bit4</desc>
			<v:textBlock v:margins="rect(0,0,0,0)" v:tabSpace="42.5197"/>
			<v:textRect cx="8.35996" cy="103.851" width="16.72" height="9.23179"/>
			<path d="M16.72 99.23 L0 99.23 L0 108.47 L16.72 108.47 L16.72 99.23" class="st3"/>
			<text x="2.16" y="106.16" class="st4" v:langID="2052"><v:paragraph v:horizAlign="1"/><v:tabList/>bit4</text>		</g>
		<g id="shape421-493" v:mID="421" v:groupContext="shape" transform="translate(278.277,-46.5658)">
			<title>工作表.421</title>
			<desc>bit5</desc>
			<v:textBlock v:margins="rect(0,0,0,0)" v:tabSpace="42.5197"/>
			<v:textRect cx="8.35996" cy="103.851" width="16.72" height="9.23179"/>
			<path d="M16.72 99.23 L0 99.23 L0 108.47 L16.72 108.47 L16.72 99.23" class="st3"/>
			<text x="2.16" y="106.16" class="st4" v:langID="2052"><v:paragraph v:horizAlign="1"/><v:tabList/>bit5</text>		</g>
		<g id="shape422-497" v:mID="422" v:groupContext="shape" transform="translate(309.044,-46.5658)">
			<title>工作表.422</title>
			<desc>bit6</desc>
			<v:textBlock v:margins="rect(0,0,0,0)" v:tabSpace="42.5197"/>
			<v:textRect cx="8.35996" cy="103.851" width="16.72" height="9.23179"/>
			<path d="M16.72 99.23 L0 99.23 L0 108.47 L16.72 108.47 L16.72 99.23" class="st3"/>
			<text x="2.16" y="106.16" class="st4" v:langID="2052"><v:paragraph v:horizAlign="1"/><v:tabList/>bit6</text>		</g>
		<g id="shape423-501" v:mID="423" v:groupContext="shape" transform="translate(339.812,-46.5658)">
			<title>工作表.423</title>
			<desc>bit7</desc>
			<v:textBlock v:margins="rect(0,0,0,0)" v:tabSpace="42.5197"/>
			<v:textRect cx="8.35996" cy="103.851" width="16.72" height="9.23179"/>
			<path d="M16.72 99.23 L0 99.23 L0 108.47 L16.72 108.47 L16.72 99.23" class="st3"/>
			<text x="2.16" y="106.16" class="st4" v:langID="2052"><v:paragraph v:horizAlign="1"/><v:tabList/>bit7</text>		</g>
		<g id="shape424-505" v:mID="424" v:groupContext="shape" transform="translate(370.58,-46.5658)">
			<title>工作表.424</title>
			<desc>bit8</desc>
			<v:textBlock v:margins="rect(0,0,0,0)" v:tabSpace="42.5197"/>
			<v:textRect cx="8.35996" cy="103.851" width="16.72" height="9.23179"/>
			<path d="M16.72 99.23 L0 99.23 L0 108.47 L16.72 108.47 L16.72 99.23" class="st3"/>
			<text x="2.16" y="106.16" class="st4" v:langID="2052"><v:paragraph v:horizAlign="1"/><v:tabList/>bit8</text>		</g>
		<g id="shape425-509" v:mID="425" v:groupContext="shape" transform="translate(401.347,-46.5658)">
			<title>工作表.425</title>
			<desc>bit9</desc>
			<v:textBlock v:margins="rect(0,0,0,0)" v:tabSpace="42.5197"/>
			<v:textRect cx="8.35996" cy="103.851" width="16.72" height="9.23179"/>
			<path d="M16.72 99.23 L0 99.23 L0 108.47 L16.72 108.47 L16.72 99.23" class="st3"/>
			<text x="2.16" y="106.16" class="st4" v:langID="2052"><v:paragraph v:horizAlign="1"/><v:tabList/>bit9</text>		</g>
		<g id="shape426-513" v:mID="426" v:groupContext="shape" transform="translate(432.115,-46.5658)">
			<title>工作表.426</title>
			<desc>bit10</desc>
			<v:textBlock v:margins="rect(0,0,0,0)" v:tabSpace="42.5197"/>
			<v:textRect cx="10.8192" cy="103.851" width="21.64" height="9.23179"/>
			<path d="M21.64 99.23 L0 99.23 L0 108.47 L21.64 108.47 L21.64 99.23" class="st3"/>
			<text x="2.48" y="106.16" class="st4" v:langID="2052"><v:paragraph v:horizAlign="1"/><v:tabList/>bit10</text>		</g>
		<g id="shape427-517" v:mID="427" v:groupContext="shape" transform="translate(478.267,-46.5658)">
			<title>工作表.427</title>
			<desc>idle</desc>
			<v:textBlock v:margins="rect(0,0,0,0)" v:tabSpace="42.5197"/>
			<v:textRect cx="8.11375" cy="103.851" width="16.23" height="9.23179"/>
			<path d="M16.23 99.23 L0 99.23 L0 108.47 L16.23 108.47 L16.23 99.23" class="st3"/>
			<text x="2.13" y="106.16" class="st4" v:langID="2052"><v:paragraph v:horizAlign="1"/><v:tabList/>idle</text>		</g>
		<g id="shape428-521" v:mID="428" v:groupContext="shape" transform="translate(5.21309,-79.9416)">
			<title>工作表.428</title>
			<desc>RX</desc>
			<v:textBlock v:margins="rect(0,0,0,0)" v:tabSpace="42.5197"/>
			<v:textRect cx="9.5847" cy="102.466" width="19.17" height="12.0003"/>
			<path d="M19.17 96.47 L0 96.47 L0 108.47 L19.17 108.47 L19.17 96.47" class="st3"/>
			<text x="2.64" y="105.47" class="st5" v:langID="2052"><v:paragraph v:horizAlign="1"/><v:tabList/>RX</text>		</g>
		<g id="shape429-525" v:mID="429" v:groupContext="shape" transform="translate(5.21309,-46.1043)">
			<title>工作表.429</title>
			<desc>Break State</desc>
			<v:textBlock v:margins="rect(0,0,0,0)" v:tabSpace="42.5197"/>
			<v:textRect cx="31.6353" cy="102.466" width="63.28" height="12.0003"/>
			<path d="M63.27 96.47 L0 96.47 L0 108.47 L63.27 108.47 L63.27 96.47" class="st3"/>
			<text x="5.52" y="105.47" class="st5" v:langID="2052"><v:paragraph v:horizAlign="1"/><v:tabList/>Break State</text>		</g>
		<g id="shape430-529" v:mID="430" v:groupContext="shape" transform="translate(5.21309,-12.267)">
			<title>工作表.430</title>
			<desc>LINBRKST</desc>
			<v:textBlock v:margins="rect(0,0,0,0)" v:tabSpace="42.5197"/>
			<v:textRect cx="29.7098" cy="102.466" width="59.42" height="12.0003"/>
			<path d="M59.42 96.47 L0 96.47 L0 108.47 L59.42 108.47 L59.42 96.47" class="st3"/>
			<text x="5.27" y="105.47" class="st5" v:langID="2052"><v:paragraph v:horizAlign="1"/><v:tabList/>LINBRKST</text>		</g>
		<g id="shape431-533" v:mID="431" v:groupContext="shape" transform="translate(0.375,-0.375)">
			<title>工作表.431</title>
			<rect x="0" y="0.75" width="555.591" height="107.717" class="st6"/>
		</g>
		<g id="shape782-535" v:mID="782" v:groupContext="shape" transform="translate(564.227,14.5766) rotate(90)">
			<title>工作表.782</title>
			<path d="M0 108.47 L60.66 108.47" class="st7"/>
		</g>
	</g>
</svg>
