<?xml version="1.0" encoding="UTF-8" standalone="no"?>
<!DOCTYPE svg PUBLIC "-//W3C//DTD SVG 1.1//EN" "http://www.w3.org/Graphics/SVG/1.1/DTD/svg11.dtd">
<!-- 由 Microsoft Visio, SVG Export 生成 break_not_long_enough.svg 页-1 -->
<svg xmlns="http://www.w3.org/2000/svg" xmlns:xlink="http://www.w3.org/1999/xlink" xmlns:ev="http://www.w3.org/2001/xml-events"
		xmlns:v="http://schemas.microsoft.com/visio/2003/SVGExtensions/" width="7.72695in" height="1.50648in"
		viewBox="0 0 556.341 108.467" xml:space="preserve" color-interpolation-filters="sRGB" class="st9">
	<v:documentProperties v:langID="2052" v:metric="true" v:viewMarkup="false">
		<v:userDefs>
			<v:ud v:nameU="msvConvertTheme"/>
		</v:userDefs>
	</v:documentProperties>

	<style type="text/css">
	<![CDATA[
		.st1 {stroke:#c0c0c0;stroke-dasharray:0,3.84555;stroke-linecap:round;stroke-linejoin:round;stroke-width:0.769111}
		.st2 {stroke:#000000;stroke-linecap:round;stroke-linejoin:round;stroke-width:0.769111}
		.st3 {stroke:none;stroke-linecap:round;stroke-linejoin:round;stroke-width:0.75}
		.st4 {fill:#000000;font-family:Arial;font-size:0.640846em}
		.st5 {fill:#000000;font-family:Arial;font-size:0.833107em}
		.st6 {fill:#000000;font-family:Calibri;font-size:0.833336em}
		.st7 {fill:none;stroke:#000000;stroke-linecap:round;stroke-linejoin:round;stroke-width:0.75}
		.st8 {stroke:#000000;stroke-dasharray:5.25,3.75;stroke-linecap:round;stroke-linejoin:round;stroke-width:0.75}
		.st9 {fill:none;fill-rule:evenodd;font-size:12px;overflow:visible;stroke-linecap:square;stroke-miterlimit:3}
	]]>
	</style>

	<g v:mID="0" v:index="1" v:groupContext="foregroundPage">
		<title>页-1</title>
		<v:pageProperties v:drawingScale="0.0393701" v:pageScale="0.0393701" v:drawingUnits="24" v:shadowOffsetX="8.50394"
				v:shadowOffsetY="-8.50394"/>
		<g id="shape21-1" v:mID="21" v:groupContext="shape" transform="translate(66.7485,-12.732)">
			<title>工作表.21</title>
			<path d="M0 28.49 L0 108.47" class="st1"/>
		</g>
		<g id="shape22-4" v:mID="22" v:groupContext="shape" transform="translate(82.1324,-12.732)">
			<title>工作表.22</title>
			<path d="M0 28.49 L0 108.47" class="st1"/>
		</g>
		<g id="shape23-7" v:mID="23" v:groupContext="shape" transform="translate(97.5162,-12.732)">
			<title>工作表.23</title>
			<path d="M0 28.49 L0 108.47" class="st1"/>
		</g>
		<g id="shape24-10" v:mID="24" v:groupContext="shape" transform="translate(112.9,-12.732)">
			<title>工作表.24</title>
			<path d="M0 28.49 L0 108.47" class="st1"/>
		</g>
		<g id="shape25-13" v:mID="25" v:groupContext="shape" transform="translate(128.284,-12.732)">
			<title>工作表.25</title>
			<path d="M0 28.49 L0 108.47" class="st1"/>
		</g>
		<g id="shape26-16" v:mID="26" v:groupContext="shape" transform="translate(143.668,-12.732)">
			<title>工作表.26</title>
			<path d="M0 28.49 L0 108.47" class="st1"/>
		</g>
		<g id="shape27-19" v:mID="27" v:groupContext="shape" transform="translate(159.052,-12.732)">
			<title>工作表.27</title>
			<path d="M0 28.49 L0 108.47" class="st1"/>
		</g>
		<g id="shape28-22" v:mID="28" v:groupContext="shape" transform="translate(174.436,-12.732)">
			<title>工作表.28</title>
			<path d="M0 28.49 L0 108.47" class="st1"/>
		</g>
		<g id="shape29-25" v:mID="29" v:groupContext="shape" transform="translate(189.819,-12.732)">
			<title>工作表.29</title>
			<path d="M0 28.49 L0 108.47" class="st1"/>
		</g>
		<g id="shape30-28" v:mID="30" v:groupContext="shape" transform="translate(205.203,-12.732)">
			<title>工作表.30</title>
			<path d="M0 28.49 L0 108.47" class="st1"/>
		</g>
		<g id="shape31-31" v:mID="31" v:groupContext="shape" transform="translate(220.587,-12.732)">
			<title>工作表.31</title>
			<path d="M0 28.49 L0 108.47" class="st1"/>
		</g>
		<g id="shape32-34" v:mID="32" v:groupContext="shape" transform="translate(235.971,-12.732)">
			<title>工作表.32</title>
			<path d="M0 28.49 L0 108.47" class="st1"/>
		</g>
		<g id="shape33-37" v:mID="33" v:groupContext="shape" transform="translate(251.355,-12.732)">
			<title>工作表.33</title>
			<path d="M0 28.49 L0 108.47" class="st1"/>
		</g>
		<g id="shape34-40" v:mID="34" v:groupContext="shape" transform="translate(266.739,-12.732)">
			<title>工作表.34</title>
			<path d="M0 28.49 L0 108.47" class="st1"/>
		</g>
		<g id="shape35-43" v:mID="35" v:groupContext="shape" transform="translate(282.123,-12.732)">
			<title>工作表.35</title>
			<path d="M0 28.49 L0 108.47" class="st1"/>
		</g>
		<g id="shape36-46" v:mID="36" v:groupContext="shape" transform="translate(297.506,-12.732)">
			<title>工作表.36</title>
			<path d="M0 28.49 L0 108.47" class="st1"/>
		</g>
		<g id="shape37-49" v:mID="37" v:groupContext="shape" transform="translate(312.89,-12.732)">
			<title>工作表.37</title>
			<path d="M0 28.49 L0 108.47" class="st1"/>
		</g>
		<g id="shape38-52" v:mID="38" v:groupContext="shape" transform="translate(328.274,-12.732)">
			<title>工作表.38</title>
			<path d="M0 28.49 L0 108.47" class="st1"/>
		</g>
		<g id="shape39-55" v:mID="39" v:groupContext="shape" transform="translate(343.658,-12.732)">
			<title>工作表.39</title>
			<path d="M0 28.49 L0 108.47" class="st1"/>
		</g>
		<g id="shape40-58" v:mID="40" v:groupContext="shape" transform="translate(359.042,-12.732)">
			<title>工作表.40</title>
			<path d="M0 28.49 L0 108.47" class="st1"/>
		</g>
		<g id="shape41-61" v:mID="41" v:groupContext="shape" transform="translate(374.426,-12.732)">
			<title>工作表.41</title>
			<path d="M0 28.49 L0 108.47" class="st1"/>
		</g>
		<g id="shape42-64" v:mID="42" v:groupContext="shape" transform="translate(389.81,-12.732)">
			<title>工作表.42</title>
			<path d="M0 28.49 L0 108.47" class="st1"/>
		</g>
		<g id="shape43-67" v:mID="43" v:groupContext="shape" transform="translate(405.193,-12.732)">
			<title>工作表.43</title>
			<path d="M0 28.49 L0 108.47" class="st1"/>
		</g>
		<g id="shape44-70" v:mID="44" v:groupContext="shape" transform="translate(420.577,-12.732)">
			<title>工作表.44</title>
			<path d="M0 28.49 L0 108.47" class="st1"/>
		</g>
		<g id="shape45-73" v:mID="45" v:groupContext="shape" transform="translate(435.961,-12.732)">
			<title>工作表.45</title>
			<path d="M0 28.49 L0 108.47" class="st1"/>
		</g>
		<g id="shape46-76" v:mID="46" v:groupContext="shape" transform="translate(451.345,-12.732)">
			<title>工作表.46</title>
			<path d="M0 28.49 L0 108.47" class="st1"/>
		</g>
		<g id="shape47-79" v:mID="47" v:groupContext="shape" transform="translate(466.729,-12.732)">
			<title>工作表.47</title>
			<path d="M0 28.49 L0 108.47" class="st1"/>
		</g>
		<g id="shape48-82" v:mID="48" v:groupContext="shape" transform="translate(482.113,-12.732)">
			<title>工作表.48</title>
			<path d="M0 28.49 L0 108.47" class="st1"/>
		</g>
		<g id="shape49-85" v:mID="49" v:groupContext="shape" transform="translate(497.497,-12.732)">
			<title>工作表.49</title>
			<path d="M0 28.49 L0 108.47" class="st1"/>
		</g>
		<g id="shape50-88" v:mID="50" v:groupContext="shape" transform="translate(512.88,-12.732)">
			<title>工作表.50</title>
			<path d="M0 28.49 L0 108.47" class="st1"/>
		</g>
		<g id="shape51-91" v:mID="51" v:groupContext="shape" transform="translate(528.264,-12.732)">
			<title>工作表.51</title>
			<path d="M0 28.49 L0 108.47" class="st1"/>
		</g>
		<g id="shape52-94" v:mID="52" v:groupContext="shape" transform="translate(543.648,-12.732)">
			<title>工作表.52</title>
			<path d="M0 28.49 L0 108.47" class="st1"/>
		</g>
		<g id="shape54-97" v:mID="54" v:groupContext="shape" transform="translate(66.7485,-92.711)">
			<title>工作表.54</title>
			<path d="M-0 108.47 L15.38 108.47" class="st2"/>
		</g>
		<g id="shape55-100" v:mID="55" v:groupContext="shape" transform="translate(82.1324,-92.711)">
			<title>工作表.55</title>
			<path d="M0 108.47 L15.38 108.47" class="st2"/>
		</g>
		<g id="shape56-103" v:mID="56" v:groupContext="shape" transform="translate(97.5162,-92.711)">
			<title>工作表.56</title>
			<path d="M-0 108.47 L15.38 108.47" class="st2"/>
		</g>
		<g id="shape57-106" v:mID="57" v:groupContext="shape" transform="translate(112.9,-80.4065)">
			<title>工作表.57</title>
			<path d="M0 96.16 L7.69 108.47 L15.38 108.47" class="st2"/>
		</g>
		<g id="shape58-109" v:mID="58" v:groupContext="shape" transform="translate(128.284,-80.4065)">
			<title>工作表.58</title>
			<path d="M-0 108.47 L15.38 108.47" class="st2"/>
		</g>
		<g id="shape59-112" v:mID="59" v:groupContext="shape" transform="translate(143.668,-80.4065)">
			<title>工作表.59</title>
			<path d="M-0 108.47 L15.38 108.47" class="st2"/>
		</g>
		<g id="shape60-115" v:mID="60" v:groupContext="shape" transform="translate(159.052,-80.4065)">
			<title>工作表.60</title>
			<path d="M-0 108.47 L15.38 108.47" class="st2"/>
		</g>
		<g id="shape61-118" v:mID="61" v:groupContext="shape" transform="translate(174.436,-80.4065)">
			<title>工作表.61</title>
			<path d="M0 108.47 L15.38 108.47" class="st2"/>
		</g>
		<g id="shape62-121" v:mID="62" v:groupContext="shape" transform="translate(189.819,-80.4065)">
			<title>工作表.62</title>
			<path d="M0 108.47 L15.38 108.47" class="st2"/>
		</g>
		<g id="shape63-124" v:mID="63" v:groupContext="shape" transform="translate(205.203,-80.4065)">
			<title>工作表.63</title>
			<path d="M-0 108.47 L15.38 108.47" class="st2"/>
		</g>
		<g id="shape64-127" v:mID="64" v:groupContext="shape" transform="translate(220.587,-80.4065)">
			<title>工作表.64</title>
			<path d="M0 108.47 L15.38 108.47" class="st2"/>
		</g>
		<g id="shape65-130" v:mID="65" v:groupContext="shape" transform="translate(235.971,-80.4065)">
			<title>工作表.65</title>
			<path d="M0 108.47 L15.38 108.47" class="st2"/>
		</g>
		<g id="shape66-133" v:mID="66" v:groupContext="shape" transform="translate(251.355,-80.4065)">
			<title>工作表.66</title>
			<path d="M-0 108.47 L15.38 108.47" class="st2"/>
		</g>
		<g id="shape67-136" v:mID="67" v:groupContext="shape" transform="translate(266.739,-80.4065)">
			<title>工作表.67</title>
			<path d="M-0 108.47 L15.38 108.47" class="st2"/>
		</g>
		<g id="shape68-139" v:mID="68" v:groupContext="shape" transform="translate(282.123,-80.4065)">
			<title>工作表.68</title>
			<path d="M0 108.47 L15.38 108.47" class="st2"/>
		</g>
		<g id="shape69-142" v:mID="69" v:groupContext="shape" transform="translate(297.506,-80.4065)">
			<title>工作表.69</title>
			<path d="M0 108.47 L15.38 108.47" class="st2"/>
		</g>
		<g id="shape70-145" v:mID="70" v:groupContext="shape" transform="translate(312.89,-80.4065)">
			<title>工作表.70</title>
			<path d="M-0 108.47 L15.38 108.47" class="st2"/>
		</g>
		<g id="shape71-148" v:mID="71" v:groupContext="shape" transform="translate(328.274,-80.4065)">
			<title>工作表.71</title>
			<path d="M0 108.47 L15.38 108.47" class="st2"/>
		</g>
		<g id="shape72-151" v:mID="72" v:groupContext="shape" transform="translate(343.658,-80.4065)">
			<title>工作表.72</title>
			<path d="M-0 108.47 L15.38 108.47" class="st2"/>
		</g>
		<g id="shape73-154" v:mID="73" v:groupContext="shape" transform="translate(359.042,-80.4065)">
			<title>工作表.73</title>
			<path d="M-0 108.47 L15.38 108.47" class="st2"/>
		</g>
		<g id="shape74-157" v:mID="74" v:groupContext="shape" transform="translate(374.426,-80.4065)">
			<title>工作表.74</title>
			<path d="M0 108.47 L15.38 108.47" class="st2"/>
		</g>
		<g id="shape75-160" v:mID="75" v:groupContext="shape" transform="translate(389.81,-80.4065)">
			<title>工作表.75</title>
			<path d="M-0 108.47 L15.38 108.47" class="st2"/>
		</g>
		<g id="shape76-163" v:mID="76" v:groupContext="shape" transform="translate(405.193,-80.4065)">
			<title>工作表.76</title>
			<path d="M-0 108.47 L15.38 108.47" class="st2"/>
		</g>
		<g id="shape77-166" v:mID="77" v:groupContext="shape" transform="translate(420.577,-80.4065)">
			<title>工作表.77</title>
			<path d="M0 108.47 L15.38 108.47" class="st2"/>
		</g>
		<g id="shape78-169" v:mID="78" v:groupContext="shape" transform="translate(435.961,-80.4065)">
			<title>工作表.78</title>
			<path d="M-0 108.47 L3.99 108.47" class="st2"/>
		</g>
		<g id="shape79-172" v:mID="79" v:groupContext="shape" transform="translate(439.952,-80.4065)">
			<title>工作表.79</title>
			<path d="M0 108.47 L7.69 96.16 L15.38 96.16" class="st2"/>
		</g>
		<g id="shape80-175" v:mID="80" v:groupContext="shape" transform="translate(455.336,-92.711)">
			<title>工作表.80</title>
			<path d="M0 108.47 L26.78 108.47" class="st2"/>
		</g>
		<g id="shape81-178" v:mID="81" v:groupContext="shape" transform="translate(482.113,-92.711)">
			<title>工作表.81</title>
			<path d="M-0 108.47 L15.38 108.47" class="st2"/>
		</g>
		<g id="shape82-181" v:mID="82" v:groupContext="shape" transform="translate(497.497,-92.711)">
			<title>工作表.82</title>
			<path d="M0 108.47 L15.38 108.47" class="st2"/>
		</g>
		<g id="shape83-184" v:mID="83" v:groupContext="shape" transform="translate(512.88,-92.711)">
			<title>工作表.83</title>
			<path d="M0 108.47 L15.38 108.47" class="st2"/>
		</g>
		<g id="shape84-187" v:mID="84" v:groupContext="shape" transform="translate(528.264,-92.711)">
			<title>工作表.84</title>
			<path d="M-0 108.47 L15.38 108.47" class="st2"/>
		</g>
		<g id="shape85-190" v:mID="85" v:groupContext="shape" transform="translate(66.7485,-58.8737)">
			<title>工作表.85</title>
			<path d="M-0 108.47 L15.38 108.47" class="st2"/>
		</g>
		<g id="shape86-193" v:mID="86" v:groupContext="shape" transform="translate(66.7485,-46.5692)">
			<title>工作表.86</title>
			<path d="M-0 108.47 L15.38 108.47" class="st2"/>
		</g>
		<g id="shape87-196" v:mID="87" v:groupContext="shape" transform="translate(82.1324,-58.8737)">
			<title>工作表.87</title>
			<path d="M0 108.47 L15.38 108.47" class="st2"/>
		</g>
		<g id="shape88-199" v:mID="88" v:groupContext="shape" transform="translate(82.1324,-46.5692)">
			<title>工作表.88</title>
			<path d="M0 108.47 L15.38 108.47" class="st2"/>
		</g>
		<g id="shape89-202" v:mID="89" v:groupContext="shape" transform="translate(97.5162,-58.8737)">
			<title>工作表.89</title>
			<path d="M-0 108.47 L15.38 108.47" class="st2"/>
		</g>
		<g id="shape90-205" v:mID="90" v:groupContext="shape" transform="translate(97.5162,-46.5692)">
			<title>工作表.90</title>
			<path d="M-0 108.47 L15.38 108.47" class="st2"/>
		</g>
		<g id="shape91-208" v:mID="91" v:groupContext="shape" transform="translate(112.9,-46.5692)">
			<title>工作表.91</title>
			<path d="M0 96.16 L7.69 108.47 L15.38 108.47" class="st2"/>
		</g>
		<g id="shape92-211" v:mID="92" v:groupContext="shape" transform="translate(112.9,-46.5692)">
			<title>工作表.92</title>
			<path d="M0 108.47 L7.69 96.16 L15.38 96.16" class="st2"/>
		</g>
		<g id="shape93-214" v:mID="93" v:groupContext="shape" transform="translate(128.284,-58.8737)">
			<title>工作表.93</title>
			<path d="M-0 108.47 L15.38 108.47" class="st2"/>
		</g>
		<g id="shape94-217" v:mID="94" v:groupContext="shape" transform="translate(128.284,-46.5692)">
			<title>工作表.94</title>
			<path d="M-0 108.47 L15.38 108.47" class="st2"/>
		</g>
		<g id="shape95-220" v:mID="95" v:groupContext="shape" transform="translate(143.668,-46.5692)">
			<title>工作表.95</title>
			<path d="M0 96.16 L7.69 108.47 L15.38 108.47" class="st2"/>
		</g>
		<g id="shape96-223" v:mID="96" v:groupContext="shape" transform="translate(143.668,-46.5692)">
			<title>工作表.96</title>
			<path d="M0 108.47 L7.69 96.16 L15.38 96.16" class="st2"/>
		</g>
		<g id="shape97-226" v:mID="97" v:groupContext="shape" transform="translate(159.052,-58.8737)">
			<title>工作表.97</title>
			<path d="M-0 108.47 L15.38 108.47" class="st2"/>
		</g>
		<g id="shape98-229" v:mID="98" v:groupContext="shape" transform="translate(159.052,-46.5692)">
			<title>工作表.98</title>
			<path d="M-0 108.47 L15.38 108.47" class="st2"/>
		</g>
		<g id="shape99-232" v:mID="99" v:groupContext="shape" transform="translate(174.436,-46.5692)">
			<title>工作表.99</title>
			<path d="M0 96.16 L7.69 108.47 L15.38 108.47" class="st2"/>
		</g>
		<g id="shape100-235" v:mID="100" v:groupContext="shape" transform="translate(174.436,-46.5692)">
			<title>工作表.100</title>
			<path d="M0 108.47 L7.69 96.16 L15.38 96.16" class="st2"/>
		</g>
		<g id="shape101-238" v:mID="101" v:groupContext="shape" transform="translate(189.819,-58.8737)">
			<title>工作表.101</title>
			<path d="M0 108.47 L15.38 108.47" class="st2"/>
		</g>
		<g id="shape102-241" v:mID="102" v:groupContext="shape" transform="translate(189.819,-46.5692)">
			<title>工作表.102</title>
			<path d="M0 108.47 L15.38 108.47" class="st2"/>
		</g>
		<g id="shape103-244" v:mID="103" v:groupContext="shape" transform="translate(205.203,-46.5692)">
			<title>工作表.103</title>
			<path d="M0 96.16 L7.69 108.47 L15.38 108.47" class="st2"/>
		</g>
		<g id="shape104-247" v:mID="104" v:groupContext="shape" transform="translate(205.203,-46.5692)">
			<title>工作表.104</title>
			<path d="M0 108.47 L7.69 96.16 L15.38 96.16" class="st2"/>
		</g>
		<g id="shape105-250" v:mID="105" v:groupContext="shape" transform="translate(220.587,-58.8737)">
			<title>工作表.105</title>
			<path d="M0 108.47 L15.38 108.47" class="st2"/>
		</g>
		<g id="shape106-253" v:mID="106" v:groupContext="shape" transform="translate(220.587,-46.5692)">
			<title>工作表.106</title>
			<path d="M0 108.47 L15.38 108.47" class="st2"/>
		</g>
		<g id="shape107-256" v:mID="107" v:groupContext="shape" transform="translate(235.971,-46.5692)">
			<title>工作表.107</title>
			<path d="M0 96.16 L7.69 108.47 L15.38 108.47" class="st2"/>
		</g>
		<g id="shape108-259" v:mID="108" v:groupContext="shape" transform="translate(235.971,-46.5692)">
			<title>工作表.108</title>
			<path d="M0 108.47 L7.69 96.16 L15.38 96.16" class="st2"/>
		</g>
		<g id="shape109-262" v:mID="109" v:groupContext="shape" transform="translate(251.355,-58.8737)">
			<title>工作表.109</title>
			<path d="M-0 108.47 L15.38 108.47" class="st2"/>
		</g>
		<g id="shape110-265" v:mID="110" v:groupContext="shape" transform="translate(251.355,-46.5692)">
			<title>工作表.110</title>
			<path d="M-0 108.47 L15.38 108.47" class="st2"/>
		</g>
		<g id="shape111-268" v:mID="111" v:groupContext="shape" transform="translate(266.739,-46.5692)">
			<title>工作表.111</title>
			<path d="M0 96.16 L7.69 108.47 L15.38 108.47" class="st2"/>
		</g>
		<g id="shape112-271" v:mID="112" v:groupContext="shape" transform="translate(266.739,-46.5692)">
			<title>工作表.112</title>
			<path d="M0 108.47 L7.69 96.16 L15.38 96.16" class="st2"/>
		</g>
		<g id="shape113-274" v:mID="113" v:groupContext="shape" transform="translate(282.123,-58.8737)">
			<title>工作表.113</title>
			<path d="M0 108.47 L15.38 108.47" class="st2"/>
		</g>
		<g id="shape114-277" v:mID="114" v:groupContext="shape" transform="translate(282.123,-46.5692)">
			<title>工作表.114</title>
			<path d="M0 108.47 L15.38 108.47" class="st2"/>
		</g>
		<g id="shape115-280" v:mID="115" v:groupContext="shape" transform="translate(297.506,-46.5692)">
			<title>工作表.115</title>
			<path d="M0 96.16 L7.69 108.47 L15.38 108.47" class="st2"/>
		</g>
		<g id="shape116-283" v:mID="116" v:groupContext="shape" transform="translate(297.506,-46.5692)">
			<title>工作表.116</title>
			<path d="M0 108.47 L7.69 96.16 L15.38 96.16" class="st2"/>
		</g>
		<g id="shape117-286" v:mID="117" v:groupContext="shape" transform="translate(312.89,-58.8737)">
			<title>工作表.117</title>
			<path d="M-0 108.47 L15.38 108.47" class="st2"/>
		</g>
		<g id="shape118-289" v:mID="118" v:groupContext="shape" transform="translate(312.89,-46.5692)">
			<title>工作表.118</title>
			<path d="M-0 108.47 L15.38 108.47" class="st2"/>
		</g>
		<g id="shape119-292" v:mID="119" v:groupContext="shape" transform="translate(328.274,-46.5692)">
			<title>工作表.119</title>
			<path d="M0 96.16 L7.69 108.47 L15.38 108.47" class="st2"/>
		</g>
		<g id="shape120-295" v:mID="120" v:groupContext="shape" transform="translate(328.274,-46.5692)">
			<title>工作表.120</title>
			<path d="M0 108.47 L7.69 96.16 L15.38 96.16" class="st2"/>
		</g>
		<g id="shape121-298" v:mID="121" v:groupContext="shape" transform="translate(343.658,-58.8737)">
			<title>工作表.121</title>
			<path d="M-0 108.47 L15.38 108.47" class="st2"/>
		</g>
		<g id="shape122-301" v:mID="122" v:groupContext="shape" transform="translate(343.658,-46.5692)">
			<title>工作表.122</title>
			<path d="M-0 108.47 L15.38 108.47" class="st2"/>
		</g>
		<g id="shape123-304" v:mID="123" v:groupContext="shape" transform="translate(359.042,-46.5692)">
			<title>工作表.123</title>
			<path d="M0 96.16 L7.69 108.47 L15.38 108.47" class="st2"/>
		</g>
		<g id="shape124-307" v:mID="124" v:groupContext="shape" transform="translate(359.042,-46.5692)">
			<title>工作表.124</title>
			<path d="M0 108.47 L7.69 96.16 L15.38 96.16" class="st2"/>
		</g>
		<g id="shape125-310" v:mID="125" v:groupContext="shape" transform="translate(374.426,-58.8737)">
			<title>工作表.125</title>
			<path d="M0 108.47 L15.38 108.47" class="st2"/>
		</g>
		<g id="shape126-313" v:mID="126" v:groupContext="shape" transform="translate(374.426,-46.5692)">
			<title>工作表.126</title>
			<path d="M0 108.47 L15.38 108.47" class="st2"/>
		</g>
		<g id="shape127-316" v:mID="127" v:groupContext="shape" transform="translate(389.81,-46.5692)">
			<title>工作表.127</title>
			<path d="M0 96.16 L7.69 108.47 L15.38 108.47" class="st2"/>
		</g>
		<g id="shape128-319" v:mID="128" v:groupContext="shape" transform="translate(389.81,-46.5692)">
			<title>工作表.128</title>
			<path d="M0 108.47 L7.69 96.16 L15.38 96.16" class="st2"/>
		</g>
		<g id="shape129-322" v:mID="129" v:groupContext="shape" transform="translate(405.193,-58.8737)">
			<title>工作表.129</title>
			<path d="M-0 108.47 L15.38 108.47" class="st2"/>
		</g>
		<g id="shape130-325" v:mID="130" v:groupContext="shape" transform="translate(405.193,-46.5692)">
			<title>工作表.130</title>
			<path d="M-0 108.47 L15.38 108.47" class="st2"/>
		</g>
		<g id="shape131-328" v:mID="131" v:groupContext="shape" transform="translate(420.577,-46.5692)">
			<title>工作表.131</title>
			<path d="M0 96.16 L7.69 108.47 L15.38 108.47" class="st2"/>
		</g>
		<g id="shape132-331" v:mID="132" v:groupContext="shape" transform="translate(420.577,-46.5692)">
			<title>工作表.132</title>
			<path d="M0 108.47 L7.69 96.16 L15.38 96.16" class="st2"/>
		</g>
		<g id="shape133-334" v:mID="133" v:groupContext="shape" transform="translate(435.961,-58.8737)">
			<title>工作表.133</title>
			<path d="M-0 108.47 L15.38 108.47" class="st2"/>
		</g>
		<g id="shape134-337" v:mID="134" v:groupContext="shape" transform="translate(435.961,-46.5692)">
			<title>工作表.134</title>
			<path d="M-0 108.47 L15.38 108.47" class="st2"/>
		</g>
		<g id="shape135-340" v:mID="135" v:groupContext="shape" transform="translate(451.345,-46.5692)">
			<title>工作表.135</title>
			<path d="M0 96.16 L7.69 108.47 L15.38 108.47" class="st2"/>
		</g>
		<g id="shape136-343" v:mID="136" v:groupContext="shape" transform="translate(451.345,-46.5692)">
			<title>工作表.136</title>
			<path d="M0 108.47 L7.69 96.16 L15.38 96.16" class="st2"/>
		</g>
		<g id="shape137-346" v:mID="137" v:groupContext="shape" transform="translate(466.729,-58.8737)">
			<title>工作表.137</title>
			<path d="M0 108.47 L15.38 108.47" class="st2"/>
		</g>
		<g id="shape138-349" v:mID="138" v:groupContext="shape" transform="translate(466.729,-46.5692)">
			<title>工作表.138</title>
			<path d="M0 108.47 L15.38 108.47" class="st2"/>
		</g>
		<g id="shape139-352" v:mID="139" v:groupContext="shape" transform="translate(482.113,-58.8737)">
			<title>工作表.139</title>
			<path d="M-0 108.47 L15.38 108.47" class="st2"/>
		</g>
		<g id="shape140-355" v:mID="140" v:groupContext="shape" transform="translate(482.113,-46.5692)">
			<title>工作表.140</title>
			<path d="M-0 108.47 L15.38 108.47" class="st2"/>
		</g>
		<g id="shape141-358" v:mID="141" v:groupContext="shape" transform="translate(497.497,-58.8737)">
			<title>工作表.141</title>
			<path d="M0 108.47 L15.38 108.47" class="st2"/>
		</g>
		<g id="shape142-361" v:mID="142" v:groupContext="shape" transform="translate(497.497,-46.5692)">
			<title>工作表.142</title>
			<path d="M0 108.47 L15.38 108.47" class="st2"/>
		</g>
		<g id="shape143-364" v:mID="143" v:groupContext="shape" transform="translate(512.88,-58.8737)">
			<title>工作表.143</title>
			<path d="M0 108.47 L15.38 108.47" class="st2"/>
		</g>
		<g id="shape144-367" v:mID="144" v:groupContext="shape" transform="translate(512.88,-46.5692)">
			<title>工作表.144</title>
			<path d="M0 108.47 L15.38 108.47" class="st2"/>
		</g>
		<g id="shape145-370" v:mID="145" v:groupContext="shape" transform="translate(528.264,-58.8737)">
			<title>工作表.145</title>
			<path d="M-0 108.47 L15.38 108.47" class="st2"/>
		</g>
		<g id="shape146-373" v:mID="146" v:groupContext="shape" transform="translate(528.264,-46.5692)">
			<title>工作表.146</title>
			<path d="M-0 108.47 L15.38 108.47" class="st2"/>
		</g>
		<g id="shape148-376" v:mID="148" v:groupContext="shape" transform="translate(66.7485,-12.732)">
			<title>工作表.148</title>
			<path d="M-0 108.47 L15.38 108.47" class="st2"/>
		</g>
		<g id="shape149-379" v:mID="149" v:groupContext="shape" transform="translate(82.1324,-12.732)">
			<title>工作表.149</title>
			<path d="M0 108.47 L15.38 108.47" class="st2"/>
		</g>
		<g id="shape150-382" v:mID="150" v:groupContext="shape" transform="translate(97.5162,-12.732)">
			<title>工作表.150</title>
			<path d="M-0 108.47 L15.38 108.47" class="st2"/>
		</g>
		<g id="shape151-385" v:mID="151" v:groupContext="shape" transform="translate(112.9,-12.732)">
			<title>工作表.151</title>
			<path d="M0 108.47 L15.38 108.47" class="st2"/>
		</g>
		<g id="shape152-388" v:mID="152" v:groupContext="shape" transform="translate(128.284,-12.732)">
			<title>工作表.152</title>
			<path d="M-0 108.47 L15.38 108.47" class="st2"/>
		</g>
		<g id="shape153-391" v:mID="153" v:groupContext="shape" transform="translate(143.668,-12.732)">
			<title>工作表.153</title>
			<path d="M-0 108.47 L15.38 108.47" class="st2"/>
		</g>
		<g id="shape154-394" v:mID="154" v:groupContext="shape" transform="translate(159.052,-12.732)">
			<title>工作表.154</title>
			<path d="M-0 108.47 L15.38 108.47" class="st2"/>
		</g>
		<g id="shape155-397" v:mID="155" v:groupContext="shape" transform="translate(174.436,-12.732)">
			<title>工作表.155</title>
			<path d="M0 108.47 L15.38 108.47" class="st2"/>
		</g>
		<g id="shape156-400" v:mID="156" v:groupContext="shape" transform="translate(189.819,-12.732)">
			<title>工作表.156</title>
			<path d="M0 108.47 L15.38 108.47" class="st2"/>
		</g>
		<g id="shape157-403" v:mID="157" v:groupContext="shape" transform="translate(205.203,-12.732)">
			<title>工作表.157</title>
			<path d="M-0 108.47 L15.38 108.47" class="st2"/>
		</g>
		<g id="shape158-406" v:mID="158" v:groupContext="shape" transform="translate(220.587,-12.732)">
			<title>工作表.158</title>
			<path d="M0 108.47 L15.38 108.47" class="st2"/>
		</g>
		<g id="shape159-409" v:mID="159" v:groupContext="shape" transform="translate(235.971,-12.732)">
			<title>工作表.159</title>
			<path d="M0 108.47 L15.38 108.47" class="st2"/>
		</g>
		<g id="shape160-412" v:mID="160" v:groupContext="shape" transform="translate(251.355,-12.732)">
			<title>工作表.160</title>
			<path d="M-0 108.47 L15.38 108.47" class="st2"/>
		</g>
		<g id="shape161-415" v:mID="161" v:groupContext="shape" transform="translate(266.739,-12.732)">
			<title>工作表.161</title>
			<path d="M-0 108.47 L15.38 108.47" class="st2"/>
		</g>
		<g id="shape162-418" v:mID="162" v:groupContext="shape" transform="translate(282.123,-12.732)">
			<title>工作表.162</title>
			<path d="M0 108.47 L15.38 108.47" class="st2"/>
		</g>
		<g id="shape163-421" v:mID="163" v:groupContext="shape" transform="translate(297.506,-12.732)">
			<title>工作表.163</title>
			<path d="M0 108.47 L15.38 108.47" class="st2"/>
		</g>
		<g id="shape164-424" v:mID="164" v:groupContext="shape" transform="translate(312.89,-12.732)">
			<title>工作表.164</title>
			<path d="M-0 108.47 L15.38 108.47" class="st2"/>
		</g>
		<g id="shape165-427" v:mID="165" v:groupContext="shape" transform="translate(328.274,-12.732)">
			<title>工作表.165</title>
			<path d="M0 108.47 L15.38 108.47" class="st2"/>
		</g>
		<g id="shape166-430" v:mID="166" v:groupContext="shape" transform="translate(343.658,-12.732)">
			<title>工作表.166</title>
			<path d="M-0 108.47 L15.38 108.47" class="st2"/>
		</g>
		<g id="shape167-433" v:mID="167" v:groupContext="shape" transform="translate(359.042,-12.732)">
			<title>工作表.167</title>
			<path d="M-0 108.47 L15.38 108.47" class="st2"/>
		</g>
		<g id="shape168-436" v:mID="168" v:groupContext="shape" transform="translate(374.426,-12.732)">
			<title>工作表.168</title>
			<path d="M0 108.47 L15.38 108.47" class="st2"/>
		</g>
		<g id="shape169-439" v:mID="169" v:groupContext="shape" transform="translate(389.81,-12.732)">
			<title>工作表.169</title>
			<path d="M-0 108.47 L15.38 108.47" class="st2"/>
		</g>
		<g id="shape170-442" v:mID="170" v:groupContext="shape" transform="translate(405.193,-12.732)">
			<title>工作表.170</title>
			<path d="M-0 108.47 L15.38 108.47" class="st2"/>
		</g>
		<g id="shape171-445" v:mID="171" v:groupContext="shape" transform="translate(420.577,-12.732)">
			<title>工作表.171</title>
			<path d="M0 108.47 L15.38 108.47" class="st2"/>
		</g>
		<g id="shape172-448" v:mID="172" v:groupContext="shape" transform="translate(435.961,-12.732)">
			<title>工作表.172</title>
			<path d="M-0 108.47 L15.38 108.47" class="st2"/>
		</g>
		<g id="shape173-451" v:mID="173" v:groupContext="shape" transform="translate(451.345,-12.732)">
			<title>工作表.173</title>
			<path d="M-0 108.47 L15.38 108.47" class="st2"/>
		</g>
		<g id="shape174-454" v:mID="174" v:groupContext="shape" transform="translate(466.729,-12.732)">
			<title>工作表.174</title>
			<path d="M0 108.47 L15.38 108.47" class="st2"/>
		</g>
		<g id="shape175-457" v:mID="175" v:groupContext="shape" transform="translate(482.113,-12.732)">
			<title>工作表.175</title>
			<path d="M-0 108.47 L15.38 108.47" class="st2"/>
		</g>
		<g id="shape176-460" v:mID="176" v:groupContext="shape" transform="translate(497.497,-12.732)">
			<title>工作表.176</title>
			<path d="M0 108.47 L15.38 108.47" class="st2"/>
		</g>
		<g id="shape177-463" v:mID="177" v:groupContext="shape" transform="translate(512.88,-12.732)">
			<title>工作表.177</title>
			<path d="M0 108.47 L15.38 108.47" class="st2"/>
		</g>
		<g id="shape178-466" v:mID="178" v:groupContext="shape" transform="translate(528.264,-12.732)">
			<title>工作表.178</title>
			<path d="M-0 108.47 L15.38 108.47" class="st2"/>
		</g>
		<g id="shape179-469" v:mID="179" v:groupContext="shape" transform="translate(78.2864,-46.5658)">
			<title>工作表.179</title>
			<desc>idle</desc>
			<v:textBlock v:margins="rect(0,0,0,0)" v:tabSpace="42.5197"/>
			<v:textRect cx="8.11375" cy="103.851" width="16.23" height="9.23179"/>
			<path d="M16.23 99.23 L0 99.23 L0 108.47 L16.23 108.47 L16.23 99.23" class="st3"/>
			<text x="2.13" y="106.16" class="st4" v:langID="2052"><v:paragraph v:horizAlign="1"/><v:tabList/>idle</text>		</g>
		<g id="shape180-473" v:mID="180" v:groupContext="shape" transform="translate(124.438,-46.5658)">
			<title>工作表.180</title>
			<desc>bit0</desc>
			<v:textBlock v:margins="rect(0,0,0,0)" v:tabSpace="42.5197"/>
			<v:textRect cx="8.35996" cy="103.851" width="16.72" height="9.23179"/>
			<path d="M16.72 99.23 L0 99.23 L0 108.47 L16.72 108.47 L16.72 99.23" class="st3"/>
			<text x="2.16" y="106.16" class="st4" v:langID="2052"><v:paragraph v:horizAlign="1"/><v:tabList/>bit0</text>		</g>
		<g id="shape181-477" v:mID="181" v:groupContext="shape" transform="translate(155.206,-46.5658)">
			<title>工作表.181</title>
			<desc>bit1</desc>
			<v:textBlock v:margins="rect(0,0,0,0)" v:tabSpace="42.5197"/>
			<v:textRect cx="8.35996" cy="103.851" width="16.72" height="9.23179"/>
			<path d="M16.72 99.23 L0 99.23 L0 108.47 L16.72 108.47 L16.72 99.23" class="st3"/>
			<text x="2.16" y="106.16" class="st4" v:langID="2052"><v:paragraph v:horizAlign="1"/><v:tabList/>bit1</text>		</g>
		<g id="shape182-481" v:mID="182" v:groupContext="shape" transform="translate(185.973,-46.5658)">
			<title>工作表.182</title>
			<desc>bit2</desc>
			<v:textBlock v:margins="rect(0,0,0,0)" v:tabSpace="42.5197"/>
			<v:textRect cx="8.35996" cy="103.851" width="16.72" height="9.23179"/>
			<path d="M16.72 99.23 L0 99.23 L0 108.47 L16.72 108.47 L16.72 99.23" class="st3"/>
			<text x="2.16" y="106.16" class="st4" v:langID="2052"><v:paragraph v:horizAlign="1"/><v:tabList/>bit2</text>		</g>
		<g id="shape183-485" v:mID="183" v:groupContext="shape" transform="translate(216.741,-46.5658)">
			<title>工作表.183</title>
			<desc>bit3</desc>
			<v:textBlock v:margins="rect(0,0,0,0)" v:tabSpace="42.5197"/>
			<v:textRect cx="8.35996" cy="103.851" width="16.72" height="9.23179"/>
			<path d="M16.72 99.23 L0 99.23 L0 108.47 L16.72 108.47 L16.72 99.23" class="st3"/>
			<text x="2.16" y="106.16" class="st4" v:langID="2052"><v:paragraph v:horizAlign="1"/><v:tabList/>bit3</text>		</g>
		<g id="shape184-489" v:mID="184" v:groupContext="shape" transform="translate(247.509,-46.5658)">
			<title>工作表.184</title>
			<desc>bit4</desc>
			<v:textBlock v:margins="rect(0,0,0,0)" v:tabSpace="42.5197"/>
			<v:textRect cx="8.35996" cy="103.851" width="16.72" height="9.23179"/>
			<path d="M16.72 99.23 L0 99.23 L0 108.47 L16.72 108.47 L16.72 99.23" class="st3"/>
			<text x="2.16" y="106.16" class="st4" v:langID="2052"><v:paragraph v:horizAlign="1"/><v:tabList/>bit4</text>		</g>
		<g id="shape185-493" v:mID="185" v:groupContext="shape" transform="translate(278.277,-46.5658)">
			<title>工作表.185</title>
			<desc>bit5</desc>
			<v:textBlock v:margins="rect(0,0,0,0)" v:tabSpace="42.5197"/>
			<v:textRect cx="8.35996" cy="103.851" width="16.72" height="9.23179"/>
			<path d="M16.72 99.23 L0 99.23 L0 108.47 L16.72 108.47 L16.72 99.23" class="st3"/>
			<text x="2.16" y="106.16" class="st4" v:langID="2052"><v:paragraph v:horizAlign="1"/><v:tabList/>bit5</text>		</g>
		<g id="shape186-497" v:mID="186" v:groupContext="shape" transform="translate(309.044,-46.5658)">
			<title>工作表.186</title>
			<desc>bit6</desc>
			<v:textBlock v:margins="rect(0,0,0,0)" v:tabSpace="42.5197"/>
			<v:textRect cx="8.35996" cy="103.851" width="16.72" height="9.23179"/>
			<path d="M16.72 99.23 L0 99.23 L0 108.47 L16.72 108.47 L16.72 99.23" class="st3"/>
			<text x="2.16" y="106.16" class="st4" v:langID="2052"><v:paragraph v:horizAlign="1"/><v:tabList/>bit6</text>		</g>
		<g id="shape187-501" v:mID="187" v:groupContext="shape" transform="translate(339.812,-46.5658)">
			<title>工作表.187</title>
			<desc>bit7</desc>
			<v:textBlock v:margins="rect(0,0,0,0)" v:tabSpace="42.5197"/>
			<v:textRect cx="8.35996" cy="103.851" width="16.72" height="9.23179"/>
			<path d="M16.72 99.23 L0 99.23 L0 108.47 L16.72 108.47 L16.72 99.23" class="st3"/>
			<text x="2.16" y="106.16" class="st4" v:langID="2052"><v:paragraph v:horizAlign="1"/><v:tabList/>bit7</text>		</g>
		<g id="shape188-505" v:mID="188" v:groupContext="shape" transform="translate(370.58,-46.5658)">
			<title>工作表.188</title>
			<desc>bit8</desc>
			<v:textBlock v:margins="rect(0,0,0,0)" v:tabSpace="42.5197"/>
			<v:textRect cx="8.35996" cy="103.851" width="16.72" height="9.23179"/>
			<path d="M16.72 99.23 L0 99.23 L0 108.47 L16.72 108.47 L16.72 99.23" class="st3"/>
			<text x="2.16" y="106.16" class="st4" v:langID="2052"><v:paragraph v:horizAlign="1"/><v:tabList/>bit8</text>		</g>
		<g id="shape189-509" v:mID="189" v:groupContext="shape" transform="translate(401.347,-46.5658)">
			<title>工作表.189</title>
			<desc>bit9</desc>
			<v:textBlock v:margins="rect(0,0,0,0)" v:tabSpace="42.5197"/>
			<v:textRect cx="8.35996" cy="103.851" width="16.72" height="9.23179"/>
			<path d="M16.72 99.23 L0 99.23 L0 108.47 L16.72 108.47 L16.72 99.23" class="st3"/>
			<text x="2.16" y="106.16" class="st4" v:langID="2052"><v:paragraph v:horizAlign="1"/><v:tabList/>bit9</text>		</g>
		<g id="shape190-513" v:mID="190" v:groupContext="shape" transform="translate(429.707,-48.1056)">
			<title>工作表.190</title>
			<desc>bit10</desc>
			<v:textBlock v:margins="rect(0,0,0,0)" v:tabSpace="42.5197"/>
			<v:textRect cx="10.8192" cy="103.851" width="21.64" height="9.23179"/>
			<path d="M21.64 99.23 L0 99.23 L0 108.47 L21.64 108.47 L21.64 99.23" class="st3"/>
			<text x="2.48" y="106.16" class="st4" v:langID="2052"><v:paragraph v:horizAlign="1"/><v:tabList/>bit10</text>		</g>
		<g id="shape191-517" v:mID="191" v:groupContext="shape" transform="translate(478.267,-46.5658)">
			<title>工作表.191</title>
			<desc>idle</desc>
			<v:textBlock v:margins="rect(0,0,0,0)" v:tabSpace="42.5197"/>
			<v:textRect cx="8.11375" cy="103.851" width="16.23" height="9.23179"/>
			<path d="M16.23 99.23 L0 99.23 L0 108.47 L16.23 108.47 L16.23 99.23" class="st3"/>
			<text x="2.13" y="106.16" class="st4" v:langID="2052"><v:paragraph v:horizAlign="1"/><v:tabList/>idle</text>		</g>
		<g id="shape253-521" v:mID="253" v:groupContext="shape" transform="translate(5.21309,-79.9416)">
			<title>工作表.253</title>
			<desc>RX</desc>
			<v:textBlock v:margins="rect(0,0,0,0)" v:tabSpace="42.5197"/>
			<v:textRect cx="9.5847" cy="102.466" width="19.17" height="12.0003"/>
			<path d="M19.17 96.47 L0 96.47 L0 108.47 L19.17 108.47 L19.17 96.47" class="st3"/>
			<text x="2.64" y="105.47" class="st5" v:langID="2052"><v:paragraph v:horizAlign="1"/><v:tabList/>RX</text>		</g>
		<g id="shape254-525" v:mID="254" v:groupContext="shape" transform="translate(5.21309,-46.1043)">
			<title>工作表.254</title>
			<desc>Break State</desc>
			<v:textBlock v:margins="rect(0,0,0,0)" v:tabSpace="42.5197"/>
			<v:textRect cx="31.6353" cy="102.466" width="63.28" height="12.0003"/>
			<path d="M63.27 96.47 L0 96.47 L0 108.47 L63.27 108.47 L63.27 96.47" class="st3"/>
			<text x="5.52" y="105.47" class="st5" v:langID="2052"><v:paragraph v:horizAlign="1"/><v:tabList/>Break State</text>		</g>
		<g id="shape255-529" v:mID="255" v:groupContext="shape" transform="translate(5.21309,-12.267)">
			<title>工作表.255</title>
			<desc>BRKDETIF</desc>
			<v:textBlock v:margins="rect(0,0,0,0)" v:tabSpace="42.5197"/>
			<v:textRect cx="29.7098" cy="102.466" width="59.42" height="12.0003"/>
			<path d="M59.42 96.47 L0 96.47 L0 108.47 L59.42 108.47 L59.42 96.47" class="st3"/>
			<text x="10.17" y="105.54" class="st6" v:langID="1033"><v:paragraph v:horizAlign="1"/><v:tabList/>BRKDETIF</text>		</g>
		<g id="shape256-533" v:mID="256" v:groupContext="shape" transform="translate(0.375,-0.375)">
			<title>工作表.256</title>
			<rect x="0" y="0.75" width="555.591" height="107.717" class="st7"/>
		</g>
		<g id="shape785-535" v:mID="785" v:groupContext="shape" transform="translate(331.279,65.5719) rotate(-90)">
			<title>工作表.785</title>
			<path d="M0 108.47 L51.02 108.47" class="st8"/>
		</g>
	</g>
</svg>
