<?xml version="1.0" encoding="UTF-8" standalone="no"?>
<!DOCTYPE svg PUBLIC "-//W3C//DTD SVG 1.1//EN" "http://www.w3.org/Graphics/SVG/1.1/DTD/svg11.dtd">
<!-- 由 Microsoft Visio, SVG Export 生成 uart_lin_fram.svg 页-1 -->
<svg xmlns="http://www.w3.org/2000/svg" xmlns:xlink="http://www.w3.org/1999/xlink" xmlns:ev="http://www.w3.org/2001/xml-events"
		xmlns:v="http://schemas.microsoft.com/visio/2003/SVGExtensions/" width="4.34738in" height="1.98517in"
		viewBox="0 0 313.011 142.932" xml:space="preserve" color-interpolation-filters="sRGB" class="st10">
	<v:documentProperties v:langID="2052" v:metric="true" v:viewMarkup="false">
		<v:userDefs>
			<v:ud v:nameU="msvConvertTheme"/>
		</v:userDefs>
	</v:documentProperties>

	<style type="text/css">
	<![CDATA[
		.st1 {stroke:#000000;stroke-linecap:round;stroke-linejoin:round;stroke-width:0.24}
		.st2 {fill:none;stroke:none;stroke-linecap:round;stroke-linejoin:round;stroke-width:0.72}
		.st3 {fill:#000000;font-family:宋体;font-size:0.666664em}
		.st4 {font-size:1em}
		.st5 {marker-end:url(#mrkr1-340);marker-start:url(#mrkr1-338);stroke:#000000;stroke-linecap:round;stroke-linejoin:round;stroke-width:0.24}
		.st6 {fill:#000000;fill-opacity:1;stroke:#000000;stroke-opacity:1;stroke-width:0.08695652173913}
		.st7 {fill:none;marker-end:url(#mrkr1-374);marker-start:url(#mrkr1-372);stroke:none;stroke-linecap:round;stroke-linejoin:round;stroke-width:0.72}
		.st8 {fill:#000000;fill-opacity:1;stroke:#000000;stroke-opacity:1;stroke-width:0.22222222222222}
		.st9 {fill:#e8eef7;fill-opacity:0;stroke:#000000;stroke-linecap:round;stroke-linejoin:round;stroke-width:1.2}
		.st10 {fill:none;fill-rule:evenodd;font-size:12px;overflow:visible;stroke-linecap:square;stroke-miterlimit:3}
	]]>
	</style>

	<defs id="Markers">
		<g id="lend1">
			<path d="M 1 -1 L 0 0 L 1 1 " style="stroke-linecap:round;stroke-linejoin:round;fill:none"/>
		</g>
		<marker id="mrkr1-338" class="st6" v:arrowType="1" v:arrowSize="2" orient="auto" markerUnits="strokeWidth"
				overflow="visible">
			<use xlink:href="#lend1" transform="scale(11.5) "/>
		</marker>
		<marker id="mrkr1-340" class="st6" v:arrowType="1" v:arrowSize="2" orient="auto" markerUnits="strokeWidth"
				overflow="visible">
			<use xlink:href="#lend1" transform="scale(-11.5,-11.5) "/>
		</marker>
		<marker id="mrkr1-372" class="st8" v:arrowType="1" v:arrowSize="2" orient="auto" markerUnits="strokeWidth"
				overflow="visible">
			<use xlink:href="#lend1" transform="scale(4.5) "/>
		</marker>
		<marker id="mrkr1-374" class="st8" v:arrowType="1" v:arrowSize="2" orient="auto" markerUnits="strokeWidth"
				overflow="visible">
			<use xlink:href="#lend1" transform="scale(-4.5,-4.5) "/>
		</marker>
	</defs>
	<g v:mID="0" v:index="1" v:groupContext="foregroundPage">
		<title>页-1</title>
		<v:pageProperties v:drawingScale="0.0393701" v:pageScale="0.0393701" v:drawingUnits="24" v:shadowOffsetX="8.50394"
				v:shadowOffsetY="-8.50394"/>
		<v:layer v:name="电气" v:index="0"/>
		<g id="group60-1" transform="translate(14.2063,-17.0409)" v:mID="60" v:groupContext="group">
			<title>工作表.60</title>
			<g id="group58-2" v:mID="58" v:groupContext="group">
				<title>工作表.58</title>
				<g id="group50-3" v:mID="50" v:groupContext="group">
					<title>工作表.50</title>
					<g id="shape3-4" v:mID="3" v:groupContext="shape" v:layerMember="0" transform="translate(90,-11.9055)">
						<title>信号波形.3</title>
						<v:custProps>
							<v:cp v:nameU="SubType" v:lbl="类型" v:type="1" v:format="方波;正弦波;锯齿波;斜波;3 状态数据" v:langID="2052"
									v:val="VT4(方波)"/>
							<v:cp v:nameU="SubType" v:lbl="" v:prompt="" v:type="0" v:format="" v:sortKey="" v:invis="false"
									v:ask="false" v:langID="0" v:cal="0" v:val="VT4(斜波)"/>
						</v:custProps>
						<v:userDefs>
							<v:ud v:nameU="SubType" v:val="VT0(0):26"/>
							<v:ud v:nameU="visVersion" v:val="VT0(11):26"/>
							<v:ud v:nameU="visDescription" v:val="VT4(表示各种信号波形。)"/>
							<v:ud v:nameU="SubType" v:prompt="" v:val="VT0(3):26"/>
						</v:userDefs>
						<path d="M0 135.85 L2.13 128.76 L4.25 128.76 L8.5 142.93 L10.63 142.93 L12.76 135.85" class="st1"/>
					</g>
					<g id="shape7-7" v:mID="7" v:groupContext="shape" transform="translate(188.637,165.011) rotate(106.699)">
						<title>工作表.7</title>
						<path d="M0 142.93 L7.4 142.93" class="st1"/>
					</g>
					<g id="shape8-10" v:mID="8" v:groupContext="shape" transform="translate(179.991,75.7823) rotate(73.3008)">
						<title>工作表.8</title>
						<path d="M0 142.93 L14.8 142.93" class="st1"/>
					</g>
					<g id="shape9-13" v:mID="9" v:groupContext="shape" transform="translate(47.3386,-11.9055)">
						<title>工作表.9</title>
						<path d="M0 142.93 L2.27 142.93" class="st1"/>
					</g>
					<g id="shape10-16" v:mID="10" v:groupContext="shape" transform="translate(36.8504,-26.0787)">
						<title>工作表.10</title>
						<path d="M0 142.93 L6.24 142.93" class="st1"/>
					</g>
					<g id="shape15-19" v:mID="15" v:groupContext="shape" transform="translate(132.945,-26.0787)">
						<title>工作表.15</title>
						<path d="M0 142.93 L14.46 142.93" class="st1"/>
					</g>
					<g id="shape19-22" v:mID="19" v:groupContext="shape" transform="translate(150.236,-11.9055)">
						<title>工作表.19</title>
						<path d="M0 142.93 L5.67 142.93" class="st1"/>
					</g>
					<g id="shape17-25" v:mID="17" v:groupContext="shape" transform="translate(173.858,-26.0787)">
						<title>工作表.17</title>
						<path d="M0 142.93 L5.01 142.93" class="st1"/>
					</g>
					<g id="shape27-28" v:mID="27" v:groupContext="shape" transform="translate(81.3634,89.9555) rotate(-73.3008)">
						<title>工作表.27</title>
						<path d="M0 142.93 L14.8 142.93" class="st1"/>
					</g>
					<g id="shape28-31" v:mID="28" v:groupContext="shape" transform="translate(347.291,77.9188) rotate(74.1929)">
						<title>工作表.28</title>
						<path d="M0 142.93 L14.77 142.93" class="st1"/>
					</g>
					<g id="group29-34" transform="translate(181.922,2.84217E-14)" v:mID="29" v:groupContext="group">
						<title>工作表.29</title>
						<g id="shape30-35" v:mID="30" v:groupContext="shape"
								transform="translate(-133.095,89.9555) rotate(-73.3008)">
							<title>工作表.30</title>
							<path d="M0 142.93 L14.8 142.93" class="st1"/>
						</g>
						<g id="shape31-38" v:mID="31" v:groupContext="shape" transform="translate(8.06102,-26.0787)">
							<title>工作表.31</title>
							<path d="M0 142.93 L15.59 142.93" class="st1"/>
						</g>
						<g id="shape32-41" v:mID="32" v:groupContext="shape" transform="translate(3.86887,-11.9055)">
							<title>工作表.32</title>
							<path d="M0 142.93 L15.53 142.93" class="st1"/>
						</g>
						<g id="shape33-44" v:mID="33" v:groupContext="shape" transform="translate(160.556,157.925) rotate(106.699)">
							<title>工作表.33</title>
							<path d="M0 142.93 L14.8 142.93" class="st1"/>
						</g>
					</g>
					<g id="shape35-47" v:mID="35" v:groupContext="shape" transform="translate(213.352,-11.8653) rotate(-0.174702)">
						<title>工作表.35</title>
						<path d="M0 142.93 L12.98 142.93" class="st1"/>
					</g>
					<g id="shape34-50" v:mID="34" v:groupContext="shape" transform="translate(205.512,-26.0787)">
						<title>工作表.34</title>
						<path d="M0 142.93 L4.25 142.93" class="st1"/>
					</g>
					<g id="shape36-53" v:mID="36" v:groupContext="shape" transform="translate(222.431,-26.0787)">
						<title>工作表.36</title>
						<path d="M0 142.93 L4.34 142.93" class="st1"/>
					</g>
					<g id="shape37-56" v:mID="37" v:groupContext="shape" transform="translate(369.704,116.854) rotate(90)">
						<title>工作表.37</title>
						<path d="M0 142.93 L14.17 142.93" class="st1"/>
					</g>
					<g id="shape38-59" v:mID="38" v:groupContext="shape" transform="translate(229.606,-11.9055)">
						<title>工作表.38</title>
						<path d="M10.77 128.76 L0 128.76 L0 142.93" class="st1"/>
					</g>
					<g id="shape39-62" v:mID="39" v:groupContext="shape" transform="translate(229.606,-11.9055)">
						<title>工作表.39</title>
						<path d="M0 142.93 L3.21 142.93" class="st1"/>
					</g>
					<g id="shape40-65" v:mID="40" v:groupContext="shape" transform="translate(95.9146,89.9555) rotate(-73.3008)">
						<title>工作表.40</title>
						<path d="M0 142.93 L14.8 142.93" class="st1"/>
					</g>
					<g id="shape41-68" v:mID="41" v:groupContext="shape" transform="translate(377.905,77.9188) rotate(74.1929)">
						<title>工作表.41</title>
						<path d="M0 142.93 L14.77 142.93" class="st1"/>
					</g>
					<g id="shape42-71" v:mID="42" v:groupContext="shape" transform="translate(244.402,-11.8659)">
						<title>工作表.42</title>
						<path d="M0 142.93 L2.21 142.93" class="st1"/>
					</g>
					<g id="group44-74" transform="translate(242.805,2.84217E-14)" v:mID="44" v:groupContext="group">
						<title>工作表.44</title>
						<g id="shape45-75" v:mID="45" v:groupContext="shape"
								transform="translate(-133.095,89.9555) rotate(-73.3008)">
							<title>工作表.45</title>
							<path d="M0 142.93 L14.8 142.93" class="st1"/>
						</g>
						<g id="shape46-78" v:mID="46" v:groupContext="shape" transform="translate(8.06102,-26.0787)">
							<title>工作表.46</title>
							<path d="M0 142.93 L15.59 142.93" class="st1"/>
						</g>
						<g id="shape47-81" v:mID="47" v:groupContext="shape" transform="translate(3.86887,-11.9055)">
							<title>工作表.47</title>
							<path d="M0 142.93 L15.53 142.93" class="st1"/>
						</g>
						<g id="shape48-84" v:mID="48" v:groupContext="shape" transform="translate(160.556,157.925) rotate(106.699)">
							<title>工作表.48</title>
							<path d="M0 142.93 L14.8 142.93" class="st1"/>
						</g>
					</g>
					<g id="shape43-87" v:mID="43" v:groupContext="shape" transform="translate(266.457,-11.9055)">
						<title>工作表.43</title>
						<path d="M0 128.76 L15.59 128.76 L19.84 142.93 L24.66 142.93" class="st1"/>
					</g>
				</g>
			</g>
			<g id="group59-90" v:mID="59" v:groupContext="group">
				<title>工作表.59</title>
				<g id="group21-91" transform="translate(109.577,0)" v:mID="21" v:groupContext="group">
					<title>工作表.21</title>
					<g id="shape12-92" v:mID="12" v:groupContext="shape" transform="translate(8.06102,-26.0787)">
						<title>工作表.12</title>
						<path d="M0 142.93 L15.59 142.93" class="st1"/>
					</g>
				</g>
				<g id="group57-95" v:mID="57" v:groupContext="group">
					<title>工作表.57</title>
					<g id="shape16-96" v:mID="16" v:groupContext="shape" transform="translate(287.558,88.8222) rotate(78.6901)">
						<title>工作表.16</title>
						<path d="M0 142.93 L14.45 142.93" class="st1"/>
					</g>
					<g id="group22-99" transform="translate(150.679,0)" v:mID="22" v:groupContext="group">
						<title>工作表.22</title>
						<g id="shape23-100" v:mID="23" v:groupContext="shape"
								transform="translate(-133.095,89.9555) rotate(-73.3008)">
							<title>工作表.23</title>
							<path d="M0 142.93 L14.8 142.93" class="st1"/>
						</g>
						<g id="shape24-103" v:mID="24" v:groupContext="shape" transform="translate(8.06102,-26.0787)">
							<title>工作表.24</title>
							<path d="M0 142.93 L15.59 142.93" class="st1"/>
						</g>
						<g id="shape25-106" v:mID="25" v:groupContext="shape" transform="translate(3.86887,-11.9055)">
							<title>工作表.25</title>
							<path d="M0 142.93 L15.53 142.93" class="st1"/>
						</g>
						<g id="shape26-109" v:mID="26" v:groupContext="shape"
								transform="translate(160.556,157.925) rotate(106.699)">
							<title>工作表.26</title>
							<path d="M0 142.93 L14.8 142.93" class="st1"/>
						</g>
					</g>
					<g id="shape18-112" v:mID="18" v:groupContext="shape" transform="translate(178.866,-11.9055)">
						<title>工作表.18</title>
						<path d="M0 128.76 L2.83 142.93 L10.49 142.93" class="st1"/>
					</g>
					<g id="group56-115" transform="translate(0,-11.9055)" v:mID="56" v:groupContext="group">
						<title>工作表.56</title>
						<g id="shape5-116" v:mID="5" v:groupContext="shape" v:layerMember="0" transform="translate(51.7323,0)">
							<title>信号波形.5</title>
							<v:custProps>
								<v:cp v:nameU="SubType" v:lbl="类型" v:type="1" v:format="方波;正弦波;锯齿波;斜波;3 状态数据" v:langID="2052"
										v:val="VT4(方波)"/>
								<v:cp v:nameU="SubType" v:lbl="" v:prompt="" v:type="0" v:format="" v:sortKey="" v:invis="false"
										v:ask="false" v:langID="0" v:cal="0" v:val="VT4(斜波)"/>
							</v:custProps>
							<v:userDefs>
								<v:ud v:nameU="SubType" v:val="VT0(0):26"/>
								<v:ud v:nameU="visVersion" v:val="VT0(11):26"/>
								<v:ud v:nameU="visDescription" v:val="VT4(表示各种信号波形。)"/>
								<v:ud v:nameU="SubType" v:prompt="" v:val="VT0(3):26"/>
							</v:userDefs>
							<path d="M0 135.85 L2.13 128.76 L4.25 128.76 L8.5 142.93 L10.63 142.93 L12.76 135.85" class="st1"/>
						</g>
						<g id="shape1-119" v:mID="1" v:groupContext="shape" v:layerMember="0"
								transform="translate(64.4882,-1.13687E-13)">
							<title>信号波形.1</title>
							<v:custProps>
								<v:cp v:nameU="SubType" v:lbl="类型" v:type="1" v:format="方波;正弦波;锯齿波;斜波;3 状态数据" v:langID="2052"
										v:val="VT4(方波)"/>
								<v:cp v:nameU="SubType" v:lbl="" v:prompt="" v:type="0" v:format="" v:sortKey="" v:invis="false"
										v:ask="false" v:langID="0" v:cal="0" v:val="VT4(斜波)"/>
							</v:custProps>
							<v:userDefs>
								<v:ud v:nameU="SubType" v:val="VT0(0):26"/>
								<v:ud v:nameU="visVersion" v:val="VT0(11):26"/>
								<v:ud v:nameU="visDescription" v:val="VT4(表示各种信号波形。)"/>
								<v:ud v:nameU="SubType" v:prompt="" v:val="VT0(3):26"/>
							</v:userDefs>
							<path d="M0 135.85 L2.13 128.76 L4.25 128.76 L8.5 142.93 L10.63 142.93 L12.76 135.85" class="st1"/>
						</g>
						<g id="shape2-122" v:mID="2" v:groupContext="shape" v:layerMember="0"
								transform="translate(77.2441,-2.27374E-13)">
							<title>信号波形.2</title>
							<v:custProps>
								<v:cp v:nameU="SubType" v:lbl="类型" v:type="1" v:format="方波;正弦波;锯齿波;斜波;3 状态数据" v:langID="2052"
										v:val="VT4(方波)"/>
								<v:cp v:nameU="SubType" v:lbl="" v:prompt="" v:type="0" v:format="" v:sortKey="" v:invis="false"
										v:ask="false" v:langID="0" v:cal="0" v:val="VT4(斜波)"/>
							</v:custProps>
							<v:userDefs>
								<v:ud v:nameU="SubType" v:val="VT0(0):26"/>
								<v:ud v:nameU="visVersion" v:val="VT0(11):26"/>
								<v:ud v:nameU="visDescription" v:val="VT4(表示各种信号波形。)"/>
								<v:ud v:nameU="SubType" v:prompt="" v:val="VT0(3):26"/>
							</v:userDefs>
							<path d="M0 135.85 L2.13 128.76 L4.25 128.76 L8.5 142.93 L10.63 142.93 L12.76 135.85" class="st1"/>
						</g>
						<g id="shape4-125" v:mID="4" v:groupContext="shape" v:layerMember="0"
								transform="translate(102.756,-5.11591E-13)">
							<title>信号波形.4</title>
							<v:custProps>
								<v:cp v:nameU="SubType" v:lbl="类型" v:type="1" v:format="方波;正弦波;锯齿波;斜波;3 状态数据" v:langID="2052"
										v:val="VT4(方波)"/>
								<v:cp v:nameU="SubType" v:lbl="" v:prompt="" v:type="0" v:format="" v:sortKey="" v:invis="false"
										v:ask="false" v:langID="0" v:cal="0" v:val="VT4(斜波)"/>
							</v:custProps>
							<v:userDefs>
								<v:ud v:nameU="SubType" v:val="VT0(0):26"/>
								<v:ud v:nameU="visVersion" v:val="VT0(11):26"/>
								<v:ud v:nameU="visDescription" v:val="VT4(表示各种信号波形。)"/>
								<v:ud v:nameU="SubType" v:prompt="" v:val="VT0(3):26"/>
							</v:userDefs>
							<path d="M0 135.85 L2.13 128.76 L4.25 128.76 L8.5 142.93 L10.63 142.93 L12.76 135.85" class="st1"/>
						</g>
						<g id="shape11-128" v:mID="11" v:groupContext="shape">
							<title>工作表.11</title>
							<path d="M36.85 128.76 L34.02 142.93 L8.5 142.93 L5.67 128.76 L0 128.76" class="st1"/>
						</g>
						<g id="group20-131" transform="translate(113.446,-1.13687E-13)" v:mID="20" v:groupContext="group">
							<title>工作表.20</title>
							<g id="shape13-132" v:mID="13" v:groupContext="shape">
								<title>工作表.13</title>
								<path d="M0 142.93 L15.53 142.93" class="st1"/>
							</g>
							<g id="shape14-135" v:mID="14" v:groupContext="shape"
									transform="translate(156.525,170.367) rotate(106.924)">
								<title>工作表.14</title>
								<path d="M0 142.93 L14.61 142.93" class="st1"/>
							</g>
							<g id="shape6-138" v:mID="6" v:groupContext="shape"
									transform="translate(140.766,171.117) rotate(107.155)">
								<title>工作表.6</title>
								<path d="M0 142.93 L7.21 142.93" class="st1"/>
							</g>
						</g>
					</g>
				</g>
			</g>
		</g>
		<g id="group65-141" transform="translate(129.009,-28.8624)" v:mID="65" v:groupContext="group">
			<title>工作表.65</title>
			<g id="shape49-142" v:mID="49" v:groupContext="shape" transform="translate(142.411,170.482) rotate(106.924)">
				<title>工作表.49</title>
				<path d="M0 142.93 L14.61 142.93" class="st1"/>
			</g>
			<g id="shape51-145" v:mID="51" v:groupContext="shape" transform="translate(140.994,170.482) rotate(106.924)">
				<title>工作表.51</title>
				<path d="M0 142.93 L14.61 142.93" class="st1"/>
			</g>
			<g id="shape52-148" v:mID="52" v:groupContext="shape" transform="translate(143.829,170.482) rotate(106.924)">
				<title>工作表.52</title>
				<path d="M0 142.93 L14.61 142.93" class="st1"/>
			</g>
			<g id="shape53-151" v:mID="53" v:groupContext="shape" transform="translate(145.246,170.566) rotate(106.924)">
				<title>工作表.53</title>
				<path d="M0 142.93 L14.61 142.93" class="st1"/>
			</g>
			<g id="shape54-154" v:mID="54" v:groupContext="shape" transform="translate(146.663,170.566) rotate(106.924)">
				<title>工作表.54</title>
				<path d="M0 142.93 L14.61 142.93" class="st1"/>
			</g>
			<g id="shape55-157" v:mID="55" v:groupContext="shape" transform="translate(148.081,170.482) rotate(106.924)">
				<title>工作表.55</title>
				<path d="M0 142.93 L14.61 142.93" class="st1"/>
			</g>
			<g id="shape61-160" v:mID="61" v:groupContext="shape" transform="translate(149.498,170.482) rotate(106.924)">
				<title>工作表.61</title>
				<path d="M0 142.93 L14.61 142.93" class="st1"/>
			</g>
			<g id="shape62-163" v:mID="62" v:groupContext="shape" transform="translate(150.915,170.482) rotate(106.924)">
				<title>工作表.62</title>
				<path d="M0 142.93 L14.61 142.93" class="st1"/>
			</g>
			<g id="shape63-166" v:mID="63" v:groupContext="shape" transform="translate(152.333,170.482) rotate(106.924)">
				<title>工作表.63</title>
				<path d="M0 142.93 L14.61 142.93" class="st1"/>
			</g>
			<g id="shape64-169" v:mID="64" v:groupContext="shape" transform="translate(153.75,170.283) rotate(106.924)">
				<title>工作表.64</title>
				<path d="M0 142.93 L14.61 142.93" class="st1"/>
			</g>
		</g>
		<g id="group66-172" transform="translate(170.112,-28.8624)" v:mID="66" v:groupContext="group">
			<title>工作表.66</title>
			<g id="shape67-173" v:mID="67" v:groupContext="shape" transform="translate(142.411,170.482) rotate(106.924)">
				<title>工作表.67</title>
				<path d="M0 142.93 L14.61 142.93" class="st1"/>
			</g>
			<g id="shape68-176" v:mID="68" v:groupContext="shape" transform="translate(140.994,170.482) rotate(106.924)">
				<title>工作表.68</title>
				<path d="M0 142.93 L14.61 142.93" class="st1"/>
			</g>
			<g id="shape69-179" v:mID="69" v:groupContext="shape" transform="translate(143.829,170.482) rotate(106.924)">
				<title>工作表.69</title>
				<path d="M0 142.93 L14.61 142.93" class="st1"/>
			</g>
			<g id="shape70-182" v:mID="70" v:groupContext="shape" transform="translate(145.246,170.566) rotate(106.924)">
				<title>工作表.70</title>
				<path d="M0 142.93 L14.61 142.93" class="st1"/>
			</g>
			<g id="shape71-185" v:mID="71" v:groupContext="shape" transform="translate(146.663,170.566) rotate(106.924)">
				<title>工作表.71</title>
				<path d="M0 142.93 L14.61 142.93" class="st1"/>
			</g>
			<g id="shape72-188" v:mID="72" v:groupContext="shape" transform="translate(148.081,170.482) rotate(106.924)">
				<title>工作表.72</title>
				<path d="M0 142.93 L14.61 142.93" class="st1"/>
			</g>
			<g id="shape73-191" v:mID="73" v:groupContext="shape" transform="translate(149.498,170.482) rotate(106.924)">
				<title>工作表.73</title>
				<path d="M0 142.93 L14.61 142.93" class="st1"/>
			</g>
			<g id="shape74-194" v:mID="74" v:groupContext="shape" transform="translate(150.915,170.482) rotate(106.924)">
				<title>工作表.74</title>
				<path d="M0 142.93 L14.61 142.93" class="st1"/>
			</g>
			<g id="shape75-197" v:mID="75" v:groupContext="shape" transform="translate(152.333,170.482) rotate(106.924)">
				<title>工作表.75</title>
				<path d="M0 142.93 L14.61 142.93" class="st1"/>
			</g>
			<g id="shape76-200" v:mID="76" v:groupContext="shape" transform="translate(153.75,170.283) rotate(106.924)">
				<title>工作表.76</title>
				<path d="M0 142.93 L14.61 142.93" class="st1"/>
			</g>
		</g>
		<g id="group77-203" transform="translate(201.293,-28.8624)" v:mID="77" v:groupContext="group">
			<title>工作表.77</title>
			<g id="shape78-204" v:mID="78" v:groupContext="shape" transform="translate(142.411,170.482) rotate(106.924)">
				<title>工作表.78</title>
				<path d="M0 142.93 L14.61 142.93" class="st1"/>
			</g>
			<g id="shape79-207" v:mID="79" v:groupContext="shape" transform="translate(140.994,170.482) rotate(106.924)">
				<title>工作表.79</title>
				<path d="M0 142.93 L14.61 142.93" class="st1"/>
			</g>
			<g id="shape80-210" v:mID="80" v:groupContext="shape" transform="translate(143.829,170.482) rotate(106.924)">
				<title>工作表.80</title>
				<path d="M0 142.93 L14.61 142.93" class="st1"/>
			</g>
			<g id="shape81-213" v:mID="81" v:groupContext="shape" transform="translate(145.246,170.566) rotate(106.924)">
				<title>工作表.81</title>
				<path d="M0 142.93 L14.61 142.93" class="st1"/>
			</g>
			<g id="shape82-216" v:mID="82" v:groupContext="shape" transform="translate(146.663,170.566) rotate(106.924)">
				<title>工作表.82</title>
				<path d="M0 142.93 L14.61 142.93" class="st1"/>
			</g>
			<g id="shape83-219" v:mID="83" v:groupContext="shape" transform="translate(148.081,170.482) rotate(106.924)">
				<title>工作表.83</title>
				<path d="M0 142.93 L14.61 142.93" class="st1"/>
			</g>
			<g id="shape84-222" v:mID="84" v:groupContext="shape" transform="translate(149.498,170.482) rotate(106.924)">
				<title>工作表.84</title>
				<path d="M0 142.93 L14.61 142.93" class="st1"/>
			</g>
			<g id="shape85-225" v:mID="85" v:groupContext="shape" transform="translate(150.915,170.482) rotate(106.924)">
				<title>工作表.85</title>
				<path d="M0 142.93 L14.61 142.93" class="st1"/>
			</g>
			<g id="shape86-228" v:mID="86" v:groupContext="shape" transform="translate(152.333,170.482) rotate(106.924)">
				<title>工作表.86</title>
				<path d="M0 142.93 L14.61 142.93" class="st1"/>
			</g>
			<g id="shape87-231" v:mID="87" v:groupContext="shape" transform="translate(153.75,170.283) rotate(106.924)">
				<title>工作表.87</title>
				<path d="M0 142.93 L14.61 142.93" class="st1"/>
			</g>
		</g>
		<g id="shape89-234" v:mID="89" v:groupContext="shape" transform="translate(376.303,141.62) rotate(106.924)">
			<title>工作表.89</title>
			<path d="M0 142.93 L14.61 142.93" class="st1"/>
		</g>
		<g id="shape90-237" v:mID="90" v:groupContext="shape" transform="translate(374.885,141.62) rotate(106.924)">
			<title>工作表.90</title>
			<path d="M0 142.93 L14.61 142.93" class="st1"/>
		</g>
		<g id="shape91-240" v:mID="91" v:groupContext="shape" transform="translate(377.72,141.62) rotate(106.924)">
			<title>工作表.91</title>
			<path d="M0 142.93 L14.61 142.93" class="st1"/>
		</g>
		<g id="shape92-243" v:mID="92" v:groupContext="shape" transform="translate(377.87,145.744) rotate(106.717)">
			<title>工作表.92</title>
			<path d="M0 142.93 L9.85 142.93" class="st1"/>
		</g>
		<g id="shape93-246" v:mID="93" v:groupContext="shape" transform="translate(378.855,146.562) rotate(105.284)">
			<title>工作表.93</title>
			<path d="M0 142.93 L5.38 142.93" class="st1"/>
		</g>
		<g id="shape94-249" v:mID="94" v:groupContext="shape" transform="translate(383.593,135.864) rotate(104.527)">
			<title>工作表.94</title>
			<path d="M0 142.93 L5.65 142.93" class="st1"/>
		</g>
		<g id="shape95-252" v:mID="95" v:groupContext="shape" transform="translate(383.866,140.021) rotate(106.255)">
			<title>工作表.95</title>
			<path d="M0 142.93 L10.13 142.93" class="st1"/>
		</g>
		<g id="shape96-255" v:mID="96" v:groupContext="shape" transform="translate(384.807,141.62) rotate(106.924)">
			<title>工作表.96</title>
			<path d="M0 142.93 L14.61 142.93" class="st1"/>
		</g>
		<g id="shape97-258" v:mID="97" v:groupContext="shape" transform="translate(386.224,141.62) rotate(106.924)">
			<title>工作表.97</title>
			<path d="M0 142.93 L14.61 142.93" class="st1"/>
		</g>
		<g id="group88-261" transform="translate(262.238,-28.9465)" v:mID="88" v:groupContext="group">
			<title>工作表.88</title>
			<g id="shape98-262" v:mID="98" v:groupContext="shape" transform="translate(142.411,170.482) rotate(106.924)">
				<title>工作表.98</title>
				<path d="M0 142.93 L14.61 142.93" class="st1"/>
			</g>
			<g id="shape99-265" v:mID="99" v:groupContext="shape" transform="translate(140.994,170.482) rotate(106.924)">
				<title>工作表.99</title>
				<path d="M0 142.93 L14.61 142.93" class="st1"/>
			</g>
			<g id="shape100-268" v:mID="100" v:groupContext="shape" transform="translate(143.829,170.482) rotate(106.924)">
				<title>工作表.100</title>
				<path d="M0 142.93 L14.61 142.93" class="st1"/>
			</g>
			<g id="shape101-271" v:mID="101" v:groupContext="shape" transform="translate(145.246,170.566) rotate(106.924)">
				<title>工作表.101</title>
				<path d="M0 142.93 L14.61 142.93" class="st1"/>
			</g>
			<g id="shape102-274" v:mID="102" v:groupContext="shape" transform="translate(146.663,170.566) rotate(106.924)">
				<title>工作表.102</title>
				<path d="M0 142.93 L14.61 142.93" class="st1"/>
			</g>
			<g id="shape103-277" v:mID="103" v:groupContext="shape" transform="translate(148.081,170.482) rotate(106.924)">
				<title>工作表.103</title>
				<path d="M0 142.93 L14.61 142.93" class="st1"/>
			</g>
			<g id="shape104-280" v:mID="104" v:groupContext="shape" transform="translate(149.498,170.482) rotate(106.924)">
				<title>工作表.104</title>
				<path d="M0 142.93 L14.61 142.93" class="st1"/>
			</g>
			<g id="shape105-283" v:mID="105" v:groupContext="shape" transform="translate(150.915,170.482) rotate(106.924)">
				<title>工作表.105</title>
				<path d="M0 142.93 L14.61 142.93" class="st1"/>
			</g>
			<g id="shape106-286" v:mID="106" v:groupContext="shape" transform="translate(152.333,170.482) rotate(106.924)">
				<title>工作表.106</title>
				<path d="M0 142.93 L14.61 142.93" class="st1"/>
			</g>
			<g id="shape107-289" v:mID="107" v:groupContext="shape" transform="translate(153.75,170.283) rotate(106.924)">
				<title>工作表.107</title>
				<path d="M0 142.93 L14.61 142.93" class="st1"/>
			</g>
		</g>
		<g id="shape108-292" v:mID="108" v:groupContext="shape" transform="translate(18.3008,-5.85984)">
			<title>工作表.108</title>
			<desc>Break Field</desc>
			<v:textBlock v:margins="rect(4,4,4,4)" v:tabSpace="42.5197"/>
			<v:textRect cx="17.7323" cy="134.932" width="35.47" height="16"/>
			<rect x="0" y="126.932" width="35.4646" height="16" class="st2"/>
			<text x="7.73" y="132.53" class="st3" v:langID="2052"><v:paragraph v:horizAlign="1"/><v:tabList/>Break <v:newlineChar/><tspan
						x="7.73" dy="1.2em" class="st4">Field</tspan></text>		</g>
		<g id="shape109-296" v:mID="109" v:groupContext="shape" transform="translate(67.9071,-6.77323)">
			<title>工作表.109</title>
			<desc>Synch Field</desc>
			<v:textBlock v:margins="rect(4,4,4,4)" v:tabSpace="42.5197"/>
			<v:textRect cx="17.7323" cy="134.932" width="35.47" height="16"/>
			<rect x="0" y="126.932" width="35.4646" height="16" class="st2"/>
			<text x="7.73" y="132.53" class="st3" v:langID="2052"><v:paragraph v:horizAlign="1"/><v:tabList/>Synch <v:newlineChar/><tspan
						x="7.73" dy="1.2em" class="st4">Field</tspan></text>		</g>
		<g id="shape110-300" v:mID="110" v:groupContext="shape" transform="translate(106.175,-5.85984)">
			<title>工作表.110</title>
			<desc>Protected Identifier</desc>
			<v:textBlock v:margins="rect(4,4,4,4)" v:tabSpace="42.5197"/>
			<v:textRect cx="32.252" cy="134.932" width="64.51" height="16"/>
			<rect x="0" y="126.932" width="64.5039" height="16" class="st2"/>
			<text x="14.25" y="132.53" class="st3" v:langID="2052"><v:paragraph v:horizAlign="1"/><v:tabList/>Protected <tspan
						x="12.25" dy="1.2em" class="st4">Identifier</tspan></text>		</g>
		<g id="shape111-304" v:mID="111" v:groupContext="shape" transform="translate(163.592,-5.85984)">
			<title>工作表.111</title>
			<desc>Data1</desc>
			<v:textBlock v:margins="rect(4,4,4,4)" v:tabSpace="42.5197"/>
			<v:textRect cx="17.7323" cy="134.932" width="35.47" height="16"/>
			<rect x="0" y="126.932" width="35.4646" height="16" class="st2"/>
			<text x="7.73" y="137.33" class="st3" v:langID="2052"><v:paragraph v:horizAlign="1"/><v:tabList/>Data1</text>		</g>
		<g id="shape112-307" v:mID="112" v:groupContext="shape" transform="translate(195.466,-5.85984)">
			<title>工作表.112</title>
			<desc>Data2</desc>
			<v:textBlock v:margins="rect(4,4,4,4)" v:tabSpace="42.5197"/>
			<v:textRect cx="17.7323" cy="134.932" width="35.47" height="16"/>
			<rect x="0" y="126.932" width="35.4646" height="16" class="st2"/>
			<text x="7.73" y="137.33" class="st3" v:langID="2052"><v:paragraph v:horizAlign="1"/><v:tabList/>Data2</text>		</g>
		<g id="shape113-310" v:mID="113" v:groupContext="shape" transform="translate(227.372,-5.85984)">
			<title>工作表.113</title>
			<desc>Data N</desc>
			<v:textBlock v:margins="rect(4,4,4,4)" v:tabSpace="42.5197"/>
			<v:textRect cx="17.7323" cy="134.932" width="35.47" height="16"/>
			<rect x="0" y="126.932" width="35.4646" height="16" class="st2"/>
			<text x="5.73" y="137.33" class="st3" v:langID="2052"><v:paragraph v:horizAlign="1"/><v:tabList/>Data N</text>		</g>
		<g id="shape114-313" v:mID="114" v:groupContext="shape" transform="translate(255.718,-5.85984)">
			<title>工作表.114</title>
			<desc>Check Sum</desc>
			<v:textBlock v:margins="rect(4,4,4,4)" v:tabSpace="42.5197"/>
			<v:textRect cx="17.7323" cy="134.932" width="35.47" height="16"/>
			<rect x="0" y="126.932" width="35.4646" height="16" class="st2"/>
			<text x="7.73" y="132.53" class="st3" v:langID="2052"><v:paragraph v:horizAlign="1"/><v:tabList/>Check <tspan x="11.73"
						dy="1.2em" class="st4">Sum</tspan></text>		</g>
		<g id="shape115-317" v:mID="115" v:groupContext="shape" transform="translate(-128.159,99.8126) rotate(-90)">
			<title>工作表.115</title>
			<path d="M0 142.93 L92.13 142.93" class="st1"/>
		</g>
		<g id="shape116-320" v:mID="116" v:groupContext="shape" transform="translate(6.48661,99.8126) rotate(-90)">
			<title>工作表.116</title>
			<path d="M0 142.93 L21.26 142.93" class="st1"/>
		</g>
		<g id="shape117-323" v:mID="117" v:groupContext="shape" transform="translate(18.8246,100.558) rotate(-90)">
			<title>工作表.117</title>
			<path d="M0 142.93 L22 142.93" class="st1"/>
		</g>
		<g id="shape118-326" v:mID="118" v:groupContext="shape" transform="translate(137.731,99.8126) rotate(-90)">
			<title>工作表.118</title>
			<path d="M0 142.93 L60.94 142.93" class="st1"/>
		</g>
		<g id="shape119-329" v:mID="119" v:groupContext="shape" transform="translate(153.321,99.8126) rotate(-90)">
			<title>工作表.119</title>
			<path d="M0 142.93 L85.04 142.93" class="st1"/>
		</g>
		<g id="shape120-332" v:mID="120" v:groupContext="shape" transform="translate(14.7732,-57.2929)">
			<title>工作表.120</title>
			<path d="M0 142.93 L134.65 142.93" class="st5"/>
		</g>
		<g id="shape121-341" v:mID="121" v:groupContext="shape" transform="translate(148.946,-57.2929)">
			<title>工作表.121</title>
			<path d="M0 142.93 L12.81 142.93" class="st5"/>
		</g>
		<g id="shape122-348" v:mID="122" v:groupContext="shape" transform="translate(161.23,-57.2929)">
			<title>工作表.122</title>
			<path d="M0 142.93 L106.14 142.93 L120 142.93" class="st5"/>
		</g>
		<g id="shape123-355" v:mID="123" v:groupContext="shape" transform="translate(14.7732,-92.726)">
			<title>工作表.123</title>
			<path d="M0 142.93 L265.89 142.93" class="st5"/>
		</g>
		<g id="shape124-362" v:mID="124" v:groupContext="shape" transform="translate(14.7732,-113.986)">
			<title>工作表.124</title>
			<path d="M0 142.93 L281.48 142.93" class="st5"/>
		</g>
		<g id="shape125-369" v:mID="125" v:groupContext="shape" transform="translate(41.1984,-59.7969)">
			<title>工作表.125</title>
			<desc>Header</desc>
			<v:textBlock v:margins="rect(4,4,4,4)" v:tabSpace="42.5197"/>
			<v:textRect cx="31.4331" cy="134.932" width="62.87" height="16"/>
			<rect x="0" y="126.932" width="62.8661" height="16" class="st7"/>
			<text x="19.43" y="137.33" class="st3" v:langID="2052"><v:paragraph v:horizAlign="1"/><v:tabList/>Header</text>		</g>
		<g id="shape126-376" v:mID="126" v:groupContext="shape" transform="translate(131.702,-69.6394)">
			<title>工作表.126</title>
			<desc>Response space</desc>
			<v:textBlock v:margins="rect(4,4,4,4)" v:tabSpace="42.5197"/>
			<v:textRect cx="24.8031" cy="134.932" width="49.61" height="16"/>
			<rect x="0" y="126.932" width="49.6063" height="16" class="st2"/>
			<text x="8.8" y="132.53" class="st3" v:langID="2052"><v:paragraph v:horizAlign="1"/><v:tabList/>Response <tspan
						x="14.8" dy="1.2em" class="st4">space</tspan></text>		</g>
		<g id="shape127-380" v:mID="127" v:groupContext="shape" transform="translate(191.939,-60.6315)">
			<title>工作表.127</title>
			<desc>Response</desc>
			<v:textBlock v:margins="rect(4,4,4,4)" v:tabSpace="42.5197"/>
			<v:textRect cx="31.4331" cy="134.932" width="62.87" height="16"/>
			<rect x="0" y="126.932" width="62.8661" height="16" class="st7"/>
			<text x="15.43" y="137.33" class="st3" v:langID="2052"><v:paragraph v:horizAlign="1"/><v:tabList/>Response</text>		</g>
		<g id="shape128-385" v:mID="128" v:groupContext="shape" transform="translate(91.7496,-93.2299)">
			<title>工作表.128</title>
			<desc>Frame</desc>
			<v:textBlock v:margins="rect(4,4,4,4)" v:tabSpace="42.5197"/>
			<v:textRect cx="52" cy="134.932" width="104" height="16"/>
			<rect x="0" y="126.932" width="104" height="16" class="st7"/>
			<text x="42" y="137.33" class="st3" v:langID="2052"><v:paragraph v:horizAlign="1"/><v:tabList/>Frame</text>		</g>
		<g id="shape129-390" v:mID="129" v:groupContext="shape" transform="translate(96.4425,-113.986)">
			<title>工作表.129</title>
			<desc>Frame slot</desc>
			<v:textBlock v:margins="rect(4,4,4,4)" v:tabSpace="42.5197"/>
			<v:textRect cx="52" cy="134.932" width="104" height="16"/>
			<rect x="0" y="126.932" width="104" height="16" class="st7"/>
			<text x="32" y="137.33" class="st3" v:langID="2052"><v:paragraph v:horizAlign="1"/><v:tabList/>Frame slot</text>		</g>
		<g id="shape130-395" v:mID="130" v:groupContext="shape" transform="translate(280.663,-57.2929)">
			<title>工作表.130</title>
			<path d="M0 142.93 L15.59 142.93" class="st5"/>
		</g>
		<g id="shape131-402" v:mID="131" v:groupContext="shape" transform="translate(0.6,-0.6)">
			<title>工作表.131</title>
			<rect x="0" y="1.2" width="311.811" height="141.732" class="st9"/>
		</g>
	</g>
</svg>
