<?xml version="1.0" encoding="UTF-8" standalone="no"?>
<!DOCTYPE svg PUBLIC "-//W3C//DTD SVG 1.1//EN" "http://www.w3.org/Graphics/SVG/1.1/DTD/svg11.dtd">
<!-- Generated by Microsoft Visio, SVG Export i2c_slave_register_timewave.svg 页-1 -->
<svg xmlns="http://www.w3.org/2000/svg" xmlns:xlink="http://www.w3.org/1999/xlink" xmlns:ev="http://www.w3.org/2001/xml-events"
		width="11.0181in" height="5.49073in" viewBox="0 0 793.303 395.333" xml:space="preserve" color-interpolation-filters="sRGB"
		class="st18">
	<style type="text/css">
	<![CDATA[
		.st1 {fill:none;stroke:none;stroke-linecap:round;stroke-linejoin:round;stroke-width:0.75}
		.st2 {stroke:#c0c0c0;stroke-linecap:round;stroke-linejoin:round;stroke-width:0.709681}
		.st3 {fill:#c0c0c0;stroke:none;stroke-linecap:round;stroke-linejoin:round;stroke-width:0.75}
		.st4 {stroke:#000000;stroke-linecap:round;stroke-linejoin:round;stroke-width:0.709681}
		.st5 {stroke:none;stroke-linecap:round;stroke-linejoin:round;stroke-width:0.75}
		.st6 {fill:#000000;font-family:Times New Roman;font-size:0.821938em;font-weight:bold}
		.st7 {fill:#ffffff;stroke:none;stroke-linecap:round;stroke-linejoin:round;stroke-width:0.75}
		.st8 {fill:#000000;font-family:Times New Roman;font-size:1.00461em;font-weight:bold}
		.st9 {fill:#808080;stroke:#808080;stroke-linecap:round;stroke-linejoin:round;stroke-width:0.366287}
		.st10 {fill:#000000;font-family:Times New Roman;font-size:1.49169em;font-weight:bold}
		.st11 {stroke:#ff0000;stroke-linecap:round;stroke-linejoin:round;stroke-width:0.709681}
		.st12 {fill:#ff0000;stroke:none;stroke-linecap:round;stroke-linejoin:round;stroke-width:0.75}
		.st13 {fill:#ff0000;font-family:Times New Roman;font-size:1.00461em;font-weight:bold}
		.st14 {fill:#000000;stroke:none;stroke-linecap:round;stroke-linejoin:round;stroke-width:0.75}
		.st15 {fill:#000000;stroke:#000000;stroke-linecap:round;stroke-linejoin:round;stroke-width:0.366287}
		.st16 {fill:#ff0000;font-family:Times New Roman;font-size:1.00461em}
		.st17 {fill:none;stroke:#000000;stroke-linecap:round;stroke-linejoin:round;stroke-width:0.75}
		.st18 {fill:none;fill-rule:evenodd;font-size:12px;overflow:visible;stroke-linecap:square;stroke-miterlimit:3}
	]]>
	</style>

	<g>
		<title>页-1</title>
		<g id="shape11-1" transform="translate(18.375,-31.1309)">
			<title>Sheet.11</title>
			<rect x="0" y="60.8445" width="747.751" height="334.488" class="st1"/>
		</g>
		<g id="shape12-3" transform="translate(206.942,-32.9813)">
			<title>Sheet.12</title>
			<path d="M0 129.57 L0 395.33" class="st2"/>
		</g>
		<g id="shape13-6" transform="translate(320.128,-32.9813)">
			<title>Sheet.13</title>
			<path d="M0 129.57 L0 395.33" class="st2"/>
		</g>
		<g id="shape14-9" transform="translate(348.407,-32.9813)">
			<title>Sheet.14</title>
			<path d="M0 129.57 L0 395.33" class="st2"/>
		</g>
		<g id="shape15-12" transform="translate(489.872,-32.9813)">
			<title>Sheet.15</title>
			<path d="M0 129.57 L0 395.33" class="st2"/>
		</g>
		<g id="shape16-15" transform="translate(461.57,-32.9813)">
			<title>Sheet.16</title>
			<path d="M0 129.57 L0 395.33" class="st2"/>
		</g>
		<g id="shape17-18" transform="translate(376.709,-32.9813)">
			<title>Sheet.17</title>
			<path d="M0 129.57 L0 395.33" class="st2"/>
		</g>
		<g id="shape18-21" transform="translate(687.919,-32.9813)">
			<title>Sheet.18</title>
			<path d="M0 129.57 L0 395.33" class="st2"/>
		</g>
		<g id="shape19-24" transform="translate(659.617,-32.9813)">
			<title>Sheet.19</title>
			<path d="M0 129.57 L0 395.33" class="st2"/>
		</g>
		<g id="shape20-27" transform="translate(631.315,-32.9813)">
			<title>Sheet.20</title>
			<path d="M0 129.57 L0 395.33" class="st2"/>
		</g>
		<g id="shape21-30" transform="translate(547.005,-32.9813)">
			<title>Sheet.21</title>
			<path d="M0 129.57 L0 395.33" class="st2"/>
		</g>
		<g id="shape22-33" transform="translate(178.663,-298.744)">
			<title>Sheet.22</title>
			<path d="M0 367.07 L0 395.33 L28.28 395.33 L28.28 367.07 L0 367.07 L0 367.07 Z" class="st3"/>
		</g>
		<g id="shape23-35" transform="translate(178.663,-298.744)">
			<title>Sheet.23</title>
			<path d="M0 395.33 L28.28 395.33 L28.28 367.07 L0 367.07 L0 395.33 L0 395.33" class="st4"/>
		</g>
		<g id="shape24-38" transform="translate(189.887,-306.036)">
			<title>Sheet.24</title>
			<desc>S</desc>
			<path d="M9.15 383.49 L0 383.49 L0 395.33 L9.15 395.33 L9.15 383.49" class="st5"/>
			<text x="1.83" y="392.37" class="st6">S</text>		</g>
		<g id="shape25-42" transform="translate(206.942,-298.744)">
			<title>Sheet.25</title>
			<path d="M0 367.07 L0 395.33 L113.19 395.33 L113.19 367.07 L0 367.07 L0 367.07 Z" class="st3"/>
		</g>
		<g id="shape26-44" transform="translate(206.942,-298.744)">
			<title>Sheet.26</title>
			<path d="M0 395.33 L113.19 395.33 L113.19 367.07 L0 367.07 L0 395.33 L0 395.33" class="st4"/>
		</g>
		<g id="shape27-47" transform="translate(222.206,-306.036)">
			<title>Sheet.27</title>
			<desc>SLAVE ADDRESS</desc>
			<path d="M96.45 383.49 L0 383.49 L0 395.33 L96.45 395.33 L96.45 383.49" class="st5"/>
			<text x="7.52" y="392.37" class="st6">SLAVE ADDRESS</text>		</g>
		<g id="shape28-51" transform="translate(320.128,-298.744)">
			<title>Sheet.28</title>
			<path d="M0 367.07 L0 395.33 L28.28 395.33 L28.28 367.07 L0 367.07 L0 367.07 Z" class="st3"/>
		</g>
		<g id="shape29-53" transform="translate(320.128,-298.744)">
			<title>Sheet.29</title>
			<path d="M0 395.33 L28.28 395.33 L28.28 367.07 L0 367.07 L0 395.33 L0 395.33" class="st4"/>
		</g>
		<g id="shape30-56" transform="translate(324.305,-306.036)">
			<title>Sheet.30</title>
			<desc>R/W</desc>
			<path d="M25.53 383.49 L0 383.49 L0 395.33 L25.53 395.33 L25.53 383.49" class="st5"/>
			<text x="2.9" y="392.37" class="st6">R/W</text>		</g>
		<g id="shape31-60" transform="translate(334.267,-319.955)">
			<title>Sheet.31</title>
			<path d="M-0 395.33 L8.01 395.33" class="st4"/>
		</g>
		<g id="shape32-63" transform="translate(348.407,-298.744)">
			<title>Sheet.32</title>
			<path d="M0 367.07 L0 395.33 L28.3 395.33 L28.3 367.07 L0 367.07 L0 367.07 Z" class="st7"/>
		</g>
		<g id="shape33-65" transform="translate(348.407,-298.744)">
			<title>Sheet.33</title>
			<path d="M0 395.33 L28.3 395.33 L28.3 367.07 L0 367.07 L0 395.33 L0 395.33" class="st4"/>
		</g>
		<g id="shape34-68" transform="translate(358.094,-305.013)">
			<title>Sheet.34</title>
			<desc>A</desc>
			<path d="M13.48 380.86 L0 380.86 L0 395.33 L13.48 395.33 L13.48 380.86" class="st5"/>
			<text x="2.39" y="391.71" class="st8">A</text>		</g>
		<g id="shape35-72" transform="translate(376.709,-298.744)">
			<title>Sheet.35</title>
			<path d="M0 367.07 L0 395.33 L84.86 395.33 L84.86 367.07 L0 367.07 L0 367.07 Z" class="st7"/>
		</g>
		<g id="shape36-74" transform="translate(376.709,-298.744)">
			<title>Sheet.36</title>
			<path d="M0 395.33 L84.86 395.33 L84.86 367.07 L0 367.07 L0 395.33 L0 395.33" class="st4"/>
		</g>
		<g id="shape37-77" transform="translate(402.165,-305.013)">
			<title>Sheet.37</title>
			<desc>DATA</desc>
			<path d="M42.75 380.86 L0 380.86 L0 395.33 L42.75 395.33 L42.75 380.86" class="st5"/>
			<text x="4.3" y="391.71" class="st8">DATA</text>		</g>
		<g id="shape38-81" transform="translate(461.57,-298.744)">
			<title>Sheet.38</title>
			<path d="M0 367.07 L0 395.33 L28.3 395.33 L28.3 367.07 L0 367.07 L0 367.07 Z" class="st3"/>
		</g>
		<g id="shape39-83" transform="translate(461.57,-298.744)">
			<title>Sheet.39</title>
			<path d="M0 395.33 L28.3 395.33 L28.3 367.07 L0 367.07 L0 395.33 L0 395.33" class="st4"/>
		</g>
		<g id="shape40-86" transform="translate(471.211,-305.013)">
			<title>Sheet.40</title>
			<desc>A</desc>
			<path d="M13.48 380.86 L0 380.86 L0 395.33 L13.48 395.33 L13.48 380.86" class="st5"/>
			<text x="2.39" y="391.71" class="st8">A</text>		</g>
		<g id="shape41-90" transform="translate(546.454,-298.744)">
			<title>Sheet.41</title>
			<path d="M0 367.07 L0 395.33 L84.86 395.33 L84.86 367.07 L0 367.07 L0 367.07 Z" class="st7"/>
		</g>
		<g id="shape42-92" transform="translate(546.454,-298.744)">
			<title>Sheet.42</title>
			<path d="M0 395.33 L84.86 395.33 L84.86 367.07 L0 367.07 L0 395.33 L0 395.33" class="st4"/>
		</g>
		<g id="shape43-95" transform="translate(571.841,-305.013)">
			<title>Sheet.43</title>
			<desc>DATA</desc>
			<path d="M42.75 380.86 L0 380.86 L0 395.33 L42.75 395.33 L42.75 380.86" class="st5"/>
			<text x="4.3" y="391.71" class="st8">DATA</text>		</g>
		<g id="shape44-99" transform="translate(631.315,-298.744)">
			<title>Sheet.44</title>
			<path d="M0 367.07 L0 395.33 L28.3 395.33 L28.3 367.07 L0 367.07 L0 367.07 Z" class="st3"/>
		</g>
		<g id="shape45-101" transform="translate(631.315,-298.744)">
			<title>Sheet.45</title>
			<path d="M0 395.33 L28.3 395.33 L28.3 367.07 L0 367.07 L0 395.33 L0 395.33" class="st4"/>
		</g>
		<g id="shape46-104" transform="translate(641.254,-305.013)">
			<title>Sheet.46</title>
			<desc>A</desc>
			<path d="M13.48 380.86 L0 380.86 L0 395.33 L13.48 395.33 L13.48 380.86" class="st5"/>
			<text x="2.39" y="391.71" class="st8">A</text>		</g>
		<g id="shape47-108" transform="translate(659.617,-298.744)">
			<title>Sheet.47</title>
			<path d="M0 367.07 L0 395.33 L28.3 395.33 L28.3 367.07 L0 367.07 L0 367.07 Z" class="st3"/>
		</g>
		<g id="shape48-110" transform="translate(659.617,-298.744)">
			<title>Sheet.48</title>
			<path d="M0 395.33 L28.3 395.33 L28.3 367.07 L0 367.07 L0 395.33 L0 395.33" class="st4"/>
		</g>
		<g id="shape49-113" transform="translate(670.635,-306.036)">
			<title>Sheet.49</title>
			<desc>P</desc>
			<path d="M9.77 383.49 L0 383.49 L0 395.33 L9.77 395.33 L9.77 383.49" class="st5"/>
			<text x="1.87" y="392.37" class="st6">P</text>		</g>
		<g id="shape50-117" transform="translate(641.231,-319.955)">
			<title>Sheet.50</title>
			<path d="M0 395.33 L8.01 395.33" class="st4"/>
		</g>
		<g id="shape51-120" transform="translate(331.444,-327.01)">
			<title>Sheet.51</title>
			<path d="M0 378.37 L0 395.33" class="st4"/>
		</g>
		<g id="shape52-123" transform="translate(303.739,-343.408)">
			<title>Sheet.52</title>
			<path d="M0 380.87 L0 380.87 L0 395.33 L0 395.33 L0 380.87" class="st5"/>
		</g>
		<g id="shape54-126" transform="translate(321.735,-343.408)">
			<title>Sheet.54</title>
			<path d="M0 380.87 L0 380.87 L0 395.33 L0 395.33 L0 380.87" class="st5"/>
		</g>
		<g id="shape55-129" transform="translate(293.381,-350.923)">
			<title>Sheet.55</title>
			<desc>‘1’ (read)</desc>
			<path d="M72.86 380.86 L0 380.86 L0 395.33 L72.86 395.33 L72.86 380.86" class="st5"/>
			<text x="12.61" y="391.71" class="st8">‘1’ (read)</text>		</g>
		<g id="shape56-133" transform="translate(120.107,-271.039)">
			<title>Sheet.56</title>
			<desc>BUSY</desc>
			<path d="M40.45 380.86 L0 380.86 L0 395.33 L40.45 395.33 L40.45 380.86" class="st5"/>
			<text x="4.15" y="391.71" class="st8">BUSY</text>		</g>
		<g id="shape57-137" transform="translate(163.1,-270.456)">
			<title>Sheet.57</title>
			<path d="M0 395.33 L43.84 395.33" class="st4"/>
		</g>
		<g id="shape58-140" transform="translate(206.942,-270.456)">
			<title>Sheet.58</title>
			<path d="M0 395.33 L0 378.37" class="st4"/>
		</g>
		<g id="shape59-143" transform="translate(206.942,-287.42)">
			<title>Sheet.59</title>
			<path d="M0 395.33 L480.98 395.33" class="st4"/>
		</g>
		<g id="shape60-146" transform="translate(687.919,-270.456)">
			<title>Sheet.60</title>
			<path d="M0 378.37 L0 395.33" class="st4"/>
		</g>
		<g id="shape61-149" transform="translate(687.919,-270.456)">
			<title>Sheet.61</title>
			<path d="M-0 395.33 L28.28 395.33" class="st4"/>
		</g>
		<g id="shape62-152" transform="translate(489.872,-298.744)">
			<title>Sheet.62</title>
			<path d="M0 395.33 L56.58 395.33" class="st4"/>
		</g>
		<g id="shape63-155" transform="translate(133.03,-247.487)">
			<title>Sheet.63</title>
			<path d="M0.37 394.62 L5.39 394.62 C5.6 394.62 5.76 394.78 5.76 394.97 C5.76 395.17 5.6 395.33 5.39 395.33 L0.37 395.33
						 C0.16 395.33 0 395.17 0 394.97 C0 394.78 0.16 394.62 0.37 394.62 ZM9 394.62 L14.02 394.62 C14.21 394.62
						 14.37 394.78 14.37 394.97 C14.37 395.17 14.21 395.33 14.02 395.33 L9 395.33 C8.79 395.33 8.63 395.17 8.63
						 394.97 C8.63 394.78 8.79 394.62 9 394.62 ZM17.61 394.62 L22.63 394.62 C22.84 394.62 23 394.78 23 394.97
						 C23 395.17 22.84 395.33 22.63 395.33 L17.61 395.33 C17.42 395.33 17.26 395.17 17.26 394.97 C17.26 394.78
						 17.42 394.62 17.61 394.62 ZM26.24 394.62 L31.26 394.62 C31.47 394.62 31.63 394.78 31.63 394.97 C31.63 395.17
						 31.47 395.33 31.26 395.33 L26.24 395.33 C26.03 395.33 25.87 395.17 25.87 394.97 C25.87 394.78 26.03 394.62
						 26.24 394.62 ZM34.87 394.62 L39.89 394.62 C40.08 394.62 40.24 394.78 40.24 394.97 C40.24 395.17 40.08 395.33
						 39.89 395.33 L34.87 395.33 C34.66 395.33 34.5 395.17 34.5 394.97 C34.5 394.78 34.66 394.62 34.87 394.62
						 ZM43.47 394.62 L48.5 394.62 C48.71 394.62 48.87 394.78 48.87 394.97 C48.87 395.17 48.71 395.33 48.5 395.33
						 L43.47 395.33 C43.29 395.33 43.13 395.17 43.13 394.97 C43.13 394.78 43.29 394.62 43.47 394.62 ZM52.11 394.62
						 L57.13 394.62 C57.34 394.62 57.5 394.78 57.5 394.97 C57.5 395.17 57.34 395.33 57.13 395.33 L52.11 395.33
						 C51.9 395.33 51.74 395.17 51.74 394.97 C51.74 394.78 51.9 394.62 52.11 394.62 ZM60.74 394.62 L65.76 394.62
						 C65.95 394.62 66.11 394.78 66.11 394.97 C66.11 395.17 65.95 395.33 65.76 395.33 L60.74 395.33 C60.53 395.33
						 60.37 395.17 60.37 394.97 C60.37 394.78 60.53 394.62 60.74 394.62 ZM69.34 394.62 L74.37 394.62 C74.58 394.62
						 74.74 394.78 74.74 394.97 C74.74 395.17 74.58 395.33 74.37 395.33 L69.34 395.33 C69.16 395.33 69 395.17
						 69 394.97 C69 394.78 69.16 394.62 69.34 394.62 ZM77.97 394.62 L83 394.62 C83.21 394.62 83.37 394.78 83.37
						 394.97 C83.37 395.17 83.21 395.33 83 395.33 L77.97 395.33 C77.77 395.33 77.61 395.17 77.61 394.97 C77.61
						 394.78 77.77 394.62 77.97 394.62 ZM86.61 394.62 L91.63 394.62 C91.82 394.62 91.98 394.78 91.98 394.97 C91.98
						 395.17 91.82 395.33 91.63 395.33 L86.61 395.33 C86.4 395.33 86.24 395.17 86.24 394.97 C86.24 394.78 86.4
						 394.62 86.61 394.62 ZM95.21 394.62 L100.24 394.62 C100.45 394.62 100.61 394.78 100.61 394.97 C100.61 395.17
						 100.45 395.33 100.24 395.33 L95.21 395.33 C95.03 395.33 94.87 395.17 94.87 394.97 C94.87 394.78 95.03 394.62
						 95.21 394.62 ZM103.84 394.62 L108.87 394.62 C109.08 394.62 109.24 394.78 109.24 394.97 C109.24 395.17 109.08
						 395.33 108.87 395.33 L103.84 395.33 C103.64 395.33 103.48 395.17 103.48 394.97 C103.48 394.78 103.64 394.62
						 103.84 394.62 ZM112.47 394.62 L117.5 394.62 C117.68 394.62 117.85 394.78 117.85 394.97 C117.85 395.17 117.68
						 395.33 117.5 395.33 L112.47 395.33 C112.27 395.33 112.11 395.17 112.11 394.97 C112.11 394.78 112.27 394.62
						 112.47 394.62 ZM121.08 394.62 L126.11 394.62 C126.32 394.62 126.48 394.78 126.48 394.97 C126.48 395.17 126.32
						 395.33 126.11 395.33 L121.08 395.33 C120.9 395.33 120.74 395.17 120.74 394.97 C120.74 394.78 120.9 394.62
						 121.08 394.62 ZM129.71 394.62 L134.74 394.62 C134.95 394.62 135.11 394.78 135.11 394.97 C135.11 395.17 134.95
						 395.33 134.74 395.33 L129.71 395.33 C129.51 395.33 129.35 395.17 129.35 394.97 C129.35 394.78 129.51 394.62
						 129.71 394.62 ZM138.34 394.62 L143.37 394.62 C143.55 394.62 143.71 394.78 143.71 394.97 C143.71 395.17 143.55
						 395.33 143.37 395.33 L138.34 395.33 C138.14 395.33 137.98 395.17 137.98 394.97 C137.98 394.78 138.14 394.62
						 138.34 394.62 ZM146.95 394.62 L151.98 394.62 C152.18 394.62 152.35 394.78 152.35 394.97 C152.35 395.17 152.18
						 395.33 151.98 395.33 L146.95 395.33 C146.77 395.33 146.61 395.17 146.61 394.97 C146.61 394.78 146.77 394.62
						 146.95 394.62 ZM155.58 394.62 L160.61 394.62 C160.82 394.62 160.98 394.78 160.98 394.97 C160.98 395.17 160.82
						 395.33 160.61 395.33 L155.58 395.33 C155.38 395.33 155.21 395.17 155.21 394.97 C155.21 394.78 155.38 394.62
						 155.58 394.62 ZM164.21 394.62 L169.24 394.62 C169.42 394.62 169.58 394.78 169.58 394.97 C169.58 395.17 169.42
						 395.33 169.24 395.33 L164.21 395.33 C164.01 395.33 163.85 395.17 163.85 394.97 C163.85 394.78 164.01 394.62
						 164.21 394.62 ZM172.82 394.62 L177.87 394.62 C178.05 394.62 178.21 394.78 178.21 394.97 C178.21 395.17 178.05
						 395.33 177.87 395.33 L172.82 395.33 C172.64 395.33 172.48 395.17 172.48 394.97 C172.48 394.78 172.64 394.62
						 172.82 394.62 ZM181.45 394.62 L186.48 394.62 C186.68 394.62 186.85 394.78 186.85 394.97 C186.85 395.17 186.68
						 395.33 186.48 395.33 L181.45 395.33 C181.24 395.33 181.08 395.17 181.08 394.97 C181.08 394.78 181.24 394.62
						 181.45 394.62 ZM190.08 394.62 L195.11 394.62 C195.32 394.62 195.48 394.78 195.48 394.97 C195.48 395.17 195.32
						 395.33 195.11 395.33 L190.08 395.33 C189.88 395.33 189.71 395.17 189.71 394.97 C189.71 394.78 189.88 394.62
						 190.08 394.62 ZM198.69 394.62 L203.74 394.62 C203.92 394.62 204.08 394.78 204.08 394.97 C204.08 395.17 203.92
						 395.33 203.74 395.33 L198.69 395.33 C198.51 395.33 198.35 395.17 198.35 394.97 C198.35 394.78 198.51 394.62
						 198.69 394.62 ZM207.32 394.62 L212.35 394.62 C212.55 394.62 212.71 394.78 212.71 394.97 C212.71 395.17 212.55
						 395.33 212.35 395.33 L207.32 395.33 C207.11 395.33 206.95 395.17 206.95 394.97 C206.95 394.78 207.11 394.62
						 207.32 394.62 ZM215.95 394.62 L220.98 394.62 C221.18 394.62 221.35 394.78 221.35 394.97 C221.35 395.17 221.18
						 395.33 220.98 395.33 L215.95 395.33 C215.74 395.33 215.58 395.17 215.58 394.97 C215.58 394.78 215.74 394.62
						 215.95 394.62 ZM224.56 394.62 L229.61 394.62 C229.79 394.62 229.95 394.78 229.95 394.97 C229.95 395.17 229.79
						 395.33 229.61 395.33 L224.56 395.33 C224.37 395.33 224.21 395.17 224.21 394.97 C224.21 394.78 224.37 394.62
						 224.56 394.62 ZM233.19 394.62 L238.22 394.62 C238.42 394.62 238.58 394.78 238.58 394.97 C238.58 395.17 238.42
						 395.33 238.22 395.33 L233.19 395.33 C232.98 395.33 232.82 395.17 232.82 394.97 C232.82 394.78 232.98 394.62
						 233.19 394.62 ZM241.82 394.62 L246.85 394.62 C247.05 394.62 247.21 394.78 247.21 394.97 C247.21 395.17 247.05
						 395.33 246.85 395.33 L241.82 395.33 C241.61 395.33 241.45 395.17 241.45 394.97 C241.45 394.78 241.61 394.62
						 241.82 394.62 ZM250.43 394.62 L255.48 394.62 C255.66 394.62 255.82 394.78 255.82 394.97 C255.82 395.17 255.66
						 395.33 255.48 395.33 L250.43 395.33 C250.24 395.33 250.08 395.17 250.08 394.97 C250.08 394.78 250.24 394.62
						 250.43 394.62 ZM259.06 394.62 L264.09 394.62 C264.29 394.62 264.45 394.78 264.45 394.97 C264.45 395.17 264.29
						 395.33 264.09 395.33 L259.06 395.33 C258.85 395.33 258.69 395.17 258.69 394.97 C258.69 394.78 258.85 394.62
						 259.06 394.62 ZM267.69 394.62 L272.72 394.62 C272.92 394.62 273.08 394.78 273.08 394.97 C273.08 395.17 272.92
						 395.33 272.72 395.33 L267.69 395.33 C267.48 395.33 267.32 395.17 267.32 394.97 C267.32 394.78 267.48 394.62
						 267.69 394.62 ZM276.3 394.62 L281.35 394.62 C281.53 394.62 281.69 394.78 281.69 394.97 C281.69 395.17 281.53
						 395.33 281.35 395.33 L276.3 395.33 C276.11 395.33 275.95 395.17 275.95 394.97 C275.95 394.78 276.11 394.62
						 276.3 394.62 ZM284.93 394.62 L289.95 394.62 C290.16 394.62 290.32 394.78 290.32 394.97 C290.32 395.17 290.16
						 395.33 289.95 395.33 L284.93 395.33 C284.74 395.33 284.58 395.17 284.58 394.97 C284.58 394.78 284.74 394.62
						 284.93 394.62 ZM293.56 394.62 L298.59 394.62 C298.79 394.62 298.95 394.78 298.95 394.97 C298.95 395.17 298.79
						 395.33 298.59 395.33 L293.56 395.33 C293.35 395.33 293.19 395.17 293.19 394.97 C293.19 394.78 293.35 394.62
						 293.56 394.62 ZM302.19 394.62 L307.22 394.62 C307.4 394.62 307.56 394.78 307.56 394.97 C307.56 395.17 307.4
						 395.33 307.22 395.33 L302.19 395.33 C301.98 395.33 301.82 395.17 301.82 394.97 C301.82 394.78 301.98 394.62
						 302.19 394.62 ZM310.8 394.62 L315.82 394.62 C316.03 394.62 316.19 394.78 316.19 394.97 C316.19 395.17 316.03
						 395.33 315.82 395.33 L310.8 395.33 C310.61 395.33 310.45 395.17 310.45 394.97 C310.45 394.78 310.61 394.62
						 310.8 394.62 ZM319.43 394.62 L324.45 394.62 C324.66 394.62 324.82 394.78 324.82 394.97 C324.82 395.17 324.66
						 395.33 324.45 395.33 L319.43 395.33 C319.22 395.33 319.06 395.17 319.06 394.97 C319.06 394.78 319.22 394.62
						 319.43 394.62 ZM328.06 394.62 L333.08 394.62 C333.27 394.62 333.43 394.78 333.43 394.97 C333.43 395.17 333.27
						 395.33 333.08 395.33 L328.06 395.33 C327.85 395.33 327.69 395.17 327.69 394.97 C327.69 394.78 327.85 394.62
						 328.06 394.62 ZM336.67 394.62 L341.69 394.62 C341.9 394.62 342.06 394.78 342.06 394.97 C342.06 395.17 341.9
						 395.33 341.69 395.33 L336.67 395.33 C336.48 395.33 336.32 395.17 336.32 394.97 C336.32 394.78 336.48 394.62
						 336.67 394.62 ZM345.3 394.62 L350.32 394.62 C350.53 394.62 350.69 394.78 350.69 394.97 C350.69 395.17 350.53
						 395.33 350.32 395.33 L345.3 395.33 C345.09 395.33 344.93 395.17 344.93 394.97 C344.93 394.78 345.09 394.62
						 345.3 394.62 ZM353.93 394.62 L358.95 394.62 C359.14 394.62 359.3 394.78 359.3 394.97 C359.3 395.17 359.14
						 395.33 358.95 395.33 L353.93 395.33 C353.72 395.33 353.56 395.17 353.56 394.97 C353.56 394.78 353.72 394.62
						 353.93 394.62 ZM362.53 394.62 L367.56 394.62 C367.77 394.62 367.93 394.78 367.93 394.97 C367.93 395.17 367.77
						 395.33 367.56 395.33 L362.53 395.33 C362.35 395.33 362.19 395.17 362.19 394.97 C362.19 394.78 362.35 394.62
						 362.53 394.62 ZM371.17 394.62 L376.19 394.62 C376.4 394.62 376.56 394.78 376.56 394.97 C376.56 395.17 376.4
						 395.33 376.19 395.33 L371.17 395.33 C370.96 395.33 370.8 395.17 370.8 394.97 C370.8 394.78 370.96 394.62
						 371.17 394.62 ZM379.8 394.62 L384.82 394.62 C385.01 394.62 385.17 394.78 385.17 394.97 C385.17 395.17 385.01
						 395.33 384.82 395.33 L379.8 395.33 C379.59 395.33 379.43 395.17 379.43 394.97 C379.43 394.78 379.59 394.62
						 379.8 394.62 ZM388.4 394.62 L393.43 394.62 C393.64 394.62 393.8 394.78 393.8 394.97 C393.8 395.17 393.64
						 395.33 393.43 395.33 L388.4 395.33 C388.22 395.33 388.06 395.17 388.06 394.97 C388.06 394.78 388.22 394.62
						 388.4 394.62 ZM397.03 394.62 L402.06 394.62 C402.27 394.62 402.43 394.78 402.43 394.97 C402.43 395.17 402.27
						 395.33 402.06 395.33 L397.03 395.33 C396.83 395.33 396.67 395.17 396.67 394.97 C396.67 394.78 396.83 394.62
						 397.03 394.62 ZM405.67 394.62 L410.69 394.62 C410.88 394.62 411.04 394.78 411.04 394.97 C411.04 395.17 410.88
						 395.33 410.69 395.33 L405.67 395.33 C405.46 395.33 405.3 395.17 405.3 394.97 C405.3 394.78 405.46 394.62
						 405.67 394.62 ZM414.27 394.62 L419.3 394.62 C419.51 394.62 419.67 394.78 419.67 394.97 C419.67 395.17 419.51
						 395.33 419.3 395.33 L414.27 395.33 C414.09 395.33 413.93 395.17 413.93 394.97 C413.93 394.78 414.09 394.62
						 414.27 394.62 ZM422.9 394.62 L427.93 394.62 C428.14 394.62 428.3 394.78 428.3 394.97 C428.3 395.17 428.14
						 395.33 427.93 395.33 L422.9 395.33 C422.7 395.33 422.54 395.17 422.54 394.97 C422.54 394.78 422.7 394.62
						 422.9 394.62 ZM431.53 394.62 L436.56 394.62 C436.75 394.62 436.93 394.78 436.93 394.97 C436.93 395.17 436.75
						 395.33 436.56 395.33 L431.53 395.33 C431.33 395.33 431.17 395.17 431.17 394.97 C431.17 394.78 431.33 394.62
						 431.53 394.62 ZM440.14 394.62 L445.19 394.62 C445.38 394.62 445.54 394.78 445.54 394.97 C445.54 395.17 445.38
						 395.33 445.19 395.33 L440.14 395.33 C439.96 395.33 439.8 395.17 439.8 394.97 C439.8 394.78 439.96 394.62
						 440.14 394.62 ZM448.77 394.62 L453.8 394.62 C454.01 394.62 454.17 394.78 454.17 394.97 C454.17 395.17 454.01
						 395.33 453.8 395.33 L448.77 395.33 C448.57 395.33 448.41 395.17 448.41 394.97 C448.41 394.78 448.57 394.62
						 448.77 394.62 ZM457.4 394.62 L462.43 394.62 C462.64 394.62 462.8 394.78 462.8 394.97 C462.8 395.17 462.64
						 395.33 462.43 395.33 L457.4 395.33 C457.2 395.33 457.04 395.17 457.04 394.97 C457.04 394.78 457.2 394.62
						 457.4 394.62 ZM466.01 394.62 L471.06 394.62 C471.24 394.62 471.41 394.78 471.41 394.97 C471.41 395.17 471.24
						 395.33 471.06 395.33 L466.01 395.33 C465.83 395.33 465.67 395.17 465.67 394.97 C465.67 394.78 465.83 394.62
						 466.01 394.62 ZM474.64 394.62 L479.67 394.62 C479.88 394.62 480.04 394.78 480.04 394.97 C480.04 395.17 479.88
						 395.33 479.67 395.33 L474.64 395.33 C474.44 395.33 474.27 395.17 474.27 394.97 C474.27 394.78 474.44 394.62
						 474.64 394.62 ZM483.27 394.62 L488.3 394.62 C488.51 394.62 488.67 394.78 488.67 394.97 C488.67 395.17 488.51
						 395.33 488.3 395.33 L483.27 395.33 C483.07 395.33 482.91 395.17 482.91 394.97 C482.91 394.78 483.07 394.62
						 483.27 394.62 ZM491.88 394.62 L496.93 394.62 C497.11 394.62 497.27 394.78 497.27 394.97 C497.27 395.17 497.11
						 395.33 496.93 395.33 L491.88 395.33 C491.7 395.33 491.54 395.17 491.54 394.97 C491.54 394.78 491.7 394.62
						 491.88 394.62 ZM500.51 394.62 L505.54 394.62 C505.74 394.62 505.91 394.78 505.91 394.97 C505.91 395.17 505.74
						 395.33 505.54 395.33 L500.51 395.33 C500.3 395.33 500.14 395.17 500.14 394.97 C500.14 394.78 500.3 394.62
						 500.51 394.62 ZM509.14 394.62 L514.17 394.62 C514.38 394.62 514.54 394.78 514.54 394.97 C514.54 395.17 514.38
						 395.33 514.17 395.33 L509.14 395.33 C508.94 395.33 508.77 395.17 508.77 394.97 C508.77 394.78 508.94 394.62
						 509.14 394.62 ZM517.77 394.62 L522.8 394.62 C522.98 394.62 523.14 394.78 523.14 394.97 C523.14 395.17 522.98
						 395.33 522.8 395.33 L517.77 395.33 C517.57 395.33 517.41 395.17 517.41 394.97 C517.41 394.78 517.57 394.62
						 517.77 394.62 ZM526.38 394.62 L531.41 394.62 C531.61 394.62 531.77 394.78 531.77 394.97 C531.77 395.17 531.61
						 395.33 531.41 395.33 L526.38 395.33 C526.2 395.33 526.04 395.17 526.04 394.97 C526.04 394.78 526.2 394.62
						 526.38 394.62 ZM535.01 394.62 L540.04 394.62 C540.24 394.62 540.41 394.78 540.41 394.97 C540.41 395.17 540.24
						 395.33 540.04 395.33 L535.01 395.33 C534.8 395.33 534.64 395.17 534.64 394.97 C534.64 394.78 534.8 394.62
						 535.01 394.62 ZM543.64 394.62 L548.67 394.62 C548.85 394.62 549.01 394.78 549.01 394.97 C549.01 395.17 548.85
						 395.33 548.67 395.33 L543.64 395.33 C543.44 395.33 543.27 395.17 543.27 394.97 C543.27 394.78 543.44 394.62
						 543.64 394.62 ZM552.25 394.62 L557.28 394.62 C557.48 394.62 557.64 394.78 557.64 394.97 C557.64 395.17 557.48
						 395.33 557.28 395.33 L552.25 395.33 C552.07 395.33 551.91 395.17 551.91 394.97 C551.91 394.78 552.07 394.62
						 552.25 394.62 ZM560.88 394.62 L565.91 394.62 C566.11 394.62 566.27 394.78 566.27 394.97 C566.27 395.17 566.11
						 395.33 565.91 395.33 L560.88 395.33 C560.67 395.33 560.51 395.17 560.51 394.97 C560.51 394.78 560.67 394.62
						 560.88 394.62 ZM569.51 394.62 L574.54 394.62 C574.72 394.62 574.88 394.78 574.88 394.97 C574.88 395.17 574.72
						 395.33 574.54 395.33 L569.51 395.33 C569.3 395.33 569.14 395.17 569.14 394.97 C569.14 394.78 569.3 394.62
						 569.51 394.62 ZM578.12 394.62 L583.15 394.62 C583.35 394.62 583.51 394.78 583.51 394.97 C583.51 395.17 583.35
						 395.33 583.15 395.33 L578.12 395.33 C577.93 395.33 577.77 395.17 577.77 394.97 C577.77 394.78 577.93 394.62
						 578.12 394.62 Z" class="st9"/>
		</g>
		<g id="shape64-157" transform="translate(405.838,-237.076)">
			<title>Sheet.64</title>
			<path d="M0 373.78 L0 395.33 L37.92 395.33 L37.92 373.78 L0 373.78 L0 373.78 Z" class="st7"/>
		</g>
		<g id="shape65-159" transform="translate(405.838,-235.677)">
			<title>Sheet.65</title>
			<desc>slave</desc>
			<path d="M48.6 373.85 L0 373.85 L0 395.33 L48.6 395.33 L48.6 373.85" class="st5"/>
			<text x="5.41" y="389.96" class="st10">slave</text>		</g>
		<g id="shape66-163" transform="translate(161.677,-213.924)">
			<title>Sheet.66</title>
			<path d="M0 395.33 L45.27 395.33" class="st4"/>
		</g>
		<g id="shape67-166" transform="translate(206.942,-213.924)">
			<title>Sheet.67</title>
			<path d="M0 378.37 L0 395.33" class="st4"/>
		</g>
		<g id="shape68-169" transform="translate(206.942,-230.888)">
			<title>Sheet.68</title>
			<path d="M0 395.33 L11.32 395.33" class="st4"/>
		</g>
		<g id="shape69-172" transform="translate(218.258,-213.924)">
			<title>Sheet.69</title>
			<path d="M0 378.37 L0 395.33" class="st4"/>
		</g>
		<g id="shape70-175" transform="translate(118.638,-211.494)">
			<title>Sheet.70</title>
			<desc>RSTA</desc>
			<path d="M40.45 380.86 L0 380.86 L0 395.33 L40.45 395.33 L40.45 380.86" class="st5"/>
			<text x="4.15" y="391.71" class="st8">RSTA</text>		</g>
		<g id="shape71-179" transform="translate(222.987,-223.33)">
			<title>Sheet.71</title>
			<path d="M0 394.74 C11.8 397.11 21.69 392.43 23.57 383.53" class="st11"/>
		</g>
		<g id="shape72-182" transform="translate(218.258,-220.385)">
			<title>Sheet.72</title>
			<path d="M0 390.49 L7.12 389.1 C5.58 390.79 4.94 393.1 5.37 395.33 L0 390.49 Z" class="st12"/>
		</g>
		<g id="shape73-184" transform="translate(218.258,-213.924)">
			<title>Sheet.73</title>
			<path d="M-0 395.33 L497.94 395.33" class="st4"/>
		</g>
		<g id="shape74-187" transform="translate(250.118,-225.741)">
			<title>Sheet.74</title>
			<desc>W1C</desc>
			<path d="M34.28 380.86 L0 380.86 L0 395.33 L34.28 395.33 L34.28 380.86" class="st5"/>
			<text x="3.74" y="391.71" class="st13">W1C</text>		</g>
		<g id="shape75-191" transform="translate(160.276,-157.369)">
			<title>Sheet.75</title>
			<path d="M0 395.33 L216.43 395.33" class="st4"/>
		</g>
		<g id="shape76-194" transform="translate(376.709,-157.369)">
			<title>Sheet.76</title>
			<path d="M0 378.37 L0 395.33" class="st4"/>
		</g>
		<g id="shape77-197" transform="translate(376.709,-174.334)">
			<title>Sheet.77</title>
			<path d="M-0 395.33 L11.32 395.33" class="st4"/>
		</g>
		<g id="shape78-200" transform="translate(388.026,-157.369)">
			<title>Sheet.78</title>
			<path d="M0 378.37 L0 395.33" class="st4"/>
		</g>
		<g id="shape79-203" transform="translate(125.249,-155.236)">
			<title>Sheet.79</title>
			<desc>RXF</desc>
			<path d="M31.96 380.86 L0 380.86 L0 395.33 L31.96 395.33 L31.96 380.86" class="st5"/>
			<text x="3.59" y="391.71" class="st8">RXF</text>		</g>
		<g id="shape80-207" transform="translate(392.731,-166.777)">
			<title>Sheet.80</title>
			<path d="M0 394.74 C11.8 397.11 21.69 392.41 23.57 383.53" class="st11"/>
		</g>
		<g id="shape81-210" transform="translate(388.026,-163.831)">
			<title>Sheet.81</title>
			<path d="M0 390.49 L7.09 389.1 C5.55 390.79 4.91 393.1 5.35 395.33 L0 390.49 Z" class="st12"/>
		</g>
		<g id="shape82-212" transform="translate(388.026,-157.369)">
			<title>Sheet.82</title>
			<path d="M0 395.33 L328.17 395.33" class="st4"/>
		</g>
		<g id="shape83-215" transform="translate(419.794,-169.118)">
			<title>Sheet.83</title>
			<desc>W1C</desc>
			<path d="M34.28 380.86 L0 380.86 L0 395.33 L34.28 395.33 L34.28 380.86" class="st5"/>
			<text x="3.74" y="391.71" class="st13">W1C</text>		</g>
		<g id="shape84-219" transform="translate(161.677,-185.635)">
			<title>Sheet.84</title>
			<path d="M0 395.33 L186.73 395.33" class="st4"/>
		</g>
		<g id="shape85-222" transform="translate(348.407,-185.635)">
			<title>Sheet.85</title>
			<path d="M0 378.37 L0 395.33" class="st4"/>
		</g>
		<g id="shape86-225" transform="translate(348.407,-202.599)">
			<title>Sheet.86</title>
			<path d="M0 395.33 L11.32 395.33" class="st4"/>
		</g>
		<g id="shape87-228" transform="translate(359.723,-185.635)">
			<title>Sheet.87</title>
			<path d="M0 378.37 L0 395.33" class="st4"/>
		</g>
		<g id="shape88-231" transform="translate(107.987,-183.365)">
			<title>Sheet.88</title>
			<desc>RXDNE</desc>
			<path d="M52.76 380.86 L0 380.86 L0 395.33 L52.76 395.33 L52.76 380.86" class="st5"/>
			<text x="4.95" y="391.71" class="st8">RXDNE</text>		</g>
		<g id="shape89-235" transform="translate(364.452,-195.043)">
			<title>Sheet.89</title>
			<path d="M0 394.74 C11.8 397.11 21.67 392.41 23.57 383.53" class="st11"/>
		</g>
		<g id="shape90-238" transform="translate(359.723,-192.12)">
			<title>Sheet.90</title>
			<path d="M0 390.49 L7.09 389.12 C5.58 390.81 4.94 393.12 5.37 395.33 L0 390.49 Z" class="st12"/>
		</g>
		<g id="shape91-240" transform="translate(359.723,-185.635)">
			<title>Sheet.91</title>
			<path d="M-0 395.33 L356.48 395.33" class="st4"/>
		</g>
		<g id="shape92-243" transform="translate(388.577,-197.612)">
			<title>Sheet.92</title>
			<desc>Read RXDATA</desc>
			<path d="M97.05 380.86 L0 380.86 L0 395.33 L97.05 395.33 L97.05 380.86" class="st5"/>
			<text x="7.84" y="391.71" class="st13">Read RXDATA</text>		</g>
		<g id="shape93-247" transform="translate(161.677,-72.549)">
			<title>Sheet.93</title>
			<path d="M0 395.33 L328.2 395.33" class="st4"/>
		</g>
		<g id="shape94-250" transform="translate(489.872,-72.549)">
			<title>Sheet.94</title>
			<path d="M0 378.37 L0 395.33" class="st4"/>
		</g>
		<g id="shape95-253" transform="translate(489.872,-89.5131)">
			<title>Sheet.95</title>
			<path d="M0 395.33 L11.32 395.33" class="st4"/>
		</g>
		<g id="shape96-256" transform="translate(501.189,-72.549)">
			<title>Sheet.96</title>
			<path d="M0 378.37 L0 395.33" class="st4"/>
		</g>
		<g id="shape97-259" transform="translate(127.085,-70.1187)">
			<title>Sheet.97</title>
			<desc>TXF</desc>
			<path d="M31.2 380.86 L0 380.86 L0 395.33 L31.2 395.33 L31.2 380.86" class="st5"/>
			<text x="3.54" y="391.71" class="st8">TXF</text>		</g>
		<g id="shape98-263" transform="translate(505.894,-81.9566)">
			<title>Sheet.98</title>
			<path d="M0 394.74 C11.8 397.11 21.69 392.41 23.57 383.53" class="st11"/>
		</g>
		<g id="shape99-266" transform="translate(501.189,-79.0104)">
			<title>Sheet.99</title>
			<path d="M0 390.47 L7.09 389.1 C5.58 390.79 4.94 393.1 5.35 395.33 L0 390.47 Z" class="st12"/>
		</g>
		<g id="shape100-268" transform="translate(501.189,-72.549)">
			<title>Sheet.100</title>
			<path d="M-0 395.33 L158.43 395.33" class="st4"/>
		</g>
		<g id="shape101-271" transform="translate(533.278,-84.3658)">
			<title>Sheet.101</title>
			<desc>W1C</desc>
			<path d="M34.28 380.86 L0 380.86 L0 395.33 L34.28 395.33 L34.28 380.86" class="st5"/>
			<text x="3.74" y="391.71" class="st13">W1C</text>		</g>
		<g id="shape102-275" transform="translate(161.677,-117.802)">
			<title>Sheet.102</title>
			<path d="M0 395.33 L130.15 395.33" class="st4"/>
		</g>
		<g id="shape103-278" transform="translate(291.826,-100.838)">
			<title>Sheet.103</title>
			<path d="M0 378.37 L0 395.33" class="st4"/>
		</g>
		<g id="shape104-281" transform="translate(291.826,-100.838)">
			<title>Sheet.104</title>
			<path d="M0 395.33 L84.88 395.33" class="st4"/>
		</g>
		<g id="shape105-284" transform="translate(376.709,-100.838)">
			<title>Sheet.105</title>
			<path d="M0 378.37 L0 395.33" class="st4"/>
		</g>
		<g id="shape106-287" transform="translate(116.802,-98.6129)">
			<title>Sheet.106</title>
			<desc>TXDE</desc>
			<path d="M41.99 380.86 L0 380.86 L0 395.33 L41.99 395.33 L41.99 380.86" class="st5"/>
			<text x="4.25" y="391.71" class="st8">TXDE</text>		</g>
		<g id="shape107-291" transform="translate(376.709,-117.802)">
			<title>Sheet.107</title>
			<path d="M-0 395.33 L135.8 395.33" class="st4"/>
		</g>
		<g id="shape108-294" transform="translate(322.102,-113.956)">
			<title>Sheet.108</title>
			<desc>Write TXDATA</desc>
			<path d="M100.12 380.86 L0 380.86 L0 395.33 L100.12 395.33 L100.12 380.86" class="st5"/>
			<text x="8.04" y="391.71" class="st13">Write TXDATA</text>		</g>
		<g id="shape109-298" transform="translate(296.531,-110.222)">
			<title>Sheet.109</title>
			<path d="M0 394.74 C11.82 397.11 21.69 392.41 23.6 383.53" class="st11"/>
		</g>
		<g id="shape110-301" transform="translate(291.826,-107.299)">
			<title>Sheet.110</title>
			<path d="M0 390.49 L7.09 389.12 C5.58 390.81 4.94 393.12 5.37 395.33 L0 390.49 Z" class="st12"/>
		</g>
		<g id="shape111-303" transform="translate(512.505,-100.838)">
			<title>Sheet.111</title>
			<path d="M0 378.37 L0 395.33" class="st4"/>
		</g>
		<g id="shape112-306" transform="translate(512.505,-100.838)">
			<title>Sheet.112</title>
			<path d="M-0 395.33 L5.65 395.33" class="st4"/>
		</g>
		<g id="shape113-309" transform="translate(518.152,-100.838)">
			<title>Sheet.113</title>
			<path d="M0 378.37 L0 395.33" class="st4"/>
		</g>
		<g id="shape114-312" transform="translate(542.827,-102.631)">
			<title>Sheet.114</title>
			<desc>Write TXDATA</desc>
			<path d="M100.12 380.86 L0 380.86 L0 395.33 L100.12 395.33 L100.12 380.86" class="st5"/>
			<text x="8.04" y="391.71" class="st13">Write TXDATA</text>		</g>
		<g id="shape115-316" transform="translate(517.211,-103.167)">
			<title>Sheet.115</title>
			<path d="M0 394.74 C11.8 397.11 21.69 392.41 23.57 383.53" class="st11"/>
		</g>
		<g id="shape116-319" transform="translate(512.505,-100.221)">
			<title>Sheet.116</title>
			<path d="M0 390.49 L7.09 389.1 C5.58 390.79 4.94 393.1 5.35 395.33 L0 390.49 Z" class="st12"/>
		</g>
		<g id="shape117-321" transform="translate(518.152,-117.802)">
			<title>Sheet.117</title>
			<path d="M0 395.33 L198.05 395.33" class="st4"/>
		</g>
		<g id="shape118-324" transform="translate(25.353,-126.742)">
			<title>Sheet.118</title>
			<desc>SLV_STRETCH_BUSY</desc>
			<path d="M147.54 380.86 L0 380.86 L0 395.33 L147.54 395.33 L147.54 380.86" class="st5"/>
			<text x="11.13" y="391.71" class="st8">SLV_STRETCH_BUSY</text>		</g>
		<g id="shape119-328" transform="translate(161.677,-129.104)">
			<title>Sheet.119</title>
			<path d="M0 395.33 L328.2 395.33" class="st4"/>
		</g>
		<g id="shape120-331" transform="translate(489.872,-129.104)">
			<title>Sheet.120</title>
			<path d="M0 378.37 L0 395.33" class="st4"/>
		</g>
		<g id="shape121-334" transform="translate(489.872,-146.068)">
			<title>Sheet.121</title>
			<path d="M0 395.33 L28.28 395.33" class="st4"/>
		</g>
		<g id="shape122-337" transform="translate(518.152,-129.104)">
			<title>Sheet.122</title>
			<path d="M0 378.37 L0 395.33" class="st4"/>
		</g>
		<g id="shape123-340" transform="translate(518.152,-129.104)">
			<title>Sheet.123</title>
			<path d="M0 395.33 L198.05 395.33" class="st4"/>
		</g>
		<g id="shape124-343" transform="translate(508.011,-112.139)">
			<title>Sheet.124</title>
			<path d="M6.49 371.27 C-1.34 379.44 -2.19 389.51 4.49 395.33" class="st4"/>
		</g>
		<g id="shape125-346" transform="translate(511.174,-132.757)">
			<title>Sheet.125</title>
			<path d="M6.98 388.62 L4.32 395.33 C3.72 393.14 2.11 391.36 0 390.52 L6.98 388.62 Z" class="st14"/>
		</g>
		<g id="shape126-348" transform="translate(659.617,-72.549)">
			<title>Sheet.126</title>
			<path d="M0 378.37 L0 395.33" class="st4"/>
		</g>
		<g id="shape127-351" transform="translate(659.617,-89.5131)">
			<title>Sheet.127</title>
			<path d="M-0 395.33 L11.32 395.33" class="st4"/>
		</g>
		<g id="shape128-354" transform="translate(670.933,-72.549)">
			<title>Sheet.128</title>
			<path d="M0 378.37 L0 395.33" class="st4"/>
		</g>
		<g id="shape129-357" transform="translate(675.639,-81.9566)">
			<title>Sheet.129</title>
			<path d="M0 394.74 C11.82 397.11 21.69 392.41 23.6 383.53" class="st11"/>
		</g>
		<g id="shape130-360" transform="translate(670.933,-79.0104)">
			<title>Sheet.130</title>
			<path d="M0 390.47 L7.09 389.1 C5.58 390.79 4.94 393.1 5.37 395.33 L0 390.47 Z" class="st12"/>
		</g>
		<g id="shape131-362" transform="translate(702.954,-84.3658)">
			<title>Sheet.131</title>
			<desc>W1C</desc>
			<path d="M34.28 380.86 L0 380.86 L0 395.33 L34.28 395.33 L34.28 380.86" class="st5"/>
			<text x="3.74" y="391.71" class="st13">W1C</text>		</g>
		<g id="shape132-366" transform="translate(670.933,-72.549)">
			<title>Sheet.132</title>
			<path d="M0 395.33 L45.27 395.33" class="st4"/>
		</g>
		<g id="shape133-369" transform="translate(117.169,-44.9123)">
			<title>Sheet.133</title>
			<desc>RSTO</desc>
			<path d="M41.22 380.86 L0 380.86 L0 395.33 L41.22 395.33 L41.22 380.86" class="st5"/>
			<text x="4.2" y="391.71" class="st8">RSTO</text>		</g>
		<g id="shape134-373" transform="translate(161.677,-44.2831)">
			<title>Sheet.134</title>
			<path d="M0 395.33 L526.24 395.33" class="st4"/>
		</g>
		<g id="shape135-376" transform="translate(687.919,-44.2831)">
			<title>Sheet.135</title>
			<path d="M0 378.37 L0 395.33" class="st4"/>
		</g>
		<g id="shape136-379" transform="translate(687.919,-61.2472)">
			<title>Sheet.136</title>
			<path d="M-0 395.33 L11.32 395.33" class="st4"/>
		</g>
		<g id="shape137-382" transform="translate(699.235,-44.2831)">
			<title>Sheet.137</title>
			<path d="M0 378.37 L0 395.33" class="st4"/>
		</g>
		<g id="shape138-385" transform="translate(703.941,-53.6895)">
			<title>Sheet.138</title>
			<path d="M0 394.74 C11.8 397.11 21.69 392.43 23.57 383.53" class="st11"/>
		</g>
		<g id="shape139-388" transform="translate(699.235,-50.7445)">
			<title>Sheet.139</title>
			<path d="M0 390.49 L7.09 389.1 C5.55 390.79 4.91 393.1 5.35 395.33 L0 390.49 Z" class="st12"/>
		</g>
		<g id="shape140-390" transform="translate(731.233,-56.2369)">
			<title>Sheet.140</title>
			<desc>W1C</desc>
			<path d="M34.28 380.86 L0 380.86 L0 395.33 L34.28 395.33 L34.28 380.86" class="st5"/>
			<text x="3.74" y="391.71" class="st13">W1C</text>		</g>
		<g id="shape141-394" transform="translate(699.235,-44.2831)">
			<title>Sheet.141</title>
			<path d="M0 395.33 L16.96 395.33" class="st4"/>
		</g>
		<g id="shape142-397" transform="translate(522.697,-141.456)">
			<title>Sheet.142</title>
			<path d="M0.37 394.6 L5.39 394.6 C5.58 394.6 5.74 394.76 5.74 394.97 C5.74 395.17 5.58 395.33 5.39 395.33 L0.37 395.33
						 C0.16 395.33 0 395.17 0 394.97 C0 394.76 0.16 394.6 0.37 394.6 ZM8.97 394.6 L14 394.6 C14.21 394.6 14.37
						 394.76 14.37 394.97 C14.37 395.17 14.21 395.33 14 395.33 L8.97 395.33 C8.79 395.33 8.63 395.17 8.63 394.97
						 C8.63 394.76 8.79 394.6 8.97 394.6 ZM17.61 394.6 L19.42 394.6 C19.63 394.6 19.79 394.76 19.79 394.97 C19.79
						 395.17 19.63 395.33 19.42 395.33 L17.61 395.33 C17.4 395.33 17.24 395.17 17.24 394.97 C17.24 394.76 17.4
						 394.6 17.61 394.6 Z" class="st15"/>
		</g>
		<g id="shape143-399" transform="translate(518.152,-138.602)">
			<title>Sheet.143</title>
			<path d="M0 392.11 L6.47 388.87 C5.46 390.9 5.46 393.3 6.47 395.33 L0 392.11 Z" class="st14"/>
		</g>
		<g id="shape144-401" transform="translate(540.555,-138.602)">
			<title>Sheet.144</title>
			<path d="M6.45 392.11 L0 395.33 C1.01 393.3 1.01 390.9 0 388.87 L6.45 392.11 Z" class="st14"/>
		</g>
		<g id="shape145-403" transform="translate(527.93,-134.652)">
			<title>Sheet.145</title>
			<path d="M0 380.97 L0 395.33 L9.32 395.33 L9.32 380.97 L0 380.97 L0 380.97 Z" class="st7"/>
		</g>
		<g id="shape146-405" transform="translate(527.769,-134.048)">
			<title>Sheet.146</title>
			<desc>t1</desc>
			<path d="M14.25 380.86 L0 380.86 L0 395.33 L14.25 395.33 L14.25 380.86" class="st5"/>
			<text x="2.44" y="391.71" class="st16">t1</text>		</g>
		<g id="shape8-409" transform="translate(18.375,-18.375)">
			<title>Sheet.8</title>
			<rect x="0" y="36.75" width="756.553" height="358.583" class="st17"/>
		</g>
	</g>
</svg>
