<?xml version="1.0" encoding="UTF-8" standalone="no"?>
<!DOCTYPE svg PUBLIC "-//W3C//DTD SVG 1.1//EN" "http://www.w3.org/Graphics/SVG/1.1/DTD/svg11.dtd">
<!-- Generated by Microsoft Visio, SVG Export i2c_block_diagram.svg Page-1 -->
<svg xmlns="http://www.w3.org/2000/svg" xmlns:xlink="http://www.w3.org/1999/xlink" xmlns:ev="http://www.w3.org/2001/xml-events"
		width="5.22788in" height="4.08615in" viewBox="0 0 376.407 294.203" xml:space="preserve" color-interpolation-filters="sRGB"
		class="st21">
	<style type="text/css">
	<![CDATA[
		.st1 {marker-end:url(#mrkr4-11);marker-start:url(#mrkr4-9);stroke:#404040;stroke-linecap:round;stroke-linejoin:round;stroke-width:3}
		.st2 {fill:#404040;fill-opacity:1;stroke:#404040;stroke-opacity:1;stroke-width:0.54347826086957}
		.st3 {fill:url(#grad0-6);stroke:#404040;stroke-linecap:round;stroke-linejoin:round;stroke-width:0.25}
		.st4 {fill:#000000;font-family:Arial;font-size:1.00001em}
		.st5 {marker-end:url(#mrkr4-11);stroke:#404040;stroke-linecap:butt;stroke-width:3}
		.st6 {stroke:#404040;stroke-linecap:round;stroke-linejoin:round;stroke-width:0.25}
		.st7 {fill:none;stroke:none;stroke-linecap:round;stroke-linejoin:round;stroke-width:0.25}
		.st8 {fill:#000000;font-family:微软雅黑;font-size:0.666664em}
		.st9 {font-family:Microsoft Sans Serif;font-size:1em}
		.st10 {fill:#000000;font-family:Microsoft Sans Serif;font-size:0.833336em}
		.st11 {font-family:微软雅黑;font-size:1em}
		.st12 {fill:#000000;font-family:微软雅黑;font-size:0.833336em}
		.st13 {marker-end:url(#mrkr4-76);stroke:#404040;stroke-linecap:round;stroke-linejoin:round;stroke-width:0.25}
		.st14 {fill:#404040;fill-opacity:1;stroke:#404040;stroke-opacity:1;stroke-width:0.090252707581227}
		.st15 {fill:#000000;font-family:Microsoft Sans Serif;font-size:0.666664em}
		.st16 {fill:#000000;font-family:Arial;font-size:0.666664em}
		.st17 {marker-start:url(#mrkr13-136);stroke:#404040;stroke-linecap:round;stroke-linejoin:round;stroke-width:0.25}
		.st18 {marker-start:url(#mrkr4-168);stroke:#404040;stroke-linecap:round;stroke-linejoin:round;stroke-width:0.25}
		.st19 {marker-end:url(#mrkr4-76);marker-start:url(#mrkr4-168);stroke:#404040;stroke-linecap:round;stroke-linejoin:round;stroke-width:0.25}
		.st20 {fill:#000000;font-family:Arial;font-size:0.833336em}
		.st21 {fill:none;fill-rule:evenodd;font-size:12px;overflow:visible;stroke-linecap:square;stroke-miterlimit:3}
	]]>
	</style>

	<defs id="Patterns_And_Gradients">
		<linearGradient id="grad0-6" x1="0" y1="0" x2="1" y2="0" gradientTransform="rotate(270 0.5 0.5)">
			<stop offset="0" stop-color="#f0f0f0" stop-opacity="1"/>
			<stop offset="1" stop-color="#ffffff" stop-opacity="1"/>
		</linearGradient>
	</defs>
	<defs id="Markers">
		<g id="lend4">
			<path d="M 2 1 L 0 0 L 2 -1 L 2 1 " style="stroke:none"/>
		</g>
		<marker id="mrkr4-9" class="st2" refX="3.56" orient="auto" markerUnits="strokeWidth" overflow="visible">
			<use xlink:href="#lend4" transform="scale(1.84) "/>
		</marker>
		<marker id="mrkr4-11" class="st2" refX="-3.68" orient="auto" markerUnits="strokeWidth" overflow="visible">
			<use xlink:href="#lend4" transform="scale(-1.84,-1.84) "/>
		</marker>
		<marker id="mrkr4-76" class="st14" refX="-22.16" orient="auto" markerUnits="strokeWidth" overflow="visible">
			<use xlink:href="#lend4" transform="scale(-11.08,-11.08) "/>
		</marker>
		<g id="lend13">
			<path d="M 3 1 L 0 0 L 3 -1 L 3 1 " style="stroke:none"/>
		</g>
		<marker id="mrkr13-136" class="st14" refX="31.8" orient="auto" markerUnits="strokeWidth" overflow="visible">
			<use xlink:href="#lend13" transform="scale(11.08) "/>
		</marker>
		<marker id="mrkr4-168" class="st14" refX="20.72" orient="auto" markerUnits="strokeWidth" overflow="visible">
			<use xlink:href="#lend4" transform="scale(11.08) "/>
		</marker>
	</defs>
	<g>
		<title>页-1</title>
		<g id="shape122-1" transform="translate(57.81,-260.204)">
			<title>Sheet.122</title>
			<path d="M10.68 294.2 L11.04 294.2 L227.07 294.2" class="st1"/>
		</g>
		<g id="shape123-12" transform="translate(97.4951,-191.038)">
			<title>Sheet.123</title>
			<desc>TXDATA</desc>
			<rect x="0" y="277.195" width="68.0315" height="17.0079" class="st3"/>
			<text x="10.35" y="289.3" class="st4">TXDATA</text>		</g>
		<g id="shape124-16" transform="translate(425.714,35.1329) rotate(90)">
			<title>Sheet.124</title>
			<path d="M0 294.2 L39.98 294.2" class="st5"/>
		</g>
		<g id="shape125-22" transform="translate(-71.9833,86.1565) rotate(-90)">
			<title>Sheet.125</title>
			<path d="M0 294.2 L39.98 294.2" class="st5"/>
		</g>
		<g id="shape126-28" transform="translate(123.007,-225.054)">
			<title>Sheet.126</title>
			<path d="M8.5 294.2 L0 277.19 L17.01 277.19 L8.5 294.2 Z" class="st3"/>
		</g>
		<g id="shape127-31" transform="translate(230.723,346.344) rotate(180)">
			<title>Sheet.127</title>
			<path d="M8.5 294.2 L0 277.19 L17.01 277.19 L8.5 294.2 Z" class="st3"/>
		</g>
		<g id="shape128-34" transform="translate(425.714,103.164) rotate(90)">
			<title>Sheet.128</title>
			<path d="M0 294.2 L17.31 294.2" class="st5"/>
		</g>
		<g id="shape129-40" transform="translate(-71.9833,131.511) rotate(-90)">
			<title>Sheet.129</title>
			<path d="M0 294.2 L17.31 294.2" class="st5"/>
		</g>
		<g id="shape130-46" transform="translate(116.465,-233.565) rotate(-0.170017)">
			<title>Sheet.130</title>
			<path d="M0 294.2 L9.9 294.2" class="st6"/>
		</g>
		<g id="shape131-50" transform="translate(226.49,-233.52)">
			<title>Sheet.131</title>
			<path d="M0 294.2 L9.9 294.2" class="st6"/>
		</g>
		<g id="shape132-54" transform="translate(52.3455,-225.054)">
			<title>Sheet.132</title>
			<desc>写I2CxDATA</desc>
			<rect x="0" y="278.203" width="68.0315" height="16" class="st7"/>
			<text x="11.12" y="288.64" class="st8">写<tspan class="st9">I2CxDATA</tspan></text>		</g>
		<g id="shape133-58" transform="translate(233.338,-225.054)">
			<title>Sheet.133</title>
			<desc>读I2CxDATA</desc>
			<rect x="0" y="278.203" width="68.0315" height="16" class="st7"/>
			<text x="11.12" y="288.64" class="st8">读<tspan class="st9">I2CxDATA</tspan></text>		</g>
		<g id="shape134-62" transform="translate(124.865,-258.377)">
			<title>Sheet.134</title>
			<desc>APB总线</desc>
			<rect x="0" y="278.203" width="104" height="16" class="st7"/>
			<text x="31.99" y="289.24" class="st10">APB<tspan class="st11">总线</tspan></text>		</g>
		<g id="shape144-66" transform="translate(114.503,-145.684)">
			<title>Sheet.144</title>
			<desc>数据移位寄存器</desc>
			<rect x="0" y="277.195" width="124.724" height="17.0079" class="st3"/>
			<text x="27.36" y="288.74" class="st12">数据移位寄存器</text>		</g>
		<g id="shape145-70" transform="translate(239.227,-154.251)">
			<title>Sheet.145</title>
			<path d="M0 294.2 L17.14 294.2" class="st13"/>
		</g>
		<g id="shape146-77" transform="translate(312.928,-140.015)">
			<title>Sheet.146</title>
			<rect x="0" y="288.533" width="5.66929" height="5.66929" class="st3"/>
		</g>
		<g id="shape147-80" transform="translate(520.961,-59.5141) rotate(45)">
			<title>Sheet.147</title>
			<path d="M0 294.2 L8.02 294.2" class="st6"/>
		</g>
		<g id="shape148-84" transform="translate(104.895,-53.8448) rotate(-45)">
			<title>Sheet.148</title>
			<path d="M0 294.2 L8.02 294.2" class="st6"/>
		</g>
		<g id="shape161-88" transform="translate(314.479,-134.849)">
			<title>Sheet.161</title>
			<desc>SDA</desc>
			<rect x="0" y="278.203" width="28.0787" height="16" class="st7"/>
			<text x="5.81" y="288.6" class="st15">SDA</text>		</g>
		<g id="shape163-91" transform="translate(312.928,-97.4321)">
			<title>Sheet.163</title>
			<rect x="0" y="288.533" width="5.66929" height="5.66929" class="st3"/>
		</g>
		<g id="shape164-94" transform="translate(520.961,-16.9314) rotate(45)">
			<title>Sheet.164</title>
			<path d="M0 294.2 L8.02 294.2" class="st6"/>
		</g>
		<g id="shape165-98" transform="translate(104.895,-11.2621) rotate(-45)">
			<title>Sheet.165</title>
			<path d="M0 294.2 L8.02 294.2" class="st6"/>
		</g>
		<g id="shape166-102" transform="translate(314.479,-92.2667)">
			<title>Sheet.166</title>
			<desc>SCL</desc>
			<rect x="0" y="278.203" width="28.0787" height="16" class="st7"/>
			<text x="6.26" y="288.6" class="st15">SCL</text>		</g>
		<g id="shape171-105" transform="translate(312.928,488.076) rotate(180)">
			<title>Sheet.171</title>
			<path d="M0 294.2 L136.06 294.2" class="st6"/>
		</g>
		<g id="shape172-109" transform="translate(-117.338,193.873) rotate(-90)">
			<title>Sheet.172</title>
			<path d="M0 294.2 L39.81 294.2" class="st13"/>
		</g>
		<g id="shape173-115" transform="translate(-134.345,202.377) rotate(-90)">
			<title>Sheet.173</title>
			<path d="M8.5 294.2 L0 277.19 L17.01 277.19 L8.5 294.2 Z" class="st3"/>
		</g>
		<g id="shape174-118" transform="translate(159.857,-100.33)">
			<title>Sheet.174</title>
			<path d="M0 294.2 L17.01 294.2" class="st6"/>
		</g>
		<g id="shape175-122" transform="translate(80.3622,-91.8258)">
			<title>Sheet.175</title>
			<desc>/</desc>
			<rect x="0" y="277.195" width="17.0079" height="17.0079" class="st3"/>
			<text x="7.39" y="288.1" class="st16">/</text>		</g>
		<g id="shape176-126" transform="translate(97.4447,-100.33)">
			<title>Sheet.176</title>
			<path d="M0 294.2 L45.4 294.2" class="st6"/>
		</g>
		<g id="shape177-130" transform="translate(80.3622,488.076) rotate(180)">
			<title>Sheet.177</title>
			<path d="M7.95 294.2 L8.31 294.2 L31.79 294.2" class="st17"/>
		</g>
		<g id="shape178-137" transform="translate(40.6772,-97.874)">
			<title>Sheet.178</title>
			<desc>PCLK</desc>
			<rect x="0" y="278.203" width="34.0157" height="16" class="st7"/>
			<text x="6.56" y="288.6" class="st16">PCLK</text>		</g>
		<g id="shape181-140" transform="translate(-23.7943,135.763) rotate(-90)">
			<title>Sheet.181</title>
			<path d="M0 294.2 L9.94 294.2" class="st6"/>
		</g>
		<g id="shape182-144" transform="translate(129.969,-69.0236)">
			<title>Sheet.182</title>
			<desc>MASTER=1</desc>
			<rect x="0" y="278.203" width="51.0236" height="16" class="st7"/>
			<text x="4.28" y="288.6" class="st16">MASTER=1</text>		</g>
		<g id="shape185-147" transform="translate(18.125,-276.078)">
			<title>Sheet.185</title>
			<path d="M0 294.2 L340.16 294.2" class="st6"/>
		</g>
		<g id="shape186-151" transform="translate(652.485,18.125) rotate(90)">
			<title>Sheet.186</title>
			<path d="M0 294.2 L257.95 294.2" class="st6"/>
		</g>
		<g id="shape187-155" transform="translate(18.125,-18.125)">
			<title>Sheet.187</title>
			<path d="M340.16 294.2 L0 294.2 L0 36.25" class="st6"/>
		</g>
		<g id="shape121-159" transform="translate(-15.2904,148.519) rotate(-90)">
			<title>Sheet.121</title>
			<path d="M8.5 294.2 L0 277.19 L17.01 277.19 L8.5 294.2 Z" class="st3"/>
		</g>
		<g id="shape135-162" transform="translate(114.503,434.218) rotate(180)">
			<title>Sheet.135</title>
			<path d="M5.18 294.2 L5.54 294.2 L11.34 294.2" class="st18"/>
		</g>
		<g id="shape136-169" transform="translate(556.107,154.188) rotate(90)">
			<title>Sheet.136</title>
			<path d="M8.5 294.2 L0 277.19 L17.01 277.19 L8.5 294.2 Z" class="st3"/>
		</g>
		<g id="shape137-172" transform="translate(261.905,456.895) rotate(180)">
			<title>Sheet.137</title>
			<path d="M0 294.2 L158.74 294.2" class="st6"/>
		</g>
		<g id="shape138-176" transform="translate(-191.038,162.692) rotate(-90)">
			<title>Sheet.138</title>
			<path d="M0 294.2 L22.68 294.2" class="st6"/>
		</g>
		<g id="shape139-180" transform="translate(278.912,-131.511)">
			<title>Sheet.139</title>
			<path d="M0 271.53 L5.67 271.53 L5.67 294.2 L0 294.2" class="st6"/>
		</g>
		<g id="shape140-184" transform="translate(284.582,-142.849)">
			<title>Sheet.140</title>
			<path d="M5.18 294.2 L5.54 294.2 L22.81 294.2" class="st19"/>
		</g>
		<g id="shape141-192" transform="translate(-23.9152,176.824) rotate(-90)">
			<title>Sheet.141</title>
			<path d="M0 294.2 L9.94 294.2" class="st6"/>
		</g>
		<g id="shape142-196" transform="translate(247.731,-164.393)">
			<title>Sheet.142</title>
			<desc>发送</desc>
			<rect x="0" y="278.203" width="45.3543" height="16" class="st7"/>
			<text x="14.68" y="288.64" class="st8">发送</text>		</g>
		<g id="shape143-199" transform="translate(253.401,-104.582)">
			<title>Sheet.143</title>
			<desc>接收</desc>
			<rect x="0" y="278.203" width="34.0157" height="16" class="st7"/>
			<text x="9.01" y="288.64" class="st8">接收</text>		</g>
		<g id="shape149-202" transform="translate(-142.955,211.31) rotate(-90)">
			<title>Sheet.149</title>
			<path d="M0 294.2 L13.13 294.2" class="st6"/>
		</g>
		<g id="shape150-206" transform="translate(134.22,-26.6289)">
			<title>Sheet.150</title>
			<desc>SLVADDR.ADDR</desc>
			<rect x="0" y="277.195" width="124.724" height="17.0079" class="st3"/>
			<text x="23.19" y="288.7" class="st20">SLVADDR.ADDR</text>		</g>
		<g id="shape151-210" transform="translate(202.377,-57.81)">
			<title>Sheet.151</title>
			<desc>=</desc>
			<ellipse cx="7.08661" cy="287.116" rx="7.08661" ry="7.08661" class="st3"/>
			<text x="4.75" y="289.52" class="st15">=</text>		</g>
		<g id="shape152-214" transform="translate(503.666,148.519) rotate(90)">
			<title>Sheet.152</title>
			<path d="M0 294.2 L68.16 294.2" class="st13"/>
		</g>
		<g id="shape153-220" transform="translate(-84.6302,250.566) rotate(-90)">
			<title>Sheet.153</title>
			<path d="M0 294.2 L8.63 294.2" class="st13"/>
		</g>
		<g id="shape154-226" transform="translate(216.63,-65.1917) rotate(0.0166802)">
			<title>Sheet.154</title>
			<path d="M0 294.2 L34.15 294.2" class="st13"/>
		</g>
		<g id="shape155-232" transform="translate(256.235,-57.81)">
			<title>Sheet.155</title>
			<desc>SLV_ACTIVE</desc>
			<rect x="0" y="280.03" width="59.5276" height="14.1732" class="st3"/>
			<text x="5.53" y="289.52" class="st16">SLV_ACTIVE</text>		</g>
		<g id="shape188-236" transform="translate(188.204,-191.038)">
			<title>Sheet.188</title>
			<desc>RXDATA</desc>
			<rect x="0" y="277.195" width="68.0315" height="17.0079" class="st3"/>
			<text x="9.68" y="289.3" class="st4">RXDATA</text>		</g>
		<g id="group189-240" transform="translate(270.508,-128.984)">
			<title>Sheet.189</title>
			<g id="shape167-241" transform="translate(0,-4.5276)">
				<title>Sheet.167</title>
				<path d="M0 294.2 L2.83 294.2" class="st6"/>
			</g>
			<g id="shape168-245" transform="translate(2.60967,0)">
				<title>Sheet.168</title>
				<path d="M0 294.2 L2.83 294.2" class="st6"/>
			</g>
			<g id="shape169-249" transform="translate(279.974,195.989) rotate(71.4023)">
				<title>Sheet.169</title>
				<path d="M0 294.2 L4.63 294.2" class="st6"/>
			</g>
			<g id="shape183-253" transform="translate(282.83,199.354) rotate(72.1213)">
				<title>Sheet.183</title>
				<path d="M0 294.2 L4.62 294.2" class="st6"/>
			</g>
		</g>
		<g id="shape190-257" transform="translate(49.1811,-69.0236)">
			<title>Sheet.190</title>
			<desc>(DIV, SCLH, SCLL)</desc>
			<rect x="0" y="278.203" width="82.2047" height="16" class="st7"/>
			<text x="6.65" y="288.6" class="st16">(DIV, SCLH, SCLL)</text>		</g>
		<g id="shape191-260" transform="translate(-205.337,212.317) rotate(-90)">
			<title>Sheet.191</title>
			<path d="M0 294.2 L9.94 294.2" class="st6"/>
		</g>
	</g>
</svg>
