<?xml version="1.0" encoding="UTF-8" standalone="no"?>
<!DOCTYPE svg PUBLIC "-//W3C//DTD SVG 1.1//EN" "http://www.w3.org/Graphics/SVG/1.1/DTD/svg11.dtd">
<!-- Generated by Microsoft Visio, SVG Export i2c_master_register_timewave.svg 页-1 -->
<svg xmlns="http://www.w3.org/2000/svg" xmlns:xlink="http://www.w3.org/1999/xlink" xmlns:ev="http://www.w3.org/2001/xml-events"
		width="10.1482in" height="5.78601in" viewBox="0 0 730.671 416.593" xml:space="preserve" color-interpolation-filters="sRGB"
		class="st15">
	<style type="text/css">
	<![CDATA[
		.st1 {fill:none;stroke:none;stroke-linecap:round;stroke-linejoin:round;stroke-width:0.75}
		.st2 {stroke:#c0c0c0;stroke-linecap:round;stroke-linejoin:round;stroke-width:0.723351}
		.st3 {fill:#c0c0c0;stroke:none;stroke-linecap:round;stroke-linejoin:round;stroke-width:0.75}
		.st4 {stroke:#000000;stroke-linecap:round;stroke-linejoin:round;stroke-width:0.723351}
		.st5 {stroke:none;stroke-linecap:round;stroke-linejoin:round;stroke-width:0.75}
		.st6 {fill:#000000;font-family:Times New Roman;font-size:0.827385em;font-weight:bold}
		.st7 {fill:#ffffff;stroke:none;stroke-linecap:round;stroke-linejoin:round;stroke-width:0.75}
		.st8 {fill:#000000;font-family:Times New Roman;font-size:0.987534em;font-weight:bold}
		.st9 {stroke:#ff0000;stroke-linecap:round;stroke-linejoin:round;stroke-width:0.723351}
		.st10 {fill:#ff0000;stroke:none;stroke-linecap:round;stroke-linejoin:round;stroke-width:0.75}
		.st11 {fill:#ff0000;font-family:Times New Roman;font-size:0.987534em;font-weight:bold}
		.st12 {fill:#808080;stroke:#808080;stroke-linecap:round;stroke-linejoin:round;stroke-width:0.321489}
		.st13 {fill:#000000;font-family:Times New Roman;font-size:1.49464em;font-weight:bold}
		.st14 {fill:none;stroke:#000000;stroke-linecap:round;stroke-linejoin:round;stroke-width:0.75}
		.st15 {fill:none;fill-rule:evenodd;font-size:12px;overflow:visible;stroke-linecap:square;stroke-miterlimit:3}
	]]>
	</style>

	<g>
		<title>页-1</title>
		<g id="shape8-1" transform="translate(41.1089,-30.3089)">
			<title>Sheet.8</title>
			<rect x="0" y="54.3532" width="657.014" height="362.239" class="st1"/>
		</g>
		<g id="shape9-3" transform="translate(144.896,-32.1316)">
			<title>Sheet.9</title>
			<path d="M0 122.95 L0 416.59" class="st2"/>
		</g>
		<g id="shape10-6" transform="translate(258.143,-32.1316)">
			<title>Sheet.10</title>
			<path d="M0 122.95 L0 416.59" class="st2"/>
		</g>
		<g id="shape11-9" transform="translate(286.46,-32.1316)">
			<title>Sheet.11</title>
			<path d="M0 122.95 L0 416.59" class="st2"/>
		</g>
		<g id="shape12-12" transform="translate(428.023,-32.1316)">
			<title>Sheet.12</title>
			<path d="M0 122.95 L0 416.59" class="st2"/>
		</g>
		<g id="shape13-15" transform="translate(399.706,-32.1316)">
			<title>Sheet.13</title>
			<path d="M0 122.95 L0 416.59" class="st2"/>
		</g>
		<g id="shape14-18" transform="translate(314.776,-32.1316)">
			<title>Sheet.14</title>
			<path d="M0 122.95 L0 416.59" class="st2"/>
		</g>
		<g id="shape15-21" transform="translate(626.22,-32.1316)">
			<title>Sheet.15</title>
			<path d="M0 122.95 L0 416.59" class="st2"/>
		</g>
		<g id="shape16-24" transform="translate(597.903,-32.1316)">
			<title>Sheet.16</title>
			<path d="M0 122.95 L0 416.59" class="st2"/>
		</g>
		<g id="shape17-27" transform="translate(569.586,-32.1316)">
			<title>Sheet.17</title>
			<path d="M0 122.95 L0 416.59" class="st2"/>
		</g>
		<g id="shape18-30" transform="translate(484.656,-32.1316)">
			<title>Sheet.18</title>
			<path d="M0 122.95 L0 416.59" class="st2"/>
		</g>
		<g id="shape19-33" transform="translate(116.58,-325.77)">
			<title>Sheet.19</title>
			<path d="M0 388.37 L0 416.59 L28.32 416.59 L28.32 388.37 L0 388.37 L0 388.37 Z" class="st3"/>
		</g>
		<g id="shape20-35" transform="translate(116.58,-325.77)">
			<title>Sheet.20</title>
			<path d="M0 416.59 L28.32 416.59 L28.32 388.37 L0 388.37 L0 416.59 L0 416.59" class="st4"/>
		</g>
		<g id="shape21-38" transform="translate(127.914,-333.199)">
			<title>Sheet.21</title>
			<desc>S</desc>
			<path d="M9.21 404.67 L0 404.67 L0 416.59 L9.21 416.59 L9.21 404.67" class="st5"/>
			<text x="1.84" y="413.61" class="st6">S</text>		</g>
		<g id="shape22-42" transform="translate(144.896,-325.77)">
			<title>Sheet.22</title>
			<path d="M0 388.37 L0 416.59 L113.25 416.59 L113.25 388.37 L0 388.37 L0 388.37 Z" class="st3"/>
		</g>
		<g id="shape23-44" transform="translate(144.896,-325.77)">
			<title>Sheet.23</title>
			<path d="M0 416.59 L113.25 416.59 L113.25 388.37 L0 388.37 L0 416.59 L0 416.59" class="st4"/>
		</g>
		<g id="shape24-47" transform="translate(160.184,-333.199)">
			<title>Sheet.24</title>
			<desc>SLAVE ADDRESS</desc>
			<path d="M97.08 404.67 L0 404.67 L0 416.59 L97.08 416.59 L97.08 404.67" class="st5"/>
			<text x="7.57" y="413.61" class="st6">SLAVE ADDRESS</text>		</g>
		<g id="shape25-51" transform="translate(258.143,-325.77)">
			<title>Sheet.25</title>
			<path d="M0 388.37 L0 416.59 L28.32 416.59 L28.32 388.37 L0 388.37 L0 388.37 Z" class="st3"/>
		</g>
		<g id="shape26-53" transform="translate(258.143,-325.77)">
			<title>Sheet.26</title>
			<path d="M0 416.59 L28.32 416.59 L28.32 388.37 L0 388.37 L0 416.59 L0 416.59" class="st4"/>
		</g>
		<g id="shape27-56" transform="translate(262.157,-333.199)">
			<title>Sheet.27</title>
			<desc>R/W</desc>
			<path d="M25.69 404.67 L0 404.67 L0 416.59 L25.69 416.59 L25.69 404.67" class="st5"/>
			<text x="2.92" y="413.61" class="st6">R/W</text>		</g>
		<g id="shape28-60" transform="translate(272.301,-346.948)">
			<title>Sheet.28</title>
			<path d="M0 416.59 L8.03 416.59" class="st4"/>
		</g>
		<g id="shape29-63" transform="translate(286.46,-325.77)">
			<title>Sheet.29</title>
			<path d="M0 388.37 L0 416.59 L28.32 416.59 L28.32 388.37 L0 388.37 L0 388.37 Z" class="st7"/>
		</g>
		<g id="shape30-65" transform="translate(286.46,-325.77)">
			<title>Sheet.30</title>
			<path d="M0 416.59 L28.32 416.59 L28.32 388.37 L0 388.37 L0 416.59 L0 416.59" class="st4"/>
		</g>
		<g id="shape31-68" transform="translate(296.362,-331.662)">
			<title>Sheet.31</title>
			<desc>A</desc>
			<path d="M13.25 402.37 L0 402.37 L0 416.59 L13.25 416.59 L13.25 402.37" class="st5"/>
			<text x="2.35" y="413.04" class="st8">A</text>		</g>
		<g id="shape32-72" transform="translate(314.776,-325.77)">
			<title>Sheet.32</title>
			<path d="M0 388.37 L0 416.59 L84.93 416.59 L84.93 388.37 L0 388.37 L0 388.37 Z" class="st7"/>
		</g>
		<g id="shape33-74" transform="translate(314.776,-325.77)">
			<title>Sheet.33</title>
			<path d="M0 416.59 L84.93 416.59 L84.93 388.37 L0 388.37 L0 416.59 L0 416.59" class="st4"/>
		</g>
		<g id="shape34-77" transform="translate(340.249,-331.662)">
			<title>Sheet.34</title>
			<desc>DATA</desc>
			<path d="M42.03 402.37 L0 402.37 L0 416.59 L42.03 416.59 L42.03 402.37" class="st5"/>
			<text x="4.22" y="413.04" class="st8">DATA</text>		</g>
		<g id="shape35-81" transform="translate(399.706,-325.77)">
			<title>Sheet.35</title>
			<path d="M0 388.37 L0 416.59 L28.32 416.59 L28.32 388.37 L0 388.37 L0 388.37 Z" class="st3"/>
		</g>
		<g id="shape36-83" transform="translate(399.706,-325.77)">
			<title>Sheet.36</title>
			<path d="M0 416.59 L28.32 416.59 L28.32 388.37 L0 388.37 L0 416.59 L0 416.59" class="st4"/>
		</g>
		<g id="shape37-86" transform="translate(409.629,-331.662)">
			<title>Sheet.37</title>
			<desc>A</desc>
			<path d="M13.25 402.37 L0 402.37 L0 416.59 L13.25 416.59 L13.25 402.37" class="st5"/>
			<text x="2.35" y="413.04" class="st8">A</text>		</g>
		<g id="shape38-90" transform="translate(484.656,-325.77)">
			<title>Sheet.38</title>
			<path d="M0 388.37 L0 416.59 L84.93 416.59 L84.93 388.37 L0 388.37 L0 388.37 Z" class="st7"/>
		</g>
		<g id="shape39-92" transform="translate(484.656,-325.77)">
			<title>Sheet.39</title>
			<path d="M0 416.59 L84.93 416.59 L84.93 388.37 L0 388.37 L0 416.59 L0 416.59" class="st4"/>
		</g>
		<g id="shape40-95" transform="translate(509.988,-331.662)">
			<title>Sheet.40</title>
			<desc>DATA</desc>
			<path d="M42.03 402.37 L0 402.37 L0 416.59 L42.03 416.59 L42.03 402.37" class="st5"/>
			<text x="4.22" y="413.04" class="st8">DATA</text>		</g>
		<g id="shape41-99" transform="translate(569.586,-325.77)">
			<title>Sheet.41</title>
			<path d="M0 388.37 L0 416.59 L28.32 416.59 L28.32 388.37 L0 388.37 L0 388.37 Z" class="st3"/>
		</g>
		<g id="shape42-101" transform="translate(569.586,-325.77)">
			<title>Sheet.42</title>
			<path d="M0 416.59 L28.32 416.59 L28.32 388.37 L0 388.37 L0 416.59 L0 416.59" class="st4"/>
		</g>
		<g id="shape43-104" transform="translate(579.368,-331.662)">
			<title>Sheet.43</title>
			<desc>A</desc>
			<path d="M13.25 402.37 L0 402.37 L0 416.59 L13.25 416.59 L13.25 402.37" class="st5"/>
			<text x="2.35" y="413.04" class="st8">A</text>		</g>
		<g id="shape44-108" transform="translate(597.903,-325.77)">
			<title>Sheet.44</title>
			<path d="M0 388.37 L0 416.59 L28.32 416.59 L28.32 388.37 L0 388.37 L0 388.37 Z" class="st3"/>
		</g>
		<g id="shape45-110" transform="translate(597.903,-325.77)">
			<title>Sheet.45</title>
			<path d="M0 416.59 L28.32 416.59 L28.32 388.37 L0 388.37 L0 416.59 L0 416.59" class="st4"/>
		</g>
		<g id="shape46-113" transform="translate(609.056,-333.199)">
			<title>Sheet.46</title>
			<desc>P</desc>
			<path d="M9.83 404.67 L0 404.67 L0 416.59 L9.83 416.59 L9.83 404.67" class="st5"/>
			<text x="1.88" y="413.61" class="st6">P</text>		</g>
		<g id="shape47-117" transform="translate(579.489,-346.948)">
			<title>Sheet.47</title>
			<path d="M0 416.59 L8.03 416.59" class="st4"/>
		</g>
		<g id="shape48-120" transform="translate(269.458,-353.994)">
			<title>Sheet.48</title>
			<path d="M0 399.66 L0 416.59" class="st4"/>
		</g>
		<g id="shape49-123" transform="translate(241.504,-370.385)">
			<title>Sheet.49</title>
			<path d="M0 402.37 L0 402.37 L0 416.59 L0 416.59 L0 402.37" class="st5"/>
		</g>
		<g id="shape51-126" transform="translate(259.575,-370.385)">
			<title>Sheet.51</title>
			<path d="M0 402.37 L0 402.37 L0 416.59 L0 416.59 L0 402.37" class="st5"/>
		</g>
		<g id="shape52-129" transform="translate(252.853,-373.619)">
			<title>Sheet.52</title>
			<desc>‘1’ (read)</desc>
			<path d="M51.87 402.37 L0 402.37 L0 416.59 L51.87 416.59 L51.87 402.37" class="st5"/>
			<text x="2.52" y="413.04" class="st8">‘1’ (read)</text>		</g>
		<g id="shape53-133" transform="translate(62.4069,-298.032)">
			<title>Sheet.53</title>
			<desc>BUSY</desc>
			<path d="M39.76 402.37 L0 402.37 L0 416.59 L39.76 416.59 L39.76 402.37" class="st5"/>
			<text x="4.08" y="413.04" class="st8">BUSY</text>		</g>
		<g id="shape54-137" transform="translate(101.01,-297.525)">
			<title>Sheet.54</title>
			<path d="M-0 416.59 L43.89 416.59" class="st4"/>
		</g>
		<g id="shape55-140" transform="translate(144.896,-297.525)">
			<title>Sheet.55</title>
			<path d="M0 416.59 L0 399.64" class="st4"/>
		</g>
		<g id="shape56-143" transform="translate(144.896,-314.48)">
			<title>Sheet.56</title>
			<path d="M0 416.59 L481.32 416.59" class="st4"/>
		</g>
		<g id="shape57-146" transform="translate(626.22,-297.525)">
			<title>Sheet.57</title>
			<path d="M0 399.64 L0 416.59" class="st4"/>
		</g>
		<g id="shape58-149" transform="translate(626.22,-297.525)">
			<title>Sheet.58</title>
			<path d="M-0 416.59 L28.32 416.59" class="st4"/>
		</g>
		<g id="shape59-152" transform="translate(428.023,-325.77)">
			<title>Sheet.59</title>
			<path d="M0 416.59 L56.63 416.59" class="st4"/>
		</g>
		<g id="shape60-155" transform="translate(99.5978,-241.055)">
			<title>Sheet.60</title>
			<path d="M0 416.59 L16.98 416.59" class="st4"/>
		</g>
		<g id="shape61-158" transform="translate(116.58,-241.055)">
			<title>Sheet.61</title>
			<path d="M0 399.64 L0 416.59" class="st4"/>
		</g>
		<g id="shape62-161" transform="translate(116.58,-258.01)">
			<title>Sheet.62</title>
			<path d="M-0 416.59 L28.32 416.59" class="st4"/>
		</g>
		<g id="shape63-164" transform="translate(144.896,-241.055)">
			<title>Sheet.63</title>
			<path d="M0 399.64 L0 416.59" class="st4"/>
		</g>
		<g id="shape64-167" transform="translate(144.896,-241.055)">
			<title>Sheet.64</title>
			<path d="M0 416.59 L509.64 416.59" class="st4"/>
		</g>
		<g id="shape65-170" transform="translate(61.1161,-238.46)">
			<title>Sheet.65</title>
			<desc>STA</desc>
			<path d="M29.92 402.37 L0 402.37 L0 416.59 L29.92 416.59 L29.92 402.37" class="st5"/>
			<text x="3.43" y="413.04" class="st8">STA</text>		</g>
		<g id="shape66-174" transform="translate(99.5978,-212.83)">
			<title>Sheet.66</title>
			<path d="M0 416.59 L45.3 416.59" class="st4"/>
		</g>
		<g id="shape67-177" transform="translate(144.896,-212.83)">
			<title>Sheet.67</title>
			<path d="M0 399.66 L0 416.59" class="st4"/>
		</g>
		<g id="shape68-180" transform="translate(144.896,-229.765)">
			<title>Sheet.68</title>
			<path d="M-0 416.59 L169.88 416.59" class="st4"/>
		</g>
		<g id="shape69-183" transform="translate(314.776,-212.83)">
			<title>Sheet.69</title>
			<path d="M0 399.66 L0 416.59" class="st4"/>
		</g>
		<g id="shape70-186" transform="translate(314.776,-212.83)">
			<title>Sheet.70</title>
			<path d="M0 416.59 L339.76 416.59" class="st4"/>
		</g>
		<g id="shape71-189" transform="translate(65.3112,-210.275)">
			<title>Sheet.71</title>
			<desc>WR</desc>
			<path d="M26.88 402.37 L0 402.37 L0 416.59 L26.88 416.59 L26.88 402.37" class="st5"/>
			<text x="3.24" y="413.04" class="st8">WR</text>		</g>
		<g id="shape72-193" transform="translate(98.1658,-156.361)">
			<title>Sheet.72</title>
			<path d="M0 416.59 L216.61 416.59" class="st4"/>
		</g>
		<g id="shape73-196" transform="translate(314.776,-156.361)">
			<title>Sheet.73</title>
			<path d="M0 399.66 L0 416.59" class="st4"/>
		</g>
		<g id="shape74-199" transform="translate(314.776,-173.296)">
			<title>Sheet.74</title>
			<path d="M0 416.59 L11.31 416.59" class="st4"/>
		</g>
		<g id="shape75-202" transform="translate(326.091,-156.361)">
			<title>Sheet.75</title>
			<path d="M0 399.66 L0 416.59" class="st4"/>
		</g>
		<g id="shape76-205" transform="translate(63.375,-153.906)">
			<title>Sheet.76</title>
			<desc>TXF</desc>
			<path d="M30.67 402.37 L0 402.37 L0 416.59 L30.67 416.59 L30.67 402.37" class="st5"/>
			<text x="3.48" y="413.04" class="st8">TXF</text>		</g>
		<g id="shape77-209" transform="translate(99.5978,-201.54)">
			<title>Sheet.77</title>
			<path d="M0 416.59 L11.31 416.59" class="st4"/>
		</g>
		<g id="shape78-212" transform="translate(110.912,-184.606)">
			<title>Sheet.78</title>
			<path d="M0 399.66 L0 416.59" class="st4"/>
		</g>
		<g id="shape79-215" transform="translate(110.912,-184.606)">
			<title>Sheet.79</title>
			<path d="M0 416.59 L33.98 416.59" class="st4"/>
		</g>
		<g id="shape80-218" transform="translate(57.5664,-182.09)">
			<title>Sheet.80</title>
			<desc>TXDE</desc>
			<path d="M41.27 402.37 L0 402.37 L0 416.59 L41.27 416.59 L41.27 402.37" class="st5"/>
			<text x="4.17" y="413.04" class="st8">TXDE</text>		</g>
		<g id="shape81-222" transform="translate(330.81,-165.754)">
			<title>Sheet.81</title>
			<path d="M0 416 C11.82 418.38 21.7 413.67 23.6 404.81" class="st9"/>
		</g>
		<g id="shape82-225" transform="translate(326.091,-162.826)">
			<title>Sheet.82</title>
			<path d="M0 411.77 L7.1 410.39 C5.59 412.07 4.94 414.37 5.36 416.59 L0 411.77 Z" class="st10"/>
		</g>
		<g id="shape83-227" transform="translate(326.091,-156.361)">
			<title>Sheet.83</title>
			<path d="M0 416.59 L328.45 416.59" class="st4"/>
		</g>
		<g id="shape84-230" transform="translate(357.998,-167.998)">
			<title>Sheet.84</title>
			<desc>W1C</desc>
			<path d="M33.7 402.37 L0 402.37 L0 416.59 L33.7 416.59 L33.7 402.37" class="st5"/>
			<text x="3.68" y="413.04" class="st11">W1C</text>		</g>
		<g id="shape85-234" transform="translate(99.5978,-128.136)">
			<title>Sheet.85</title>
			<path d="M0 416.59 L215.18 416.59" class="st4"/>
		</g>
		<g id="shape86-237" transform="translate(314.776,-128.136)">
			<title>Sheet.86</title>
			<path d="M0 399.66 L0 416.59" class="st4"/>
		</g>
		<g id="shape87-240" transform="translate(314.776,-145.071)">
			<title>Sheet.87</title>
			<path d="M0 416.59 L113.25 416.59" class="st4"/>
		</g>
		<g id="shape88-243" transform="translate(428.023,-128.136)">
			<title>Sheet.88</title>
			<path d="M0 399.66 L0 416.59" class="st4"/>
		</g>
		<g id="shape89-246" transform="translate(433.69,-144.831)">
			<title>Sheet.89</title>
			<path d="M0 416.59 L164.21 416.59" class="st4"/>
		</g>
		<g id="shape90-249" transform="translate(68.2155,-125.721)">
			<title>Sheet.90</title>
			<desc>RD</desc>
			<path d="M23.09 402.37 L0 402.37 L0 416.59 L23.09 416.59 L23.09 402.37" class="st5"/>
			<text x="2.99" y="413.04" class="st8">RD</text>		</g>
		<g id="shape91-253" transform="translate(399.706,-99.8911)">
			<title>Sheet.91</title>
			<path d="M0 399.64 L0 416.59" class="st4"/>
		</g>
		<g id="shape92-256" transform="translate(399.706,-116.846)">
			<title>Sheet.92</title>
			<path d="M0 416.59 L11.33 416.59" class="st4"/>
		</g>
		<g id="shape93-259" transform="translate(411.041,-99.8911)">
			<title>Sheet.93</title>
			<path d="M0 399.64 L0 416.59" class="st4"/>
		</g>
		<g id="shape94-262" transform="translate(99.5978,-99.8911)">
			<title>Sheet.94</title>
			<path d="M0 416.59 L300.11 416.59" class="st4"/>
		</g>
		<g id="shape95-265" transform="translate(411.041,-99.8911)">
			<title>Sheet.95</title>
			<path d="M0 416.59 L158.55 416.59" class="st4"/>
		</g>
		<g id="shape96-268" transform="translate(47.2401,-97.5361)">
			<title>Sheet.96</title>
			<desc>RXDNE</desc>
			<path d="M51.87 402.37 L0 402.37 L0 416.59 L51.87 416.59 L51.87 402.37" class="st5"/>
			<text x="4.87" y="413.04" class="st8">RXDNE</text>		</g>
		<g id="shape97-272" transform="translate(415.76,-106.468)">
			<title>Sheet.97</title>
			<path d="M0 416 C11.8 418.37 21.7 413.68 23.58 404.81" class="st9"/>
		</g>
		<g id="shape98-275" transform="translate(411.041,-103.534)">
			<title>Sheet.98</title>
			<path d="M0 411.77 L7.1 410.39 C5.57 412.07 4.92 414.37 5.36 416.59 L0 411.77 Z" class="st10"/>
		</g>
		<g id="shape99-277" transform="translate(442.867,-108.746)">
			<title>Sheet.99</title>
			<desc>Read RXDATA</desc>
			<path d="M95.4 402.37 L0 402.37 L0 416.59 L95.4 416.59 L95.4 402.37" class="st5"/>
			<text x="7.7" y="413.04" class="st11">Read RXDATA</text>		</g>
		<g id="shape100-281" transform="translate(433.69,-127.896)">
			<title>Sheet.100</title>
			<path d="M0 399.66 L0 416.59" class="st4"/>
		</g>
		<g id="shape101-284" transform="translate(428.023,-128.136)">
			<title>Sheet.101</title>
			<path d="M0 416.59 L5.67 416.59" class="st4"/>
		</g>
		<g id="shape102-287" transform="translate(597.903,-128.136)">
			<title>Sheet.102</title>
			<path d="M0 399.66 L0 416.59" class="st4"/>
		</g>
		<g id="shape103-290" transform="translate(597.903,-128.136)">
			<title>Sheet.103</title>
			<path d="M0 416.59 L56.63 416.59" class="st4"/>
		</g>
		<g id="shape104-293" transform="translate(569.586,-99.8911)">
			<title>Sheet.104</title>
			<path d="M0 399.64 L0 416.59" class="st4"/>
		</g>
		<g id="shape105-296" transform="translate(569.586,-116.846)">
			<title>Sheet.105</title>
			<path d="M0 416.59 L11.33 416.59" class="st4"/>
		</g>
		<g id="shape106-299" transform="translate(580.921,-99.8911)">
			<title>Sheet.106</title>
			<path d="M0 399.64 L0 416.59" class="st4"/>
		</g>
		<g id="shape107-302" transform="translate(585.64,-106.468)">
			<title>Sheet.107</title>
			<path d="M0 416 C11.8 418.37 21.7 413.68 23.58 404.81" class="st9"/>
		</g>
		<g id="shape108-305" transform="translate(580.921,-103.534)">
			<title>Sheet.108</title>
			<path d="M0 411.77 L7.1 410.39 C5.57 412.07 4.92 414.37 5.36 416.59 L0 411.77 Z" class="st10"/>
		</g>
		<g id="shape109-307" transform="translate(611.315,-108.746)">
			<title>Sheet.109</title>
			<desc>Read RXDATA</desc>
			<path d="M95.4 402.37 L0 402.37 L0 416.59 L95.4 416.59 L95.4 402.37" class="st5"/>
			<text x="7.7" y="413.04" class="st11">Read RXDATA</text>		</g>
		<g id="shape110-311" transform="translate(580.921,-99.8911)">
			<title>Sheet.110</title>
			<path d="M0 416.59 L73.62 416.59" class="st4"/>
		</g>
		<g id="shape111-314" transform="translate(99.5978,-71.6663)">
			<title>Sheet.111</title>
			<path d="M0 416.59 L328.43 416.59" class="st4"/>
		</g>
		<g id="shape112-317" transform="translate(428.023,-71.6663)">
			<title>Sheet.112</title>
			<path d="M0 399.66 L0 416.59" class="st4"/>
		</g>
		<g id="shape113-320" transform="translate(428.023,-88.6012)">
			<title>Sheet.113</title>
			<path d="M0 416.59 L11.31 416.59" class="st4"/>
		</g>
		<g id="shape114-323" transform="translate(439.337,-71.6663)">
			<title>Sheet.114</title>
			<path d="M0 399.66 L0 416.59" class="st4"/>
		</g>
		<g id="shape115-326" transform="translate(64.6658,-69.3514)">
			<title>Sheet.115</title>
			<desc>RXF</desc>
			<path d="M31.42 402.37 L0 402.37 L0 416.59 L31.42 416.59 L31.42 402.37" class="st5"/>
			<text x="3.53" y="413.04" class="st8">RXF</text>		</g>
		<g id="shape116-330" transform="translate(444.057,-81.0595)">
			<title>Sheet.116</title>
			<path d="M0 416 C11.82 418.38 21.72 413.67 23.6 404.81" class="st9"/>
		</g>
		<g id="shape117-333" transform="translate(439.337,-78.112)">
			<title>Sheet.117</title>
			<path d="M0 411.75 L7.12 410.37 C5.59 412.05 4.94 414.35 5.39 416.59 L0 411.75 Z" class="st10"/>
		</g>
		<g id="shape118-335" transform="translate(439.337,-71.6663)">
			<title>Sheet.118</title>
			<path d="M0 416.59 L158.57 416.59" class="st4"/>
		</g>
		<g id="shape119-338" transform="translate(471.264,-83.4438)">
			<title>Sheet.119</title>
			<desc>W1C</desc>
			<path d="M33.7 402.37 L0 402.37 L0 416.59 L33.7 416.59 L33.7 402.37" class="st5"/>
			<text x="3.68" y="413.04" class="st11">W1C</text>		</g>
		<g id="shape120-342" transform="translate(597.903,-71.6663)">
			<title>Sheet.120</title>
			<path d="M0 399.66 L0 416.59" class="st4"/>
		</g>
		<g id="shape121-345" transform="translate(597.903,-88.1408)">
			<title>Sheet.121</title>
			<path d="M0 416.13 L16.98 416.59" class="st4"/>
		</g>
		<g id="shape122-348" transform="translate(614.885,-71.6663)">
			<title>Sheet.122</title>
			<path d="M0 399.66 L0 416.59" class="st4"/>
		</g>
		<g id="shape123-351" transform="translate(619.604,-78.237)">
			<title>Sheet.123</title>
			<path d="M0 416 C11.82 418.38 21.7 413.67 23.6 404.81" class="st9"/>
		</g>
		<g id="shape124-354" transform="translate(614.885,-75.2895)">
			<title>Sheet.124</title>
			<path d="M0 411.75 L7.1 410.37 C5.59 412.05 4.94 414.35 5.36 416.59 L0 411.75 Z" class="st10"/>
		</g>
		<g id="shape125-356" transform="translate(645.521,-80.5612)">
			<title>Sheet.125</title>
			<desc>W1C</desc>
			<path d="M33.7 402.37 L0 402.37 L0 416.59 L33.7 416.59 L33.7 402.37" class="st5"/>
			<text x="3.68" y="413.04" class="st11">W1C</text>		</g>
		<g id="shape126-360" transform="translate(614.885,-71.6663)">
			<title>Sheet.126</title>
			<path d="M0 416.59 L39.65 416.59" class="st4"/>
		</g>
		<g id="shape127-363" transform="translate(70.918,-274.585)">
			<title>Sheet.127</title>
			<path d="M0.36 415.87 L5.39 415.87 C5.59 415.87 5.75 416.03 5.75 416.23 C5.75 416.43 5.59 416.59 5.39 416.59 L0.36 416.59
						 C0.16 416.59 0 416.43 0 416.23 C0 416.03 0.16 415.87 0.36 415.87 ZM9 415.87 L14.02 415.87 C14.22 415.87
						 14.38 416.03 14.38 416.23 C14.38 416.43 14.22 416.59 14.02 416.59 L9 416.59 C8.79 416.59 8.63 416.43 8.63
						 416.23 C8.63 416.03 8.79 415.87 9 415.87 ZM17.61 415.87 L22.65 415.87 C22.85 415.87 23.01 416.03 23.01 416.23
						 C23.01 416.43 22.85 416.59 22.65 416.59 L17.61 416.59 C17.43 416.59 17.26 416.43 17.26 416.23 C17.26 416.03
						 17.43 415.87 17.61 415.87 ZM26.24 415.87 L31.28 415.87 C31.48 415.87 31.64 416.03 31.64 416.23 C31.64 416.43
						 31.48 416.59 31.28 416.59 L26.24 416.59 C26.04 416.59 25.9 416.43 25.9 416.23 C25.9 416.03 26.04 415.87
						 26.24 415.87 ZM34.87 415.87 L39.91 415.87 C40.12 415.87 40.28 416.03 40.28 416.23 C40.28 416.43 40.12 416.59
						 39.91 416.59 L34.87 416.59 C34.67 416.59 34.51 416.43 34.51 416.23 C34.51 416.03 34.67 415.87 34.87 415.87
						 ZM43.5 415.87 L48.55 415.87 C48.75 415.87 48.91 416.03 48.91 416.23 C48.91 416.43 48.75 416.59 48.55 416.59
						 L43.5 416.59 C43.3 416.59 43.14 416.43 43.14 416.23 C43.14 416.03 43.3 415.87 43.5 415.87 ZM52.14 415.87
						 L57.18 415.87 C57.36 415.87 57.52 416.03 57.52 416.23 C57.52 416.43 57.36 416.59 57.18 416.59 L52.14 416.59
						 C51.93 416.59 51.77 416.43 51.77 416.23 C51.77 416.03 51.93 415.87 52.14 415.87 ZM60.77 415.87 L65.79 415.87
						 C65.99 415.87 66.15 416.03 66.15 416.23 C66.15 416.43 65.99 416.59 65.79 416.59 L60.77 416.59 C60.57 416.59
						 60.4 416.43 60.4 416.23 C60.4 416.03 60.57 415.87 60.77 415.87 ZM69.4 415.87 L74.42 415.87 C74.62 415.87
						 74.79 416.03 74.79 416.23 C74.79 416.43 74.62 416.59 74.42 416.59 L69.4 416.59 C69.2 416.59 69.04 416.43
						 69.04 416.23 C69.04 416.03 69.2 415.87 69.4 415.87 ZM78.03 415.87 L83.05 415.87 C83.26 415.87 83.42 416.03
						 83.42 416.23 C83.42 416.43 83.26 416.59 83.05 416.59 L78.03 416.59 C77.83 416.59 77.67 416.43 77.67 416.23
						 C77.67 416.03 77.83 415.87 78.03 415.87 ZM86.66 415.87 L91.69 415.87 C91.89 415.87 92.05 416.03 92.05 416.23
						 C92.05 416.43 91.89 416.59 91.69 416.59 L86.66 416.59 C86.46 416.59 86.3 416.43 86.3 416.23 C86.3 416.03
						 86.46 415.87 86.66 415.87 ZM95.28 415.87 L100.32 415.87 C100.52 415.87 100.68 416.03 100.68 416.23 C100.68
						 416.43 100.52 416.59 100.32 416.59 L95.28 416.59 C95.09 416.59 94.93 416.43 94.93 416.23 C94.93 416.03 95.09
						 415.87 95.28 415.87 ZM103.91 415.87 L108.95 415.87 C109.15 415.87 109.31 416.03 109.31 416.23 C109.31 416.43
						 109.15 416.59 108.95 416.59 L103.91 416.59 C103.71 416.59 103.55 416.43 103.55 416.23 C103.55 416.03 103.71
						 415.87 103.91 415.87 ZM112.54 415.87 L117.58 415.87 C117.78 415.87 117.95 416.03 117.95 416.23 C117.95 416.43
						 117.78 416.59 117.58 416.59 L112.54 416.59 C112.34 416.59 112.18 416.43 112.18 416.23 C112.18 416.03 112.34
						 415.87 112.54 415.87 ZM121.17 415.87 L126.21 415.87 C126.42 415.87 126.58 416.03 126.58 416.23 C126.58 416.43
						 126.42 416.59 126.21 416.59 L121.17 416.59 C120.97 416.59 120.81 416.43 120.81 416.23 C120.81 416.03 120.97
						 415.87 121.17 415.87 ZM129.8 415.87 L134.85 415.87 C135.03 415.87 135.19 416.03 135.19 416.23 C135.19 416.43
						 135.03 416.59 134.85 416.59 L129.8 416.59 C129.6 416.59 129.44 416.43 129.44 416.23 C129.44 416.03 129.6
						 415.87 129.8 415.87 ZM138.44 415.87 L143.46 415.87 C143.66 415.87 143.82 416.03 143.82 416.23 C143.82 416.43
						 143.66 416.59 143.46 416.59 L138.44 416.59 C138.24 416.59 138.07 416.43 138.07 416.23 C138.07 416.03 138.24
						 415.87 138.44 415.87 ZM147.07 415.87 L152.09 415.87 C152.29 415.87 152.45 416.03 152.45 416.23 C152.45 416.43
						 152.29 416.59 152.09 416.59 L147.07 416.59 C146.87 416.59 146.71 416.43 146.71 416.23 C146.71 416.03 146.87
						 415.87 147.07 415.87 ZM155.7 415.87 L160.72 415.87 C160.93 415.87 161.09 416.03 161.09 416.23 C161.09 416.43
						 160.93 416.59 160.72 416.59 L155.7 416.59 C155.5 416.59 155.34 416.43 155.34 416.23 C155.34 416.03 155.5
						 415.87 155.7 415.87 ZM164.33 415.87 L169.36 415.87 C169.56 415.87 169.72 416.03 169.72 416.23 C169.72 416.43
						 169.56 416.59 169.36 416.59 L164.33 416.59 C164.13 416.59 163.97 416.43 163.97 416.23 C163.97 416.03 164.13
						 415.87 164.33 415.87 ZM172.95 415.87 L177.99 415.87 C178.19 415.87 178.35 416.03 178.35 416.23 C178.35 416.43
						 178.19 416.59 177.99 416.59 L172.95 416.59 C172.76 416.59 172.6 416.43 172.6 416.23 C172.6 416.03 172.76
						 415.87 172.95 415.87 ZM181.58 415.87 L186.62 415.87 C186.82 415.87 186.98 416.03 186.98 416.23 C186.98 416.43
						 186.82 416.59 186.62 416.59 L181.58 416.59 C181.38 416.59 181.21 416.43 181.21 416.23 C181.21 416.03 181.38
						 415.87 181.58 415.87 ZM190.21 415.87 L195.25 415.87 C195.45 415.87 195.62 416.03 195.62 416.23 C195.62 416.43
						 195.45 416.59 195.25 416.59 L190.21 416.59 C190.01 416.59 189.85 416.43 189.85 416.23 C189.85 416.03 190.01
						 415.87 190.21 415.87 ZM198.84 415.87 L203.88 415.87 C204.09 415.87 204.25 416.03 204.25 416.23 C204.25 416.43
						 204.09 416.59 203.88 416.59 L198.84 416.59 C198.64 416.59 198.48 416.43 198.48 416.23 C198.48 416.03 198.64
						 415.87 198.84 415.87 ZM207.47 415.87 L212.52 415.87 C212.7 415.87 212.86 416.03 212.86 416.23 C212.86 416.43
						 212.7 416.59 212.52 416.59 L207.47 416.59 C207.27 416.59 207.11 416.43 207.11 416.23 C207.11 416.03 207.27
						 415.87 207.47 415.87 ZM216.11 415.87 L221.13 415.87 C221.33 415.87 221.49 416.03 221.49 416.23 C221.49 416.43
						 221.33 416.59 221.13 416.59 L216.11 416.59 C215.9 416.59 215.74 416.43 215.74 416.23 C215.74 416.03 215.9
						 415.87 216.11 415.87 ZM224.74 415.87 L229.76 415.87 C229.96 415.87 230.12 416.03 230.12 416.23 C230.12 416.43
						 229.96 416.59 229.76 416.59 L224.74 416.59 C224.54 416.59 224.38 416.43 224.38 416.23 C224.38 416.03 224.54
						 415.87 224.74 415.87 ZM233.37 415.87 L238.39 415.87 C238.59 415.87 238.76 416.03 238.76 416.23 C238.76 416.43
						 238.59 416.59 238.39 416.59 L233.37 416.59 C233.17 416.59 233.01 416.43 233.01 416.23 C233.01 416.03 233.17
						 415.87 233.37 415.87 ZM242 415.87 L247.02 415.87 C247.23 415.87 247.39 416.03 247.39 416.23 C247.39 416.43
						 247.23 416.59 247.02 416.59 L242 416.59 C241.8 416.59 241.64 416.43 241.64 416.23 C241.64 416.03 241.8 415.87
						 242 415.87 ZM250.61 415.87 L255.66 415.87 C255.86 415.87 256.02 416.03 256.02 416.23 C256.02 416.43 255.86
						 416.59 255.66 416.59 L250.61 416.59 C250.43 416.59 250.27 416.43 250.27 416.23 C250.27 416.03 250.43 415.87
						 250.61 415.87 ZM259.25 415.87 L264.29 415.87 C264.49 415.87 264.65 416.03 264.65 416.23 C264.65 416.43 264.49
						 416.59 264.29 416.59 L259.25 416.59 C259.05 416.59 258.88 416.43 258.88 416.23 C258.88 416.03 259.05 415.87
						 259.25 415.87 ZM267.88 415.87 L272.92 415.87 C273.12 415.87 273.28 416.03 273.28 416.23 C273.28 416.43 273.12
						 416.59 272.92 416.59 L267.88 416.59 C267.68 416.59 267.52 416.43 267.52 416.23 C267.52 416.03 267.68 415.87
						 267.88 415.87 ZM276.51 415.87 L281.55 415.87 C281.76 415.87 281.9 416.03 281.9 416.23 C281.9 416.43 281.76
						 416.59 281.55 416.59 L276.51 416.59 C276.31 416.59 276.15 416.43 276.15 416.23 C276.15 416.03 276.31 415.87
						 276.51 415.87 ZM285.14 415.87 L290.19 415.87 C290.37 415.87 290.53 416.03 290.53 416.23 C290.53 416.43 290.37
						 416.59 290.19 416.59 L285.14 416.59 C284.94 416.59 284.78 416.43 284.78 416.23 C284.78 416.03 284.94 415.87
						 285.14 415.87 ZM293.78 415.87 L298.8 415.87 C299 415.87 299.16 416.03 299.16 416.23 C299.16 416.43 299 416.59
						 298.8 416.59 L293.78 416.59 C293.57 416.59 293.41 416.43 293.41 416.23 C293.41 416.03 293.57 415.87 293.78
						 415.87 ZM302.41 415.87 L307.43 415.87 C307.63 415.87 307.79 416.03 307.79 416.23 C307.79 416.43 307.63 416.59
						 307.43 416.59 L302.41 416.59 C302.21 416.59 302.04 416.43 302.04 416.23 C302.04 416.03 302.21 415.87 302.41
						 415.87 ZM311.04 415.87 L316.06 415.87 C316.26 415.87 316.42 416.03 316.42 416.23 C316.42 416.43 316.26 416.59
						 316.06 416.59 L311.04 416.59 C310.84 416.59 310.68 416.43 310.68 416.23 C310.68 416.03 310.84 415.87 311.04
						 415.87 ZM319.67 415.87 L324.69 415.87 C324.9 415.87 325.06 416.03 325.06 416.23 C325.06 416.43 324.9 416.59
						 324.69 416.59 L319.67 416.59 C319.47 416.59 319.31 416.43 319.31 416.23 C319.31 416.03 319.47 415.87 319.67
						 415.87 ZM328.28 415.87 L333.33 415.87 C333.53 415.87 333.69 416.03 333.69 416.23 C333.69 416.43 333.53 416.59
						 333.33 416.59 L328.28 416.59 C328.1 416.59 327.94 416.43 327.94 416.23 C327.94 416.03 328.1 415.87 328.28
						 415.87 ZM336.92 415.87 L341.96 415.87 C342.16 415.87 342.32 416.03 342.32 416.23 C342.32 416.43 342.16 416.59
						 341.96 416.59 L336.92 416.59 C336.71 416.59 336.55 416.43 336.55 416.23 C336.55 416.03 336.71 415.87 336.92
						 415.87 ZM345.55 415.87 L350.59 415.87 C350.79 415.87 350.95 416.03 350.95 416.23 C350.95 416.43 350.79 416.59
						 350.59 416.59 L345.55 416.59 C345.35 416.59 345.19 416.43 345.19 416.23 C345.19 416.03 345.35 415.87 345.55
						 415.87 ZM354.18 415.87 L359.22 415.87 C359.42 415.87 359.57 416.03 359.57 416.23 C359.57 416.43 359.42 416.59
						 359.22 416.59 L354.18 416.59 C353.98 416.59 353.82 416.43 353.82 416.23 C353.82 416.03 353.98 415.87 354.18
						 415.87 ZM362.81 415.87 L367.85 415.87 C368.04 415.87 368.2 416.03 368.2 416.23 C368.2 416.43 368.04 416.59
						 367.85 416.59 L362.81 416.59 C362.61 416.59 362.45 416.43 362.45 416.23 C362.45 416.03 362.61 415.87 362.81
						 415.87 ZM371.44 415.87 L376.47 415.87 C376.67 415.87 376.83 416.03 376.83 416.23 C376.83 416.43 376.67 416.59
						 376.47 416.59 L371.44 416.59 C371.24 416.59 371.08 416.43 371.08 416.23 C371.08 416.03 371.24 415.87 371.44
						 415.87 ZM380.08 415.87 L385.1 415.87 C385.3 415.87 385.46 416.03 385.46 416.23 C385.46 416.43 385.3 416.59
						 385.1 416.59 L380.08 416.59 C379.88 416.59 379.71 416.43 379.71 416.23 C379.71 416.03 379.88 415.87 380.08
						 415.87 ZM388.71 415.87 L393.73 415.87 C393.93 415.87 394.09 416.03 394.09 416.23 C394.09 416.43 393.93 416.59
						 393.73 416.59 L388.71 416.59 C388.51 416.59 388.35 416.43 388.35 416.23 C388.35 416.03 388.51 415.87 388.71
						 415.87 ZM397.32 415.87 L402.36 415.87 C402.56 415.87 402.73 416.03 402.73 416.23 C402.73 416.43 402.56 416.59
						 402.36 416.59 L397.32 416.59 C397.14 416.59 396.98 416.43 396.98 416.23 C396.98 416.03 397.14 415.87 397.32
						 415.87 ZM405.95 415.87 L411 415.87 C411.2 415.87 411.36 416.03 411.36 416.23 C411.36 416.43 411.2 416.59
						 411 416.59 L405.95 416.59 C405.77 416.59 405.61 416.43 405.61 416.23 C405.61 416.03 405.77 415.87 405.95
						 415.87 ZM414.59 415.87 L419.63 415.87 C419.83 415.87 419.99 416.03 419.99 416.23 C419.99 416.43 419.83 416.59
						 419.63 416.59 L414.59 416.59 C414.38 416.59 414.22 416.43 414.22 416.23 C414.22 416.03 414.38 415.87 414.59
						 415.87 ZM423.22 415.87 L428.26 415.87 C428.46 415.87 428.62 416.03 428.62 416.23 C428.62 416.43 428.46 416.59
						 428.26 416.59 L423.22 416.59 C423.02 416.59 422.85 416.43 422.85 416.23 C422.85 416.03 423.02 415.87 423.22
						 415.87 ZM431.85 415.87 L436.89 415.87 C437.09 415.87 437.23 416.03 437.23 416.23 C437.23 416.43 437.09 416.59
						 436.89 416.59 L431.85 416.59 C431.65 416.59 431.49 416.43 431.49 416.23 C431.49 416.03 431.65 415.87 431.85
						 415.87 ZM440.48 415.87 L445.52 415.87 C445.71 415.87 445.87 416.03 445.87 416.23 C445.87 416.43 445.71 416.59
						 445.52 416.59 L440.48 416.59 C440.28 416.59 440.12 416.43 440.12 416.23 C440.12 416.03 440.28 415.87 440.48
						 415.87 ZM449.11 415.87 L454.14 415.87 C454.34 415.87 454.5 416.03 454.5 416.23 C454.5 416.43 454.34 416.59
						 454.14 416.59 L449.11 416.59 C448.91 416.59 448.75 416.43 448.75 416.23 C448.75 416.03 448.91 415.87 449.11
						 415.87 ZM457.75 415.87 L462.77 415.87 C462.97 415.87 463.13 416.03 463.13 416.23 C463.13 416.43 462.97 416.59
						 462.77 416.59 L457.75 416.59 C457.54 416.59 457.38 416.43 457.38 416.23 C457.38 416.03 457.54 415.87 457.75
						 415.87 ZM466.38 415.87 L471.4 415.87 C471.6 415.87 471.76 416.03 471.76 416.23 C471.76 416.43 471.6 416.59
						 471.4 416.59 L466.38 416.59 C466.18 416.59 466.02 416.43 466.02 416.23 C466.02 416.03 466.18 415.87 466.38
						 415.87 ZM474.99 415.87 L480.03 415.87 C480.23 415.87 480.4 416.03 480.4 416.23 C480.4 416.43 480.23 416.59
						 480.03 416.59 L474.99 416.59 C474.81 416.59 474.65 416.43 474.65 416.23 C474.65 416.03 474.81 415.87 474.99
						 415.87 ZM483.62 415.87 L488.66 415.87 C488.87 415.87 489.03 416.03 489.03 416.23 C489.03 416.43 488.87 416.59
						 488.66 416.59 L483.62 416.59 C483.44 416.59 483.28 416.43 483.28 416.23 C483.28 416.03 483.44 415.87 483.62
						 415.87 ZM492.25 415.87 L497.3 415.87 C497.5 415.87 497.66 416.03 497.66 416.23 C497.66 416.43 497.5 416.59
						 497.3 416.59 L492.25 416.59 C492.05 416.59 491.89 416.43 491.89 416.23 C491.89 416.03 492.05 415.87 492.25
						 415.87 ZM500.89 415.87 L505.93 415.87 C506.13 415.87 506.29 416.03 506.29 416.23 C506.29 416.43 506.13 416.59
						 505.93 416.59 L500.89 416.59 C500.69 416.59 500.52 416.43 500.52 416.23 C500.52 416.03 500.69 415.87 500.89
						 415.87 ZM509.52 415.87 L514.56 415.87 C514.76 415.87 514.9 416.03 514.9 416.23 C514.9 416.43 514.76 416.59
						 514.56 416.59 L509.52 416.59 C509.32 416.59 509.16 416.43 509.16 416.23 C509.16 416.03 509.32 415.87 509.52
						 415.87 ZM518.15 415.87 L523.19 415.87 C523.37 415.87 523.54 416.03 523.54 416.23 C523.54 416.43 523.37 416.59
						 523.19 416.59 L518.15 416.59 C517.95 416.59 517.79 416.43 517.79 416.23 C517.79 416.03 517.95 415.87 518.15
						 415.87 ZM526.78 415.87 L531.81 415.87 C532.01 415.87 532.17 416.03 532.17 416.23 C532.17 416.43 532.01 416.59
						 531.81 416.59 L526.78 416.59 C526.58 416.59 526.42 416.43 526.42 416.23 C526.42 416.03 526.58 415.87 526.78
						 415.87 ZM535.42 415.87 L540.44 415.87 C540.64 415.87 540.8 416.03 540.8 416.23 C540.8 416.43 540.64 416.59
						 540.44 416.59 L535.42 416.59 C535.21 416.59 535.05 416.43 535.05 416.23 C535.05 416.03 535.21 415.87 535.42
						 415.87 ZM544.05 415.87 L549.07 415.87 C549.27 415.87 549.43 416.03 549.43 416.23 C549.43 416.43 549.27 416.59
						 549.07 416.59 L544.05 416.59 C543.85 416.59 543.68 416.43 543.68 416.23 C543.68 416.03 543.85 415.87 544.05
						 415.87 ZM552.68 415.87 L557.7 415.87 C557.9 415.87 558.06 416.03 558.06 416.23 C558.06 416.43 557.9 416.59
						 557.7 416.59 L552.68 416.59 C552.48 416.59 552.32 416.43 552.32 416.23 C552.32 416.03 552.48 415.87 552.68
						 415.87 ZM561.29 415.87 L566.33 415.87 C566.54 415.87 566.7 416.03 566.7 416.23 C566.7 416.43 566.54 416.59
						 566.33 416.59 L561.29 416.59 C561.11 416.59 560.95 416.43 560.95 416.23 C560.95 416.03 561.11 415.87 561.29
						 415.87 ZM569.92 415.87 L574.97 415.87 C575.17 415.87 575.33 416.03 575.33 416.23 C575.33 416.43 575.17 416.59
						 574.97 416.59 L569.92 416.59 C569.72 416.59 569.56 416.43 569.56 416.23 C569.56 416.03 569.72 415.87 569.92
						 415.87 ZM578.56 415.87 L583.6 415.87 C583.8 415.87 583.96 416.03 583.96 416.23 C583.96 416.43 583.8 416.59
						 583.6 416.59 L578.56 416.59 C578.35 416.59 578.19 416.43 578.19 416.23 C578.19 416.03 578.35 415.87 578.56
						 415.87 Z" class="st12"/>
		</g>
		<g id="shape128-365" transform="translate(336.437,-264.195)">
			<title>Sheet.128</title>
			<path d="M0 395.09 L0 416.59 L52.92 416.59 L52.92 395.09 L0 395.09 L0 395.09 Z" class="st7"/>
		</g>
		<g id="shape129-367" transform="translate(336.377,-262.897)">
			<title>Sheet.129</title>
			<desc>master</desc>
			<path d="M65.86 395.07 L0 395.07 L0 416.59 L65.86 416.59 L65.86 395.07" class="st5"/>
			<text x="6.54" y="411.21" class="st13">master</text>		</g>
		<g id="shape130-371" transform="translate(99.5978,-43.4415)">
			<title>Sheet.130</title>
			<path d="M0 416.59 L498.31 416.59" class="st4"/>
		</g>
		<g id="shape131-374" transform="translate(597.903,-43.4415)">
			<title>Sheet.131</title>
			<path d="M0 399.66 L0 416.59" class="st4"/>
		</g>
		<g id="shape132-377" transform="translate(597.903,-60.3764)">
			<title>Sheet.132</title>
			<path d="M0 416.59 L28.32 416.59" class="st4"/>
		</g>
		<g id="shape133-380" transform="translate(626.22,-43.4415)">
			<title>Sheet.133</title>
			<path d="M0 399.66 L0 416.59" class="st4"/>
		</g>
		<g id="shape134-383" transform="translate(626.22,-43.4415)">
			<title>Sheet.134</title>
			<path d="M-0 416.59 L28.32 416.59" class="st4"/>
		</g>
		<g id="shape135-386" transform="translate(64.9885,-40.8463)">
			<title>Sheet.135</title>
			<desc>STO</desc>
			<path d="M30.68 402.37 L0 402.37 L0 416.59 L30.68 416.59 L30.68 402.37" class="st5"/>
			<text x="3.48" y="413.04" class="st8">STO</text>		</g>
		<g id="shape136-390" transform="translate(138.871,-202.252)">
			<title>Sheet.136</title>
			<desc>Write TXDATA</desc>
			<path d="M98.41 402.37 L0 402.37 L0 416.59 L98.41 416.59 L98.41 402.37" class="st5"/>
			<text x="7.9" y="413.04" class="st11">Write TXDATA</text>		</g>
		<g id="shape137-394" transform="translate(115.632,-193.985)">
			<title>Sheet.137</title>
			<path d="M0 416 C11.82 418.37 21.7 413.68 23.6 404.81" class="st9"/>
		</g>
		<g id="shape138-397" transform="translate(110.912,-191.051)">
			<title>Sheet.138</title>
			<path d="M0 411.75 L7.1 410.37 C5.57 412.05 4.94 414.37 5.36 416.59 L0 411.75 Z" class="st10"/>
		</g>
		<g id="shape139-399" transform="translate(144.896,-184.606)">
			<title>Sheet.139</title>
			<path d="M0 399.66 L0 416.59" class="st4"/>
		</g>
		<g id="shape140-402" transform="translate(144.896,-201.54)">
			<title>Sheet.140</title>
			<path d="M0 416.59 L509.64 416.59" class="st4"/>
		</g>
		<g id="shape5-405" transform="translate(18.375,-18.375)">
			<title>Sheet.5</title>
			<rect x="0" y="36.75" width="693.921" height="379.843" class="st14"/>
		</g>
	</g>
</svg>
