<?xml version="1.0" encoding="UTF-8" standalone="no"?>
<!DOCTYPE svg PUBLIC "-//W3C//DTD SVG 1.1//EN" "http://www.w3.org/Graphics/SVG/1.1/DTD/svg11.dtd">
<!-- Generated by Microsoft Visio, SVG Export BTIMER模块结构图.svg Page-1 -->
<svg xmlns="http://www.w3.org/2000/svg" xmlns:xlink="http://www.w3.org/1999/xlink" xmlns:ev="http://www.w3.org/2001/xml-events"
		width="7.48295in" height="3.02347in" viewBox="0 0 538.772 217.69" xml:space="preserve" color-interpolation-filters="sRGB"
		class="st22">
	<style type="text/css">
	<![CDATA[
		.st1 {fill:url(#grad0-4);stroke:#404040;stroke-linecap:round;stroke-linejoin:round;stroke-width:0.5}
		.st2 {fill:#000000;font-family:Microsoft Sans Serif;font-size:0.833336em}
		.st3 {font-size:1em}
		.st4 {marker-end:url(#mrkr5-13);stroke:#404040;stroke-linecap:round;stroke-linejoin:round;stroke-width:0.5}
		.st5 {fill:#404040;fill-opacity:1;stroke:#404040;stroke-opacity:1;stroke-width:0.16556291390728}
		.st6 {fill:none;stroke:none;stroke-linecap:round;stroke-linejoin:round;stroke-width:0.5}
		.st7 {stroke:#404040;stroke-linecap:round;stroke-linejoin:round;stroke-width:0.5}
		.st8 {fill:#000000;font-family:微软雅黑;font-size:0.833336em}
		.st9 {fill:#000000;font-family:Microsoft Sans Serif;font-size:0.75em}
		.st10 {marker-end:url(#mrkr4-68);stroke:#404040;stroke-linecap:butt;stroke-width:3}
		.st11 {fill:#404040;fill-opacity:1;stroke:#404040;stroke-opacity:1;stroke-width:0.54347826086957}
		.st12 {fill:url(#grad0-4);stroke:#404040;stroke-linecap:round;stroke-linejoin:round;stroke-width:0.25}
		.st13 {stroke:#404040;stroke-linecap:round;stroke-linejoin:round;stroke-width:0.25}
		.st14 {fill:#000000;font-family:Microsoft Sans Serif;font-size:0.666664em}
		.st15 {visibility:visible}
		.st16 {fill:none;stroke:#cdcdcd;stroke-linecap:round;stroke-linejoin:round;stroke-opacity:0.5}
		.st17 {fill:none;stroke:#404040;stroke-linecap:round;stroke-linejoin:round;stroke-width:0.25}
		.st18 {fill:#cdcdcd;fill-opacity:0.5;stroke:#cdcdcd;stroke-linecap:round;stroke-linejoin:round;stroke-opacity:0.5}
		.st19 {fill:#000000;font-family:Calibri;font-size:0.666664em}
		.st20 {font-family:微软雅黑;font-size:1em}
		.st21 {stroke:#cdcdcd;stroke-linecap:round;stroke-linejoin:round;stroke-opacity:0.5;stroke-width:0.25}
		.st22 {fill:none;fill-rule:evenodd;font-size:12px;overflow:visible;stroke-linecap:square;stroke-miterlimit:3}
	]]>
	</style>

	<defs id="Patterns_And_Gradients">
		<linearGradient id="grad0-4" x1="0" y1="0" x2="1" y2="0" gradientTransform="rotate(270 0.5 0.5)">
			<stop offset="0" stop-color="#f0f0f0" stop-opacity="1"/>
			<stop offset="1" stop-color="#ffffff" stop-opacity="1"/>
		</linearGradient>
	</defs>
	<defs id="Markers">
		<g id="lend5">
			<path d="M 2 1 L 0 0 L 1.98117 -0.993387 C 1.67173 -0.364515 1.67301 0.372641 1.98465 1.00043 " style="stroke:none"/>
		</g>
		<marker id="mrkr5-13" class="st5" refX="-10.57" orient="auto" markerUnits="strokeWidth" overflow="visible">
			<use xlink:href="#lend5" transform="scale(-6.04,-6.04) "/>
		</marker>
		<g id="lend4">
			<path d="M 2 1 L 0 0 L 2 -1 L 2 1 " style="stroke:none"/>
		</g>
		<marker id="mrkr4-68" class="st11" refX="-3.68" orient="auto" markerUnits="strokeWidth" overflow="visible">
			<use xlink:href="#lend4" transform="scale(-1.84,-1.84) "/>
		</marker>
	</defs>
	<g>
		<title>页-1</title>
		<g id="shape41-1" transform="translate(177.932,-85.187)">
			<title>矩形</title>
			<desc>24-bit Down Counter</desc>
			<rect x="0" y="182.729" width="99.2126" height="34.9606" class="st1"/>
			<text x="22.96" y="197.21" class="st2">24-bit Down <tspan x="31.82" dy="1.2em" class="st3">Counter</tspan></text>		</g>
		<g id="shape64-7" transform="translate(328.168,-80.9351)">
			<title>动态连接线.64</title>
			<path d="M0 220.52 L0 229.03 L14.56 229.03" class="st4"/>
		</g>
		<g id="shape66-14" transform="translate(314.279,-77.355)">
			<title>Sheet.66</title>
			<desc>IE</desc>
			<rect x="0" y="207.023" width="28.3465" height="10.6667" class="st6"/>
			<text x="9.45" y="215.36" class="st2">IE</text>		</g>
		<g id="shape68-17" transform="translate(273.601,-46.2107)">
			<title>动态连接线.68</title>
			<path d="M0 210.6 L68.98 210.6" class="st4"/>
		</g>
		<g id="group73-23" transform="translate(175.853,-95.5807)">
			<title>Sheet.73</title>
			<g id="shape71-24" transform="translate(-2.3622,-16.5354)">
				<title>动态连接线.71</title>
				<path d="M4.72 222.41 L9.45 227.14" class="st7"/>
			</g>
			<g id="shape72-28" transform="translate(11.811,-11.811)">
				<title>动态连接线.72</title>
				<path d="M-4.72 222.41 L-9.45 227.14" class="st7"/>
			</g>
		</g>
		<g id="shape80-32" transform="translate(177.932,-170.226)">
			<title>矩形.80</title>
			<desc>LDVAL</desc>
			<rect x="0" y="196.43" width="99.2126" height="21.2598" class="st1"/>
			<text x="33.76" y="210.06" class="st2">LDVAL</text>		</g>
		<g id="shape56-36" transform="translate(380.042,-54.0059)">
			<title>动态连接线.56</title>
			<path d="M0 210.6 L61.51 210.6" class="st7"/>
		</g>
		<g id="shape58-40" transform="translate(268.641,-52.1267)">
			<title>Sheet.58</title>
			<desc>IF</desc>
			<rect x="0" y="207.023" width="28.3465" height="10.6667" class="st6"/>
			<text x="9.73" y="215.36" class="st2">IF</text>		</g>
		<g id="shape137-43" transform="translate(418.877,-124.895)">
			<title>Sheet.137</title>
			<desc>时基单元</desc>
			<rect x="0" y="179.917" width="101.645" height="37.7728" class="st6"/>
			<text x="4" y="195.84" class="st8">时基单元</text>		</g>
		<g id="shape219-46" transform="translate(453.589,-54.976)">
			<title>Sheet.219</title>
			<desc>IRQ</desc>
			<rect x="0" y="204.89" width="30.6142" height="12.8" class="st6"/>
			<text x="6.42" y="214.29" class="st2">IRQ</text>		</g>
		<g id="shape76-49" transform="translate(18.375,-96.2674)">
			<title>Sheet.76</title>
			<desc>PCLK1</desc>
			<rect x="0" y="204.89" width="42.2028" height="12.8" class="st6"/>
			<text x="5.26" y="214.29" class="st2">PCLK1</text>		</g>
		<g id="shape295-52" transform="translate(139.948,-101.345)">
			<title>动态连接线.295</title>
			<path d="M7.09 217.12 L7.09 204.08" class="st7"/>
		</g>
		<g id="shape296-56" transform="translate(131.526,-115.518)">
			<title>Sheet.296</title>
			<desc>HALT</desc>
			<rect x="0" y="210.536" width="31.017" height="7.15431" class="st6"/>
			<text x="4.01" y="216.81" class="st9">HALT</text>		</g>
		<g id="shape297-59" transform="translate(185.79,-145.389)">
			<title>Sheet.297</title>
			<desc>EN</desc>
			<rect x="0" y="210.536" width="26.7247" height="7.15431" class="st6"/>
			<text x="7.11" y="216.81" class="st9">EN</text>		</g>
		<g id="shape299-62" transform="translate(445.228,47.4636) rotate(90)">
			<title>Sheet.299</title>
			<path d="M0 217.69 L38.57 217.69" class="st10"/>
		</g>
		<g id="shape300-69" transform="translate(219.034,-139.045)">
			<title>Sheet.300</title>
			<path d="M8.5 217.69 L0 200.68 L17.01 200.68 L8.5 217.69 Z" class="st12"/>
		</g>
		<g id="shape301-72" transform="translate(206.297,-148.967)">
			<title>Sheet.301</title>
			<path d="M0 217.69 L15.57 217.69" class="st13"/>
		</g>
		<g id="shape302-76" transform="translate(139.523,-108.431)">
			<title>动态连接线.302</title>
			<path d="M1.56 223.36 L12.61 226.19" class="st7"/>
		</g>
		<g id="shape303-80" transform="translate(150.436,-95.5807)">
			<title>动态连接线.303</title>
			<path d="M0 210.6 L22.21 210.6" class="st4"/>
		</g>
		<g id="shape304-86" transform="translate(143.208,-95.8878)">
			<title>动态连接线.84</title>
			<path d="M-2.13 210.82 L-12.05 210.39" class="st7"/>
		</g>
		<g id="shape305-90" transform="translate(252.342,-42.6674)">
			<title>圆形.305</title>
			<desc>=0</desc>
			<path d="M0 207.06 A10.6299 10.6299 0 0 1 21.26 207.06 A10.6299 10.6299 0 0 1 0 207.06 Z" class="st1"/>
			<text x="6.07" y="209.46" class="st14">=0</text>		</g>
		<g id="group306-94" transform="translate(340.924,-40.1162)">
			<title>Sheet.306</title>
			<g id="shape307-95" transform="translate(8.79297E-14,-7.08661)">
				<title>动态连接线.51</title>
				<path d="M7.09 217.69 L7.09 189.34" class="st7"/>
			</g>
			<g id="shape308-99" transform="translate(24.0945,-1.13687E-13)">
				<title>动态连接线.52</title>
				<path d="M0 210.6 L-17.01 210.6" class="st7"/>
			</g>
			<g id="shape309-103" transform="translate(24.0945,-28.3465)">
				<title>动态连接线.103</title>
				<path d="M0 210.6 L-17.01 210.6" class="st7"/>
			</g>
			<g id="shape310-107" transform="translate(17.0079,-7.08661)">
				<title>动态连接线.104</title>
				<path d="M7.09 217.69 C26.93 217.69 26.93 189.34 7.09 189.34" class="st7"/>
			</g>
		</g>
		<g id="shape42-111" transform="translate(143.349,-94.6359)">
			<title>动态连接线.42</title>
			<path d="M7.09 211.55 L7.09 209.66" class="st7"/>
		</g>
		<g id="shape47-115" transform="translate(270.058,-85.187)">
			<title>动态连接线.47</title>
			<path d="M-7.09 217.69 L-7.09 233.66" class="st4"/>
		</g>
		<g id="shape49-121" transform="translate(441.348,-61.0925)">
			<title>Sheet.49</title>
			<path d="M0 217.69 L4.49 217.69" class="st4"/>
		</g>
		<g id="shape311-127" transform="translate(18.125,-19.565)">
			<title>Sheet.311</title>
			<g id="shadow311-128" transform="matrix(1,0,0,1,1.44,1.44)" class="st15">
				<rect x="0" y="37.69" width="480.689" height="180" class="st16"/>
			</g>
			<rect x="0" y="37.69" width="480.689" height="180" class="st17"/>
		</g>
		<g id="shape313-131" transform="translate(70.8108,-92.4818)">
			<title>Sheet.313</title>
			<desc>8位预分频</desc>
			<g id="shadow313-132" transform="matrix(1,0,0,1,1.44,1.44)" class="st15">
				<rect x="0" y="197.319" width="60.3496" height="20.3712" class="st18"/>
			</g>
			<rect x="0" y="197.319" width="60.3496" height="20.3712" class="st12"/>
			<text x="12.15" y="209.93" class="st19">8<tspan class="st20">位预分频</tspan></text>		</g>
		<g id="shape312-138" transform="translate(70.8108,332.193) rotate(180)">
			<title>Sheet.312</title>
			<g id="shadow312-139" transform="matrix(1,0,0,1,-1.44,-1.44)" class="st15">
				<path d="M0 217.69 L16.19 217.69" class="st21"/>
			</g>
			<path d="M0 217.69 L16.19 217.69" class="st13"/>
		</g>
	</g>
</svg>
