<?xml version="1.0" encoding="UTF-8" standalone="no"?>
<!DOCTYPE svg PUBLIC "-//W3C//DTD SVG 1.1//EN" "http://www.w3.org/Graphics/SVG/1.1/DTD/svg11.dtd">
<!-- Generated by Microsoft Visio, SVG Export 脉冲发送示意图.svg 页-1 -->
<svg xmlns="http://www.w3.org/2000/svg" xmlns:xlink="http://www.w3.org/1999/xlink" xmlns:ev="http://www.w3.org/2001/xml-events"
		width="6.01876in" height="4.30616in" viewBox="0 0 433.35 310.043" xml:space="preserve" color-interpolation-filters="sRGB"
		class="st10">
	<style type="text/css">
	<![CDATA[
		.st1 {marker-end:url(#mrkr5-8);stroke:#404040;stroke-linecap:round;stroke-linejoin:round;stroke-width:0.5}
		.st2 {fill:#404040;fill-opacity:1;stroke:#404040;stroke-opacity:1;stroke-width:0.16556291390728}
		.st3 {stroke:#404040;stroke-linecap:round;stroke-linejoin:round;stroke-width:0.5}
		.st4 {fill:none;stroke:none;stroke-linecap:round;stroke-linejoin:round;stroke-width:0.5}
		.st5 {fill:#000000;font-family:Microsoft Sans Serif;font-size:0.833336em}
		.st6 {font-size:1em}
		.st7 {fill:#000000;font-family:Calibri;font-size:0.833336em}
		.st8 {font-family:Microsoft Sans Serif;font-size:1em}
		.st9 {stroke:#404040;stroke-dasharray:3.5,2.5;stroke-linecap:round;stroke-linejoin:round;stroke-width:0.5}
		.st10 {fill:none;fill-rule:evenodd;font-size:12px;overflow:visible;stroke-linecap:square;stroke-miterlimit:3}
	]]>
	</style>

	<defs id="Patterns_And_Gradients">
		<linearGradient id="grad0-5" x1="0" y1="0" x2="1" y2="0" gradientTransform="rotate(270 0.5 0.5)">
			<stop offset="0" stop-color="#f0f0f0" stop-opacity="1"/>
			<stop offset="1" stop-color="#ffffff" stop-opacity="1"/>
		</linearGradient>
	</defs>
	<defs id="Markers">
		<g id="lend5">
			<path d="M 2 1 L 0 0 L 1.98117 -0.993387 C 1.67173 -0.364515 1.67301 0.372641 1.98465 1.00043 " style="stroke:none"/>
		</g>
		<marker id="mrkr5-8" class="st2" refX="-10.57" orient="auto" markerUnits="strokeWidth" overflow="visible">
			<use xlink:href="#lend5" transform="scale(-6.04,-6.04) "/>
		</marker>
	</defs>
	<g>
		<title>页-1</title>
		<g id="shape1-1" transform="translate(68.1,-121.715)">
			<title>动态连接线</title>
			<path d="M0 302.96 L323.65 302.96" class="st1"/>
		</g>
		<g id="shape2-9" transform="translate(75.1866,-128.801)">
			<title>动态连接线.2</title>
			<path d="M-7.09 310.04 L-7.09 164.15" class="st1"/>
		</g>
		<g id="shape3-15" transform="translate(68.1,-249.274)">
			<title>动态连接线.3</title>
			<path d="M0 302.96 L329.41 302.96" class="st3"/>
		</g>
		<g id="shape4-19" transform="translate(68.1,-220.927)">
			<title>动态连接线.4</title>
			<path d="M0 317.13 L328.7 317.13" class="st3"/>
		</g>
		<g id="shape5-23" transform="translate(29.7747,-249.274)">
			<title>Sheet.5</title>
			<desc>LDVAL</desc>
			<rect x="0" y="299.377" width="38.0816" height="10.6667" class="st4"/>
			<text x="5.98" y="301.71" class="st5">LDVA<tspan x="16.26" dy="1.2em" class="st6">L</tspan></text>		</g>
		<g id="shape6-27" transform="translate(22.6772,-208.507)">
			<title>Sheet.6</title>
			<desc>OCMAT0</desc>
			<rect x="0" y="299.377" width="47.9343" height="10.6667" class="st4"/>
			<text x="5.61" y="307.79" class="st7">OCMAT<tspan class="st8">0</tspan></text>		</g>
		<g id="shape13-31" transform="translate(195.415,-128.801)">
			<title>动态连接线.13</title>
			<path d="M0 310.04 L-127.32 182.48" class="st3"/>
		</g>
		<g id="shape15-35" transform="translate(68.1,-114.628)">
			<title>动态连接线.15</title>
			<path d="M0 317.13 L127.32 317.13" class="st3"/>
		</g>
		<g id="shape16-39" transform="translate(32.5543,-100.455)">
			<title>Sheet.16</title>
			<desc>TOIF</desc>
			<rect x="0" y="299.377" width="35.302" height="10.6667" class="st4"/>
			<text x="6.26" y="307.71" class="st5">TOIF</text>		</g>
		<g id="shape17-42" transform="translate(188.329,-105.179)">
			<title>动态连接线.17</title>
			<path d="M7.09 307.68 L7.09 298.23" class="st3"/>
		</g>
		<g id="shape18-46" transform="translate(197.733,-105.179)">
			<title>动态连接线.18</title>
			<path d="M7.09 307.68 L7.09 298.23" class="st3"/>
		</g>
		<g id="shape19-50" transform="translate(207.204,-109.904)">
			<title>动态连接线.19</title>
			<path d="M-2.38 302.96 L-11.79 302.96" class="st3"/>
		</g>
		<g id="shape20-54" transform="translate(204.82,-114.628)">
			<title>动态连接线.20</title>
			<path d="M0 317.13 L118.15 317.13" class="st3"/>
		</g>
		<g id="shape21-58" transform="translate(315.888,-105.179)">
			<title>动态连接线.21</title>
			<path d="M7.09 307.68 L7.09 298.23" class="st3"/>
		</g>
		<g id="shape22-62" transform="translate(325.292,-105.179)">
			<title>动态连接线.22</title>
			<path d="M7.09 307.68 L7.09 298.23" class="st3"/>
		</g>
		<g id="shape23-66" transform="translate(334.763,-109.904)">
			<title>动态连接线.23</title>
			<path d="M-2.38 302.96 L-11.79 302.96" class="st3"/>
		</g>
		<g id="shape24-70" transform="translate(332.379,-100.455)">
			<title>动态连接线.24</title>
			<path d="M0 302.96 L64.66 302.96" class="st3"/>
		</g>
		<g id="shape25-74" transform="translate(68.1,-93.3681)">
			<title>动态连接线.25</title>
			<path d="M0 317.13 L42.28 317.13" class="st3"/>
		</g>
		<g id="shape26-78" transform="translate(33.8406,-80.9482)">
			<title>Sheet.26</title>
			<desc>OC0IF</desc>
			<rect x="0" y="299.377" width="38.0816" height="10.6667" class="st4"/>
			<text x="4.32" y="307.71" class="st5">OC0IF</text>		</g>
		<g id="shape27-81" transform="translate(103.289,-83.9193)">
			<title>动态连接线.27</title>
			<path d="M7.09 307.68 L7.09 298.23" class="st3"/>
		</g>
		<g id="shape28-85" transform="translate(112.694,-83.9193)">
			<title>动态连接线.28</title>
			<path d="M7.09 307.68 L7.09 298.23" class="st3"/>
		</g>
		<g id="shape29-89" transform="translate(122.165,-88.6437)">
			<title>动态连接线.29</title>
			<path d="M-2.38 302.96 L-11.79 302.96" class="st3"/>
		</g>
		<g id="shape32-93" transform="translate(230.848,-83.9193)">
			<title>动态连接线.32</title>
			<path d="M7.09 307.68 L7.09 298.23" class="st3"/>
		</g>
		<g id="shape33-97" transform="translate(240.253,-83.9193)">
			<title>动态连接线.33</title>
			<path d="M7.09 307.68 L7.09 298.23" class="st3"/>
		</g>
		<g id="shape34-101" transform="translate(249.724,-88.6437)">
			<title>动态连接线.34</title>
			<path d="M-2.38 302.96 L-11.79 302.96" class="st3"/>
		</g>
		<g id="shape35-105" transform="translate(375.132,-79.1949)">
			<title>动态连接线.35</title>
			<path d="M0 302.96 L21.67 302.96" class="st3"/>
		</g>
		<g id="shape7-109" transform="translate(202.715,-128.801)">
			<title>动态连接线.7</title>
			<path d="M-6.87 310.04 L-7.3 182.48" class="st3"/>
		</g>
		<g id="shape8-113" transform="translate(322.974,-128.801)">
			<title>动态连接线.8</title>
			<path d="M0 310.04 L-127.56 182.48" class="st3"/>
		</g>
		<g id="shape9-117" transform="translate(330.061,-128.801)">
			<title>动态连接线.9</title>
			<path d="M-7.09 310.04 L-7.09 182.48" class="st3"/>
		</g>
		<g id="shape10-121" transform="translate(396.675,-182.659)">
			<title>动态连接线.10</title>
			<path d="M0 310.04 L-73.7 236.34" class="st3"/>
		</g>
		<g id="shape39-125" transform="translate(117.493,-128.801)">
			<title>动态连接线.39</title>
			<path d="M-7.06 310.04 L-7.12 215.56" class="st9"/>
		</g>
		<g id="shape67-129" transform="translate(230.848,-128.801)">
			<title>动态连接线.67</title>
			<path d="M7.09 310.04 L7.09 215.56" class="st9"/>
		</g>
		<g id="shape69-133" transform="translate(372.581,-128.801)">
			<title>动态连接线.69</title>
			<path d="M-7.09 310.04 L-7.09 215.56" class="st9"/>
		</g>
		<g id="shape31-137" transform="translate(119.781,-79.1949)">
			<title>动态连接线.31</title>
			<path d="M0 302.96 L118.15 302.96" class="st3"/>
		</g>
		<g id="shape70-141" transform="translate(247.34,-93.3681)">
			<title>动态连接线.70</title>
			<path d="M0 317.13 L118.15 317.13" class="st3"/>
		</g>
		<g id="shape266-145" transform="translate(358.641,-83.9193)">
			<title>动态连接线.266</title>
			<path d="M7.09 307.68 L7.09 298.23" class="st3"/>
		</g>
		<g id="shape267-149" transform="translate(368.045,-83.9193)">
			<title>动态连接线.267</title>
			<path d="M7.09 307.68 L7.09 298.23" class="st3"/>
		</g>
		<g id="shape268-153" transform="translate(377.516,-88.6437)">
			<title>动态连接线.268</title>
			<path d="M-2.38 302.96 L-11.79 302.96" class="st3"/>
		</g>
		<g id="shape289-157" transform="translate(18.25,-291.793) rotate(1.6013E-06)">
			<title>Sheet.289</title>
			<path d="M0 310.04 L396.85 310.04" class="st3"/>
		</g>
		<g id="shape290-161" transform="translate(725.144,18.25) rotate(90)">
			<title>Sheet.290</title>
			<path d="M0 310.04 L273.54 310.04" class="st3"/>
		</g>
		<g id="shape291-165" transform="translate(415.1,601.837) rotate(180)">
			<title>Sheet.291</title>
			<path d="M0 310.04 L396.85 310.04" class="st3"/>
		</g>
		<g id="shape292-169" transform="translate(-291.793,291.793) rotate(-90)">
			<title>Sheet.292</title>
			<path d="M0 310.04 L273.54 310.04" class="st3"/>
		</g>
		<g id="group311-173" transform="translate(31.912,-31.998)">
			<title>Sheet.311</title>
			<g id="shape36-174" transform="translate(36.1595,-14.1732)">
				<title>动态连接线.36</title>
				<path d="M0 317.08 L42.28 317.18" class="st3"/>
			</g>
			<g id="shape37-178" transform="translate(3.59712E-14,-1.56955)">
				<title>Sheet.37</title>
				<desc>TxO</desc>
				<rect x="0" y="299.377" width="36.4828" height="10.6667" class="st4"/>
				<text x="8.8" y="307.71" class="st5">TxO </text>			</g>
			<g id="shape38-181" transform="translate(326.467,-4.77165)">
				<title>动态连接线.38</title>
				<path d="M7.09 307.68 L7.09 298.23" class="st3"/>
			</g>
			<g id="shape40-185" transform="translate(365.33,-9.49606)">
				<title>动态连接线.40</title>
				<path d="M0 302.96 L-31.78 302.96" class="st3"/>
			</g>
			<g id="shape269-189" transform="translate(78.4355,-9.40157)">
				<title>动态连接线.269</title>
				<path d="M0 302.96 L85.04 302.96" class="st3"/>
			</g>
			<g id="shape270-193" transform="translate(163.475,-0.0472441)">
				<title>动态连接线.270</title>
				<path d="M0 302.96 L42.52 302.96" class="st3"/>
			</g>
			<g id="shape271-197" transform="translate(205.995,-9.49606)">
				<title>动态连接线.271</title>
				<path d="M0 302.96 L85.04 302.96" class="st3"/>
			</g>
			<g id="shape272-201" transform="translate(291.034,-0.0472441)">
				<title>动态连接线.272</title>
				<path d="M0 302.96 L42.52 302.96" class="st3"/>
			</g>
			<g id="shape273-205" transform="translate(283.947,-4.77165)">
				<title>动态连接线.273</title>
				<path d="M7.09 307.68 L7.09 298.23" class="st3"/>
			</g>
			<g id="shape274-209" transform="translate(198.908,-4.77165)">
				<title>动态连接线.274</title>
				<path d="M7.09 307.68 L7.09 298.23" class="st3"/>
			</g>
			<g id="shape275-213" transform="translate(156.388,-4.72441)">
				<title>动态连接线.275</title>
				<path d="M7.09 307.63 L7.09 298.28" class="st3"/>
			</g>
			<g id="shape276-217" transform="translate(71.3489,-4.67717)">
				<title>动态连接线.276</title>
				<path d="M7.09 307.68 L7.09 298.23" class="st3"/>
			</g>
		</g>
		<g id="shape323-221" transform="translate(68.3067,-55.5728)">
			<title>动态连接线.323</title>
			<path d="M0 302.96 L127.32 302.96" class="st3"/>
		</g>
		<g id="shape324-225" transform="translate(33.2525,-55.7723)">
			<title>Sheet.324</title>
			<desc>OC1IF</desc>
			<rect x="0" y="299.377" width="38.0816" height="10.6667" class="st4"/>
			<text x="4.32" y="307.71" class="st5">OC1IF</text>		</g>
		<g id="shape325-228" transform="translate(188.535,-60.2973)">
			<title>动态连接线.325</title>
			<path d="M7.09 307.68 L7.09 298.23" class="st3"/>
		</g>
		<g id="shape326-232" transform="translate(197.94,-60.2973)">
			<title>动态连接线.326</title>
			<path d="M7.09 307.68 L7.09 298.23" class="st3"/>
		</g>
		<g id="shape327-236" transform="translate(207.411,-65.0217)">
			<title>动态连接线.327</title>
			<path d="M-2.38 302.96 L-11.79 302.96" class="st3"/>
		</g>
		<g id="shape328-240" transform="translate(205.027,-55.5728)">
			<title>动态连接线.328</title>
			<path d="M0 302.96 L118.15 302.96" class="st3"/>
		</g>
		<g id="shape329-244" transform="translate(316.094,-60.2973)">
			<title>动态连接线.329</title>
			<path d="M7.09 307.68 L7.09 298.23" class="st3"/>
		</g>
		<g id="shape330-248" transform="translate(325.499,-60.2973)">
			<title>动态连接线.330</title>
			<path d="M7.09 307.68 L7.09 298.23" class="st3"/>
		</g>
		<g id="shape331-252" transform="translate(334.97,-65.0217)">
			<title>动态连接线.331</title>
			<path d="M-2.38 302.96 L-11.79 302.96" class="st3"/>
		</g>
		<g id="shape332-256" transform="translate(332.586,-55.5728)">
			<title>动态连接线.332</title>
			<path d="M0 302.96 L64.66 302.96" class="st3"/>
		</g>
	</g>
</svg>
