<?xml version="1.0" encoding="UTF-8" standalone="no"?>
<!DOCTYPE svg PUBLIC "-//W3C//DTD SVG 1.1//EN" "http://www.w3.org/Graphics/SVG/1.1/DTD/svg11.dtd">
<!-- 由 Microsoft Visio, SVG Export 生成 PWM外部信号配置.svg 页-1 -->
<svg xmlns="http://www.w3.org/2000/svg" xmlns:xlink="http://www.w3.org/1999/xlink" xmlns:ev="http://www.w3.org/2001/xml-events"
		xmlns:v="http://schemas.microsoft.com/visio/2003/SVGExtensions/" width="9.71282in" height="7.64096in"
		viewBox="0 0 699.323 550.149" xml:space="preserve" color-interpolation-filters="sRGB" class="st17">
	<v:documentProperties v:langID="2052" v:viewMarkup="false"/>

	<style type="text/css">
	<![CDATA[
		.st1 {fill:#92d050;stroke:#000000;stroke-width:1}
		.st2 {fill:#feffff;font-family:Calibri;font-size:0.833336em}
		.st3 {fill:#feffff;font-family:Calibri;font-size:0.833336em;font-weight:bold}
		.st4 {fill:none;stroke:none;stroke-width:0.25}
		.st5 {fill:#000000;font-family:Calibri;font-size:1.00001em;font-weight:bold}
		.st6 {fill:#3c63ac;stroke:#30518f;stroke-width:0.75}
		.st7 {fill:#ffffff;stroke:#000000;stroke-width:1}
		.st8 {stroke:#4672c4;stroke-linecap:round;stroke-linejoin:round;stroke-width:1}
		.st9 {fill:#4672c4;stroke:#c7c8c8;stroke-width:0.25}
		.st10 {font-family:黑体;font-size:1em}
		.st11 {font-size:1em}
		.st12 {fill:#feffff;stroke:#000000;stroke-width:1}
		.st13 {fill:#000000;font-family:Calibri;font-size:0.833336em}
		.st14 {stroke:#000000;stroke-linecap:round;stroke-linejoin:round;stroke-width:1.5}
		.st15 {stroke:#000000;stroke-linecap:round;stroke-linejoin:round;stroke-width:0.75}
		.st16 {fill:#000000;stroke:#c7c8c8;stroke-width:0.25}
		.st17 {fill:none;fill-rule:evenodd;font-size:12px;overflow:visible;stroke-linecap:square;stroke-miterlimit:3}
	]]>
	</style>

	<g v:mID="0" v:index="1" v:groupContext="foregroundPage">
		<title>页-1</title>
		<v:pageProperties v:drawingScale="0.0393701" v:pageScale="0.0393701" v:drawingUnits="24" v:shadowOffsetX="8.50394"
				v:shadowOffsetY="-8.50394"/>
		<g id="shape1-1" v:mID="1" v:groupContext="shape" transform="translate(258.953,-194.393)">
			<title>正方形</title>
			<desc>6</desc>
			<v:userDefs>
				<v:ud v:nameU="visVersion" v:val="VT0(15):26"/>
			</v:userDefs>
			<v:textBlock v:margins="rect(4,4,4,4)" v:tabSpace="42.5197"/>
			<v:textRect cx="14.1732" cy="535.976" width="28.35" height="28.3465"/>
			<rect x="0" y="521.802" width="28.3465" height="28.3465" class="st1"/>
			<text x="11.64" y="538.98" class="st2" v:langID="2052"><v:paragraph v:horizAlign="1"/><v:tabList/>6</text>		</g>
		<g id="shape3-4" v:mID="3" v:groupContext="shape" transform="translate(287.299,-194.393)">
			<title>正方形.3</title>
			<desc>5</desc>
			<v:userDefs>
				<v:ud v:nameU="visVersion" v:val="VT0(15):26"/>
			</v:userDefs>
			<v:textBlock v:margins="rect(4,4,4,4)" v:tabSpace="42.5197"/>
			<v:textRect cx="14.1732" cy="535.976" width="28.35" height="28.3465"/>
			<rect x="0" y="521.802" width="28.3465" height="28.3465" class="st1"/>
			<text x="11.64" y="538.98" class="st2" v:langID="2052"><v:paragraph v:horizAlign="1"/><v:tabList/>5</text>		</g>
		<g id="shape4-7" v:mID="4" v:groupContext="shape" transform="translate(315.646,-194.393)">
			<title>正方形.4</title>
			<desc>4</desc>
			<v:userDefs>
				<v:ud v:nameU="visVersion" v:val="VT0(15):26"/>
			</v:userDefs>
			<v:textBlock v:margins="rect(4,4,4,4)" v:tabSpace="42.5197"/>
			<v:textRect cx="14.1732" cy="535.976" width="28.35" height="28.3465"/>
			<rect x="0" y="521.802" width="28.3465" height="28.3465" class="st1"/>
			<text x="11.64" y="538.98" class="st3" v:langID="2052"><v:paragraph v:horizAlign="1"/><v:tabList/>4</text>		</g>
		<g id="shape5-10" v:mID="5" v:groupContext="shape" transform="translate(343.992,-194.393)">
			<title>正方形.5</title>
			<desc>3</desc>
			<v:userDefs>
				<v:ud v:nameU="visVersion" v:val="VT0(15):26"/>
			</v:userDefs>
			<v:textBlock v:margins="rect(4,4,4,4)" v:tabSpace="42.5197"/>
			<v:textRect cx="14.1732" cy="535.976" width="28.35" height="28.3465"/>
			<rect x="0" y="521.802" width="28.3465" height="28.3465" class="st1"/>
			<text x="11.64" y="538.98" class="st2" v:langID="2052"><v:paragraph v:horizAlign="1"/><v:tabList/>3</text>		</g>
		<g id="shape6-13" v:mID="6" v:groupContext="shape" transform="translate(372.339,-194.393)">
			<title>正方形.6</title>
			<desc>2</desc>
			<v:userDefs>
				<v:ud v:nameU="visVersion" v:val="VT0(15):26"/>
			</v:userDefs>
			<v:textBlock v:margins="rect(4,4,4,4)" v:tabSpace="42.5197"/>
			<v:textRect cx="14.1732" cy="535.976" width="28.35" height="28.3465"/>
			<rect x="0" y="521.802" width="28.3465" height="28.3465" class="st1"/>
			<text x="11.64" y="538.98" class="st2" v:langID="2052"><v:paragraph v:horizAlign="1"/><v:tabList/>2</text>		</g>
		<g id="shape7-16" v:mID="7" v:groupContext="shape" transform="translate(400.685,-194.393)">
			<title>正方形.7</title>
			<desc>1</desc>
			<v:userDefs>
				<v:ud v:nameU="visVersion" v:val="VT0(15):26"/>
			</v:userDefs>
			<v:textBlock v:margins="rect(4,4,4,4)" v:tabSpace="42.5197"/>
			<v:textRect cx="14.1732" cy="535.976" width="28.35" height="28.3465"/>
			<rect x="0" y="521.802" width="28.3465" height="28.3465" class="st1"/>
			<text x="11.64" y="538.98" class="st3" v:langID="2052"><v:paragraph v:horizAlign="1"/><v:tabList/>1</text>		</g>
		<g id="shape8-19" v:mID="8" v:groupContext="shape" transform="translate(429.032,-194.393)">
			<title>正方形.8</title>
			<desc>0</desc>
			<v:userDefs>
				<v:ud v:nameU="visVersion" v:val="VT0(15):26"/>
			</v:userDefs>
			<v:textBlock v:margins="rect(4,4,4,4)" v:tabSpace="42.5197"/>
			<v:textRect cx="14.1732" cy="535.976" width="28.35" height="28.3465"/>
			<rect x="0" y="521.802" width="28.3465" height="28.3465" class="st1"/>
			<text x="11.64" y="538.98" class="st3" v:langID="2052"><v:paragraph v:horizAlign="1"/><v:tabList/>0</text>		</g>
		<g id="shape9-22" v:mID="9" v:groupContext="shape" transform="translate(216.433,-194.393)">
			<title>工作表.9</title>
			<desc>Event</desc>
			<v:textBlock v:margins="rect(4,4,4,4)" v:tabSpace="42.5197"/>
			<v:textRect cx="21.2598" cy="535.976" width="42.52" height="28.3465"/>
			<rect x="0" y="521.802" width="42.5197" height="28.3465" class="st4"/>
			<text x="7.17" y="539.58" class="st5" v:langID="2052"><v:paragraph v:horizAlign="1"/><v:tabList/>Event</text>		</g>
		<g id="shape11-25" v:mID="11" v:groupContext="shape" transform="translate(386.512,-354.55)">
			<title>正方形.11</title>
			<desc>6</desc>
			<v:userDefs>
				<v:ud v:nameU="visVersion" v:val="VT0(15):26"/>
			</v:userDefs>
			<v:textBlock v:margins="rect(4,4,4,4)" v:tabSpace="42.5197"/>
			<v:textRect cx="14.1732" cy="535.976" width="28.35" height="28.3465"/>
			<rect x="0" y="521.802" width="28.3465" height="28.3465" class="st1"/>
			<text x="11.64" y="538.98" class="st2" v:langID="2052"><v:paragraph v:horizAlign="1"/><v:tabList/>6</text>		</g>
		<g id="shape12-28" v:mID="12" v:groupContext="shape" transform="translate(414.858,-354.55)">
			<title>正方形.12</title>
			<desc>5</desc>
			<v:userDefs>
				<v:ud v:nameU="visVersion" v:val="VT0(15):26"/>
			</v:userDefs>
			<v:textBlock v:margins="rect(4,4,4,4)" v:tabSpace="42.5197"/>
			<v:textRect cx="14.1732" cy="535.976" width="28.35" height="28.3465"/>
			<rect x="0" y="521.802" width="28.3465" height="28.3465" class="st1"/>
			<text x="11.64" y="538.98" class="st2" v:langID="2052"><v:paragraph v:horizAlign="1"/><v:tabList/>5</text>		</g>
		<g id="shape13-31" v:mID="13" v:groupContext="shape" transform="translate(443.205,-354.55)">
			<title>正方形.13</title>
			<desc>4</desc>
			<v:userDefs>
				<v:ud v:nameU="visVersion" v:val="VT0(15):26"/>
			</v:userDefs>
			<v:textBlock v:margins="rect(4,4,4,4)" v:tabSpace="42.5197"/>
			<v:textRect cx="14.1732" cy="535.976" width="28.35" height="28.3465"/>
			<rect x="0" y="521.802" width="28.3465" height="28.3465" class="st1"/>
			<text x="11.64" y="538.98" class="st3" v:langID="2052"><v:paragraph v:horizAlign="1"/><v:tabList/>4</text>		</g>
		<g id="shape14-34" v:mID="14" v:groupContext="shape" transform="translate(471.551,-354.55)">
			<title>正方形.14</title>
			<desc>3</desc>
			<v:userDefs>
				<v:ud v:nameU="visVersion" v:val="VT0(15):26"/>
			</v:userDefs>
			<v:textBlock v:margins="rect(4,4,4,4)" v:tabSpace="42.5197"/>
			<v:textRect cx="14.1732" cy="535.976" width="28.35" height="28.3465"/>
			<rect x="0" y="521.802" width="28.3465" height="28.3465" class="st1"/>
			<text x="11.64" y="538.98" class="st2" v:langID="2052"><v:paragraph v:horizAlign="1"/><v:tabList/>3</text>		</g>
		<g id="shape15-37" v:mID="15" v:groupContext="shape" transform="translate(499.898,-354.55)">
			<title>正方形.15</title>
			<desc>2</desc>
			<v:userDefs>
				<v:ud v:nameU="visVersion" v:val="VT0(15):26"/>
			</v:userDefs>
			<v:textBlock v:margins="rect(4,4,4,4)" v:tabSpace="42.5197"/>
			<v:textRect cx="14.1732" cy="535.976" width="28.35" height="28.3465"/>
			<rect x="0" y="521.802" width="28.3465" height="28.3465" class="st1"/>
			<text x="11.64" y="538.98" class="st2" v:langID="2052"><v:paragraph v:horizAlign="1"/><v:tabList/>2</text>		</g>
		<g id="shape16-40" v:mID="16" v:groupContext="shape" transform="translate(528.244,-354.55)">
			<title>正方形.16</title>
			<desc>1</desc>
			<v:userDefs>
				<v:ud v:nameU="visVersion" v:val="VT0(15):26"/>
			</v:userDefs>
			<v:textBlock v:margins="rect(4,4,4,4)" v:tabSpace="42.5197"/>
			<v:textRect cx="14.1732" cy="535.976" width="28.35" height="28.3465"/>
			<rect x="0" y="521.802" width="28.3465" height="28.3465" class="st1"/>
			<text x="11.64" y="538.98" class="st3" v:langID="2052"><v:paragraph v:horizAlign="1"/><v:tabList/>1</text>		</g>
		<g id="shape17-43" v:mID="17" v:groupContext="shape" transform="translate(556.591,-354.55)">
			<title>正方形.17</title>
			<desc>0</desc>
			<v:userDefs>
				<v:ud v:nameU="visVersion" v:val="VT0(15):26"/>
			</v:userDefs>
			<v:textBlock v:margins="rect(4,4,4,4)" v:tabSpace="42.5197"/>
			<v:textRect cx="14.1732" cy="535.976" width="28.35" height="28.3465"/>
			<rect x="0" y="521.802" width="28.3465" height="28.3465" class="st1"/>
			<text x="11.64" y="538.98" class="st3" v:langID="2052"><v:paragraph v:horizAlign="1"/><v:tabList/>0</text>		</g>
		<g id="shape18-46" v:mID="18" v:groupContext="shape" transform="translate(280.213,-354.55)">
			<title>工作表.18</title>
			<desc>PWM Trigger</desc>
			<v:textBlock v:margins="rect(4,4,4,4)" v:tabSpace="42.5197"/>
			<v:textRect cx="38.9764" cy="535.976" width="77.96" height="28.3465"/>
			<rect x="0" y="521.802" width="77.9528" height="28.3465" class="st4"/>
			<text x="6.32" y="539.58" class="st5" v:langID="2052"><v:paragraph v:horizAlign="1"/><v:tabList/>PWM Trigger</text>		</g>
		<g id="shape19-49" v:mID="19" v:groupContext="shape" transform="translate(358.165,-354.55)">
			<title>正方形.19</title>
			<desc>7</desc>
			<v:userDefs>
				<v:ud v:nameU="visVersion" v:val="VT0(15):26"/>
			</v:userDefs>
			<v:textBlock v:margins="rect(4,4,4,4)" v:tabSpace="42.5197"/>
			<v:textRect cx="14.1732" cy="535.976" width="28.35" height="28.3465"/>
			<rect x="0" y="521.802" width="28.3465" height="28.3465" class="st1"/>
			<text x="11.64" y="538.98" class="st2" v:langID="2052"><v:paragraph v:horizAlign="1"/><v:tabList/>7</text>		</g>
		<g id="shape20-52" v:mID="20" v:groupContext="shape" transform="translate(47.8666,-55.1759) rotate(-45.9392)">
			<title>普通箭头</title>
			<v:userDefs>
				<v:ud v:nameU="visVersion" v:val="VT0(15):26"/>
				<v:ud v:nameU="ArrowType" v:prompt="" v:val="VT0(2):26"/>
			</v:userDefs>
			<path d="M0 550.15 L9.54 547.33 L9.54 548.74 L183.43 548.74 L183.43 550.15 L183.43 551.56 L9.54 551.56 L9.54 552.96 L0
						 550.15 Z" class="st6"/>
		</g>
		<g id="shape21-54" v:mID="21" v:groupContext="shape" transform="translate(19.5201,-55.1759) rotate(-45.9392)">
			<title>普通箭头.21</title>
			<v:userDefs>
				<v:ud v:nameU="visVersion" v:val="VT0(15):26"/>
				<v:ud v:nameU="ArrowType" v:prompt="" v:val="VT0(2):26"/>
			</v:userDefs>
			<path d="M0 550.15 L9.54 547.33 L9.54 548.74 L183.43 548.74 L183.43 550.15 L183.43 551.56 L9.54 551.56 L9.54 552.96 L0
						 550.15 Z" class="st6"/>
		</g>
		<g id="shape22-56" v:mID="22" v:groupContext="shape" transform="translate(-8.82636,-55.1759) rotate(-45.9392)">
			<title>普通箭头.22</title>
			<v:userDefs>
				<v:ud v:nameU="visVersion" v:val="VT0(15):26"/>
				<v:ud v:nameU="ArrowType" v:prompt="" v:val="VT0(2):26"/>
			</v:userDefs>
			<path d="M0 550.15 L9.54 547.33 L9.54 548.74 L183.43 548.74 L183.43 550.15 L183.43 551.56 L9.54 551.56 L9.54 552.96 L0
						 550.15 Z" class="st6"/>
		</g>
		<g id="shape23-58" v:mID="23" v:groupContext="shape" transform="translate(-37.1728,-55.1759) rotate(-45.9392)">
			<title>普通箭头.23</title>
			<v:userDefs>
				<v:ud v:nameU="visVersion" v:val="VT0(15):26"/>
				<v:ud v:nameU="ArrowType" v:prompt="" v:val="VT0(2):26"/>
			</v:userDefs>
			<path d="M0 550.15 L9.54 547.33 L9.54 548.74 L183.43 548.74 L183.43 550.15 L183.43 551.56 L9.54 551.56 L9.54 552.96 L0
						 550.15 Z" class="st6"/>
		</g>
		<g id="shape24-60" v:mID="24" v:groupContext="shape" transform="translate(-65.5193,-55.1759) rotate(-45.9392)">
			<title>普通箭头.24</title>
			<v:userDefs>
				<v:ud v:nameU="visVersion" v:val="VT0(15):26"/>
				<v:ud v:nameU="ArrowType" v:prompt="" v:val="VT0(2):26"/>
			</v:userDefs>
			<path d="M0 550.15 L9.54 547.33 L9.54 548.74 L183.43 548.74 L183.43 550.15 L183.43 551.56 L9.54 551.56 L9.54 552.96 L0
						 550.15 Z" class="st6"/>
		</g>
		<g id="shape28-62" v:mID="28" v:groupContext="shape" transform="translate(103.047,-354.55)">
			<title>矩形</title>
			<desc>TIMR0 Timeout</desc>
			<v:userDefs>
				<v:ud v:nameU="visVersion" v:val="VT0(15):26"/>
			</v:userDefs>
			<v:textBlock v:margins="rect(4,4,4,4)" v:tabSpace="42.5197"/>
			<v:textRect cx="42.5197" cy="535.976" width="85.04" height="28.3465"/>
			<rect x="0" y="521.802" width="85.0394" height="28.3465" class="st1"/>
			<text x="11.16" y="538.98" class="st2" v:langID="2052"><v:paragraph v:horizAlign="1"/><v:tabList/>TIMR0 Timeout</text>		</g>
		<g id="shape29-65" v:mID="29" v:groupContext="shape" transform="translate(18.0079,-354.55)">
			<title>矩形.29</title>
			<desc>TIMR1 Timeout</desc>
			<v:userDefs>
				<v:ud v:nameU="visVersion" v:val="VT0(15):26"/>
			</v:userDefs>
			<v:textBlock v:margins="rect(4,4,4,4)" v:tabSpace="42.5197"/>
			<v:textRect cx="42.5197" cy="535.976" width="85.04" height="28.3465"/>
			<rect x="0" y="521.802" width="85.0394" height="28.3465" class="st1"/>
			<text x="11.16" y="538.98" class="st2" v:langID="2052"><v:paragraph v:horizAlign="1"/><v:tabList/>TIMR1 Timeout</text>		</g>
		<g id="shape30-68" v:mID="30" v:groupContext="shape" transform="translate(-53.7207,747.53) rotate(-139.787)">
			<title>普通箭头.30</title>
			<v:userDefs>
				<v:ud v:nameU="visVersion" v:val="VT0(15):26"/>
				<v:ud v:nameU="ArrowType" v:prompt="" v:val="VT0(2):26"/>
			</v:userDefs>
			<path d="M0 550.15 L9.54 547.33 L9.54 548.74 L204.16 548.74 L204.16 550.15 L204.16 551.56 L9.54 551.56 L9.54 552.96 L0
						 550.15 Z" class="st6"/>
		</g>
		<g id="shape31-70" v:mID="31" v:groupContext="shape" transform="translate(-16.7693,794.982) rotate(-148.201)">
			<title>普通箭头.31</title>
			<v:userDefs>
				<v:ud v:nameU="visVersion" v:val="VT0(15):26"/>
				<v:ud v:nameU="ArrowType" v:prompt="" v:val="VT0(2):26"/>
			</v:userDefs>
			<path d="M0 550.15 L9.54 547.33 L9.54 548.74 L250.14 548.74 L250.14 550.15 L250.14 551.56 L9.54 551.56 L9.54 552.96 L0
						 550.15 Z" class="st6"/>
		</g>
		<g id="shape33-72" v:mID="33" v:groupContext="shape" transform="translate(258.953,-127.779)">
			<title>工作表.33</title>
			<path d="M113.39 550.15 L85.04 550.15 L0 521.8 L198.43 521.8 L113.39 550.15 Z" class="st7"/>
		</g>
		<g id="group40-74" transform="translate(297.22,-156.125)" v:mID="40" v:groupContext="group">
			<title>工作表.40</title>
			<g id="shape38-75" v:mID="38" v:groupContext="shape" transform="translate(554.401,511.881) rotate(90)">
				<title>工作表.38</title>
				<path d="M0 550.15 L31.18 550.15" class="st8"/>
			</g>
			<g id="shape39-78" v:mID="39" v:groupContext="shape" transform="translate(8.50393,1093.21) rotate(180)">
				<title>三角形.39</title>
				<v:userDefs>
					<v:ud v:nameU="visVersion" v:val="VT0(15):26"/>
				</v:userDefs>
				<path d="M8.5 550.15 L4.25 543.06 L0 550.15 L8.5 550.15 Z" class="st9"/>
			</g>
		</g>
		<g id="group41-80" transform="translate(325.567,-156.125)" v:mID="41" v:groupContext="group">
			<title>工作表.41</title>
			<g id="shape42-81" v:mID="42" v:groupContext="shape" transform="translate(554.401,511.881) rotate(90)">
				<title>工作表.42</title>
				<path d="M0 550.15 L31.18 550.15" class="st8"/>
			</g>
			<g id="shape43-84" v:mID="43" v:groupContext="shape" transform="translate(8.50393,1093.21) rotate(180)">
				<title>三角形.39</title>
				<v:userDefs>
					<v:ud v:nameU="visVersion" v:val="VT0(15):26"/>
				</v:userDefs>
				<path d="M8.5 550.15 L4.25 543.06 L0 550.15 L8.5 550.15 Z" class="st9"/>
			</g>
		</g>
		<g id="group44-86" transform="translate(353.913,-156.125)" v:mID="44" v:groupContext="group">
			<title>工作表.44</title>
			<g id="shape45-87" v:mID="45" v:groupContext="shape" transform="translate(554.401,511.881) rotate(90)">
				<title>工作表.45</title>
				<path d="M0 550.15 L31.18 550.15" class="st8"/>
			</g>
			<g id="shape46-90" v:mID="46" v:groupContext="shape" transform="translate(8.50393,1093.21) rotate(180)">
				<title>三角形.39</title>
				<v:userDefs>
					<v:ud v:nameU="visVersion" v:val="VT0(15):26"/>
				</v:userDefs>
				<path d="M8.5 550.15 L4.25 543.06 L0 550.15 L8.5 550.15 Z" class="st9"/>
			</g>
		</g>
		<g id="group47-92" transform="translate(382.26,-156.125)" v:mID="47" v:groupContext="group">
			<title>工作表.47</title>
			<g id="shape48-93" v:mID="48" v:groupContext="shape" transform="translate(554.401,511.881) rotate(90)">
				<title>工作表.48</title>
				<path d="M0 550.15 L31.18 550.15" class="st8"/>
			</g>
			<g id="shape49-96" v:mID="49" v:groupContext="shape" transform="translate(8.50393,1093.21) rotate(180)">
				<title>三角形.39</title>
				<v:userDefs>
					<v:ud v:nameU="visVersion" v:val="VT0(15):26"/>
				</v:userDefs>
				<path d="M8.5 550.15 L4.25 543.06 L0 550.15 L8.5 550.15 Z" class="st9"/>
			</g>
		</g>
		<g id="group50-98" transform="translate(410.606,-156.125)" v:mID="50" v:groupContext="group">
			<title>工作表.50</title>
			<g id="shape51-99" v:mID="51" v:groupContext="shape" transform="translate(554.401,511.881) rotate(90)">
				<title>工作表.51</title>
				<path d="M0 550.15 L31.18 550.15" class="st8"/>
			</g>
			<g id="shape52-102" v:mID="52" v:groupContext="shape" transform="translate(8.50393,1093.21) rotate(180)">
				<title>三角形.39</title>
				<v:userDefs>
					<v:ud v:nameU="visVersion" v:val="VT0(15):26"/>
				</v:userDefs>
				<path d="M8.5 550.15 L4.25 543.06 L0 550.15 L8.5 550.15 Z" class="st9"/>
			</g>
		</g>
		<g id="group53-104" transform="translate(438.953,-156.125)" v:mID="53" v:groupContext="group">
			<title>工作表.53</title>
			<g id="shape54-105" v:mID="54" v:groupContext="shape" transform="translate(554.401,511.881) rotate(90)">
				<title>工作表.54</title>
				<path d="M0 550.15 L31.18 550.15" class="st8"/>
			</g>
			<g id="shape55-108" v:mID="55" v:groupContext="shape" transform="translate(8.50393,1093.21) rotate(180)">
				<title>三角形.39</title>
				<v:userDefs>
					<v:ud v:nameU="visVersion" v:val="VT0(15):26"/>
				</v:userDefs>
				<path d="M8.5 550.15 L4.25 543.06 L0 550.15 L8.5 550.15 Z" class="st9"/>
			</g>
		</g>
		<g id="group56-110" transform="translate(268.874,-156.125)" v:mID="56" v:groupContext="group">
			<title>工作表.56</title>
			<g id="shape34-111" v:mID="34" v:groupContext="shape" transform="translate(554.401,511.881) rotate(90)">
				<title>工作表.34</title>
				<path d="M0 550.15 L31.18 550.15" class="st8"/>
			</g>
			<g id="shape36-114" v:mID="36" v:groupContext="shape" transform="translate(8.50393,1093.21) rotate(180)">
				<title>三角形</title>
				<v:userDefs>
					<v:ud v:nameU="visVersion" v:val="VT0(15):26"/>
				</v:userDefs>
				<path d="M8.5 550.15 L4.25 543.06 L0 550.15 L8.5 550.15 Z" class="st9"/>
			</g>
		</g>
		<g id="group57-116" transform="translate(-233.795,417.835) rotate(-90)" v:mID="57" v:groupContext="group">
			<title>工作表.57</title>
			<g id="shape58-117" v:mID="58" v:groupContext="shape" transform="translate(554.401,472.905) rotate(90)">
				<title>工作表.58</title>
				<path d="M0 550.15 L70.16 550.15" class="st8"/>
			</g>
			<g id="shape59-120" v:mID="59" v:groupContext="shape" transform="translate(8.50393,1093.21) rotate(180)">
				<title>三角形</title>
				<v:userDefs>
					<v:ud v:nameU="visVersion" v:val="VT0(15):26"/>
				</v:userDefs>
				<path d="M8.5 550.15 L4.25 543.06 L0 550.15 L8.5 550.15 Z" class="st9"/>
			</g>
		</g>
		<g id="shape60-122" v:mID="60" v:groupContext="shape" transform="translate(46.3543,-117.858)">
			<title>工作表.60</title>
			<desc>PWMx-&#62;EVMUX.MASKA 选择哪个 Event 用来屏蔽 PWMxA 输出</desc>
			<v:textBlock v:margins="rect(4,4,4,4)" v:tabSpace="42.5197"/>
			<v:textRect cx="96.7881" cy="531.015" width="193.58" height="38.2677"/>
			<rect x="0" y="511.881" width="193.576" height="38.2677" class="st4"/>
			<text x="10.7" y="527.02" class="st5" v:langID="1033"><v:paragraph v:horizAlign="1"/><v:tabList/>PWMx-&#62;EVMUX.MASKA <tspan
						class="st10" v:langID="2052">选择哪个</tspan><tspan class="st11" v:langID="2052"> </tspan><tspan x="22.22"
						dy="1.331em" class="st11">Event </tspan><tspan class="st10" v:langID="2052">用来屏蔽</tspan><tspan class="st11"
						v:langID="2052"> </tspan>PWMxA <tspan class="st10" v:langID="2052">输出</tspan></text>		</g>
		<g id="group62-131" transform="translate(353.913,-56.9127)" v:mID="62" v:groupContext="group">
			<title>工作表.62</title>
			<g id="shape63-132" v:mID="63" v:groupContext="shape" transform="translate(554.401,479.283) rotate(90)">
				<title>工作表.63</title>
				<path d="M0 550.15 L57.74 550.15" class="st8"/>
			</g>
			<g id="shape64-135" v:mID="64" v:groupContext="shape" transform="translate(8.50393,1087.17) rotate(180)">
				<title>三角形.39</title>
				<v:userDefs>
					<v:ud v:nameU="visVersion" v:val="VT0(15):26"/>
				</v:userDefs>
				<path d="M8.5 550.15 L4.25 537.03 L0 550.15 L8.5 550.15 Z" class="st9"/>
			</g>
		</g>
		<g id="shape66-137" v:mID="66" v:groupContext="shape" transform="translate(124.307,-49.8261)">
			<title>矩形.66</title>
			<desc>0 or 1</desc>
			<v:userDefs>
				<v:ud v:nameU="visVersion" v:val="VT0(15):26"/>
			</v:userDefs>
			<v:textBlock v:margins="rect(4,4,4,4)" v:tabSpace="42.5197"/>
			<v:textRect cx="24.8032" cy="535.976" width="49.61" height="28.3465"/>
			<rect x="0" y="521.802" width="49.6063" height="28.3465" class="st12"/>
			<text x="13.09" y="538.98" class="st13" v:langID="2052"><v:paragraph v:horizAlign="1"/><v:tabList/>0 or 1</text>		</g>
		<g id="shape67-140" v:mID="67" v:groupContext="shape" transform="translate(3.83465,-49.8261)">
			<title>工作表.67</title>
			<desc>PWMx-&#62;EVMSK.OUTA</desc>
			<v:textBlock v:margins="rect(4,4,4,4)" v:tabSpace="42.5197"/>
			<v:textRect cx="60.2362" cy="535.991" width="120.48" height="28.3162"/>
			<rect x="0" y="521.833" width="120.472" height="28.3162" class="st4"/>
			<text x="4.76" y="539.59" class="st5" v:langID="1033"><v:paragraph v:horizAlign="1"/><v:tabList/>PWMx-&#62;EVMSK.OUTA</text>		</g>
		<g id="shape68-143" v:mID="68" v:groupContext="shape" transform="translate(124.307,-14.393)">
			<title>工作表.68</title>
			<path d="M0 550.15 L191.34 550.15" class="st14"/>
		</g>
		<g id="shape69-146" v:mID="69" v:groupContext="shape" transform="translate(173.913,-63.9993)">
			<title>工作表.69</title>
			<path d="M0 550.15 L141.73 550.15" class="st14"/>
		</g>
		<g id="shape70-149" v:mID="70" v:groupContext="shape" transform="translate(3.83465,-0.25)">
			<title>工作表.70</title>
			<desc>PWMxA 原始输出</desc>
			<v:textBlock v:margins="rect(4,4,4,4)" v:tabSpace="42.5197"/>
			<v:textRect cx="60.2362" cy="535.991" width="120.48" height="28.3162"/>
			<rect x="0" y="521.833" width="120.472" height="28.3162" class="st4"/>
			<text x="14.52" y="539.98" class="st5" v:langID="1033"><v:paragraph v:horizAlign="1"/><v:tabList/>PWMx<tspan
						class="st11" v:langID="2052">A </tspan><tspan class="st10" v:langID="2052">原始输出</tspan></text>		</g>
		<g id="shape71-154" v:mID="71" v:groupContext="shape" transform="translate(400.685,-42.7395)">
			<title>工作表.71</title>
			<path d="M0 550.15 L99.21 550.15" class="st14"/>
		</g>
		<g id="shape72-157" v:mID="72" v:groupContext="shape" transform="translate(499.898,-28.5662)">
			<title>工作表.72</title>
			<desc>PWMxA 引脚</desc>
			<v:textBlock v:margins="rect(4,4,4,4)" v:tabSpace="42.5197"/>
			<v:textRect cx="42.5197" cy="535.991" width="85.04" height="28.3162"/>
			<rect x="0" y="521.833" width="85.0394" height="28.3162" class="st4"/>
			<text x="8.85" y="539.98" class="st5" v:langID="1033"><v:paragraph v:horizAlign="1"/><v:tabList/>PWMx<tspan
						class="st11" v:langID="2052">A </tspan><tspan class="st10" v:langID="2052">引脚</tspan></text>		</g>
		<g id="shape73-162" v:mID="73" v:groupContext="shape" transform="translate(441.768,-51.2906) rotate(15.0799)">
			<title>工作表.73</title>
			<path d="M0 550.15 L105.69 550.15" class="st15"/>
		</g>
		<g id="shape74-165" v:mID="74" v:groupContext="shape" transform="translate(396.433,-38.4875)">
			<title>圆形</title>
			<v:userDefs>
				<v:ud v:nameU="visVersion" v:val="VT0(15):26"/>
			</v:userDefs>
			<path d="M0 545.9 A4.25197 4.25197 0 1 1 8.5 545.9 A4.25197 4.25197 0 0 1 0 545.9 Z" class="st16"/>
		</g>
		<g id="shape77-167" v:mID="77" v:groupContext="shape" transform="translate(1,-482.535)">
			<title>矩形.77</title>
			<desc>PWMy 计数器溢出 (((PWMy-&#62;OVFTRG.UPEN == 1) &#38;&#38; (PWMy-&#62;VALUE == PWMy...</desc>
			<v:userDefs>
				<v:ud v:nameU="visVersion" v:val="VT0(15):26"/>
			</v:userDefs>
			<v:textBlock v:margins="rect(4,4,4,4)" v:tabSpace="42.5197"/>
			<v:textRect cx="164.409" cy="516.842" width="328.82" height="66.6142"/>
			<rect x="0" y="483.535" width="328.819" height="66.6142" class="st1"/>
			<text x="4" y="508.17" class="st13" v:langID="2052"><v:paragraph/><v:tabList/>PWMy <tspan class="st10">计数器溢出</tspan><tspan
						class="st10">：<v:newlineChar/></tspan><tspan x="4" dy="1.233em" class="st11" v:langID="1033">(((PWMy</tspan><tspan
						class="st11" v:langID="1033">-</tspan><tspan class="st11" v:langID="1033">&#62;OVFTRG.UPEN == 1) &#38;&#38; (PWMy</tspan><tspan
						class="st11" v:langID="1033">-</tspan><tspan class="st11" v:langID="1033">&#62;VALUE == PWMy</tspan><tspan
						class="st11" v:langID="1033">-</tspan><tspan class="st11" v:langID="1033">&#62;PERIOD)) ||<v:newlineChar/></tspan><tspan
						x="4" dy="1.2em" class="st11" v:langID="1033"> </tspan><tspan class="st11" v:langID="1033">((PWMy</tspan><tspan
						class="st11" v:langID="1033">-</tspan><tspan class="st11" v:langID="1033">&#62;OVFTRG.DNEN == 1) &#38;&#38; (PWMy</tspan><tspan
						class="st11" v:langID="1033">-</tspan><tspan class="st11" v:langID="1033">&#62;VALUE == 0)))</tspan></text>		</g>
		<g id="shape78-185" v:mID="78" v:groupContext="shape" transform="translate(358.165,-482.535)">
			<title>矩形.78</title>
			<desc>PWMy 计数器值等于比较值 (PWMy-&#62;CMPTRG.EN == 1) &#38;&#38; (PWMy-&#62;VALUE == PWMy...</desc>
			<v:userDefs>
				<v:ud v:nameU="visVersion" v:val="VT0(15):26"/>
			</v:userDefs>
			<v:textBlock v:margins="rect(4,4,4,4)" v:tabSpace="42.5197"/>
			<v:textRect cx="170.079" cy="516.842" width="340.16" height="66.6142"/>
			<rect x="0" y="483.535" width="340.157" height="66.6142" class="st1"/>
			<text x="105.38" y="508.17" class="st13" v:langID="2052"><v:paragraph v:horizAlign="1"/><v:tabList/>PWMy <tspan
						class="st10">计数器值等于比较值</tspan><tspan class="st10">：<v:newlineChar/></tspan><tspan x="18.29" dy="1.233em"
						class="st11" v:langID="1033">(PWMy</tspan><tspan class="st11" v:langID="1033">-</tspan><tspan class="st11"
						v:langID="1033">&#62;CMPTRG.EN == 1) &#38;&#38; (PWMy</tspan><tspan class="st11" v:langID="1033">-</tspan><tspan
						class="st11" v:langID="1033">&#62;VALUE</tspan> == <tspan class="st11" v:langID="1033">PWMy</tspan><tspan
						class="st11" v:langID="1033">-</tspan><tspan class="st11" v:langID="1033">&#62;CMPTRG.CMP)</tspan><v:newlineChar/></text>		</g>
		<g id="shape83-198" v:mID="83" v:groupContext="shape" transform="translate(64.7627,383.184) rotate(-113.11)">
			<title>普通箭头.83</title>
			<v:userDefs>
				<v:ud v:nameU="visVersion" v:val="VT0(15):26"/>
				<v:ud v:nameU="ArrowType" v:prompt="" v:val="VT0(2):26"/>
			</v:userDefs>
			<path d="M0 550.15 L9.54 547.33 L9.54 548.74 L108.33 548.74 L108.33 550.15 L108.33 551.56 L9.54 551.56 L9.54 552.96 L0
						 550.15 Z" class="st6"/>
		</g>
		<g id="shape84-200" v:mID="84" v:groupContext="shape" transform="translate(186.146,673.845) rotate(-157.048)">
			<title>普通箭头.84</title>
			<v:userDefs>
				<v:ud v:nameU="visVersion" v:val="VT0(15):26"/>
				<v:ud v:nameU="ArrowType" v:prompt="" v:val="VT0(2):26"/>
			</v:userDefs>
			<path d="M0 550.15 L9.54 547.33 L9.54 548.74 L255.5 548.74 L255.5 550.15 L255.5 551.56 L9.54 551.56 L9.54 552.96 L0 550.15
						 Z" class="st6"/>
		</g>
		<g id="shape85-202" v:mID="85" v:groupContext="shape" transform="translate(206.165,-418.33)">
			<title>工作表.85</title>
			<desc>PWMy-&#62;OVFTRG.MUX 选择输出到哪一位</desc>
			<v:textBlock v:margins="rect(4,4,4,4)" v:tabSpace="42.5197"/>
			<v:textRect cx="76" cy="535.976" width="152" height="28.3465"/>
			<rect x="0" y="521.802" width="152" height="28.3465" class="st4"/>
			<text x="6.45" y="531.98" class="st5" v:langID="1033"><v:paragraph v:horizAlign="1"/><v:tabList/>PWMy-&#62;OVFTRG.MUX <tspan
						class="st10" v:langID="2052">选择</tspan><tspan x="39.86" dy="1.331em" class="st10" v:langID="2052">输出到哪一位</tspan></text>		</g>
		<g id="shape86-207" v:mID="86" v:groupContext="shape" transform="translate(466.417,-418.33)">
			<title>工作表.86</title>
			<desc>PWMy-&#62;CMPTRG.MUX 选择输出到哪一位</desc>
			<v:textBlock v:margins="rect(4,4,4,4)" v:tabSpace="42.5197"/>
			<v:textRect cx="76" cy="535.976" width="152" height="28.3465"/>
			<rect x="0" y="521.802" width="152" height="28.3465" class="st4"/>
			<text x="5.2" y="531.98" class="st5" v:langID="1033"><v:paragraph v:horizAlign="1"/><v:tabList/>PWMy-&#62;CMPTRG.MUX <tspan
						class="st10" v:langID="2052">选择</tspan><tspan x="39.86" dy="1.331em" class="st10" v:langID="2052">输出到哪一位</tspan></text>		</g>
	</g>
</svg>
