<?xml version="1.0" encoding="UTF-8" standalone="no"?>
<!DOCTYPE svg PUBLIC "-//W3C//DTD SVG 1.1//EN" "http://www.w3.org/Graphics/SVG/1.1/DTD/svg11.dtd">
<!-- Generated by Microsoft Visio, SVG Export PWM死区示意图.svg Page-1 -->
<svg xmlns="http://www.w3.org/2000/svg" xmlns:xlink="http://www.w3.org/1999/xlink" xmlns:ev="http://www.w3.org/2001/xml-events"
		xmlns:v="http://schemas.microsoft.com/visio/2003/SVGExtensions/" width="7.64821in" height="3.01642in"
		viewBox="0 0 550.671 217.183" xml:space="preserve" color-interpolation-filters="sRGB" class="st11">
	<v:documentProperties v:langID="2052" v:metric="true" v:viewMarkup="false">
		<v:userDefs>
			<v:ud v:nameU="msvNoAutoConnect" v:val="VT0(1):26"/>
			<v:ud v:nameU="msvConvertTheme"/>
		</v:userDefs>
	</v:documentProperties>

	<style type="text/css">
	<![CDATA[
		.st1 {fill:#d8d8d8;stroke:#000000;stroke-linecap:round;stroke-linejoin:round;stroke-width:0.75}
		.st2 {stroke:#c0c0c0;stroke-dasharray:0,3.85425;stroke-linecap:round;stroke-linejoin:round;stroke-width:0.77085}
		.st3 {stroke:#000000;stroke-dasharray:5.39595,3.85425;stroke-linecap:round;stroke-linejoin:round;stroke-width:0.77085}
		.st4 {stroke:#000000;stroke-linecap:round;stroke-linejoin:round;stroke-width:0.77085}
		.st5 {fill:#000000;stroke:#000000;stroke-linecap:round;stroke-linejoin:round;stroke-width:0.77085}
		.st6 {stroke:none;stroke-linecap:round;stroke-linejoin:round;stroke-width:0.75}
		.st7 {fill:#000000;font-family:Arial;font-size:0.835007em}
		.st8 {fill:none;stroke:#000000;stroke-linecap:round;stroke-linejoin:round;stroke-width:0.75}
		.st9 {fill:none;stroke:none;stroke-linecap:round;stroke-linejoin:round;stroke-width:0.75}
		.st10 {fill:#000000;font-family:Microsoft Sans Serif;font-size:0.666664em}
		.st11 {fill:none;fill-rule:evenodd;font-size:12px;overflow:visible;stroke-linecap:square;stroke-miterlimit:3}
	]]>
	</style>

	<g v:mID="0" v:index="1" v:groupContext="foregroundPage">
		<title>页-1</title>
		<v:pageProperties v:drawingScale="0.0393701" v:pageScale="0.0393701" v:drawingUnits="24" v:shadowOffsetX="8.50394"
				v:shadowOffsetY="-8.50394"/>
		<g id="shape154-1" v:mID="154" v:groupContext="shape" transform="translate(437.988,-69.406)">
			<title>Sheet.154</title>
			<rect x="0" y="195.639" width="6.85984" height="21.5433" class="st1"/>
		</g>
		<g id="shape153-3" v:mID="153" v:groupContext="shape" transform="translate(342.375,-17.2485)">
			<title>Sheet.153</title>
			<rect x="0" y="195.923" width="14.5984" height="21.2598" class="st1"/>
		</g>
		<g id="shape150-5" v:mID="150" v:groupContext="shape" transform="translate(246.847,-69.2926)">
			<title>Sheet.150</title>
			<rect x="0" y="195.526" width="6.09449" height="21.6567" class="st1"/>
		</g>
		<g id="shape149-7" v:mID="149" v:groupContext="shape" transform="translate(151.178,-16.6815)">
			<title>Sheet.149</title>
			<rect x="0" y="195.356" width="13.0394" height="21.8268" class="st1"/>
		</g>
		<g id="shape8-9" v:mID="8" v:groupContext="shape" transform="translate(55.6051,-174.141)">
			<title>Sheet.8</title>
			<path d="M0 195.6 L0 217.18" class="st2"/>
		</g>
		<g id="shape9-12" v:mID="9" v:groupContext="shape" transform="translate(151.201,-174.141)">
			<title>Sheet.9</title>
			<path d="M0 195.6 L0 217.18" class="st2"/>
		</g>
		<g id="shape10-15" v:mID="10" v:groupContext="shape" transform="translate(246.796,-174.141)">
			<title>Sheet.10</title>
			<path d="M0 195.6 L0 217.18" class="st2"/>
		</g>
		<g id="shape11-18" v:mID="11" v:groupContext="shape" transform="translate(342.392,-174.141)">
			<title>Sheet.11</title>
			<path d="M0 195.6 L0 217.18" class="st2"/>
		</g>
		<g id="shape12-21" v:mID="12" v:groupContext="shape" transform="translate(437.987,-174.141)">
			<title>Sheet.12</title>
			<path d="M0 195.6 L0 217.18" class="st2"/>
		</g>
		<g id="shape14-24" v:mID="14" v:groupContext="shape" transform="translate(55.6051,-174.141)">
			<title>Sheet.14</title>
			<path d="M0 195.6 L0 217.18" class="st2"/>
		</g>
		<g id="shape15-27" v:mID="15" v:groupContext="shape" transform="translate(151.201,-174.141)">
			<title>Sheet.15</title>
			<path d="M0 195.6 L0 217.18" class="st2"/>
		</g>
		<g id="shape16-30" v:mID="16" v:groupContext="shape" transform="translate(246.796,-174.141)">
			<title>Sheet.16</title>
			<path d="M0 195.6 L0 217.18" class="st2"/>
		</g>
		<g id="shape17-33" v:mID="17" v:groupContext="shape" transform="translate(342.392,-174.141)">
			<title>Sheet.17</title>
			<path d="M0 195.6 L0 217.18" class="st2"/>
		</g>
		<g id="shape18-36" v:mID="18" v:groupContext="shape" transform="translate(437.987,-174.141)">
			<title>Sheet.18</title>
			<path d="M0 195.6 L0 217.18" class="st2"/>
		</g>
		<g id="shape20-39" v:mID="20" v:groupContext="shape" transform="translate(55.6051,-121.729)">
			<title>Sheet.20</title>
			<path d="M0 143.19 L0 217.18" class="st2"/>
		</g>
		<g id="shape21-42" v:mID="21" v:groupContext="shape" transform="translate(151.201,-121.729)">
			<title>Sheet.21</title>
			<path d="M0 143.19 L0 217.18" class="st2"/>
		</g>
		<g id="shape22-45" v:mID="22" v:groupContext="shape" transform="translate(246.796,-121.729)">
			<title>Sheet.22</title>
			<path d="M0 143.19 L0 217.18" class="st2"/>
		</g>
		<g id="shape23-48" v:mID="23" v:groupContext="shape" transform="translate(342.392,-121.729)">
			<title>Sheet.23</title>
			<path d="M0 143.19 L0 217.18" class="st2"/>
		</g>
		<g id="shape24-51" v:mID="24" v:groupContext="shape" transform="translate(437.987,-121.729)">
			<title>Sheet.24</title>
			<path d="M0 143.19 L0 217.18" class="st2"/>
		</g>
		<g id="shape26-54" v:mID="26" v:groupContext="shape" transform="translate(55.6051,-69.317)">
			<title>Sheet.26</title>
			<path d="M0 90.78 L0 217.18" class="st2"/>
		</g>
		<g id="shape27-57" v:mID="27" v:groupContext="shape" transform="translate(151.201,-69.317)">
			<title>Sheet.27</title>
			<path d="M0 90.78 L0 217.18" class="st2"/>
		</g>
		<g id="shape28-60" v:mID="28" v:groupContext="shape" transform="translate(246.796,-69.317)">
			<title>Sheet.28</title>
			<path d="M0 90.78 L0 217.18" class="st2"/>
		</g>
		<g id="shape29-63" v:mID="29" v:groupContext="shape" transform="translate(342.392,-69.317)">
			<title>Sheet.29</title>
			<path d="M0 90.78 L0 217.18" class="st2"/>
		</g>
		<g id="shape30-66" v:mID="30" v:groupContext="shape" transform="translate(437.987,-69.317)">
			<title>Sheet.30</title>
			<path d="M0 90.78 L0 217.18" class="st2"/>
		</g>
		<g id="shape32-69" v:mID="32" v:groupContext="shape" transform="translate(55.6051,-8.46107)">
			<title>Sheet.32</title>
			<path d="M0 22.44 L0 217.18" class="st3"/>
		</g>
		<g id="shape33-72" v:mID="33" v:groupContext="shape" transform="translate(151.201,-4.20911)">
			<title>Sheet.33</title>
			<path d="M0 18.76 L0 217.18" class="st3"/>
		</g>
		<g id="shape34-75" v:mID="34" v:groupContext="shape" transform="translate(246.796,-11.5792)">
			<title>Sheet.34</title>
			<path d="M0 26.13 L0 217.18" class="st3"/>
		</g>
		<g id="shape35-78" v:mID="35" v:groupContext="shape" transform="translate(342.392,-11.2957)">
			<title>Sheet.35</title>
			<path d="M0 25.28 L0 217.18" class="st3"/>
		</g>
		<g id="shape36-81" v:mID="36" v:groupContext="shape" transform="translate(437.987,-11.2957)">
			<title>Sheet.36</title>
			<path d="M0 25.28 L0 217.18" class="st3"/>
		</g>
		<g id="shape38-84" v:mID="38" v:groupContext="shape" transform="translate(7.03642,20.0952)">
			<title>Sheet.38</title>
		</g>
		<g id="shape39-85" v:mID="39" v:groupContext="shape" transform="translate(55.6051,-174.141)">
			<title>Sheet.39</title>
			<path d="M0 217.18 L0 195.6 L95.6 195.6" class="st4"/>
		</g>
		<g id="shape40-88" v:mID="40" v:groupContext="shape" transform="translate(151.201,-174.141)">
			<title>Sheet.40</title>
			<path d="M0 195.6 L0 217.18 L95.6 217.18" class="st4"/>
		</g>
		<g id="shape41-91" v:mID="41" v:groupContext="shape" transform="translate(246.796,-174.141)">
			<title>Sheet.41</title>
			<path d="M0 217.18 L0 195.6 L95.6 195.6" class="st4"/>
		</g>
		<g id="shape42-94" v:mID="42" v:groupContext="shape" transform="translate(342.392,-174.141)">
			<title>Sheet.42</title>
			<path d="M0 195.6 L0 217.18 L95.6 217.18" class="st4"/>
		</g>
		<g id="shape43-97" v:mID="43" v:groupContext="shape" transform="translate(437.987,-174.141)">
			<title>Sheet.43</title>
			<path d="M0 217.18 L0 195.6 L95.6 195.6" class="st4"/>
		</g>
		<g id="shape44-100" v:mID="44" v:groupContext="shape" transform="translate(7.03642,20.0952)">
			<title>Sheet.44</title>
		</g>
		<g id="shape45-101" v:mID="45" v:groupContext="shape" transform="translate(55.6051,-121.729)">
			<title>Sheet.45</title>
			<path d="M-0 217.18 L95.6 217.18" class="st4"/>
		</g>
		<g id="shape46-104" v:mID="46" v:groupContext="shape" transform="translate(151.201,-121.729)">
			<title>Sheet.46</title>
			<path d="M0 217.18 L0 195.6 L95.6 195.6" class="st4"/>
		</g>
		<g id="shape47-107" v:mID="47" v:groupContext="shape" transform="translate(246.796,-121.729)">
			<title>Sheet.47</title>
			<path d="M0 195.6 L0 217.18 L95.6 217.18" class="st4"/>
		</g>
		<g id="shape48-110" v:mID="48" v:groupContext="shape" transform="translate(342.392,-121.729)">
			<title>Sheet.48</title>
			<path d="M0 217.18 L0 195.6 L95.6 195.6" class="st4"/>
		</g>
		<g id="shape49-113" v:mID="49" v:groupContext="shape" transform="translate(437.987,-121.729)">
			<title>Sheet.49</title>
			<path d="M0 195.6 L0 217.18 L95.6 217.18" class="st4"/>
		</g>
		<g id="shape50-116" v:mID="50" v:groupContext="shape" transform="translate(7.03642,20.0952)">
			<title>Sheet.50</title>
		</g>
		<g id="shape51-117" v:mID="51" v:groupContext="shape" transform="translate(55.6051,-69.317)">
			<title>Sheet.51</title>
			<path d="M0 217.18 L0 195.6 L95.6 195.6" class="st4"/>
		</g>
		<g id="shape52-120" v:mID="52" v:groupContext="shape" transform="translate(151.201,-69.317)">
			<title>Sheet.52</title>
			<path d="M0 195.6 L0 217.18 L101.76 217.18" class="st4"/>
		</g>
		<g id="shape53-123" v:mID="53" v:groupContext="shape" transform="translate(252.964,-69.317)">
			<title>Sheet.53</title>
			<path d="M0 217.18 L0 195.6 L89.43 195.6" class="st4"/>
		</g>
		<g id="shape54-126" v:mID="54" v:groupContext="shape" transform="translate(342.392,-69.317)">
			<title>Sheet.54</title>
			<path d="M0 195.6 L0 217.18 L102.53 217.18" class="st4"/>
		</g>
		<g id="shape55-129" v:mID="55" v:groupContext="shape" transform="translate(444.926,-69.317)">
			<title>Sheet.55</title>
			<path d="M0 217.18 L0 195.6 L88.66 195.6" class="st4"/>
		</g>
		<g id="shape56-132" v:mID="56" v:groupContext="shape" transform="translate(7.03642,20.0952)">
			<title>Sheet.56</title>
		</g>
		<g id="shape57-133" v:mID="57" v:groupContext="shape" transform="translate(55.6051,-16.9048)">
			<title>Sheet.57</title>
			<path d="M-0 217.18 L108.7 217.18" class="st4"/>
		</g>
		<g id="shape58-136" v:mID="58" v:groupContext="shape" transform="translate(164.307,-16.9048)">
			<title>Sheet.58</title>
			<path d="M0 217.18 L0 195.6 L82.49 195.6" class="st4"/>
		</g>
		<g id="shape59-139" v:mID="59" v:groupContext="shape" transform="translate(246.796,-16.9048)">
			<title>Sheet.59</title>
			<path d="M0 195.6 L0 217.18 L110.24 217.18" class="st4"/>
		</g>
		<g id="shape60-142" v:mID="60" v:groupContext="shape" transform="translate(357.04,-16.9048)">
			<title>Sheet.60</title>
			<path d="M0 217.18 L0 195.6 L80.95 195.6" class="st4"/>
		</g>
		<g id="shape61-145" v:mID="61" v:groupContext="shape" transform="translate(437.987,-16.9048)">
			<title>Sheet.61</title>
			<path d="M0 195.6 L0 217.18 L95.6 217.18" class="st4"/>
		</g>
		<g id="shape62-148" v:mID="62" v:groupContext="shape" transform="translate(246.796,-80.1078)">
			<title>Sheet.62</title>
			<path d="M0 112.36 L3.08 123.15 L3.08 206.39 L6.17 217.18" class="st4"/>
		</g>
		<g id="shape63-151" v:mID="63" v:groupContext="shape" transform="translate(248.338,-80.1078)">
			<title>Sheet.63</title>
			<path d="M4.63 217.18 L5.4 211.02 L0 212.56 L4.63 217.18 Z" class="st5"/>
		</g>
		<g id="shape64-153" v:mID="64" v:groupContext="shape" transform="translate(437.987,-80.1078)">
			<title>Sheet.64</title>
			<path d="M0 112.36 L3.08 123.15 L3.08 206.39 L6.94 217.18" class="st4"/>
		</g>
		<g id="shape65-156" v:mID="65" v:groupContext="shape" transform="translate(440.3,-80.1078)">
			<title>Sheet.65</title>
			<path d="M4.63 217.18 L4.63 211.02 L0 212.56 L4.63 217.18 Z" class="st5"/>
		</g>
		<g id="shape66-158" v:mID="66" v:groupContext="shape" transform="translate(151.201,-27.6956)">
			<title>Sheet.66</title>
			<path d="M0 112.36 L6.17 123.15 L6.17 206.39 L13.11 217.18" class="st4"/>
		</g>
		<g id="shape67-161" v:mID="67" v:groupContext="shape" transform="translate(158.91,-27.6956)">
			<title>Sheet.67</title>
			<path d="M5.4 217.18 L4.63 211.02 L0 214.1 L5.4 217.18 Z" class="st5"/>
		</g>
		<g id="shape68-163" v:mID="68" v:groupContext="shape" transform="translate(342.392,-27.6956)">
			<title>Sheet.68</title>
			<path d="M0 112.36 L6.94 123.15 L6.94 206.39 L14.65 217.18" class="st4"/>
		</g>
		<g id="shape69-166" v:mID="69" v:groupContext="shape" transform="translate(351.643,-27.6956)">
			<title>Sheet.69</title>
			<path d="M5.4 217.18 L3.85 211.02 L0 214.1 L5.4 217.18 Z" class="st5"/>
		</g>
		<g id="shape131-168" v:mID="131" v:groupContext="shape" transform="translate(0.375,-182.924)">
			<title>Sheet.131</title>
			<desc>PWMxA</desc>
			<v:textBlock v:margins="rect(0,0,0,0)" v:tabSpace="42.5197"/>
			<v:textRect cx="27.6648" cy="211.169" width="55.33" height="12.0277"/>
			<path d="M55.33 205.15 L0 205.15 L0 217.18 L55.33 217.18 L55.33 205.15" class="st6"/>
			<text x="9.57" y="214.17" class="st7" v:langID="2052"><v:paragraph v:horizAlign="1"/><v:tabList/>PWMxA</text>		</g>
		<g id="shape132-172" v:mID="132" v:groupContext="shape" transform="translate(0.375,-130.512)">
			<title>Sheet.132</title>
			<desc>PWMxAn</desc>
			<v:textBlock v:margins="rect(0,0,0,0)" v:tabSpace="42.5197"/>
			<v:textRect cx="27.6648" cy="211.169" width="55.33" height="12.0277"/>
			<path d="M55.33 205.15 L0 205.15 L0 217.18 L55.33 217.18 L55.33 205.15" class="st6"/>
			<text x="6.79" y="214.17" class="st7" v:langID="2052"><v:paragraph v:horizAlign="1"/><v:tabList/>PWMxAn</text>		</g>
		<g id="shape135-176" v:mID="135" v:groupContext="shape" transform="translate(0.375,-1.37446)">
			<title>Sheet.135</title>
			<rect x="0" y="1.74946" width="549.921" height="215.433" class="st8"/>
		</g>
		<g id="shape136-178" v:mID="136" v:groupContext="shape" transform="translate(0.375,-74.3861)">
			<title>Sheet.136</title>
			<desc>PWMxA</desc>
			<v:textBlock v:margins="rect(0,0,0,0)" v:tabSpace="42.5197"/>
			<v:textRect cx="28.3465" cy="211.169" width="56.7" height="12.0277"/>
			<path d="M56.69 205.15 L0 205.15 L0 217.18 L56.69 217.18 L56.69 205.15" class="st6"/>
			<text x="10.26" y="214.17" class="st7" v:langID="2052"><v:paragraph v:horizAlign="1"/><v:tabList/>PWMxA</text>		</g>
		<g id="shape137-182" v:mID="137" v:groupContext="shape" transform="translate(1.73834,-21.9739)">
			<title>Sheet.137</title>
			<desc>PWMxAn</desc>
			<v:textBlock v:margins="rect(0,0,0,0)" v:tabSpace="42.5197"/>
			<v:textRect cx="27.6648" cy="211.169" width="55.33" height="12.0277"/>
			<path d="M55.33 205.15 L0 205.15 L0 217.18 L55.33 217.18 L55.33 205.15" class="st6"/>
			<text x="6.79" y="214.17" class="st7" v:langID="2052"><v:paragraph v:horizAlign="1"/><v:tabList/>PWMxAn</text>		</g>
		<g id="shape157-186" v:mID="157" v:groupContext="shape" transform="translate(163.434,-18)">
			<title>Sheet.157</title>
			<desc>DZAnx</desc>
			<v:textBlock v:margins="rect(4,4,4,4)" v:tabSpace="42.5197"/>
			<v:textRect cx="19.9385" cy="208.571" width="39.88" height="17.2224"/>
			<rect x="0" y="199.96" width="39.877" height="17.2224" class="st9"/>
			<text x="7.71" y="210.97" class="st10" v:langID="2052"><v:paragraph v:horizAlign="1"/><v:tabList/>DZAnx</text>		</g>
		<g id="shape158-189" v:mID="158" v:groupContext="shape" transform="translate(356.973,-19.9143)">
			<title>Sheet.158</title>
			<desc>DZAnx</desc>
			<v:textBlock v:margins="rect(4,4,4,4)" v:tabSpace="42.5197"/>
			<v:textRect cx="19.9385" cy="206.553" width="39.88" height="21.2598"/>
			<rect x="0" y="195.923" width="39.877" height="21.2598" class="st9"/>
			<text x="7.71" y="208.95" class="st10" v:langID="2052"><v:paragraph v:horizAlign="1"/><v:tabList/>DZAnx</text>		</g>
		<g id="shape159-192" v:mID="159" v:groupContext="shape" transform="translate(251.95,-71.7143)">
			<title>Sheet.159</title>
			<desc>DZAx</desc>
			<v:textBlock v:margins="rect(4,4,4,4)" v:tabSpace="42.5197"/>
			<v:textRect cx="15.9554" cy="206.553" width="31.92" height="21.2598"/>
			<rect x="0" y="195.923" width="31.9108" height="21.2598" class="st9"/>
			<text x="5.96" y="208.95" class="st10" v:langID="2052"><v:paragraph v:horizAlign="1"/><v:tabList/>DZAx</text>		</g>
		<g id="shape160-195" v:mID="160" v:groupContext="shape" transform="translate(444.848,-72.2406)">
			<title>Sheet.160</title>
			<desc>DZAx</desc>
			<v:textBlock v:margins="rect(4,4,4,4)" v:tabSpace="42.5197"/>
			<v:textRect cx="15.9554" cy="210.166" width="31.92" height="14.0333"/>
			<rect x="0" y="203.149" width="31.9108" height="14.0333" class="st9"/>
			<text x="5.96" y="212.57" class="st10" v:langID="2052"><v:paragraph v:horizAlign="1"/><v:tabList/>DZAx</text>		</g>
	</g>
</svg>
