<?xml version="1.0" encoding="UTF-8" standalone="no"?>
<!DOCTYPE svg PUBLIC "-//W3C//DTD SVG 1.1//EN" "http://www.w3.org/Graphics/SVG/1.1/DTD/svg11.dtd">
<!-- Generated by Microsoft Visio, SVG Export busmatrix.svg 连接矩阵 -->
<svg xmlns="http://www.w3.org/2000/svg" xmlns:xlink="http://www.w3.org/1999/xlink" xmlns:ev="http://www.w3.org/2001/xml-events"
		width="7.61841in" height="7.08291in" viewBox="0 0 548.526 509.97" xml:space="preserve" color-interpolation-filters="sRGB"
		class="st12">
	<style type="text/css">
	<![CDATA[
		.st1 {visibility:visible}
		.st2 {stroke:#cdcdcd;stroke-linecap:round;stroke-linejoin:round;stroke-opacity:0.5;stroke-width:0.25}
		.st3 {stroke:#404040;stroke-linecap:round;stroke-linejoin:round;stroke-width:0.25}
		.st4 {fill:none;stroke:none;stroke-linecap:round;stroke-linejoin:round;stroke-width:0.25}
		.st5 {fill:#000000;font-family:Calibri;font-size:1.16666em}
		.st6 {fill:#cdcdcd;fill-opacity:0.5;stroke:#cdcdcd;stroke-linecap:round;stroke-linejoin:round;stroke-opacity:0.5}
		.st7 {fill:url(#grad0-7);stroke:#404040;stroke-linecap:round;stroke-linejoin:round;stroke-width:0.25}
		.st8 {fill:#000000;font-family:Calibri;font-size:0.833336em}
		.st9 {font-size:1em}
		.st10 {fill:url(#grad0-176);stroke:#000000;stroke-linecap:round;stroke-linejoin:round;stroke-width:0.25}
		.st11 {fill:#000000;font-family:Calibri;font-size:0.75em}
		.st12 {fill:none;fill-rule:evenodd;font-size:12px;overflow:visible;stroke-linecap:square;stroke-miterlimit:3}
	]]>
	</style>

	<defs id="Patterns_And_Gradients">
		<linearGradient id="grad0-7" x1="0" y1="0" x2="1" y2="0" gradientTransform="rotate(270 0.5 0.5)">
			<stop offset="0" stop-color="#f0f0f0" stop-opacity="1"/>
			<stop offset="1" stop-color="#ffffff" stop-opacity="1"/>
		</linearGradient>
		<linearGradient id="grad0-176" x1="0" y1="0" x2="1" y2="0" gradientTransform="rotate(270 0.5 0.5)">
			<stop offset="0" stop-color="#000000" stop-opacity="1"/>
			<stop offset="1" stop-color="#000000" stop-opacity="1"/>
		</linearGradient>
	</defs>
	<g>
		<title>连接矩阵</title>
		<g id="shape1-1" transform="translate(37.9675,-363.68)">
			<title>Sheet.1</title>
			<g id="shadow1-2" transform="matrix(1,0,0,1,1.44,1.44)" class="st1">
				<path d="M0 509.97 L277.26 509.97" class="st2"/>
			</g>
			<path d="M0 509.97 L277.26 509.97" class="st3"/>
		</g>
		<g id="shape2-9" transform="translate(37.2589,-268.72)">
			<title>Sheet.2</title>
			<g id="shadow2-10" transform="matrix(1,0,0,1,1.44,1.44)" class="st1">
				<path d="M0 509.97 L277.26 509.97" class="st2"/>
			</g>
			<path d="M0 509.97 L277.26 509.97" class="st3"/>
		</g>
		<g id="shape3-16" transform="translate(36.5502,-181.074)">
			<title>Sheet.3</title>
			<g id="shadow3-17" transform="matrix(1,0,0,1,1.44,1.44)" class="st1">
				<path d="M0 509.97 L277.97 509.97" class="st2"/>
			</g>
			<path d="M0 509.97 L277.97 509.97" class="st3"/>
		</g>
		<g id="shape4-23" transform="translate(35.8415,-103.122)">
			<title>Sheet.4</title>
			<g id="shadow4-24" transform="matrix(1,0,0,1,1.44,1.44)" class="st1">
				<path d="M0 509.97 L277.97 509.97" class="st2"/>
			</g>
			<path d="M0 509.97 L277.97 509.97" class="st3"/>
		</g>
		<g id="shape5-30" transform="translate(36.5502,-46.4287)">
			<title>Sheet.5</title>
			<g id="shadow5-31" transform="matrix(1,0,0,1,1.44,1.44)" class="st1">
				<path d="M0 509.97 L279.39 509.97" class="st2"/>
			</g>
			<path d="M0 509.97 L279.39 509.97" class="st3"/>
		</g>
		<g id="shape6-37" transform="translate(581.953,133.99) rotate(89.9886)">
			<title>Sheet.6</title>
			<g id="shadow6-38" transform="matrix(1,0,0,1,1.44029,-1.43971)" class="st1">
				<path d="M0 509.97 L329.45 509.97" class="st2"/>
			</g>
			<path d="M0 509.97 L329.45 509.97" class="st3"/>
		</g>
		<g id="shape7-44" transform="translate(18.8337,-406.2)">
			<title>Sheet.7</title>
			<g id="shadow7-45" transform="matrix(1,0,0,1,1.44,1.44)" class="st1">
				<path d="M0 509.97 L321.91 509.97" class="st2"/>
			</g>
			<path d="M0 509.97 L321.91 509.97" class="st3"/>
		</g>
		<g id="shape8-51" transform="translate(50.7234,-384.94)">
			<title>Sheet.8</title>
			<desc>M0</desc>
			<rect x="0" y="495.796" width="42.5197" height="14.1732" class="st4"/>
			<text x="11.73" y="507.08" class="st5">M0</text>		</g>
		<g id="shape9-54" transform="translate(581.953,47.0765) rotate(90)">
			<title>Sheet.9</title>
			<g id="shadow9-55" transform="matrix(1,0,0,1,1.44,-1.44)" class="st1">
				<path d="M0 509.97 L56.69 509.97" class="st2"/>
			</g>
			<path d="M0 509.97 L56.69 509.97" class="st3"/>
		</g>
		<g id="shape11-61" transform="translate(199.542,-386.358)">
			<title>Sheet.11</title>
			<desc>M1</desc>
			<rect x="0" y="495.796" width="42.5197" height="14.1732" class="st4"/>
			<text x="11.73" y="507.08" class="st5">M1</text>		</g>
		<g id="shape12-64" transform="translate(256.235,-386.358)">
			<title>Sheet.12</title>
			<desc>M2</desc>
			<rect x="0" y="495.796" width="42.5197" height="14.1732" class="st4"/>
			<text x="11.73" y="507.08" class="st5">M2</text>		</g>
		<g id="shape13-67" transform="translate(730.772,32.9033) rotate(90)">
			<title>Sheet.13</title>
			<g id="shadow13-68" transform="matrix(1,0,0,1,1.44,-1.44)" class="st1">
				<path d="M0 509.97 L70.87 509.97" class="st2"/>
			</g>
			<path d="M0 509.97 L70.87 509.97" class="st3"/>
		</g>
		<g id="shape14-74" transform="translate(788.173,32.9033) rotate(90)">
			<title>Sheet.14</title>
			<g id="shadow14-75" transform="matrix(1,0,0,1,1.44,-1.44)" class="st1">
				<path d="M0 509.97 L70.87 509.97" class="st2"/>
			</g>
			<path d="M0 509.97 L70.87 509.97" class="st3"/>
		</g>
		<g id="shape15-81" transform="translate(206.629,-435.152)">
			<title>Sheet.15</title>
			<desc>DMA</desc>
			<g id="shadow15-82" transform="matrix(1,0,0,1,1.44,1.44)" class="st1">
				<rect x="0" y="453.277" width="85.0394" height="56.6929" class="st6"/>
			</g>
			<rect x="0" y="453.277" width="85.0394" height="56.6929" class="st7"/>
			<text x="28.18" y="485.82" class="st5">DMA</text>		</g>
		<g id="shape16-87" transform="translate(29.7973,-435.152)">
			<title>Sheet.16</title>
			<desc>M0</desc>
			<g id="shadow16-88" transform="matrix(1,0,0,1,1.44,1.44)" class="st1">
				<rect x="0" y="453.277" width="85.0394" height="56.6929" class="st6"/>
			</g>
			<rect x="0" y="453.277" width="85.0394" height="56.6929" class="st7"/>
			<text x="32.99" y="485.82" class="st5">M0</text>		</g>
		<g id="shape31-93" transform="translate(850.713,103.769) rotate(90)">
			<title>Sheet.31</title>
			<g id="shadow31-94" transform="matrix(1,0,0,1,1.44,-1.44)" class="st1">
				<path d="M0 509.97 L386.64 509.97" class="st2"/>
			</g>
			<path d="M0 509.97 L386.64 509.97" class="st3"/>
		</g>
		<g id="shape32-100" transform="translate(787.464,131.579) rotate(89.9397)">
			<title>Sheet.32</title>
			<g id="shadow32-101" transform="matrix(1,2.1684E-19,-2.1684E-19,1,1.44152,-1.43848)" class="st1">
				<path d="M0 509.97 L331.43 509.97" class="st2"/>
			</g>
			<path d="M0 509.97 L331.43 509.97" class="st3"/>
		</g>
		<g id="shape33-107" transform="translate(730.772,136.074) rotate(90)">
			<title>Sheet.33</title>
			<g id="shadow33-108" transform="matrix(1,0,0,1,1.44,-1.44)" class="st1">
				<path d="M0 509.97 L329.24 509.97" class="st2"/>
			</g>
			<path d="M0 509.97 L329.24 509.97" class="st3"/>
		</g>
		<g id="shape34-114" transform="translate(340.743,-363.68)">
			<title>Sheet.34</title>
			<g id="shadow34-115" transform="matrix(1,0,0,1,1.44,1.44)" class="st1">
				<path d="M0 509.97 L45.18 509.97" class="st2"/>
			</g>
			<path d="M0 509.97 L45.18 509.97" class="st3"/>
		</g>
		<g id="shape35-121" transform="translate(305.31,-356.594)">
			<title>Sheet.35</title>
			<desc>S0</desc>
			<rect x="0" y="495.796" width="42.5197" height="14.1732" class="st4"/>
			<text x="14.5" y="507.08" class="st5">S0</text>		</g>
		<g id="shape36-124" transform="translate(305.31,-261.633)">
			<title>Sheet.36</title>
			<desc>S1</desc>
			<rect x="0" y="495.796" width="42.5197" height="14.1732" class="st4"/>
			<text x="14.5" y="507.08" class="st5">S1</text>		</g>
		<g id="shape37-127" transform="translate(305.31,-173.988)">
			<title>Sheet.37</title>
			<desc>S2</desc>
			<rect x="0" y="495.796" width="42.5197" height="14.1732" class="st4"/>
			<text x="14.5" y="507.08" class="st5">S2</text>		</g>
		<g id="shape38-130" transform="translate(305.31,-96.035)">
			<title>Sheet.38</title>
			<desc>S3</desc>
			<rect x="0" y="495.796" width="42.5197" height="14.1732" class="st4"/>
			<text x="14.5" y="507.08" class="st5">S3</text>		</g>
		<g id="shape39-133" transform="translate(305.31,-39.3421)">
			<title>Sheet.39</title>
			<desc>S4</desc>
			<rect x="0" y="495.796" width="42.5197" height="14.1732" class="st4"/>
			<text x="14.5" y="507.08" class="st5">S4</text>		</g>
		<g id="shape42-136" transform="translate(18.125,-19.565)">
			<title>Sheet.42</title>
			<g id="shadow42-137" transform="matrix(1,0,0,1,1.44,1.44)" class="st1">
				<path d="M0 509.97 L322.62 509.97" class="st2"/>
			</g>
			<path d="M0 509.97 L322.62 509.97" class="st3"/>
		</g>
		<g id="shape43-143" transform="translate(528.095,103.683) rotate(89.9903)">
			<title>Sheet.43</title>
			<g id="shadow43-144" transform="matrix(1,2.71051E-20,-2.71051E-20,1,1.44024,-1.43976)" class="st1">
				<path d="M0 509.97 L386.64 509.97" class="st2"/>
			</g>
			<path d="M0 509.97 L386.64 509.97" class="st3"/>
		</g>
		<g id="shape45-150" transform="translate(415.309,-269.657)">
			<title>Sheet.45</title>
			<g id="shadow45-151" transform="matrix(1,0,0,1,1.44,1.44)" class="st1">
				<path d="M0 509.97 L42.52 509.97" class="st2"/>
			</g>
			<path d="M0 509.97 L42.52 509.97" class="st3"/>
		</g>
		<g id="shape46-157" transform="translate(415.309,619.888) rotate(180)">
			<title>Sheet.46</title>
			<desc>ROM INTERFACE</desc>
			<g id="shadow46-158" transform="matrix(1,0,0,1,-1.44,-1.44)" class="st1">
				<rect x="0" y="439.103" width="42.5197" height="70.8661" class="st6"/>
			</g>
			<rect x="0" y="439.103" width="42.5197" height="70.8661" class="st7"/>
			<text x="27.26" y="464.24" writing-mode="tb-rl" class="st8">ROM <tspan dx="-1.2em" y="45.216em 45.468em" class="st9">IN</tspan>TERFACE</text>		</g>
		<g id="shape48-164" transform="translate(415.309,-364.618)">
			<title>Sheet.48</title>
			<g id="shadow48-165" transform="matrix(1,0,0,1,1.44,1.44)" class="st1">
				<path d="M0 509.97 L42.52 509.97" class="st2"/>
			</g>
			<path d="M0 509.97 L42.52 509.97" class="st3"/>
		</g>
		<g id="shape49-171" transform="translate(68.44,-360.137)">
			<title>Sheet.49</title>
			<g id="shadow49-172" transform="matrix(1,0,0,1,1.44,1.44)" class="st1">
				<ellipse cx="3.54331" cy="506.426" rx="3.54331" ry="3.54331" class="st6"/>
			</g>
			<ellipse cx="3.54331" cy="506.426" rx="3.54331" ry="3.54331" class="st10"/>
		</g>
		<g id="shape51-177" transform="translate(340.034,-181.074)">
			<title>Sheet.51</title>
			<g id="shadow51-178" transform="matrix(1,0,0,1,1.44,1.44)" class="st1">
				<path d="M0 509.97 L45.89 509.97" class="st2"/>
			</g>
			<path d="M0 509.97 L45.89 509.97" class="st3"/>
		</g>
		<g id="shape52-184" transform="translate(415.309,-181.074)">
			<title>Sheet.52</title>
			<g id="shadow52-185" transform="matrix(1,0,0,1,1.44,1.44)" class="st1">
				<path d="M0 509.97 L42.35 509.97" class="st2"/>
			</g>
			<path d="M0 509.97 L42.35 509.97" class="st3"/>
		</g>
		<g id="shape55-191" transform="translate(340.743,-103.196)">
			<title>Sheet.55</title>
			<g id="shadow55-192" transform="matrix(1,0,0,1,1.44,1.44)" class="st1">
				<path d="M0 509.97 L99.21 509.97" class="st2"/>
			</g>
			<path d="M0 509.97 L99.21 509.97" class="st3"/>
		</g>
		<g id="shape57-198" transform="translate(340.743,-46.5033)">
			<title>Sheet.57</title>
			<g id="shadow57-199" transform="matrix(1,0,0,1,1.44,1.44)" class="st1">
				<path d="M0 509.97 L99.21 509.97" class="st2"/>
			</g>
			<path d="M0 509.97 L99.21 509.97" class="st3"/>
		</g>
		<g id="shape60-205" transform="translate(68.44,-265.176)">
			<title>Sheet.60</title>
			<g id="shadow60-206" transform="matrix(1,0,0,1,1.44,1.44)" class="st1">
				<ellipse cx="3.54331" cy="506.426" rx="3.54331" ry="3.54331" class="st6"/>
			</g>
			<ellipse cx="3.54331" cy="506.426" rx="3.54331" ry="3.54331" class="st10"/>
		</g>
		<g id="shape61-210" transform="translate(68.44,-177.531)">
			<title>Sheet.61</title>
			<g id="shadow61-211" transform="matrix(1,0,0,1,1.44,1.44)" class="st1">
				<ellipse cx="3.54331" cy="506.426" rx="3.54331" ry="3.54331" class="st6"/>
			</g>
			<ellipse cx="3.54331" cy="506.426" rx="3.54331" ry="3.54331" class="st10"/>
		</g>
		<g id="shape62-215" transform="translate(68.44,-98.8697)">
			<title>Sheet.62</title>
			<g id="shadow62-216" transform="matrix(1,0,0,1,1.44,1.44)" class="st1">
				<ellipse cx="3.54331" cy="506.426" rx="3.54331" ry="3.54331" class="st6"/>
			</g>
			<ellipse cx="3.54331" cy="506.426" rx="3.54331" ry="3.54331" class="st10"/>
		</g>
		<g id="shape63-220" transform="translate(68.44,-42.1768)">
			<title>Sheet.63</title>
			<g id="shadow63-221" transform="matrix(1,0,0,1,1.44,1.44)" class="st1">
				<ellipse cx="3.54331" cy="506.426" rx="3.54331" ry="3.54331" class="st6"/>
			</g>
			<ellipse cx="3.54331" cy="506.426" rx="3.54331" ry="3.54331" class="st10"/>
		</g>
		<g id="shape65-225" transform="translate(217.259,-177.177)">
			<title>Sheet.65</title>
			<g id="shadow65-226" transform="matrix(1,0,0,1,1.44,1.44)" class="st1">
				<ellipse cx="3.54331" cy="506.426" rx="3.54331" ry="3.54331" class="st6"/>
			</g>
			<ellipse cx="3.54331" cy="506.426" rx="3.54331" ry="3.54331" class="st10"/>
		</g>
		<g id="shape66-230" transform="translate(217.259,-98.5154)">
			<title>Sheet.66</title>
			<g id="shadow66-231" transform="matrix(1,0,0,1,1.44,1.44)" class="st1">
				<ellipse cx="3.54331" cy="506.426" rx="3.54331" ry="3.54331" class="st6"/>
			</g>
			<ellipse cx="3.54331" cy="506.426" rx="3.54331" ry="3.54331" class="st10"/>
		</g>
		<g id="shape67-235" transform="translate(217.259,-41.8224)">
			<title>Sheet.67</title>
			<g id="shadow67-236" transform="matrix(1,0,0,1,1.44,1.44)" class="st1">
				<ellipse cx="3.54331" cy="506.426" rx="3.54331" ry="3.54331" class="st6"/>
			</g>
			<ellipse cx="3.54331" cy="506.426" rx="3.54331" ry="3.54331" class="st10"/>
		</g>
		<g id="shape69-240" transform="translate(273.952,-177.177)">
			<title>Sheet.69</title>
			<g id="shadow69-241" transform="matrix(1,0,0,1,1.44,1.44)" class="st1">
				<ellipse cx="3.54331" cy="506.426" rx="3.54331" ry="3.54331" class="st6"/>
			</g>
			<ellipse cx="3.54331" cy="506.426" rx="3.54331" ry="3.54331" class="st10"/>
		</g>
		<g id="shape70-245" transform="translate(273.952,-98.5154)">
			<title>Sheet.70</title>
			<g id="shadow70-246" transform="matrix(1,0,0,1,1.44,1.44)" class="st1">
				<ellipse cx="3.54331" cy="506.426" rx="3.54331" ry="3.54331" class="st6"/>
			</g>
			<ellipse cx="3.54331" cy="506.426" rx="3.54331" ry="3.54331" class="st10"/>
		</g>
		<g id="shape71-250" transform="translate(273.952,-41.8224)">
			<title>Sheet.71</title>
			<g id="shadow71-251" transform="matrix(1,0,0,1,1.44,1.44)" class="st1">
				<ellipse cx="3.54331" cy="506.426" rx="3.54331" ry="3.54331" class="st6"/>
			</g>
			<ellipse cx="3.54331" cy="506.426" rx="3.54331" ry="3.54331" class="st10"/>
		</g>
		<g id="shape73-255" transform="translate(340.743,-268.72)">
			<title>Sheet.73</title>
			<g id="shadow73-256" transform="matrix(1,0,0,1,1.44,1.44)" class="st1">
				<path d="M0 509.97 L44.47 509.97" class="st2"/>
			</g>
			<path d="M0 509.97 L44.47 509.97" class="st3"/>
		</g>
		<g id="shape78-262" transform="translate(217.628,-264.559)">
			<title>Sheet.78</title>
			<g id="shadow78-263" transform="matrix(1,0,0,1,1.44,1.44)" class="st1">
				<ellipse cx="3.54331" cy="506.426" rx="3.54331" ry="3.54331" class="st6"/>
			</g>
			<ellipse cx="3.54331" cy="506.426" rx="3.54331" ry="3.54331" class="st10"/>
		</g>
		<g id="shape79-267" transform="translate(274.321,-264.559)">
			<title>Sheet.79</title>
			<g id="shadow79-268" transform="matrix(1,0,0,1,1.44,1.44)" class="st1">
				<ellipse cx="3.54331" cy="506.426" rx="3.54331" ry="3.54331" class="st6"/>
			</g>
			<ellipse cx="3.54331" cy="506.426" rx="3.54331" ry="3.54331" class="st10"/>
		</g>
		<g id="shape80-272" transform="translate(217.628,-360.229)">
			<title>Sheet.80</title>
			<g id="shadow80-273" transform="matrix(1,0,0,1,1.44,1.44)" class="st1">
				<ellipse cx="3.54331" cy="506.426" rx="3.54331" ry="3.54331" class="st6"/>
			</g>
			<ellipse cx="3.54331" cy="506.426" rx="3.54331" ry="3.54331" class="st10"/>
		</g>
		<g id="shape81-277" transform="translate(274.321,-360.229)">
			<title>Sheet.81</title>
			<g id="shadow81-278" transform="matrix(1,0,0,1,1.44,1.44)" class="st1">
				<ellipse cx="3.54331" cy="506.426" rx="3.54331" ry="3.54331" class="st6"/>
			</g>
			<ellipse cx="3.54331" cy="506.426" rx="3.54331" ry="3.54331" class="st10"/>
		</g>
		<g id="shape30-282" transform="translate(415.309,713.432) rotate(180)">
			<title>Sheet.30</title>
			<desc>FLASH INTERFACE</desc>
			<g id="shadow30-283" transform="matrix(1,0,0,1,-1.44,-1.44)" class="st1">
				<rect x="0" y="433.434" width="42.5197" height="76.5354" class="st6"/>
			</g>
			<rect x="0" y="433.434" width="42.5197" height="76.5354" class="st7"/>
			<text x="21.26" y="439.11" writing-mode="tb-rl" class="st11">FLASH INTERFACE</text>		</g>
		<g id="shape50-288" transform="translate(415.309,811.559) rotate(180)">
			<title>Sheet.50</title>
			<desc>SRAM INTERCACEF</desc>
			<g id="shadow50-289" transform="matrix(1,0,0,1,-1.44,-1.44)" class="st1">
				<rect x="0" y="453.277" width="42.5197" height="56.6929" class="st6"/>
			</g>
			<rect x="0" y="453.277" width="42.5197" height="56.6929" class="st7"/>
			<text x="26.66" y="470.66" writing-mode="tb-rl" class="st11">SRAM <tspan dx="-1.2em" y="51.009em 51.261em" class="st9">IN</tspan>TERCACEF</text>		</g>
		<g id="shape54-295" transform="translate(440.821,894.774) rotate(180)">
			<title>Sheet.54</title>
			<desc>AHB</desc>
			<g id="shadow54-296" transform="matrix(1,0,0,1,-1.44,-1.44)" class="st1">
				<rect x="0" y="466.033" width="42.5197" height="43.937" class="st6"/>
			</g>
			<rect x="0" y="466.033" width="42.5197" height="43.937" class="st7"/>
			<text x="21.26" y="475.78" writing-mode="tb-rl" class="st5">AHB</text>		</g>
		<g id="shape56-301" transform="translate(440.821,951.467) rotate(180)">
			<title>Sheet.56</title>
			<desc>APB</desc>
			<g id="shadow56-302" transform="matrix(1,0,0,1,-1.44,-1.44)" class="st1">
				<rect x="0" y="466.033" width="42.5197" height="43.937" class="st6"/>
			</g>
			<rect x="0" y="466.033" width="42.5197" height="43.937" class="st7"/>
			<text x="21.26" y="476.53" writing-mode="tb-rl" class="st5">APB</text>		</g>
		<g id="shape44-307" transform="translate(443.921,-239.413)">
			<title>Sheet.44</title>
			<desc>FLASH (128KB)</desc>
			<g id="shadow44-308" transform="matrix(1,0,0,1,1.44,1.44)" class="st1">
				<rect x="0" y="453.277" width="85.0394" height="56.6929" class="st6"/>
			</g>
			<rect x="0" y="453.277" width="85.0394" height="56.6929" class="st7"/>
			<text x="24.73" y="477.42" class="st5">FLASH <tspan x="20.19" dy="1.2em" class="st9">(128KB)</tspan></text>		</g>
		<g id="shape47-314" transform="translate(443.39,-336.271)">
			<title>Sheet.47</title>
			<desc>ROM CODE</desc>
			<g id="shadow47-315" transform="matrix(1,0,0,1,1.44,1.44)" class="st1">
				<rect x="0" y="453.277" width="85.0394" height="56.6929" class="st6"/>
			</g>
			<rect x="0" y="453.277" width="85.0394" height="56.6929" class="st7"/>
			<text x="10.43" y="485.82" class="st5">ROM CODE</text>		</g>
		<g id="shape53-320" transform="translate(443.481,-158.329)">
			<title>Sheet.53</title>
			<desc>SRAM</desc>
			<g id="shadow53-321" transform="matrix(1,0,0,1,1.44,1.44)" class="st1">
				<rect x="0" y="464.615" width="85.0394" height="45.3543" class="st6"/>
			</g>
			<rect x="0" y="464.615" width="85.0394" height="45.3543" class="st7"/>
			<text x="25.47" y="491.49" class="st5">SRAM</text>		</g>
	</g>
</svg>
