<?xml version="1.0" encoding="UTF-8" standalone="no"?>
<!DOCTYPE svg PUBLIC "-//W3C//DTD SVG 1.1//EN" "http://www.w3.org/Graphics/SVG/1.1/DTD/svg11.dtd">
<!-- Generated by Microsoft Visio, SVG Export busmatrix.svg 连接矩阵 -->
<svg xmlns="http://www.w3.org/2000/svg" xmlns:xlink="http://www.w3.org/1999/xlink" xmlns:ev="http://www.w3.org/2001/xml-events"
		xmlns:v="http://schemas.microsoft.com/visio/2003/SVGExtensions/" width="7.884in" height="7.06944in"
		viewBox="0 0 567.648 509" xml:space="preserve" color-interpolation-filters="sRGB" class="st9">
	<v:documentProperties v:langID="2052" v:metric="true" v:viewMarkup="false">
		<v:userDefs>
			<v:ud v:nameU="msvSubprocessMaster" v:prompt="" v:val="VT4(Rectangle)"/>
			<v:ud v:nameU="msvNoAutoConnect" v:val="VT0(1):26"/>
			<v:ud v:nameU="msvConvertTheme"/>
		</v:userDefs>
	</v:documentProperties>

	<style type="text/css">
	<![CDATA[
		.st1 {stroke:#000000;stroke-linecap:round;stroke-linejoin:round;stroke-width:0.24}
		.st2 {stroke:#000000;stroke-linecap:round;stroke-linejoin:round;stroke-width:1.2}
		.st3 {fill:none;stroke:none;stroke-linecap:round;stroke-linejoin:round;stroke-width:0.75}
		.st4 {fill:#000000;font-family:Arial;font-size:1.00001em}
		.st5 {fill:#e8eef7;stroke:#000000;stroke-linecap:round;stroke-linejoin:round;stroke-width:0.24}
		.st6 {fill:#000000;stroke:#000000;stroke-linecap:round;stroke-linejoin:round;stroke-width:0.24}
		.st7 {font-size:1em}
		.st8 {fill:#000000;font-family:Arial;font-size:0.833336em}
		.st9 {fill:none;fill-rule:evenodd;font-size:12px;overflow:visible;stroke-linecap:square;stroke-miterlimit:3}
	]]>
	</style>

	<g v:mID="4" v:index="1" v:groupContext="foregroundPage">
		<title>连接矩阵</title>
		<v:pageProperties v:drawingScale="0.0393701" v:pageScale="0.0393701" v:drawingUnits="24" v:shadowOffsetX="8.50394"
				v:shadowOffsetY="-8.50394"/>
		<g id="shape1-1" v:mID="1" v:groupContext="shape" transform="translate(38.4425,-362.715)">
			<title>Sheet.1</title>
			<path d="M0 509 L277.25 509" class="st1"/>
		</g>
		<g id="shape2-4" v:mID="2" v:groupContext="shape" transform="translate(37.7339,-267.755)">
			<title>Sheet.2</title>
			<path d="M0 509 L277.26 509" class="st1"/>
		</g>
		<g id="shape3-7" v:mID="3" v:groupContext="shape" transform="translate(37.0252,-180.109)">
			<title>Sheet.3</title>
			<path d="M0 509 L277.97 509" class="st1"/>
		</g>
		<g id="shape4-10" v:mID="4" v:groupContext="shape" transform="translate(36.3165,-102.157)">
			<title>Sheet.4</title>
			<path d="M0 509 L277.97 509" class="st1"/>
		</g>
		<g id="shape5-13" v:mID="5" v:groupContext="shape" transform="translate(37.0252,-45.4637)">
			<title>Sheet.5</title>
			<path d="M0 509 L279.39 509" class="st1"/>
		</g>
		<g id="shape6-16" v:mID="6" v:groupContext="shape" transform="translate(581.523,127.74) rotate(90)">
			<title>Sheet.6</title>
			<path d="M0 509 L335.8 509" class="st1"/>
		</g>
		<g id="shape7-19" v:mID="7" v:groupContext="shape" transform="translate(19.3087,-405.235)">
			<title>Sheet.7</title>
			<path d="M0 509 L321.91 509" class="st2"/>
		</g>
		<g id="shape8-22" v:mID="8" v:groupContext="shape" transform="translate(51.1984,-383.975)">
			<title>Sheet.8</title>
			<desc>M0</desc>
			<v:textBlock v:margins="rect(4,4,4,4)" v:tabSpace="42.5197"/>
			<v:textRect cx="21.2598" cy="501.913" width="42.52" height="14.1732"/>
			<rect x="0" y="494.826" width="42.5197" height="14.1732" class="st3"/>
			<text x="12.92" y="505.51" class="st4" v:langID="2052"><v:paragraph v:horizAlign="1"/><v:tabList/>M0</text>		</g>
		<g id="shape9-25" v:mID="9" v:groupContext="shape" transform="translate(581.458,47.0715) rotate(90)">
			<title>Sheet.9</title>
			<path d="M0 509 L56.69 509" class="st1"/>
		</g>
		<g id="shape11-28" v:mID="11" v:groupContext="shape" transform="translate(200.017,-383.975)">
			<title>Sheet.11</title>
			<desc>M1</desc>
			<v:textBlock v:margins="rect(4,4,4,4)" v:tabSpace="42.5197"/>
			<v:textRect cx="21.2598" cy="501.913" width="42.52" height="14.1732"/>
			<rect x="0" y="494.826" width="42.5197" height="14.1732" class="st3"/>
			<text x="12.92" y="505.51" class="st4" v:langID="2052"><v:paragraph v:horizAlign="1"/><v:tabList/>M1</text>		</g>
		<g id="shape12-31" v:mID="12" v:groupContext="shape" transform="translate(256.71,-383.975)">
			<title>Sheet.12</title>
			<desc>M2</desc>
			<v:textBlock v:margins="rect(4,4,4,4)" v:tabSpace="42.5197"/>
			<v:textRect cx="21.2598" cy="501.913" width="42.52" height="14.1732"/>
			<rect x="0" y="494.826" width="42.5197" height="14.1732" class="st3"/>
			<text x="12.92" y="505.51" class="st4" v:langID="2052"><v:paragraph v:horizAlign="1"/><v:tabList/>M2</text>		</g>
		<g id="shape13-34" v:mID="13" v:groupContext="shape" transform="translate(730.277,32.8983) rotate(90)">
			<title>Sheet.13</title>
			<path d="M0 509 L70.87 509" class="st1"/>
		</g>
		<g id="shape14-37" v:mID="14" v:groupContext="shape" transform="translate(787.678,32.8983) rotate(90)">
			<title>Sheet.14</title>
			<path d="M0 509 L70.87 509" class="st1"/>
		</g>
		<g id="shape15-40" v:mID="15" v:groupContext="shape" transform="translate(207.104,-434.187)">
			<title>Sheet.15</title>
			<desc>DMA</desc>
			<v:textBlock v:margins="rect(4,4,4,4)" v:tabSpace="42.5197"/>
			<v:textRect cx="42.5197" cy="480.653" width="85.04" height="56.6929"/>
			<rect x="0" y="452.307" width="85.0394" height="56.6929" class="st5"/>
			<text x="29.19" y="484.25" class="st4" v:langID="2052"><v:paragraph v:horizAlign="1"/><v:tabList/>DMA</text>		</g>
		<g id="shape16-43" v:mID="16" v:groupContext="shape" transform="translate(30.2723,-434.187)">
			<title>Sheet.16</title>
			<desc>M0</desc>
			<v:textBlock v:margins="rect(4,4,4,4)" v:tabSpace="42.5197"/>
			<v:textRect cx="42.5197" cy="480.653" width="85.04" height="56.6929"/>
			<rect x="0" y="452.307" width="85.0394" height="56.6929" class="st5"/>
			<text x="34.18" y="484.25" class="st4" v:langID="2052"><v:paragraph v:horizAlign="1"/><v:tabList/>M0</text>		</g>
		<g id="shape31-46" v:mID="31" v:groupContext="shape" transform="translate(850.218,103.764) rotate(90)">
			<title>Sheet.31</title>
			<path d="M0 509 L386.64 509" class="st2"/>
		</g>
		<g id="shape32-49" v:mID="32" v:groupContext="shape" transform="translate(787.318,128.55) rotate(90)">
			<title>Sheet.32</title>
			<path d="M0 509 L334.99 509" class="st1"/>
		</g>
		<g id="shape33-52" v:mID="33" v:groupContext="shape" transform="translate(730.277,128.347) rotate(90)">
			<title>Sheet.33</title>
			<path d="M0 509 L336.96 509" class="st1"/>
		</g>
		<g id="shape35-55" v:mID="35" v:groupContext="shape" transform="translate(305.785,-355.629)">
			<title>Sheet.35</title>
			<desc>S0</desc>
			<v:textBlock v:margins="rect(4,4,4,4)" v:tabSpace="42.5197"/>
			<v:textRect cx="21.2598" cy="501.913" width="42.52" height="14.1732"/>
			<rect x="0" y="494.826" width="42.5197" height="14.1732" class="st3"/>
			<text x="13.92" y="505.51" class="st4" v:langID="2052"><v:paragraph v:horizAlign="1"/><v:tabList/>S0</text>		</g>
		<g id="shape36-58" v:mID="36" v:groupContext="shape" transform="translate(305.785,-260.668)">
			<title>Sheet.36</title>
			<desc>S1</desc>
			<v:textBlock v:margins="rect(4,4,4,4)" v:tabSpace="42.5197"/>
			<v:textRect cx="21.2598" cy="501.913" width="42.52" height="14.1732"/>
			<rect x="0" y="494.826" width="42.5197" height="14.1732" class="st3"/>
			<text x="13.92" y="505.51" class="st4" v:langID="2052"><v:paragraph v:horizAlign="1"/><v:tabList/>S1</text>		</g>
		<g id="shape37-61" v:mID="37" v:groupContext="shape" transform="translate(305.785,-173.023)">
			<title>Sheet.37</title>
			<desc>S2</desc>
			<v:textBlock v:margins="rect(4,4,4,4)" v:tabSpace="42.5197"/>
			<v:textRect cx="21.2598" cy="501.913" width="42.52" height="14.1732"/>
			<rect x="0" y="494.826" width="42.5197" height="14.1732" class="st3"/>
			<text x="13.92" y="505.51" class="st4" v:langID="2052"><v:paragraph v:horizAlign="1"/><v:tabList/>S2</text>		</g>
		<g id="shape38-64" v:mID="38" v:groupContext="shape" transform="translate(305.785,-95.07)">
			<title>Sheet.38</title>
			<desc>S3</desc>
			<v:textBlock v:margins="rect(4,4,4,4)" v:tabSpace="42.5197"/>
			<v:textRect cx="21.2598" cy="501.913" width="42.52" height="14.1732"/>
			<rect x="0" y="494.826" width="42.5197" height="14.1732" class="st3"/>
			<text x="13.92" y="505.51" class="st4" v:langID="2052"><v:paragraph v:horizAlign="1"/><v:tabList/>S3</text>		</g>
		<g id="shape39-67" v:mID="39" v:groupContext="shape" transform="translate(305.785,-38.3771)">
			<title>Sheet.39</title>
			<desc>S4</desc>
			<v:textBlock v:margins="rect(4,4,4,4)" v:tabSpace="42.5197"/>
			<v:textRect cx="21.2598" cy="501.913" width="42.52" height="14.1732"/>
			<rect x="0" y="494.826" width="42.5197" height="14.1732" class="st3"/>
			<text x="13.92" y="505.51" class="st4" v:langID="2052"><v:paragraph v:horizAlign="1"/><v:tabList/>S4</text>		</g>
		<g id="shape42-70" v:mID="42" v:groupContext="shape" transform="translate(18.6,-18.6)">
			<title>Sheet.42</title>
			<path d="M0 509 L322.62 509" class="st2"/>
		</g>
		<g id="shape43-73" v:mID="43" v:groupContext="shape" transform="translate(527.6,103.678) rotate(89.9903)">
			<title>Sheet.43</title>
			<path d="M0 509 L386.64 509" class="st2"/>
		</g>
		<g id="shape49-76" v:mID="49" v:groupContext="shape" transform="translate(68.915,-359.172)">
			<title>Sheet.49</title>
			<ellipse cx="3.54331" cy="505.456" rx="3.54331" ry="3.54331" class="st6"/>
		</g>
		<g id="shape55-78" v:mID="55" v:groupContext="shape" transform="translate(341.218,-102.231)">
			<title>Sheet.55</title>
			<path d="M0 509 L99.21 509" class="st1"/>
		</g>
		<g id="shape57-81" v:mID="57" v:groupContext="shape" transform="translate(341.218,-45.5383)">
			<title>Sheet.57</title>
			<path d="M0 509 L99.21 509" class="st1"/>
		</g>
		<g id="shape60-84" v:mID="60" v:groupContext="shape" transform="translate(68.915,-264.211)">
			<title>Sheet.60</title>
			<ellipse cx="3.54331" cy="505.456" rx="3.54331" ry="3.54331" class="st6"/>
		</g>
		<g id="shape61-86" v:mID="61" v:groupContext="shape" transform="translate(68.915,-176.566)">
			<title>Sheet.61</title>
			<ellipse cx="3.54331" cy="505.456" rx="3.54331" ry="3.54331" class="st6"/>
		</g>
		<g id="shape62-88" v:mID="62" v:groupContext="shape" transform="translate(68.915,-97.9047)">
			<title>Sheet.62</title>
			<ellipse cx="3.54331" cy="505.456" rx="3.54331" ry="3.54331" class="st6"/>
		</g>
		<g id="shape63-90" v:mID="63" v:groupContext="shape" transform="translate(68.915,-41.2118)">
			<title>Sheet.63</title>
			<ellipse cx="3.54331" cy="505.456" rx="3.54331" ry="3.54331" class="st6"/>
		</g>
		<g id="shape65-92" v:mID="65" v:groupContext="shape" transform="translate(217.734,-176.212)">
			<title>Sheet.65</title>
			<ellipse cx="3.54331" cy="505.456" rx="3.54331" ry="3.54331" class="st6"/>
		</g>
		<g id="shape66-94" v:mID="66" v:groupContext="shape" transform="translate(217.734,-97.5504)">
			<title>Sheet.66</title>
			<ellipse cx="3.54331" cy="505.456" rx="3.54331" ry="3.54331" class="st6"/>
		</g>
		<g id="shape67-96" v:mID="67" v:groupContext="shape" transform="translate(217.734,-40.8574)">
			<title>Sheet.67</title>
			<ellipse cx="3.54331" cy="505.456" rx="3.54331" ry="3.54331" class="st6"/>
		</g>
		<g id="shape69-98" v:mID="69" v:groupContext="shape" transform="translate(274.427,-176.212)">
			<title>Sheet.69</title>
			<ellipse cx="3.54331" cy="505.456" rx="3.54331" ry="3.54331" class="st6"/>
		</g>
		<g id="shape70-100" v:mID="70" v:groupContext="shape" transform="translate(274.427,-97.5504)">
			<title>Sheet.70</title>
			<ellipse cx="3.54331" cy="505.456" rx="3.54331" ry="3.54331" class="st6"/>
		</g>
		<g id="shape71-102" v:mID="71" v:groupContext="shape" transform="translate(274.427,-40.8574)">
			<title>Sheet.71</title>
			<ellipse cx="3.54331" cy="505.456" rx="3.54331" ry="3.54331" class="st6"/>
		</g>
		<g id="shape78-104" v:mID="78" v:groupContext="shape" transform="translate(218.103,-263.594)">
			<title>Sheet.78</title>
			<ellipse cx="3.54331" cy="505.456" rx="3.54331" ry="3.54331" class="st6"/>
		</g>
		<g id="shape79-106" v:mID="79" v:groupContext="shape" transform="translate(274.796,-263.594)">
			<title>Sheet.79</title>
			<ellipse cx="3.54331" cy="505.456" rx="3.54331" ry="3.54331" class="st6"/>
		</g>
		<g id="shape80-108" v:mID="80" v:groupContext="shape" transform="translate(218.103,-359.264)">
			<title>Sheet.80</title>
			<ellipse cx="3.54331" cy="505.456" rx="3.54331" ry="3.54331" class="st6"/>
		</g>
		<g id="shape81-110" v:mID="81" v:groupContext="shape" transform="translate(274.796,-359.264)">
			<title>Sheet.81</title>
			<ellipse cx="3.54331" cy="505.456" rx="3.54331" ry="3.54331" class="st6"/>
		</g>
		<g id="shape54-112" v:mID="54" v:groupContext="shape" transform="translate(-27.7686,428.028) rotate(-90)">
			<title>Sheet.54</title>
			<desc>AHB</desc>
			<v:textBlock v:margins="rect(4,4,4,4)" v:tabSpace="42.5197"/>
			<v:textRect cx="21.2598" cy="466.48" width="42.52" height="85.0394" transform="rotate(90)"/>
			<rect x="0" y="423.96" width="42.5197" height="85.0394" class="st5"/>
			<text x="454.14" y="-17.66" transform="rotate(90)" class="st4" v:langID="2052"><v:paragraph v:horizAlign="1"/><v:tabList/>AHB</text>		</g>
		<g id="shape56-115" v:mID="56" v:groupContext="shape" transform="translate(-27.7686,484.721) rotate(-90)">
			<title>Sheet.56</title>
			<desc>APB</desc>
			<v:textBlock v:margins="rect(4,4,4,4)" v:tabSpace="42.5197"/>
			<v:textRect cx="21.2598" cy="466.48" width="42.52" height="85.0394" transform="rotate(90)"/>
			<rect x="0" y="423.96" width="42.5197" height="85.0394" class="st5"/>
			<text x="454.47" y="-17.66" transform="rotate(90)" class="st4" v:langID="2052"><v:paragraph v:horizAlign="1"/><v:tabList/>APB</text>		</g>
		<g id="shape44-118" v:mID="44" v:groupContext="shape" transform="translate(464.489,-238.448)">
			<title>Sheet.44</title>
			<desc>FLASH (128KB)</desc>
			<v:textBlock v:margins="rect(4,4,4,4)" v:tabSpace="42.5197"/>
			<v:textRect cx="42.5197" cy="480.653" width="85.04" height="56.6929"/>
			<rect x="0" y="452.307" width="85.0394" height="56.6929" class="st5"/>
			<text x="23.18" y="477.05" class="st4" v:langID="2052"><v:paragraph v:horizAlign="1"/><v:tabList/>FLASH<v:newlineChar/><tspan
						x="20.51" dy="1.2em" class="st7" v:langID="1033">(128KB)</tspan></text>		</g>
		<g id="shape47-122" v:mID="47" v:groupContext="shape" transform="translate(463.957,-332.451)">
			<title>Sheet.47</title>
			<desc>ROM CODE</desc>
			<v:textBlock v:margins="rect(4,4,4,4)" v:tabSpace="42.5197"/>
			<v:textRect cx="42.5197" cy="480.653" width="85.04" height="56.6929"/>
			<rect x="0" y="452.307" width="85.0394" height="56.6929" class="st5"/>
			<text x="9.52" y="484.25" class="st4" v:langID="2052"><v:paragraph v:horizAlign="1"/><v:tabList/>ROM CODE</text>		</g>
		<g id="shape53-125" v:mID="53" v:groupContext="shape" transform="translate(464.049,-157.364)">
			<title>Sheet.53</title>
			<desc>SRAM</desc>
			<v:textBlock v:margins="rect(4,4,4,4)" v:tabSpace="42.5197"/>
			<v:textRect cx="42.5197" cy="486.322" width="85.04" height="45.3543"/>
			<rect x="0" y="463.645" width="85.0394" height="45.3543" class="st5"/>
			<text x="25.18" y="489.92" class="st4" v:langID="1033"><v:paragraph v:horizAlign="1"/><v:tabList/>SRAM</text>		</g>
		<g id="shape82-128" v:mID="82" v:groupContext="shape" transform="translate(359.341,-343.728)">
			<title>Sheet.82</title>
			<desc>ROM INTERFACE</desc>
			<v:textBlock v:margins="rect(4,4,4,4)" v:tabSpace="42.5197"/>
			<v:textRect cx="42.5197" cy="490.513" width="85.04" height="36.9738"/>
			<rect x="0" y="472.026" width="85.0394" height="36.9738" class="st5"/>
			<text x="30.85" y="487.51" class="st8" v:langID="1033"><v:paragraph v:horizAlign="1"/><v:tabList/>ROM<v:newlineChar/><tspan
						x="14.18" dy="1.2em" class="st7">INTERFACE</tspan></text>		</g>
		<g id="shape83-132" v:mID="83" v:groupContext="shape" transform="translate(359.341,-248.308)">
			<title>Sheet.83</title>
			<desc>FLASH INTERFACE</desc>
			<v:textBlock v:margins="rect(4,4,4,4)" v:tabSpace="42.5197"/>
			<v:textRect cx="42.5197" cy="490.513" width="85.04" height="36.9738"/>
			<rect x="0" y="472.026" width="85.0394" height="36.9738" class="st5"/>
			<text x="26.4" y="487.51" class="st8" v:langID="1033"><v:paragraph v:horizAlign="1"/><v:tabList/>FLASH<v:newlineChar/><tspan
						x="14.18" dy="1.2em" class="st7">INTERFACE</tspan></text>		</g>
		<g id="shape84-136" v:mID="84" v:groupContext="shape" transform="translate(359.341,-161.554)">
			<title>Sheet.84</title>
			<desc>SRAM INTERFACE</desc>
			<v:textBlock v:margins="rect(4,4,4,4)" v:tabSpace="42.5197"/>
			<v:textRect cx="42.5197" cy="490.513" width="85.04" height="36.9738"/>
			<rect x="0" y="472.026" width="85.0394" height="36.9738" class="st5"/>
			<text x="28.07" y="487.51" class="st8" v:langID="1033"><v:paragraph v:horizAlign="1"/><v:tabList/>SRAM<v:newlineChar/><tspan
						x="14.18" dy="1.2em" class="st7">INTERFACE</tspan></text>		</g>
		<g id="shape85-140" v:mID="85" v:groupContext="shape" transform="translate(341.5,-362.715)">
			<title>Sheet.85</title>
			<path d="M0 509 L17.66 509" class="st1"/>
		</g>
		<g id="shape86-143" v:mID="86" v:groupContext="shape" transform="translate(444.381,-360.736)">
			<title>Sheet.86</title>
			<path d="M0 509 L19.58 509" class="st1"/>
		</g>
		<g id="shape87-146" v:mID="87" v:groupContext="shape" transform="translate(341.766,-267.759)">
			<title>Sheet.87</title>
			<path d="M0 509 L17.57 509" class="st1"/>
		</g>
		<g id="shape88-149" v:mID="88" v:groupContext="shape" transform="translate(444.381,-267.759)">
			<title>Sheet.88</title>
			<path d="M0 509 L20.11 509" class="st1"/>
		</g>
		<g id="shape89-152" v:mID="89" v:groupContext="shape" transform="translate(341.218,-180.064)">
			<title>Sheet.89</title>
			<path d="M0 509 L17.57 509" class="st1"/>
		</g>
		<g id="shape90-155" v:mID="90" v:groupContext="shape" transform="translate(444.381,-179.319)">
			<title>Sheet.90</title>
			<path d="M0 509 L20.11 509" class="st1"/>
		</g>
	</g>
</svg>
