<?xml version="1.0" encoding="UTF-8" standalone="no"?>
<!DOCTYPE svg PUBLIC "-//W3C//DTD SVG 1.1//EN" "http://www.w3.org/Graphics/SVG/1.1/DTD/svg11.dtd">
<!-- Generated by Microsoft Visio, SVG Export power.svg Page-1 -->
<svg xmlns="http://www.w3.org/2000/svg" xmlns:xlink="http://www.w3.org/1999/xlink" xmlns:ev="http://www.w3.org/2001/xml-events"
		width="4.84576in" height="4.65039in" viewBox="0 0 348.895 334.828" xml:space="preserve" color-interpolation-filters="sRGB"
		class="st26">
	<style type="text/css">
	<![CDATA[
		.st1 {fill:#ffffff;stroke:#404040;stroke-linecap:round;stroke-linejoin:round;stroke-width:0.75}
		.st2 {fill:#ffffff;font-family:Calibri;font-size:0.666664em}
		.st3 {font-size:1em}
		.st4 {fill:none;stroke:#404040;stroke-dasharray:5.25,3.75;stroke-linecap:round;stroke-linejoin:round;stroke-width:0.75}
		.st5 {fill:none;stroke:#000000;stroke-linecap:round;stroke-linejoin:round;stroke-width:0.75}
		.st6 {fill:#000000;font-family:微软雅黑;font-size:0.666664em}
		.st7 {fill:#000000;font-family:Calibri;font-size:0.666664em}
		.st8 {font-family:微软雅黑;font-size:1em}
		.st9 {font-family:Calibri;font-size:1em}
		.st10 {fill:#ffffff;stroke:#000000;stroke-linecap:round;stroke-linejoin:round;stroke-width:0.75}
		.st11 {stroke:#404040;stroke-linecap:round;stroke-linejoin:round;stroke-width:0.75}
		.st12 {marker-start:url(#mrkr10-42);stroke:#404040;stroke-linecap:round;stroke-linejoin:round;stroke-width:0.75}
		.st13 {fill:#404040;fill-opacity:1;stroke:#404040;stroke-opacity:1;stroke-width:0.22935779816514}
		.st14 {stroke:#000000;stroke-linecap:round;stroke-linejoin:round;stroke-width:0.75}
		.st15 {marker-start:url(#mrkr10-58);stroke:#000000;stroke-linecap:round;stroke-linejoin:round;stroke-width:0.75}
		.st16 {fill:#000000;fill-opacity:1;stroke:#000000;stroke-opacity:1;stroke-width:0.22935779816514}
		.st17 {fill:none;stroke:none;stroke-linecap:round;stroke-linejoin:round;stroke-width:0.75}
		.st18 {fill:#000000;font-family:Calibri;font-size:0.499992em}
		.st19 {marker-end:url(#mrkr10-81);stroke:#000000;stroke-linecap:round;stroke-linejoin:round;stroke-width:0.75}
		.st20 {marker-end:url(#mrkr10-105);stroke:#404040;stroke-linecap:round;stroke-linejoin:round;stroke-width:0.75}
		.st21 {fill:#ffffff;stroke:#404040;stroke-linecap:butt;stroke-width:0.75}
		.st22 {marker-start:url(#mrkr4-142);stroke:#404040;stroke-linecap:round;stroke-linejoin:round;stroke-width:0.75}
		.st23 {fill:#000000;font-family:Calibri;font-size:0.333344em}
		.st24 {stroke:#000000;stroke-linecap:round;stroke-linejoin:round;stroke-width:1}
		.st25 {stroke:#000000;stroke-linecap:round;stroke-linejoin:round;stroke-width:0.24}
		.st26 {fill:none;fill-rule:evenodd;font-size:12px;overflow:visible;stroke-linecap:square;stroke-miterlimit:3}
	]]>
	</style>

	<defs id="Markers">
		<g id="lend10">
			<path
					d="M 0 0.75 C -0.414214 0.75 -0.75 0.414214 -0.75 0 -0.75 -0.414214 -0.414214 -0.75 0 -0.75 0.414214 -0.75 0.75 -0.414214 0.75 0 0.75 0.414214 0.414214 0.75 0 0.75 Z "
					style="stroke:none"/>
		</g>
		<marker id="mrkr10-42" class="st13" refX="2.79" orient="auto" markerUnits="strokeWidth" overflow="visible">
			<use xlink:href="#lend10" transform="scale(4.36) "/>
		</marker>
		<marker id="mrkr10-58" class="st16" refX="2.79" orient="auto" markerUnits="strokeWidth" overflow="visible">
			<use xlink:href="#lend10" transform="scale(4.36) "/>
		</marker>
		<marker id="mrkr10-81" class="st16" refX="-3.27" orient="auto" markerUnits="strokeWidth" overflow="visible">
			<use xlink:href="#lend10" transform="scale(-4.36,-4.36) "/>
		</marker>
		<marker id="mrkr10-105" class="st13" refX="-3.27" orient="auto" markerUnits="strokeWidth" overflow="visible">
			<use xlink:href="#lend10" transform="scale(-4.36,-4.36) "/>
		</marker>
		<g id="lend4">
			<path d="M 2 1 L 0 0 L 2 -1 L 2 1 " style="stroke:none"/>
		</g>
		<marker id="mrkr4-142" class="st13" refX="8.24" orient="auto" markerUnits="strokeWidth" overflow="visible">
			<use xlink:href="#lend4" transform="scale(4.36) "/>
		</marker>
	</defs>
	<g>
		<title>页-4</title>
		<g id="group202-1" transform="translate(18.7087,-18.12)">
			<title>Sheet.202</title>
			<g id="shape1-2" transform="translate(135.124,-44.1661)">
				<title>框.1</title>
				<desc>ADC/ DAC</desc>
				<rect x="0" y="262.38" width="43.2389" height="72.4488" class="st1"/>
				<text x="13.17" y="296.2" class="st2">ADC/ <tspan x="14.71" dy="1.2em" class="st3">DAC</tspan></text>			</g>
			<g id="shape2-6" transform="translate(199.325,-151.096)">
				<title>框.2</title>
				<path d="M0 334.83 L112.35 334.83 L112.35 206.98 L0 206.98 L0 334.83 Z" class="st4"/>
			</g>
			<g id="shape3-8" transform="translate(239.566,-158.845)">
				<title>框</title>
				<desc>内核 数字逻辑 存储模块</desc>
				<rect x="0" y="223.249" width="63.3953" height="111.579" class="st5"/>
				<text x="23.7" y="271.75" class="st6">内核 <tspan x="15.7" dy="1.215em" class="st3">数字逻辑 </tspan><tspan x="15.7"
							dy="1.215em" class="st3">存储模块</tspan></text>			</g>
			<g id="shape4-13" transform="translate(129.623,-39.1296)">
				<title>框.4</title>
				<desc>ADC/ DAC</desc>
				<rect x="0" y="262.38" width="43.2389" height="72.4488" class="st1"/>
				<text x="13.17" y="296.2" class="st7">ADC/ <tspan x="14.71" dy="1.2em" class="st3">DAC</tspan></text>			</g>
			<g id="shape5-17" transform="translate(199.325,-204.051)">
				<title>框.3</title>
				<desc>IO 逻辑</desc>
				<rect x="0" y="268.456" width="35.0621" height="66.3724" class="st1"/>
				<text x="13.87" y="299.18" class="st7">IO <tspan x="9.53" dy="1.211em" class="st8">逻辑</tspan></text>			</g>
			<g id="shape6-21" transform="translate(-135.545,130.777) rotate(-90)">
				<title>框.6</title>
				<desc>电平转换</desc>
				<rect x="0" y="321.656" width="66.3724" height="13.1725" class="st1"/>
				<text x="17.19" y="330.67" class="st6">电平转换</text>			</g>
			<g id="shape7-24" transform="translate(216.51,-51.5272)">
				<title>框.7</title>
				<desc>模拟模块 PLL, HRC, LRC, ADC, DAC, PGA, CMP, POR, LVR, PVD</desc>
				<rect x="0" y="281.751" width="95.6348" height="53.0775" class="st1"/>
				<text x="31.82" y="301.12" class="st6">模拟模块 <tspan x="7.18" dy="1.204em" class="st9">PLL, HRC, LRC, ADC, DAC, </tspan><tspan
							x="5.88" dy="1.2em" class="st9">PGA, CMP, POR, LVR, PVD</tspan></text>			</g>
			<g id="shape8-29" transform="translate(120.249,-144.07)">
				<title>框.8</title>
				<desc>LDO</desc>
				<rect x="0" y="305.473" width="35.0621" height="29.3557" class="st1"/>
				<text x="10.74" y="322.55" class="st7">LDO</text>			</g>
			<g id="shape9-32" transform="translate(90.8042,-42.907)">
				<title>框.9</title>
				<rect x="0" y="325.433" width="9.68567" height="9.3951" class="st10"/>
			</g>
			<g id="shape10-34" transform="translate(100.49,-40.5179)">
				<title>动态连接线</title>
				<path d="M0 327.74 L29.2 327.74" class="st11"/>
			</g>
			<g id="shape11-37" transform="translate(110.176,-47.0978)">
				<title>动态连接线.12</title>
				<path d="M0 336.41 L0 336.77 L0 365.36 L88.25 365.36 L88.25 321.16 L106.33 321.16" class="st12"/>
			</g>
			<g id="shape12-43" transform="translate(90.8042,-74.9978)">
				<title>框.12</title>
				<rect x="0" y="325.433" width="9.68567" height="9.3951" class="st10"/>
			</g>
			<g id="shape14-45" transform="translate(90.8042,-99.8588)">
				<title>框.15</title>
				<rect x="0" y="325.433" width="9.68567" height="9.3951" class="st10"/>
			</g>
			<g id="shape15-47" transform="translate(-309.887,303.835) rotate(-90)">
				<title>接地</title>
				<path d="M0 330.4 L0 332.61" class="st14"/>
				<path d="M1.11 329.29 L1.11 333.72" class="st14"/>
				<path d="M2.21 328.18 L2.21 334.83" class="st14"/>
				<path d="M16.61 331.51 L2.21 331.51" class="st14"/>
			</g>
			<g id="shape16-53" transform="translate(21.6194,-47.6045)">
				<title>Sheet.16</title>
				<path d="M2.09 334.83 L2.45 334.83 L69.18 334.83" class="st15"/>
			</g>
			<g id="shape17-59" transform="translate(69.8832,-47.6045)">
				<title>动态连接线.17</title>
				<path d="M0 332.74 L0 332.38 L0 302.74 L20.92 302.74" class="st12"/>
			</g>
			<g id="shape18-64" transform="translate(100.49,-86.7348)">
				<title>动态连接线.18</title>
				<path d="M0 341.87 L29.13 341.96" class="st11"/>
			</g>
			<g id="shape20-67" transform="translate(100.49,-97.4939)">
				<title>动态连接线.21</title>
				<path d="M0 327.77 L29.13 327.72" class="st11"/>
			</g>
			<g id="shape22-70" transform="translate(56.207,-81.0998)">
				<title>Sheet.22</title>
				<desc>VREFN</desc>
				<rect x="0" y="325.433" width="43.2389" height="9.3951" class="st17"/>
				<text x="13.51" y="331.93" class="st18">VREFN</text>			</g>
			<g id="shape27-73" transform="translate(0.115078,-119.068)">
				<title>Sheet.27</title>
				<desc>VDD</desc>
				<rect x="0" y="325.433" width="43.2389" height="9.3951" class="st17"/>
				<text x="16.23" y="331.93" class="st18">VDD</text>			</g>
			<g id="shape28-76" transform="translate(90.8042,565.1) rotate(180)">
				<title>Sheet.28</title>
				<path d="M0 334.83 L66.9 334.83" class="st19"/>
			</g>
			<g id="shape44-82" transform="translate(110.437,-106.445)">
				<title>动态连接线.44</title>
				<path d="M0 334.61 L0 334.25 L0 315.38 L87.99 315.38 L87.99 347.13 L106.07 347.13" class="st12"/>
			</g>
			<g id="shape45-87" transform="translate(155.311,-151.661)">
				<title>动态连接线.45</title>
				<path d="M0 327.74 L43.25 327.74" class="st11"/>
			</g>
			<g id="shape46-90" transform="translate(90.8042,-171.855)">
				<title>框.52</title>
				<rect x="0" y="325.433" width="9.68567" height="9.3951" class="st10"/>
			</g>
			<g id="shape47-92" transform="translate(120.249,-151.661)">
				<title>动态连接线.53</title>
				<path d="M0 327.74 L-19.76 327.74" class="st11"/>
			</g>
			<g id="shape48-95" transform="translate(90.8042,-154.05)">
				<title>框.54</title>
				<rect x="0" y="325.433" width="9.68567" height="9.3951" class="st10"/>
			</g>
			<g id="shape49-97" transform="translate(69.1083,-104.556)">
				<title>动态连接线.67</title>
				<path d="M0 334.83 L0 280.64 L21.7 280.64" class="st11"/>
			</g>
			<g id="shape50-100" transform="translate(100.49,-176.552)">
				<title>动态连接线.68</title>
				<path d="M0 334.83 L71.67 334.83 L71.67 350.18" class="st20"/>
			</g>
			<g id="shape56-106" transform="translate(-312.616,174.752) rotate(-90)">
				<title>接地.74</title>
				<path d="M0 330.4 L0 332.61" class="st14"/>
				<path d="M1.11 329.29 L1.11 333.72" class="st14"/>
				<path d="M2.21 328.18 L2.21 334.83" class="st14"/>
				<path d="M16.61 331.51 L2.21 331.51" class="st14"/>
			</g>
			<g id="shape57-112" transform="translate(147.64,-176.407)">
				<title>Sheet.57</title>
				<desc>VDD 1.5V</desc>
				<rect x="0" y="325.433" width="43.2389" height="9.3951" class="st17"/>
				<text x="10.05" y="331.93" class="st18">VDD 1.5V</text>			</g>
			<g id="shape58-115" transform="translate(90.8042,-191.776)">
				<title>框.76</title>
				<rect x="0" y="325.433" width="9.68567" height="9.3951" class="st10"/>
			</g>
			<g id="shape59-117" transform="translate(100.49,-189.387)">
				<title>动态连接线.77</title>
				<path d="M0 327.74 L97.73 327.74" class="st11"/>
			</g>
			<g id="shape62-120" transform="translate(1.49471,-150.062)">
				<title>Sheet.62</title>
				<desc>VSS</desc>
				<rect x="0" y="325.433" width="35.0621" height="9.3951" class="st17"/>
				<text x="13.07" y="331.93" class="st18">VSS</text>			</g>
			<g id="shape63-123" transform="translate(0,-21.5985)">
				<title>Sheet.63</title>
				<desc>VSS</desc>
				<rect x="0" y="325.433" width="43.2389" height="9.3951" class="st17"/>
				<text x="17.16" y="331.93" class="st18">VSS</text>			</g>
			<g id="shape64-126" transform="translate(90.8042,-214.714)">
				<title>框.82</title>
				<rect x="0" y="325.433" width="9.68567" height="9.3951" class="st10"/>
			</g>
			<g id="shape65-128" transform="translate(58.2604,-212.873)">
				<title>Sheet.65</title>
				<desc>GPIO</desc>
				<rect x="0" y="325.433" width="35.0621" height="9.3951" class="st17"/>
				<text x="11.35" y="331.93" class="st18">GPIO</text>			</g>
			<g id="group66-131" transform="translate(128.094,-200.863)">
				<title>缓冲器</title>
				<g id="shape67-132">
					<title>Sheet.67</title>
					<desc>1</desc>
					<path d="M0 315.46 L19.37 325.14 L0 334.83 L0 315.46 Z" class="st21"/>
				</g>
			</g>
			<g id="group68-134" transform="translate(147.465,428.114) rotate(180)">
				<title>缓冲器.86</title>
				<g id="shape69-135">
					<title>Sheet.69</title>
					<desc>1</desc>
					<path d="M0 315.46 L19.37 325.14 L0 334.83 L0 315.46 Z" class="st21"/>
				</g>
			</g>
			<g id="shape70-137" transform="translate(147.465,-224.771)">
				<title>动态连接线.88</title>
				<path d="M6.18 327.74 L6.54 327.74 L38.82 327.74" class="st22"/>
			</g>
			<g id="shape71-143" transform="translate(147.465,-203.462)">
				<title>动态连接线.89</title>
				<path d="M0 327.74 L39.08 327.74" class="st11"/>
			</g>
			<g id="shape72-146" transform="translate(150.613,-231.426)">
				<title>Sheet.72</title>
				<desc>OUT</desc>
				<rect x="0" y="323.206" width="32.3502" height="11.6228" class="st17"/>
				<text x="9.01" y="331.42" class="st7">OUT</text>			</g>
			<g id="shape73-149" transform="translate(150.903,-209.387)">
				<title>Sheet.73</title>
				<desc>IN</desc>
				<rect x="0" y="323.206" width="32.3502" height="11.6228" class="st17"/>
				<text x="12.59" y="331.42" class="st7">IN</text>			</g>
			<g id="shape74-152" transform="translate(100.49,-218.548)">
				<title>动态连接线.93</title>
				<path d="M0 333.96 L10.63 333.96 L10.63 321.52 L27.6 321.52" class="st11"/>
			</g>
			<g id="shape75-155" transform="translate(110.176,-222.067)">
				<title>动态连接线.94</title>
				<path d="M0 339.58 L0 339.94 L0 346.35 L17.92 346.35" class="st12"/>
			</g>
			<g id="shape76-160" transform="translate(95.6471,-191.776)">
				<title>Sheet.76</title>
			</g>
			<g id="shape77-161" transform="translate(430.475,143.053) rotate(90)">
				<title>Sheet.77</title>
				<path d="M0 334.83 L10.53 334.83" class="st14"/>
			</g>
			<g id="shape78-164" transform="translate(430.475,162.974) rotate(90)">
				<title>Sheet.78</title>
				<path d="M0 334.83 L8.41 334.83" class="st14"/>
			</g>
			<g id="shape79-167" transform="translate(430.475,180.778) rotate(90)">
				<title>Sheet.79</title>
				<path d="M0 334.83 L44.8 334.83" class="st14"/>
			</g>
			<g id="shape81-170" transform="translate(430.475,234.97) rotate(90)">
				<title>Sheet.81</title>
				<path d="M0 334.83 L15.47 334.83" class="st14"/>
			</g>
			<g id="shape82-173" transform="translate(430.475,259.831) rotate(90)">
				<title>Sheet.82</title>
				<path d="M0 334.83 L22.7 334.83" class="st14"/>
			</g>
			<g id="shape122-176" transform="translate(90.8042,-240.72)">
				<title>框.148</title>
				<rect x="0" y="325.433" width="9.68567" height="9.3951" class="st10"/>
			</g>
			<g id="shape123-178" transform="translate(90.8042,-257.929)">
				<title>框.149</title>
				<rect x="0" y="325.433" width="9.68567" height="9.3951" class="st10"/>
			</g>
			<g id="shape124-180" transform="translate(100.49,-255.652)">
				<title>动态连接线.150</title>
				<path d="M0 327.85 L85.28 327.63" class="st11"/>
			</g>
			<g id="shape125-183" transform="translate(100.49,-238.331)">
				<title>动态连接线.151</title>
				<path d="M0 327.74 L85.8 327.74" class="st11"/>
			</g>
			<g id="shape126-186" transform="translate(90.8042,407.03) rotate(180)">
				<title>Sheet.126</title>
				<path d="M0 334.83 L63.49 334.83" class="st14"/>
			</g>
			<g id="shape127-189" transform="translate(90.8042,424.239) rotate(180)">
				<title>Sheet.127</title>
				<path d="M0 334.83 L63.49 334.83" class="st14"/>
			</g>
			<g id="shape128-192" transform="translate(-304.192,106.022) rotate(-90)">
				<title>接地.154</title>
				<path d="M0 330.4 L0 332.61" class="st14"/>
				<path d="M1.11 329.29 L1.11 333.72" class="st14"/>
				<path d="M2.21 328.18 L2.21 334.83" class="st14"/>
				<path d="M16.61 331.51 L2.21 331.51" class="st14"/>
			</g>
			<g id="shape129-198" transform="translate(-307.514,72.2018) rotate(-90)">
				<title>Sheet.129</title>
				<path d="M0 334.83 L11.85 334.83" class="st14"/>
			</g>
			<g id="shape130-201" transform="translate(21.1152,-274.474)">
				<title>Sheet.130</title>
				<path d="M0 334.83 L11.62 334.83" class="st14"/>
			</g>
			<g id="shape131-204" transform="translate(5.69463,-277.913)">
				<title>Sheet.131</title>
				<desc>VDDIO</desc>
				<rect x="0" y="325.433" width="43.2389" height="9.3951" class="st17"/>
				<text x="13.48" y="331.93" class="st18">VDDIO</text>			</g>
			<g id="shape132-207" transform="translate(5.69463,-217.571)">
				<title>Sheet.132</title>
				<desc>VSSIO</desc>
				<rect x="0" y="325.433" width="43.2389" height="9.3951" class="st17"/>
				<text x="14.42" y="331.93" class="st18">VSSIO</text>			</g>
			<g id="shape133-210" transform="translate(-239.181,67.5043) rotate(-90)">
				<title>Sheet.133</title>
				<path d="M0 334.83 L26.87 334.83" class="st14"/>
			</g>
			<g id="shape134-213" transform="translate(430.475,76.8994) rotate(90)">
				<title>Sheet.134</title>
				<path d="M0 334.83 L7.81 334.83" class="st14"/>
			</g>
			<g id="shape135-216" transform="translate(430.475,94.1087) rotate(90)">
				<title>Sheet.135</title>
				<path d="M0 334.83 L16.61 334.83" class="st14"/>
			</g>
			<g id="shape136-219" transform="translate(430.475,120.115) rotate(90)">
				<title>Sheet.136</title>
				<path d="M0 334.83 L13.54 334.83" class="st14"/>
			</g>
			<g id="shape137-222" transform="translate(430.475,291.921) rotate(90)">
				<title>Sheet.137</title>
				<path d="M0 334.83 L38.03 334.83" class="st14"/>
			</g>
			<g id="shape140-225" transform="translate(89.7603,-258.977)">
				<title>框.140</title>
				<rect x="0" y="325.433" width="9.68567" height="9.3951" class="st10"/>
			</g>
			<g id="shape141-227" transform="translate(88.7917,-259.99)">
				<title>框.141</title>
				<rect x="0" y="325.433" width="9.68567" height="9.3951" class="st10"/>
			</g>
			<g id="shape142-229" transform="translate(89.7518,-241.743)">
				<title>框.142</title>
				<rect x="0" y="325.433" width="9.68567" height="9.3951" class="st10"/>
			</g>
			<g id="shape143-231" transform="translate(88.7833,-242.792)">
				<title>框.143</title>
				<rect x="0" y="325.433" width="9.68567" height="9.3951" class="st10"/>
			</g>
			<g id="shape144-233" transform="translate(89.7441,-215.682)">
				<title>框.144</title>
				<rect x="0" y="325.433" width="9.68567" height="9.3951" class="st10"/>
			</g>
			<g id="shape145-235" transform="translate(88.6948,-216.667)">
				<title>框.145</title>
				<rect x="0" y="325.433" width="9.68567" height="9.3951" class="st10"/>
			</g>
			<g id="shape148-237" transform="translate(68.4518,-224.787)">
				<title>Sheet.148</title>
				<desc>A0~15 B0~15 C0~3</desc>
				<rect x="0" y="318.217" width="25.5702" height="16.6109" class="st17"/>
				<text x="7.59" y="322.92" class="st23">A0~15 <tspan x="7.66" dy="1.2em" class="st3">B0~15 </tspan><tspan x="8.69"
							dy="1.2em" class="st3">C0~3</tspan></text>			</g>
			<g id="shape149-242" transform="translate(89.516,-192.847)">
				<title>框.13.149</title>
				<rect x="0" y="325.433" width="9.68567" height="9.3951" class="st10"/>
			</g>
			<g id="shape150-244" transform="translate(88.2106,-193.889)">
				<title>Box.150</title>
				<rect x="0" y="325.433" width="9.68567" height="9.3951" class="st10"/>
			</g>
			<g id="shape153-246" transform="translate(90.8042,-171.855)">
				<title>框.153</title>
				<rect x="0" y="325.433" width="9.68567" height="9.3951" class="st10"/>
			</g>
			<g id="shape154-248" transform="translate(89.3728,-173.049)">
				<title>框.154</title>
				<rect x="0" y="325.433" width="9.68567" height="9.3951" class="st10"/>
			</g>
			<g id="shape155-250" transform="translate(63.9964,-178.828)">
				<title>Sheet.155</title>
				<desc>CAP</desc>
				<rect x="0" y="325.433" width="35.0621" height="9.3951" class="st17"/>
				<text x="12.65" y="331.93" class="st18">CAP</text>			</g>
			<g id="shape156-253" transform="translate(44.8384,-160.076)">
				<title>Sheet.156</title>
				<desc>VDDH_LDO</desc>
				<rect x="0" y="325.433" width="51.8759" height="9.3951" class="st17"/>
				<text x="12.09" y="331.93" class="st18">VDDH_LDO</text>			</g>
			<g id="shape157-256" transform="translate(89.502,-101.036)">
				<title>框.157</title>
				<rect x="0" y="325.433" width="9.68567" height="9.3951" class="st10"/>
			</g>
			<g id="shape158-258" transform="translate(88.0814,-102.376)">
				<title>框.158</title>
				<rect x="0" y="325.433" width="9.68567" height="9.3951" class="st10"/>
			</g>
			<g id="shape160-260" transform="translate(89.4374,-44.165)">
				<title>框.160</title>
				<rect x="0" y="325.433" width="9.68567" height="9.3951" class="st10"/>
			</g>
			<g id="shape161-262" transform="translate(87.8231,-45.5049)">
				<title>框.161</title>
				<rect x="0" y="325.433" width="9.68567" height="9.3951" class="st10"/>
			</g>
			<g id="shape179-264" transform="translate(88.2106,471.07) rotate(180)">
				<title>Sheet.179</title>
				<path d="M0 334.83 L69.31 334.83" class="st14"/>
			</g>
			<g id="shape180-267" transform="translate(353.73,136.241) rotate(90)">
				<title>Sheet.180</title>
				<path d="M0 334.83 L22.49 334.83" class="st14"/>
			</g>
			<g id="shape182-270" transform="translate(374.611,152.707) rotate(90)">
				<title>Sheet.182</title>
				<path d="M0 334.83 L9.3 334.83" class="st24"/>
			</g>
			<g id="shape183-273" transform="translate(377.71,152.707) rotate(90)">
				<title>Sheet.183</title>
				<path d="M0 334.83 L9.3 334.83" class="st24"/>
			</g>
			<g id="shape184-276" transform="translate(89.3728,491.91) rotate(180)">
				<title>Sheet.184</title>
				<path d="M0 334.83 L45.72 334.83" class="st14"/>
			</g>
			<g id="shape185-279" transform="translate(39.7821,491.991) rotate(180)">
				<title>Sheet.185</title>
				<path d="M0 334.83 L21.01 334.83" class="st14"/>
			</g>
			<g id="group188-282" transform="translate(-308.445,263.705) rotate(-90)">
				<title>Sheet.188</title>
				<g id="shape186-283" transform="translate(334.828,325.53) rotate(90)">
					<title>Sheet.186</title>
					<path d="M0 334.83 L9.3 334.83" class="st24"/>
				</g>
				<g id="shape187-286" transform="translate(337.928,325.53) rotate(90)">
					<title>Sheet.187</title>
					<path d="M0 334.83 L9.3 334.83" class="st24"/>
				</g>
			</g>
			<g id="shape189-289" transform="translate(-313.209,287.224) rotate(-90)">
				<title>Sheet.189</title>
				<path d="M0 334.83 L23.52 334.83" class="st14"/>
			</g>
			<g id="shape190-292" transform="translate(-313.062,260.605) rotate(-90)">
				<title>Sheet.190</title>
				<path d="M0 334.83 L44.27 334.83" class="st14"/>
			</g>
			<g id="shape195-295" transform="translate(16.5366,-118.486)">
				<title>Sheet.195</title>
				<path d="M0 334.83 L11.62 334.83" class="st14"/>
			</g>
			<g id="group196-298" transform="translate(88.3275,5.68434E-14)">
				<title>Sheet.196</title>
				<g id="shape191-299" transform="translate(-105.882,15.1703) rotate(-18.4349)">
					<title>Sheet.191</title>
					<path d="M0 334.83 L15.36 334.83" class="st25"/>
				</g>
				<g id="shape192-302" transform="translate(-105.813,17.1823) rotate(-18.4349)">
					<title>Sheet.192</title>
					<path d="M0 334.83 L15.36 334.83" class="st25"/>
				</g>
			</g>
			<g id="group197-305" transform="translate(88.2105,-291.72)">
				<title>Sheet.197</title>
				<g id="shape198-306" transform="translate(-105.882,15.1703) rotate(-18.4349)">
					<title>Sheet.198</title>
					<path d="M0 334.83 L15.36 334.83" class="st25"/>
				</g>
				<g id="shape199-309" transform="translate(-105.813,17.1823) rotate(-18.4349)">
					<title>Sheet.199</title>
					<path d="M0 334.83 L15.36 334.83" class="st25"/>
				</g>
			</g>
		</g>
	</g>
</svg>
