<?xml version="1.0" encoding="UTF-8" standalone="no"?>
<!DOCTYPE svg PUBLIC "-//W3C//DTD SVG 1.1//EN" "http://www.w3.org/Graphics/SVG/1.1/DTD/svg11.dtd">
<!-- Generated by Microsoft Visio, SVG Export 功能方框.svg Page-1 -->
<svg xmlns="http://www.w3.org/2000/svg" xmlns:xlink="http://www.w3.org/1999/xlink" xmlns:ev="http://www.w3.org/2001/xml-events"
		width="10.1388in" height="9.15177in" viewBox="0 0 729.992 658.927" xml:space="preserve" color-interpolation-filters="sRGB"
		class="st20">
	<style type="text/css">
	<![CDATA[
		.st1 {fill:url(#grad0-5);stroke:#404040;stroke-linecap:round;stroke-linejoin:round;stroke-width:0.25}
		.st2 {fill:#000000;font-family:Calibri;font-size:1.16666em;font-weight:bold}
		.st3 {fill:none;stroke:none;stroke-linecap:round;stroke-linejoin:round;stroke-width:0.25}
		.st4 {fill:#000000;font-family:Calibri;font-size:0.666664em}
		.st5 {marker-end:url(#mrkr5-23);marker-start:url(#mrkr5-21);stroke:#404040;stroke-linecap:round;stroke-linejoin:round;stroke-width:0.25}
		.st6 {fill:#404040;fill-opacity:1;stroke:#404040;stroke-opacity:1;stroke-width:0.090252707581227}
		.st7 {marker-end:url(#mrkr5-23);stroke:#404040;stroke-linecap:round;stroke-linejoin:round;stroke-width:0.25}
		.st8 {fill:url(#grad0-46);stroke:#404040;stroke-linecap:round;stroke-linejoin:round;stroke-width:0.25}
		.st9 {fill:#000000;font-family:Calibri;font-size:0.75em;font-weight:bold}
		.st10 {fill:#000000;font-family:Calibri;font-size:1.16666em}
		.st11 {fill:url(#grad0-61);stroke:#404040;stroke-linecap:round;stroke-linejoin:round;stroke-width:0.25}
		.st12 {fill:url(#grad0-66);stroke:#404040;stroke-linecap:round;stroke-linejoin:round;stroke-width:0.25}
		.st13 {fill:#000000;font-family:Calibri;font-size:0.833336em}
		.st14 {font-size:1em}
		.st15 {marker-end:url(#mrkr13-151);marker-start:url(#mrkr13-149);stroke:#404040;stroke-linecap:round;stroke-linejoin:round;stroke-width:0.25}
		.st16 {font-family:Arial;font-size:1em}
		.st17 {marker-start:url(#mrkr13-149);stroke:#404040;stroke-linecap:round;stroke-linejoin:round;stroke-width:0.25}
		.st18 {marker-end:url(#mrkr10-365);marker-start:url(#mrkr4-363);stroke:#404040;stroke-linecap:round;stroke-linejoin:round;stroke-width:0.25}
		.st19 {marker-end:url(#mrkr4-380);stroke:#404040;stroke-linecap:round;stroke-linejoin:round;stroke-width:0.25}
		.st20 {fill:none;fill-rule:evenodd;font-size:12px;overflow:visible;stroke-linecap:square;stroke-miterlimit:3}
	]]>
	</style>

	<defs id="Patterns_And_Gradients">
		<linearGradient id="grad0-5" x1="0" y1="0" x2="1" y2="0" gradientTransform="rotate(270 0.5 0.5)">
			<stop offset="0" stop-color="#c1ce9b" stop-opacity="1"/>
			<stop offset="1" stop-color="#b3c283" stop-opacity="1"/>
		</linearGradient>
		<linearGradient id="grad0-18" x1="0" y1="0" x2="1" y2="0" gradientTransform="rotate(270 0.5 0.5)">
			<stop offset="0" stop-color="#f0f0f0" stop-opacity="1"/>
			<stop offset="1" stop-color="#ffffff" stop-opacity="1"/>
		</linearGradient>
		<linearGradient id="grad0-46" x1="0" y1="0" x2="1" y2="0" gradientTransform="rotate(270 0.5 0.5)">
			<stop offset="0" stop-color="#f1b889" stop-opacity="1"/>
			<stop offset="1" stop-color="#f4c8a4" stop-opacity="1"/>
		</linearGradient>
		<linearGradient id="grad0-61" x1="0" y1="0" x2="1" y2="0" gradientTransform="rotate(270 0.5 0.5)">
			<stop offset="0" stop-color="#a7b96f" stop-opacity="1"/>
			<stop offset="1" stop-color="#b3c283" stop-opacity="1"/>
		</linearGradient>
		<linearGradient id="grad0-66" x1="0" y1="0" x2="1" y2="0" gradientTransform="rotate(270 0.5 0.5)">
			<stop offset="0" stop-color="#00b0f0" stop-opacity="1"/>
			<stop offset="1" stop-color="#b3c283" stop-opacity="1"/>
		</linearGradient>
	</defs>
	<defs id="Markers">
		<g id="lend5">
			<path d="M 2 1 L 0 0 L 1.98117 -0.993387 C 1.67173 -0.364515 1.67301 0.372641 1.98465 1.00043 " style="stroke:none"/>
		</g>
		<marker id="mrkr5-21" class="st6" refX="17.95" orient="auto" markerUnits="strokeWidth" overflow="visible">
			<use xlink:href="#lend5" transform="scale(11.08) "/>
		</marker>
		<marker id="mrkr5-23" class="st6" refX="-19.39" orient="auto" markerUnits="strokeWidth" overflow="visible">
			<use xlink:href="#lend5" transform="scale(-11.08,-11.08) "/>
		</marker>
		<g id="lend13">
			<path d="M 3 1 L 0 0 L 3 -1 L 3 1 " style="stroke:none"/>
		</g>
		<marker id="mrkr13-149" class="st6" refX="31.8" orient="auto" markerUnits="strokeWidth" overflow="visible">
			<use xlink:href="#lend13" transform="scale(11.08) "/>
		</marker>
		<marker id="mrkr13-151" class="st6" refX="-33.24" orient="auto" markerUnits="strokeWidth" overflow="visible">
			<use xlink:href="#lend13" transform="scale(-11.08,-11.08) "/>
		</marker>
		<g id="lend4">
			<path d="M 2 1 L 0 0 L 2 -1 L 2 1 " style="stroke:none"/>
		</g>
		<marker id="mrkr4-363" class="st6" refX="20.72" orient="auto" markerUnits="strokeWidth" overflow="visible">
			<use xlink:href="#lend4" transform="scale(11.08) "/>
		</marker>
		<g id="lend10">
			<path
					d="M 0 0.75 C -0.414214 0.75 -0.75 0.414214 -0.75 0 -0.75 -0.414214 -0.414214 -0.75 0 -0.75 0.414214 -0.75 0.75 -0.414214 0.75 0 0.75 0.414214 0.414214 0.75 0 0.75 Z "
					style="stroke:none"/>
		</g>
		<marker id="mrkr10-365" class="st6" refX="-8.31" orient="auto" markerUnits="strokeWidth" overflow="visible">
			<use xlink:href="#lend10" transform="scale(-11.08,-11.08) "/>
		</marker>
		<marker id="mrkr4-380" class="st6" refX="-22.16" orient="auto" markerUnits="strokeWidth" overflow="visible">
			<use xlink:href="#lend4" transform="scale(-11.08,-11.08) "/>
		</marker>
	</defs>
	<g>
		<title>Page-1</title>
		<g id="group146-1" transform="translate(18.125,-14.1732)">
			<title>Sheet.146</title>
			<g id="shape1-2" transform="translate(12.9853,-244.487)">
				<title>框.1</title>
				<desc>Busmatrix (SYSCLK)</desc>
				<rect x="0" y="596.565" width="674.646" height="62.3622" class="st1"/>
				<text x="281.16" y="631.95" class="st2">Busmatrix (SYSCLK)</text>			</g>
			<g id="shape2-7" transform="translate(4.39648E-14,-443.752)">
				<title>Sheet.2</title>
				<desc>SWCLK</desc>
				<rect x="0" y="644.754" width="36.8504" height="14.1732" class="st3"/>
				<text x="7.14" y="654.24" class="st4">SWCLK</text>			</g>
			<g id="shape3-10" transform="translate(4.39648E-14,-431.2)">
				<title>Sheet.3</title>
				<desc>SWDIO</desc>
				<rect x="0" y="644.754" width="36.8504" height="14.1732" class="st3"/>
				<text x="6.91" y="654.24" class="st4">SWDIO</text>			</g>
			<g id="shape4-13" transform="translate(32.4642,-439.605)">
				<title>Sheet.4</title>
				<path d="M4.49 658.93 L4.85 658.93 L39.45 658.93" class="st5"/>
			</g>
			<g id="shape5-24" transform="translate(32.4642,-450.944)">
				<title>Sheet.5</title>
				<path d="M0 658.93 L39.45 658.93" class="st7"/>
			</g>
			<g id="shape6-30" transform="translate(76.7648,-433.936)">
				<title>框.7</title>
				<desc>SW</desc>
				<rect x="0" y="636.25" width="153.071" height="22.6772" class="st1"/>
				<text x="71.14" y="649.99" class="st4">SW</text>			</g>
			<g id="shape7-34" transform="translate(79.2779,-382.629)">
				<title>Sheet.7</title>
				<desc>Ibus</desc>
				<rect x="0" y="650.423" width="26.1551" height="8.50394" class="st3"/>
				<text x="6.3" y="657.08" class="st4">Ibus</text>			</g>
			<g id="shape8-37" transform="translate(107.946,-382.629)">
				<title>Sheet.8</title>
				<desc>Dbus</desc>
				<rect x="0" y="650.423" width="31.1811" height="8.50394" class="st3"/>
				<text x="7.36" y="657.08" class="st4">Dbus</text>			</g>
			<g id="shape9-40" transform="translate(137.71,-382.629)">
				<title>Sheet.9</title>
				<desc>Sbus</desc>
				<rect x="0" y="650.423" width="33.9817" height="8.50394" class="st3"/>
				<text x="9.39" y="657.08" class="st4">Sbus</text>			</g>
			<g id="shape10-43" transform="translate(76.873,-377.243)">
				<title>Box.136</title>
				<desc>CORTEX-M0</desc>
				<rect x="0" y="602.234" width="152.963" height="56.6929" class="st8"/>
				<text x="54.03" y="633.28" class="st9">CORTEX-M0</text>			</g>
			<g id="shape11-48" transform="translate(184.481,-381.495)">
				<title>Sheet.11</title>
				<desc>ahbLite</desc>
				<rect x="0" y="650.423" width="38.9593" height="8.50394" class="st3"/>
				<text x="7.43" y="657.08" class="st4">ahbLite</text>			</g>
			<g id="shape12-51" transform="translate(44.4125,-174.058)">
				<title>框.156</title>
				<desc>Flash Interface</desc>
				<rect x="0" y="612.475" width="90.1735" height="46.4525" class="st8"/>
				<text x="21.19" y="638.1" class="st4">Flash Interface</text>			</g>
			<g id="shape13-55" transform="translate(28.5759,-292.452)">
				<title>Sheet.13</title>
				<desc>S0</desc>
				<rect x="0" y="650.423" width="26.1551" height="8.50394" class="st3"/>
				<text x="6.31" y="658.88" class="st10">S0</text>			</g>
			<g id="shape14-58" transform="translate(14.4026,-330.944)">
				<title>框.14</title>
				<desc>rom interface</desc>
				<rect x="0" y="631.998" width="53.8583" height="26.9291" class="st11"/>
				<text x="4.76" y="647.86" class="st4">rom interface</text>			</g>
			<g id="shape15-63" transform="translate(14.4026,-382.588)">
				<title>框.15</title>
				<desc>ROM CODE</desc>
				<rect x="0" y="632.618" width="53.8583" height="26.3091" class="st12"/>
				<text x="8.59" y="648.17" class="st4">ROM CODE</text>			</g>
			<g id="shape17-68" transform="translate(78.253,-249.621)">
				<title>Sheet.17</title>
				<desc>S1</desc>
				<rect x="0" y="650.423" width="26.1551" height="8.50394" class="st3"/>
				<text x="6.31" y="658.88" class="st10">S1</text>			</g>
			<g id="shape18-71" transform="translate(298.925,-340.865)">
				<title>框.22</title>
				<desc>SRAM Interface</desc>
				<rect x="0" y="613.573" width="79.0103" height="45.3543" class="st11"/>
				<text x="14.2" y="638.71" class="st4">SRAM Interface</text>			</g>
			<g id="shape19-75" transform="translate(298.925,-386.219)">
				<title>框.169</title>
				<desc>SRAM (8KB)</desc>
				<rect x="0" y="617.648" width="79.1947" height="41.2795" class="st12"/>
				<text x="20.24" y="640.69" class="st4">SRAM (8KB)</text>			</g>
			<g id="shape20-79" transform="translate(327.271,-292.452)">
				<title>Sheet.20</title>
				<desc>S2</desc>
				<rect x="0" y="650.423" width="26.1551" height="8.50394" class="st3"/>
				<text x="6.31" y="658.88" class="st10">S2</text>			</g>
			<g id="shape21-82" transform="translate(189.147,-292.452)">
				<title>Sheet.21</title>
				<desc>M0</desc>
				<rect x="0" y="650.423" width="27.6602" height="8.50394" class="st3"/>
				<text x="4.3" y="658.88" class="st10">M0</text>			</g>
			<g id="shape23-85" transform="translate(-450.351,352.156) rotate(-90)">
				<title>45 度双向箭头.147</title>
				<path d="M0 653.26 L5.67 647.59 L5.67 651.33 L64.8 651.33 L64.8 647.59 L70.47 653.26 L64.8 658.93 L64.8 655.19 L5.67
							 655.19 L5.67 658.93 L0 653.26 Z" class="st11"/>
			</g>
			<g id="shape24-88" transform="translate(-313.231,352.078) rotate(-90)">
				<title>45 度双向箭头.167</title>
				<path d="M0 653.26 L5.67 647.59 L5.67 651.33 L27.4 651.33 L27.4 647.59 L33.07 653.26 L27.4 658.93 L27.4 655.19 L5.67
							 655.19 L5.67 658.93 L0 653.26 Z" class="st11"/>
			</g>
			<g id="shape25-91" transform="translate(-92.0056,352.867) rotate(-90.0717)">
				<title>45 度双向箭头.206</title>
				<desc>AHB (SYSCLK)</desc>
				<path d="M0 630.82 L28.11 602.71 L28.11 621.26 L255.02 621.26 L255.02 602.71 L283.13 630.82 L255.02 658.93 L255.02
							 640.38 L28.11 640.38 L28.11 658.93 L0 630.82 Z" class="st11"/>
				<text x="114.28" y="633.82" class="st13">AHB (SYSCLK)</text>			</g>
			<g id="shape27-95" transform="translate(385.269,-482.671)">
				<title>框.215</title>
				<desc>QSPI0</desc>
				<rect x="0" y="624.911" width="96.378" height="34.0157" class="st11"/>
				<text x="38.56" y="644.32" class="st4">QSPI0</text>			</g>
			<g id="shape28-99" transform="translate(526.056,-292.452)">
				<title>Sheet.28</title>
				<desc>S3</desc>
				<rect x="0" y="650.423" width="26.1551" height="8.50394" class="st3"/>
				<text x="6.31" y="658.88" class="st10">S3</text>			</g>
			<g id="shape29-102" transform="translate(-192.647,658.927) rotate(-90)">
				<title>45 度双向箭头.29</title>
				<desc>APB (SYSCLK)</desc>
				<path d="M0 632.25 L26.68 605.57 L26.68 623.17 L216.86 623.17 L216.86 605.57 L243.54 632.25 L216.86 658.93 L216.86
							 641.32 L26.68 641.32 L26.68 658.93 L0 632.25 Z" class="st11"/>
				<text x="95.02" y="635.25" class="st13">APB (SYSCLK)</text>			</g>
			<g id="shape31-106" transform="translate(426.844,-249.932)">
				<title>Sheet.31</title>
				<desc>S4</desc>
				<rect x="0" y="650.423" width="26.1551" height="8.50394" class="st3"/>
				<text x="6.31" y="658.88" class="st10">S4</text>			</g>
			<g id="shape33-109" transform="translate(496.387,-146.997)">
				<title>框.291</title>
				<desc>WDT</desc>
				<rect x="0" y="636.25" width="96.378" height="22.6772" class="st11"/>
				<text x="40.22" y="649.99" class="st4">WDT</text>			</g>
			<g id="shape34-113" transform="translate(448.741,-152.666)">
				<title>45 度双向箭头.292</title>
				<path d="M0 653.26 L5.67 647.59 L5.67 651.33 L41.98 651.33 L41.98 647.59 L47.65 653.26 L41.98 658.93 L41.98 655.19
							 L5.67 655.19 L5.67 658.93 L0 653.26 Z" class="st11"/>
			</g>
			<g id="shape35-116" transform="translate(448.741,-128.369)">
				<title>45 度双向箭头.293</title>
				<path d="M0 653.26 L5.67 647.59 L5.67 651.33 L41.98 651.33 L41.98 647.59 L47.65 653.26 L41.98 658.93 L41.98 655.19
							 L5.67 655.19 L5.67 658.93 L0 653.26 Z" class="st11"/>
			</g>
			<g id="shape36-119" transform="translate(496.387,-122.7)">
				<title>框.294</title>
				<desc>I2C0</desc>
				<rect x="0" y="636.25" width="96.378" height="22.6772" class="st11"/>
				<text x="40.99" y="649.99" class="st4">I2C0</text>			</g>
			<g id="shape39-123" transform="translate(377.514,-127.737)">
				<title>45 度双向箭头.3</title>
				<path d="M0 653.26 L5.67 647.59 L5.67 651.33 L47.32 651.33 L47.32 647.59 L52.99 653.26 L47.32 658.93 L47.32 655.19
							 L5.67 655.19 L5.67 658.93 L0 653.26 Z" class="st11"/>
			</g>
			<g id="shape40-126" transform="translate(281.136,-122.068)">
				<title>Box.4</title>
				<desc>PWM x2</desc>
				<rect x="0" y="636.25" width="96.378" height="22.6772" class="st11"/>
				<text x="34.48" y="649.99" class="st4">PWM x2</text>			</g>
			<g id="shape41-130" transform="translate(496.387,-98.4027)">
				<title>框.152</title>
				<desc>ANALOG CTRL</desc>
				<rect x="0" y="636.25" width="96.378" height="22.6772" class="st11"/>
				<text x="25.28" y="649.99" class="st4">ANALOG CTRL</text>			</g>
			<g id="shape42-134" transform="translate(448.741,-104.072)">
				<title>45 度双向箭头.20</title>
				<path d="M0 653.26 L5.67 647.59 L5.67 651.33 L41.98 651.33 L41.98 647.59 L47.65 653.26 L41.98 658.93 L41.98 655.19
							 L5.67 655.19 L5.67 658.93 L0 653.26 Z" class="st11"/>
			</g>
			<g id="shape47-137" transform="translate(217.08,-513.779)">
				<title>框.62</title>
				<desc>CLK/RST GEN</desc>
				<rect x="0" y="602.234" width="85.0394" height="56.6929" class="st11"/>
				<text x="29.12" y="628.18" class="st4">CLK/RST <tspan x="35.46" dy="1.2em" class="st14">GEN</tspan></text>			</g>
			<g id="shape48-142" transform="translate(386.096,775.655) rotate(179.949)">
				<title>Sheet.48</title>
				<path d="M7.95 658.93 L8.31 658.93 L75.08 658.93" class="st15"/>
			</g>
			<g id="shape49-152" transform="translate(27.109,-549.746)">
				<title>框.65</title>
				<desc>XTAH (8~24MHz)</desc>
				<rect x="0" y="644.754" width="79.0103" height="14.1732" class="st11"/>
				<text x="8.97" y="654.3" class="st4">XTAH  <tspan class="st16">(8~24MHz)</tspan></text>			</g>
			<g id="shape50-157" transform="translate(27.109,-535.067)">
				<title>框.66</title>
				<desc>RCHF (8MHz)</desc>
				<rect x="0" y="644.754" width="79.0103" height="14.1732" class="st11"/>
				<text x="15.95" y="654.3" class="st4">RCHF  <tspan class="st16">(8MHz)</tspan></text>			</g>
			<g id="shape51-162" transform="translate(27.109,-518.882)">
				<title>框.67</title>
				<desc>RCLF (32KHz)</desc>
				<rect x="0" y="643.262" width="79.0103" height="15.6651" class="st11"/>
				<text x="15.2" y="653.56" class="st4">RCLF  <tspan class="st16">(32KHz)</tspan></text>			</g>
			<g id="shape54-167" transform="translate(216.82,791.139) rotate(180)">
				<title>Sheet.54</title>
				<path d="M7.95 658.93 L8.31 658.93 L110.7 658.93" class="st17"/>
			</g>
			<g id="shape55-173" transform="translate(377.514,-103.633)">
				<title>45 度双向箭头.59</title>
				<path d="M0 653.26 L5.67 647.59 L5.67 651.33 L47.23 651.33 L47.23 647.59 L52.9 653.26 L47.23 658.93 L47.23 655.19
							 L5.67 655.19 L5.67 658.93 L0 653.26 Z" class="st11"/>
			</g>
			<g id="shape56-176" transform="translate(281.136,-97.9637)">
				<title>Box.82</title>
				<desc>TIMER_SUPER x3</desc>
				<rect x="0" y="636.25" width="96.378" height="22.6772" class="st11"/>
				<text x="20.44" y="649.99" class="st4">TIMER_SUPER x3</text>			</g>
			<g id="shape57-180" transform="translate(905.392,88.6801) rotate(90) scale(-1,1)">
				<title>Sheet.57</title>
				<path d="M7.95 658.93 L8.31 658.93 L24.07 658.93" class="st17"/>
			</g>
			<g id="shape58-186" transform="translate(225.354,-591.494)">
				<title>Sheet.58</title>
				<desc>WDT</desc>
				<rect x="0" y="644.754" width="36.8504" height="14.1732" class="st3"/>
				<text x="10.46" y="654.24" class="st4">WDT</text>			</g>
			<g id="shape59-189" transform="translate(926.801,88.6801) rotate(90) scale(-1,1)">
				<title>Sheet.59</title>
				<path d="M7.95 658.93 L8.31 658.93 L24.07 658.93" class="st17"/>
			</g>
			<g id="shape60-195" transform="translate(249.449,-591.196)">
				<title>Sheet.60</title>
				<desc>POR LVR RSTn</desc>
				<rect x="0" y="623.494" width="36.8504" height="35.4331" class="st3"/>
				<text x="11.54" y="634.01" class="st4">POR <tspan x="12.3" dy="1.2em" class="st14">LVR </tspan><tspan x="10.36"
							dy="1.2em" class="st14">RSTn</tspan></text>			</g>
			<g id="shape61-200" transform="translate(952.313,88.6801) rotate(90) scale(-1,1)">
				<title>Sheet.61</title>
				<path d="M7.95 658.93 L8.31 658.93 L24.07 658.93" class="st17"/>
			</g>
			<g id="shape62-206" transform="translate(274.961,-591.196)">
				<title>Sheet.62</title>
				<desc>SW</desc>
				<rect x="0" y="644.754" width="36.8504" height="14.1732" class="st3"/>
				<text x="13.03" y="654.24" class="st4">SW</text>			</g>
			<g id="shape75-209" transform="translate(385.269,-436.72)">
				<title>框.360</title>
				<desc>INTCTRL</desc>
				<rect x="0" y="624.911" width="96.378" height="34.0157" class="st11"/>
				<text x="34.71" y="644.32" class="st4">INTCTRL</text>			</g>
			<g id="shape76-213" transform="translate(377.514,-200.758)">
				<title>45 度双向箭头.228</title>
				<path d="M0 653.26 L5.67 647.59 L5.67 651.33 L47.13 651.33 L47.13 647.59 L52.8 653.26 L47.13 658.93 L47.13 655.19
							 L5.67 655.19 L5.67 658.93 L0 653.26 Z" class="st11"/>
			</g>
			<g id="shape77-216" transform="translate(281.136,-194.38)">
				<title>Box.266</title>
				<desc>UART0</desc>
				<rect x="0" y="634.833" width="96.378" height="24.0945" class="st11"/>
				<text x="37.16" y="649.28" class="st4">UART0</text>			</g>
			<g id="shape78-220" transform="translate(377.514,-175.945)">
				<title>45 度双向箭头.230</title>
				<path d="M0 653.26 L5.67 647.59 L5.67 651.33 L47.23 651.33 L47.23 647.59 L52.9 653.26 L47.23 658.93 L47.23 655.19
							 L5.67 655.19 L5.67 658.93 L0 653.26 Z" class="st11"/>
			</g>
			<g id="shape79-223" transform="translate(281.136,-170.276)">
				<title>Box.268</title>
				<desc>UART1</desc>
				<rect x="0" y="636.25" width="96.378" height="22.6772" class="st11"/>
				<text x="37.16" y="649.99" class="st4">UART1</text>			</g>
			<g id="shape81-227" transform="translate(496.387,-49.6809)">
				<title>Box.373</title>
				<desc>SARADC CTRL</desc>
				<rect x="0" y="636.25" width="96.378" height="22.6772" class="st11"/>
				<text x="26.12" y="649.99" class="st4">SARADC CTRL</text>			</g>
			<g id="shape84-231" transform="translate(-611.926,352.078) rotate(-90)">
				<title>45 度双向箭头.357</title>
				<path d="M0 653.26 L5.67 647.59 L5.67 651.33 L17.95 651.33 L17.95 647.59 L23.62 653.26 L17.95 658.93 L17.95 655.19
							 L5.67 655.19 L5.67 658.93 L0 653.26 Z" class="st11"/>
			</g>
			<g id="shape85-234" transform="translate(-611.926,300.582) rotate(-90)">
				<title>45 度双向箭头.358</title>
				<path d="M0 653.26 L5.67 647.59 L5.67 651.33 L17.95 651.33 L17.95 647.59 L23.62 653.26 L17.95 658.93 L17.95 655.19
							 L5.67 655.19 L5.67 658.93 L0 653.26 Z" class="st11"/>
			</g>
			<g id="shape86-237" transform="translate(-563.666,438.373) rotate(-90)">
				<title>45 度双向箭头.2</title>
				<path d="M0 653.26 L5.67 647.59 L5.67 651.33 L17.95 651.33 L17.95 647.59 L23.62 653.26 L17.95 658.93 L17.95 655.19
							 L5.67 655.19 L5.67 658.93 L0 653.26 Z" class="st11"/>
			</g>
			<g id="shape87-240" transform="translate(496.387,-171.294)">
				<title>框.102</title>
				<desc>PORTCON</desc>
				<rect x="0" y="636.25" width="96.378" height="22.6772" class="st11"/>
				<text x="31.99" y="649.99" class="st4">PORTCON</text>			</g>
			<g id="shape88-244" transform="translate(448.505,-176.963)">
				<title>45 度双向箭头.88</title>
				<path d="M0 653.26 L5.67 647.59 L5.67 651.33 L42.21 651.33 L42.21 647.59 L47.88 653.26 L42.21 658.93 L42.21 655.19
							 L5.67 655.19 L5.67 658.93 L0 653.26 Z" class="st11"/>
			</g>
			<g id="shape89-247" transform="translate(548.202,-448.059)">
				<title>45 度双向箭头.237</title>
				<path d="M0 653.26 L5.67 647.59 L5.67 651.33 L42.76 651.33 L42.76 647.59 L48.43 653.26 L42.76 658.93 L42.76 655.19
							 L5.67 655.19 L5.67 658.93 L0 653.26 Z" class="st11"/>
			</g>
			<g id="shape90-250" transform="translate(596.747,-436.72)">
				<title>框.238</title>
				<desc>GPIOC</desc>
				<rect x="0" y="624.911" width="96.378" height="34.0157" class="st11"/>
				<text x="37.81" y="644.32" class="st4">GPIOC</text>			</g>
			<g id="shape91-254" transform="translate(548.155,-403.003)">
				<title>45 度双向箭头.239</title>
				<path d="M0 653.26 L5.67 647.59 L5.67 651.33 L42.82 651.33 L42.82 647.59 L48.49 653.26 L42.82 658.93 L42.82 655.19
							 L5.67 655.19 L5.67 658.93 L0 653.26 Z" class="st11"/>
			</g>
			<g id="shape92-257" transform="translate(596.747,-391.664)">
				<title>框.240</title>
				<desc>CRC</desc>
				<rect x="0" y="624.911" width="96.378" height="34.0157" class="st11"/>
				<text x="41.75" y="644.32" class="st4">CRC</text>			</g>
			<g id="shape93-261" transform="translate(548.006,-359.168)">
				<title>45 度双向箭头.104</title>
				<path d="M0 653.26 L5.67 647.59 L5.67 651.33 L42.99 651.33 L42.99 647.59 L48.66 653.26 L42.99 658.93 L42.99 655.19
							 L5.67 655.19 L5.67 658.93 L0 653.26 Z" class="st11"/>
			</g>
			<g id="shape94-264" transform="translate(596.747,-347.83)">
				<title>框.105</title>
				<desc>DIV</desc>
				<rect x="0" y="624.911" width="96.378" height="34.0157" class="st11"/>
				<text x="42.45" y="644.32" class="st4">DIV</text>			</g>
			<g id="shape95-268" transform="translate(377.514,-79.5289)">
				<title>45 度双向箭头.52</title>
				<path d="M0 653.26 L5.67 647.59 L5.67 651.33 L47.26 651.33 L47.26 647.59 L52.93 653.26 L47.26 658.93 L47.26 655.19
							 L5.67 655.19 L5.67 658.93 L0 653.26 Z" class="st11"/>
			</g>
			<g id="shape96-271" transform="translate(281.136,-73.8596)">
				<title>Box.53</title>
				<desc>TIMER_BASE x4</desc>
				<rect x="0" y="636.25" width="96.378" height="22.6772" class="st11"/>
				<text x="22.75" y="649.99" class="st4">TIMER_BASE x4</text>			</g>
			<g id="shape97-275" transform="translate(139.672,-575.916)">
				<title>框.178</title>
				<desc>PLL</desc>
				<rect x="0" y="644.754" width="26.1551" height="14.1732" class="st11"/>
				<text x="7.65" y="654.24" class="st4">PLL</text>			</g>
			<g id="shape101-279" transform="translate(496.387,-195.591)">
				<title>框.90</title>
				<desc>CAN</desc>
				<rect x="0" y="636.25" width="96.378" height="22.6772" class="st11"/>
				<text x="41.16" y="649.99" class="st4">CAN</text>			</g>
			<g id="shape102-283" transform="translate(448.741,-201.26)">
				<title>45 度双向箭头.91</title>
				<path d="M0 653.26 L5.67 647.59 L5.67 651.33 L41.98 651.33 L41.98 647.59 L47.65 653.26 L41.98 658.93 L41.98 655.19
							 L5.67 655.19 L5.67 658.93 L0 653.26 Z" class="st11"/>
			</g>
			<g id="shape103-286" transform="translate(480.342,-359.633)">
				<title>45 度双向箭头.92</title>
				<path d="M0 653.26 L5.67 647.59 L5.67 651.33 L43.23 651.33 L43.23 647.59 L48.9 653.26 L43.23 658.93 L43.23 655.19
							 L5.67 655.19 L5.67 658.93 L0 653.26 Z" class="st11"/>
			</g>
			<g id="shape104-289" transform="translate(385.651,-348.294)">
				<title>框.93</title>
				<desc>DMA</desc>
				<rect x="0" y="624.911" width="94.6915" height="34.0157" class="st11"/>
				<text x="39.15" y="644.32" class="st4">DMA</text>			</g>
			<g id="shape106-293" transform="translate(496.387,-74.1484)">
				<title>Box.107</title>
				<desc>Emb flash ctrl</desc>
				<rect x="0" y="636.25" width="96.378" height="22.6772" class="st11"/>
				<text x="26.07" y="649.99" class="st4">Emb flash ctrl</text>			</g>
			<g id="shape109-297" transform="translate(529.506,902.33) rotate(180)">
				<title>45 degree double.267</title>
				<path d="M0 653.26 L5.67 647.59 L5.67 651.33 L42.97 651.33 L42.97 647.59 L48.64 653.26 L42.97 658.93 L42.97 655.19
							 L5.67 655.19 L5.67 658.93 L0 653.26 Z" class="st11"/>
			</g>
			<g id="shape110-300" transform="translate(385.651,-392.847)">
				<title>框.268</title>
				<desc>MPU</desc>
				<rect x="0" y="624.911" width="94.8199" height="34.0157" class="st11"/>
				<text x="39.36" y="644.32" class="st4">MPU</text>			</g>
			<g id="shape111-304" transform="translate(377.514,-151.841)">
				<title>45 度双向箭头.111</title>
				<path d="M0 653.26 L5.67 647.59 L5.67 651.33 L47.23 651.33 L47.23 647.59 L52.9 653.26 L47.23 658.93 L47.23 655.19
							 L5.67 655.19 L5.67 658.93 L0 653.26 Z" class="st11"/>
			</g>
			<g id="shape112-307" transform="translate(281.136,-146.172)">
				<title>Box.122</title>
				<desc>SPI0</desc>
				<rect x="0" y="636.25" width="96.378" height="22.6772" class="st11"/>
				<text x="41.25" y="649.99" class="st4">SPI0</text>			</g>
			<g id="shape113-311" transform="translate(-240.947,352.078) rotate(-90)">
				<title>45 度双向箭头.113</title>
				<path d="M0 653.26 L5.67 647.59 L5.67 651.33 L35.78 651.33 L35.78 647.59 L41.44 653.26 L35.78 658.93 L35.78 655.19
							 L5.67 655.19 L5.67 658.93 L0 653.26 Z" class="st11"/>
			</g>
			<g id="shape114-314" transform="translate(-198.428,352.078) rotate(-90)">
				<title>45 度双向箭头.124</title>
				<path d="M0 653.26 L5.67 647.59 L5.67 651.33 L35.78 651.33 L35.78 647.59 L41.44 653.26 L35.78 658.93 L35.78 655.19
							 L5.67 655.19 L5.67 658.93 L0 653.26 Z" class="st11"/>
			</g>
			<g id="shape115-317" transform="translate(399.431,-292.452)">
				<title>Sheet.115</title>
				<desc>M1</desc>
				<rect x="0" y="650.423" width="27.6602" height="8.50394" class="st3"/>
				<text x="4.3" y="658.88" class="st10">M1</text>			</g>
			<g id="shape116-320" transform="translate(443.443,-292.452)">
				<title>Sheet.116</title>
				<desc>M2</desc>
				<rect x="0" y="650.423" width="27.6602" height="8.50394" class="st3"/>
				<text x="4.3" y="658.88" class="st10">M2</text>			</g>
			<g id="shape117-323" transform="translate(481.89,-536.53)">
				<title>45 度双向箭头.117</title>
				<path d="M0 653.26 L5.67 647.59 L5.67 651.33 L41.39 651.33 L41.39 647.59 L47.06 653.26 L41.39 658.93 L41.39 655.19
							 L5.67 655.19 L5.67 658.93 L0 653.26 Z" class="st11"/>
			</g>
			<g id="shape118-326" transform="translate(385.512,-525.191)">
				<title>框.118</title>
				<desc>SYS_CON</desc>
				<rect x="0" y="624.911" width="96.378" height="34.0157" class="st11"/>
				<text x="33.21" y="644.32" class="st4">SYS_CON</text>			</g>
			<g id="shape125-330" transform="translate(548.128,-493.603)">
				<title>45 度双向箭头.125</title>
				<path d="M0 653.26 L5.67 647.59 L5.67 651.33 L43.52 651.33 L43.52 647.59 L49.19 653.26 L43.52 658.93 L43.52 655.19
							 L5.67 655.19 L5.67 658.93 L0 653.26 Z" class="st11"/>
			</g>
			<g id="shape126-333" transform="translate(597.364,-481.925)">
				<title>框.126</title>
				<desc>GPIOB</desc>
				<rect x="0" y="624.911" width="96.378" height="34.0157" class="st11"/>
				<text x="37.77" y="644.32" class="st4">GPIOB</text>			</g>
			<g id="shape127-337" transform="translate(548.169,-536.122)">
				<title>45 degree double.127</title>
				<path d="M0 653.26 L5.67 647.59 L5.67 651.33 L43.44 651.33 L43.44 647.59 L49.11 653.26 L43.44 658.93 L43.44 655.19
							 L5.67 655.19 L5.67 658.93 L0 653.26 Z" class="st11"/>
			</g>
			<g id="shape128-340" transform="translate(597.364,-524.594)">
				<title>Box.128</title>
				<desc>GPIOA</desc>
				<rect x="0" y="624.911" width="96.378" height="34.0157" class="st11"/>
				<text x="37.63" y="644.32" class="st4">GPIOA</text>			</g>
			<g id="shape129-344" transform="translate(216.909,775.729) rotate(-179.985)">
				<title>Sheet.129</title>
				<path d="M7.95 658.93 L8.31 658.93 L110.96 658.93" class="st17"/>
			</g>
			<g id="shape130-350" transform="translate(216.909,761.05) rotate(-179.985)">
				<title>Sheet.130</title>
				<path d="M7.95 658.93 L8.31 658.93 L110.96 658.93" class="st17"/>
			</g>
			<g id="shape131-356" transform="translate(140.419,-583.003)">
				<title>动态连接线</title>
				<path d="M-5.93 658.93 L-6.29 658.93 L-13.43 658.93 L-13.43 697.7" class="st18"/>
			</g>
			<g id="shape132-366" transform="translate(145.663,-575.916)">
				<title>动态连接线.132</title>
				<path d="M7.09 664.11 L7.09 664.47 L7.09 675.94" class="st18"/>
			</g>
			<g id="shape133-374" transform="translate(165.827,-583.824)">
				<title>动态连接线.133</title>
				<path d="M0 659.75 L61.46 659.75 L61.46 666.74" class="st19"/>
			</g>
			<g id="shape134-381" transform="translate(448.846,-79.8177)">
				<title>45 度双向箭头.134</title>
				<path d="M0 653.26 L5.67 647.59 L5.67 651.33 L41.87 651.33 L41.87 647.59 L47.54 653.26 L41.87 658.93 L41.87 655.19
							 L5.67 655.19 L5.67 658.93 L0 653.26 Z" class="st11"/>
			</g>
			<g id="shape136-384" transform="translate(448.883,-55.3502)">
				<title>45 度双向箭头.136</title>
				<path d="M0 653.26 L5.67 647.59 L5.67 651.33 L41.83 651.33 L41.83 647.59 L47.5 653.26 L41.83 658.93 L41.83 655.19
							 L5.67 655.19 L5.67 658.93 L0 653.26 Z" class="st11"/>
			</g>
			<g id="shape138-387" transform="translate(482.366,-494.01) rotate(0.0630929)">
				<title>45 度双向箭头.138</title>
				<path d="M0 653.26 L5.67 647.59 L5.67 651.33 L41.7 651.33 L41.7 647.59 L47.37 653.26 L41.7 658.93 L41.7 655.19 L5.67
							 655.19 L5.67 658.93 L0 653.26 Z" class="st11"/>
			</g>
			<g id="shape139-390" transform="translate(481.647,-448.059)">
				<title>45 度双向箭头.139</title>
				<path d="M0 653.26 L5.67 647.59 L5.67 651.33 L41.63 651.33 L41.63 647.59 L47.29 653.26 L41.63 658.93 L41.63 655.19
							 L5.67 655.19 L5.67 658.93 L0 653.26 Z" class="st11"/>
			</g>
			<g id="shape140-393" transform="translate(281.136,-49.7555)">
				<title>Box.140</title>
				<desc>QEI</desc>
				<rect x="0" y="636.25" width="96.378" height="22.6772" class="st11"/>
				<text x="42.54" y="649.99" class="st4">QEI</text>			</g>
			<g id="shape141-397" transform="translate(377.514,-55.4248)">
				<title>45 度双向箭头.141</title>
				<path d="M0 653.26 L5.67 647.59 L5.67 651.33 L47.26 651.33 L47.26 647.59 L52.93 653.26 L47.26 658.93 L47.26 655.19
							 L5.67 655.19 L5.67 658.93 L0 653.26 Z" class="st11"/>
			</g>
			<g id="shape142-400" transform="translate(280.738,-25.5118)">
				<title>Box.142</title>
				<desc>USART</desc>
				<rect x="0" y="636.25" width="96.378" height="22.6772" class="st11"/>
				<text x="37.35" y="649.99" class="st4">USART</text>			</g>
			<g id="shape143-404" transform="translate(377.116,-31.1811)">
				<title>45 度双向箭头.143</title>
				<path d="M0 653.26 L5.67 647.59 L5.67 651.33 L47.66 651.33 L47.66 647.59 L53.33 653.26 L47.66 658.93 L47.66 655.19
							 L5.67 655.19 L5.67 658.93 L0 653.26 Z" class="st11"/>
			</g>
			<g id="shape145-407" transform="translate(44.4125,-131.806)">
				<title>框.145</title>
				<desc>Flash (128KB)</desc>
				<rect x="0" y="616.675" width="90.1735" height="42.2522" class="st12"/>
				<text x="23.08" y="640.2" class="st4">Flash (128KB)</text>			</g>
		</g>
	</g>
</svg>
