<?xml version="1.0" encoding="UTF-8" standalone="no"?>
<!DOCTYPE svg PUBLIC "-//W3C//DTD SVG 1.1//EN" "http://www.w3.org/Graphics/SVG/1.1/DTD/svg11.dtd">
<!-- Generated by Microsoft Visio, SVG Export 结构框图.svg Page-1 -->
<svg xmlns="http://www.w3.org/2000/svg" xmlns:xlink="http://www.w3.org/1999/xlink" xmlns:ev="http://www.w3.org/2001/xml-events"
		width="7.68064in" height="3.6452in" viewBox="0 0 553.006 262.455" xml:space="preserve" color-interpolation-filters="sRGB"
		class="st16">
	<style type="text/css">
	<![CDATA[
		.st1 {stroke:#404040;stroke-linecap:round;stroke-linejoin:round;stroke-width:0.5}
		.st2 {fill:url(#grad0-4);stroke:#404040;stroke-linecap:round;stroke-linejoin:round;stroke-width:0.25}
		.st3 {fill:#000000;font-family:Arial;font-size:0.666664em}
		.st4 {marker-end:url(#mrkr4-19);marker-start:url(#mrkr4-17);stroke:#404040;stroke-linecap:round;stroke-linejoin:round;stroke-width:6}
		.st5 {fill:#404040;fill-opacity:1;stroke:#404040;stroke-opacity:1;stroke-width:0.70422535211268}
		.st6 {marker-end:url(#mrkr2-26);stroke:#404040;stroke-linecap:butt;stroke-width:6}
		.st7 {fill:#404040;fill-opacity:1;stroke:#404040;stroke-opacity:1;stroke-width:0.76923076923077}
		.st8 {fill:none;stroke:none;stroke-linecap:round;stroke-linejoin:round;stroke-width:0.25}
		.st9 {fill:#000000;font-family:Arial;font-size:0.833336em;font-weight:bold}
		.st10 {stroke:#404040;stroke-linecap:round;stroke-linejoin:round;stroke-width:0.25}
		.st11 {font-size:1em}
		.st12 {marker-start:url(#mrkr5-104);stroke:#404040;stroke-linecap:round;stroke-linejoin:round;stroke-width:0.5}
		.st13 {fill:#404040;fill-opacity:1;stroke:#404040;stroke-opacity:1;stroke-width:0.16556291390728}
		.st14 {marker-end:url(#mrkr5-117);stroke:#404040;stroke-linecap:round;stroke-linejoin:round;stroke-width:0.5}
		.st15 {fill:#000000;font-family:Arial;font-size:0.499992em}
		.st16 {fill:none;fill-rule:evenodd;font-size:12px;overflow:visible;stroke-linecap:square;stroke-miterlimit:3}
	]]>
	</style>

	<defs id="Patterns_And_Gradients">
		<linearGradient id="grad0-4" x1="0" y1="0" x2="1" y2="0" gradientTransform="rotate(270 0.5 0.5)">
			<stop offset="0" stop-color="#f0f0f0" stop-opacity="1"/>
			<stop offset="1" stop-color="#ffffff" stop-opacity="1"/>
		</linearGradient>
	</defs>
	<defs id="Markers">
		<g id="lend4">
			<path d="M 2 1 L 0 0 L 2 -1 L 2 1 " style="stroke:none"/>
		</g>
		<marker id="mrkr4-17" class="st5" refX="2.78" orient="auto" markerUnits="strokeWidth" overflow="visible">
			<use xlink:href="#lend4" transform="scale(1.42) "/>
		</marker>
		<marker id="mrkr4-19" class="st5" refX="-2.84" orient="auto" markerUnits="strokeWidth" overflow="visible">
			<use xlink:href="#lend4" transform="scale(-1.42,-1.42) "/>
		</marker>
		<g id="lend2">
			<path d="M 1 1 L 0 0 L 1 -1 L 1 1 " style="stroke:none"/>
		</g>
		<marker id="mrkr2-26" class="st7" refX="-1.3" orient="auto" markerUnits="strokeWidth" overflow="visible">
			<use xlink:href="#lend2" transform="scale(-1.3,-1.3) "/>
		</marker>
		<g id="lend5">
			<path d="M 2 1 L 0 0 L 1.98117 -0.993387 C 1.67173 -0.364515 1.67301 0.372641 1.98465 1.00043 " style="stroke:none"/>
		</g>
		<marker id="mrkr5-104" class="st13" refX="9.85" orient="auto" markerUnits="strokeWidth" overflow="visible">
			<use xlink:href="#lend5" transform="scale(6.04) "/>
		</marker>
		<marker id="mrkr5-117" class="st13" refX="-10.57" orient="auto" markerUnits="strokeWidth" overflow="visible">
			<use xlink:href="#lend5" transform="scale(-6.04,-6.04) "/>
		</marker>
	</defs>
	<g>
		<title>页-1</title>
		<g id="shape97-1" transform="translate(-85.1644,212.723) rotate(-90)">
			<title>Sheet.97</title>
			<path d="M0 262.45 L127.56 262.45" class="st1"/>
		</g>
		<g id="shape100-6" transform="translate(63.9045,-78.0778)">
			<title>Sheet.100</title>
			<desc>DATAIN</desc>
			<rect x="0" y="205.762" width="42.5197" height="56.6929" class="st2"/>
			<text x="6.59" y="236.51" class="st3">DATAIN</text>		</g>
		<g id="shape106-10" transform="translate(35.5581,-241.07)">
			<title>Sheet.106</title>
			<path d="M16.68 262.45 L17.04 262.45 L464.85 262.45" class="st4"/>
		</g>
		<g id="shape107-20" transform="translate(347.619,24.2195) rotate(90)">
			<title>Sheet.107</title>
			<path d="M0 262.45 L95.66 262.45" class="st6"/>
		</g>
		<g id="shape108-27" transform="translate(259.936,-244.408)">
			<title>Sheet.108</title>
			<desc>AHB</desc>
			<rect x="0" y="246.455" width="59.0866" height="16" class="st8"/>
			<text x="18.71" y="257.45" class="st9">AHB</text>		</g>
		<g id="shape109-30" transform="translate(0.125011,-262.33)">
			<title>Sheet.109</title>
			<path d="M0 262.45 L552.76 262.45" class="st10"/>
		</g>
		<g id="shape110-34" transform="translate(815.336,0.125) rotate(90)">
			<title>Sheet.110</title>
			<path d="M0 262.45 L262.2 262.45" class="st10"/>
		</g>
		<g id="shape111-38" transform="translate(552.881,524.784) rotate(180)">
			<title>Sheet.111</title>
			<path d="M0 262.45 L552.76 262.45" class="st10"/>
		</g>
		<g id="shape112-42" transform="translate(-262.33,262.33) rotate(-90)">
			<title>Sheet.112</title>
			<path d="M0 262.45 L262.2 262.45" class="st10"/>
		</g>
		<g id="shape78-46" transform="translate(446.582,-92.251)">
			<title>Sheet.78</title>
			<desc>RESULT</desc>
			<rect x="0" y="205.762" width="42.5197" height="56.6929" class="st2"/>
			<text x="5.48" y="236.51" class="st3">RESULT</text>		</g>
		<g id="shape79-50" transform="translate(205.387,113.511) rotate(-90)">
			<title>Sheet.79</title>
			<path d="M0 262.45 L81.49 262.45" class="st6"/>
		</g>
		<g id="shape80-56" transform="translate(120.597,-78.0778)">
			<title>Sheet.80</title>
			<desc>rev&#38; comp</desc>
			<rect x="0" y="205.762" width="35.3081" height="56.6929" class="st2"/>
			<text x="9.43" y="231.71" class="st3">rev&#38; <tspan x="7.87" dy="1.2em" class="st11">comp</tspan></text>		</g>
		<g id="shape81-61" transform="translate(401.386,-92.251)">
			<title>Sheet.81</title>
			<desc>rev&#38; comp</desc>
			<rect x="0" y="205.762" width="31.0226" height="56.6929" class="st2"/>
			<text x="7.29" y="231.71" class="st3">rev&#38; <tspan x="5.73" dy="1.2em" class="st11">comp</tspan></text>		</g>
		<g id="shape82-66" transform="translate(205.637,-156.031)">
			<title>Sheet.82</title>
			<desc>CCITT</desc>
			<rect x="0" y="234.108" width="42.5197" height="28.3465" class="st2"/>
			<text x="9.48" y="250.68" class="st3">CCITT</text>		</g>
		<g id="shape83-70" transform="translate(205.637,-113.511)">
			<title>Sheet.83</title>
			<desc>CRC-8</desc>
			<rect x="0" y="234.108" width="42.5197" height="28.3465" class="st2"/>
			<text x="9.04" y="250.68" class="st3">CRC-8</text>		</g>
		<g id="shape84-74" transform="translate(205.637,-70.9911)">
			<title>Sheet.84</title>
			<desc>CRC-16</desc>
			<rect x="0" y="234.108" width="42.5197" height="28.3465" class="st2"/>
			<text x="6.81" y="250.68" class="st3">CRC-16</text>		</g>
		<g id="shape85-78" transform="translate(205.637,-28.4715)">
			<title>Sheet.85</title>
			<desc>CRC-32</desc>
			<rect x="0" y="234.108" width="42.5197" height="28.3465" class="st2"/>
			<text x="6.81" y="250.68" class="st3">CRC-32</text>		</g>
		<g id="shape86-82" transform="translate(546.044,99.3376) rotate(90)">
			<title>Sheet.86</title>
			<path d="M0 262.45 L113.39 262.45" class="st1"/>
		</g>
		<g id="shape87-86" transform="translate(429.173,-119.038) rotate(33.6901)">
			<title>Sheet.87</title>
			<path d="M0 262.45 L25.55 262.45" class="st1"/>
		</g>
		<g id="shape88-90" transform="translate(567.302,114.518) rotate(90.2198)">
			<title>Sheet.88</title>
			<path d="M0 262.45 L85.26 262.45" class="st1"/>
		</g>
		<g id="shape89-94" transform="translate(138.006,-5.65211) rotate(-33.6901)">
			<title>Sheet.89</title>
			<path d="M0 262.45 L25.55 262.45" class="st1"/>
		</g>
		<g id="shape94-98" transform="translate(283.59,397.225) rotate(180)">
			<title>Sheet.94</title>
			<path d="M4.93 262.45 L5.29 262.45 L35.43 262.45" class="st12"/>
		</g>
		<g id="shape95-105" transform="translate(283.59,439.745) rotate(180)">
			<title>Sheet.95</title>
			<path d="M4.93 262.45 L5.29 262.45 L35.43 262.45" class="st12"/>
		</g>
		<g id="shape133-111" transform="translate(262.33,-148.944)">
			<title>Sheet.133</title>
			<path d="M0 262.45 L15.97 262.45" class="st14"/>
		</g>
		<g id="shape134-118" transform="translate(283.59,461.005) rotate(180)">
			<title>Sheet.134</title>
			<path d="M4.93 262.45 L5.29 262.45 L21.26 262.45" class="st12"/>
		</g>
		<g id="shape135-124" transform="translate(524.784,198.55) rotate(90)">
			<title>Sheet.135</title>
			<path d="M0 262.45 L21.26 262.45" class="st1"/>
		</g>
		<g id="shape136-128" transform="translate(262.33,482.265) rotate(180)">
			<title>Sheet.136</title>
			<path d="M0 262.45 L14.17 262.45" class="st1"/>
		</g>
		<g id="shape113-132" transform="translate(262.33,354.706) rotate(180)">
			<title>Sheet.113</title>
			<path d="M0 262.45 L14.17 262.45" class="st1"/>
		</g>
		<g id="shape132-136" transform="translate(524.784,92.251) rotate(90)">
			<title>Sheet.132</title>
			<path d="M0 262.45 L21.26 262.45" class="st1"/>
		</g>
		<g id="shape137-140" transform="translate(191.464,-163.117)">
			<title>Sheet.137</title>
			<path d="M0 262.45 L8.89 262.45" class="st14"/>
		</g>
		<g id="shape138-146" transform="translate(191.464,-120.597)">
			<title>Sheet.138</title>
			<path d="M0 262.45 L8.89 262.45" class="st14"/>
		</g>
		<g id="shape139-152" transform="translate(191.464,-78.0778)">
			<title>Sheet.139</title>
			<path d="M0 262.45 L8.89 262.45" class="st14"/>
		</g>
		<g id="shape140-158" transform="translate(191.464,-35.5581)">
			<title>Sheet.140</title>
			<path d="M0 262.45 L8.89 262.45" class="st14"/>
		</g>
		<g id="shape141-164" transform="translate(177.29,418.485) rotate(180)">
			<title>Sheet.141</title>
			<path d="M0 262.45 L21.38 262.45" class="st1"/>
		</g>
		<g id="shape142-168" transform="translate(177.29,-177.29)">
			<title>Sheet.142</title>
			<path d="M0 262.45 L23.06 262.45" class="st14"/>
		</g>
		<g id="shape143-174" transform="translate(177.29,-134.771)">
			<title>Sheet.143</title>
			<path d="M0 262.45 L23.06 262.45" class="st14"/>
		</g>
		<g id="shape144-180" transform="translate(177.29,-92.251)">
			<title>Sheet.144</title>
			<path d="M0 262.45 L23.06 262.45" class="st14"/>
		</g>
		<g id="shape145-186" transform="translate(177.29,-49.7313)">
			<title>Sheet.145</title>
			<path d="M0 262.45 L23.06 262.45" class="st14"/>
		</g>
		<g id="shape146-192" transform="translate(106.424,-106.424)">
			<title>Sheet.146</title>
			<path d="M0 262.45 L8.89 262.45" class="st14"/>
		</g>
		<g id="shape147-198" transform="translate(432.408,-120.125)">
			<title>Sheet.147</title>
			<path d="M0 262.45 L8.89 262.45" class="st14"/>
		</g>
		<g id="group148-204" transform="translate(333.196,-92.251)">
			<title>Sheet.148</title>
			<g id="shape90-205" transform="translate(262.455,205.762) rotate(90)">
				<title>Sheet.90</title>
				<path d="M0 262.45 L56.69 262.45" class="st1"/>
			</g>
			<g id="shape91-209" transform="translate(106.593,-34.0723) rotate(23.9625)">
				<title>Sheet.91</title>
				<path d="M0 262.45 L23.27 262.45" class="st1"/>
			</g>
			<g id="shape92-213" transform="translate(283.715,215.211) rotate(90)">
				<title>Sheet.92</title>
				<path d="M0 262.45 L37.8 262.45" class="st1"/>
			</g>
			<g id="shape93-217" transform="translate(-106.593,22.6206) rotate(-23.9625)">
				<title>Sheet.93</title>
				<path d="M0 262.45 L23.27 262.45" class="st1"/>
			</g>
		</g>
		<g id="shape149-221" transform="translate(304.688,-106.775)">
			<title>Sheet.149</title>
			<path d="M0 262.45 L23.06 262.45" class="st14"/>
		</g>
		<g id="shape150-227" transform="translate(354.456,-120.597)">
			<title>Sheet.150</title>
			<path d="M0 262.45 L41.44 262.45" class="st14"/>
		</g>
		<g id="shape151-233" transform="translate(297.763,-177.29)">
			<title>Sheet.151</title>
			<desc>INIVAL</desc>
			<rect x="0" y="241.195" width="42.5197" height="21.2598" class="st2"/>
			<text x="8.59" y="254.22" class="st3">INIVAL</text>		</g>
		<g id="shape152-237" transform="translate(319.023,-134.416)">
			<title>Sheet.152</title>
			<path d="M0 262.45 L8.89 262.45" class="st14"/>
		</g>
		<g id="shape153-243" transform="translate(56.5679,128.038) rotate(-90)">
			<title>Sheet.153</title>
			<path d="M0 262.45 L42.87 262.45" class="st1"/>
		</g>
		<g id="shape154-247" transform="translate(581.477,21.3848) rotate(90)">
			<title>Sheet.154</title>
			<path d="M0 262.45 L34.72 262.45" class="st6"/>
		</g>
		<g id="shape155-253" transform="translate(-70.9911,248.156) rotate(-90)">
			<title>Sheet.155</title>
			<path d="M0 262.45 L148.82 262.45" class="st1"/>
		</g>
		<g id="shape156-257" transform="translate(375.716,510.611) rotate(180)">
			<title>Sheet.156</title>
			<path d="M0 262.45 L184.25 262.45" class="st1"/>
		</g>
		<g id="shape157-261" transform="translate(113.261,248.156) rotate(-90)">
			<title>Sheet.157</title>
			<path d="M0 262.45 L106.3 262.45" class="st1"/>
		</g>
		<g id="shape1-265" transform="translate(560.354,203.184) rotate(90)">
			<title>Sheet.1</title>
			<path d="M4.93 262.45 L5.29 262.45 L17.26 262.45" class="st12"/>
		</g>
		<g id="shape2-271" transform="translate(283.59,-29.8888)">
			<title>Sheet.2</title>
			<desc>POLY</desc>
			<rect x="0" y="246.455" width="28.3465" height="16" class="st8"/>
			<text x="6.17" y="256.26" class="st15">POLY</text>		</g>
	</g>
</svg>
