<?xml version="1.0" encoding="UTF-8" standalone="no"?>
<!DOCTYPE svg PUBLIC "-//W3C//DTD SVG 1.1//EN" "http://www.w3.org/Graphics/SVG/1.1/DTD/svg11.dtd">
<!-- Generated by Microsoft Visio, SVG Export 中断请求.svg Page-1 -->
<svg xmlns="http://www.w3.org/2000/svg" xmlns:xlink="http://www.w3.org/1999/xlink" xmlns:ev="http://www.w3.org/2001/xml-events"
		width="8.53209in" height="3.83304in" viewBox="0 0 614.31 275.979" xml:space="preserve" color-interpolation-filters="sRGB"
		class="st7">
	<style type="text/css">
	<![CDATA[
		.st1 {stroke:#000000;stroke-linecap:round;stroke-linejoin:round;stroke-width:1}
		.st2 {marker-end:url(#mrkr13-67);stroke:#000000;stroke-linecap:round;stroke-linejoin:round;stroke-width:1}
		.st3 {fill:#000000;fill-opacity:1;stroke:#000000;stroke-opacity:1;stroke-width:0.28409090909091}
		.st4 {fill:none;stroke:none;stroke-width:0.25}
		.st5 {fill:#000000;font-family:Microsoft Sans Serif;font-size:1.5em}
		.st6 {fill:#000000;font-family:Microsoft Sans Serif;font-size:1.33333em}
		.st7 {fill:none;fill-rule:evenodd;font-size:12px;overflow:visible;stroke-linecap:square;stroke-miterlimit:3}
	]]>
	</style>

	<defs id="Markers">
		<g id="lend13">
			<path d="M 3 1 L 0 0 L 3 -1 L 3 1 " style="stroke:none"/>
		</g>
		<marker id="mrkr13-67" class="st3" refX="-10.56" orient="auto" markerUnits="strokeWidth" overflow="visible">
			<use xlink:href="#lend13" transform="scale(-3.52,-3.52) "/>
		</marker>
	</defs>
	<g>
		<title>页-1</title>
		<g id="group7-1" transform="translate(114.171,-193.949)">
			<title>Sheet.7</title>
			<g id="shape1-2" transform="translate(275.979,219.286) rotate(90)">
				<title>Sheet.1</title>
				<path d="M0 275.98 L56.69 275.98" class="st1"/>
			</g>
			<g id="shape2-5" transform="translate(0,-56.6929)">
				<title>Sheet.2</title>
				<path d="M0 275.98 L42.52 275.98" class="st1"/>
			</g>
			<g id="shape3-8">
				<title>Sheet.3</title>
				<path d="M0 275.98 L42.52 275.98" class="st1"/>
			</g>
			<g id="shape5-11" transform="translate(237.666,24.1395) rotate(45)">
				<title>Sheet.5</title>
				<path d="M-0 275.98 A28.3465 28.3465 135 0 1 40.09 275.98" class="st1"/>
			</g>
			<g id="shape6-14" transform="translate(-146.756,86.7031) rotate(-45)">
				<title>Sheet.6</title>
				<path d="M0 267.68 A28.3465 28.3465 -135 0 0 40.09 267.68" class="st1"/>
			</g>
		</g>
		<g id="group8-17" transform="translate(114.171,-108.91)">
			<title>Sheet.8</title>
			<g id="shape9-18" transform="translate(275.979,219.286) rotate(90)">
				<title>Sheet.9</title>
				<path d="M0 275.98 L56.69 275.98" class="st1"/>
			</g>
			<g id="shape10-21" transform="translate(0,-56.6929)">
				<title>Sheet.10</title>
				<path d="M0 275.98 L42.52 275.98" class="st1"/>
			</g>
			<g id="shape11-24">
				<title>Sheet.11</title>
				<path d="M0 275.98 L42.52 275.98" class="st1"/>
			</g>
			<g id="shape12-27" transform="translate(237.666,24.1395) rotate(45)">
				<title>Sheet.12</title>
				<path d="M-0 275.98 A28.3465 28.3465 135 0 1 40.09 275.98" class="st1"/>
			</g>
			<g id="shape13-30" transform="translate(-146.756,86.7031) rotate(-45)">
				<title>Sheet.13</title>
				<path d="M0 267.68 A28.3465 28.3465 -135 0 0 40.09 267.68" class="st1"/>
			</g>
		</g>
		<g id="group14-33" transform="translate(114.171,-23.8707)">
			<title>Sheet.14</title>
			<g id="shape15-34" transform="translate(275.979,219.286) rotate(90)">
				<title>Sheet.15</title>
				<path d="M0 275.98 L56.69 275.98" class="st1"/>
			</g>
			<g id="shape16-37" transform="translate(0,-56.6929)">
				<title>Sheet.16</title>
				<path d="M0 275.98 L42.52 275.98" class="st1"/>
			</g>
			<g id="shape17-40">
				<title>Sheet.17</title>
				<path d="M0 275.98 L42.52 275.98" class="st1"/>
			</g>
			<g id="shape18-43" transform="translate(237.666,24.1395) rotate(45)">
				<title>Sheet.18</title>
				<path d="M-0 275.98 A28.3465 28.3465 135 0 1 40.09 275.98" class="st1"/>
			</g>
			<g id="shape19-46" transform="translate(-146.756,86.7031) rotate(-45)">
				<title>Sheet.19</title>
				<path d="M0 267.68 A28.3465 28.3465 -135 0 0 40.09 267.68" class="st1"/>
			</g>
		</g>
		<g id="group47-49" transform="translate(312.596,-94.7369)">
			<title>Sheet.47</title>
			<g id="shape41-50" transform="translate(229.628,37.854) rotate(56.3099)">
				<title>Sheet.41</title>
				<path d="M0 275.98 A42.5197 28.3465 33.69 0 1 51.1 275.98" class="st1"/>
			</g>
			<g id="shape44-53" transform="translate(-221.5,128.313) rotate(-56.3099)">
				<title>Sheet.44</title>
				<path d="M-0 266.21 A42.5197 28.3465 -33.69 0 0 51.1 266.21" class="st1"/>
			</g>
			<g id="shape45-56" transform="translate(126.641,-54.997) rotate(26.9538)">
				<title>Sheet.45</title>
				<path d="M-0 275.98 A83.4915 42.4562 153.05 0 1 93.67 275.98" class="st1"/>
			</g>
			<g id="shape46-59" transform="translate(-116.422,44.0083) rotate(-27.0394)">
				<title>Sheet.46</title>
				<path d="M-0 260.33 A83.1159 42.4217 -152.96 0 0 93.32 260.33" class="st1"/>
			</g>
		</g>
		<g id="shape48-62" transform="translate(186.439,-137.253) rotate(0.291156)">
			<title>Sheet.48</title>
			<path d="M0 275.98 L145.34 275.98" class="st2"/>
		</g>
		<g id="shape50-68" transform="translate(185.029,-222.955)">
			<title>Sheet.50</title>
			<path d="M0 275.98 L42.53 275.98" class="st1"/>
		</g>
		<g id="shape51-71" transform="translate(503.535,53.024) rotate(90)">
			<title>Sheet.51</title>
			<path d="M0 275.98 L57.35 275.98" class="st1"/>
		</g>
		<g id="shape52-74" transform="translate(228.223,-165.602) rotate(0.138333)">
			<title>Sheet.52</title>
			<path d="M0 275.98 L95.76 275.98" class="st2"/>
		</g>
		<g id="shape53-79" transform="translate(185.037,-52.2172)">
			<title>Sheet.53</title>
			<path d="M0 275.98 L42.52 275.98" class="st1"/>
		</g>
		<g id="shape54-82" transform="translate(-48.4226,223.762) rotate(-90)">
			<title>Sheet.54</title>
			<path d="M0 275.98 L56.69 275.98" class="st1"/>
		</g>
		<g id="shape56-85" transform="translate(228.46,-108.909) rotate(0.187495)">
			<title>Sheet.56</title>
			<path d="M0 275.98 L95.4 275.98" class="st2"/>
		</g>
		<g id="shape57-90" transform="translate(397.625,-136.581)">
			<title>Sheet.57</title>
			<path d="M0 275.98 L46.14 275.98" class="st2"/>
		</g>
		<g id="shape58-95" transform="translate(29.1312,-236.469)">
			<title>Sheet.58</title>
			<path d="M0 275.98 L74.48 275.98" class="st2"/>
		</g>
		<g id="shape59-100" transform="translate(29.1312,-208.123)">
			<title>Sheet.59</title>
			<path d="M0 275.98 L74.48 275.98" class="st2"/>
		</g>
		<g id="shape60-105" transform="translate(29.1312,-151.43)">
			<title>Sheet.60</title>
			<path d="M0 275.98 L74.48 275.98" class="st2"/>
		</g>
		<g id="shape61-110" transform="translate(29.1312,-123.083)">
			<title>Sheet.61</title>
			<path d="M0 275.98 L74.48 275.98" class="st2"/>
		</g>
		<g id="shape62-115" transform="translate(29.1312,-66.3904)">
			<title>Sheet.62</title>
			<path d="M0 275.98 L74.48 275.98" class="st2"/>
		</g>
		<g id="shape63-120" transform="translate(29.1312,-38.044)">
			<title>Sheet.63</title>
			<path d="M0 275.98 L74.48 275.98" class="st2"/>
		</g>
		<g id="shape64-125" transform="translate(454.328,-108.91)">
			<title>Sheet.64</title>
			<desc>Interrupt req.</desc>
			<rect x="0" y="219.286" width="141.732" height="56.6929" class="st4"/>
			<text x="19.45" y="253.03" class="st5">Interrupt req.</text>		</g>
		<g id="shape65-128" transform="translate(18,-236.469)">
			<title>Sheet.65</title>
			<desc>IE.EOC</desc>
			<rect x="0" y="254.719" width="85.0394" height="21.2598" class="st4"/>
			<text x="15.4" y="270.15" class="st6">IE.EOC</text>		</g>
		<g id="shape66-131" transform="translate(18,-208.123)">
			<title>Sheet.66</title>
			<desc>IF.EOC</desc>
			<rect x="0" y="254.719" width="85.0394" height="21.2598" class="st4"/>
			<text x="15.85" y="270.15" class="st6">IF.EOC</text>		</g>
		<g id="shape67-134" transform="translate(18,-151.43)">
			<title>Sheet.67</title>
			<desc>IE.MAX</desc>
			<rect x="0" y="254.719" width="85.0394" height="21.2598" class="st4"/>
			<text x="15.4" y="270.15" class="st6">IE.MAX</text>		</g>
		<g id="shape68-137" transform="translate(18,-123.083)">
			<title>Sheet.68</title>
			<desc>IF.MAX</desc>
			<rect x="0" y="254.719" width="85.0394" height="21.2598" class="st4"/>
			<text x="15.85" y="270.15" class="st6">IF.MAX</text>		</g>
		<g id="shape69-140" transform="translate(18,-66.3904)">
			<title>Sheet.69</title>
			<desc>IE.MIN</desc>
			<rect x="0" y="254.719" width="85.0394" height="21.2598" class="st4"/>
			<text x="18.07" y="270.15" class="st6">IE.MIN</text>		</g>
		<g id="shape70-143" transform="translate(18,-38.044)">
			<title>Sheet.70</title>
			<desc>IF.MIN</desc>
			<rect x="0" y="254.719" width="84.0472" height="21.2598" class="st4"/>
			<text x="18.03" y="270.15" class="st6">IF.MIN</text>		</g>
	</g>
</svg>
