<?xml version="1.0" encoding="UTF-8" standalone="no"?>
<!DOCTYPE svg PUBLIC "-//W3C//DTD SVG 1.1//EN" "http://www.w3.org/Graphics/SVG/1.1/DTD/svg11.dtd">
<!-- Generated by Microsoft Visio, SVG Export 结构框图.svg Page-1 -->
<svg xmlns="http://www.w3.org/2000/svg" xmlns:xlink="http://www.w3.org/1999/xlink" xmlns:ev="http://www.w3.org/2001/xml-events"
		width="8.18064in" height="5.22788in" viewBox="0 0 589.006 376.407" xml:space="preserve" color-interpolation-filters="sRGB"
		class="st29">
	<style type="text/css">
	<![CDATA[
		.st1 {marker-end:url(#mrkr5-8);stroke:#404040;stroke-linecap:round;stroke-linejoin:round;stroke-width:0.5}
		.st2 {fill:#404040;fill-opacity:1;stroke:#404040;stroke-opacity:1;stroke-width:0.16556291390728}
		.st3 {stroke:#404040;stroke-linecap:round;stroke-linejoin:round;stroke-width:0.5}
		.st4 {stroke:#404040;stroke-linecap:round;stroke-linejoin:round;stroke-width:1}
		.st5 {fill:none;stroke:none;stroke-linecap:round;stroke-linejoin:round;stroke-width:0.5}
		.st6 {fill:#000000;font-family:Microsoft Sans Serif;font-size:0.833336em}
		.st7 {marker-start:url(#mrkr5-76);stroke:#404040;stroke-linecap:round;stroke-linejoin:round;stroke-width:0.5}
		.st8 {fill:#404040;fill-opacity:1;stroke:#404040;stroke-opacity:1;stroke-width:0.21739130434783}
		.st9 {font-family:微软雅黑;font-size:1em}
		.st10 {marker-start:url(#mrkr5-136);stroke:#404040;stroke-linecap:round;stroke-linejoin:round;stroke-width:0.5}
		.st11 {fill:url(#grad0-5);stroke:#404040;stroke-linecap:round;stroke-linejoin:round;stroke-width:0.5}
		.st12 {stroke:#404040;stroke-dasharray:3.5,2.5;stroke-linecap:round;stroke-linejoin:round;stroke-width:0.5}
		.st13 {fill:#000000;font-family:微软雅黑;font-size:0.833336em}
		.st14 {font-size:1em}
		.st15 {marker-end:url(#mrkr5-250);stroke:#404040;stroke-linecap:round;stroke-linejoin:round;stroke-width:0.5}
		.st16 {fill:url(#grad0-5);stroke:#404040;stroke-linecap:round;stroke-linejoin:round;stroke-width:0.25}
		.st17 {fill:#000000;font-family:Calibri;font-size:0.75em}
		.st18 {marker-end:url(#mrkr4-281);marker-start:url(#mrkr4-279);stroke:#404040;stroke-linecap:round;stroke-linejoin:round;stroke-width:6}
		.st19 {fill:#404040;fill-opacity:1;stroke:#404040;stroke-opacity:1;stroke-width:0.70422535211268}
		.st20 {marker-end:url(#mrkr2-288);stroke:#404040;stroke-linecap:butt;stroke-width:6}
		.st21 {fill:#404040;fill-opacity:1;stroke:#404040;stroke-opacity:1;stroke-width:0.76923076923077}
		.st22 {fill:none;stroke:none;stroke-linecap:round;stroke-linejoin:round;stroke-width:0.25}
		.st23 {fill:#000000;font-family:Microsoft Sans Serif;font-size:1.16666em;font-weight:bold}
		.st24 {stroke:#404040;stroke-linecap:round;stroke-linejoin:round;stroke-width:0.25}
		.st25 {fill:#000000;font-family:Calibri;font-size:0.833336em}
		.st26 {marker-end:url(#mrkr13-373);stroke:#404040;stroke-linecap:round;stroke-linejoin:round;stroke-width:0.5}
		.st27 {marker-end:url(#mrkr13-427);stroke:#404040;stroke-linecap:round;stroke-linejoin:round;stroke-width:0.5}
		.st28 {marker-start:url(#mrkr13-468);stroke:#404040;stroke-linecap:round;stroke-linejoin:round;stroke-width:0.5}
		.st29 {fill:none;fill-rule:evenodd;font-size:12px;overflow:visible;stroke-linecap:square;stroke-miterlimit:3}
	]]>
	</style>

	<defs id="Patterns_And_Gradients">
		<linearGradient id="grad0-5" x1="0" y1="0" x2="1" y2="0" gradientTransform="rotate(270 0.5 0.5)">
			<stop offset="0" stop-color="#f0f0f0" stop-opacity="1"/>
			<stop offset="1" stop-color="#ffffff" stop-opacity="1"/>
		</linearGradient>
		<linearGradient id="grad0-82" x1="0" y1="0" x2="1" y2="0" gradientTransform="rotate(270 0.5 0.5)">
			<stop offset="0" stop-color="#000000" stop-opacity="1"/>
			<stop offset="1" stop-color="#000000" stop-opacity="1"/>
		</linearGradient>
	</defs>
	<defs id="Markers">
		<g id="lend5">
			<path d="M 2 1 L 0 0 L 1.98117 -0.993387 C 1.67173 -0.364515 1.67301 0.372641 1.98465 1.00043 " style="stroke:none"/>
		</g>
		<marker id="mrkr5-8" class="st2" refX="-10.57" orient="auto" markerUnits="strokeWidth" overflow="visible">
			<use xlink:href="#lend5" transform="scale(-6.04,-6.04) "/>
		</marker>
		<marker id="mrkr5-76" class="st8" refX="7.33" orient="auto" markerUnits="strokeWidth" overflow="visible">
			<use xlink:href="#lend5" transform="scale(4.6) "/>
		</marker>
		<marker id="mrkr5-136" class="st2" refX="9.85" orient="auto" markerUnits="strokeWidth" overflow="visible">
			<use xlink:href="#lend5" transform="scale(6.04) "/>
		</marker>
		<marker id="mrkr5-250" class="st8" refX="-8.05" orient="auto" markerUnits="strokeWidth" overflow="visible">
			<use xlink:href="#lend5" transform="scale(-4.6,-4.6) "/>
		</marker>
		<g id="lend4">
			<path d="M 2 1 L 0 0 L 2 -1 L 2 1 " style="stroke:none"/>
		</g>
		<marker id="mrkr4-279" class="st19" refX="2.78" orient="auto" markerUnits="strokeWidth" overflow="visible">
			<use xlink:href="#lend4" transform="scale(1.42) "/>
		</marker>
		<marker id="mrkr4-281" class="st19" refX="-2.84" orient="auto" markerUnits="strokeWidth" overflow="visible">
			<use xlink:href="#lend4" transform="scale(-1.42,-1.42) "/>
		</marker>
		<g id="lend2">
			<path d="M 1 1 L 0 0 L 1 -1 L 1 1 " style="stroke:none"/>
		</g>
		<marker id="mrkr2-288" class="st21" refX="-1.3" orient="auto" markerUnits="strokeWidth" overflow="visible">
			<use xlink:href="#lend2" transform="scale(-1.3,-1.3) "/>
		</marker>
		<g id="lend13">
			<path d="M 3 1 L 0 0 L 3 -1 L 3 1 " style="stroke:none"/>
		</g>
		<marker id="mrkr13-373" class="st8" refX="-13.8" orient="auto" markerUnits="strokeWidth" overflow="visible">
			<use xlink:href="#lend13" transform="scale(-4.6,-4.6) "/>
		</marker>
		<marker id="mrkr13-427" class="st2" refX="-18.12" orient="auto" markerUnits="strokeWidth" overflow="visible">
			<use xlink:href="#lend13" transform="scale(-6.04,-6.04) "/>
		</marker>
		<marker id="mrkr13-468" class="st2" refX="17.4" orient="auto" markerUnits="strokeWidth" overflow="visible">
			<use xlink:href="#lend13" transform="scale(6.04) "/>
		</marker>
	</defs>
	<g>
		<title>页-1</title>
		<g id="shape26-1" transform="translate(103.164,-287.416)">
			<title>Sheet.26</title>
			<path d="M0 376.41 L72.67 376.41" class="st1"/>
		</g>
		<g id="group27-9" transform="translate(39.3849,-151.353)">
			<title>Sheet.27</title>
			<g id="shape1-10" transform="translate(418.927,282.864) rotate(90)">
				<title>Sheet.1</title>
				<path d="M0 376.41 L85.04 376.41" class="st3"/>
			</g>
			<g id="shape2-14" transform="translate(251.313,-30.3258) rotate(33.6901)">
				<title>Sheet.2</title>
				<path d="M0 376.41 L25.55 376.41" class="st3"/>
			</g>
			<g id="shape3-18" transform="translate(440.187,297.037) rotate(90)">
				<title>Sheet.3</title>
				<path d="M0 376.41 L56.69 376.41" class="st3"/>
			</g>
			<g id="shape4-22" transform="translate(-166.274,54.7136) rotate(-33.6901)">
				<title>Sheet.4</title>
				<path d="M0 376.41 L25.55 376.41" class="st3"/>
			</g>
			<g id="shape6-26" transform="translate(42.5197,666.358) rotate(180)">
				<title>Sheet.6</title>
				<path d="M0 376.41 L14.17 376.41" class="st3"/>
			</g>
			<g id="shape7-30" transform="translate(28.3465,-72.2835)">
				<title>Sheet.7</title>
				<path d="M0 376.41 L14.17 376.41" class="st3"/>
			</g>
			<g id="shape8-34" transform="translate(28.3465,-29.7638)">
				<title>Sheet.8</title>
				<path d="M0 376.41 L14.17 376.41" class="st3"/>
			</g>
			<g id="shape9-38" transform="translate(28.3465,-15.5906)">
				<title>Sheet.9</title>
				<path d="M0 376.41 L14.17 376.41" class="st3"/>
			</g>
			<g id="shape5-42" transform="translate(410.423,311.211) rotate(90)">
				<title>Sheet.5</title>
				<path d="M0 376.41 L2.83 376.41" class="st4"/>
			</g>
			<g id="shape10-46" transform="translate(410.423,319.715) rotate(90)">
				<title>Sheet.10</title>
				<path d="M0 376.41 L2.83 376.41" class="st4"/>
			</g>
			<g id="shape11-50" transform="translate(410.423,336.722) rotate(90)">
				<title>Sheet.11</title>
				<path d="M0 376.41 L2.83 376.41" class="st4"/>
			</g>
			<g id="shape12-54" transform="translate(410.423,328.219) rotate(90)">
				<title>Sheet.12</title>
				<path d="M0 376.41 L2.83 376.41" class="st4"/>
			</g>
			<g id="shape13-58" transform="translate(-4.7874,-79.3701)">
				<title>Sheet.13</title>
				<desc>AIN0</desc>
				<rect x="0" y="362.234" width="33.1339" height="14.1732" class="st5"/>
				<text x="5.45" y="372.32" class="st6">AIN0</text>			</g>
			<g id="shape14-61" transform="translate(-4.7874,-65.1969)">
				<title>Sheet.14</title>
				<desc>AIN1</desc>
				<rect x="0" y="362.234" width="33.1339" height="14.1732" class="st5"/>
				<text x="5.45" y="372.32" class="st6">AIN1</text>			</g>
			<g id="shape15-64" transform="translate(-4.7874,-22.6772)">
				<title>Sheet.15</title>
				<desc>AIN8</desc>
				<rect x="0" y="362.234" width="33.1339" height="14.1732" class="st5"/>
				<text x="5.45" y="372.32" class="st6">AIN8</text>			</g>
			<g id="shape16-67" transform="translate(-4.7874,-8.50394)">
				<title>Sheet.16</title>
				<desc>AIN9</desc>
				<rect x="0" y="362.234" width="33.1339" height="14.1732" class="st5"/>
				<text x="5.45" y="372.32" class="st6">AIN9</text>			</g>
			<g id="shape17-70" transform="translate(430.126,360.438) rotate(90)">
				<title>Sheet.17</title>
				<path d="M3.66 376.41 L4.02 376.41 L92.51 376.41" class="st7"/>
			</g>
		</g>
		<g id="group40-77" transform="translate(181.117,-266.157)">
			<title>Sheet.40</title>
			<g id="group35-78" transform="translate(376.407,333.888) rotate(90)">
				<title>Sheet.35</title>
				<g id="shape35-79">
					<path d="M0 376.41 L42.52 376.41" class="st3"/>
				</g>
			</g>
			<g id="group36-84" transform="translate(0,-42.5197)">
				<title>Sheet.36</title>
				<g id="shape36-85">
					<path d="M0 376.41 L42.52 376.41" class="st3"/>
				</g>
			</g>
			<g id="group37-89">
				<title>Sheet.37</title>
				<g id="shape37-90">
					<path d="M0 376.41 L42.52 376.41" class="st3"/>
				</g>
			</g>
			<g id="group38-94" transform="translate(355.71,125.095) rotate(56.3099)">
				<title>Sheet.38</title>
				<g id="shape38-95">
					<path d="M0 376.41 L25.55 376.41" class="st3"/>
				</g>
			</g>
			<g id="group39-99" transform="translate(-270.67,167.614) rotate(-56.3099)">
				<title>Sheet.39</title>
				<g id="shape39-100">
					<path d="M0 376.41 L25.55 376.41" class="st3"/>
				</g>
			</g>
		</g>
		<g id="shape41-104" transform="translate(153.653,-279.416)">
			<title>Sheet.41</title>
			<desc>12位DAC</desc>
			<rect x="0" y="360.407" width="104" height="16" class="st5"/>
			<text x="30.88" y="371.45" class="st6">12<tspan class="st9">位</tspan>DAC</text>		</g>
		<g id="shape42-108" transform="translate(642.564,117.338) rotate(90)">
			<title>Sheet.42</title>
			<path d="M0 376.41 L42.52 376.41" class="st3"/>
		</g>
		<g id="shape43-112" transform="translate(434.491,-219.331) rotate(26.5651)">
			<title>Sheet.43</title>
			<path d="M0 376.41 L47.54 376.41" class="st3"/>
		</g>
		<g id="shape44-116" transform="translate(477.011,475.267) rotate(153.435)">
			<title>Sheet.44</title>
			<path d="M0 376.41 L47.54 376.41" class="st3"/>
		</g>
		<g id="shape45-120" transform="translate(237.81,-244.897)">
			<title>Sheet.45</title>
			<path d="M0 333.89 L14.17 333.89 L14.17 376.41" class="st3"/>
		</g>
		<g id="shape46-124" transform="translate(251.983,-244.897)">
			<title>Sheet.46</title>
			<path d="M0 376.41 L8.89 376.41" class="st1"/>
		</g>
		<g id="shape47-130" transform="translate(266.157,522.092) rotate(180)">
			<title>Sheet.47</title>
			<path d="M4.93 376.41 L5.29 376.41 L14.17 376.41" class="st10"/>
		</g>
		<g id="shape48-137" transform="translate(628.391,145.684) rotate(90)">
			<title>Sheet.48</title>
			<path d="M0 376.41 L28.35 376.41" class="st3"/>
		</g>
		<g id="shape49-141" transform="translate(251.983,550.438) rotate(180)">
			<title>Sheet.49</title>
			<path d="M0 376.41 L56.69 376.41" class="st3"/>
		</g>
		<g id="shape50-145" transform="translate(585.871,174.031) rotate(90)">
			<title>Sheet.50</title>
			<path d="M0 376.41 L5.67 376.41" class="st3"/>
		</g>
		<g id="shape51-149" transform="translate(585.871,182.534) rotate(90)">
			<title>Sheet.51</title>
			<path d="M0 376.41 L5.67 376.41" class="st3"/>
		</g>
		<g id="shape52-153" transform="translate(205.212,-196.708)">
			<title>Sheet.52</title>
			<path d="M0 376.41 L8.5 376.41" class="st3"/>
		</g>
		<g id="shape53-157" transform="translate(205.212,-193.873)">
			<title>Sheet.53</title>
			<path d="M0 376.41 L8.5 376.41" class="st3"/>
		</g>
		<g id="shape54-161" transform="translate(205.212,-188.204)">
			<title>Sheet.54</title>
			<path d="M0 376.41 L8.5 376.41" class="st3"/>
		</g>
		<g id="shape55-165" transform="translate(546.133,356.538) rotate(116.565)">
			<title>Sheet.55</title>
			<path d="M0 376.41 L3.17 376.41" class="st3"/>
		</g>
		<g id="shape56-169" transform="translate(548.967,356.538) rotate(116.565)">
			<title>Sheet.56</title>
			<path d="M0 376.41 L3.17 376.41" class="st3"/>
		</g>
		<g id="shape57-173" transform="translate(543.298,356.538) rotate(116.565)">
			<title>Sheet.57</title>
			<path d="M0 376.41 L3.17 376.41" class="st3"/>
		</g>
		<g id="shape58-177" transform="translate(181.117,550.438) rotate(180)">
			<title>Sheet.58</title>
			<path d="M0 376.41 L77.95 376.41" class="st3"/>
		</g>
		<g id="shape59-181" transform="translate(181.117,-200.96)">
			<title>Sheet.59</title>
			<ellipse cx="1.41732" cy="374.99" rx="1.41732" ry="1.41732" class="st11"/>
		</g>
		<g id="shape60-184" transform="translate(192.456,-200.96)">
			<title>Sheet.60</title>
			<ellipse cx="1.41732" cy="374.99" rx="1.41732" ry="1.41732" class="st11"/>
		</g>
		<g id="shape61-187" transform="translate(56.2829,523.692) rotate(-158.713)">
			<title>Sheet.61</title>
			<path d="M0 376.41 L12.69 376.41" class="st3"/>
		</g>
		<g id="shape62-191" transform="translate(543.351,152.771) rotate(90)">
			<title>Sheet.62</title>
			<path d="M0 376.41 L49.61 376.41" class="st12"/>
		</g>
		<g id="shape63-195" transform="translate(166.944,-223.637)">
			<title>Sheet.63</title>
			<path d="M0 376.41 L56.69 376.41" class="st12"/>
		</g>
		<g id="shape64-199" transform="translate(600.044,152.771) rotate(90)">
			<title>Sheet.64</title>
			<path d="M0 376.41 L49.61 376.41" class="st12"/>
		</g>
		<g id="shape65-203" transform="translate(166.944,-174.031)">
			<title>Sheet.65</title>
			<path d="M0 376.41 L56.69 376.41" class="st12"/>
		</g>
		<g id="shape66-207" transform="translate(143.29,-156.109)">
			<title>Sheet.66</title>
			<desc>采样保持</desc>
			<rect x="0" y="360.407" width="104" height="16" class="st5"/>
			<text x="32" y="371.45" class="st13">采样保持</text>		</g>
		<g id="shape67-210" transform="translate(227.353,-199.542)">
			<title>Sheet.67</title>
			<desc>比较器</desc>
			<rect x="0" y="360.407" width="104" height="16" class="st5"/>
			<text x="37" y="371.44" class="st13">比较器</text>		</g>
		<g id="shape68-213" transform="translate(268.991,-230.723)">
			<title>Sheet.68</title>
			<path d="M0 376.41 L5.67 376.41" class="st3"/>
		</g>
		<g id="shape69-217" transform="translate(268.991,-244.897)">
			<title>Sheet.69</title>
			<path d="M0 376.41 L5.67 376.41" class="st3"/>
		</g>
		<g id="shape70-221" transform="translate(648.233,128.676) rotate(90)">
			<title>Sheet.70</title>
			<path d="M0 376.41 L5.67 376.41" class="st3"/>
		</g>
		<g id="shape71-225" transform="translate(322.849,-202.377)">
			<title>Sheet.71</title>
			<desc>转换控制逻辑</desc>
			<rect x="0" y="305.541" width="56.6929" height="70.8661" class="st11"/>
			<text x="8.35" y="337.9" class="st13">转换控制<tspan x="18.35" dy="1.211em" class="st14">逻辑</tspan></text>		</g>
		<g id="shape72-230" transform="translate(308.676,-237.81)">
			<title>Sheet.72</title>
			<path d="M0 376.41 L8.89 376.41" class="st1"/>
		</g>
		<g id="shape73-236" transform="translate(-25.2116,103.164) rotate(-90)">
			<title>Sheet.73</title>
			<path d="M0 376.41 L56.69 376.41" class="st3"/>
		</g>
		<g id="shape74-240" transform="translate(351.196,422.879) rotate(180)">
			<title>Sheet.74</title>
			<path d="M0 376.41 L148.82 376.41" class="st3"/>
		</g>
		<g id="shape75-244" transform="translate(578.784,46.4715) rotate(90)">
			<title>Sheet.75</title>
			<path d="M0 376.41 L17.23 376.41" class="st15"/>
		</g>
		<g id="shape76-251" transform="translate(727.603,174.031) rotate(90)">
			<title>Sheet.76</title>
			<path d="M0 376.41 L127.56 376.41" class="st3"/>
		</g>
		<g id="shape77-255" transform="translate(93.1036,-74.8179)">
			<title>Sheet.77</title>
			<path d="M0 376.41 L88.01 376.41" class="st3"/>
		</g>
		<g id="shape100-259" transform="translate(400.802,-202.377)">
			<title>Sheet.100</title>
			<desc>硬件平均器</desc>
			<rect x="0" y="305.541" width="21.2598" height="70.8661" class="st16"/>
			<text x="5.63" y="319.9" class="st13">硬<tspan x="5.63" dy="1.2em" class="st14">件</tspan><tspan x="5.63" dy="1.2em"
						class="st14">平</tspan><tspan x="5.63" dy="1.2em" class="st14">均</tspan><tspan x="5.63" dy="1.211em"
						class="st14">器</tspan></text>		</g>
		<g id="shape103-267" transform="translate(443.322,-259.07)">
			<title>Sheet.103</title>
			<desc>CH0数据寄存器</desc>
			<rect x="0" y="362.234" width="70.8661" height="14.1732" class="st16"/>
			<text x="5.45" y="372.05" class="st17">CH0<tspan class="st9">数据寄存器</tspan></text>		</g>
		<g id="shape106-272" transform="translate(926.029,46.4715) rotate(90)">
			<title>Sheet.106</title>
			<path d="M16.68 376.41 L17.04 376.41 L167.21 376.41" class="st18"/>
		</g>
		<g id="shape107-282" transform="translate(514.188,-237.81)">
			<title>Sheet.107</title>
			<path d="M0 376.41 L24.8 376.41" class="st20"/>
		</g>
		<g id="shape101-289" transform="translate(379.542,-237.81)">
			<title>Sheet.101</title>
			<path d="M0 376.41 L13.46 376.41" class="st20"/>
		</g>
		<g id="shape104-295" transform="translate(422.062,-237.81)">
			<title>Sheet.104</title>
			<path d="M0 376.41 L13.46 376.41" class="st20"/>
		</g>
		<g id="shape108-301" transform="translate(523.574,-329.023)">
			<title>Sheet.108</title>
			<desc>APB</desc>
			<rect x="0" y="360.407" width="47.4321" height="16" class="st22"/>
			<text x="9.7" y="372.61" class="st23">APB</text>		</g>
		<g id="shape109-304" transform="translate(18.125,-358.282)">
			<title>Sheet.109</title>
			<path d="M0 376.41 L552.76 376.41" class="st24"/>
		</g>
		<g id="shape110-308" transform="translate(947.288,18.125) rotate(90)">
			<title>Sheet.110</title>
			<path d="M0 376.41 L340.16 376.41" class="st24"/>
		</g>
		<g id="shape111-312" transform="translate(570.881,734.69) rotate(180)">
			<title>Sheet.111</title>
			<path d="M0 376.41 L552.76 376.41" class="st24"/>
		</g>
		<g id="shape112-316" transform="translate(-358.282,358.282) rotate(-90)">
			<title>Sheet.112</title>
			<path d="M0 376.41 L340.16 376.41" class="st24"/>
		</g>
		<g id="shape79-320" transform="translate(195.29,-46.4715)">
			<title>Sheet.79</title>
			<rect x="0" y="291.368" width="113.386" height="85.0394" class="st11"/>
		</g>
		<g id="shape80-323" transform="translate(181.117,-32.2982)">
			<title>Sheet.80</title>
			<desc>转换通道选择 转换次数选择 采样时间设定 触发信号选择</desc>
			<rect x="0" y="291.368" width="113.386" height="85.0394" class="st11"/>
			<text x="26.69" y="318.71" class="st13">转换通道选择 <tspan x="26.69" dy="1.215em" class="st14">转换次数选择 </tspan><tspan
						x="26.69" dy="1.215em" class="st14">采样时间设定 </tspan><tspan x="26.69" dy="1.215em" class="st14">触发信号选择</tspan></text>		</g>
		<g id="shape82-330" transform="translate(202.377,-103.164)">
			<title>Sheet.82</title>
			<desc>Sequence 0</desc>
			<rect x="0" y="362.234" width="70.8661" height="14.1732" class="st22"/>
			<text x="8.8" y="372.32" class="st6">Sequence 0</text>		</g>
		<g id="shape86-333" transform="translate(308.676,-88.9912)">
			<title>Sheet.86</title>
			<path d="M0 376.41 L42.52 376.41" class="st3"/>
		</g>
		<g id="shape87-337" transform="translate(294.503,-74.8179)">
			<title>Sheet.87</title>
			<path d="M0 376.41 L56.69 376.41" class="st3"/>
		</g>
		<g id="shape18-341" transform="translate(96.3742,-92.4487) rotate(-45)">
			<title>Sheet.18</title>
			<path d="M0 376.41 L3.91 376.41" class="st24"/>
		</g>
		<g id="shape19-345" transform="translate(624.723,-101.781) rotate(43.5679)">
			<title>Sheet.19</title>
			<path d="M0 376.41 L4.01 376.41" class="st24"/>
		</g>
		<g id="shape20-349" transform="translate(-11.0384,287.416) rotate(-90)">
			<title>Sheet.20</title>
			<path d="M0 376.41 L109.36 376.41" class="st15"/>
		</g>
		<g id="shape91-355" transform="translate(379.542,-88.9912) scale(-1,1)">
			<title>Sheet.91</title>
			<path d="M0 376.41 L14.17 376.41" class="st3"/>
		</g>
		<g id="shape113-359" transform="translate(216.55,-117.338)">
			<title>Sheet.113</title>
			<desc>Sequence 1</desc>
			<rect x="0" y="362.234" width="70.8661" height="14.1732" class="st22"/>
			<text x="8.8" y="372.32" class="st6">Sequence 1</text>		</g>
		<g id="shape114-362" transform="translate(379.542,-74.8179)">
			<title>Sheet.114</title>
			<desc>/132</desc>
			<rect x="0" y="348.061" width="42.5197" height="28.3465" class="st11"/>
			<text x="6.73" y="365.27" class="st25">/1<tspan class="st9">～</tspan>32</text>		</g>
		<g id="shape115-367" transform="translate(450.408,-88.9912) scale(-1,1)">
			<title>Sheet.115</title>
			<path d="M0 376.41 L21.45 376.41" class="st26"/>
		</g>
		<g id="shape117-374" transform="translate(435.827,-74.8179)">
			<title>Sheet.117</title>
			<desc>HCLK</desc>
			<rect x="0" y="348.061" width="63.7795" height="28.3465" class="st5"/>
			<text x="18.55" y="365.23" class="st6">HCLK</text>		</g>
		<g id="shape120-377" transform="translate(458.312,53.5581) rotate(90)">
			<title>Sheet.120</title>
			<path d="M0 376.41 L70.87 376.41" class="st3"/>
		</g>
		<g id="shape121-381" transform="translate(290.698,-259.632) rotate(33.6901)">
			<title>Sheet.121</title>
			<path d="M0 376.41 L25.55 376.41" class="st3"/>
		</g>
		<g id="shape122-385" transform="translate(479.572,67.7313) rotate(90)">
			<title>Sheet.122</title>
			<path d="M0 376.41 L42.52 376.41" class="st3"/>
		</g>
		<g id="shape123-389" transform="translate(-126.889,-188.766) rotate(-33.6901)">
			<title>Sheet.123</title>
			<path d="M0 376.41 L25.55 376.41" class="st3"/>
		</g>
		<g id="shape124-393" transform="translate(81.9045,437.052) rotate(180)">
			<title>Sheet.124</title>
			<path d="M0 376.41 L14.17 376.41" class="st3"/>
		</g>
		<g id="shape125-397" transform="translate(67.7313,-301.59)">
			<title>Sheet.125</title>
			<path d="M0 376.41 L14.17 376.41" class="st3"/>
		</g>
		<g id="shape126-401" transform="translate(67.7313,-287.416)">
			<title>Sheet.126</title>
			<path d="M0 376.41 L14.17 376.41" class="st3"/>
		</g>
		<g id="shape127-405" transform="translate(67.7313,-273.243)">
			<title>Sheet.127</title>
			<path d="M0 376.41 L14.17 376.41" class="st3"/>
		</g>
		<g id="shape132-409" transform="translate(29.7638,-308.676)">
			<title>Sheet.132</title>
			<desc>VDD</desc>
			<rect x="0" y="362.234" width="42.5197" height="14.1732" class="st5"/>
			<text x="10.7" y="372.32" class="st6">VDD</text>		</g>
		<g id="shape133-412" transform="translate(29.7638,-294.503)">
			<title>Sheet.133</title>
			<desc>REFP</desc>
			<rect x="0" y="362.234" width="42.5197" height="14.1732" class="st5"/>
			<text x="7.92" y="372.32" class="st6">REFP</text>		</g>
		<g id="shape134-415" transform="translate(29.7638,-280.33)">
			<title>Sheet.134</title>
			<desc>2.4V</desc>
			<rect x="0" y="362.234" width="42.5197" height="14.1732" class="st5"/>
			<text x="10.97" y="372.32" class="st6">2.4V</text>		</g>
		<g id="shape135-418" transform="translate(29.7638,-266.157)">
			<title>Sheet.135</title>
			<desc>3.6V</desc>
			<rect x="0" y="362.234" width="42.5197" height="14.1732" class="st5"/>
			<text x="10.97" y="372.32" class="st6">3.6V</text>		</g>
		<g id="shape136-421" transform="translate(469.084,46.4714) rotate(90)">
			<title>Sheet.136</title>
			<path d="M0 376.41 L5.2 376.41" class="st27"/>
		</g>
		<g id="shape137-428" transform="translate(67.7313,-259.07)">
			<title>Sheet.137</title>
			<path d="M0 376.41 L14.17 376.41" class="st3"/>
		</g>
		<g id="shape138-432" transform="translate(29.7638,-251.983)">
			<title>Sheet.138</title>
			<desc>4.5V</desc>
			<rect x="0" y="362.234" width="42.5197" height="14.1732" class="st5"/>
			<text x="10.97" y="372.32" class="st6">4.5V</text>		</g>
		<g id="shape140-435" transform="translate(202.377,422.879) rotate(180)">
			<title>Sheet.140</title>
			<path d="M0 376.41 L109.7 376.41" class="st3"/>
		</g>
		<g id="shape141-439" transform="translate(443.322,-202.377)">
			<title>Sheet.141</title>
			<desc>CH9数据寄存器</desc>
			<rect x="0" y="362.234" width="70.8661" height="14.1732" class="st16"/>
			<text x="5.45" y="372.05" class="st17">CH9<tspan class="st9">数据寄存器</tspan></text>		</g>
		<g id="shape142-444" transform="translate(443.322,-244.897)">
			<title>Sheet.142</title>
			<desc>CH1数据寄存器</desc>
			<rect x="0" y="362.234" width="70.8661" height="14.1732" class="st16"/>
			<text x="5.45" y="372.05" class="st17">CH1<tspan class="st9">数据寄存器</tspan></text>		</g>
		<g id="shape143-449" transform="translate(443.322,-230.723)">
			<title>Sheet.143</title>
			<desc>…</desc>
			<rect x="0" y="362.234" width="70.8661" height="14.1732" class="st16"/>
			<text x="32.33" y="372.02" class="st17">…</text>		</g>
		<g id="shape144-453" transform="translate(443.322,-216.55)">
			<title>Sheet.144</title>
			<desc>CH8数据寄存器</desc>
			<rect x="0" y="362.234" width="70.8661" height="14.1732" class="st16"/>
			<text x="5.45" y="372.05" class="st17">CH8<tspan class="st9">数据寄存器</tspan></text>		</g>
		<g id="shape145-458" transform="translate(-11.0384,103.164) rotate(-90)">
			<title>Sheet.145</title>
			<path d="M0 376.41 L42.52 376.41" class="st3"/>
		</g>
		<g id="shape146-462" transform="translate(443.322,-315.763) scale(-1,1)">
			<title>Sheet.146</title>
			<path d="M8.7 376.41 L9.06 376.41 L77.95 376.41" class="st28"/>
		</g>
		<g id="shape148-469" transform="translate(443.322,-301.59)">
			<title>Sheet.148</title>
			<desc>Interrupt req DMA req</desc>
			<rect x="0" y="348.061" width="63.7795" height="28.3465" class="st16"/>
			<text x="5.44" y="359.23" class="st25">Interrupt req <tspan x="13.66" dy="1.2em" class="st14">DMA req</tspan></text>		</g>
	</g>
</svg>
