<?xml version="1.0" encoding="UTF-8" standalone="no"?>
<!DOCTYPE svg PUBLIC "-//W3C//DTD SVG 1.1//EN" "http://www.w3.org/Graphics/SVG/1.1/DTD/svg11.dtd">
<!-- Generated by Microsoft Visio, SVG Export 通道选择_1.svg Page-1 -->
<svg xmlns="http://www.w3.org/2000/svg" xmlns:xlink="http://www.w3.org/1999/xlink" xmlns:ev="http://www.w3.org/2001/xml-events"
		width="7.79295in" height="1.20634in" viewBox="0 0 561.093 86.8563" xml:space="preserve" color-interpolation-filters="sRGB"
		class="st5">
	<style type="text/css">
	<![CDATA[
		.st1 {fill:none;stroke:#000000;stroke-width:1}
		.st2 {fill:none;stroke:none;stroke-width:0.25}
		.st3 {fill:#000000;font-family:Calibri;font-size:1.16666em}
		.st4 {fill:#000000;font-family:Microsoft Sans Serif;font-size:1.16666em}
		.st5 {fill:none;fill-rule:evenodd;font-size:12px;overflow:visible;stroke-linecap:square;stroke-miterlimit:3}
	]]>
	</style>

	<g>
		<title>页-1</title>
		<g id="shape1-1" transform="translate(88.5492,-39.5098)">
			<title>矩形</title>
			<rect x="0" y="58.5098" width="56.6929" height="28.3465" class="st1"/>
		</g>
		<g id="shape2-3" transform="translate(145.242,-39.5098)">
			<title>矩形.2</title>
			<rect x="0" y="58.5098" width="56.6929" height="28.3465" class="st1"/>
		</g>
		<g id="shape3-5" transform="translate(201.935,-39.5098)">
			<title>矩形.3</title>
			<rect x="0" y="58.5098" width="56.6929" height="28.3465" class="st1"/>
		</g>
		<g id="shape4-7" transform="translate(258.628,-39.5098)">
			<title>矩形.4</title>
			<rect x="0" y="58.5098" width="56.6929" height="28.3465" class="st1"/>
		</g>
		<g id="shape5-9" transform="translate(315.321,-39.5098)">
			<title>矩形.5</title>
			<rect x="0" y="58.5098" width="56.6929" height="28.3465" class="st1"/>
		</g>
		<g id="shape6-11" transform="translate(372.014,-39.5098)">
			<title>矩形.6</title>
			<rect x="0" y="58.5098" width="56.6929" height="28.3465" class="st1"/>
		</g>
		<g id="shape7-13" transform="translate(428.707,-39.5098)">
			<title>矩形.7</title>
			<rect x="0" y="58.5098" width="56.6929" height="28.3465" class="st1"/>
		</g>
		<g id="shape8-15" transform="translate(485.4,-39.5098)">
			<title>矩形.8</title>
			<rect x="0" y="58.5098" width="56.6929" height="28.3465" class="st1"/>
		</g>
		<g id="shape9-17" transform="translate(88.5492,-18.25)">
			<title>Sheet.9</title>
			<desc>1st</desc>
			<rect x="0" y="65.5965" width="56.6929" height="21.2598" class="st2"/>
			<text x="19.72" y="80.43" class="st3">1st</text>		</g>
		<g id="shape10-20" transform="translate(145.242,-18.25)">
			<title>Sheet.10</title>
			<desc>2nd</desc>
			<rect x="0" y="65.5965" width="56.6929" height="21.2598" class="st2"/>
			<text x="17.44" y="80.43" class="st3">2nd</text>		</g>
		<g id="shape11-23" transform="translate(201.935,-18.25)">
			<title>Sheet.11</title>
			<desc>3th</desc>
			<rect x="0" y="65.5965" width="56.6929" height="21.2598" class="st2"/>
			<text x="18.62" y="80.43" class="st4">3th</text>		</g>
		<g id="shape12-26" transform="translate(258.628,-18.25)">
			<title>Sheet.12</title>
			<desc>4th</desc>
			<rect x="0" y="65.5965" width="56.6929" height="21.2598" class="st2"/>
			<text x="18.62" y="80.43" class="st4">4th</text>		</g>
		<g id="shape13-29" transform="translate(315.321,-18.25)">
			<title>Sheet.13</title>
			<desc>5th</desc>
			<rect x="0" y="65.5965" width="56.6929" height="21.2598" class="st2"/>
			<text x="18.62" y="80.43" class="st4">5th</text>		</g>
		<g id="shape14-32" transform="translate(372.014,-18.25)">
			<title>Sheet.14</title>
			<desc>6th</desc>
			<rect x="0" y="65.5965" width="56.6929" height="21.2598" class="st2"/>
			<text x="18.62" y="80.43" class="st4">6th</text>		</g>
		<g id="shape15-35" transform="translate(428.707,-18.25)">
			<title>Sheet.15</title>
			<desc>7th</desc>
			<rect x="0" y="65.5965" width="56.6929" height="21.2598" class="st2"/>
			<text x="18.62" y="80.43" class="st4">7th</text>		</g>
		<g id="shape16-38" transform="translate(485.4,-18.25)">
			<title>Sheet.16</title>
			<desc>8th</desc>
			<rect x="0" y="65.5965" width="56.6929" height="21.2598" class="st2"/>
			<text x="18.62" y="80.43" class="st4">8th</text>		</g>
		<g id="shape17-41" transform="translate(88.5492,-39.5098)">
			<title>Sheet.17</title>
			<desc>0</desc>
			<rect x="0" y="58.5098" width="56.6929" height="28.3465" class="st2"/>
			<text x="24.45" y="76.88" class="st4">0</text>		</g>
		<g id="shape18-44" transform="translate(145.242,-39.5098)">
			<title>Sheet.18</title>
			<desc>2</desc>
			<rect x="0" y="58.5098" width="56.6929" height="28.3465" class="st2"/>
			<text x="24.45" y="76.88" class="st4">2</text>		</g>
		<g id="shape19-47" transform="translate(201.935,-39.5098)">
			<title>Sheet.19</title>
			<desc>1</desc>
			<rect x="0" y="58.5098" width="56.6929" height="28.3465" class="st2"/>
			<text x="24.45" y="76.88" class="st4">1</text>		</g>
		<g id="shape20-50" transform="translate(258.628,-39.5098)">
			<title>Sheet.20</title>
			<desc>15</desc>
			<rect x="0" y="58.5098" width="56.6929" height="28.3465" class="st2"/>
			<text x="20.56" y="76.88" class="st4">15</text>		</g>
		<g id="shape21-53" transform="translate(18.25,-39.5098)">
			<title>Sheet.21</title>
			<desc>SEQ0CHN</desc>
			<rect x="0" y="58.5098" width="69.874" height="28.3465" class="st2"/>
			<text x="7.43" y="76.88" class="st3">SEQ0CHN</text>		</g>
	</g>
</svg>
