<?xml version="1.0" encoding="UTF-8" standalone="no"?>
<!DOCTYPE svg PUBLIC "-//W3C//DTD SVG 1.1//EN" "http://www.w3.org/Graphics/SVG/1.1/DTD/svg11.dtd">
<!-- Generated by Microsoft Visio, SVG Export 通道选择_2.svg Page-1 -->
<svg xmlns="http://www.w3.org/2000/svg" xmlns:xlink="http://www.w3.org/1999/xlink" xmlns:ev="http://www.w3.org/2001/xml-events"
		width="7.78705in" height="1.20634in" viewBox="0 0 560.667 86.8563" xml:space="preserve" color-interpolation-filters="sRGB"
		class="st5">
	<style type="text/css">
	<![CDATA[
		.st1 {fill:none;stroke:#000000;stroke-width:1}
		.st2 {fill:none;stroke:none;stroke-width:0.25}
		.st3 {fill:#000000;font-family:Calibri;font-size:1.16666em}
		.st4 {fill:#000000;font-family:Microsoft Sans Serif;font-size:1.16666em}
		.st5 {fill:none;fill-rule:evenodd;font-size:12px;overflow:visible;stroke-linecap:square;stroke-miterlimit:3}
	]]>
	</style>

	<g>
		<title>页-1</title>
		<g id="group23-1" transform="translate(18.25,-18.25)">
			<title>Sheet.23</title>
			<g id="shape1-2" transform="translate(69.874,-21.2598)">
				<title>矩形</title>
				<rect x="0" y="58.5098" width="56.6929" height="28.3465" class="st1"/>
			</g>
			<g id="shape2-4" transform="translate(126.567,-21.2598)">
				<title>矩形.2</title>
				<rect x="0" y="58.5098" width="56.6929" height="28.3465" class="st1"/>
			</g>
			<g id="shape3-6" transform="translate(183.26,-21.2598)">
				<title>矩形.3</title>
				<rect x="0" y="58.5098" width="56.6929" height="28.3465" class="st1"/>
			</g>
			<g id="shape4-8" transform="translate(239.953,-21.2598)">
				<title>矩形.4</title>
				<rect x="0" y="58.5098" width="56.6929" height="28.3465" class="st1"/>
			</g>
			<g id="shape5-10" transform="translate(296.646,-21.2598)">
				<title>矩形.5</title>
				<rect x="0" y="58.5098" width="56.6929" height="28.3465" class="st1"/>
			</g>
			<g id="shape6-12" transform="translate(353.339,-21.2598)">
				<title>矩形.6</title>
				<rect x="0" y="58.5098" width="56.6929" height="28.3465" class="st1"/>
			</g>
			<g id="shape7-14" transform="translate(410.032,-21.2598)">
				<title>矩形.7</title>
				<rect x="0" y="58.5098" width="56.6929" height="28.3465" class="st1"/>
			</g>
			<g id="shape8-16" transform="translate(466.724,-21.2598)">
				<title>矩形.8</title>
				<rect x="0" y="58.5098" width="56.6929" height="28.3465" class="st1"/>
			</g>
			<g id="shape9-18" transform="translate(69.874,0)">
				<title>Sheet.9</title>
				<desc>1st</desc>
				<rect x="0" y="65.5965" width="56.6929" height="21.2598" class="st2"/>
				<text x="19.72" y="80.43" class="st3">1st</text>			</g>
			<g id="shape10-21" transform="translate(126.567,-5.68434E-14)">
				<title>Sheet.10</title>
				<desc>2nd</desc>
				<rect x="0" y="65.5965" width="56.6929" height="21.2598" class="st2"/>
				<text x="17.44" y="80.43" class="st3">2nd</text>			</g>
			<g id="shape11-24" transform="translate(183.26,0)">
				<title>Sheet.11</title>
				<desc>3th</desc>
				<rect x="0" y="65.5965" width="56.6929" height="21.2598" class="st2"/>
				<text x="18.62" y="80.43" class="st4">3th</text>			</g>
			<g id="shape12-27" transform="translate(239.953,-5.68434E-14)">
				<title>Sheet.12</title>
				<desc>4th</desc>
				<rect x="0" y="65.5965" width="56.6929" height="21.2598" class="st2"/>
				<text x="18.62" y="80.43" class="st4">4th</text>			</g>
			<g id="shape13-30" transform="translate(296.646,0)">
				<title>Sheet.13</title>
				<desc>5th</desc>
				<rect x="0" y="65.5965" width="56.6929" height="21.2598" class="st2"/>
				<text x="18.62" y="80.43" class="st4">5th</text>			</g>
			<g id="shape14-33" transform="translate(353.339,-5.68434E-14)">
				<title>Sheet.14</title>
				<desc>6th</desc>
				<rect x="0" y="65.5965" width="56.6929" height="21.2598" class="st2"/>
				<text x="18.62" y="80.43" class="st4">6th</text>			</g>
			<g id="shape15-36" transform="translate(410.032,0)">
				<title>Sheet.15</title>
				<desc>7th</desc>
				<rect x="0" y="65.5965" width="56.6929" height="21.2598" class="st2"/>
				<text x="18.62" y="80.43" class="st4">7th</text>			</g>
			<g id="shape16-39" transform="translate(466.724,-5.68434E-14)">
				<title>Sheet.16</title>
				<desc>8th</desc>
				<rect x="0" y="65.5965" width="56.6929" height="21.2598" class="st2"/>
				<text x="18.62" y="80.43" class="st4">8th</text>			</g>
			<g id="shape17-42" transform="translate(69.874,-21.2598)">
				<title>Sheet.17</title>
				<desc>0</desc>
				<rect x="0" y="58.5098" width="56.6929" height="28.3465" class="st2"/>
				<text x="24.45" y="76.88" class="st4">0</text>			</g>
			<g id="shape18-45" transform="translate(126.567,-21.2598)">
				<title>Sheet.18</title>
				<desc>2</desc>
				<rect x="0" y="58.5098" width="56.6929" height="28.3465" class="st2"/>
				<text x="24.45" y="76.88" class="st4">2</text>			</g>
			<g id="shape19-48" transform="translate(183.26,-21.2598)">
				<title>Sheet.19</title>
				<desc>2</desc>
				<rect x="0" y="58.5098" width="56.6929" height="28.3465" class="st2"/>
				<text x="24.8" y="76.88" class="st3">2</text>			</g>
			<g id="shape20-51" transform="translate(296.646,-21.2598)">
				<title>Sheet.20</title>
				<desc>15</desc>
				<rect x="0" y="58.5098" width="56.6929" height="28.3465" class="st2"/>
				<text x="20.56" y="76.88" class="st4">15</text>			</g>
			<g id="shape21-54" transform="translate(239.953,-21.2598)">
				<title>Sheet.21</title>
				<desc>1</desc>
				<rect x="0" y="58.5098" width="56.6929" height="28.3465" class="st2"/>
				<text x="24.8" y="76.88" class="st3">1</text>			</g>
			<g id="shape22-57" transform="translate(0,-21.2598)">
				<title>Sheet.22</title>
				<desc>SEQ0CHN</desc>
				<rect x="0" y="58.5098" width="69.874" height="28.3465" class="st2"/>
				<text x="7.43" y="76.88" class="st3">SEQ0CHN</text>			</g>
		</g>
	</g>
</svg>
