<?xml version="1.0" encoding="UTF-8" standalone="no"?>
<!DOCTYPE svg PUBLIC "-//W3C//DTD SVG 1.1//EN" "http://www.w3.org/Graphics/SVG/1.1/DTD/svg11.dtd">
<!-- Generated by Microsoft Visio, SVG Export WDT普通模式.svg Page-1 -->
<svg xmlns="http://www.w3.org/2000/svg" xmlns:xlink="http://www.w3.org/1999/xlink" xmlns:ev="http://www.w3.org/2001/xml-events"
		width="5.12973in" height="3.25327in" viewBox="0 0 369.34 234.235" xml:space="preserve" color-interpolation-filters="sRGB"
		class="st15">
	<style type="text/css">
	<![CDATA[
		.st1 {fill:url(#grad0-5);stroke:#404040;stroke-linecap:round;stroke-linejoin:round;stroke-width:0.5}
		.st2 {fill:#000000;font-family:Arial;font-size:0.833336em}
		.st3 {font-size:1em}
		.st4 {marker-end:url(#mrkr5-22);stroke:#404040;stroke-linecap:round;stroke-linejoin:round;stroke-width:0.5}
		.st5 {fill:#404040;fill-opacity:1;stroke:#404040;stroke-opacity:1;stroke-width:0.16556291390728}
		.st6 {stroke:#404040;stroke-linecap:round;stroke-linejoin:round;stroke-width:0.5}
		.st7 {fill:none;stroke:none;stroke-linecap:round;stroke-linejoin:round;stroke-width:0.5}
		.st8 {fill:#000000;font-family:Arial;font-size:0.75em}
		.st9 {marker-end:url(#mrkr4-132);stroke:#404040;stroke-linecap:butt;stroke-width:3}
		.st10 {fill:#404040;fill-opacity:1;stroke:#404040;stroke-opacity:1;stroke-width:0.54347826086957}
		.st11 {fill:url(#grad0-5);stroke:#404040;stroke-linecap:round;stroke-linejoin:round;stroke-width:0.25}
		.st12 {stroke:#404040;stroke-linecap:round;stroke-linejoin:round;stroke-width:0.25}
		.st13 {fill:#000000;font-family:Arial;font-size:0.666664em}
		.st14 {stroke:#404040;stroke-dasharray:1.5,1.5;stroke-linecap:round;stroke-linejoin:round;stroke-width:0.5}
		.st15 {fill:none;fill-rule:evenodd;font-size:12px;overflow:visible;stroke-linecap:square;stroke-miterlimit:3}
	]]>
	</style>

	<defs id="Patterns_And_Gradients">
		<linearGradient id="grad0-5" x1="0" y1="0" x2="1" y2="0" gradientTransform="rotate(270 0.5 0.5)">
			<stop offset="0" stop-color="#f0f0f0" stop-opacity="1"/>
			<stop offset="1" stop-color="#ffffff" stop-opacity="1"/>
		</linearGradient>
	</defs>
	<defs id="Markers">
		<g id="lend5">
			<path d="M 2 1 L 0 0 L 1.98117 -0.993387 C 1.67173 -0.364515 1.67301 0.372641 1.98465 1.00043 " style="stroke:none"/>
		</g>
		<marker id="mrkr5-22" class="st5" refX="-10.57" orient="auto" markerUnits="strokeWidth" overflow="visible">
			<use xlink:href="#lend5" transform="scale(-6.04,-6.04) "/>
		</marker>
		<g id="lend4">
			<path d="M 2 1 L 0 0 L 2 -1 L 2 1 " style="stroke:none"/>
		</g>
		<marker id="mrkr4-132" class="st10" refX="-3.68" orient="auto" markerUnits="strokeWidth" overflow="visible">
			<use xlink:href="#lend4" transform="scale(-1.84,-1.84) "/>
		</marker>
	</defs>
	<g>
		<title>页-1</title>
		<g id="group59-1" transform="translate(-13.587,-432.533)">
			<title>Sheet.59</title>
			<g id="shape41-2" transform="translate(99.2126,-148.819)">
				<title>矩形</title>
				<desc>32-bit Up Counter</desc>
				<rect x="0" y="198.919" width="99.2126" height="35.3167" class="st1"/>
				<text x="29.32" y="213.58" class="st2">32-bit Up <tspan x="31.82" dy="1.2em" class="st3">Counter</tspan></text>			</g>
			<g id="shape42-8" transform="translate(99.2126,-77.9528)">
				<title>矩形.42</title>
				<desc>RSTV</desc>
				<rect x="0" y="213.166" width="99.2126" height="21.0695" class="st1"/>
				<text x="36.27" y="226.7" class="st2">RSTV</text>			</g>
			<g id="shape43-12" transform="translate(99.2126,-7.08661)">
				<title>矩形.43</title>
				<desc>INTV</desc>
				<rect x="0" y="212.976" width="99.2126" height="21.2598" class="st1"/>
				<text x="38.22" y="226.61" class="st2">INTV</text>			</g>
			<g id="shape45-16" transform="translate(162.992,-148.819)">
				<title>动态连接线.45</title>
				<path d="M7.09 234.24 L7.09 250.21" class="st4"/>
			</g>
			<g id="shape46-23" transform="translate(162.992,-99.0222)">
				<title>动态连接线.46</title>
				<path d="M7.09 234.24 L7.09 225.16" class="st4"/>
			</g>
			<g id="shape51-29" transform="translate(120.472,-148.819)">
				<title>动态连接线.51</title>
				<path d="M7.09 234.24 L7.09 284.03" class="st6"/>
			</g>
			<g id="shape58-33" transform="translate(248.031,-148.819)">
				<title>动态连接线.58</title>
				<path d="M0 234.24 L0 248.41 L15.97 248.41" class="st4"/>
			</g>
			<g id="shape65-39" transform="translate(230.181,-148.819)">
				<title>Sheet.65</title>
				<desc>RSTEN</desc>
				<rect x="0" y="223.609" width="35.7016" height="10.6269" class="st7"/>
				<text x="5.85" y="226.22" class="st8">RSTE<tspan x="14.6" dy="1.2em" class="st3">N</tspan></text>			</g>
			<g id="shape66-43" transform="translate(230.181,-77.9528)">
				<title>Sheet.66</title>
				<desc>INTEN</desc>
				<rect x="0" y="223.609" width="35.7016" height="10.6269" class="st7"/>
				<text x="4.35" y="231.62" class="st8">INTEN</text>			</g>
			<g id="shape67-46" transform="translate(301.181,-120.472)">
				<title>动态连接线.67</title>
				<path d="M0 227.15 L28.56 227.15" class="st4"/>
			</g>
			<g id="shape68-52" transform="translate(301.181,-49.6063)">
				<title>动态连接线.68</title>
				<path d="M0 227.15 L28.56 227.15" class="st4"/>
			</g>
			<g id="shape69-58" transform="translate(330.236,-122.246)">
				<title>Sheet.69</title>
				<desc>Reset</desc>
				<rect x="0" y="223.609" width="42.3705" height="10.6269" class="st7"/>
				<text x="9.43" y="231.62" class="st8">Reset</text>			</g>
			<g id="shape70-61" transform="translate(327.476,-51.0236)">
				<title>Sheet.70</title>
				<desc>IRQ</desc>
				<rect x="0" y="223.609" width="36.7012" height="10.6269" class="st7"/>
				<text x="10.35" y="231.62" class="st8">IRQ</text>			</g>
			<g id="group73-64" transform="translate(96.9001,-159.417)">
				<title>Sheet.73</title>
				<g id="shape71-65" transform="translate(-2.38707,-16.5002)">
					<title>动态连接线.71</title>
					<path d="M4.74 238.97 L9.44 243.68" class="st6"/>
				</g>
				<g id="shape72-69" transform="translate(11.7862,-11.7934)">
					<title>动态连接线.72</title>
					<path d="M-4.74 238.97 L-9.44 243.68" class="st6"/>
				</g>
			</g>
			<g id="shape76-73" transform="translate(14.1732,-160.157)">
				<title>Sheet.76</title>
				<desc>PCLK</desc>
				<rect x="0" y="221.483" width="33.8367" height="12.7522" class="st7"/>
				<text x="7.19" y="224.86" class="st2">PCL<tspan x="13.58" dy="1.2em" class="st3">K</tspan></text>			</g>
			<g id="shape77-77" transform="translate(61.2283,-165.683)">
				<title>动态连接线.77</title>
				<path d="M7.09 233.67 L7.09 220.63" class="st6"/>
			</g>
			<g id="shape78-81" transform="translate(52.8065,-179.222)">
				<title>Sheet.78</title>
				<desc>WDTEN</desc>
				<rect x="0" y="227.081" width="31.017" height="7.15431" class="st7"/>
				<text x="5.26" y="227.96" class="st8">WDT<tspan x="9.26" dy="1.2em" class="st3">EN</tspan></text>			</g>
			<g id="shape80-85" transform="translate(99.2126,-233.858)">
				<title>矩形.80</title>
				<desc>0</desc>
				<rect x="0" y="213.42" width="99.2126" height="20.8156" class="st1"/>
				<text x="46.83" y="226.83" class="st2">0</text>			</g>
			<g id="shape90-89" transform="translate(106.299,-206.419)">
				<title>Sheet.90</title>
				<desc>FEED</desc>
				<rect x="0" y="227.081" width="26.7247" height="7.15431" class="st7"/>
				<text x="4.61" y="227.96" class="st8">FEE<tspan x="10.11" dy="1.2em" class="st3">D</tspan></text>			</g>
			<g id="shape91-93" transform="translate(0,-262.205)">
				<title>Sheet.91</title>
				<path d="M0 234.24 L382.68 234.24" class="st6"/>
			</g>
			<g id="shape92-97" transform="translate(616.913,-27.9692) rotate(90)">
				<title>Sheet.92</title>
				<path d="M0 234.24 L262.2 234.24" class="st6"/>
			</g>
			<g id="shape93-101" transform="translate(382.677,468.471) rotate(180)">
				<title>Sheet.93</title>
				<path d="M0 234.24 L382.68 234.24" class="st6"/>
			</g>
			<g id="shape94-105" transform="translate(-234.235,234.235) rotate(-90)">
				<title>Sheet.94</title>
				<path d="M0 234.24 L262.2 234.24" class="st6"/>
			</g>
			<g id="group95-109" transform="translate(262.205,-106.299)">
				<title>Sheet.95</title>
				<g id="shape101-110" transform="translate(5.19584E-14,-7.08661)">
					<title>动态连接线.51</title>
					<path d="M7.09 234.24 L7.09 205.89" class="st6"/>
				</g>
				<g id="shape102-114" transform="translate(24.0945,-5.68434E-14)">
					<title>动态连接线.52</title>
					<path d="M0 227.15 L-17.01 227.15" class="st6"/>
				</g>
				<g id="shape103-118" transform="translate(24.0945,-28.3465)">
					<title>动态连接线.103</title>
					<path d="M0 227.15 L-17.01 227.15" class="st6"/>
				</g>
				<g id="shape104-122" transform="translate(17.0079,-7.08661)">
					<title>动态连接线.104</title>
					<path d="M7.09 234.24 C26.93 234.24 26.93 205.89 7.09 205.89" class="st6"/>
				</g>
			</g>
			<g id="shape105-126" transform="translate(383.054,0.377219) rotate(90)">
				<title>Sheet.105</title>
				<path d="M0 234.24 L38.57 234.24" class="st9"/>
			</g>
			<g id="shape106-133" transform="translate(140.315,-202.677)">
				<title>Sheet.106</title>
				<path d="M8.5 234.24 L0 217.23 L17.01 217.23 L8.5 234.24 Z" class="st11"/>
			</g>
			<g id="shape107-136" transform="translate(128.976,-209.996)">
				<title>Sheet.107</title>
				<path d="M0 234.24 L15.57 234.24" class="st12"/>
			</g>
			<g id="shape81-140" transform="translate(61.6535,-172.203)">
				<title>动态连接线.81</title>
				<path d="M1.56 239.9 L12.61 242.74" class="st6"/>
			</g>
			<g id="shape83-144" transform="translate(71.7165,-159.447)">
				<title>动态连接线.93</title>
				<path d="M0 227.15 L22.21 227.15" class="st4"/>
			</g>
			<g id="shape84-150" transform="translate(63.2126,-159.447)">
				<title>动态连接线.84</title>
				<path d="M0 227.15 L-20.69 227.15" class="st6"/>
			</g>
			<g id="shape85-154" transform="translate(64.6299,-158.625)">
				<title>动态连接线.78</title>
				<path d="M7.09 227.97 L7.09 226.33" class="st6"/>
			</g>
			<g id="shape74-158" transform="translate(162.992,-113.386)">
				<title>圆形.46</title>
				<desc>=</desc>
				<path d="M0 227.15 A7.08661 7.08661 0 0 1 14.17 227.15 A7.08661 7.08661 0 1 1 0 227.15 Z" class="st1"/>
				<text x="4.89" y="229.55" class="st13">=</text>			</g>
			<g id="shape44-162" transform="translate(120.472,-42.5197)">
				<title>圆形.44</title>
				<desc>=</desc>
				<path d="M0 227.15 A7.08661 7.08661 0 0 1 14.17 227.15 A7.08661 7.08661 0 1 1 0 227.15 Z" class="st1"/>
				<text x="4.89" y="229.55" class="st13">=</text>			</g>
			<g id="shape47-166" transform="translate(120.472,-28.1561)">
				<title>动态连接线.47</title>
				<path d="M7.09 234.24 L7.09 225.16" class="st4"/>
			</g>
			<g id="shape50-172" transform="translate(120.472,-77.9528)">
				<title>动态连接线.50</title>
				<path d="M7.09 234.24 L7.09 250.21" class="st4"/>
			</g>
			<g id="shape48-178" transform="translate(177.165,-113.386)">
				<title>动态连接线.48</title>
				<path d="M0 227.15 L86.84 227.15" class="st4"/>
			</g>
			<g id="shape49-184" transform="translate(134.646,-56.6929)">
				<title>动态连接线.49</title>
				<path d="M0 241.32 L129.36 241.32" class="st4"/>
			</g>
			<g id="group52-190" transform="translate(262.205,-35.4331)">
				<title>Sheet.52</title>
				<g id="shape53-191" transform="translate(5.19584E-14,-7.08661)">
					<title>动态连接线.51</title>
					<path d="M7.09 234.24 L7.09 205.89" class="st6"/>
				</g>
				<g id="shape54-195" transform="translate(24.0945,-5.68434E-14)">
					<title>动态连接线.52</title>
					<path d="M0 227.15 L-17.01 227.15" class="st6"/>
				</g>
				<g id="shape55-199" transform="translate(24.0945,-28.3465)">
					<title>动态连接线.103</title>
					<path d="M0 227.15 L-17.01 227.15" class="st6"/>
				</g>
				<g id="shape56-203" transform="translate(17.0079,-7.08661)">
					<title>动态连接线.104</title>
					<path d="M7.09 234.24 C26.93 234.24 26.93 205.89 7.09 205.89" class="st6"/>
				</g>
			</g>
			<g id="shape57-207" transform="translate(248.031,-77.9528)">
				<title>动态连接线.57</title>
				<path d="M0 234.24 L0 248.41 L15.97 248.41" class="st4"/>
			</g>
		</g>
		<g id="group30-213" transform="translate(0.58627,-0.25)">
			<title>Sheet.30</title>
			<g id="shape1-214" transform="translate(41.9811,-85.2315)">
				<title>动态连接线</title>
				<path d="M0 241.13 L307.06 241.51" class="st4"/>
			</g>
			<g id="shape2-220" transform="translate(35.1638,-78.3371)">
				<title>动态连接线.2</title>
				<path d="M6.82 234.24 L7.34 98.17" class="st4"/>
			</g>
			<g id="shape3-226" transform="translate(42.4661,-212.655)">
				<title>动态连接线.3</title>
				<path d="M0 241.27 L311.86 241.38" class="st6"/>
			</g>
			<g id="shape4-230" transform="translate(42.332,-155.906)">
				<title>动态连接线.4</title>
				<path d="M0 227.15 L312 227.15" class="st6"/>
			</g>
			<g id="shape5-234" transform="translate(5.93343,-198.175)">
				<title>Sheet.5</title>
				<desc>RSTV</desc>
				<rect x="0" y="216.425" width="38.6329" height="17.8103" class="st7"/>
				<text x="7.31" y="228.03" class="st8">RSTV</text>			</g>
			<g id="shape6-237" transform="translate(5.93343,-155.656)">
				<title>Sheet.6</title>
				<desc>INTV</desc>
				<rect x="0" y="215.81" width="37.962" height="18.4252" class="st7"/>
				<text x="8.73" y="227.72" class="st8">INTV</text>			</g>
			<g id="shape7-240" transform="translate(41.9811,-78.3371)">
				<title>动态连接线.7</title>
				<path d="M0 234.24 L57.23 177.93" class="st6"/>
			</g>
			<g id="shape8-244" transform="translate(99.2126,-134.646)">
				<title>动态连接线.8</title>
				<path d="M0 234.24 L71.08 163.37" class="st14"/>
			</g>
			<g id="shape9-248" transform="translate(106.265,-78.3371)">
				<title>动态连接线.9</title>
				<path d="M-7.05 234.24 L-7.12 177.99" class="st6"/>
			</g>
			<g id="shape10-252" transform="translate(99.2126,-78.3371)">
				<title>动态连接线.10</title>
				<path d="M0 234.24 L85.25 149.73" class="st6"/>
			</g>
			<g id="shape11-256" transform="translate(184.466,-162.841)">
				<title>动态连接线.11</title>
				<path d="M0 234.24 L42.52 191.51" class="st14"/>
			</g>
			<g id="shape12-260" transform="translate(191.268,-78.3371)">
				<title>动态连接线.12</title>
				<path d="M-7.02 234.24 L-7.16 149.73" class="st6"/>
			</g>
			<g id="shape13-264" transform="translate(184.252,-78.3371)">
				<title>动态连接线.13</title>
				<path d="M0 234.24 L127.42 107.04" class="st6"/>
			</g>
			<g id="shape14-268" transform="translate(318.396,-78.3371)">
				<title>动态连接线.14</title>
				<path d="M-7.08 234.24 L-7.09 107.4" class="st6"/>
			</g>
			<g id="shape15-272" transform="translate(41.9811,-63.8156)">
				<title>动态连接线.15</title>
				<path d="M0 241.29 L57.23 241.36" class="st6"/>
			</g>
			<g id="shape16-276" transform="translate(9.21696,-46.5217)">
				<title>Sheet.16</title>
				<desc>Feed</desc>
				<rect x="0" y="214.393" width="35.4243" height="19.8425" class="st7"/>
				<text x="7.46" y="227.01" class="st8">Feed</text>			</g>
			<g id="shape17-279" transform="translate(92.126,-54.3627)">
				<title>动态连接线.17</title>
				<path d="M7.09 231.83 L7.09 222.46" class="st6"/>
			</g>
			<g id="shape18-283" transform="translate(101.563,-54.3627)">
				<title>动态连接线.18</title>
				<path d="M7.09 231.83 L7.09 222.46" class="st6"/>
			</g>
			<g id="shape19-287" transform="translate(111.018,-59.0471)">
				<title>动态连接线.19</title>
				<path d="M-2.37 227.15 L-11.81 227.15" class="st6"/>
			</g>
			<g id="shape20-291" transform="translate(108.65,-63.8156)">
				<title>动态连接线.20</title>
				<path d="M0 241.29 L75.6 241.36" class="st6"/>
			</g>
			<g id="shape21-295" transform="translate(177.165,-54.3627)">
				<title>动态连接线.21</title>
				<path d="M7.09 231.83 L7.09 222.46" class="st6"/>
			</g>
			<g id="shape22-299" transform="translate(186.603,-54.3627)">
				<title>动态连接线.22</title>
				<path d="M7.09 231.83 L7.09 222.46" class="st6"/>
			</g>
			<g id="shape23-303" transform="translate(196.057,-59.0471)">
				<title>动态连接线.23</title>
				<path d="M-2.37 227.15 L-11.81 227.15" class="st6"/>
			</g>
			<g id="shape24-307" transform="translate(193.689,-63.8156)">
				<title>动态连接线.24</title>
				<path d="M0 241.29 L160.64 241.36" class="st6"/>
			</g>
			<g id="shape25-311" transform="translate(41.9811,-28.3465)">
				<title>动态连接线.25</title>
				<path d="M0 227.15 L142.27 227.15" class="st6"/>
			</g>
			<g id="shape26-315" transform="translate(9.23967,-28.0965)">
				<title>Sheet.26</title>
				<desc>IRQ</desc>
				<rect x="0" y="217.228" width="38.2136" height="17.0079" class="st7"/>
				<text x="11.11" y="228.43" class="st8">IRQ</text>			</g>
			<g id="shape27-318" transform="translate(177.165,-33.0308)">
				<title>动态连接线.27</title>
				<path d="M7.09 231.83 L7.09 222.46" class="st6"/>
			</g>
			<g id="shape28-322" transform="translate(186.603,-33.0308)">
				<title>动态连接线.28</title>
				<path d="M7.09 231.83 L7.09 222.46" class="st6"/>
			</g>
			<g id="shape29-326" transform="translate(196.057,-37.7152)">
				<title>动态连接线.29</title>
				<path d="M-2.37 227.15 L-11.81 227.15" class="st6"/>
			</g>
			<g id="shape31-330" transform="translate(193.689,-28.3465)">
				<title>动态连接线.31</title>
				<path d="M0 227.15 L75.6 227.15" class="st6"/>
			</g>
			<g id="shape32-334" transform="translate(262.205,-33.0308)">
				<title>动态连接线.32</title>
				<path d="M7.09 231.83 L7.09 222.46" class="st6"/>
			</g>
			<g id="shape33-338" transform="translate(271.642,-33.0308)">
				<title>动态连接线.33</title>
				<path d="M7.09 231.83 L7.09 222.46" class="st6"/>
			</g>
			<g id="shape34-342" transform="translate(281.097,-37.7152)">
				<title>动态连接线.34</title>
				<path d="M-2.37 227.15 L-11.81 227.15" class="st6"/>
			</g>
			<g id="shape35-346" transform="translate(278.729,-42.5197)">
				<title>动态连接线.35</title>
				<path d="M0 241.32 L75.6 241.32" class="st6"/>
			</g>
			<g id="shape36-350" transform="translate(41.9811,-7.08661)">
				<title>动态连接线.36</title>
				<path d="M0 227.15 L269.83 227.15" class="st6"/>
			</g>
			<g id="shape37-354" transform="translate(7.20719,-6.83661)">
				<title>Sheet.37</title>
				<desc>Reset</desc>
				<rect x="0" y="215.81" width="36.6092" height="18.4252" class="st7"/>
				<text x="6.55" y="227.72" class="st8">Reset</text>			</g>
			<g id="shape38-357" transform="translate(304.724,-11.771)">
				<title>动态连接线.38</title>
				<path d="M7.09 231.83 L7.09 222.46" class="st6"/>
			</g>
			<g id="shape40-361" transform="translate(354.331,-16.4554)">
				<title>动态连接线.40</title>
				<path d="M0 227.15 L-42.52 227.15" class="st6"/>
			</g>
			<g id="shape96-365" transform="translate(0,-233.858)">
				<title>Sheet.96</title>
				<path d="M0 234.24 L368.5 234.24" class="st6"/>
			</g>
			<g id="shape97-369" transform="translate(602.739,0.377219) rotate(90)">
				<title>Sheet.97</title>
				<path d="M0 234.24 L233.86 234.24" class="st6"/>
			</g>
			<g id="shape98-373" transform="translate(368.504,468.471) rotate(180)">
				<title>Sheet.98</title>
				<path d="M0 234.24 L368.5 234.24" class="st6"/>
			</g>
			<g id="shape99-377" transform="translate(-234.235,234.235) rotate(-90)">
				<title>Sheet.99</title>
				<path d="M0 234.24 L233.86 234.24" class="st6"/>
			</g>
		</g>
	</g>
</svg>
