<?xml version="1.0" encoding="UTF-8" standalone="no"?>
<!DOCTYPE svg PUBLIC "-//W3C//DTD SVG 1.1//EN" "http://www.w3.org/Graphics/SVG/1.1/DTD/svg11.dtd">
<!-- Generated by Microsoft Visio, SVG Export 模块结构框图.svg Page-1 -->
<svg xmlns="http://www.w3.org/2000/svg" xmlns:xlink="http://www.w3.org/1999/xlink" xmlns:ev="http://www.w3.org/2001/xml-events"
		width="5.32191in" height="3.67577in" viewBox="0 0 383.177 264.655" xml:space="preserve" color-interpolation-filters="sRGB"
		class="st15">
	<style type="text/css">
	<![CDATA[
		.st1 {fill:url(#grad0-5);stroke:#404040;stroke-linecap:round;stroke-linejoin:round;stroke-width:0.5}
		.st2 {fill:#000000;font-family:Arial;font-size:0.833336em}
		.st3 {font-size:1em}
		.st4 {marker-end:url(#mrkr5-22);stroke:#404040;stroke-linecap:round;stroke-linejoin:round;stroke-width:0.5}
		.st5 {fill:#404040;fill-opacity:1;stroke:#404040;stroke-opacity:1;stroke-width:0.16556291390728}
		.st6 {stroke:#404040;stroke-linecap:round;stroke-linejoin:round;stroke-width:0.5}
		.st7 {fill:none;stroke:none;stroke-linecap:round;stroke-linejoin:round;stroke-width:0.5}
		.st8 {fill:#000000;font-family:Arial;font-size:0.75em}
		.st9 {marker-end:url(#mrkr4-128);stroke:#404040;stroke-linecap:butt;stroke-width:3}
		.st10 {fill:#404040;fill-opacity:1;stroke:#404040;stroke-opacity:1;stroke-width:0.54347826086957}
		.st11 {fill:url(#grad0-5);stroke:#404040;stroke-linecap:round;stroke-linejoin:round;stroke-width:0.25}
		.st12 {stroke:#404040;stroke-linecap:round;stroke-linejoin:round;stroke-width:0.25}
		.st13 {fill:#000000;font-family:Arial;font-size:0.666664em}
		.st14 {stroke:#404040;stroke-dasharray:1.5,1.5;stroke-linecap:round;stroke-linejoin:round;stroke-width:0.5}
		.st15 {fill:none;fill-rule:evenodd;font-size:12px;overflow:visible;stroke-linecap:square;stroke-miterlimit:3}
	]]>
	</style>

	<defs id="Patterns_And_Gradients">
		<linearGradient id="grad0-5" x1="0" y1="0" x2="1" y2="0" gradientTransform="rotate(270 0.5 0.5)">
			<stop offset="0" stop-color="#f0f0f0" stop-opacity="1"/>
			<stop offset="1" stop-color="#ffffff" stop-opacity="1"/>
		</linearGradient>
	</defs>
	<defs id="Markers">
		<g id="lend5">
			<path d="M 2 1 L 0 0 L 1.98117 -0.993387 C 1.67173 -0.364515 1.67301 0.372641 1.98465 1.00043 " style="stroke:none"/>
		</g>
		<marker id="mrkr5-22" class="st5" refX="-10.57" orient="auto" markerUnits="strokeWidth" overflow="visible">
			<use xlink:href="#lend5" transform="scale(-6.04,-6.04) "/>
		</marker>
		<g id="lend4">
			<path d="M 2 1 L 0 0 L 2 -1 L 2 1 " style="stroke:none"/>
		</g>
		<marker id="mrkr4-128" class="st10" refX="-3.68" orient="auto" markerUnits="strokeWidth" overflow="visible">
			<use xlink:href="#lend4" transform="scale(-1.84,-1.84) "/>
		</marker>
	</defs>
	<g>
		<title>页-1</title>
		<g id="group59-1" transform="translate(0.25,-2.20068)">
			<title>Sheet.59</title>
			<g id="shape41-2" transform="translate(99.2126,-148.819)">
				<title>矩形</title>
				<desc>16-bit Up Counter</desc>
				<rect x="0" y="229.339" width="99.2126" height="35.3167" class="st1"/>
				<text x="29.32" y="244" class="st2">16-bit Up <tspan x="31.82" dy="1.2em" class="st3">Counter</tspan></text>			</g>
			<g id="shape42-8" transform="translate(99.2126,-77.9528)">
				<title>矩形.42</title>
				<desc>RSTV</desc>
				<rect x="0" y="243.586" width="99.2126" height="21.0695" class="st1"/>
				<text x="36.27" y="257.12" class="st2">RSTV</text>			</g>
			<g id="shape43-12" transform="translate(99.2126,-7.08661)">
				<title>矩形.43</title>
				<desc>INTV</desc>
				<rect x="0" y="243.396" width="99.2126" height="21.2598" class="st1"/>
				<text x="38.22" y="257.03" class="st2">INTV</text>			</g>
			<g id="shape45-16" transform="translate(162.992,-148.819)">
				<title>动态连接线.45</title>
				<path d="M7.09 264.66 L7.09 280.63" class="st4"/>
			</g>
			<g id="shape46-23" transform="translate(162.992,-99.0222)">
				<title>动态连接线.46</title>
				<path d="M7.09 264.66 L7.09 255.58" class="st4"/>
			</g>
			<g id="shape51-29" transform="translate(120.472,-148.819)">
				<title>动态连接线.51</title>
				<path d="M7.09 264.66 L7.09 314.45" class="st6"/>
			</g>
			<g id="shape58-33" transform="translate(248.031,-148.819)">
				<title>动态连接线.58</title>
				<path d="M0 264.66 L0 278.83 L15.97 278.83" class="st4"/>
			</g>
			<g id="shape65-39" transform="translate(218.868,-148.819)">
				<title>Sheet.65</title>
				<desc>RSTEN</desc>
				<rect x="0" y="245.596" width="56.6929" height="19.0592" class="st7"/>
				<text x="13.1" y="257.83" class="st8">RSTEN</text>			</g>
			<g id="shape66-42" transform="translate(224.537,-77.9528)">
				<title>Sheet.66</title>
				<desc>INTEN</desc>
				<rect x="0" y="251.266" width="51.0236" height="13.3899" class="st7"/>
				<text x="12.01" y="260.66" class="st8">INTEN</text>			</g>
			<g id="shape67-45" transform="translate(301.181,-120.472)">
				<title>动态连接线.67</title>
				<path d="M0 257.57 L28.56 257.57" class="st4"/>
			</g>
			<g id="shape68-51" transform="translate(301.181,-49.6063)">
				<title>动态连接线.68</title>
				<path d="M0 257.57 L28.56 257.57" class="st4"/>
			</g>
			<g id="shape69-57" transform="translate(330.236,-116.854)">
				<title>Sheet.69</title>
				<desc>Reset</desc>
				<rect x="0" y="241.978" width="42.3705" height="22.6772" class="st7"/>
				<text x="9.43" y="256.02" class="st8">Reset</text>			</g>
			<g id="shape70-60" transform="translate(327.476,-43.1536)">
				<title>Sheet.70</title>
				<desc>IRQ</desc>
				<rect x="0" y="236.309" width="36.7012" height="28.3465" class="st7"/>
				<text x="10.35" y="253.18" class="st8">IRQ</text>			</g>
			<g id="group73-63" transform="translate(96.9001,-159.417)">
				<title>Sheet.73</title>
				<g id="shape71-64" transform="translate(-2.38707,-16.5002)">
					<title>动态连接线.71</title>
					<path d="M4.74 269.39 L9.44 274.1" class="st6"/>
				</g>
				<g id="shape72-68" transform="translate(11.7862,-11.7934)">
					<title>动态连接线.72</title>
					<path d="M-4.74 269.39 L-9.44 274.1" class="st6"/>
				</g>
			</g>
			<g id="shape76-72" transform="translate(3.43505,-156.539)">
				<title>Sheet.76</title>
				<desc>PCLK</desc>
				<rect x="0" y="241.978" width="44.5749" height="22.6772" class="st7"/>
				<text x="9.23" y="256.32" class="st2">PCLK</text>			</g>
			<g id="shape77-75" transform="translate(61.2283,-165.683)">
				<title>动态连接线.77</title>
				<path d="M7.09 264.09 L7.09 251.05" class="st6"/>
			</g>
			<g id="shape78-79" transform="translate(40.2854,-179.222)">
				<title>Sheet.78</title>
				<desc>WDTEN</desc>
				<rect x="0" y="247.653" width="53.8583" height="17.0027" class="st7"/>
				<text x="10.43" y="258.85" class="st8">WDTEN</text>			</g>
			<g id="shape80-82" transform="translate(99.2126,-233.858)">
				<title>矩形.80</title>
				<desc>0</desc>
				<rect x="0" y="243.84" width="99.2126" height="20.8156" class="st1"/>
				<text x="46.83" y="257.25" class="st2">0</text>			</g>
			<g id="shape90-86" transform="translate(94.1437,-201.894)">
				<title>Sheet.90</title>
				<desc>FEED</desc>
				<rect x="0" y="247.648" width="38.8802" height="17.0079" class="st7"/>
				<text x="7.44" y="258.85" class="st8">FEED</text>			</g>
			<g id="shape91-89" transform="translate(0,-262.205)">
				<title>Sheet.91</title>
				<path d="M0 264.66 L382.68 264.66" class="st6"/>
			</g>
			<g id="shape92-93" transform="translate(647.333,2.45068) rotate(90)">
				<title>Sheet.92</title>
				<path d="M0 264.66 L262.2 264.66" class="st6"/>
			</g>
			<g id="shape93-97" transform="translate(382.677,529.311) rotate(180)">
				<title>Sheet.93</title>
				<path d="M0 264.66 L382.68 264.66" class="st6"/>
			</g>
			<g id="shape94-101" transform="translate(-264.655,264.655) rotate(-90)">
				<title>Sheet.94</title>
				<path d="M0 264.66 L262.2 264.66" class="st6"/>
			</g>
			<g id="group95-105" transform="translate(262.205,-106.299)">
				<title>Sheet.95</title>
				<g id="shape101-106" transform="translate(5.19584E-14,-7.08661)">
					<title>动态连接线.51</title>
					<path d="M7.09 264.66 L7.09 236.31" class="st6"/>
				</g>
				<g id="shape102-110" transform="translate(24.0945,-5.68434E-14)">
					<title>动态连接线.52</title>
					<path d="M0 257.57 L-17.01 257.57" class="st6"/>
				</g>
				<g id="shape103-114" transform="translate(24.0945,-28.3465)">
					<title>动态连接线.103</title>
					<path d="M0 257.57 L-17.01 257.57" class="st6"/>
				</g>
				<g id="shape104-118" transform="translate(17.0079,-7.08661)">
					<title>动态连接线.104</title>
					<path d="M7.09 264.66 C26.93 264.66 26.93 236.31 7.09 236.31" class="st6"/>
				</g>
			</g>
			<g id="shape105-122" transform="translate(413.474,30.7971) rotate(90)">
				<title>Sheet.105</title>
				<path d="M0 264.66 L38.57 264.66" class="st9"/>
			</g>
			<g id="shape106-129" transform="translate(140.315,-202.677)">
				<title>Sheet.106</title>
				<path d="M8.5 264.66 L0 247.65 L17.01 247.65 L8.5 264.66 Z" class="st11"/>
			</g>
			<g id="shape107-132" transform="translate(128.976,-209.996)">
				<title>Sheet.107</title>
				<path d="M0 264.66 L15.57 264.66" class="st12"/>
			</g>
			<g id="shape81-136" transform="translate(61.6535,-172.203)">
				<title>动态连接线.81</title>
				<path d="M1.56 270.32 L12.61 273.16" class="st6"/>
			</g>
			<g id="shape83-140" transform="translate(71.7165,-159.447)">
				<title>动态连接线.93</title>
				<path d="M0 257.57 L22.21 257.57" class="st4"/>
			</g>
			<g id="shape84-146" transform="translate(63.2126,-159.447)">
				<title>动态连接线.84</title>
				<path d="M0 257.57 L-20.69 257.57" class="st6"/>
			</g>
			<g id="shape85-150" transform="translate(64.6299,-158.625)">
				<title>动态连接线.78</title>
				<path d="M7.09 258.39 L7.09 256.75" class="st6"/>
			</g>
			<g id="shape74-154" transform="translate(162.992,-113.386)">
				<title>圆形.46</title>
				<desc>=</desc>
				<path d="M0 257.57 A7.08661 7.08661 0 0 1 14.17 257.57 A7.08661 7.08661 0 1 1 0 257.57 Z" class="st1"/>
				<text x="4.89" y="259.97" class="st13">=</text>			</g>
			<g id="shape44-158" transform="translate(120.472,-42.5197)">
				<title>圆形.44</title>
				<desc>=</desc>
				<path d="M0 257.57 A7.08661 7.08661 0 0 1 14.17 257.57 A7.08661 7.08661 0 1 1 0 257.57 Z" class="st1"/>
				<text x="4.89" y="259.97" class="st13">=</text>			</g>
			<g id="shape47-162" transform="translate(120.472,-28.1561)">
				<title>动态连接线.47</title>
				<path d="M7.09 264.66 L7.09 255.58" class="st4"/>
			</g>
			<g id="shape50-168" transform="translate(120.472,-77.9528)">
				<title>动态连接线.50</title>
				<path d="M7.09 264.66 L7.09 280.63" class="st4"/>
			</g>
			<g id="shape48-174" transform="translate(177.165,-113.386)">
				<title>动态连接线.48</title>
				<path d="M0 257.57 L86.84 257.57" class="st4"/>
			</g>
			<g id="shape49-180" transform="translate(134.646,-56.6929)">
				<title>动态连接线.49</title>
				<path d="M0 271.74 L129.36 271.74" class="st4"/>
			</g>
			<g id="group52-186" transform="translate(262.205,-35.4331)">
				<title>Sheet.52</title>
				<g id="shape53-187" transform="translate(5.19584E-14,-7.08661)">
					<title>动态连接线.51</title>
					<path d="M7.09 264.66 L7.09 236.31" class="st6"/>
				</g>
				<g id="shape54-191" transform="translate(24.0945,-5.68434E-14)">
					<title>动态连接线.52</title>
					<path d="M0 257.57 L-17.01 257.57" class="st6"/>
				</g>
				<g id="shape55-195" transform="translate(24.0945,-28.3465)">
					<title>动态连接线.103</title>
					<path d="M0 257.57 L-17.01 257.57" class="st6"/>
				</g>
				<g id="shape56-199" transform="translate(17.0079,-7.08661)">
					<title>动态连接线.104</title>
					<path d="M7.09 264.66 C26.93 264.66 26.93 236.31 7.09 236.31" class="st6"/>
				</g>
			</g>
			<g id="shape57-203" transform="translate(248.031,-77.9528)">
				<title>动态连接线.57</title>
				<path d="M0 264.66 L0 278.83 L15.97 278.83" class="st4"/>
			</g>
		</g>
		<g id="group30-209" transform="translate(14.4232,430.083)">
			<title>Sheet.30</title>
			<g id="shape1-210" transform="translate(41.9811,-85.2315)">
				<title>动态连接线</title>
				<path d="M0 271.55 L307.06 271.93" class="st4"/>
			</g>
			<g id="shape2-216" transform="translate(35.1638,-78.3371)">
				<title>动态连接线.2</title>
				<path d="M6.82 264.66 L7.34 128.59" class="st4"/>
			</g>
			<g id="shape3-222" transform="translate(42.4661,-212.655)">
				<title>动态连接线.3</title>
				<path d="M0 271.69 L311.86 271.8" class="st6"/>
			</g>
			<g id="shape4-226" transform="translate(42.332,-155.906)">
				<title>动态连接线.4</title>
				<path d="M0 257.57 L312 257.57" class="st6"/>
			</g>
			<g id="shape5-230" transform="translate(9.29194,-200.605)">
				<title>Sheet.5</title>
				<desc>RSTV</desc>
				<rect x="0" y="254.079" width="35.2744" height="10.5763" class="st7"/>
				<text x="5.64" y="262.07" class="st8">RSTV</text>			</g>
			<g id="shape6-233" transform="translate(9.92126,-157.704)">
				<title>Sheet.6</title>
				<desc>INTV</desc>
				<rect x="0" y="254.079" width="33.9741" height="10.5763" class="st7"/>
				<text x="6.74" y="262.07" class="st8">INTV</text>			</g>
			<g id="shape7-236" transform="translate(41.9811,-78.3371)">
				<title>动态连接线.7</title>
				<path d="M0 264.66 L57.23 208.35" class="st6"/>
			</g>
			<g id="shape8-240" transform="translate(99.2126,-134.646)">
				<title>动态连接线.8</title>
				<path d="M0 264.66 L71.08 193.79" class="st14"/>
			</g>
			<g id="shape9-244" transform="translate(106.265,-78.3371)">
				<title>动态连接线.9</title>
				<path d="M-7.05 264.66 L-7.12 208.41" class="st6"/>
			</g>
			<g id="shape10-248" transform="translate(99.2126,-78.3371)">
				<title>动态连接线.10</title>
				<path d="M0 264.66 L85.25 180.15" class="st6"/>
			</g>
			<g id="shape11-252" transform="translate(184.466,-162.841)">
				<title>动态连接线.11</title>
				<path d="M0 264.66 L42.52 221.93" class="st14"/>
			</g>
			<g id="shape12-256" transform="translate(191.268,-78.3371)">
				<title>动态连接线.12</title>
				<path d="M-7.02 264.66 L-7.16 180.15" class="st6"/>
			</g>
			<g id="shape13-260" transform="translate(184.252,-78.3371)">
				<title>动态连接线.13</title>
				<path d="M0 264.66 L127.42 137.46" class="st6"/>
			</g>
			<g id="shape14-264" transform="translate(318.396,-78.3371)">
				<title>动态连接线.14</title>
				<path d="M-7.08 264.66 L-7.09 137.82" class="st6"/>
			</g>
			<g id="shape15-268" transform="translate(41.9811,-63.8156)">
				<title>动态连接线.15</title>
				<path d="M0 271.71 L57.23 271.78" class="st6"/>
			</g>
			<g id="shape16-272" transform="translate(9.21696,-50.9251)">
				<title>Sheet.16</title>
				<desc>Feed</desc>
				<rect x="0" y="254.079" width="35.4243" height="10.5763" class="st7"/>
				<text x="7.46" y="262.07" class="st8">Feed</text>			</g>
			<g id="shape17-275" transform="translate(92.126,-54.3627)">
				<title>动态连接线.17</title>
				<path d="M7.09 262.25 L7.09 252.88" class="st6"/>
			</g>
			<g id="shape18-279" transform="translate(101.563,-54.3627)">
				<title>动态连接线.18</title>
				<path d="M7.09 262.25 L7.09 252.88" class="st6"/>
			</g>
			<g id="shape19-283" transform="translate(111.018,-59.0471)">
				<title>动态连接线.19</title>
				<path d="M-2.37 257.57 L-11.81 257.57" class="st6"/>
			</g>
			<g id="shape20-287" transform="translate(108.65,-63.8156)">
				<title>动态连接线.20</title>
				<path d="M0 271.71 L75.6 271.78" class="st6"/>
			</g>
			<g id="shape21-291" transform="translate(177.165,-54.3627)">
				<title>动态连接线.21</title>
				<path d="M7.09 262.25 L7.09 252.88" class="st6"/>
			</g>
			<g id="shape22-295" transform="translate(186.603,-54.3627)">
				<title>动态连接线.22</title>
				<path d="M7.09 262.25 L7.09 252.88" class="st6"/>
			</g>
			<g id="shape23-299" transform="translate(196.057,-59.0471)">
				<title>动态连接线.23</title>
				<path d="M-2.37 257.57 L-11.81 257.57" class="st6"/>
			</g>
			<g id="shape24-303" transform="translate(193.689,-63.8156)">
				<title>动态连接线.24</title>
				<path d="M0 271.71 L160.64 271.78" class="st6"/>
			</g>
			<g id="shape25-307" transform="translate(41.9811,-28.3465)">
				<title>动态连接线.25</title>
				<path d="M0 257.57 L142.27 257.57" class="st6"/>
			</g>
			<g id="shape26-311" transform="translate(9.23967,-30.1449)">
				<title>Sheet.26</title>
				<desc>IRQ</desc>
				<rect x="0" y="254.079" width="38.2136" height="10.5763" class="st7"/>
				<text x="11.11" y="262.07" class="st8">IRQ</text>			</g>
			<g id="shape27-314" transform="translate(177.165,-33.0308)">
				<title>动态连接线.27</title>
				<path d="M7.09 262.25 L7.09 252.88" class="st6"/>
			</g>
			<g id="shape28-318" transform="translate(186.603,-33.0308)">
				<title>动态连接线.28</title>
				<path d="M7.09 262.25 L7.09 252.88" class="st6"/>
			</g>
			<g id="shape29-322" transform="translate(196.057,-37.7152)">
				<title>动态连接线.29</title>
				<path d="M-2.37 257.57 L-11.81 257.57" class="st6"/>
			</g>
			<g id="shape31-326" transform="translate(193.689,-28.3465)">
				<title>动态连接线.31</title>
				<path d="M0 257.57 L75.6 257.57" class="st6"/>
			</g>
			<g id="shape32-330" transform="translate(262.205,-33.0308)">
				<title>动态连接线.32</title>
				<path d="M7.09 262.25 L7.09 252.88" class="st6"/>
			</g>
			<g id="shape33-334" transform="translate(271.642,-33.0308)">
				<title>动态连接线.33</title>
				<path d="M7.09 262.25 L7.09 252.88" class="st6"/>
			</g>
			<g id="shape34-338" transform="translate(281.097,-37.7152)">
				<title>动态连接线.34</title>
				<path d="M-2.37 257.57 L-11.81 257.57" class="st6"/>
			</g>
			<g id="shape35-342" transform="translate(278.729,-28.3465)">
				<title>动态连接线.35</title>
				<path d="M0 257.57 L75.6 257.57" class="st6"/>
			</g>
			<g id="shape36-346" transform="translate(41.9811,-7.08661)">
				<title>动态连接线.36</title>
				<path d="M0 257.57 L269.83 257.57" class="st6"/>
			</g>
			<g id="shape37-350" transform="translate(7.20719,-9.2182)">
				<title>Sheet.37</title>
				<desc>Reset</desc>
				<rect x="0" y="254.079" width="36.6092" height="10.5763" class="st7"/>
				<text x="6.55" y="262.07" class="st8">Reset</text>			</g>
			<g id="shape38-353" transform="translate(304.724,-11.771)">
				<title>动态连接线.38</title>
				<path d="M7.09 262.25 L7.09 252.88" class="st6"/>
			</g>
			<g id="shape40-357" transform="translate(354.331,-16.4554)">
				<title>动态连接线.40</title>
				<path d="M0 257.57 L-42.52 257.57" class="st6"/>
			</g>
			<g id="shape96-361" transform="translate(0,-233.858)">
				<title>Sheet.96</title>
				<path d="M0 264.66 L368.5 264.66" class="st6"/>
			</g>
			<g id="shape97-365" transform="translate(633.159,30.7971) rotate(90)">
				<title>Sheet.97</title>
				<path d="M0 264.66 L233.86 264.66" class="st6"/>
			</g>
			<g id="shape98-369" transform="translate(368.504,529.311) rotate(180)">
				<title>Sheet.98</title>
				<path d="M0 264.66 L368.5 264.66" class="st6"/>
			</g>
			<g id="shape99-373" transform="translate(-264.655,264.655) rotate(-90)">
				<title>Sheet.99</title>
				<path d="M0 264.66 L233.86 264.66" class="st6"/>
			</g>
		</g>
	</g>
</svg>
