<?xml version="1.0" encoding="UTF-8" standalone="no"?>
<!DOCTYPE svg PUBLIC "-//W3C//DTD SVG 1.1//EN" "http://www.w3.org/Graphics/SVG/1.1/DTD/svg11.dtd">
<!-- Generated by Microsoft Visio, SVG Export WDT喂狗操作.svg Page-1 -->
<svg xmlns="http://www.w3.org/2000/svg" xmlns:xlink="http://www.w3.org/1999/xlink" xmlns:ev="http://www.w3.org/2001/xml-events"
		width="6.02223in" height="3.36475in" viewBox="0 0 433.6 242.262" xml:space="preserve" color-interpolation-filters="sRGB"
		class="st19">
	<style type="text/css">
	<![CDATA[
		.st1 {stroke:#000000;stroke-linecap:round;stroke-linejoin:round;stroke-width:0.458385}
		.st2 {fill:#000000;stroke:none;stroke-linecap:round;stroke-linejoin:round;stroke-width:0.75}
		.st3 {stroke:#000000;stroke-linecap:round;stroke-linejoin:round;stroke-width:1.37516}
		.st4 {fill:#00b050;stroke:#00b050;stroke-linecap:round;stroke-linejoin:round;stroke-width:0.333371}
		.st5 {fill:#f28226;stroke:#f28226;stroke-linecap:round;stroke-linejoin:round;stroke-width:0.333371}
		.st6 {fill:#00b0f0;stroke:#00b0f0;stroke-linecap:round;stroke-linejoin:round;stroke-width:0.333371}
		.st7 {stroke:none;stroke-linecap:round;stroke-linejoin:round;stroke-width:0.75}
		.st8 {fill:#000000;font-family:微软雅黑;font-size:1.27219em}
		.st9 {fill:#000000;font-family:Arial;font-size:1.00001em}
		.st10 {fill:#000000;font-family:微软雅黑;font-size:1.00001em}
		.st11 {font-family:Arial;font-size:1em}
		.st12 {stroke:#739cc3;stroke-linecap:round;stroke-linejoin:round;stroke-width:1.87521}
		.st13 {marker-end:url(#mrkr6-45);stroke:#ff0000;stroke-linecap:round;stroke-linejoin:round;stroke-width:0.458385}
		.st14 {fill:#ff0000;fill-opacity:1;stroke:#ff0000;stroke-opacity:1;stroke-width:0.20297030081096}
		.st15 {fill:none;stroke:#000000;stroke-linecap:round;stroke-linejoin:round;stroke-width:0.75}
		.st16 {fill:none;stroke:none;stroke-linecap:round;stroke-linejoin:round;stroke-width:0.75}
		.st17 {font-size:1em}
		.st18 {font-family:Calibri;font-size:1em}
		.st19 {fill:none;fill-rule:evenodd;font-size:12px;overflow:visible;stroke-linecap:square;stroke-miterlimit:3}
	]]>
	</style>

	<defs id="Markers">
		<g id="lend6">
			<path d="M 2 1 L 0 0 L 2.01237 -1.00641 C 2.32921 -0.372876 2.32921 0.372869 2.01238 1.0064 " style="stroke:none"/>
		</g>
		<marker id="mrkr6-45" class="st14" refX="-11.085365647143" orient="auto" markerUnits="strokeWidth" overflow="visible">
			<use xlink:href="#lend6" transform="scale(-4.9268291765078,-4.9268291765078) "/>
		</marker>
	</defs>
	<g>
		<title>页-1</title>
		<g id="shape29-1" transform="translate(112.151,-52.3996)">
			<title>Sheet.29</title>
			<path d="M0 242.26 L0 95.01" class="st1"/>
		</g>
		<g id="shape30-4" transform="translate(106.856,-198.322)">
			<title>Sheet.30</title>
			<path d="M10.59 242.26 L5.3 226.52 L0 242.26 L10.59 242.26 L10.59 242.26 Z" class="st2"/>
		</g>
		<g id="shape31-6" transform="translate(112.151,-52.3996)">
			<title>Sheet.31</title>
			<path d="M-0 242.26 L266.8 242.26" class="st1"/>
		</g>
		<g id="shape33-9" transform="translate(112.151,-52.3996)">
			<title>Sheet.33</title>
			<path d="M-0 242.26 L217.47 121" class="st3"/>
		</g>
		<g id="shape34-12" transform="translate(111.46,-172.974)">
			<title>Sheet.34</title>
			<path d="M0.69 240.89 L10.36 240.89 C10.74 240.89 11.05 241.2 11.05 241.58 C11.05 241.95 10.74 242.26 10.36 242.26 L0.69
						 242.26 C0.31 242.26 0 241.95 0 241.58 C0 241.2 0.31 240.89 0.69 240.89 ZM17.27 240.89 L26.94 240.89 C27.31
						 240.89 27.63 241.2 27.63 241.58 C27.63 241.95 27.31 242.26 26.94 242.26 L17.27 242.26 C16.89 242.26 16.58
						 241.95 16.58 241.58 C16.58 241.2 16.89 240.89 17.27 240.89 ZM33.84 240.89 L43.51 240.89 C43.89 240.89 44.2
						 241.2 44.2 241.58 C44.2 241.95 43.89 242.26 43.51 242.26 L33.84 242.26 C33.47 242.26 33.15 241.95 33.15
						 241.58 C33.15 241.2 33.47 240.89 33.84 240.89 ZM50.42 240.89 L60.07 240.89 C60.46 240.89 60.76 241.2 60.76
						 241.58 C60.76 241.95 60.46 242.26 60.07 242.26 L50.42 242.26 C50.02 242.26 49.73 241.95 49.73 241.58 C49.73
						 241.2 50.02 240.89 50.42 240.89 ZM66.97 240.89 L76.64 240.89 C77.02 240.89 77.33 241.2 77.33 241.58 C77.33
						 241.95 77.02 242.26 76.64 242.26 L66.97 242.26 C66.6 242.26 66.28 241.95 66.28 241.58 C66.28 241.2 66.6
						 240.89 66.97 240.89 ZM83.55 240.89 L93.22 240.89 C93.59 240.89 93.91 241.2 93.91 241.58 C93.91 241.95 93.59
						 242.26 93.22 242.26 L83.55 242.26 C83.17 242.26 82.86 241.95 82.86 241.58 C82.86 241.2 83.17 240.89 83.55
						 240.89 ZM100.12 240.89 L109.79 240.89 C110.17 240.89 110.48 241.2 110.48 241.58 C110.48 241.95 110.17 242.26
						 109.79 242.26 L100.12 242.26 C99.75 242.26 99.43 241.95 99.43 241.58 C99.43 241.2 99.75 240.89 100.12 240.89
						 ZM116.7 240.89 L126.35 240.89 C126.75 240.89 127.04 241.2 127.04 241.58 C127.04 241.95 126.75 242.26 126.35
						 242.26 L116.7 242.26 C116.3 242.26 116.01 241.95 116.01 241.58 C116.01 241.2 116.3 240.89 116.7 240.89 ZM133.26
						 240.89 L142.92 240.89 C143.3 240.89 143.62 241.2 143.62 241.58 C143.62 241.95 143.3 242.26 142.92 242.26
						 L133.26 242.26 C132.88 242.26 132.56 241.95 132.56 241.58 C132.56 241.2 132.88 240.89 133.26 240.89 ZM149.83
						 240.89 L159.5 240.89 C159.88 240.89 160.19 241.2 160.19 241.58 C160.19 241.95 159.88 242.26 159.5 242.26
						 L149.83 242.26 C149.45 242.26 149.14 241.95 149.14 241.58 C149.14 241.2 149.45 240.89 149.83 240.89 ZM166.41
						 240.89 L176.08 240.89 C176.45 240.89 176.77 241.2 176.77 241.58 C176.77 241.95 176.45 242.26 176.08 242.26
						 L166.41 242.26 C166.03 242.26 165.72 241.95 165.72 241.58 C165.72 241.2 166.03 240.89 166.41 240.89 ZM182.98
						 240.89 L192.65 240.89 C193.03 240.89 193.34 241.2 193.34 241.58 C193.34 241.95 193.03 242.26 192.65 242.26
						 L182.98 242.26 C182.59 242.26 182.29 241.95 182.29 241.58 C182.29 241.2 182.59 240.89 182.98 240.89 ZM199.54
						 240.89 L209.21 240.89 C209.6 240.89 209.9 241.2 209.9 241.58 C209.9 241.95 209.6 242.26 209.21 242.26 L199.54
						 242.26 C199.16 242.26 198.85 241.95 198.85 241.58 C198.85 241.2 199.16 240.89 199.54 240.89 ZM216.11 240.89
						 L218.16 240.89 C218.54 240.89 218.86 241.2 218.86 241.58 C218.86 241.95 218.54 242.26 218.16 242.26 L216.11
						 242.26 C215.74 242.26 215.42 241.95 215.42 241.58 C215.42 241.2 215.74 240.89 216.11 240.89 Z" class="st4"/>
		</g>
		<g id="shape35-14" transform="translate(112.151,-132.548)">
			<title>Sheet.35</title>
			<path d="M0.69 240.89 L10.36 240.89 C10.74 240.89 11.05 241.2 11.05 241.58 C11.05 241.95 10.74 242.26 10.36 242.26 L0.69
						 242.26 C0.29 242.26 0 241.95 0 241.58 C0 241.2 0.29 240.89 0.69 240.89 ZM17.25 240.89 L26.91 240.89 C27.31
						 240.89 27.61 241.2 27.61 241.58 C27.61 241.95 27.31 242.26 26.91 242.26 L17.25 242.26 C16.87 242.26 16.55
						 241.95 16.55 241.58 C16.55 241.2 16.87 240.89 17.25 240.89 ZM33.82 240.89 L43.49 240.89 C43.87 240.89 44.18
						 241.2 44.18 241.58 C44.18 241.95 43.87 242.26 43.49 242.26 L33.82 242.26 C33.44 242.26 33.13 241.95 33.13
						 241.58 C33.13 241.2 33.44 240.89 33.82 240.89 ZM50.4 240.89 L60.07 240.89 C60.44 240.89 60.76 241.2 60.76
						 241.58 C60.76 241.95 60.44 242.26 60.07 242.26 L50.4 242.26 C50.02 242.26 49.71 241.95 49.71 241.58 C49.71
						 241.2 50.02 240.89 50.4 240.89 ZM66.97 240.89 L76.64 240.89 C77.02 240.89 77.33 241.2 77.33 241.58 C77.33
						 241.95 77.02 242.26 76.64 242.26 L66.97 242.26 C66.6 242.26 66.28 241.95 66.28 241.58 C66.28 241.2 66.6
						 240.89 66.97 240.89 ZM83.55 240.89 L93.2 240.89 C93.59 240.89 93.89 241.2 93.89 241.58 C93.89 241.95 93.59
						 242.26 93.2 242.26 L83.55 242.26 C83.15 242.26 82.86 241.95 82.86 241.58 C82.86 241.2 83.15 240.89 83.55
						 240.89 ZM100.1 240.89 L109.77 240.89 C110.15 240.89 110.46 241.2 110.46 241.58 C110.46 241.95 110.15 242.26
						 109.77 242.26 L100.1 242.26 C99.73 242.26 99.41 241.95 99.41 241.58 C99.41 241.2 99.73 240.89 100.1 240.89
						 ZM116.68 240.89 L126.35 240.89 C126.73 240.89 127.04 241.2 127.04 241.58 C127.04 241.95 126.73 242.26 126.35
						 242.26 L116.68 242.26 C116.3 242.26 115.99 241.95 115.99 241.58 C115.99 241.2 116.3 240.89 116.68 240.89
						 ZM133.26 240.89 L142.92 240.89 C143.3 240.89 143.62 241.2 143.62 241.58 C143.62 241.95 143.3 242.26 142.92
						 242.26 L133.26 242.26 C132.88 242.26 132.56 241.95 132.56 241.58 C132.56 241.2 132.88 240.89 133.26 240.89
						 Z" class="st5"/>
		</g>
		<g id="shape36-16" transform="translate(255.536,-54.5775)">
			<title>Sheet.36</title>
			<path d="M1.38 166.3 L1.38 175.89 C1.38 176.26 1.07 176.57 0.69 176.57 C0.31 176.57 0 176.26 0 175.89 L0 166.3 C0 165.93
						 0.31 165.62 0.69 165.62 C1.07 165.62 1.38 165.93 1.38 166.3 ZM1.38 182.73 L1.38 192.29 C1.38 192.69 1.07
						 192.98 0.69 192.98 C0.31 192.98 0 192.69 0 192.29 L0 182.73 C0 182.34 0.31 182.05 0.69 182.05 C1.07 182.05
						 1.38 182.34 1.38 182.73 ZM1.38 199.14 L1.38 208.72 C1.38 209.09 1.07 209.41 0.69 209.41 C0.31 209.41 0 209.09
						 0 208.72 L0 199.14 C0 198.77 0.31 198.45 0.69 198.45 C1.07 198.45 1.38 198.77 1.38 199.14 ZM1.38 215.57
						 L1.38 225.15 C1.38 225.52 1.07 225.83 0.69 225.83 C0.31 225.83 0 225.52 0 225.15 L0 215.57 C0 215.19 0.31
						 214.88 0.69 214.88 C1.07 214.88 1.38 215.19 1.38 215.57 ZM1.38 231.99 L1.38 241.58 C1.38 241.95 1.07 242.26
						 0.69 242.26 C0.31 242.26 0 241.95 0 241.58 L0 231.99 C0 231.62 0.31 231.31 0.69 231.31 C1.07 231.31 1.38
						 231.62 1.38 231.99 Z" class="st6"/>
		</g>
		<g id="shape37-18" transform="translate(328.934,-51.0306)">
			<title>Sheet.37</title>
			<path d="M1.38 119.63 L1.38 129.22 C1.38 129.59 1.07 129.9 0.69 129.9 C0.31 129.9 0 129.59 0 129.22 L0 119.63 C-0 119.26
						 0.31 118.95 0.69 118.95 C1.07 118.95 1.38 119.26 1.38 119.63 ZM1.38 136.06 L1.38 145.64 C1.38 146.02 1.07
						 146.33 0.69 146.33 C0.31 146.33 0 146.02 0 145.64 L0 136.06 C-0 135.69 0.31 135.38 0.69 135.38 C1.07 135.38
						 1.38 135.69 1.38 136.06 ZM1.38 152.49 L1.38 162.07 C1.38 162.45 1.07 162.76 0.69 162.76 C0.31 162.76 0 162.45
						 0 162.07 L0 152.49 C-0 152.12 0.31 151.8 0.69 151.8 C1.07 151.8 1.38 152.12 1.38 152.49 ZM1.38 168.92 L1.38
						 178.48 C1.38 178.87 1.07 179.16 0.69 179.16 C0.31 179.16 0 178.87 0 178.48 L0 168.92 C-0 168.52 0.31 168.23
						 0.69 168.23 C1.07 168.23 1.38 168.52 1.38 168.92 ZM1.38 185.32 L1.38 194.91 C1.38 195.28 1.07 195.59 0.69
						 195.59 C0.31 195.59 0 195.28 0 194.91 L0 185.32 C-0 184.95 0.31 184.64 0.69 184.64 C1.07 184.64 1.38 184.95
						 1.38 185.32 ZM1.38 201.75 L1.38 211.34 C1.38 211.71 1.07 212.02 0.69 212.02 C0.31 212.02 0 211.71 0 211.34
						 L0 201.75 C-0 201.38 0.31 201.07 0.69 201.07 C1.07 201.07 1.38 201.38 1.38 201.75 ZM1.38 218.18 L1.38 227.76
						 C1.38 228.14 1.07 228.45 0.69 228.45 C0.31 228.45 0 228.14 0 227.76 L0 218.18 C-0 217.81 0.31 217.5 0.69
						 217.5 C1.07 217.5 1.38 217.81 1.38 218.18 ZM1.38 234.61 L1.38 241.58 C1.38 241.95 1.07 242.26 0.69 242.26
						 C0.31 242.26 0 241.95 0 241.58 L0 234.61 C-0 234.21 0.31 233.92 0.69 233.92 C1.07 233.92 1.38 234.21 1.38
						 234.61 Z" class="st4"/>
		</g>
		<g id="shape38-20" transform="translate(309.187,-173.906)">
			<title>Sheet.38</title>
			<desc>计数值</desc>
			<path d="M70.23 223.94 L0 223.94 L0 242.26 L70.23 242.26 L70.23 223.94" class="st7"/>
			<text x="12.22" y="237.74" class="st8">计数值</text>		</g>
		<g id="shape39-24" transform="translate(36,-163.519)">
			<title>Sheet.39</title>
			<desc>RSTVAL</desc>
			<path d="M68.46 223.94 L0 223.94 L0 242.26 L68.46 242.26 L68.46 223.94" class="st7"/>
			<text x="21.77" y="236.7" class="st9">RSTVAL</text>		</g>
		<g id="shape40-28" transform="translate(46.3465,-123.03)">
			<title>Sheet.40</title>
			<desc>INTVAL</desc>
			<path d="M58.4 223.94 L0 223.94 L0 242.26 L58.4 242.26 L58.4 223.94" class="st7"/>
			<text x="16.39" y="236.7" class="st9">INTVAL</text>		</g>
		<g id="shape41-32" transform="translate(212.617,-27.313)">
			<title>Sheet.41</title>
			<desc>发生WDT中断</desc>
			<path d="M80.38 217.18 L0 217.18 L0 242.26 L80.38 242.26 L80.38 217.18" class="st7"/>
			<text x="2.53" y="233.37" class="st10">发生<tspan class="st11">WDT</tspan>中断</text>		</g>
		<g id="shape47-37" transform="translate(112.946,-53.8723)">
			<title>Sheet.47</title>
			<path d="M140.33 162.47 C137.77 158.06 130.49 157.49 124.09 161.15 L77.61 187.75 C71.19 191.43 63.9 190.83 61.34 186.45
						 C63.9 190.83 60.79 197.37 54.36 201.06 L7.89 227.65 C1.46 231.34 -1.68 237.88 0.9 242.26" class="st12"/>
		</g>
		<g id="shape52-40" transform="translate(103.039,-106.288)">
			<title>Sheet.52</title>
			<path d="M66.21 242.26 L5.08 242.26" class="st13"/>
		</g>
		<g id="shape54-46" transform="translate(18.375,-18.375)">
			<title>Sheet.54</title>
			<rect x="0" y="36.75" width="396.85" height="205.512" class="st15"/>
		</g>
		<g id="shape55-48" transform="translate(18.375,-77.5276)">
			<title>Sheet.55</title>
			<desc>该区域内喂狗将发生WDT复位</desc>
			<rect x="0" y="191.238" width="88.3515" height="51.0236" class="st16"/>
			<text x="8.18" y="205.76" class="st10">该区域内喂狗<tspan x="8.22" dy="1.211em" class="st17">将发生</tspan><tspan class="st18">WDT</tspan>复<tspan
						x="38.18" dy="1.216em" class="st17">位</tspan></text>		</g>
		<g id="shape56-54" transform="translate(294.378,-28.3465)">
			<title>Sheet.56</title>
			<desc>发生WDT复位</desc>
			<path d="M88.35 217.18 L0 217.18 L0 242.26 L88.35 242.26 L88.35 217.18" class="st7"/>
			<text x="6.51" y="233.37" class="st10">发生<tspan class="st11">WDT</tspan>复位</text>		</g>
	</g>
</svg>
