<?xml version="1.0" encoding="UTF-8" standalone="no"?>
<!DOCTYPE svg PUBLIC "-//W3C//DTD SVG 1.1//EN" "http://www.w3.org/Graphics/SVG/1.1/DTD/svg11.dtd">
<!-- Generated by Microsoft Visio, SVG Export HALL对应关系图.svg 页-1 -->
<svg xmlns="http://www.w3.org/2000/svg" xmlns:xlink="http://www.w3.org/1999/xlink" xmlns:ev="http://www.w3.org/2001/xml-events"
		width="2.48017in" height="2.18883in" viewBox="0 0 178.572 157.596" xml:space="preserve" color-interpolation-filters="sRGB"
		class="st14">
	<style type="text/css">
	<![CDATA[
		.st1 {stroke:#404040;stroke-linecap:round;stroke-linejoin:round;stroke-width:0.5}
		.st2 {marker-start:url(#mrkr5-24);stroke:#404040;stroke-linecap:round;stroke-linejoin:round;stroke-width:0.5}
		.st3 {fill:#404040;fill-opacity:1;stroke:#404040;stroke-opacity:1;stroke-width:0.21739130434783}
		.st4 {fill:none;stroke:none;stroke-linecap:round;stroke-linejoin:round;stroke-width:0.5}
		.st5 {fill:#000000;font-family:Microsoft Sans Serif;font-size:0.666664em}
		.st6 {marker-end:url(#mrkr5-34);stroke:#404040;stroke-linecap:round;stroke-linejoin:round;stroke-width:0.5}
		.st7 {fill:#404040;fill-opacity:1;stroke:#404040;stroke-opacity:1;stroke-width:0.16556291390728}
		.st8 {visibility:visible}
		.st9 {stroke:#cdcdcd;stroke-linecap:round;stroke-linejoin:round;stroke-opacity:0.5;stroke-width:0.25}
		.st10 {stroke:#404040;stroke-linecap:round;stroke-linejoin:round;stroke-width:0.25}
		.st11 {fill:#000000;font-family:Microsoft Sans Serif;font-size:0.75em}
		.st12 {fill:none;stroke:#cdcdcd;stroke-linecap:round;stroke-linejoin:round;stroke-opacity:0.5}
		.st13 {fill:none;stroke:#404040;stroke-linecap:round;stroke-linejoin:round;stroke-width:0.25}
		.st14 {fill:none;fill-rule:evenodd;font-size:12px;overflow:visible;stroke-linecap:square;stroke-miterlimit:3}
	]]>
	</style>

	<defs id="Patterns_And_Gradients">
		<linearGradient id="grad0-4" x1="0" y1="0" x2="1" y2="0" gradientTransform="rotate(270 0.5 0.5)">
			<stop offset="0" stop-color="#f0f0f0" stop-opacity="1"/>
			<stop offset="1" stop-color="#ffffff" stop-opacity="1"/>
		</linearGradient>
	</defs>
	<defs id="Markers">
		<g id="lend5">
			<path d="M 2 1 L 0 0 L 1.98117 -0.993387 C 1.67173 -0.364515 1.67301 0.372641 1.98465 1.00043 " style="stroke:none"/>
		</g>
		<marker id="mrkr5-24" class="st3" refX="7.33" orient="auto" markerUnits="strokeWidth" overflow="visible">
			<use xlink:href="#lend5" transform="scale(4.6) "/>
		</marker>
		<marker id="mrkr5-34" class="st7" refX="-10.57" orient="auto" markerUnits="strokeWidth" overflow="visible">
			<use xlink:href="#lend5" transform="scale(-6.04,-6.04) "/>
		</marker>
	</defs>
	<g>
		<title>页-1</title>
		<g id="shape289-1" transform="translate(246.303,3.85477) rotate(90)">
			<title>Sheet.289</title>
			<path d="M0 157.6 L28.63 157.6" class="st1"/>
		</g>
		<g id="shape290-6" transform="translate(176.126,-127.273) rotate(33.6901)">
			<title>Sheet.290</title>
			<path d="M0 157.6 L12.78 157.6" class="st1"/>
		</g>
		<g id="shape291-10" transform="translate(256.933,10.9414) rotate(90)">
			<title>Sheet.291</title>
			<path d="M0 157.6 L14.46 157.6" class="st1"/>
		</g>
		<g id="shape292-14" transform="translate(1.28941,-98.6427) rotate(-33.6901)">
			<title>Sheet.292</title>
			<path d="M0 157.6 L12.78 157.6" class="st1"/>
		</g>
		<g id="shape293-18" transform="translate(251.903,28.7517) rotate(90)">
			<title>Sheet.293</title>
			<path d="M3.66 157.6 L4.02 157.6 L10.82 157.6" class="st2"/>
		</g>
		<g id="shape304-25" transform="translate(58.9439,-109.663)">
			<title>Sheet.304</title>
			<desc>ACMPCR2.HALL0</desc>
			<rect x="0" y="148.623" width="78.6614" height="8.97264" class="st4"/>
			<text x="6.43" y="155.51" class="st5">ACMPCR2.HALL0</text>		</g>
		<g id="shape305-28" transform="translate(99.3376,-138.478)">
			<title>Sheet.305</title>
			<path d="M0 157.6 L20.23 157.6" class="st6"/>
		</g>
		<g id="shape307-35" transform="translate(70.9911,-145.565)">
			<title>Sheet.307</title>
			<g id="shadow307-36" transform="matrix(1,0,0,1,1.44,1.44)" class="st8">
				<path d="M0 157.6 L17.72 157.6" class="st9"/>
			</g>
			<path d="M0 157.6 L17.72 157.6" class="st10"/>
		</g>
		<g id="shape308-42" transform="translate(70.9911,-134.226)">
			<title>Sheet.308</title>
			<g id="shadow308-43" transform="matrix(1,0,0,1,1.44,1.44)" class="st8">
				<path d="M0 157.6 L17.72 157.6" class="st9"/>
			</g>
			<path d="M0 157.6 L17.72 157.6" class="st10"/>
		</g>
		<g id="shape309-49" transform="translate(120.597,-131.392)">
			<title>Sheet.309</title>
			<desc>HALL0</desc>
			<rect x="0" y="143.422" width="35.4331" height="14.1732" class="st4"/>
			<text x="3.96" y="153.21" class="st11">HALL0</text>		</g>
		<g id="shape310-52" transform="translate(9.69192,-141.079)">
			<title>Sheet.310</title>
			<desc>HALL0(IO)</desc>
			<rect x="0" y="148.623" width="60.9449" height="8.97264" class="st4"/>
			<text x="18.71" y="155.51" class="st5">HALL0(IO)</text>		</g>
		<g id="shape312-55" transform="translate(10.0463,-129.506)">
			<title>Sheet.312</title>
			<desc>CMP0OUT</desc>
			<rect x="0" y="148.623" width="60.9449" height="8.97264" class="st4"/>
			<text x="17.83" y="155.51" class="st5">CMP0OUT</text>		</g>
		<g id="shape313-58" transform="translate(245.772,55.1886) rotate(90)">
			<title>Sheet.313</title>
			<path d="M0 157.6 L28.63 157.6" class="st1"/>
		</g>
		<g id="shape314-62" transform="translate(175.594,-75.9388) rotate(33.6901)">
			<title>Sheet.314</title>
			<path d="M0 157.6 L12.78 157.6" class="st1"/>
		</g>
		<g id="shape315-66" transform="translate(256.402,62.2752) rotate(90)">
			<title>Sheet.315</title>
			<path d="M0 157.6 L14.46 157.6" class="st1"/>
		</g>
		<g id="shape316-70" transform="translate(0.757918,-47.3089) rotate(-33.6901)">
			<title>Sheet.316</title>
			<path d="M0 157.6 L12.78 157.6" class="st1"/>
		</g>
		<g id="shape317-74" transform="translate(251.371,80.0855) rotate(90)">
			<title>Sheet.317</title>
			<path d="M3.66 157.6 L4.02 157.6 L10.82 157.6" class="st2"/>
		</g>
		<g id="shape318-80" transform="translate(58.4124,-58.3294)">
			<title>Sheet.318</title>
			<desc>ACMPCR2.HALL1</desc>
			<rect x="0" y="148.623" width="78.6614" height="8.97264" class="st4"/>
			<text x="6.43" y="155.51" class="st5">ACMPCR2.HALL1</text>		</g>
		<g id="shape319-83" transform="translate(98.8061,-87.1446)">
			<title>Sheet.319</title>
			<path d="M0 157.6 L20.23 157.6" class="st6"/>
		</g>
		<g id="shape320-89" transform="translate(70.4596,-94.2312)">
			<title>Sheet.320</title>
			<g id="shadow320-90" transform="matrix(1,0,0,1,1.44,1.44)" class="st8">
				<path d="M0 157.6 L17.72 157.6" class="st9"/>
			</g>
			<path d="M0 157.6 L17.72 157.6" class="st10"/>
		</g>
		<g id="shape321-96" transform="translate(70.4596,-82.8926)">
			<title>Sheet.321</title>
			<g id="shadow321-97" transform="matrix(1,0,0,1,1.44,1.44)" class="st8">
				<path d="M0 157.6 L17.72 157.6" class="st9"/>
			</g>
			<path d="M0 157.6 L17.72 157.6" class="st10"/>
		</g>
		<g id="shape322-103" transform="translate(120.066,-80.058)">
			<title>Sheet.322</title>
			<desc>HALL1</desc>
			<rect x="0" y="143.422" width="35.4331" height="14.1732" class="st4"/>
			<text x="3.96" y="153.21" class="st11">HALL1</text>		</g>
		<g id="shape323-106" transform="translate(9.16043,-89.7449)">
			<title>Sheet.323</title>
			<desc>HALL1(IO)</desc>
			<rect x="0" y="148.623" width="60.9449" height="8.97264" class="st4"/>
			<text x="18.71" y="155.51" class="st5">HALL1(IO)</text>		</g>
		<g id="shape324-109" transform="translate(9.51476,-78.1719)">
			<title>Sheet.324</title>
			<desc>CMP1OUT</desc>
			<rect x="0" y="148.623" width="60.9449" height="8.97264" class="st4"/>
			<text x="17.83" y="155.51" class="st5">CMP1OUT</text>		</g>
		<g id="shape325-112" transform="translate(245.772,102.739) rotate(90)">
			<title>Sheet.325</title>
			<path d="M0 157.6 L28.63 157.6" class="st1"/>
		</g>
		<g id="shape326-116" transform="translate(175.594,-28.3882) rotate(33.6901)">
			<title>Sheet.326</title>
			<path d="M0 157.6 L12.78 157.6" class="st1"/>
		</g>
		<g id="shape327-120" transform="translate(256.402,109.826) rotate(90)">
			<title>Sheet.327</title>
			<path d="M0 157.6 L14.46 157.6" class="st1"/>
		</g>
		<g id="shape328-124" transform="translate(0.757918,0.241681) rotate(-33.6901)">
			<title>Sheet.328</title>
			<path d="M0 157.6 L12.78 157.6" class="st1"/>
		</g>
		<g id="shape329-128" transform="translate(251.371,127.636) rotate(90)">
			<title>Sheet.329</title>
			<path d="M3.66 157.6 L4.02 157.6 L10.82 157.6" class="st2"/>
		</g>
		<g id="shape330-134" transform="translate(58.4124,-10.7789)">
			<title>Sheet.330</title>
			<desc>ACMPCR2.HALL2</desc>
			<rect x="0" y="148.623" width="78.6614" height="8.97264" class="st4"/>
			<text x="6.43" y="155.51" class="st5">ACMPCR2.HALL2</text>		</g>
		<g id="shape331-137" transform="translate(98.8061,-39.594)">
			<title>Sheet.331</title>
			<path d="M0 157.6 L20.23 157.6" class="st6"/>
		</g>
		<g id="shape332-143" transform="translate(70.4596,-46.6806)">
			<title>Sheet.332</title>
			<g id="shadow332-144" transform="matrix(1,0,0,1,1.44,1.44)" class="st8">
				<path d="M0 157.6 L17.72 157.6" class="st9"/>
			</g>
			<path d="M0 157.6 L17.72 157.6" class="st10"/>
		</g>
		<g id="shape333-150" transform="translate(70.4596,-35.342)">
			<title>Sheet.333</title>
			<g id="shadow333-151" transform="matrix(1,0,0,1,1.44,1.44)" class="st8">
				<path d="M0 157.6 L17.72 157.6" class="st9"/>
			</g>
			<path d="M0 157.6 L17.72 157.6" class="st10"/>
		</g>
		<g id="shape334-157" transform="translate(120.066,-32.5074)">
			<title>Sheet.334</title>
			<desc>HALL2</desc>
			<rect x="0" y="143.422" width="35.4331" height="14.1732" class="st4"/>
			<text x="3.96" y="153.21" class="st11">HALL2</text>		</g>
		<g id="shape335-160" transform="translate(9.16043,-42.1943)">
			<title>Sheet.335</title>
			<desc>HALL2(IO)</desc>
			<rect x="0" y="148.623" width="60.9449" height="8.97264" class="st4"/>
			<text x="18.71" y="155.51" class="st5">HALL2(IO)</text>		</g>
		<g id="shape336-163" transform="translate(9.51476,-30.6214)">
			<title>Sheet.336</title>
			<desc>CMP2OUT</desc>
			<rect x="0" y="148.623" width="60.9449" height="8.97264" class="st4"/>
			<text x="17.83" y="155.51" class="st5">CMP2OUT</text>		</g>
		<g id="shape337-166" transform="translate(0.125,-1.56501)">
			<title>Sheet.337</title>
			<g id="shadow337-167" transform="matrix(1,0,0,1,1.44,1.44)" class="st8">
				<rect x="0" y="1.69001" width="176.882" height="155.906" class="st12"/>
			</g>
			<rect x="0" y="1.69001" width="176.882" height="155.906" class="st13"/>
		</g>
	</g>
</svg>
