<?xml version="1.0" encoding="UTF-8" standalone="no"?>
<!DOCTYPE svg PUBLIC "-//W3C//DTD SVG 1.1//EN" "http://www.w3.org/Graphics/SVG/1.1/DTD/svg11.dtd">
<!-- Generated by Microsoft Visio, SVG Export HALL记录值.svg 页-1 -->
<svg xmlns="http://www.w3.org/2000/svg" xmlns:xlink="http://www.w3.org/1999/xlink" xmlns:ev="http://www.w3.org/2001/xml-events"
		width="5.68262in" height="2.3906in" viewBox="0 0 409.149 172.123" xml:space="preserve" color-interpolation-filters="sRGB"
		class="st7">
	<style type="text/css">
	<![CDATA[
		.st1 {stroke:#000000;stroke-linecap:round;stroke-linejoin:round;stroke-width:0.24}
		.st2 {fill:none;stroke:none;stroke-linecap:round;stroke-linejoin:round;stroke-width:0.72}
		.st3 {fill:#000000;font-family:Microsoft Sans Serif;font-size:0.666664em}
		.st4 {stroke:#ff0000;stroke-dasharray:3.6,2.16;stroke-linecap:round;stroke-linejoin:round;stroke-width:0.24}
		.st5 {font-family:微软雅黑;font-size:1em}
		.st6 {font-size:1em}
		.st7 {fill:none;fill-rule:evenodd;font-size:12px;overflow:visible;stroke-linecap:square;stroke-miterlimit:3}
	]]>
	</style>

	<g>
		<title>页-1</title>
		<g id="shape1-1" transform="translate(255.048,78.9014) rotate(90)">
			<title>Sheet.1</title>
			<path d="M0 172.12 L42.52 172.12" class="st1"/>
		</g>
		<g id="shape6-4" transform="translate(204.634,-42.8081) rotate(45)">
			<title>Sheet.6</title>
			<path d="M0 172.12 L60.13 172.12" class="st1"/>
		</g>
		<g id="shape2-7" transform="translate(297.568,78.9014) rotate(90)">
			<title>Sheet.2</title>
			<path d="M0 172.12 L42.52 172.12" class="st1"/>
		</g>
		<g id="shape3-10" transform="translate(247.154,-42.8081) rotate(45)">
			<title>Sheet.3</title>
			<path d="M0 172.12 L60.13 172.12" class="st1"/>
		</g>
		<g id="shape4-13" transform="translate(340.087,78.9014) rotate(90)">
			<title>Sheet.4</title>
			<path d="M0 172.12 L42.52 172.12" class="st1"/>
		</g>
		<g id="shape5-16" transform="translate(289.674,-42.8081) rotate(45)">
			<title>Sheet.5</title>
			<path d="M0 172.12 L60.13 172.12" class="st1"/>
		</g>
		<g id="shape7-19" transform="translate(382.607,78.9014) rotate(90)">
			<title>Sheet.7</title>
			<path d="M0 172.12 L42.52 172.12" class="st1"/>
		</g>
		<g id="shape8-22" transform="translate(332.193,-42.8081) rotate(45)">
			<title>Sheet.8</title>
			<path d="M0 172.12 L60.13 172.12" class="st1"/>
		</g>
		<g id="shape9-25" transform="translate(425.127,78.9014) rotate(90)">
			<title>Sheet.9</title>
			<path d="M0 172.12 L42.52 172.12" class="st1"/>
		</g>
		<g id="shape10-28" transform="translate(374.713,-42.8081) rotate(45)">
			<title>Sheet.10</title>
			<path d="M0 172.12 L60.13 172.12" class="st1"/>
		</g>
		<g id="shape11-31" transform="translate(467.646,78.9014) rotate(90)">
			<title>Sheet.11</title>
			<path d="M0 172.12 L42.52 172.12" class="st1"/>
		</g>
		<g id="shape12-34" transform="translate(417.233,-42.8081) rotate(45)">
			<title>Sheet.12</title>
			<path d="M0 172.12 L60.13 172.12" class="st1"/>
		</g>
		<g id="shape13-37" transform="translate(510.166,78.9014) rotate(90)">
			<title>Sheet.13</title>
			<path d="M0 172.12 L42.52 172.12" class="st1"/>
		</g>
		<g id="shape14-40" transform="translate(459.752,-42.8081) rotate(45)">
			<title>Sheet.14</title>
			<path d="M0 172.12 L60.13 172.12" class="st1"/>
		</g>
		<g id="shape15-43" transform="translate(552.686,78.9014) rotate(90)">
			<title>Sheet.15</title>
			<path d="M0 172.12 L42.52 172.12" class="st1"/>
		</g>
		<g id="shape16-46" transform="translate(502.272,-42.8081) rotate(45)">
			<title>Sheet.16</title>
			<path d="M0 172.12 L40.09 172.12" class="st1"/>
		</g>
		<g id="shape17-49" transform="translate(0.72,-57.7888)">
			<title>Sheet.17</title>
			<desc>CNT(counter)</desc>
			<rect x="0" y="149.446" width="56.6929" height="22.6772" class="st2"/>
			<text x="4.12" y="163.18" class="st3">CNT(counter)</text>		</g>
		<g id="shape18-52" transform="translate(54.5783,-149.915)">
			<title>Sheet.18</title>
			<path d="M0 172.12 L70.87 172.12" class="st1"/>
		</g>
		<g id="shape19-55" transform="translate(54.5783,-128.655)">
			<title>Sheet.19</title>
			<path d="M0 172.12 L113.39 172.12" class="st1"/>
		</g>
		<g id="shape20-58" transform="translate(54.5783,-107.395)">
			<title>Sheet.20</title>
			<path d="M0 172.12 L155.91 172.12" class="st1"/>
		</g>
		<g id="shape21-61" transform="translate(297.568,8.03528) rotate(90)">
			<title>Sheet.21</title>
			<path d="M0 172.12 L14.17 172.12" class="st1"/>
		</g>
		<g id="shape22-64" transform="translate(125.444,-164.088)">
			<title>Sheet.22</title>
			<path d="M0 172.12 L127.56 172.12" class="st1"/>
		</g>
		<g id="shape23-67" transform="translate(340.087,29.2951) rotate(90)">
			<title>Sheet.23</title>
			<path d="M0 172.12 L14.17 172.12" class="st1"/>
		</g>
		<g id="shape24-70" transform="translate(167.964,-142.828)">
			<title>Sheet.24</title>
			<path d="M0 172.12 L127.56 172.12" class="st1"/>
		</g>
		<g id="shape25-73" transform="translate(382.607,50.555) rotate(90)">
			<title>Sheet.25</title>
			<path d="M0 172.12 L14.17 172.12" class="st1"/>
		</g>
		<g id="shape26-76" transform="translate(210.484,-121.568)">
			<title>Sheet.26</title>
			<path d="M0 172.12 L127.56 172.12" class="st1"/>
		</g>
		<g id="shape27-79" transform="translate(425.127,8.03528) rotate(90)">
			<title>Sheet.27</title>
			<path d="M0 172.12 L14.17 172.12" class="st1"/>
		</g>
		<g id="shape28-82" transform="translate(253.003,-149.915)">
			<title>Sheet.28</title>
			<path d="M0 172.12 L127.56 172.12" class="st1"/>
		</g>
		<g id="shape29-85" transform="translate(467.646,29.2951) rotate(90)">
			<title>Sheet.29</title>
			<path d="M0 172.12 L14.17 172.12" class="st1"/>
		</g>
		<g id="shape30-88" transform="translate(510.166,50.555) rotate(90)">
			<title>Sheet.30</title>
			<path d="M0 172.12 L14.17 172.12" class="st1"/>
		</g>
		<g id="shape31-91" transform="translate(295.523,-128.655)">
			<title>Sheet.31</title>
			<path d="M0 172.12 L113.39 172.12" class="st1"/>
		</g>
		<g id="shape32-94" transform="translate(338.043,-107.395)">
			<title>Sheet.32</title>
			<path d="M0 172.12 L70.87 172.12" class="st1"/>
		</g>
		<g id="shape33-97" transform="translate(552.686,8.03528) rotate(90)">
			<title>Sheet.33</title>
			<path d="M0 172.12 L14.17 172.12" class="st1"/>
		</g>
		<g id="shape34-100" transform="translate(380.563,-164.088)">
			<title>Sheet.34</title>
			<path d="M0 172.12 L28.35 172.12" class="st1"/>
		</g>
		<g id="shape35-103" transform="translate(23.3972,-145.663)">
			<title>Sheet.35</title>
			<desc>hall0</desc>
			<rect x="0" y="149.446" width="35.4331" height="22.6772" class="st2"/>
			<text x="9.22" y="163.18" class="st3">hall0</text>		</g>
		<g id="shape36-106" transform="translate(24.8145,-122.986)">
			<title>Sheet.36</title>
			<desc>hall1</desc>
			<rect x="0" y="149.446" width="32.5984" height="22.6772" class="st2"/>
			<text x="7.8" y="163.18" class="st3">hall1</text>		</g>
		<g id="shape37-109" transform="translate(22.6885,-101.726)">
			<title>Sheet.37</title>
			<desc>hall2</desc>
			<rect x="0" y="149.446" width="35.4331" height="22.6772" class="st2"/>
			<text x="9.22" y="163.18" class="st3">hall2</text>		</g>
		<g id="shape38-112" transform="translate(54.5783,-36.5289)">
			<title>Sheet.38</title>
			<path d="M0 172.12 L70.87 172.12" class="st1"/>
		</g>
		<g id="shape39-115" transform="translate(176.288,-28.6349) rotate(45)">
			<title>Sheet.39</title>
			<path d="M0 172.12 L40.09 172.12" class="st1"/>
		</g>
		<g id="shape40-118" transform="translate(54.5783,-22.3557)">
			<title>Sheet.40</title>
			<path d="M0 172.12 L70.87 172.12" class="st1"/>
		</g>
		<g id="shape41-121" transform="translate(297.568,135.594) rotate(90)">
			<title>Sheet.41</title>
			<path d="M0 172.12 L14.17 172.12" class="st1"/>
		</g>
		<g id="shape42-124" transform="translate(125.444,-36.5289)">
			<title>Sheet.42</title>
			<path d="M0 172.12 L42.52 172.12" class="st1"/>
		</g>
		<g id="shape43-127" transform="translate(125.444,-22.3557)">
			<title>Sheet.43</title>
			<path d="M0 172.12 L42.52 172.12" class="st1"/>
		</g>
		<g id="shape44-130" transform="translate(340.087,135.594) rotate(90)">
			<title>Sheet.44</title>
			<path d="M0 172.12 L14.17 172.12" class="st1"/>
		</g>
		<g id="shape45-133" transform="translate(167.964,-36.5289)">
			<title>Sheet.45</title>
			<path d="M0 172.12 L42.52 172.12" class="st1"/>
		</g>
		<g id="shape46-136" transform="translate(167.964,-22.3557)">
			<title>Sheet.46</title>
			<path d="M0 172.12 L42.52 172.12" class="st1"/>
		</g>
		<g id="shape47-139" transform="translate(382.607,135.594) rotate(90)">
			<title>Sheet.47</title>
			<path d="M0 172.12 L14.17 172.12" class="st1"/>
		</g>
		<g id="shape48-142" transform="translate(210.484,-36.5289)">
			<title>Sheet.48</title>
			<path d="M0 172.12 L42.52 172.12" class="st1"/>
		</g>
		<g id="shape49-145" transform="translate(210.484,-22.3557)">
			<title>Sheet.49</title>
			<path d="M0 172.12 L42.52 172.12" class="st1"/>
		</g>
		<g id="shape50-148" transform="translate(425.127,135.594) rotate(90)">
			<title>Sheet.50</title>
			<path d="M0 172.12 L14.17 172.12" class="st1"/>
		</g>
		<g id="shape51-151" transform="translate(253.003,-36.5289)">
			<title>Sheet.51</title>
			<path d="M0 172.12 L42.52 172.12" class="st1"/>
		</g>
		<g id="shape52-154" transform="translate(253.003,-22.3557)">
			<title>Sheet.52</title>
			<path d="M0 172.12 L42.52 172.12" class="st1"/>
		</g>
		<g id="shape53-157" transform="translate(467.646,135.594) rotate(90)">
			<title>Sheet.53</title>
			<path d="M0 172.12 L14.17 172.12" class="st1"/>
		</g>
		<g id="shape54-160" transform="translate(295.523,-36.5289)">
			<title>Sheet.54</title>
			<path d="M0 172.12 L42.52 172.12" class="st1"/>
		</g>
		<g id="shape55-163" transform="translate(295.523,-22.3557)">
			<title>Sheet.55</title>
			<path d="M0 172.12 L42.52 172.12" class="st1"/>
		</g>
		<g id="shape56-166" transform="translate(510.166,135.594) rotate(90)">
			<title>Sheet.56</title>
			<path d="M0 172.12 L14.17 172.12" class="st1"/>
		</g>
		<g id="shape57-169" transform="translate(338.043,-36.5289)">
			<title>Sheet.57</title>
			<path d="M0 172.12 L42.52 172.12" class="st1"/>
		</g>
		<g id="shape58-172" transform="translate(338.043,-22.3557)">
			<title>Sheet.58</title>
			<path d="M0 172.12 L42.52 172.12" class="st1"/>
		</g>
		<g id="shape59-175" transform="translate(552.686,135.594) rotate(90)">
			<title>Sheet.59</title>
			<path d="M0 172.12 L14.17 172.12" class="st1"/>
		</g>
		<g id="shape60-178" transform="translate(380.563,-36.5289)">
			<title>Sheet.60</title>
			<path d="M0 172.12 L28.35 172.12" class="st1"/>
		</g>
		<g id="shape61-181" transform="translate(380.563,-22.3557)">
			<title>Sheet.61</title>
			<path d="M0 172.12 L28.35 172.12" class="st1"/>
		</g>
		<g id="shape62-184" transform="translate(61.6649,-23.773)">
			<title>Sheet.62</title>
			<desc>0000</desc>
			<rect x="0" y="160.785" width="56.6929" height="11.3386" class="st2"/>
			<text x="19.45" y="168.85" class="st3">0000</text>		</g>
		<g id="shape63-187" transform="translate(297.568,0.24) rotate(90)">
			<title>Sheet.63</title>
			<path d="M0 172.12 L155.2 172.12" class="st4"/>
		</g>
		<g id="shape64-190" transform="translate(340.087,0.948661) rotate(90)">
			<title>Sheet.64</title>
			<path d="M0 172.12 L155.2 172.12" class="st4"/>
		</g>
		<g id="shape65-193" transform="translate(382.607,0.948661) rotate(90)">
			<title>Sheet.65</title>
			<path d="M0 172.12 L155.2 172.12" class="st4"/>
		</g>
		<g id="shape66-196" transform="translate(425.127,0.948661) rotate(90)">
			<title>Sheet.66</title>
			<path d="M0 172.12 L155.2 172.12" class="st4"/>
		</g>
		<g id="shape67-199" transform="translate(467.646,0.948661) rotate(90)">
			<title>Sheet.67</title>
			<path d="M0 172.12 L155.2 172.12" class="st4"/>
		</g>
		<g id="shape68-202" transform="translate(510.166,0.948661) rotate(90)">
			<title>Sheet.68</title>
			<path d="M0 172.12 L155.2 172.12" class="st4"/>
		</g>
		<g id="shape69-205" transform="translate(552.686,0.948661) rotate(90)">
			<title>Sheet.69</title>
			<path d="M0 172.12 L155.2 172.12" class="st4"/>
		</g>
		<g id="shape70-208" transform="translate(122.61,-3.93049)">
			<title>Sheet.70</title>
			<desc>CNT加载值-cnt0</desc>
			<rect x="0" y="160.785" width="49.6063" height="11.3386" class="st2"/>
			<text x="4.58" y="164.09" class="st3">CNT<tspan class="st5">加载值</tspan><tspan x="15.91" dy="1.204em" class="st6">-</tspan>cnt0</text>		</g>
		<g id="shape71-213" transform="translate(108.437,-93.2218)">
			<title>Sheet.71</title>
			<desc>cnt0</desc>
			<rect x="0" y="157.95" width="31.1811" height="14.1732" class="st2"/>
			<text x="8.03" y="167.44" class="st3">cnt0</text>		</g>
		<g id="shape72-216" transform="translate(150.956,-93.2218)">
			<title>Sheet.72</title>
			<desc>cnt1</desc>
			<rect x="0" y="157.95" width="31.1811" height="14.1732" class="st2"/>
			<text x="8.03" y="167.44" class="st3">cnt1</text>		</g>
		<g id="shape73-219" transform="translate(193.476,-93.2218)">
			<title>Sheet.73</title>
			<desc>cnt2</desc>
			<rect x="0" y="157.95" width="31.1811" height="14.1732" class="st2"/>
			<text x="8.03" y="167.44" class="st3">cnt2</text>		</g>
		<g id="shape74-222" transform="translate(235.996,-93.2218)">
			<title>Sheet.74</title>
			<desc>cnt3</desc>
			<rect x="0" y="157.95" width="31.1811" height="14.1732" class="st2"/>
			<text x="8.03" y="167.44" class="st3">cnt3</text>		</g>
		<g id="shape75-225" transform="translate(278.515,-93.2218)">
			<title>Sheet.75</title>
			<desc>cnt4</desc>
			<rect x="0" y="157.95" width="31.1811" height="14.1732" class="st2"/>
			<text x="8.03" y="167.44" class="st3">cnt4</text>		</g>
		<g id="shape76-228" transform="translate(321.035,-93.2218)">
			<title>Sheet.76</title>
			<desc>cnt5</desc>
			<rect x="0" y="157.95" width="31.1811" height="14.1732" class="st2"/>
			<text x="8.03" y="167.44" class="st3">cnt5</text>		</g>
		<g id="shape77-231" transform="translate(363.555,-93.2218)">
			<title>Sheet.77</title>
			<desc>cnt6</desc>
			<rect x="0" y="157.95" width="31.1811" height="14.1732" class="st2"/>
			<text x="8.03" y="167.44" class="st3">cnt6</text>		</g>
		<g id="shape78-234" transform="translate(209.775,-3.93049)">
			<title>Sheet.78</title>
			<desc>CNT加载值-cnt2</desc>
			<rect x="0" y="160.785" width="49.6063" height="11.3386" class="st2"/>
			<text x="4.58" y="164.09" class="st3">CNT<tspan class="st5">加载值</tspan><tspan x="15.91" dy="1.204em" class="st6">-</tspan>cnt2</text>		</g>
		<g id="shape79-239" transform="translate(335.208,-3.93049)">
			<title>Sheet.79</title>
			<desc>CNT加载值-cnt5</desc>
			<rect x="0" y="160.785" width="49.6063" height="11.3386" class="st2"/>
			<text x="4.58" y="164.09" class="st3">CNT<tspan class="st5">加载值</tspan><tspan x="15.91" dy="1.204em" class="st6">-</tspan>cnt5</text>		</g>
		<g id="shape80-244" transform="translate(2.13732,-18.1037)">
			<title>Sheet.80</title>
			<desc>HALLTIM</desc>
			<rect x="0" y="149.446" width="56.6929" height="22.6772" class="st2"/>
			<text x="11.45" y="163.18" class="st3">HALLTIM</text>		</g>
	</g>
</svg>
