<?xml version="1.0" encoding="UTF-8" standalone="no"?>
<!DOCTYPE svg PUBLIC "-//W3C//DTD SVG 1.1//EN" "http://www.w3.org/Graphics/SVG/1.1/DTD/svg11.dtd">
<!-- Generated by Microsoft Visio, SVG Export TIMER模块结构图.svg 页-1 -->
<svg xmlns="http://www.w3.org/2000/svg" xmlns:xlink="http://www.w3.org/1999/xlink" xmlns:ev="http://www.w3.org/2001/xml-events"
		width="8.17624in" height="6.10931in" viewBox="0 0 588.689 439.87" xml:space="preserve" color-interpolation-filters="sRGB"
		class="st24">
	<style type="text/css">
	<![CDATA[
		.st1 {fill:url(#grad0-5);stroke:#404040;stroke-linecap:round;stroke-linejoin:round;stroke-width:0.5}
		.st2 {fill:#000000;font-family:Microsoft Sans Serif;font-size:0.833336em}
		.st3 {font-size:1em}
		.st4 {marker-end:url(#mrkr5-18);stroke:#404040;stroke-linecap:round;stroke-linejoin:round;stroke-width:0.5}
		.st5 {fill:#404040;fill-opacity:1;stroke:#404040;stroke-opacity:1;stroke-width:0.16556291390728}
		.st6 {fill:none;stroke:none;stroke-linecap:round;stroke-linejoin:round;stroke-width:0.5}
		.st7 {stroke:#404040;stroke-linecap:round;stroke-linejoin:round;stroke-width:0.5}
		.st8 {fill:#000000;font-family:微软雅黑;font-size:0.75em}
		.st9 {marker-start:url(#mrkr5-76);stroke:#404040;stroke-linecap:round;stroke-linejoin:round;stroke-width:0.5}
		.st10 {fill:#000000;font-family:微软雅黑;font-size:0.833336em}
		.st11 {font-family:Microsoft Sans Serif;font-size:1em}
		.st12 {marker-start:url(#mrkr5-124);stroke:#404040;stroke-linecap:round;stroke-linejoin:round;stroke-width:0.5}
		.st13 {fill:#404040;fill-opacity:1;stroke:#404040;stroke-opacity:1;stroke-width:0.21739130434783}
		.st14 {marker-end:url(#mrkr5-143);stroke:#404040;stroke-linecap:round;stroke-linejoin:round;stroke-width:0.5}
		.st15 {fill:#000000;font-family:Microsoft Sans Serif;font-size:0.666664em}
		.st16 {fill:#000000;font-family:Microsoft Sans Serif;font-size:0.75em}
		.st17 {marker-end:url(#mrkr4-329);stroke:#404040;stroke-linecap:butt;stroke-width:3}
		.st18 {fill:#404040;fill-opacity:1;stroke:#404040;stroke-opacity:1;stroke-width:0.54347826086957}
		.st19 {fill:url(#grad0-5);stroke:#404040;stroke-linecap:round;stroke-linejoin:round;stroke-width:0.25}
		.st20 {stroke:#404040;stroke-linecap:round;stroke-linejoin:round;stroke-width:0.25}
		.st21 {fill:#ffffff;stroke:#404040;stroke-linecap:round;stroke-linejoin:round;stroke-width:0.5}
		.st22 {visibility:visible}
		.st23 {stroke:#cdcdcd;stroke-linecap:round;stroke-linejoin:round;stroke-opacity:0.5;stroke-width:0.5}
		.st24 {fill:none;fill-rule:evenodd;font-size:12px;overflow:visible;stroke-linecap:square;stroke-miterlimit:3}
	]]>
	</style>

	<defs id="Patterns_And_Gradients">
		<linearGradient id="grad0-5" x1="0" y1="0" x2="1" y2="0" gradientTransform="rotate(270 0.5 0.5)">
			<stop offset="0" stop-color="#f0f0f0" stop-opacity="1"/>
			<stop offset="1" stop-color="#ffffff" stop-opacity="1"/>
		</linearGradient>
	</defs>
	<defs id="Markers">
		<g id="lend5">
			<path d="M 2 1 L 0 0 L 1.98117 -0.993387 C 1.67173 -0.364515 1.67301 0.372641 1.98465 1.00043 " style="stroke:none"/>
		</g>
		<marker id="mrkr5-18" class="st5" refX="-10.57" orient="auto" markerUnits="strokeWidth" overflow="visible">
			<use xlink:href="#lend5" transform="scale(-6.04,-6.04) "/>
		</marker>
		<marker id="mrkr5-76" class="st5" refX="9.85" orient="auto" markerUnits="strokeWidth" overflow="visible">
			<use xlink:href="#lend5" transform="scale(6.04) "/>
		</marker>
		<marker id="mrkr5-124" class="st13" refX="7.33" orient="auto" markerUnits="strokeWidth" overflow="visible">
			<use xlink:href="#lend5" transform="scale(4.6) "/>
		</marker>
		<marker id="mrkr5-143" class="st13" refX="-8.05" orient="auto" markerUnits="strokeWidth" overflow="visible">
			<use xlink:href="#lend5" transform="scale(-4.6,-4.6) "/>
		</marker>
		<g id="lend4">
			<path d="M 2 1 L 0 0 L 2 -1 L 2 1 " style="stroke:none"/>
		</g>
		<marker id="mrkr4-329" class="st18" refX="-3.68" orient="auto" markerUnits="strokeWidth" overflow="visible">
			<use xlink:href="#lend4" transform="scale(-1.84,-1.84) "/>
		</marker>
	</defs>
	<g>
		<title>页-1</title>
		<g id="group313-1" transform="translate(0.25,-0.25)">
			<title>Sheet.313</title>
			<g id="shape41-2" transform="translate(219.685,-318.898)">
				<title>矩形</title>
				<desc>24-bit Down Counter</desc>
				<rect x="0" y="404.909" width="99.2126" height="34.9606" class="st1"/>
				<text x="22.96" y="419.39" class="st2">24-bit Down <tspan x="31.82" dy="1.2em" class="st3">Counter</tspan></text>			</g>
			<g id="shape43-8" transform="translate(219.685,-141.732)">
				<title>矩形.43</title>
				<desc>OCR</desc>
				<rect x="0" y="418.61" width="99.2126" height="21.2598" class="st1"/>
				<text x="38.5" y="432.24" class="st2">OCR</text>			</g>
			<g id="shape64-12" transform="translate(369.921,-314.646)">
				<title>动态连接线.64</title>
				<path d="M0 442.7 L0 451.21 L14.56 451.21" class="st4"/>
			</g>
			<g id="shape66-19" transform="translate(356.031,-311.066)">
				<title>Sheet.66</title>
				<desc>IE</desc>
				<rect x="0" y="429.203" width="28.3465" height="10.6667" class="st6"/>
				<text x="9.45" y="437.54" class="st2">IE</text>			</g>
			<g id="shape68-22" transform="translate(315.354,-279.921)">
				<title>动态连接线.68</title>
				<path d="M0 432.78 L68.98 432.78" class="st4"/>
			</g>
			<g id="group73-28" transform="translate(217.606,-329.291)">
				<title>Sheet.73</title>
				<g id="shape71-29" transform="translate(-2.3622,-16.5354)">
					<title>动态连接线.71</title>
					<path d="M4.72 444.59 L9.45 449.32" class="st7"/>
				</g>
				<g id="shape72-33" transform="translate(11.811,-11.811)">
					<title>动态连接线.72</title>
					<path d="M-4.72 444.59 L-9.45 449.32" class="st7"/>
				</g>
			</g>
			<g id="shape80-37" transform="translate(219.685,-403.937)">
				<title>矩形.80</title>
				<desc>LDVAL</desc>
				<rect x="0" y="418.61" width="99.2126" height="21.2598" class="st1"/>
				<text x="33.76" y="432.24" class="st2">LDVAL</text>			</g>
			<g id="shape55-41" transform="translate(369.978,-210.709)">
				<title>动态连接线.55</title>
				<path d="M0 442.23 L0 451.68 L14.5 451.68" class="st4"/>
			</g>
			<g id="shape56-47" transform="translate(421.795,-287.717)">
				<title>动态连接线.56</title>
				<path d="M0 432.78 L61.51 432.78" class="st7"/>
			</g>
			<g id="shape57-51" transform="translate(348.411,-207.318)">
				<title>Sheet.57</title>
				<desc>OCIE</desc>
				<rect x="0" y="429.203" width="36.8504" height="10.6667" class="st6"/>
				<text x="6.2" y="437.54" class="st2">OCIE</text>			</g>
			<g id="shape58-54" transform="translate(310.394,-285.837)">
				<title>Sheet.58</title>
				<desc>IF</desc>
				<rect x="0" y="429.203" width="28.3465" height="10.6667" class="st6"/>
				<text x="9.73" y="437.54" class="st2">IF</text>			</g>
			<g id="shape65-57" transform="translate(294.553,-184.252)">
				<title>Sheet.65</title>
				<desc>OCIF</desc>
				<rect x="0" y="429.203" width="39.0846" height="10.6667" class="st6"/>
				<text x="7.6" y="437.54" class="st2">OCIF</text>			</g>
			<g id="shape91-60" transform="translate(340.157,-287.008)">
				<title>动态连接线.91</title>
				<path d="M0 439.87 L0 344.21 L-60.62 344.21" class="st4"/>
			</g>
			<g id="shape133-66" transform="translate(369.921,-233.858)">
				<title>矩形.133</title>
				<desc>波形发生器</desc>
				<rect x="0" y="418.61" width="56.6929" height="21.2598" class="st1"/>
				<text x="5.85" y="431.98" class="st8">波形发生器</text>			</g>
			<g id="shape134-70" transform="translate(369.921,-252.283)">
				<title>动态连接线.134</title>
				<path d="M-4.93 439.87 L-5.29 439.87 L-29.76 439.87 L-29.76 405.15" class="st9"/>
			</g>
			<g id="shape135-77" transform="translate(340.157,-184.252)">
				<title>动态连接线.135</title>
				<path d="M0 439.87 L0 386.01 L23.91 386.01" class="st4"/>
			</g>
			<g id="shape90-83" transform="translate(426.85,-251.597)">
				<title>动态连接线.90</title>
				<path d="M0.09 446.96 L8.79 446.96" class="st4"/>
			</g>
			<g id="shape136-89" transform="translate(435.732,-238.11)">
				<title>Sheet.136</title>
				<desc>TxO</desc>
				<rect x="0" y="427.07" width="27.1181" height="12.8" class="st6"/>
				<text x="4.12" y="436.47" class="st2">TxO</text>			</g>
			<g id="shape137-92" transform="translate(460.63,-358.605)">
				<title>Sheet.137</title>
				<desc>时基单元 输出比较单元OC 输入捕获单元IC</desc>
				<rect x="0" y="402.097" width="101.645" height="37.7728" class="st6"/>
				<text x="4" y="411.86" class="st10">时基单元 <tspan x="4" dy="1.216em" class="st3">输出比较单元</tspan><tspan class="st11">OC </tspan><tspan
							x="4" dy="1.216em" class="st3">输入捕获单元</tspan><tspan class="st11">IC</tspan></text>			</g>
			<g id="shape151-99" transform="translate(78.5197,-319.181)">
				<title>动态连接线.151</title>
				<path d="M7.09 439.87 L7.09 454.04" class="st7"/>
			</g>
			<g id="shape152-103" transform="translate(62.1122,-295.37)">
				<title>Sheet.152</title>
				<desc>CKSRC</desc>
				<rect x="0" y="430.421" width="51.0236" height="9.44882" class="st6"/>
				<text x="8.01" y="438.15" class="st2">CKSRC</text>			</g>
			<g id="shape154-106" transform="translate(219.685,-77.9528)">
				<title>矩形.154</title>
				<desc>ICRR</desc>
				<rect x="0" y="418.61" width="99.2126" height="21.2598" class="st1"/>
				<text x="37.38" y="432.24" class="st2">ICRR</text>			</g>
			<g id="group172-110" transform="translate(146.031,-113.386)">
				<title>Sheet.172</title>
				<g id="shape173-111" transform="translate(0.897638,-3.18898)">
					<title>矩形.111</title>
					<rect x="0" y="429.24" width="18.8976" height="10.6299" class="st1"/>
				</g>
				<g id="shape174-114" transform="translate(-2.3622,-12.4016)">
					<title>动态连接线.114</title>
					<path d="M5.81 446.96 L8.36 446.96" class="st7"/>
				</g>
				<g id="shape175-118" transform="translate(14.6457,-15.5906)">
					<title>动态连接线.115</title>
					<path d="M-7.14 447.06 L-7.3 447.38 L-8.65 450.15" class="st12"/>
				</g>
				<g id="shape176-125" transform="translate(17.4803,-18.7795)">
					<title>动态连接线.116</title>
					<path d="M-5.81 446.96 L-8.36 446.96" class="st7"/>
				</g>
			</g>
			<g id="group177-129" transform="translate(146.929,-48.189)">
				<title>Sheet.177</title>
				<g id="shape178-130" transform="translate(-2.19824E-14,-3.18898)">
					<title>矩形.112</title>
					<rect x="0" y="429.24" width="18.8976" height="10.6299" class="st1"/>
				</g>
				<g id="shape179-133" transform="translate(16.3465,-18.7795)">
					<title>动态连接线.123</title>
					<path d="M-5.81 446.96 L-8.36 446.96" class="st7"/>
				</g>
				<g id="shape180-137" transform="translate(4.96063,-15.5906)">
					<title>动态连接线.117</title>
					<path d="M5.57 443.77 L6.87 446.51" class="st14"/>
				</g>
				<g id="shape181-144" transform="translate(7.74803,1.77165)">
					<title>动态连接线.118</title>
					<path d="M5.81 432.78 L8.36 432.78" class="st7"/>
				</g>
			</g>
			<g id="shape193-148" transform="translate(95.5748,-81.474)">
				<title>Sheet.193</title>
				<desc>TxI</desc>
				<rect x="0" y="427.07" width="25.9843" height="12.8" class="st6"/>
				<text x="6.05" y="436.47" class="st2">TxI</text>			</g>
			<g id="shape201-151" transform="translate(226.772,-141.732)">
				<title>动态连接线.201</title>
				<path d="M7.09 439.87 L7.09 477.1" class="st4"/>
			</g>
			<g id="shape202-157" transform="translate(194.173,-114.803)">
				<title>动态连接线.202</title>
				<path d="M0 432.78 L30.15 432.78" class="st4"/>
			</g>
			<g id="shape203-163" transform="translate(238.337,-114.803)">
				<title>动态连接线.203</title>
				<path d="M0 432.78 L146.14 432.78" class="st4"/>
			</g>
			<g id="shape155-169" transform="translate(219.685,-14.1732)">
				<title>矩形.155</title>
				<desc>ICFR</desc>
				<rect x="0" y="418.61" width="99.2126" height="21.2598" class="st1"/>
				<text x="37.94" y="432.24" class="st2">ICFR</text>			</g>
			<g id="shape164-173" transform="translate(237.43,-63.8079)">
				<title>动态连接线.164</title>
				<path d="M0 446.93 L147.05 446.98" class="st4"/>
			</g>
			<g id="shape171-179" transform="translate(131.811,-114.803)">
				<title>动态连接线.171</title>
				<path d="M0 432.78 L15.12 432.78" class="st7"/>
			</g>
			<g id="shape182-183" transform="translate(118.014,-80.7858)">
				<title>动态连接线.182</title>
				<path d="M0.43 432.78 L13.75 432.78" class="st7"/>
			</g>
			<g id="shape183-187" transform="translate(124.677,-56.8819)">
				<title>动态连接线.183</title>
				<path d="M7.04 439.87 L7.13 374.86" class="st7"/>
			</g>
			<g id="shape184-191" transform="translate(181.361,-126.142)">
				<title>动态连接线.184</title>
				<path d="M1.36 444.12 L12.81 449.79" class="st7"/>
			</g>
			<g id="shape186-195" transform="translate(165.827,-128.976)">
				<title>动态连接线.186</title>
				<path d="M0 446.96 L16.89 446.96" class="st7"/>
			</g>
			<g id="shape187-199" transform="translate(171.496,-130.583)">
				<title>Sheet.187</title>
				<desc>ICREN</desc>
				<rect x="0" y="432.689" width="34.3937" height="7.1811" class="st6"/>
				<text x="4.75" y="438.68" class="st15">ICREN</text>			</g>
			<g id="shape163-202" transform="translate(194.173,-49.6063)">
				<title>动态连接线.163</title>
				<path d="M0 432.78 L30.78 432.78" class="st4"/>
			</g>
			<g id="shape192-208" transform="translate(171.496,-65.3858)">
				<title>Sheet.192</title>
				<desc>ICFEN</desc>
				<rect x="0" y="432.689" width="33.6378" height="7.1811" class="st6"/>
				<text x="4.82" y="438.68" class="st15">ICFEN</text>			</g>
			<g id="shape194-211" transform="translate(369.921,-150.236)">
				<title>动态连接线.194</title>
				<path d="M0 442.7 L0 451.21 L14.56 451.21" class="st4"/>
			</g>
			<g id="shape195-217" transform="translate(339.907,-146.089)">
				<title>Sheet.195</title>
				<desc>ICRIE</desc>
				<rect x="0" y="429.203" width="56.6929" height="10.6667" class="st6"/>
				<text x="15.01" y="437.54" class="st2">ICRIE</text>			</g>
			<g id="shape210-220" transform="translate(369.921,-85.0394)">
				<title>动态连接线.210</title>
				<path d="M0 442.7 L0 451.21 L14.56 451.21" class="st4"/>
			</g>
			<g id="shape211-226" transform="translate(344.976,-80.7874)">
				<title>Sheet.211</title>
				<desc>ICFIE</desc>
				<rect x="0" y="429.203" width="35.4331" height="10.6667" class="st6"/>
				<text x="4.94" y="437.54" class="st2">ICFIE</text>			</g>
			<g id="shape219-229" transform="translate(541.134,-270.049)">
				<title>Sheet.219</title>
				<desc>IRQ</desc>
				<rect x="0" y="427.07" width="30.6142" height="12.8" class="st6"/>
				<text x="6.42" y="436.47" class="st2">IRQ</text>			</g>
			<g id="shape223-232" transform="translate(295.937,-123.213)">
				<title>Sheet.223</title>
				<desc>ICRIF</desc>
				<rect x="0" y="432.689" width="42.5197" height="7.1811" class="st6"/>
				<text x="8.21" y="439.28" class="st2">ICRIF</text>			</g>
			<g id="shape224-235" transform="translate(303.307,-58.1102)">
				<title>Sheet.224</title>
				<desc>ICFIF</desc>
				<rect x="0" y="432.689" width="36.378" height="7.1811" class="st6"/>
				<text x="5.69" y="439.28" class="st2">ICFIF</text>			</g>
			<g id="shape76-238" transform="translate(5.41929,-339.427)">
				<title>Sheet.76</title>
				<desc>PCLK</desc>
				<rect x="0" y="427.07" width="37.1004" height="12.8" class="st6"/>
				<text x="5.49" y="436.47" class="st2">PCLK</text>			</g>
			<g id="group101-241" transform="translate(75.5906,-317.457)">
				<title>Sheet.101</title>
				<g id="shape97-242" transform="translate(-3.68504,-37.6299)">
					<title>动态连接线.97</title>
					<path d="M7.09 439.87 L7.09 477.42" class="st7"/>
				</g>
				<g id="shape98-246" transform="translate(9.92126,-32.9159)">
					<title>动态连接线.98</title>
					<path d="M7.09 439.87 L7.09 468.15" class="st7"/>
				</g>
				<g id="shape99-250" transform="translate(3.11811,4.72959)">
					<title>动态连接线.99</title>
					<path d="M0.28 435.06 L13.89 430.51" class="st7"/>
				</g>
				<g id="shape100-254" transform="translate(3.11811,-42.3595)">
					<title>动态连接线.100</title>
					<path d="M0.28 444.6 L13.89 449.31" class="st7"/>
				</g>
			</g>
			<g id="shape102-258" transform="translate(78.9921,-340.428)">
				<title>Sheet.102</title>
				<desc>0</desc>
				<rect x="0" y="429.203" width="11.3386" height="10.6667" class="st6"/>
				<text x="4" y="437.54" class="st2">0</text>			</g>
			<g id="shape106-261" transform="translate(78.9921,-338.728)">
				<title>动态连接线.106</title>
				<path d="M0 432.8 L-42.14 432.77" class="st7"/>
			</g>
			<g id="shape107-265" transform="translate(78.9921,-319.819)">
				<title>动态连接线.107</title>
				<path d="M0 432.78 L-14.36 432.78" class="st7"/>
			</g>
			<g id="shape103-269" transform="translate(78.9921,-321.614)">
				<title>Sheet.103</title>
				<desc>1</desc>
				<rect x="0" y="429.203" width="11.3386" height="10.6667" class="st6"/>
				<text x="4" y="437.54" class="st2">1</text>			</g>
			<g id="group120-272" transform="translate(44.8346,-319.346)">
				<title>Sheet.120</title>
				<g id="shape111-273" transform="translate(0.897638,-2.83465)">
					<title>矩形.111</title>
					<rect x="0" y="430.421" width="18.8976" height="9.44882" class="st1"/>
				</g>
				<g id="shape127-276" transform="translate(-2.3622,-11.811)">
					<title>动态连接线.114</title>
					<path d="M5.81 446.96 L8.36 446.96" class="st7"/>
				</g>
				<g id="shape128-280" transform="translate(14.6457,-14.6457)">
					<title>动态连接线.115</title>
					<path d="M-7.29 447.33 L-7.47 447.65 L-8.65 449.79" class="st12"/>
				</g>
				<g id="shape129-286" transform="translate(17.4803,-17.4803)">
					<title>动态连接线.116</title>
					<path d="M-5.81 446.96 L-8.36 446.96" class="st7"/>
				</g>
			</g>
			<g id="shape131-290" transform="translate(34.063,-319.819)">
				<title>动态连接线.131</title>
				<path d="M2.5 432.78 L11.67 432.78" class="st7"/>
			</g>
			<g id="shape132-294" transform="translate(17.0079,-320.315)">
				<title>Sheet.132</title>
				<desc>TxI</desc>
				<rect x="0" y="427.07" width="23.622" height="12.8" class="st6"/>
				<text x="4.87" y="436.47" class="st2">TxI</text>			</g>
			<g id="shape285-297" transform="translate(0,-439.37)">
				<title>Sheet.285</title>
				<path d="M0 439.87 L588.19 439.87" class="st7"/>
			</g>
			<g id="shape286-301" transform="translate(439.87,0.5) rotate(90)">
				<title>Sheet.286</title>
				<path d="M0 439.87 L439.37 439.87" class="st7"/>
			</g>
			<g id="shape287-305">
				<title>Sheet.287</title>
				<path d="M0 439.87 L588.19 439.87" class="st7"/>
			</g>
			<g id="shape288-309" transform="translate(148.319,439.87) rotate(-90)">
				<title>Sheet.288</title>
				<path d="M0 439.87 L439.37 439.87" class="st7"/>
			</g>
			<g id="shape295-313" transform="translate(112.252,-335.055)">
				<title>动态连接线.295</title>
				<path d="M7.09 439.3 L7.09 426.26" class="st7"/>
			</g>
			<g id="shape296-317" transform="translate(103.83,-349.228)">
				<title>Sheet.296</title>
				<desc>HALT</desc>
				<rect x="0" y="432.716" width="31.017" height="7.15431" class="st6"/>
				<text x="4.01" y="438.99" class="st16">HALT</text>			</g>
			<g id="shape297-320" transform="translate(227.543,-379.1)">
				<title>Sheet.297</title>
				<desc>EN</desc>
				<rect x="0" y="432.716" width="26.7247" height="7.15431" class="st6"/>
				<text x="7.11" y="438.99" class="st16">EN</text>			</g>
			<g id="shape299-323" transform="translate(709.161,35.9331) rotate(90)">
				<title>Sheet.299</title>
				<path d="M0 439.87 L38.57 439.87" class="st17"/>
			</g>
			<g id="shape300-330" transform="translate(260.787,-372.756)">
				<title>Sheet.300</title>
				<path d="M8.5 439.87 L0 422.86 L17.01 422.86 L8.5 439.87 Z" class="st19"/>
			</g>
			<g id="shape301-333" transform="translate(248.05,-382.677)">
				<title>Sheet.301</title>
				<path d="M0 439.87 L15.57 439.87" class="st20"/>
			</g>
			<g id="shape302-337" transform="translate(111.827,-342.142)">
				<title>动态连接线.302</title>
				<path d="M1.56 445.54 L12.61 448.37" class="st7"/>
			</g>
			<g id="shape303-341" transform="translate(192.189,-329.291)">
				<title>动态连接线.303</title>
				<path d="M0 432.78 L22.21 432.78" class="st4"/>
			</g>
			<g id="shape304-347" transform="translate(113.386,-329.386)">
				<title>动态连接线.84</title>
				<path d="M0 432.78 L-20.69 432.78" class="st7"/>
			</g>
			<g id="shape305-351" transform="translate(294.094,-276.378)">
				<title>圆形.305</title>
				<desc>=0</desc>
				<path d="M0 429.24 A10.6299 10.6299 0 0 1 21.26 429.24 A10.6299 10.6299 0 0 1 0 429.24 Z" class="st1"/>
				<text x="6.07" y="431.64" class="st15">=0</text>			</g>
			<g id="group306-355" transform="translate(382.677,-273.827)">
				<title>Sheet.306</title>
				<g id="shape307-356" transform="translate(8.79297E-14,-7.08661)">
					<title>动态连接线.51</title>
					<path d="M7.09 439.87 L7.09 411.52" class="st7"/>
				</g>
				<g id="shape308-360" transform="translate(24.0945,-1.13687E-13)">
					<title>动态连接线.52</title>
					<path d="M0 432.78 L-17.01 432.78" class="st7"/>
				</g>
				<g id="shape309-364" transform="translate(24.0945,-28.3465)">
					<title>动态连接线.103</title>
					<path d="M0 432.78 L-17.01 432.78" class="st7"/>
				</g>
				<g id="shape310-368" transform="translate(17.0079,-7.08661)">
					<title>动态连接线.104</title>
					<path d="M7.09 439.87 C26.93 439.87 26.93 411.52 7.09 411.52" class="st7"/>
				</g>
			</g>
			<g id="shape45-372" transform="translate(262.205,-318.898)">
				<title>动态连接线.45</title>
				<path d="M7.09 439.87 L7.09 562.14" class="st4"/>
			</g>
			<g id="group79-378" transform="translate(483.591,-262.63)">
				<title>逻辑门 2</title>
				<g id="shape81-379" transform="translate(0,-6.90945)">
					<title>Sheet.81</title>
					<path d="M0 426.05 L27.64 426.05" class="st7"/>
					<path d="M0 439.87 L27.64 439.87" class="st7"/>
					<path d="M55.28 432.96 L27.64 432.96" class="st7"/>
				</g>
				<g id="shape82-384" transform="translate(9.67323,5.68434E-14)">
					<title>Sheet.82</title>
					<path d="M35.93 426.05 A37.2152 22.8004 0 0 1 10.78 439.87 L0 439.87 A53.3205 32.6674 -180 0 0 -0 412.23 L10.78
								 412.23 A36.7168 22.495 0 0 1 35.93 426.05 Z" class="st21"/>
				</g>
				<g id="shape83-386" transform="translate(0,4.6063)">
					<title>Sheet.83</title>
					<path d="M9.67 435.26 L9.67 439.87 L0 439.87" class="st7"/>
					<path d="M9.67 407.63 L9.67 403.02 L0 403.02" class="st7"/>
				</g>
				<g id="shape84-390" transform="translate(37.4252,-3.47257)">
					<title>Sheet.84</title>
				</g>
				<g id="shape85-392" transform="translate(9.67323,5.68434E-14)">
					<title>Sheet.85</title>
				</g>
			</g>
			<g id="shape42-394" transform="translate(115.654,-328.346)">
				<title>动态连接线.42</title>
				<path d="M7.09 433.73 L7.09 431.84" class="st7"/>
			</g>
			<g id="shape44-398" transform="translate(262.205,-162.992)">
				<title>动态连接线.48</title>
				<path d="M7.09 439.87 L7.09 430.98" class="st4"/>
			</g>
			<g id="shape46-404" transform="translate(262.205,-177.165)">
				<title>圆形.46</title>
				<desc>=</desc>
				<path d="M0 432.78 A7.08661 7.08661 0 1 1 14.17 432.78 A7.08661 7.08661 0 1 1 0 432.78 Z" class="st1"/>
				<text x="4.89" y="435.18" class="st15">=</text>			</g>
			<g id="shape47-408" transform="translate(311.811,-318.898)">
				<title>动态连接线.47</title>
				<path d="M-7.09 439.87 L-7.09 455.84" class="st4"/>
			</g>
			<g id="group48-414" transform="translate(382.677,-170.079)">
				<title>Sheet.48</title>
				<g id="shape50-415" transform="translate(8.79297E-14,-7.08661)">
					<title>动态连接线.50</title>
					<path d="M7.09 439.87 L7.09 411.52" class="st7"/>
				</g>
				<g id="shape51-419" transform="translate(24.0945,-1.13687E-13)">
					<title>动态连接线.51</title>
					<path d="M0 432.78 L-17.01 432.78" class="st7"/>
				</g>
				<g id="shape52-423" transform="translate(24.0945,-28.3465)">
					<title>动态连接线.103</title>
					<path d="M0 432.78 L-17.01 432.78" class="st7"/>
				</g>
				<g id="shape53-427" transform="translate(17.0079,-7.08661)">
					<title>动态连接线.104</title>
					<path d="M7.09 439.87 C26.93 439.87 26.93 411.52 7.09 411.52" class="st7"/>
				</g>
			</g>
			<g id="shape54-431" transform="translate(276.378,-191.339)">
				<title>动态连接线.54</title>
				<path d="M0 446.96 L108.1 446.96" class="st4"/>
			</g>
			<g id="shape59-437" transform="translate(226.772,-318.898)">
				<title>动态连接线.59</title>
				<path d="M7.09 439.87 L7.09 595.78" class="st7"/>
			</g>
			<g id="shape75-441" transform="translate(226.772,-77.9528)">
				<title>动态连接线.75</title>
				<path d="M7.09 439.87 L7.09 477.1" class="st4"/>
			</g>
			<g id="shape60-447" transform="translate(225.354,-113.386)">
				<title>Sheet.60</title>
				<path d="M8.5 439.87 L0 422.86 L17.01 422.86 L8.5 439.87 Z" class="st19"/>
			</g>
			<g id="shape61-450" transform="translate(225.354,-49.6063)">
				<title>Sheet.61</title>
				<path d="M8.5 439.87 L0 422.86 L17.01 422.86 L8.5 439.87 Z" class="st19"/>
			</g>
			<g id="shape62-453" transform="translate(181.361,-60.9449)">
				<title>动态连接线.62</title>
				<path d="M1.36 444.12 L12.81 449.79" class="st7"/>
			</g>
			<g id="shape63-457" transform="translate(181.701,-52.6299)">
				<title>动态连接线.63</title>
				<path d="M7.09 438.45 L7.09 427.11" class="st7"/>
			</g>
			<g id="shape74-461" transform="translate(165.827,-63.7795)">
				<title>动态连接线.74</title>
				<path d="M0 446.96 L16.89 446.96" class="st7"/>
			</g>
			<g id="shape77-465" transform="translate(181.417,-117.638)">
				<title>动态连接线.77</title>
				<path d="M7.09 438.45 L7.09 427.11" class="st7"/>
			</g>
			<g id="shape78-469" transform="translate(131.811,-49.6063)">
				<title>动态连接线.78</title>
				<path d="M0 432.78 L15.12 432.78" class="st7"/>
			</g>
			<g id="group86-473" transform="translate(382.677,-109.134)">
				<title>Sheet.86</title>
				<g id="shape87-474" transform="translate(8.79297E-14,-7.08661)">
					<title>动态连接线.50</title>
					<path d="M7.09 439.87 L7.09 411.52" class="st7"/>
				</g>
				<g id="shape88-478" transform="translate(24.0945,-1.13687E-13)">
					<title>动态连接线.51</title>
					<path d="M0 432.78 L-17.01 432.78" class="st7"/>
				</g>
				<g id="shape89-482" transform="translate(24.0945,-28.3465)">
					<title>动态连接线.103</title>
					<path d="M0 432.78 L-17.01 432.78" class="st7"/>
				</g>
				<g id="shape92-486" transform="translate(17.0079,-7.08661)">
					<title>动态连接线.104</title>
					<path d="M7.09 439.87 C26.93 439.87 26.93 411.52 7.09 411.52" class="st7"/>
				</g>
			</g>
			<g id="group93-490" transform="translate(382.677,-43.937)">
				<title>Sheet.93</title>
				<g id="shape94-491" transform="translate(8.79297E-14,-7.08661)">
					<title>动态连接线.50</title>
					<path d="M7.09 439.87 L7.09 411.52" class="st7"/>
				</g>
				<g id="shape95-495" transform="translate(24.0945,-1.13687E-13)">
					<title>动态连接线.51</title>
					<path d="M0 432.78 L-17.01 432.78" class="st7"/>
				</g>
				<g id="shape96-499" transform="translate(24.0945,-28.3465)">
					<title>动态连接线.103</title>
					<path d="M0 432.78 L-17.01 432.78" class="st7"/>
				</g>
				<g id="shape104-503" transform="translate(17.0079,-7.08661)">
					<title>动态连接线.104</title>
					<path d="M7.09 439.87 C26.93 439.87 26.93 411.52 7.09 411.52" class="st7"/>
				</g>
			</g>
			<g id="shape49-507" transform="translate(538.866,-276.449)">
				<title>Sheet.49</title>
				<path d="M0 439.87 L4.49 439.87" class="st4"/>
			</g>
			<g id="shape105-513" transform="translate(467.717,-191.339)">
				<title>Sheet.105</title>
				<path d="M15.87 347.85 L0 347.85 L0 439.87" class="st20"/>
			</g>
			<g id="shape108-517" transform="translate(466.406,688.4) rotate(-179.829)">
				<title>Sheet.108</title>
				<path d="M0 439.87 L46.06 439.87" class="st20"/>
			</g>
			<g id="shape109-521" transform="translate(483.591,610.201) rotate(180)">
				<title>Sheet.109</title>
				<path d="M0 439.87 L8.79 439.87" class="st20"/>
			</g>
			<g id="shape110-525" transform="translate(914.673,170.331) rotate(90)">
				<title>Sheet.110</title>
				<path d="M0 439.87 L139.15 439.87" class="st20"/>
			</g>
			<g id="shape112-529" transform="translate(421.654,-130.394)">
				<title>Sheet.112</title>
				<path d="M0 439.87 L53.15 439.87" class="st20"/>
			</g>
			<g id="shape113-533" transform="translate(421.653,-65.0893)">
				<title>Sheet.113</title>
				<path d="M0 439.87 L60.24 439.87" class="st20"/>
			</g>
			<g id="shape114-537" transform="translate(483.591,621.717) rotate(180)">
				<title>Sheet.114</title>
				<path d="M0 439.87 L1.7 439.87" class="st20"/>
			</g>
			<g id="shape115-541" transform="translate(921.76,181.846) rotate(90)">
				<title>Sheet.115</title>
				<path d="M0 439.87 L192.93 439.87" class="st20"/>
			</g>
			<g id="shape311-545" transform="translate(133.228,-325.748)">
				<title>矩形.311</title>
				<desc>8-bit PSC</desc>
				<rect x="0" y="418.61" width="58.1102" height="21.2598" class="st1"/>
				<text x="7.69" y="432.24" class="st2">8-bit PSC</text>			</g>
			<g id="shape312-549" transform="translate(122.74,-336.378)">
				<title>Sheet.312</title>
				<g id="shadow312-550" transform="matrix(1,0,0,1,1.44,1.44)" class="st22">
					<path d="M0 439.87 L10.49 439.87" class="st23"/>
				</g>
				<path d="M0 439.87 L10.49 439.87" class="st7"/>
			</g>
		</g>
	</g>
</svg>
