<?xml version="1.0" encoding="UTF-8" standalone="no"?>
<!DOCTYPE svg PUBLIC "-//W3C//DTD SVG 1.1//EN" "http://www.w3.org/Graphics/SVG/1.1/DTD/svg11.dtd">
<!-- Generated by Microsoft Visio, SVG Export 脉冲发送示意图.svg 页-1 -->
<svg xmlns="http://www.w3.org/2000/svg" xmlns:xlink="http://www.w3.org/1999/xlink" xmlns:ev="http://www.w3.org/2001/xml-events"
		width="5.51876in" height="3.80616in" viewBox="0 0 397.35 274.043" xml:space="preserve" color-interpolation-filters="sRGB"
		class="st8">
	<style type="text/css">
	<![CDATA[
		.st1 {marker-end:url(#mrkr5-8);stroke:#404040;stroke-linecap:round;stroke-linejoin:round;stroke-width:0.5}
		.st2 {fill:#404040;fill-opacity:1;stroke:#404040;stroke-opacity:1;stroke-width:0.16556291390728}
		.st3 {stroke:#404040;stroke-linecap:round;stroke-linejoin:round;stroke-width:0.5}
		.st4 {fill:none;stroke:none;stroke-linecap:round;stroke-linejoin:round;stroke-width:0.5}
		.st5 {fill:#000000;font-family:Microsoft Sans Serif;font-size:0.833336em}
		.st6 {fill:#000000;font-family:Calibri;font-size:0.833336em}
		.st7 {stroke:#404040;stroke-dasharray:3.5,2.5;stroke-linecap:round;stroke-linejoin:round;stroke-width:0.5}
		.st8 {fill:none;fill-rule:evenodd;font-size:12px;overflow:visible;stroke-linecap:square;stroke-miterlimit:3}
	]]>
	</style>

	<defs id="Patterns_And_Gradients">
		<linearGradient id="grad0-5" x1="0" y1="0" x2="1" y2="0" gradientTransform="rotate(270 0.5 0.5)">
			<stop offset="0" stop-color="#f0f0f0" stop-opacity="1"/>
			<stop offset="1" stop-color="#ffffff" stop-opacity="1"/>
		</linearGradient>
	</defs>
	<defs id="Markers">
		<g id="lend5">
			<path d="M 2 1 L 0 0 L 1.98117 -0.993387 C 1.67173 -0.364515 1.67301 0.372641 1.98465 1.00043 " style="stroke:none"/>
		</g>
		<marker id="mrkr5-8" class="st2" refX="-10.57" orient="auto" markerUnits="strokeWidth" overflow="visible">
			<use xlink:href="#lend5" transform="scale(-6.04,-6.04) "/>
		</marker>
	</defs>
	<g>
		<title>页-1</title>
		<g id="shape1-1" transform="translate(50.1,-103.715)">
			<title>动态连接线</title>
			<path d="M0 266.96 L323.65 266.96" class="st1"/>
		</g>
		<g id="shape2-9" transform="translate(57.1866,-110.801)">
			<title>动态连接线.2</title>
			<path d="M-7.09 274.04 L-7.09 128.15" class="st1"/>
		</g>
		<g id="shape3-15" transform="translate(50.1,-231.274)">
			<title>动态连接线.3</title>
			<path d="M0 266.96 L329.41 266.96" class="st3"/>
		</g>
		<g id="shape4-19" transform="translate(50.1,-202.927)">
			<title>动态连接线.4</title>
			<path d="M0 281.13 L328.7 281.13" class="st3"/>
		</g>
		<g id="shape5-23" transform="translate(2.91411,-231.274)">
			<title>Sheet.5</title>
			<desc>LDVAL</desc>
			<rect x="0" y="263.377" width="46.9422" height="10.6667" class="st4"/>
			<text x="7.63" y="271.71" class="st5">LDVAL</text>		</g>
		<g id="shape6-26" transform="translate(5.66929,-190.507)">
			<title>Sheet.6</title>
			<desc>OCMAT</desc>
			<rect x="0" y="263.377" width="46.9422" height="10.6667" class="st4"/>
			<text x="7.89" y="271.79" class="st6">OCMAT</text>		</g>
		<g id="shape13-29" transform="translate(177.415,-110.801)">
			<title>动态连接线.13</title>
			<path d="M0 274.04 L-127.32 146.48" class="st3"/>
		</g>
		<g id="shape15-33" transform="translate(50.1,-96.628)">
			<title>动态连接线.15</title>
			<path d="M0 281.13 L127.32 281.13" class="st3"/>
		</g>
		<g id="shape16-37" transform="translate(14.5543,-82.4547)">
			<title>Sheet.16</title>
			<desc>TOIF</desc>
			<rect x="0" y="263.377" width="35.302" height="10.6667" class="st4"/>
			<text x="6.26" y="271.71" class="st5">TOIF</text>		</g>
		<g id="shape17-40" transform="translate(170.329,-87.1791)">
			<title>动态连接线.17</title>
			<path d="M7.09 271.68 L7.09 262.23" class="st3"/>
		</g>
		<g id="shape18-44" transform="translate(179.733,-87.1791)">
			<title>动态连接线.18</title>
			<path d="M7.09 271.68 L7.09 262.23" class="st3"/>
		</g>
		<g id="shape19-48" transform="translate(189.204,-91.9036)">
			<title>动态连接线.19</title>
			<path d="M-2.38 266.96 L-11.79 266.96" class="st3"/>
		</g>
		<g id="shape20-52" transform="translate(186.82,-96.628)">
			<title>动态连接线.20</title>
			<path d="M0 281.13 L118.15 281.13" class="st3"/>
		</g>
		<g id="shape21-56" transform="translate(297.888,-87.1791)">
			<title>动态连接线.21</title>
			<path d="M7.09 271.68 L7.09 262.23" class="st3"/>
		</g>
		<g id="shape22-60" transform="translate(307.292,-87.1791)">
			<title>动态连接线.22</title>
			<path d="M7.09 271.68 L7.09 262.23" class="st3"/>
		</g>
		<g id="shape23-64" transform="translate(316.763,-91.9036)">
			<title>动态连接线.23</title>
			<path d="M-2.38 266.96 L-11.79 266.96" class="st3"/>
		</g>
		<g id="shape24-68" transform="translate(314.379,-82.4547)">
			<title>动态连接线.24</title>
			<path d="M0 266.96 L64.66 266.96" class="st3"/>
		</g>
		<g id="shape25-72" transform="translate(50.1,-75.3681)">
			<title>动态连接线.25</title>
			<path d="M0 281.13 L42.28 281.13" class="st3"/>
		</g>
		<g id="shape26-76" transform="translate(15.8406,-62.9482)">
			<title>Sheet.26</title>
			<desc>OC0IF</desc>
			<rect x="0" y="263.377" width="38.0816" height="10.6667" class="st4"/>
			<text x="4.32" y="271.71" class="st5">OC0IF</text>		</g>
		<g id="shape27-79" transform="translate(85.2894,-65.9193)">
			<title>动态连接线.27</title>
			<path d="M7.09 271.68 L7.09 262.23" class="st3"/>
		</g>
		<g id="shape28-83" transform="translate(94.6941,-65.9193)">
			<title>动态连接线.28</title>
			<path d="M7.09 271.68 L7.09 262.23" class="st3"/>
		</g>
		<g id="shape29-87" transform="translate(104.165,-70.6437)">
			<title>动态连接线.29</title>
			<path d="M-2.38 266.96 L-11.79 266.96" class="st3"/>
		</g>
		<g id="shape32-91" transform="translate(212.848,-65.9193)">
			<title>动态连接线.32</title>
			<path d="M7.09 271.68 L7.09 262.23" class="st3"/>
		</g>
		<g id="shape33-95" transform="translate(222.253,-65.9193)">
			<title>动态连接线.33</title>
			<path d="M7.09 271.68 L7.09 262.23" class="st3"/>
		</g>
		<g id="shape34-99" transform="translate(231.724,-70.6437)">
			<title>动态连接线.34</title>
			<path d="M-2.38 266.96 L-11.79 266.96" class="st3"/>
		</g>
		<g id="shape35-103" transform="translate(357.132,-61.1949)">
			<title>动态连接线.35</title>
			<path d="M0 266.96 L21.67 266.96" class="st3"/>
		</g>
		<g id="shape7-107" transform="translate(184.715,-110.801)">
			<title>动态连接线.7</title>
			<path d="M-6.87 274.04 L-7.3 146.48" class="st3"/>
		</g>
		<g id="shape8-111" transform="translate(304.974,-110.801)">
			<title>动态连接线.8</title>
			<path d="M0 274.04 L-127.56 146.48" class="st3"/>
		</g>
		<g id="shape9-115" transform="translate(312.061,-110.801)">
			<title>动态连接线.9</title>
			<path d="M-7.09 274.04 L-7.09 146.48" class="st3"/>
		</g>
		<g id="shape10-119" transform="translate(378.675,-164.659)">
			<title>动态连接线.10</title>
			<path d="M0 274.04 L-73.7 200.34" class="st3"/>
		</g>
		<g id="shape39-123" transform="translate(99.493,-110.801)">
			<title>动态连接线.39</title>
			<path d="M-7.06 274.04 L-7.12 179.56" class="st7"/>
		</g>
		<g id="shape67-127" transform="translate(212.848,-110.801)">
			<title>动态连接线.67</title>
			<path d="M7.09 274.04 L7.09 179.56" class="st7"/>
		</g>
		<g id="shape69-131" transform="translate(354.581,-110.801)">
			<title>动态连接线.69</title>
			<path d="M-7.09 274.04 L-7.09 179.56" class="st7"/>
		</g>
		<g id="shape31-135" transform="translate(101.781,-61.1949)">
			<title>动态连接线.31</title>
			<path d="M0 266.96 L118.15 266.96" class="st3"/>
		</g>
		<g id="shape70-139" transform="translate(229.34,-75.3681)">
			<title>动态连接线.70</title>
			<path d="M0 281.13 L118.15 281.13" class="st3"/>
		</g>
		<g id="shape266-143" transform="translate(340.641,-65.9193)">
			<title>动态连接线.266</title>
			<path d="M7.09 271.68 L7.09 262.23" class="st3"/>
		</g>
		<g id="shape267-147" transform="translate(350.045,-65.9193)">
			<title>动态连接线.267</title>
			<path d="M7.09 271.68 L7.09 262.23" class="st3"/>
		</g>
		<g id="shape268-151" transform="translate(359.516,-70.6437)">
			<title>动态连接线.268</title>
			<path d="M-2.38 266.96 L-11.79 266.96" class="st3"/>
		</g>
		<g id="shape289-155" transform="translate(0.250011,-273.793) rotate(1.6013E-06)">
			<title>Sheet.289</title>
			<path d="M0 274.04 L396.85 274.04" class="st3"/>
		</g>
		<g id="shape290-159" transform="translate(671.144,0.250011) rotate(90)">
			<title>Sheet.290</title>
			<path d="M0 274.04 L273.54 274.04" class="st3"/>
		</g>
		<g id="shape291-163" transform="translate(397.1,547.837) rotate(180)">
			<title>Sheet.291</title>
			<path d="M0 274.04 L396.85 274.04" class="st3"/>
		</g>
		<g id="shape292-167" transform="translate(-273.793,273.793) rotate(-90)">
			<title>Sheet.292</title>
			<path d="M0 274.04 L273.54 274.04" class="st3"/>
		</g>
		<g id="group311-171" transform="translate(13.912,-13.998)">
			<title>Sheet.311</title>
			<g id="shape36-172" transform="translate(36.1595,-14.1732)">
				<title>动态连接线.36</title>
				<path d="M0 281.08 L42.28 281.18" class="st3"/>
			</g>
			<g id="shape37-176" transform="translate(3.59712E-14,-1.56955)">
				<title>Sheet.37</title>
				<desc>TxO</desc>
				<rect x="0" y="263.377" width="36.4828" height="10.6667" class="st4"/>
				<text x="8.8" y="271.71" class="st5">TxO </text>			</g>
			<g id="shape38-179" transform="translate(326.467,-4.77165)">
				<title>动态连接线.38</title>
				<path d="M7.09 271.68 L7.09 262.23" class="st3"/>
			</g>
			<g id="shape40-183" transform="translate(365.33,-9.49606)">
				<title>动态连接线.40</title>
				<path d="M0 266.96 L-31.78 266.96" class="st3"/>
			</g>
			<g id="shape269-187" transform="translate(78.4355,-9.40157)">
				<title>动态连接线.269</title>
				<path d="M0 266.96 L85.04 266.96" class="st3"/>
			</g>
			<g id="shape270-191" transform="translate(163.475,-0.0472441)">
				<title>动态连接线.270</title>
				<path d="M0 266.96 L42.52 266.96" class="st3"/>
			</g>
			<g id="shape271-195" transform="translate(205.995,-9.49606)">
				<title>动态连接线.271</title>
				<path d="M0 266.96 L85.04 266.96" class="st3"/>
			</g>
			<g id="shape272-199" transform="translate(291.034,-0.0472441)">
				<title>动态连接线.272</title>
				<path d="M0 266.96 L42.52 266.96" class="st3"/>
			</g>
			<g id="shape273-203" transform="translate(283.947,-4.77165)">
				<title>动态连接线.273</title>
				<path d="M7.09 271.68 L7.09 262.23" class="st3"/>
			</g>
			<g id="shape274-207" transform="translate(198.908,-4.77165)">
				<title>动态连接线.274</title>
				<path d="M7.09 271.68 L7.09 262.23" class="st3"/>
			</g>
			<g id="shape275-211" transform="translate(156.388,-4.72441)">
				<title>动态连接线.275</title>
				<path d="M7.09 271.63 L7.09 262.28" class="st3"/>
			</g>
			<g id="shape276-215" transform="translate(71.3489,-4.67717)">
				<title>动态连接线.276</title>
				<path d="M7.09 271.68 L7.09 262.23" class="st3"/>
			</g>
		</g>
		<g id="shape323-219" transform="translate(50.3067,-37.5728)">
			<title>动态连接线.323</title>
			<path d="M0 266.96 L127.32 266.96" class="st3"/>
		</g>
		<g id="shape324-223" transform="translate(5.66929,-42.5197)">
			<title>Sheet.324</title>
			<desc>OC1IF</desc>
			<rect x="0" y="263.377" width="46.9422" height="10.6667" class="st4"/>
			<text x="8.75" y="271.71" class="st5">OC1IF</text>		</g>
		<g id="shape325-226" transform="translate(170.535,-42.2973)">
			<title>动态连接线.325</title>
			<path d="M7.09 271.68 L7.09 262.23" class="st3"/>
		</g>
		<g id="shape326-230" transform="translate(179.94,-42.2973)">
			<title>动态连接线.326</title>
			<path d="M7.09 271.68 L7.09 262.23" class="st3"/>
		</g>
		<g id="shape327-234" transform="translate(189.411,-47.0217)">
			<title>动态连接线.327</title>
			<path d="M-2.38 266.96 L-11.79 266.96" class="st3"/>
		</g>
		<g id="shape328-238" transform="translate(187.027,-37.5728)">
			<title>动态连接线.328</title>
			<path d="M0 266.96 L118.15 266.96" class="st3"/>
		</g>
		<g id="shape329-242" transform="translate(298.094,-42.2973)">
			<title>动态连接线.329</title>
			<path d="M7.09 271.68 L7.09 262.23" class="st3"/>
		</g>
		<g id="shape330-246" transform="translate(307.499,-42.2973)">
			<title>动态连接线.330</title>
			<path d="M7.09 271.68 L7.09 262.23" class="st3"/>
		</g>
		<g id="shape331-250" transform="translate(316.97,-47.0217)">
			<title>动态连接线.331</title>
			<path d="M-2.38 266.96 L-11.79 266.96" class="st3"/>
		</g>
		<g id="shape332-254" transform="translate(314.586,-37.5728)">
			<title>动态连接线.332</title>
			<path d="M0 266.96 L64.66 266.96" class="st3"/>
		</g>
	</g>
</svg>
