<?xml version="1.0" encoding="UTF-8" standalone="no"?>
<!DOCTYPE svg PUBLIC "-//W3C//DTD SVG 1.1//EN" "http://www.w3.org/Graphics/SVG/1.1/DTD/svg11.dtd">
<!-- Generated by Microsoft Visio, SVG Export LIN从节点同步.svg Page-1 -->
<svg xmlns="http://www.w3.org/2000/svg" xmlns:xlink="http://www.w3.org/1999/xlink" xmlns:ev="http://www.w3.org/2001/xml-events"
		xmlns:v="http://schemas.microsoft.com/visio/2003/SVGExtensions/" width="10.3703in" height="4.66164in"
		viewBox="0 0 746.661 335.638" xml:space="preserve" color-interpolation-filters="sRGB" class="st10">
	<v:documentProperties v:langID="2052" v:metric="true" v:viewMarkup="false">
		<v:userDefs>
			<v:ud v:nameU="msvSubprocessMaster" v:prompt="" v:val="VT4(Rectangle)"/>
			<v:ud v:nameU="msvNoAutoConnect" v:val="VT0(1):26"/>
		</v:userDefs>
	</v:documentProperties>

	<style type="text/css">
	<![CDATA[
		.st1 {fill:none;stroke:#000000;stroke-width:1}
		.st2 {stroke:#000000;stroke-linecap:round;stroke-linejoin:round;stroke-width:1.5}
		.st3 {marker-end:url(#mrkr13-14);marker-start:url(#mrkr13-12);stroke:#000000;stroke-linecap:round;stroke-linejoin:round;stroke-width:1}
		.st4 {fill:#000000;fill-opacity:1;stroke:#000000;stroke-opacity:1;stroke-width:0.28409090909091}
		.st5 {stroke:#000000;stroke-linecap:round;stroke-linejoin:round;stroke-width:1}
		.st6 {fill:none;stroke:none;stroke-width:0.25}
		.st7 {fill:#000000;font-family:Microsoft Sans Serif;font-size:1.5em}
		.st8 {fill:#000000;font-family:Calibri;font-size:1.5em}
		.st9 {font-size:1em}
		.st10 {fill:none;fill-rule:evenodd;font-size:12px;overflow:visible;stroke-linecap:square;stroke-miterlimit:3}
	]]>
	</style>

	<defs id="Markers">
		<g id="lend13">
			<path d="M 3 1 L 0 0 L 3 -1 L 3 1 " style="stroke:none"/>
		</g>
		<marker id="mrkr13-12" class="st4" v:arrowType="13" v:arrowSize="2" v:setback="10.2" refX="10.2" orient="auto"
				markerUnits="strokeWidth" overflow="visible">
			<use xlink:href="#lend13" transform="scale(3.52) "/>
		</marker>
		<marker id="mrkr13-14" class="st4" v:arrowType="13" v:arrowSize="2" v:setback="10.56" refX="-10.56" orient="auto"
				markerUnits="strokeWidth" overflow="visible">
			<use xlink:href="#lend13" transform="scale(-3.52,-3.52) "/>
		</marker>
	</defs>
	<g v:mID="0" v:index="1" v:groupContext="foregroundPage">
		<v:userDefs>
			<v:ud v:nameU="msvThemeOrder" v:val="VT0(0):26"/>
		</v:userDefs>
		<title>页-1</title>
		<v:pageProperties v:drawingScale="0.0393701" v:pageScale="0.0393701" v:drawingUnits="24" v:shadowOffsetX="8.50394"
				v:shadowOffsetY="-8.50394"/>
		<g id="shape586-1" v:mID="586" v:groupContext="shape" transform="translate(19,-19)">
			<title>矩形</title>
			<v:userDefs>
				<v:ud v:nameU="visVersion" v:val="VT0(15):26"/>
			</v:userDefs>
			<rect x="0" y="38" width="708.661" height="297.638" class="st1"/>
		</g>
		<g id="shape754-3" v:mID="754" v:groupContext="shape" transform="translate(47.3465,-118.213)">
			<title>Sheet.754</title>
			<path d="M0 335.64 L49.61 335.64" class="st2"/>
		</g>
		<g id="shape758-6" v:mID="758" v:groupContext="shape" transform="translate(104.039,-146.559)">
			<title>Sheet.758</title>
			<path d="M10.2 335.64 L10.56 335.64 L102.83 335.64" class="st3"/>
		</g>
		<g id="shape759-15" v:mID="759" v:groupContext="shape" transform="translate(-231.598,288.291) rotate(-90)">
			<title>Sheet.759</title>
			<path d="M0 335.64 L240.94 335.64" class="st5"/>
		</g>
		<g id="shape833-18" v:mID="833" v:groupContext="shape" transform="translate(111.126,-61.5197)">
			<title>Sheet.833</title>
			<path d="M0 335.64 L42.52 335.64" class="st2"/>
		</g>
		<g id="shape834-21" v:mID="834" v:groupContext="shape" transform="translate(-214.49,355.522) rotate(-104.036)">
			<title>Sheet.834</title>
			<path d="M0 335.64 L58.44 335.64" class="st2"/>
		</g>
		<g id="shape835-24" v:mID="835" v:groupContext="shape" transform="translate(167.819,-118.213)">
			<title>Sheet.835</title>
			<path d="M0 335.64 L42.52 335.64" class="st2"/>
		</g>
		<g id="shape836-27" v:mID="836" v:groupContext="shape" transform="translate(-171.971,192.714) rotate(-75.9638)">
			<title>Sheet.836</title>
			<path d="M0 335.64 L58.44 335.64" class="st2"/>
		</g>
		<g id="shape863-30" v:mID="863" v:groupContext="shape" transform="translate(224.512,-61.5197)">
			<title>Sheet.863</title>
			<path d="M0 335.64 L42.52 335.64" class="st2"/>
		</g>
		<g id="shape864-33" v:mID="864" v:groupContext="shape" transform="translate(-101.105,355.522) rotate(-104.036)">
			<title>Sheet.864</title>
			<path d="M0 335.64 L58.44 335.64" class="st2"/>
		</g>
		<g id="shape865-36" v:mID="865" v:groupContext="shape" transform="translate(281.205,-118.213)">
			<title>Sheet.865</title>
			<path d="M0 335.64 L42.52 335.64" class="st2"/>
		</g>
		<g id="shape866-39" v:mID="866" v:groupContext="shape" transform="translate(-58.585,192.714) rotate(-75.9638)">
			<title>Sheet.866</title>
			<path d="M0 335.64 L58.44 335.64" class="st2"/>
		</g>
		<g id="shape867-42" v:mID="867" v:groupContext="shape" transform="translate(337.898,-61.5197)">
			<title>Sheet.867</title>
			<path d="M0 335.64 L42.52 335.64" class="st2"/>
		</g>
		<g id="shape868-45" v:mID="868" v:groupContext="shape" transform="translate(12.2812,355.522) rotate(-104.036)">
			<title>Sheet.868</title>
			<path d="M0 335.64 L58.44 335.64" class="st2"/>
		</g>
		<g id="shape869-48" v:mID="869" v:groupContext="shape" transform="translate(394.591,-118.213)">
			<title>Sheet.869</title>
			<path d="M0 335.64 L42.52 335.64" class="st2"/>
		</g>
		<g id="shape870-51" v:mID="870" v:groupContext="shape" transform="translate(54.8009,192.714) rotate(-75.9638)">
			<title>Sheet.870</title>
			<path d="M0 335.64 L58.44 335.64" class="st2"/>
		</g>
		<g id="shape871-54" v:mID="871" v:groupContext="shape" transform="translate(451.283,-61.5197)">
			<title>Sheet.871</title>
			<path d="M0 335.64 L42.52 335.64" class="st2"/>
		</g>
		<g id="shape872-57" v:mID="872" v:groupContext="shape" transform="translate(125.667,355.522) rotate(-104.036)">
			<title>Sheet.872</title>
			<path d="M0 335.64 L58.44 335.64" class="st2"/>
		</g>
		<g id="shape873-60" v:mID="873" v:groupContext="shape" transform="translate(507.976,-118.213)">
			<title>Sheet.873</title>
			<path d="M0 335.64 L42.52 335.64" class="st2"/>
		</g>
		<g id="shape874-63" v:mID="874" v:groupContext="shape" transform="translate(168.187,192.714) rotate(-75.9638)">
			<title>Sheet.874</title>
			<path d="M0 335.64 L58.44 335.64" class="st2"/>
		</g>
		<g id="shape875-66" v:mID="875" v:groupContext="shape" transform="translate(564.669,-61.5197)">
			<title>Sheet.875</title>
			<path d="M0 335.64 L42.52 335.64" class="st2"/>
		</g>
		<g id="shape876-69" v:mID="876" v:groupContext="shape" transform="translate(239.053,355.522) rotate(-104.036)">
			<title>Sheet.876</title>
			<path d="M0 335.64 L58.44 335.64" class="st2"/>
		</g>
		<g id="shape877-72" v:mID="877" v:groupContext="shape" transform="translate(621.362,-118.213)">
			<title>Sheet.877</title>
			<path d="M0 335.64 L77.95 335.64" class="st2"/>
		</g>
		<g id="shape878-75" v:mID="878" v:groupContext="shape" transform="translate(281.856,192.714) rotate(-75.9638)">
			<title>Sheet.878</title>
			<path d="M0 335.64 L58.44 335.64" class="st2"/>
		</g>
		<g id="shape879-78" v:mID="879" v:groupContext="shape" transform="translate(-118.213,288.291) rotate(-90)">
			<title>Sheet.879</title>
			<path d="M0 335.64 L127.56 335.64" class="st5"/>
		</g>
		<g id="shape880-81" v:mID="880" v:groupContext="shape" transform="translate(-4.82676,288.291) rotate(-90)">
			<title>Sheet.880</title>
			<path d="M0 335.64 L127.56 335.64" class="st5"/>
		</g>
		<g id="shape881-84" v:mID="881" v:groupContext="shape" transform="translate(108.559,288.291) rotate(-90)">
			<title>Sheet.881</title>
			<path d="M0 335.64 L127.56 335.64" class="st5"/>
		</g>
		<g id="shape882-87" v:mID="882" v:groupContext="shape" transform="translate(221.945,288.291) rotate(-90)">
			<title>Sheet.882</title>
			<path d="M0 335.64 L184.25 335.64" class="st5"/>
		</g>
		<g id="shape883-90" v:mID="883" v:groupContext="shape" transform="translate(217.425,-146.559)">
			<title>Sheet.883</title>
			<path d="M10.2 335.64 L10.56 335.64 L102.83 335.64" class="st3"/>
		</g>
		<g id="shape884-97" v:mID="884" v:groupContext="shape" transform="translate(330.811,-146.559)">
			<title>Sheet.884</title>
			<path d="M10.2 335.64 L10.56 335.64 L102.83 335.64" class="st3"/>
		</g>
		<g id="shape885-104" v:mID="885" v:groupContext="shape" transform="translate(444.197,-146.559)">
			<title>Sheet.885</title>
			<path d="M10.2 335.64 L10.56 335.64 L102.83 335.64" class="st3"/>
		</g>
		<g id="shape886-111" v:mID="886" v:groupContext="shape" transform="translate(104.039,-146.559)">
			<title>Sheet.886</title>
			<desc>2 Tbit</desc>
			<v:textBlock v:margins="rect(4,4,4,4)" v:tabSpace="42.5197"/>
			<v:textRect cx="56.6929" cy="321.465" width="113.39" height="28.3465"/>
			<rect x="0" y="307.291" width="113.386" height="28.3465" class="st6"/>
			<text x="34.24" y="326.86" class="st7" v:langID="2052"><v:paragraph v:horizAlign="1"/><v:tabList/>2 Tbit</text>		</g>
		<g id="shape887-114" v:mID="887" v:groupContext="shape" transform="translate(217.425,-146.559)">
			<title>Sheet.887</title>
			<desc>2 Tbit</desc>
			<v:textBlock v:margins="rect(4,4,4,4)" v:tabSpace="42.5197"/>
			<v:textRect cx="56.6929" cy="321.465" width="113.39" height="28.3465"/>
			<rect x="0" y="307.291" width="113.386" height="28.3465" class="st6"/>
			<text x="34.24" y="326.86" class="st7" v:langID="2052"><v:paragraph v:horizAlign="1"/><v:tabList/>2 Tbit</text>		</g>
		<g id="shape888-117" v:mID="888" v:groupContext="shape" transform="translate(330.811,-146.559)">
			<title>Sheet.888</title>
			<desc>2 Tbit</desc>
			<v:textBlock v:margins="rect(4,4,4,4)" v:tabSpace="42.5197"/>
			<v:textRect cx="56.6929" cy="321.465" width="113.39" height="28.3465"/>
			<rect x="0" y="307.291" width="113.386" height="28.3465" class="st6"/>
			<text x="34.24" y="326.86" class="st7" v:langID="2052"><v:paragraph v:horizAlign="1"/><v:tabList/>2 Tbit</text>		</g>
		<g id="shape889-120" v:mID="889" v:groupContext="shape" transform="translate(444.197,-146.559)">
			<title>Sheet.889</title>
			<desc>2 Tbit</desc>
			<v:textBlock v:margins="rect(4,4,4,4)" v:tabSpace="42.5197"/>
			<v:textRect cx="56.6929" cy="321.465" width="113.39" height="28.3465"/>
			<rect x="0" y="307.291" width="113.386" height="28.3465" class="st6"/>
			<text x="34.24" y="326.86" class="st7" v:langID="2052"><v:paragraph v:horizAlign="1"/><v:tabList/>2 Tbit</text>		</g>
		<g id="shape890-123" v:mID="890" v:groupContext="shape" transform="translate(104.039,-203.252)">
			<title>Sheet.890</title>
			<path d="M10.2 335.64 L10.56 335.64 L442.98 335.64" class="st3"/>
		</g>
		<g id="shape891-130" v:mID="891" v:groupContext="shape" transform="translate(104.039,-203.252)">
			<title>Sheet.891</title>
			<desc>8 Tbit</desc>
			<v:textBlock v:margins="rect(4,4,4,4)" v:tabSpace="42.5197"/>
			<v:textRect cx="226.772" cy="321.465" width="453.55" height="28.3465"/>
			<rect x="0" y="307.291" width="453.543" height="28.3465" class="st6"/>
			<text x="204.32" y="326.86" class="st7" v:langID="2052"><v:paragraph v:horizAlign="1"/><v:tabList/>8 Tbit</text>		</g>
		<g id="shape892-133" v:mID="892" v:groupContext="shape" transform="translate(335.331,288.291) rotate(-90)">
			<title>Sheet.892</title>
			<path d="M0 335.64 L240.94 335.64" class="st5"/>
		</g>
		<g id="shape893-136" v:mID="893" v:groupContext="shape" transform="translate(104.039,-259.945)">
			<title>Sheet.893</title>
			<path d="M10.2 335.64 L10.56 335.64 L556.37 335.64" class="st3"/>
		</g>
		<g id="shape894-143" v:mID="894" v:groupContext="shape" transform="translate(104.039,-259.945)">
			<title>Sheet.894</title>
			<desc>Synch Field</desc>
			<v:textBlock v:margins="rect(4,4,4,4)" v:tabSpace="42.5197"/>
			<v:textRect cx="283.465" cy="321.465" width="566.93" height="28.3465"/>
			<rect x="0" y="307.291" width="566.929" height="28.3465" class="st6"/>
			<text x="242.49" y="326.86" class="st8" v:langID="1033"><v:paragraph v:horizAlign="1"/><v:tabList/>Synch Field</text>		</g>
		<g id="shape895-146" v:mID="895" v:groupContext="shape" transform="translate(104.039,-61.5197)">
			<title>Sheet.895</title>
			<desc>Start bit</desc>
			<v:textBlock v:margins="rect(4,4,4,4)" v:tabSpace="42.5197"/>
			<v:textRect cx="28.3465" cy="307.291" width="56.7" height="56.6929"/>
			<rect x="0" y="278.945" width="56.6929" height="56.6929" class="st6"/>
			<text x="9.34" y="301.89" class="st7" v:langID="2052"><v:paragraph v:horizAlign="1"/><v:tabList/>Start<v:newlineChar/><tspan
						x="18.79" dy="1.2em" class="st9">bit</tspan></text>		</g>
		<g id="shape896-150" v:mID="896" v:groupContext="shape" transform="translate(614.276,-61.5197)">
			<title>Sheet.896</title>
			<desc>Stop bit</desc>
			<v:textBlock v:margins="rect(4,4,4,4)" v:tabSpace="42.5197"/>
			<v:textRect cx="28.3465" cy="307.291" width="56.7" height="56.6929"/>
			<rect x="0" y="278.945" width="56.6929" height="56.6929" class="st6"/>
			<text x="9.83" y="301.89" class="st7" v:langID="2052"><v:paragraph v:horizAlign="1"/><v:tabList/>Stop<v:newlineChar/><tspan
						x="18.79" dy="1.2em" class="st9">bit</tspan></text>		</g>
	</g>
</svg>
