<?xml version="1.0" encoding="UTF-8" standalone="no"?>
<!DOCTYPE svg PUBLIC "-//W3C//DTD SVG 1.1//EN" "http://www.w3.org/Graphics/SVG/1.1/DTD/svg11.dtd">
<!-- Generated by Microsoft Visio, SVG Export 发送器.svg Page-1 -->
<svg xmlns="http://www.w3.org/2000/svg" xmlns:xlink="http://www.w3.org/1999/xlink" xmlns:ev="http://www.w3.org/2001/xml-events"
		xmlns:v="http://schemas.microsoft.com/visio/2003/SVGExtensions/" width="11.4983in" height="4.85849in"
		viewBox="0 0 827.874 349.811" xml:space="preserve" color-interpolation-filters="sRGB" class="st10">
	<v:documentProperties v:langID="2052" v:metric="true" v:viewMarkup="false">
		<v:userDefs>
			<v:ud v:nameU="msvSubprocessMaster" v:prompt="" v:val="VT4(Rectangle)"/>
			<v:ud v:nameU="msvNoAutoConnect" v:val="VT0(1):26"/>
		</v:userDefs>
	</v:documentProperties>

	<style type="text/css">
	<![CDATA[
		.st1 {stroke:#000000;stroke-linecap:round;stroke-linejoin:round;stroke-width:1}
		.st2 {fill:none;stroke:none;stroke-width:0.25}
		.st3 {fill:#000000;font-family:Microsoft Sans Serif;font-size:1.16666em}
		.st4 {font-size:1em}
		.st5 {fill:none;stroke:#000000;stroke-width:1}
		.st6 {fill:#000000;font-family:Microsoft Sans Serif;font-size:1.00001em}
		.st7 {marker-end:url(#mrkr13-432);stroke:#000000;stroke-linecap:round;stroke-linejoin:round;stroke-width:1}
		.st8 {fill:#000000;fill-opacity:1;stroke:#000000;stroke-opacity:1;stroke-width:0.28409090909091}
		.st9 {fill:#000000;font-family:Calibri;font-size:1.16666em}
		.st10 {fill:none;fill-rule:evenodd;font-size:12px;overflow:visible;stroke-linecap:square;stroke-miterlimit:3}
	]]>
	</style>

	<defs id="Markers">
		<g id="lend13">
			<path d="M 3 1 L 0 0 L 3 -1 L 3 1 " style="stroke:none"/>
		</g>
		<marker id="mrkr13-432" class="st8" v:arrowType="13" v:arrowSize="2" v:setback="10.56" refX="-10.56" orient="auto"
				markerUnits="strokeWidth" overflow="visible">
			<use xlink:href="#lend13" transform="scale(-3.52,-3.52) "/>
		</marker>
	</defs>
	<g v:mID="0" v:index="1" v:groupContext="foregroundPage">
		<v:userDefs>
			<v:ud v:nameU="msvThemeOrder" v:val="VT0(0):26"/>
		</v:userDefs>
		<title>页-1</title>
		<v:pageProperties v:drawingScale="0.0393701" v:pageScale="0.0393701" v:drawingUnits="24" v:shadowOffsetX="8.50394"
				v:shadowOffsetY="-8.50394"/>
		<g id="shape1-1" v:mID="1" v:groupContext="shape" transform="translate(100.213,-274.118)">
			<title>Sheet.1</title>
			<path d="M0 349.81 L14.17 349.81" class="st1"/>
		</g>
		<g id="shape2-4" v:mID="2" v:groupContext="shape" transform="translate(-235.425,75.6929) rotate(-90)">
			<title>Sheet.2</title>
			<path d="M0 349.81 L28.35 349.81" class="st1"/>
		</g>
		<g id="shape3-7" v:mID="3" v:groupContext="shape" transform="translate(114.386,-302.465)">
			<title>Sheet.3</title>
			<path d="M0 349.81 L14.17 349.81" class="st1"/>
		</g>
		<g id="shape4-10" v:mID="4" v:groupContext="shape" transform="translate(-221.252,75.6929) rotate(-90)">
			<title>Sheet.4</title>
			<path d="M0 349.81 L28.35 349.81" class="st1"/>
		</g>
		<g id="shape501-13" v:mID="501" v:groupContext="shape" transform="translate(29.3465,-274.118)">
			<title>Sheet.501</title>
			<desc>Baudrate Clock</desc>
			<v:textBlock v:margins="rect(4,4,4,4)" v:tabSpace="42.5197"/>
			<v:textRect cx="35.4331" cy="335.638" width="70.87" height="28.3465"/>
			<rect x="0" y="321.465" width="70.8661" height="28.3465" class="st2"/>
			<text x="7.02" y="331.44" class="st3" v:langID="2052"><v:paragraph v:horizAlign="1"/><v:tabList/>Baudrate<v:newlineChar/><tspan
						x="17.89" dy="1.2em" class="st4">Clock</tspan></text>		</g>
		<g id="shape586-17" v:mID="586" v:groupContext="shape" transform="translate(19,-19)">
			<title>矩形</title>
			<v:userDefs>
				<v:ud v:nameU="visVersion" v:val="VT0(15):26"/>
			</v:userDefs>
			<rect x="0" y="38" width="789.874" height="311.811" class="st5"/>
		</g>
		<g id="shape587-19" v:mID="587" v:groupContext="shape" transform="translate(100.213,-252.858)">
			<title>Sheet.587</title>
			<path d="M0 349.81 L28.35 349.81" class="st1"/>
		</g>
		<g id="shape588-22" v:mID="588" v:groupContext="shape" transform="translate(-221.252,125.299) rotate(-90)">
			<title>Sheet.588</title>
			<path d="M0 349.81 L28.35 349.81" class="st1"/>
		</g>
		<g id="shape589-25" v:mID="589" v:groupContext="shape" transform="translate(128.559,-224.512)">
			<title>Sheet.589</title>
			<path d="M0 349.81 L28.35 349.81" class="st1"/>
		</g>
		<g id="shape590-28" v:mID="590" v:groupContext="shape" transform="translate(156.906,-224.512)">
			<title>矩形.590</title>
			<v:userDefs>
				<v:ud v:nameU="visVersion" v:val="VT0(15):26"/>
			</v:userDefs>
			<rect x="0" y="321.465" width="28.3465" height="28.3465" class="st5"/>
		</g>
		<g id="shape591-30" v:mID="591" v:groupContext="shape" transform="translate(128.559,-274.118)">
			<title>Sheet.591</title>
			<path d="M0 349.81 L14.17 349.81" class="st1"/>
		</g>
		<g id="shape592-33" v:mID="592" v:groupContext="shape" transform="translate(-207.079,75.6929) rotate(-90)">
			<title>Sheet.592</title>
			<path d="M0 349.81 L28.35 349.81" class="st1"/>
		</g>
		<g id="shape593-36" v:mID="593" v:groupContext="shape" transform="translate(142.732,-302.465)">
			<title>Sheet.593</title>
			<path d="M0 349.81 L14.17 349.81" class="st1"/>
		</g>
		<g id="shape594-39" v:mID="594" v:groupContext="shape" transform="translate(-192.906,75.6929) rotate(-90)">
			<title>Sheet.594</title>
			<path d="M0 349.81 L28.35 349.81" class="st1"/>
		</g>
		<g id="shape595-42" v:mID="595" v:groupContext="shape" transform="translate(156.905,-274.118)">
			<title>Sheet.595</title>
			<path d="M0 349.81 L14.17 349.81" class="st1"/>
		</g>
		<g id="shape596-45" v:mID="596" v:groupContext="shape" transform="translate(-178.732,75.6929) rotate(-90)">
			<title>Sheet.596</title>
			<path d="M0 349.81 L28.35 349.81" class="st1"/>
		</g>
		<g id="shape597-48" v:mID="597" v:groupContext="shape" transform="translate(171.079,-302.465)">
			<title>Sheet.597</title>
			<path d="M0 349.81 L14.17 349.81" class="st1"/>
		</g>
		<g id="shape598-51" v:mID="598" v:groupContext="shape" transform="translate(-164.559,75.6929) rotate(-90)">
			<title>Sheet.598</title>
			<path d="M0 349.81 L28.35 349.81" class="st1"/>
		</g>
		<g id="shape599-54" v:mID="599" v:groupContext="shape" transform="translate(185.252,-274.118)">
			<title>Sheet.599</title>
			<path d="M0 349.81 L14.17 349.81" class="st1"/>
		</g>
		<g id="shape600-57" v:mID="600" v:groupContext="shape" transform="translate(-150.386,75.6929) rotate(-90)">
			<title>Sheet.600</title>
			<path d="M0 349.81 L28.35 349.81" class="st1"/>
		</g>
		<g id="shape601-60" v:mID="601" v:groupContext="shape" transform="translate(199.425,-302.465)">
			<title>Sheet.601</title>
			<path d="M0 349.81 L14.17 349.81" class="st1"/>
		</g>
		<g id="shape602-63" v:mID="602" v:groupContext="shape" transform="translate(-136.213,75.6929) rotate(-90)">
			<title>Sheet.602</title>
			<path d="M0 349.81 L28.35 349.81" class="st1"/>
		</g>
		<g id="shape603-66" v:mID="603" v:groupContext="shape" transform="translate(213.598,-274.118)">
			<title>Sheet.603</title>
			<path d="M0 349.81 L14.17 349.81" class="st1"/>
		</g>
		<g id="shape604-69" v:mID="604" v:groupContext="shape" transform="translate(-122.039,75.6929) rotate(-90)">
			<title>Sheet.604</title>
			<path d="M0 349.81 L28.35 349.81" class="st1"/>
		</g>
		<g id="shape605-72" v:mID="605" v:groupContext="shape" transform="translate(227.772,-302.465)">
			<title>Sheet.605</title>
			<path d="M0 349.81 L14.17 349.81" class="st1"/>
		</g>
		<g id="shape606-75" v:mID="606" v:groupContext="shape" transform="translate(-107.866,75.6929) rotate(-90)">
			<title>Sheet.606</title>
			<path d="M0 349.81 L28.35 349.81" class="st1"/>
		</g>
		<g id="shape607-78" v:mID="607" v:groupContext="shape" transform="translate(241.945,-274.118)">
			<title>Sheet.607</title>
			<path d="M0 349.81 L14.17 349.81" class="st1"/>
		</g>
		<g id="shape608-81" v:mID="608" v:groupContext="shape" transform="translate(-93.6929,75.6929) rotate(-90)">
			<title>Sheet.608</title>
			<path d="M0 349.81 L28.35 349.81" class="st1"/>
		</g>
		<g id="shape609-84" v:mID="609" v:groupContext="shape" transform="translate(256.118,-302.465)">
			<title>Sheet.609</title>
			<path d="M0 349.81 L14.17 349.81" class="st1"/>
		</g>
		<g id="shape610-87" v:mID="610" v:groupContext="shape" transform="translate(-79.5197,75.6929) rotate(-90)">
			<title>Sheet.610</title>
			<path d="M0 349.81 L28.35 349.81" class="st1"/>
		</g>
		<g id="shape611-90" v:mID="611" v:groupContext="shape" transform="translate(270.291,-274.118)">
			<title>Sheet.611</title>
			<path d="M0 349.81 L14.17 349.81" class="st1"/>
		</g>
		<g id="shape612-93" v:mID="612" v:groupContext="shape" transform="translate(-65.3465,75.6929) rotate(-90)">
			<title>Sheet.612</title>
			<path d="M0 349.81 L28.35 349.81" class="st1"/>
		</g>
		<g id="shape613-96" v:mID="613" v:groupContext="shape" transform="translate(284.465,-302.465)">
			<title>Sheet.613</title>
			<path d="M0 349.81 L14.17 349.81" class="st1"/>
		</g>
		<g id="shape614-99" v:mID="614" v:groupContext="shape" transform="translate(-51.1732,75.6929) rotate(-90)">
			<title>Sheet.614</title>
			<path d="M0 349.81 L28.35 349.81" class="st1"/>
		</g>
		<g id="shape615-102" v:mID="615" v:groupContext="shape" transform="translate(298.638,-274.118)">
			<title>Sheet.615</title>
			<path d="M0 349.81 L14.17 349.81" class="st1"/>
		</g>
		<g id="shape616-105" v:mID="616" v:groupContext="shape" transform="translate(-37,75.6929) rotate(-90)">
			<title>Sheet.616</title>
			<path d="M0 349.81 L28.35 349.81" class="st1"/>
		</g>
		<g id="shape617-108" v:mID="617" v:groupContext="shape" transform="translate(312.811,-302.465)">
			<title>Sheet.617</title>
			<path d="M0 349.81 L14.17 349.81" class="st1"/>
		</g>
		<g id="shape618-111" v:mID="618" v:groupContext="shape" transform="translate(-22.8267,75.6929) rotate(-90)">
			<title>Sheet.618</title>
			<path d="M0 349.81 L28.35 349.81" class="st1"/>
		</g>
		<g id="shape619-114" v:mID="619" v:groupContext="shape" transform="translate(326.984,-274.118)">
			<title>Sheet.619</title>
			<path d="M0 349.81 L14.17 349.81" class="st1"/>
		</g>
		<g id="shape620-117" v:mID="620" v:groupContext="shape" transform="translate(-8.65354,75.6929) rotate(-90)">
			<title>Sheet.620</title>
			<path d="M0 349.81 L28.35 349.81" class="st1"/>
		</g>
		<g id="shape621-120" v:mID="621" v:groupContext="shape" transform="translate(341.157,-302.465)">
			<title>Sheet.621</title>
			<path d="M0 349.81 L14.17 349.81" class="st1"/>
		</g>
		<g id="shape622-123" v:mID="622" v:groupContext="shape" transform="translate(5.51967,75.6929) rotate(-90)">
			<title>Sheet.622</title>
			<path d="M0 349.81 L28.35 349.81" class="st1"/>
		</g>
		<g id="shape623-126" v:mID="623" v:groupContext="shape" transform="translate(355.331,-274.118)">
			<title>Sheet.623</title>
			<path d="M0 349.81 L14.17 349.81" class="st1"/>
		</g>
		<g id="shape624-129" v:mID="624" v:groupContext="shape" transform="translate(19.693,75.6929) rotate(-90)">
			<title>Sheet.624</title>
			<path d="M0 349.81 L28.35 349.81" class="st1"/>
		</g>
		<g id="shape625-132" v:mID="625" v:groupContext="shape" transform="translate(369.504,-302.465)">
			<title>Sheet.625</title>
			<path d="M0 349.81 L14.17 349.81" class="st1"/>
		</g>
		<g id="shape626-135" v:mID="626" v:groupContext="shape" transform="translate(33.8662,75.6929) rotate(-90)">
			<title>Sheet.626</title>
			<path d="M0 349.81 L28.35 349.81" class="st1"/>
		</g>
		<g id="shape627-138" v:mID="627" v:groupContext="shape" transform="translate(383.677,-274.118)">
			<title>Sheet.627</title>
			<path d="M0 349.81 L14.17 349.81" class="st1"/>
		</g>
		<g id="shape628-141" v:mID="628" v:groupContext="shape" transform="translate(48.0394,75.6929) rotate(-90)">
			<title>Sheet.628</title>
			<path d="M0 349.81 L28.35 349.81" class="st1"/>
		</g>
		<g id="shape629-144" v:mID="629" v:groupContext="shape" transform="translate(397.85,-302.465)">
			<title>Sheet.629</title>
			<path d="M0 349.81 L14.17 349.81" class="st1"/>
		</g>
		<g id="shape630-147" v:mID="630" v:groupContext="shape" transform="translate(62.2126,75.6929) rotate(-90)">
			<title>Sheet.630</title>
			<path d="M0 349.81 L28.35 349.81" class="st1"/>
		</g>
		<g id="shape631-150" v:mID="631" v:groupContext="shape" transform="translate(412.024,-274.118)">
			<title>Sheet.631</title>
			<path d="M0 349.81 L14.17 349.81" class="st1"/>
		</g>
		<g id="shape632-153" v:mID="632" v:groupContext="shape" transform="translate(76.3859,75.6929) rotate(-90)">
			<title>Sheet.632</title>
			<path d="M0 349.81 L28.35 349.81" class="st1"/>
		</g>
		<g id="shape633-156" v:mID="633" v:groupContext="shape" transform="translate(426.197,-302.465)">
			<title>Sheet.633</title>
			<path d="M0 349.81 L14.17 349.81" class="st1"/>
		</g>
		<g id="shape634-159" v:mID="634" v:groupContext="shape" transform="translate(90.5591,75.6929) rotate(-90)">
			<title>Sheet.634</title>
			<path d="M0 349.81 L28.35 349.81" class="st1"/>
		</g>
		<g id="shape635-162" v:mID="635" v:groupContext="shape" transform="translate(440.37,-274.118)">
			<title>Sheet.635</title>
			<path d="M0 349.81 L14.17 349.81" class="st1"/>
		</g>
		<g id="shape636-165" v:mID="636" v:groupContext="shape" transform="translate(104.732,75.6929) rotate(-90)">
			<title>Sheet.636</title>
			<path d="M0 349.81 L28.35 349.81" class="st1"/>
		</g>
		<g id="shape637-168" v:mID="637" v:groupContext="shape" transform="translate(454.543,-302.465)">
			<title>Sheet.637</title>
			<path d="M0 349.81 L14.17 349.81" class="st1"/>
		</g>
		<g id="shape638-171" v:mID="638" v:groupContext="shape" transform="translate(118.906,75.6929) rotate(-90)">
			<title>Sheet.638</title>
			<path d="M0 349.81 L28.35 349.81" class="st1"/>
		</g>
		<g id="shape639-174" v:mID="639" v:groupContext="shape" transform="translate(468.717,-274.118)">
			<title>Sheet.639</title>
			<path d="M0 349.81 L14.17 349.81" class="st1"/>
		</g>
		<g id="shape640-177" v:mID="640" v:groupContext="shape" transform="translate(133.079,75.6929) rotate(-90)">
			<title>Sheet.640</title>
			<path d="M0 349.81 L28.35 349.81" class="st1"/>
		</g>
		<g id="shape641-180" v:mID="641" v:groupContext="shape" transform="translate(482.89,-302.465)">
			<title>Sheet.641</title>
			<path d="M0 349.81 L14.17 349.81" class="st1"/>
		</g>
		<g id="shape642-183" v:mID="642" v:groupContext="shape" transform="translate(147.252,75.6929) rotate(-90)">
			<title>Sheet.642</title>
			<path d="M0 349.81 L28.35 349.81" class="st1"/>
		</g>
		<g id="shape643-186" v:mID="643" v:groupContext="shape" transform="translate(497.063,-274.118)">
			<title>Sheet.643</title>
			<path d="M0 349.81 L14.17 349.81" class="st1"/>
		</g>
		<g id="shape644-189" v:mID="644" v:groupContext="shape" transform="translate(161.425,75.6929) rotate(-90)">
			<title>Sheet.644</title>
			<path d="M0 349.81 L28.35 349.81" class="st1"/>
		</g>
		<g id="shape645-192" v:mID="645" v:groupContext="shape" transform="translate(511.236,-302.465)">
			<title>Sheet.645</title>
			<path d="M0 349.81 L14.17 349.81" class="st1"/>
		</g>
		<g id="shape646-195" v:mID="646" v:groupContext="shape" transform="translate(175.598,75.6929) rotate(-90)">
			<title>Sheet.646</title>
			<path d="M0 349.81 L28.35 349.81" class="st1"/>
		</g>
		<g id="shape647-198" v:mID="647" v:groupContext="shape" transform="translate(525.41,-274.118)">
			<title>Sheet.647</title>
			<path d="M0 349.81 L14.17 349.81" class="st1"/>
		</g>
		<g id="shape648-201" v:mID="648" v:groupContext="shape" transform="translate(189.772,75.6929) rotate(-90)">
			<title>Sheet.648</title>
			<path d="M0 349.81 L28.35 349.81" class="st1"/>
		</g>
		<g id="shape649-204" v:mID="649" v:groupContext="shape" transform="translate(539.583,-302.465)">
			<title>Sheet.649</title>
			<path d="M0 349.81 L14.17 349.81" class="st1"/>
		</g>
		<g id="shape650-207" v:mID="650" v:groupContext="shape" transform="translate(203.945,75.6929) rotate(-90)">
			<title>Sheet.650</title>
			<path d="M0 349.81 L28.35 349.81" class="st1"/>
		</g>
		<g id="shape651-210" v:mID="651" v:groupContext="shape" transform="translate(553.756,-274.118)">
			<title>Sheet.651</title>
			<path d="M0 349.81 L14.17 349.81" class="st1"/>
		</g>
		<g id="shape652-213" v:mID="652" v:groupContext="shape" transform="translate(218.118,75.6929) rotate(-90)">
			<title>Sheet.652</title>
			<path d="M0 349.81 L28.35 349.81" class="st1"/>
		</g>
		<g id="shape653-216" v:mID="653" v:groupContext="shape" transform="translate(567.929,-302.465)">
			<title>Sheet.653</title>
			<path d="M0 349.81 L14.17 349.81" class="st1"/>
		</g>
		<g id="shape654-219" v:mID="654" v:groupContext="shape" transform="translate(232.291,75.6929) rotate(-90)">
			<title>Sheet.654</title>
			<path d="M0 349.81 L28.35 349.81" class="st1"/>
		</g>
		<g id="shape655-222" v:mID="655" v:groupContext="shape" transform="translate(582.102,-274.118)">
			<title>Sheet.655</title>
			<path d="M0 349.81 L14.17 349.81" class="st1"/>
		</g>
		<g id="shape656-225" v:mID="656" v:groupContext="shape" transform="translate(246.465,75.6929) rotate(-90)">
			<title>Sheet.656</title>
			<path d="M0 349.81 L28.35 349.81" class="st1"/>
		</g>
		<g id="shape657-228" v:mID="657" v:groupContext="shape" transform="translate(596.276,-302.465)">
			<title>Sheet.657</title>
			<path d="M0 349.81 L14.17 349.81" class="st1"/>
		</g>
		<g id="shape658-231" v:mID="658" v:groupContext="shape" transform="translate(260.638,75.6929) rotate(-90)">
			<title>Sheet.658</title>
			<path d="M0 349.81 L28.35 349.81" class="st1"/>
		</g>
		<g id="shape659-234" v:mID="659" v:groupContext="shape" transform="translate(610.449,-274.118)">
			<title>Sheet.659</title>
			<path d="M0 349.81 L14.17 349.81" class="st1"/>
		</g>
		<g id="shape660-237" v:mID="660" v:groupContext="shape" transform="translate(274.811,75.6929) rotate(-90)">
			<title>Sheet.660</title>
			<path d="M0 349.81 L28.35 349.81" class="st1"/>
		</g>
		<g id="shape661-240" v:mID="661" v:groupContext="shape" transform="translate(624.622,-302.465)">
			<title>Sheet.661</title>
			<path d="M0 349.81 L14.17 349.81" class="st1"/>
		</g>
		<g id="shape662-243" v:mID="662" v:groupContext="shape" transform="translate(288.984,75.6929) rotate(-90)">
			<title>Sheet.662</title>
			<path d="M0 349.81 L28.35 349.81" class="st1"/>
		</g>
		<g id="shape663-246" v:mID="663" v:groupContext="shape" transform="translate(638.795,-274.118)">
			<title>Sheet.663</title>
			<path d="M0 349.81 L14.17 349.81" class="st1"/>
		</g>
		<g id="shape664-249" v:mID="664" v:groupContext="shape" transform="translate(303.157,75.6929) rotate(-90)">
			<title>Sheet.664</title>
			<path d="M0 349.81 L28.35 349.81" class="st1"/>
		</g>
		<g id="shape665-252" v:mID="665" v:groupContext="shape" transform="translate(652.968,-302.465)">
			<title>Sheet.665</title>
			<path d="M0 349.81 L14.17 349.81" class="st1"/>
		</g>
		<g id="shape666-255" v:mID="666" v:groupContext="shape" transform="translate(317.331,75.6929) rotate(-90)">
			<title>Sheet.666</title>
			<path d="M0 349.81 L28.35 349.81" class="st1"/>
		</g>
		<g id="shape667-258" v:mID="667" v:groupContext="shape" transform="translate(667.142,-274.118)">
			<title>Sheet.667</title>
			<path d="M0 349.81 L14.17 349.81" class="st1"/>
		</g>
		<g id="shape668-261" v:mID="668" v:groupContext="shape" transform="translate(331.504,75.6929) rotate(-90)">
			<title>Sheet.668</title>
			<path d="M0 349.81 L28.35 349.81" class="st1"/>
		</g>
		<g id="shape669-264" v:mID="669" v:groupContext="shape" transform="translate(681.315,-302.465)">
			<title>Sheet.669</title>
			<path d="M0 349.81 L14.17 349.81" class="st1"/>
		</g>
		<g id="shape670-267" v:mID="670" v:groupContext="shape" transform="translate(345.677,75.6929) rotate(-90)">
			<title>Sheet.670</title>
			<path d="M0 349.81 L28.35 349.81" class="st1"/>
		</g>
		<g id="shape671-270" v:mID="671" v:groupContext="shape" transform="translate(695.488,-274.118)">
			<title>Sheet.671</title>
			<path d="M0 349.81 L14.17 349.81" class="st1"/>
		</g>
		<g id="shape672-273" v:mID="672" v:groupContext="shape" transform="translate(359.85,75.6929) rotate(-90)">
			<title>Sheet.672</title>
			<path d="M0 349.81 L28.35 349.81" class="st1"/>
		</g>
		<g id="shape673-276" v:mID="673" v:groupContext="shape" transform="translate(709.661,-302.465)">
			<title>Sheet.673</title>
			<path d="M0 349.81 L14.17 349.81" class="st1"/>
		</g>
		<g id="shape674-279" v:mID="674" v:groupContext="shape" transform="translate(374.024,75.6929) rotate(-90)">
			<title>Sheet.674</title>
			<path d="M0 349.81 L28.35 349.81" class="st1"/>
		</g>
		<g id="shape675-282" v:mID="675" v:groupContext="shape" transform="translate(723.835,-274.118)">
			<title>Sheet.675</title>
			<path d="M0 349.81 L14.17 349.81" class="st1"/>
		</g>
		<g id="shape676-285" v:mID="676" v:groupContext="shape" transform="translate(388.197,75.6929) rotate(-90)">
			<title>Sheet.676</title>
			<path d="M0 349.81 L28.35 349.81" class="st1"/>
		</g>
		<g id="shape677-288" v:mID="677" v:groupContext="shape" transform="translate(738.008,-302.465)">
			<title>Sheet.677</title>
			<path d="M0 349.81 L14.17 349.81" class="st1"/>
		</g>
		<g id="shape678-291" v:mID="678" v:groupContext="shape" transform="translate(402.37,75.6929) rotate(-90)">
			<title>Sheet.678</title>
			<path d="M0 349.81 L28.35 349.81" class="st1"/>
		</g>
		<g id="shape679-294" v:mID="679" v:groupContext="shape" transform="translate(752.181,-274.118)">
			<title>Sheet.679</title>
			<path d="M0 349.81 L14.17 349.81" class="st1"/>
		</g>
		<g id="shape680-297" v:mID="680" v:groupContext="shape" transform="translate(416.543,75.6929) rotate(-90)">
			<title>Sheet.680</title>
			<path d="M0 349.81 L28.35 349.81" class="st1"/>
		</g>
		<g id="shape681-300" v:mID="681" v:groupContext="shape" transform="translate(766.354,-302.465)">
			<title>Sheet.681</title>
			<path d="M0 349.81 L14.17 349.81" class="st1"/>
		</g>
		<g id="shape682-303" v:mID="682" v:groupContext="shape" transform="translate(430.717,75.6929) rotate(-90)">
			<title>Sheet.682</title>
			<path d="M0 349.81 L28.35 349.81" class="st1"/>
		</g>
		<g id="shape683-306" v:mID="683" v:groupContext="shape" transform="translate(185.252,-224.512)">
			<title>矩形.683</title>
			<v:userDefs>
				<v:ud v:nameU="visVersion" v:val="VT0(15):26"/>
			</v:userDefs>
			<rect x="0" y="321.465" width="28.3465" height="28.3465" class="st5"/>
		</g>
		<g id="shape684-308" v:mID="684" v:groupContext="shape" transform="translate(213.598,-224.512)">
			<title>矩形.684</title>
			<v:userDefs>
				<v:ud v:nameU="visVersion" v:val="VT0(15):26"/>
			</v:userDefs>
			<rect x="0" y="321.465" width="28.3465" height="28.3465" class="st5"/>
		</g>
		<g id="shape685-310" v:mID="685" v:groupContext="shape" transform="translate(241.945,-224.512)">
			<title>矩形.685</title>
			<v:userDefs>
				<v:ud v:nameU="visVersion" v:val="VT0(15):26"/>
			</v:userDefs>
			<rect x="0" y="321.465" width="28.3465" height="28.3465" class="st5"/>
		</g>
		<g id="shape686-312" v:mID="686" v:groupContext="shape" transform="translate(270.291,-224.512)">
			<title>矩形.686</title>
			<v:userDefs>
				<v:ud v:nameU="visVersion" v:val="VT0(15):26"/>
			</v:userDefs>
			<rect x="0" y="321.465" width="28.3465" height="28.3465" class="st5"/>
		</g>
		<g id="shape687-314" v:mID="687" v:groupContext="shape" transform="translate(298.638,-224.512)">
			<title>矩形.687</title>
			<v:userDefs>
				<v:ud v:nameU="visVersion" v:val="VT0(15):26"/>
			</v:userDefs>
			<rect x="0" y="321.465" width="28.3465" height="28.3465" class="st5"/>
		</g>
		<g id="shape688-316" v:mID="688" v:groupContext="shape" transform="translate(326.984,-224.512)">
			<title>矩形.688</title>
			<v:userDefs>
				<v:ud v:nameU="visVersion" v:val="VT0(15):26"/>
			</v:userDefs>
			<rect x="0" y="321.465" width="28.3465" height="28.3465" class="st5"/>
		</g>
		<g id="shape689-318" v:mID="689" v:groupContext="shape" transform="translate(355.331,-224.512)">
			<title>矩形.689</title>
			<v:userDefs>
				<v:ud v:nameU="visVersion" v:val="VT0(15):26"/>
			</v:userDefs>
			<rect x="0" y="321.465" width="28.3465" height="28.3465" class="st5"/>
		</g>
		<g id="shape690-320" v:mID="690" v:groupContext="shape" transform="translate(383.677,-224.512)">
			<title>矩形.690</title>
			<v:userDefs>
				<v:ud v:nameU="visVersion" v:val="VT0(15):26"/>
			</v:userDefs>
			<rect x="0" y="321.465" width="28.3465" height="28.3465" class="st5"/>
		</g>
		<g id="shape694-322" v:mID="694" v:groupContext="shape" transform="translate(468.717,-224.512)">
			<title>矩形.694</title>
			<v:userDefs>
				<v:ud v:nameU="visVersion" v:val="VT0(15):26"/>
			</v:userDefs>
			<rect x="0" y="321.465" width="28.3465" height="28.3465" class="st5"/>
		</g>
		<g id="shape695-324" v:mID="695" v:groupContext="shape" transform="translate(497.063,-224.512)">
			<title>矩形.695</title>
			<v:userDefs>
				<v:ud v:nameU="visVersion" v:val="VT0(15):26"/>
			</v:userDefs>
			<rect x="0" y="321.465" width="28.3465" height="28.3465" class="st5"/>
		</g>
		<g id="shape696-326" v:mID="696" v:groupContext="shape" transform="translate(525.409,-224.512)">
			<title>矩形.696</title>
			<v:userDefs>
				<v:ud v:nameU="visVersion" v:val="VT0(15):26"/>
			</v:userDefs>
			<rect x="0" y="321.465" width="28.3465" height="28.3465" class="st5"/>
		</g>
		<g id="shape697-328" v:mID="697" v:groupContext="shape" transform="translate(553.756,-224.512)">
			<title>矩形.697</title>
			<v:userDefs>
				<v:ud v:nameU="visVersion" v:val="VT0(15):26"/>
			</v:userDefs>
			<rect x="0" y="321.465" width="28.3465" height="28.3465" class="st5"/>
		</g>
		<g id="shape698-330" v:mID="698" v:groupContext="shape" transform="translate(582.102,-224.512)">
			<title>矩形.698</title>
			<v:userDefs>
				<v:ud v:nameU="visVersion" v:val="VT0(15):26"/>
			</v:userDefs>
			<rect x="0" y="321.465" width="28.3465" height="28.3465" class="st5"/>
		</g>
		<g id="shape699-332" v:mID="699" v:groupContext="shape" transform="translate(610.449,-224.512)">
			<title>矩形.699</title>
			<v:userDefs>
				<v:ud v:nameU="visVersion" v:val="VT0(15):26"/>
			</v:userDefs>
			<rect x="0" y="321.465" width="28.3465" height="28.3465" class="st5"/>
		</g>
		<g id="shape700-334" v:mID="700" v:groupContext="shape" transform="translate(412.024,-252.858)">
			<title>Sheet.700</title>
			<path d="M0 349.81 L28.35 349.81" class="st1"/>
		</g>
		<g id="shape701-337" v:mID="701" v:groupContext="shape" transform="translate(440.37,-224.512)">
			<title>Sheet.701</title>
			<path d="M0 349.81 L28.35 349.81" class="st1"/>
		</g>
		<g id="shape702-340" v:mID="702" v:groupContext="shape" transform="translate(90.559,125.299) rotate(-90)">
			<title>Sheet.702</title>
			<path d="M0 349.81 L28.35 349.81" class="st1"/>
		</g>
		<g id="shape703-343" v:mID="703" v:groupContext="shape" transform="translate(638.795,-224.512)">
			<title>矩形.703</title>
			<v:userDefs>
				<v:ud v:nameU="visVersion" v:val="VT0(15):26"/>
			</v:userDefs>
			<rect x="0" y="321.465" width="28.3465" height="28.3465" class="st5"/>
		</g>
		<g id="shape704-345" v:mID="704" v:groupContext="shape" transform="translate(667.142,-224.512)">
			<title>矩形.704</title>
			<v:userDefs>
				<v:ud v:nameU="visVersion" v:val="VT0(15):26"/>
			</v:userDefs>
			<rect x="0" y="321.465" width="28.3465" height="28.3465" class="st5"/>
		</g>
		<g id="shape705-347" v:mID="705" v:groupContext="shape" transform="translate(695.488,-224.512)">
			<title>矩形.705</title>
			<v:userDefs>
				<v:ud v:nameU="visVersion" v:val="VT0(15):26"/>
			</v:userDefs>
			<rect x="0" y="321.465" width="28.3465" height="28.3465" class="st5"/>
		</g>
		<g id="shape706-349" v:mID="706" v:groupContext="shape" transform="translate(723.835,-252.858)">
			<title>Sheet.706</title>
			<path d="M0 349.81 L56.69 349.81" class="st1"/>
		</g>
		<g id="shape707-352" v:mID="707" v:groupContext="shape" transform="translate(128.559,-196.165)">
			<title>Sheet.707</title>
			<desc>Start</desc>
			<v:textBlock v:margins="rect(4,4,4,4)" v:tabSpace="42.5197"/>
			<v:textRect cx="14.1732" cy="335.638" width="28.35" height="28.3465"/>
			<rect x="0" y="321.465" width="28.3465" height="28.3465" class="st2"/>
			<text x="5.17" y="332.04" class="st6" v:langID="2052"><v:paragraph v:horizAlign="1"/><v:tabList/>Sta<tspan x="10.51"
						dy="1.2em" class="st4">rt</tspan></text>		</g>
		<g id="shape708-356" v:mID="708" v:groupContext="shape" transform="translate(156.906,-196.165)">
			<title>Sheet.708</title>
			<desc>D0</desc>
			<v:textBlock v:margins="rect(4,4,4,4)" v:tabSpace="42.5197"/>
			<v:textRect cx="14.1732" cy="335.638" width="28.35" height="28.3465"/>
			<rect x="0" y="321.465" width="28.3465" height="28.3465" class="st2"/>
			<text x="5.23" y="339.84" class="st3" v:langID="2052"><v:paragraph v:horizAlign="1"/><v:tabList/>D0</text>		</g>
		<g id="shape709-359" v:mID="709" v:groupContext="shape" transform="translate(185.252,-196.165)">
			<title>Sheet.709</title>
			<desc>D1</desc>
			<v:textBlock v:margins="rect(4,4,4,4)" v:tabSpace="42.5197"/>
			<v:textRect cx="14.1732" cy="335.638" width="28.35" height="28.3465"/>
			<rect x="0" y="321.465" width="28.3465" height="28.3465" class="st2"/>
			<text x="5.23" y="339.84" class="st3" v:langID="2052"><v:paragraph v:horizAlign="1"/><v:tabList/>D1</text>		</g>
		<g id="shape710-362" v:mID="710" v:groupContext="shape" transform="translate(213.598,-196.165)">
			<title>Sheet.710</title>
			<desc>D2</desc>
			<v:textBlock v:margins="rect(4,4,4,4)" v:tabSpace="42.5197"/>
			<v:textRect cx="14.1732" cy="335.638" width="28.35" height="28.3465"/>
			<rect x="0" y="321.465" width="28.3465" height="28.3465" class="st2"/>
			<text x="5.23" y="339.84" class="st3" v:langID="2052"><v:paragraph v:horizAlign="1"/><v:tabList/>D2</text>		</g>
		<g id="shape711-365" v:mID="711" v:groupContext="shape" transform="translate(241.945,-196.165)">
			<title>Sheet.711</title>
			<desc>D3</desc>
			<v:textBlock v:margins="rect(4,4,4,4)" v:tabSpace="42.5197"/>
			<v:textRect cx="14.1732" cy="335.638" width="28.35" height="28.3465"/>
			<rect x="0" y="321.465" width="28.3465" height="28.3465" class="st2"/>
			<text x="5.23" y="339.84" class="st3" v:langID="2052"><v:paragraph v:horizAlign="1"/><v:tabList/>D3</text>		</g>
		<g id="shape712-368" v:mID="712" v:groupContext="shape" transform="translate(270.291,-196.165)">
			<title>Sheet.712</title>
			<desc>D4</desc>
			<v:textBlock v:margins="rect(4,4,4,4)" v:tabSpace="42.5197"/>
			<v:textRect cx="14.1732" cy="335.638" width="28.35" height="28.3465"/>
			<rect x="0" y="321.465" width="28.3465" height="28.3465" class="st2"/>
			<text x="5.23" y="339.84" class="st3" v:langID="2052"><v:paragraph v:horizAlign="1"/><v:tabList/>D4</text>		</g>
		<g id="shape713-371" v:mID="713" v:groupContext="shape" transform="translate(298.638,-196.165)">
			<title>Sheet.713</title>
			<desc>D5</desc>
			<v:textBlock v:margins="rect(4,4,4,4)" v:tabSpace="42.5197"/>
			<v:textRect cx="14.1732" cy="335.638" width="28.35" height="28.3465"/>
			<rect x="0" y="321.465" width="28.3465" height="28.3465" class="st2"/>
			<text x="5.23" y="339.84" class="st3" v:langID="2052"><v:paragraph v:horizAlign="1"/><v:tabList/>D5</text>		</g>
		<g id="shape714-374" v:mID="714" v:groupContext="shape" transform="translate(326.984,-196.165)">
			<title>Sheet.714</title>
			<desc>D6</desc>
			<v:textBlock v:margins="rect(4,4,4,4)" v:tabSpace="42.5197"/>
			<v:textRect cx="14.1732" cy="335.638" width="28.35" height="28.3465"/>
			<rect x="0" y="321.465" width="28.3465" height="28.3465" class="st2"/>
			<text x="5.23" y="339.84" class="st3" v:langID="2052"><v:paragraph v:horizAlign="1"/><v:tabList/>D6</text>		</g>
		<g id="shape715-377" v:mID="715" v:groupContext="shape" transform="translate(355.331,-196.165)">
			<title>Sheet.715</title>
			<desc>D7</desc>
			<v:textBlock v:margins="rect(4,4,4,4)" v:tabSpace="42.5197"/>
			<v:textRect cx="14.1732" cy="335.638" width="28.35" height="28.3465"/>
			<rect x="0" y="321.465" width="28.3465" height="28.3465" class="st2"/>
			<text x="5.23" y="339.84" class="st3" v:langID="2052"><v:paragraph v:horizAlign="1"/><v:tabList/>D7</text>		</g>
		<g id="shape716-380" v:mID="716" v:groupContext="shape" transform="translate(383.677,-196.165)">
			<title>Sheet.716</title>
			<desc>Parity</desc>
			<v:textBlock v:margins="rect(4,4,4,4)" v:tabSpace="42.5197"/>
			<v:textRect cx="14.1732" cy="335.638" width="28.35" height="28.3465"/>
			<rect x="0" y="321.465" width="28.3465" height="28.3465" class="st2"/>
			<text x="4.84" y="332.04" class="st6" v:langID="2052"><v:paragraph v:horizAlign="1"/><v:tabList/>Par<tspan x="8.14"
						dy="1.2em" class="st4">ity</tspan></text>		</g>
		<g id="shape717-384" v:mID="717" v:groupContext="shape" transform="translate(412.024,-196.165)">
			<title>Sheet.717</title>
			<desc>Stop</desc>
			<v:textBlock v:margins="rect(4,4,4,4)" v:tabSpace="42.5197"/>
			<v:textRect cx="14.1732" cy="335.638" width="28.35" height="28.3465"/>
			<rect x="0" y="321.465" width="28.3465" height="28.3465" class="st2"/>
			<text x="5.17" y="332.04" class="st6" v:langID="2052"><v:paragraph v:horizAlign="1"/><v:tabList/>Sto<tspan x="10.84"
						dy="1.2em" class="st4">p</tspan></text>		</g>
		<g id="shape718-388" v:mID="718" v:groupContext="shape" transform="translate(440.37,-196.165)">
			<title>Sheet.718</title>
			<desc>Start</desc>
			<v:textBlock v:margins="rect(4,4,4,4)" v:tabSpace="42.5197"/>
			<v:textRect cx="14.1732" cy="335.638" width="28.35" height="28.3465"/>
			<rect x="0" y="321.465" width="28.3465" height="28.3465" class="st2"/>
			<text x="5.17" y="332.04" class="st6" v:langID="2052"><v:paragraph v:horizAlign="1"/><v:tabList/>Sta<tspan x="10.51"
						dy="1.2em" class="st4">rt</tspan></text>		</g>
		<g id="shape719-392" v:mID="719" v:groupContext="shape" transform="translate(468.717,-196.165)">
			<title>Sheet.719</title>
			<desc>D0</desc>
			<v:textBlock v:margins="rect(4,4,4,4)" v:tabSpace="42.5197"/>
			<v:textRect cx="14.1732" cy="335.638" width="28.35" height="28.3465"/>
			<rect x="0" y="321.465" width="28.3465" height="28.3465" class="st2"/>
			<text x="5.23" y="339.84" class="st3" v:langID="2052"><v:paragraph v:horizAlign="1"/><v:tabList/>D0</text>		</g>
		<g id="shape720-395" v:mID="720" v:groupContext="shape" transform="translate(497.063,-196.165)">
			<title>Sheet.720</title>
			<desc>D1</desc>
			<v:textBlock v:margins="rect(4,4,4,4)" v:tabSpace="42.5197"/>
			<v:textRect cx="14.1732" cy="335.638" width="28.35" height="28.3465"/>
			<rect x="0" y="321.465" width="28.3465" height="28.3465" class="st2"/>
			<text x="5.23" y="339.84" class="st3" v:langID="2052"><v:paragraph v:horizAlign="1"/><v:tabList/>D1</text>		</g>
		<g id="shape721-398" v:mID="721" v:groupContext="shape" transform="translate(525.409,-196.165)">
			<title>Sheet.721</title>
			<desc>D2</desc>
			<v:textBlock v:margins="rect(4,4,4,4)" v:tabSpace="42.5197"/>
			<v:textRect cx="14.1732" cy="335.638" width="28.35" height="28.3465"/>
			<rect x="0" y="321.465" width="28.3465" height="28.3465" class="st2"/>
			<text x="5.23" y="339.84" class="st3" v:langID="2052"><v:paragraph v:horizAlign="1"/><v:tabList/>D2</text>		</g>
		<g id="shape722-401" v:mID="722" v:groupContext="shape" transform="translate(553.756,-196.165)">
			<title>Sheet.722</title>
			<desc>D3</desc>
			<v:textBlock v:margins="rect(4,4,4,4)" v:tabSpace="42.5197"/>
			<v:textRect cx="14.1732" cy="335.638" width="28.35" height="28.3465"/>
			<rect x="0" y="321.465" width="28.3465" height="28.3465" class="st2"/>
			<text x="5.23" y="339.84" class="st3" v:langID="2052"><v:paragraph v:horizAlign="1"/><v:tabList/>D3</text>		</g>
		<g id="shape723-404" v:mID="723" v:groupContext="shape" transform="translate(582.102,-196.165)">
			<title>Sheet.723</title>
			<desc>D4</desc>
			<v:textBlock v:margins="rect(4,4,4,4)" v:tabSpace="42.5197"/>
			<v:textRect cx="14.1732" cy="335.638" width="28.35" height="28.3465"/>
			<rect x="0" y="321.465" width="28.3465" height="28.3465" class="st2"/>
			<text x="5.23" y="339.84" class="st3" v:langID="2052"><v:paragraph v:horizAlign="1"/><v:tabList/>D4</text>		</g>
		<g id="shape724-407" v:mID="724" v:groupContext="shape" transform="translate(610.449,-196.165)">
			<title>Sheet.724</title>
			<desc>D5</desc>
			<v:textBlock v:margins="rect(4,4,4,4)" v:tabSpace="42.5197"/>
			<v:textRect cx="14.1732" cy="335.638" width="28.35" height="28.3465"/>
			<rect x="0" y="321.465" width="28.3465" height="28.3465" class="st2"/>
			<text x="5.23" y="339.84" class="st3" v:langID="2052"><v:paragraph v:horizAlign="1"/><v:tabList/>D5</text>		</g>
		<g id="shape725-410" v:mID="725" v:groupContext="shape" transform="translate(638.795,-196.165)">
			<title>Sheet.725</title>
			<desc>D6</desc>
			<v:textBlock v:margins="rect(4,4,4,4)" v:tabSpace="42.5197"/>
			<v:textRect cx="14.1732" cy="335.638" width="28.35" height="28.3465"/>
			<rect x="0" y="321.465" width="28.3465" height="28.3465" class="st2"/>
			<text x="5.23" y="339.84" class="st3" v:langID="2052"><v:paragraph v:horizAlign="1"/><v:tabList/>D6</text>		</g>
		<g id="shape726-413" v:mID="726" v:groupContext="shape" transform="translate(667.142,-196.165)">
			<title>Sheet.726</title>
			<desc>D7</desc>
			<v:textBlock v:margins="rect(4,4,4,4)" v:tabSpace="42.5197"/>
			<v:textRect cx="14.1732" cy="335.638" width="28.35" height="28.3465"/>
			<rect x="0" y="321.465" width="28.3465" height="28.3465" class="st2"/>
			<text x="5.23" y="339.84" class="st3" v:langID="2052"><v:paragraph v:horizAlign="1"/><v:tabList/>D7</text>		</g>
		<g id="shape727-416" v:mID="727" v:groupContext="shape" transform="translate(695.488,-196.165)">
			<title>Sheet.727</title>
			<desc>Parity</desc>
			<v:textBlock v:margins="rect(4,4,4,4)" v:tabSpace="42.5197"/>
			<v:textRect cx="14.1732" cy="335.638" width="28.35" height="28.3465"/>
			<rect x="0" y="321.465" width="28.3465" height="28.3465" class="st2"/>
			<text x="4.84" y="332.04" class="st6" v:langID="2052"><v:paragraph v:horizAlign="1"/><v:tabList/>Par<tspan x="8.14"
						dy="1.2em" class="st4">ity</tspan></text>		</g>
		<g id="shape728-420" v:mID="728" v:groupContext="shape" transform="translate(723.835,-196.165)">
			<title>Sheet.728</title>
			<desc>Stop</desc>
			<v:textBlock v:margins="rect(4,4,4,4)" v:tabSpace="42.5197"/>
			<v:textRect cx="14.1732" cy="335.638" width="28.35" height="28.3465"/>
			<rect x="0" y="321.465" width="28.3465" height="28.3465" class="st2"/>
			<text x="5.17" y="332.04" class="st6" v:langID="2052"><v:paragraph v:horizAlign="1"/><v:tabList/>Sto<tspan x="10.84"
						dy="1.2em" class="st4">p</tspan></text>		</g>
		<g id="shape729-424" v:mID="729" v:groupContext="shape" transform="translate(100.213,-146.559)">
			<title>Sheet.729</title>
			<path d="M0 349.81 L680.31 349.81" class="st1"/>
		</g>
		<g id="shape730-427" v:mID="730" v:groupContext="shape" transform="translate(-221.252,203.252) rotate(-90)">
			<title>Sheet.730</title>
			<path d="M0 349.81 L17.79 349.81" class="st7"/>
		</g>
		<g id="shape731-433" v:mID="731" v:groupContext="shape" transform="translate(-8.65355,203.252) rotate(-90)">
			<title>Sheet.731</title>
			<path d="M0 349.81 L17.79 349.81" class="st7"/>
		</g>
		<g id="shape733-438" v:mID="733" v:groupContext="shape" transform="translate(100.213,-125.299)">
			<title>Sheet.733</title>
			<path d="M0 349.81 L28.35 349.81" class="st1"/>
		</g>
		<g id="shape736-441" v:mID="736" v:groupContext="shape" transform="translate(-221.252,252.858) rotate(-90)">
			<title>Sheet.736</title>
			<path d="M0 349.81 L28.35 349.81" class="st1"/>
		</g>
		<g id="shape737-444" v:mID="737" v:groupContext="shape" transform="translate(128.559,-96.9528)">
			<title>Sheet.737</title>
			<path d="M0 349.81 L28.35 349.81" class="st1"/>
		</g>
		<g id="shape738-447" v:mID="738" v:groupContext="shape" transform="translate(-192.906,252.858) rotate(-90)">
			<title>Sheet.738</title>
			<path d="M0 349.81 L28.35 349.81" class="st1"/>
		</g>
		<g id="shape739-450" v:mID="739" v:groupContext="shape" transform="translate(156.906,-125.299)">
			<title>Sheet.739</title>
			<path d="M0 349.81 L184.25 349.81" class="st1"/>
		</g>
		<g id="shape740-453" v:mID="740" v:groupContext="shape" transform="translate(-8.65355,252.858) rotate(-90)">
			<title>Sheet.740</title>
			<path d="M0 349.81 L28.35 349.81" class="st1"/>
		</g>
		<g id="shape741-456" v:mID="741" v:groupContext="shape" transform="translate(341.157,-96.9528)">
			<title>Sheet.741</title>
			<path d="M0 349.81 L141.73 349.81" class="st1"/>
		</g>
		<g id="shape742-459" v:mID="742" v:groupContext="shape" transform="translate(133.079,252.858) rotate(-90)">
			<title>Sheet.742</title>
			<path d="M0 349.81 L28.35 349.81" class="st1"/>
		</g>
		<g id="shape743-462" v:mID="743" v:groupContext="shape" transform="translate(482.89,-125.299)">
			<title>Sheet.743</title>
			<path d="M0 349.81 L297.64 349.81" class="st1"/>
		</g>
		<g id="shape744-465" v:mID="744" v:groupContext="shape" transform="translate(100.213,-75.6929)">
			<title>Sheet.744</title>
			<path d="M0 349.81 L28.35 349.81" class="st1"/>
		</g>
		<g id="shape745-468" v:mID="745" v:groupContext="shape" transform="translate(-221.252,302.465) rotate(-90)">
			<title>Sheet.745</title>
			<path d="M0 349.81 L28.35 349.81" class="st1"/>
		</g>
		<g id="shape746-471" v:mID="746" v:groupContext="shape" transform="translate(128.559,-47.3465)">
			<title>Sheet.746</title>
			<path d="M0 349.81 L595.28 349.81" class="st1"/>
		</g>
		<g id="shape747-474" v:mID="747" v:groupContext="shape" transform="translate(374.024,302.465) rotate(-90)">
			<title>Sheet.747</title>
			<path d="M0 349.81 L28.35 349.81" class="st1"/>
		</g>
		<g id="shape748-477" v:mID="748" v:groupContext="shape" transform="translate(723.835,-75.6929)">
			<title>Sheet.748</title>
			<path d="M0 349.81 L56.69 349.81" class="st1"/>
		</g>
		<g id="shape749-480" v:mID="749" v:groupContext="shape" transform="translate(29.3465,-224.512)">
			<title>Sheet.749</title>
			<desc>TXD</desc>
			<v:textBlock v:margins="rect(4,4,4,4)" v:tabSpace="42.5197"/>
			<v:textRect cx="35.4331" cy="335.638" width="70.87" height="28.3465"/>
			<rect x="0" y="321.465" width="70.8661" height="28.3465" class="st2"/>
			<text x="21.43" y="339.84" class="st3" v:langID="2052"><v:paragraph v:horizAlign="1"/><v:tabList/>TXD</text>		</g>
		<g id="shape750-483" v:mID="750" v:groupContext="shape" transform="translate(29.3465,-146.559)">
			<title>Sheet.750</title>
			<desc>write THR</desc>
			<v:textBlock v:margins="rect(4,4,4,4)" v:tabSpace="42.5197"/>
			<v:textRect cx="35.4331" cy="335.638" width="70.87" height="28.3465"/>
			<rect x="0" y="321.465" width="70.8661" height="28.3465" class="st2"/>
			<text x="4.37" y="339.84" class="st3" v:langID="2052"><v:paragraph v:horizAlign="1"/><v:tabList/>write THR</text>		</g>
		<g id="shape751-486" v:mID="751" v:groupContext="shape" transform="translate(29.3465,-96.9528)">
			<title>Sheet.751</title>
			<desc>TXRDY</desc>
			<v:textBlock v:margins="rect(4,4,4,4)" v:tabSpace="42.5197"/>
			<v:textRect cx="35.4331" cy="335.638" width="70.87" height="28.3465"/>
			<rect x="0" y="321.465" width="70.8661" height="28.3465" class="st2"/>
			<text x="16.87" y="339.84" class="st9" v:langID="1033"><v:paragraph v:horizAlign="1"/><v:tabList/>TXRDY</text>		</g>
		<g id="shape752-489" v:mID="752" v:groupContext="shape" transform="translate(29.3465,-47.3465)">
			<title>Sheet.752</title>
			<desc>TXEMPTY</desc>
			<v:textBlock v:margins="rect(4,4,4,4)" v:tabSpace="42.5197"/>
			<v:textRect cx="35.4331" cy="335.638" width="70.87" height="28.3465"/>
			<rect x="0" y="321.465" width="70.8661" height="28.3465" class="st2"/>
			<text x="8.55" y="339.84" class="st9" v:langID="1033"><v:paragraph v:horizAlign="1"/><v:tabList/>TXEMPTY</text>		</g>
	</g>
</svg>
